  0
SECTION
  2
HEADER
  9
$ACADVER
  1
AC1014
  9
$HANDSEED
  5
FFFF
  9
$MEASUREMENT
 70
     1
  0
ENDSEC
  0
SECTION
  2
TABLES
  0
TABLE
  2
VPORT
  5
8
330
0
100
AcDbSymbolTable
 70
     4
  0
VPORT
  5
2E
330
8
100
AcDbSymbolTableRecord
100
AcDbViewportTableRecord
  2
*ACTIVE
 70
     0
 10
0.0
 20
0.0
 11
1.0
 21
1.0
 12
210.0
 22
148.5
 13
0.0
 23
0.0
 14
10.0
 24
10.0
 15
10.0
 25
10.0
 16
0.0
 26
0.0
 36
1.0
 17
0.0
 27
0.0
 37
0.0
 40
341.0
 41
1.24
 42
50.0
 43
0.0
 44
0.0
 50
0.0
 51
0.0
 71
     0
 72
   100
 73
     1
 74
     3
 75
     0
 76
     0
 77
     0
 78
     0
  0
ENDTAB
  0
TABLE
  2
LTYPE
  5
5
330
0
100
AcDbSymbolTable
 70
     1
  0
LTYPE
  5
14
330
5
100
AcDbSymbolTableRecord
100
AcDbLinetypeTableRecord
  2
BYBLOCK
 70
     0
  3

 72
    65
 73
     0
 40
0.0
  0
LTYPE
  5
15
330
5
100
AcDbSymbolTableRecord
100
AcDbLinetypeTableRecord
  2
BYLAYER
 70
     0
  3

 72
    65
 73
     0
 40
0.0
  0
LTYPE
  5
16
330
5
100
AcDbSymbolTableRecord
100
AcDbLinetypeTableRecord
  2
CONTINUOUS
 70
     0
  3
Solid line
 72
    65
 73
     0
 40
0.0
  0
ENDTAB
  0
TABLE
  2
LAYER
  5
2
100
AcDbSymbolTable
 70
1
  0
LAYER
  5
50
100
AcDbSymbolTableRecord
100
AcDbLayerTableRecord
  2
0
 70
0
  6
CONTINUOUS
  0
ENDTAB
  0
TABLE
  2
STYLE
  5
3
330
0
100
AcDbSymbolTable
 70
     1
  0
STYLE
  5
11
330
3
100
AcDbSymbolTableRecord
100
AcDbTextStyleTableRecord
  2
STANDARD
 70
     0
 40
0.0
 41
1.0
 50
0.0
 71
     0
 42
2.5
  3
txt
  4

  0
ENDTAB
  0
TABLE
  2
VIEW
  5
6
330
0
100
AcDbSymbolTable
 70
     0
  0
ENDTAB
  0
TABLE
  2
UCS
  5
7
330
0
100
AcDbSymbolTable
 70
     0
  0
ENDTAB
  0
TABLE
  2
APPID
  5
9
330
0
100
AcDbSymbolTable
 70
     2
  0
APPID
  5
12
330
9
100
AcDbSymbolTableRecord
100
AcDbRegAppTableRecord
  2
ACAD
 70
     0
  0
ENDTAB
  0
TABLE
  2
DIMSTYLE
  5
A
330
0
100
AcDbSymbolTable
 70
     1
  0
DIMSTYLE
105
27
330
A
100
AcDbSymbolTableRecord
100
AcDbDimStyleTableRecord
  2
ISO-25
 70
     0
  3

  4

  5

  6

  7

 40
1.0
 41
2.5
 42
0.625
 43
3.75
 44
1.25
 45
0.0
 46
0.0
 47
0.0
 48
0.0
140
2.5
141
2.5
142
0.0
143
0.03937007874016
144
1.0
145
0.0
146
1.0
147
0.625
 71
     0
 72
     0
 73
     0
 74
     0
 75
     0
 76
     0
 77
     1
 78
     8
170
     0
171
     3
172
     1
173
     0
174
     0
175
     0
176
     0
177
     0
178
     0
270
     2
271
     2
272
     2
273
     2
274
     3
340
11
275
     0
280
     0
281
     0
282
     0
283
     0
284
     8
285
     0
286
     0
287
     3
288
     0
  0
ENDTAB
  0
TABLE
  2
BLOCK_RECORD
  5
1
330
0
100
AcDbSymbolTable
 70
     1
  0
BLOCK_RECORD
  5
1F
330
1
100
AcDbSymbolTableRecord
100
AcDbBlockTableRecord
  2
*MODEL_SPACE
  0
BLOCK_RECORD
  5
1B
330
1
100
AcDbSymbolTableRecord
100
AcDbBlockTableRecord
  2
*PAPER_SPACE
  0
ENDTAB
  0
ENDSEC
  0
SECTION
  2
BLOCKS
  0
BLOCK
  5
20
330
1F
100
AcDbEntity
  8
0
100
AcDbBlockBegin
  2
*MODEL_SPACE
 70
     0
 10
0.0
 20
0.0
 30
0.0
  3
*MODEL_SPACE
  1

  0
ENDBLK
  5
21
330
1F
100
AcDbEntity
  8
0
100
AcDbBlockEnd
  0
BLOCK
  5
1C
330
1B
100
AcDbEntity
 67
     1
  8
0
100
AcDbBlockBegin
  2
*PAPER_SPACE
  1

  0
ENDBLK
  5
1D
330
1B
100
AcDbEntity
 67
     1
  8
0
100
AcDbBlockEnd
  0
ENDSEC
  0
SECTION
  2
ENTITIES
  0
LWPOLYLINE
  5
100
100
AcDbEntity
  8
0
 62
7
100
AcDbPolyline
 90
53
 70
0
 10
10.315234
 20
3.834040
 30
0.0
 10
9.692234
 20
3.912723
 30
0.0
 10
9.084234
 20
4.068820
 30
0.0
 10
8.500235
 20
4.300017
 30
0.0
 10
7.950234
 20
4.602531
 30
0.0
 10
7.442234
 20
4.971536
 30
0.0
 10
6.984233
 20
5.401417
 30
0.0
 10
6.584234
 20
5.885231
 30
0.0
 10
6.247235
 20
6.415329
 30
0.0
 10
5.980233
 20
6.983527
 30
0.0
 10
5.786233
 20
7.580737
 30
0.0
 10
5.668234
 20
8.197421
 30
0.0
 10
5.629233
 20
8.824124
 30
0.0
 10
5.629233
 20
198.824144
 30
0.0
 10
5.668234
 20
199.450844
 30
0.0
 10
5.786233
 20
200.067545
 30
0.0
 10
5.980233
 20
200.664744
 30
0.0
 10
6.247235
 20
201.232945
 30
0.0
 10
6.584234
 20
201.763043
 30
0.0
 10
6.984233
 20
202.246845
 30
0.0
 10
7.442234
 20
202.676743
 30
0.0
 10
7.950234
 20
203.045743
 30
0.0
 10
8.500235
 20
203.348243
 30
0.0
 10
9.084234
 20
203.579445
 30
0.0
 10
9.692234
 20
203.735545
 30
0.0
 10
10.315234
 20
203.814245
 30
0.0
 10
287.943234
 20
203.814245
 30
0.0
 10
288.566239
 20
203.735545
 30
0.0
 10
289.174230
 20
203.579445
 30
0.0
 10
289.758233
 20
203.348243
 30
0.0
 10
290.308228
 20
203.045743
 30
0.0
 10
290.816228
 20
202.676743
 30
0.0
 10
291.274246
 20
202.246845
 30
0.0
 10
291.674240
 20
201.763043
 30
0.0
 10
292.011241
 20
201.232945
 30
0.0
 10
292.278223
 20
200.664744
 30
0.0
 10
292.472223
 20
200.067545
 30
0.0
 10
292.590248
 20
199.450844
 30
0.0
 10
292.629223
 20
198.824144
 30
0.0
 10
292.629223
 20
8.824124
 30
0.0
 10
292.590248
 20
8.197421
 30
0.0
 10
292.472223
 20
7.580737
 30
0.0
 10
292.278223
 20
6.983527
 30
0.0
 10
292.011241
 20
6.415329
 30
0.0
 10
291.674240
 20
5.885231
 30
0.0
 10
291.274246
 20
5.401417
 30
0.0
 10
290.816228
 20
4.971536
 30
0.0
 10
290.308228
 20
4.602531
 30
0.0
 10
289.758233
 20
4.300017
 30
0.0
 10
289.174230
 20
4.068820
 30
0.0
 10
288.566239
 20
3.912723
 30
0.0
 10
287.943234
 20
3.834040
 30
0.0
 10
10.315234
 20
3.834040
 30
0.0
  0
LWPOLYLINE
  5
101
100
AcDbEntity
  8
0
 62
7
100
AcDbPolyline
 90
51
 70
0
 10
285.938242
 20
195.203343
 30
0.0
 10
286.139241
 20
195.254945
 30
0.0
 10
286.332224
 20
195.331145
 30
0.0
 10
286.513242
 20
195.431043
 30
0.0
 10
286.681249
 20
195.552845
 30
0.0
 10
286.832238
 20
195.694644
 30
0.0
 10
286.964233
 20
195.854345
 30
0.0
 10
287.075231
 20
196.029244
 30
0.0
 10
287.163228
 20
196.216744
 30
0.0
 10
287.227236
 20
196.413845
 30
0.0
 10
287.266239
 20
196.617344
 30
0.0
 10
287.279221
 20
196.824143
 30
0.0
 10
287.266239
 20
197.030944
 30
0.0
 10
287.227236
 20
197.234443
 30
0.0
 10
287.163228
 20
197.431544
 30
0.0
 10
287.075231
 20
197.619044
 30
0.0
 10
286.964233
 20
197.793943
 30
0.0
 10
286.832238
 20
197.953644
 30
0.0
 10
286.681249
 20
198.095444
 30
0.0
 10
286.513242
 20
198.217245
 30
0.0
 10
286.332224
 20
198.317144
 30
0.0
 10
286.139241
 20
198.393344
 30
0.0
 10
285.938242
 20
198.444945
 30
0.0
 10
285.733236
 20
198.470853
 30
0.0
 10
285.525238
 20
198.470845
 30
0.0
 10
285.320232
 20
198.444937
 30
0.0
 10
285.119233
 20
198.393344
 30
0.0
 10
284.926222
 20
198.317144
 30
0.0
 10
284.745232
 20
198.217245
 30
0.0
 10
284.577226
 20
198.095444
 30
0.0
 10
284.426237
 20
197.953644
 30
0.0
 10
284.294241
 20
197.793943
 30
0.0
 10
284.183243
 20
197.619044
 30
0.0
 10
284.095246
 20
197.431544
 30
0.0
 10
284.031238
 20
197.234443
 30
0.0
 10
283.992235
 20
197.030944
 30
0.0
 10
283.979253
 20
196.824143
 30
0.0
 10
283.992207
 20
196.617344
 30
0.0
 10
284.031238
 20
196.413845
 30
0.0
 10
284.095246
 20
196.216744
 30
0.0
 10
284.183243
 20
196.029244
 30
0.0
 10
284.294241
 20
195.854345
 30
0.0
 10
284.426237
 20
195.694644
 30
0.0
 10
284.577226
 20
195.552845
 30
0.0
 10
284.745232
 20
195.431043
 30
0.0
 10
284.926222
 20
195.331145
 30
0.0
 10
285.119233
 20
195.254945
 30
0.0
 10
285.320232
 20
195.203343
 30
0.0
 10
285.525238
 20
195.177351
 30
0.0
 10
285.733236
 20
195.177345
 30
0.0
 10
285.938242
 20
195.203338
 30
0.0
  0
LWPOLYLINE
  5
102
100
AcDbEntity
  8
0
 62
7
100
AcDbPolyline
 90
51
 70
0
 10
12.938236
 20
195.203343
 30
0.0
 10
13.139234
 20
195.254945
 30
0.0
 10
13.332235
 20
195.331145
 30
0.0
 10
13.513235
 20
195.431043
 30
0.0
 10
13.681234
 20
195.552845
 30
0.0
 10
13.832234
 20
195.694644
 30
0.0
 10
13.964235
 20
195.854345
 30
0.0
 10
14.075233
 20
196.029244
 30
0.0
 10
14.163235
 20
196.216744
 30
0.0
 10
14.227235
 20
196.413845
 30
0.0
 10
14.266235
 20
196.617344
 30
0.0
 10
14.279246
 20
196.824143
 30
0.0
 10
14.266224
 20
197.030944
 30
0.0
 10
14.227235
 20
197.234443
 30
0.0
 10
14.163235
 20
197.431544
 30
0.0
 10
14.075233
 20
197.619044
 30
0.0
 10
13.964235
 20
197.793943
 30
0.0
 10
13.832234
 20
197.953644
 30
0.0
 10
13.681234
 20
198.095444
 30
0.0
 10
13.513235
 20
198.217245
 30
0.0
 10
13.332235
 20
198.317144
 30
0.0
 10
13.139234
 20
198.393344
 30
0.0
 10
12.938236
 20
198.444945
 30
0.0
 10
12.733235
 20
198.470853
 30
0.0
 10
12.525234
 20
198.470845
 30
0.0
 10
12.320234
 20
198.444937
 30
0.0
 10
12.119235
 20
198.393344
 30
0.0
 10
11.926235
 20
198.317144
 30
0.0
 10
11.745234
 20
198.217245
 30
0.0
 10
11.577233
 20
198.095444
 30
0.0
 10
11.426233
 20
197.953644
 30
0.0
 10
11.294235
 20
197.793943
 30
0.0
 10
11.183234
 20
197.619044
 30
0.0
 10
11.095234
 20
197.431544
 30
0.0
 10
11.031235
 20
197.234443
 30
0.0
 10
10.992234
 20
197.030944
 30
0.0
 10
10.979224
 20
196.824143
 30
0.0
 10
10.992246
 20
196.617344
 30
0.0
 10
11.031235
 20
196.413845
 30
0.0
 10
11.095234
 20
196.216744
 30
0.0
 10
11.183234
 20
196.029244
 30
0.0
 10
11.294235
 20
195.854345
 30
0.0
 10
11.426233
 20
195.694644
 30
0.0
 10
11.577233
 20
195.552845
 30
0.0
 10
11.745234
 20
195.431043
 30
0.0
 10
11.926235
 20
195.331145
 30
0.0
 10
12.119235
 20
195.254945
 30
0.0
 10
12.320234
 20
195.203343
 30
0.0
 10
12.525234
 20
195.177351
 30
0.0
 10
12.733235
 20
195.177345
 30
0.0
 10
12.938236
 20
195.203338
 30
0.0
  0
LWPOLYLINE
  5
103
100
AcDbEntity
  8
0
 62
7
100
AcDbPolyline
 90
51
 70
0
 10
258.688233
 20
192.703343
 30
0.0
 10
258.889235
 20
192.754944
 30
0.0
 10
259.082232
 20
192.831144
 30
0.0
 10
259.263233
 20
192.931045
 30
0.0
 10
259.431234
 20
193.052844
 30
0.0
 10
259.582234
 20
193.194644
 30
0.0
 10
259.714232
 20
193.354345
 30
0.0
 10
259.825233
 20
193.529244
 30
0.0
 10
259.913233
 20
193.716743
 30
0.0
 10
259.977232
 20
193.913845
 30
0.0
 10
260.016233
 20
194.117344
 30
0.0
 10
260.029243
 20
194.324145
 30
0.0
 10
260.016224
 20
194.530943
 30
0.0
 10
259.977232
 20
194.734445
 30
0.0
 10
259.913233
 20
194.931544
 30
0.0
 10
259.825233
 20
195.119044
 30
0.0
 10
259.714232
 20
195.293945
 30
0.0
 10
259.582234
 20
195.453643
 30
0.0
 10
259.431234
 20
195.595443
 30
0.0
 10
259.263233
 20
195.717245
 30
0.0
 10
259.082232
 20
195.817143
 30
0.0
 10
258.889235
 20
195.893343
 30
0.0
 10
258.688233
 20
195.944944
 30
0.0
 10
258.483233
 20
195.970852
 30
0.0
 10
258.275232
 20
195.970844
 30
0.0
 10
258.070234
 20
195.944936
 30
0.0
 10
257.869233
 20
195.893343
 30
0.0
 10
257.676232
 20
195.817143
 30
0.0
 10
257.495235
 20
195.717245
 30
0.0
 10
257.327233
 20
195.595443
 30
0.0
 10
257.176233
 20
195.453643
 30
0.0
 10
257.044232
 20
195.293945
 30
0.0
 10
256.933234
 20
195.119044
 30
0.0
 10
256.845235
 20
194.931544
 30
0.0
 10
256.781232
 20
194.734445
 30
0.0
 10
256.742235
 20
194.530943
 30
0.0
 10
256.729224
 20
194.324145
 30
0.0
 10
256.742243
 20
194.117344
 30
0.0
 10
256.781232
 20
193.913845
 30
0.0
 10
256.845235
 20
193.716743
 30
0.0
 10
256.933234
 20
193.529244
 30
0.0
 10
257.044232
 20
193.354345
 30
0.0
 10
257.176233
 20
193.194644
 30
0.0
 10
257.327233
 20
193.052844
 30
0.0
 10
257.495235
 20
192.931045
 30
0.0
 10
257.676232
 20
192.831144
 30
0.0
 10
257.869233
 20
192.754944
 30
0.0
 10
258.070234
 20
192.703343
 30
0.0
 10
258.275232
 20
192.677350
 30
0.0
 10
258.483233
 20
192.677344
 30
0.0
 10
258.688233
 20
192.703337
 30
0.0
  0
LWPOLYLINE
  5
104
100
AcDbEntity
  8
0
 62
7
100
AcDbPolyline
 90
51
 70
0
 10
183.688434
 20
192.703343
 30
0.0
 10
183.889134
 20
192.754944
 30
0.0
 10
184.081733
 20
192.831144
 30
0.0
 10
184.263335
 20
192.931045
 30
0.0
 10
184.431034
 20
193.052844
 30
0.0
 10
184.582034
 20
193.194644
 30
0.0
 10
184.714134
 20
193.354345
 30
0.0
 10
184.825132
 20
193.529244
 30
0.0
 10
184.913335
 20
193.716743
 30
0.0
 10
184.977433
 20
193.913845
 30
0.0
 10
185.016233
 20
194.117344
 30
0.0
 10
185.029244
 20
194.324145
 30
0.0
 10
185.016222
 20
194.530943
 30
0.0
 10
184.977433
 20
194.734445
 30
0.0
 10
184.913335
 20
194.931544
 30
0.0
 10
184.825132
 20
195.119044
 30
0.0
 10
184.714134
 20
195.293945
 30
0.0
 10
184.582034
 20
195.453643
 30
0.0
 10
184.431034
 20
195.595443
 30
0.0
 10
184.263335
 20
195.717245
 30
0.0
 10
184.081733
 20
195.817143
 30
0.0
 10
183.889134
 20
195.893343
 30
0.0
 10
183.688434
 20
195.944944
 30
0.0
 10
183.482832
 20
195.970852
 30
0.0
 10
183.275633
 20
195.970844
 30
0.0
 10
183.070034
 20
195.944936
 30
0.0
 10
182.869335
 20
195.893343
 30
0.0
 10
182.676732
 20
195.817143
 30
0.0
 10
182.495134
 20
195.717245
 30
0.0
 10
182.327533
 20
195.595443
 30
0.0
 10
182.176434
 20
195.453643
 30
0.0
 10
182.044334
 20
195.293945
 30
0.0
 10
181.933334
 20
195.119044
 30
0.0
 10
181.845133
 20
194.931544
 30
0.0
 10
181.781032
 20
194.734445
 30
0.0
 10
181.742232
 20
194.530943
 30
0.0
 10
181.729222
 20
194.324145
 30
0.0
 10
181.742244
 20
194.117344
 30
0.0
 10
181.781032
 20
193.913845
 30
0.0
 10
181.845133
 20
193.716743
 30
0.0
 10
181.933334
 20
193.529244
 30
0.0
 10
182.044334
 20
193.354345
 30
0.0
 10
182.176434
 20
193.194644
 30
0.0
 10
182.327533
 20
193.052844
 30
0.0
 10
182.495134
 20
192.931045
 30
0.0
 10
182.676732
 20
192.831144
 30
0.0
 10
182.869335
 20
192.754944
 30
0.0
 10
183.070034
 20
192.703343
 30
0.0
 10
183.275633
 20
192.677350
 30
0.0
 10
183.482832
 20
192.677344
 30
0.0
 10
183.688434
 20
192.703337
 30
0.0
  0
LWPOLYLINE
  5
105
100
AcDbEntity
  8
0
 62
7
100
AcDbPolyline
 90
5
 70
0
 10
256.629233
 20
191.074144
 30
0.0
 10
185.129235
 20
191.074144
 30
0.0
 10
185.129235
 20
166.574145
 30
0.0
 10
256.629233
 20
166.574145
 30
0.0
 10
256.629233
 20
191.074144
 30
0.0
  0
LWPOLYLINE
  5
106
100
AcDbEntity
  8
0
 62
7
100
AcDbPolyline
 90
51
 70
0
 10
20.938234
 20
187.203345
 30
0.0
 10
21.139235
 20
187.254944
 30
0.0
 10
21.332233
 20
187.331144
 30
0.0
 10
21.513233
 20
187.431045
 30
0.0
 10
21.681235
 20
187.552844
 30
0.0
 10
21.832235
 20
187.694643
 30
0.0
 10
21.964233
 20
187.854344
 30
0.0
 10
22.075234
 20
188.029243
 30
0.0
 10
22.163233
 20
188.216743
 30
0.0
 10
22.227233
 20
188.413844
 30
0.0
 10
22.266233
 20
188.617344
 30
0.0
 10
22.279244
 20
188.824145
 30
0.0
 10
22.266225
 20
189.030943
 30
0.0
 10
22.227233
 20
189.234445
 30
0.0
 10
22.163233
 20
189.431543
 30
0.0
 10
22.075234
 20
189.619043
 30
0.0
 10
21.964233
 20
189.793945
 30
0.0
 10
21.832235
 20
189.953643
 30
0.0
 10
21.681235
 20
190.095443
 30
0.0
 10
21.513233
 20
190.217244
 30
0.0
 10
21.332233
 20
190.317145
 30
0.0
 10
21.139235
 20
190.393345
 30
0.0
 10
20.938234
 20
190.444944
 30
0.0
 10
20.733233
 20
190.470852
 30
0.0
 10
20.525235
 20
190.470844
 30
0.0
 10
20.320235
 20
190.444936
 30
0.0
 10
20.119233
 20
190.393345
 30
0.0
 10
19.926233
 20
190.317145
 30
0.0
 10
19.745235
 20
190.217244
 30
0.0
 10
19.577234
 20
190.095443
 30
0.0
 10
19.426234
 20
189.953643
 30
0.0
 10
19.294233
 20
189.793945
 30
0.0
 10
19.183235
 20
189.619043
 30
0.0
 10
19.095235
 20
189.431543
 30
0.0
 10
19.031233
 20
189.234445
 30
0.0
 10
18.992235
 20
189.030943
 30
0.0
 10
18.979225
 20
188.824145
 30
0.0
 10
18.992244
 20
188.617344
 30
0.0
 10
19.031233
 20
188.413844
 30
0.0
 10
19.095235
 20
188.216743
 30
0.0
 10
19.183235
 20
188.029243
 30
0.0
 10
19.294233
 20
187.854344
 30
0.0
 10
19.426234
 20
187.694643
 30
0.0
 10
19.577234
 20
187.552844
 30
0.0
 10
19.745235
 20
187.431045
 30
0.0
 10
19.926233
 20
187.331144
 30
0.0
 10
20.119233
 20
187.254944
 30
0.0
 10
20.320235
 20
187.203345
 30
0.0
 10
20.525235
 20
187.177353
 30
0.0
 10
20.733233
 20
187.177344
 30
0.0
 10
20.938234
 20
187.203337
 30
0.0
  0
LWPOLYLINE
  5
107
100
AcDbEntity
  8
0
 62
7
100
AcDbPolyline
 90
51
 70
0
 10
134.438435
 20
187.203345
 30
0.0
 10
134.639135
 20
187.254944
 30
0.0
 10
134.831734
 20
187.331144
 30
0.0
 10
135.013333
 20
187.431045
 30
0.0
 10
135.180934
 20
187.552844
 30
0.0
 10
135.332035
 20
187.694643
 30
0.0
 10
135.464135
 20
187.854344
 30
0.0
 10
135.575133
 20
188.029243
 30
0.0
 10
135.663333
 20
188.216743
 30
0.0
 10
135.727434
 20
188.413844
 30
0.0
 10
135.766234
 20
188.617344
 30
0.0
 10
135.779245
 20
188.824145
 30
0.0
 10
135.766223
 20
189.030943
 30
0.0
 10
135.727434
 20
189.234445
 30
0.0
 10
135.663333
 20
189.431543
 30
0.0
 10
135.575133
 20
189.619043
 30
0.0
 10
135.464135
 20
189.793945
 30
0.0
 10
135.332035
 20
189.953643
 30
0.0
 10
135.180934
 20
190.095443
 30
0.0
 10
135.013333
 20
190.217244
 30
0.0
 10
134.831734
 20
190.317145
 30
0.0
 10
134.639135
 20
190.393345
 30
0.0
 10
134.438435
 20
190.444944
 30
0.0
 10
134.232833
 20
190.470852
 30
0.0
 10
134.025634
 20
190.470844
 30
0.0
 10
133.820035
 20
190.444936
 30
0.0
 10
133.619333
 20
190.393345
 30
0.0
 10
133.426733
 20
190.317145
 30
0.0
 10
133.245135
 20
190.217244
 30
0.0
 10
133.077435
 20
190.095443
 30
0.0
 10
132.926435
 20
189.953643
 30
0.0
 10
132.794335
 20
189.793945
 30
0.0
 10
132.683335
 20
189.619043
 30
0.0
 10
132.595135
 20
189.431543
 30
0.0
 10
132.531033
 20
189.234445
 30
0.0
 10
132.492234
 20
189.030943
 30
0.0
 10
132.479223
 20
188.824145
 30
0.0
 10
132.492245
 20
188.617344
 30
0.0
 10
132.531033
 20
188.413844
 30
0.0
 10
132.595135
 20
188.216743
 30
0.0
 10
132.683335
 20
188.029243
 30
0.0
 10
132.794335
 20
187.854344
 30
0.0
 10
132.926435
 20
187.694643
 30
0.0
 10
133.077435
 20
187.552844
 30
0.0
 10
133.245135
 20
187.431045
 30
0.0
 10
133.426733
 20
187.331144
 30
0.0
 10
133.619333
 20
187.254944
 30
0.0
 10
133.820035
 20
187.203345
 30
0.0
 10
134.025634
 20
187.177353
 30
0.0
 10
134.232833
 20
187.177344
 30
0.0
 10
134.438435
 20
187.203337
 30
0.0
  0
LWPOLYLINE
  5
108
100
AcDbEntity
  8
0
 62
7
100
AcDbPolyline
 90
51
 70
0
 10
183.688434
 20
161.703345
 30
0.0
 10
183.889134
 20
161.754944
 30
0.0
 10
184.081733
 20
161.831144
 30
0.0
 10
184.263335
 20
161.931045
 30
0.0
 10
184.431034
 20
162.052844
 30
0.0
 10
184.582034
 20
162.194644
 30
0.0
 10
184.714134
 20
162.354345
 30
0.0
 10
184.825132
 20
162.529243
 30
0.0
 10
184.913335
 20
162.716743
 30
0.0
 10
184.977433
 20
162.913845
 30
0.0
 10
185.016233
 20
163.117344
 30
0.0
 10
185.029244
 20
163.324145
 30
0.0
 10
185.016222
 20
163.530943
 30
0.0
 10
184.977433
 20
163.734445
 30
0.0
 10
184.913335
 20
163.931544
 30
0.0
 10
184.825132
 20
164.119044
 30
0.0
 10
184.714134
 20
164.293945
 30
0.0
 10
184.582034
 20
164.453643
 30
0.0
 10
184.431034
 20
164.595443
 30
0.0
 10
184.263335
 20
164.717245
 30
0.0
 10
184.081733
 20
164.817143
 30
0.0
 10
183.889134
 20
164.893343
 30
0.0
 10
183.688434
 20
164.944944
 30
0.0
 10
183.482832
 20
164.970937
 30
0.0
 10
183.275633
 20
164.970943
 30
0.0
 10
183.070034
 20
164.944950
 30
0.0
 10
182.869335
 20
164.893343
 30
0.0
 10
182.676732
 20
164.817143
 30
0.0
 10
182.495134
 20
164.717245
 30
0.0
 10
182.327533
 20
164.595443
 30
0.0
 10
182.176434
 20
164.453643
 30
0.0
 10
182.044334
 20
164.293945
 30
0.0
 10
181.933334
 20
164.119044
 30
0.0
 10
181.845133
 20
163.931544
 30
0.0
 10
181.781032
 20
163.734445
 30
0.0
 10
181.742232
 20
163.530943
 30
0.0
 10
181.729222
 20
163.324145
 30
0.0
 10
181.742244
 20
163.117344
 30
0.0
 10
181.781032
 20
162.913845
 30
0.0
 10
181.845133
 20
162.716743
 30
0.0
 10
181.933334
 20
162.529243
 30
0.0
 10
182.044334
 20
162.354345
 30
0.0
 10
182.176434
 20
162.194644
 30
0.0
 10
182.327533
 20
162.052844
 30
0.0
 10
182.495134
 20
161.931045
 30
0.0
 10
182.676732
 20
161.831144
 30
0.0
 10
182.869335
 20
161.754944
 30
0.0
 10
183.070034
 20
161.703345
 30
0.0
 10
183.275633
 20
161.677437
 30
0.0
 10
183.482832
 20
161.677443
 30
0.0
 10
183.688434
 20
161.703351
 30
0.0
  0
LWPOLYLINE
  5
109
100
AcDbEntity
  8
0
 62
7
100
AcDbPolyline
 90
51
 70
0
 10
258.688233
 20
161.703345
 30
0.0
 10
258.889235
 20
161.754944
 30
0.0
 10
259.082232
 20
161.831144
 30
0.0
 10
259.263233
 20
161.931045
 30
0.0
 10
259.431234
 20
162.052844
 30
0.0
 10
259.582234
 20
162.194644
 30
0.0
 10
259.714232
 20
162.354345
 30
0.0
 10
259.825233
 20
162.529243
 30
0.0
 10
259.913233
 20
162.716743
 30
0.0
 10
259.977232
 20
162.913845
 30
0.0
 10
260.016233
 20
163.117344
 30
0.0
 10
260.029243
 20
163.324145
 30
0.0
 10
260.016224
 20
163.530943
 30
0.0
 10
259.977232
 20
163.734445
 30
0.0
 10
259.913233
 20
163.931544
 30
0.0
 10
259.825233
 20
164.119044
 30
0.0
 10
259.714232
 20
164.293945
 30
0.0
 10
259.582234
 20
164.453643
 30
0.0
 10
259.431234
 20
164.595443
 30
0.0
 10
259.263233
 20
164.717245
 30
0.0
 10
259.082232
 20
164.817143
 30
0.0
 10
258.889235
 20
164.893343
 30
0.0
 10
258.688233
 20
164.944944
 30
0.0
 10
258.483233
 20
164.970937
 30
0.0
 10
258.275232
 20
164.970943
 30
0.0
 10
258.070234
 20
164.944950
 30
0.0
 10
257.869233
 20
164.893343
 30
0.0
 10
257.676232
 20
164.817143
 30
0.0
 10
257.495235
 20
164.717245
 30
0.0
 10
257.327233
 20
164.595443
 30
0.0
 10
257.176233
 20
164.453643
 30
0.0
 10
257.044232
 20
164.293945
 30
0.0
 10
256.933234
 20
164.119044
 30
0.0
 10
256.845235
 20
163.931544
 30
0.0
 10
256.781232
 20
163.734445
 30
0.0
 10
256.742235
 20
163.530943
 30
0.0
 10
256.729224
 20
163.324145
 30
0.0
 10
256.742243
 20
163.117344
 30
0.0
 10
256.781232
 20
162.913845
 30
0.0
 10
256.845235
 20
162.716743
 30
0.0
 10
256.933234
 20
162.529243
 30
0.0
 10
257.044232
 20
162.354345
 30
0.0
 10
257.176233
 20
162.194644
 30
0.0
 10
257.327233
 20
162.052844
 30
0.0
 10
257.495235
 20
161.931045
 30
0.0
 10
257.676232
 20
161.831144
 30
0.0
 10
257.869233
 20
161.754944
 30
0.0
 10
258.070234
 20
161.703345
 30
0.0
 10
258.275232
 20
161.677437
 30
0.0
 10
258.483233
 20
161.677443
 30
0.0
 10
258.688233
 20
161.703351
 30
0.0
  0
LWPOLYLINE
  5
10a
100
AcDbEntity
  8
0
 62
7
100
AcDbPolyline
 90
51
 70
0
 10
281.938233
 20
145.203345
 30
0.0
 10
282.139235
 20
145.254943
 30
0.0
 10
282.332232
 20
145.331143
 30
0.0
 10
282.513222
 20
145.431044
 30
0.0
 10
282.681228
 20
145.552843
 30
0.0
 10
282.832246
 20
145.694646
 30
0.0
 10
282.964241
 20
145.854344
 30
0.0
 10
283.075239
 20
146.029245
 30
0.0
 10
283.163236
 20
146.216745
 30
0.0
 10
283.227244
 20
146.413844
 30
0.0
 10
283.266247
 20
146.617343
 30
0.0
 10
283.279229
 20
146.824144
 30
0.0
 10
283.266247
 20
147.030945
 30
0.0
 10
283.227244
 20
147.234444
 30
0.0
 10
283.163236
 20
147.431543
 30
0.0
 10
283.075239
 20
147.619043
 30
0.0
 10
282.964241
 20
147.793944
 30
0.0
 10
282.832246
 20
147.953645
 30
0.0
 10
282.681228
 20
148.095445
 30
0.0
 10
282.513222
 20
148.217244
 30
0.0
 10
282.332232
 20
148.317145
 30
0.0
 10
282.139235
 20
148.393345
 30
0.0
 10
281.938233
 20
148.444943
 30
0.0
 10
281.733233
 20
148.470851
 30
0.0
 10
281.525232
 20
148.470843
 30
0.0
 10
281.320234
 20
148.444935
 30
0.0
 10
281.119233
 20
148.393345
 30
0.0
 10
280.926232
 20
148.317145
 30
0.0
 10
280.745235
 20
148.217244
 30
0.0
 10
280.577234
 20
148.095445
 30
0.0
 10
280.426233
 20
147.953645
 30
0.0
 10
280.294232
 20
147.793944
 30
0.0
 10
280.183234
 20
147.619043
 30
0.0
 10
280.095235
 20
147.431543
 30
0.0
 10
280.031232
 20
147.234444
 30
0.0
 10
279.992232
 20
147.030945
 30
0.0
 10
279.979222
 20
146.824144
 30
0.0
 10
279.992243
 20
146.617343
 30
0.0
 10
280.031232
 20
146.413844
 30
0.0
 10
280.095235
 20
146.216745
 30
0.0
 10
280.183234
 20
146.029245
 30
0.0
 10
280.294232
 20
145.854344
 30
0.0
 10
280.426233
 20
145.694646
 30
0.0
 10
280.577234
 20
145.552843
 30
0.0
 10
280.745235
 20
145.431044
 30
0.0
 10
280.926232
 20
145.331143
 30
0.0
 10
281.119233
 20
145.254943
 30
0.0
 10
281.320234
 20
145.203345
 30
0.0
 10
281.525232
 20
145.177352
 30
0.0
 10
281.733233
 20
145.177343
 30
0.0
 10
281.938233
 20
145.203336
 30
0.0
  0
LWPOLYLINE
  5
10b
100
AcDbEntity
  8
0
 62
7
100
AcDbPolyline
 90
51
 70
0
 10
256.938232
 20
145.203345
 30
0.0
 10
257.139234
 20
145.254943
 30
0.0
 10
257.332234
 20
145.331143
 30
0.0
 10
257.513235
 20
145.431044
 30
0.0
 10
257.681233
 20
145.552843
 30
0.0
 10
257.832233
 20
145.694646
 30
0.0
 10
257.964234
 20
145.854344
 30
0.0
 10
258.075232
 20
146.029245
 30
0.0
 10
258.163232
 20
146.216745
 30
0.0
 10
258.227235
 20
146.413844
 30
0.0
 10
258.266235
 20
146.617343
 30
0.0
 10
258.279245
 20
146.824144
 30
0.0
 10
258.266224
 20
147.030945
 30
0.0
 10
258.227235
 20
147.234444
 30
0.0
 10
258.163232
 20
147.431543
 30
0.0
 10
258.075232
 20
147.619043
 30
0.0
 10
257.964234
 20
147.793944
 30
0.0
 10
257.832233
 20
147.953645
 30
0.0
 10
257.681233
 20
148.095445
 30
0.0
 10
257.513235
 20
148.217244
 30
0.0
 10
257.332234
 20
148.317145
 30
0.0
 10
257.139234
 20
148.393345
 30
0.0
 10
256.938232
 20
148.444943
 30
0.0
 10
256.733235
 20
148.470851
 30
0.0
 10
256.525234
 20
148.470843
 30
0.0
 10
256.320234
 20
148.444935
 30
0.0
 10
256.119235
 20
148.393345
 30
0.0
 10
255.926234
 20
148.317145
 30
0.0
 10
255.745234
 20
148.217244
 30
0.0
 10
255.577233
 20
148.095445
 30
0.0
 10
255.426233
 20
147.953645
 30
0.0
 10
255.294234
 20
147.793944
 30
0.0
 10
255.183234
 20
147.619043
 30
0.0
 10
255.095234
 20
147.431543
 30
0.0
 10
255.031234
 20
147.234444
 30
0.0
 10
254.992234
 20
147.030945
 30
0.0
 10
254.979224
 20
146.824144
 30
0.0
 10
254.992243
 20
146.617343
 30
0.0
 10
255.031234
 20
146.413844
 30
0.0
 10
255.095234
 20
146.216745
 30
0.0
 10
255.183234
 20
146.029245
 30
0.0
 10
255.294234
 20
145.854344
 30
0.0
 10
255.426233
 20
145.694646
 30
0.0
 10
255.577233
 20
145.552843
 30
0.0
 10
255.745234
 20
145.431044
 30
0.0
 10
255.926234
 20
145.331143
 30
0.0
 10
256.119235
 20
145.254943
 30
0.0
 10
256.320234
 20
145.203345
 30
0.0
 10
256.525234
 20
145.177352
 30
0.0
 10
256.733235
 20
145.177343
 30
0.0
 10
256.938232
 20
145.203336
 30
0.0
  0
LWPOLYLINE
  5
10c
100
AcDbEntity
  8
0
 62
7
100
AcDbPolyline
 90
51
 70
0
 10
159.086034
 20
143.937143
 30
0.0
 10
159.289536
 20
143.975943
 30
0.0
 10
159.486634
 20
144.040044
 30
0.0
 10
159.674134
 20
144.128244
 30
0.0
 10
159.849035
 20
144.239245
 30
0.0
 10
160.008734
 20
144.371345
 30
0.0
 10
160.150533
 20
144.522345
 30
0.0
 10
160.272335
 20
144.690044
 30
0.0
 10
160.372233
 20
144.871643
 30
0.0
 10
160.448433
 20
145.064243
 30
0.0
 10
160.500035
 20
145.264945
 30
0.0
 10
160.526027
 20
145.470544
 30
0.0
 10
160.526033
 20
145.677743
 30
0.0
 10
160.500040
 20
145.883345
 30
0.0
 10
160.448433
 20
146.084044
 30
0.0
 10
160.372233
 20
146.276644
 30
0.0
 10
160.272335
 20
146.458243
 30
0.0
 10
160.150533
 20
146.625843
 30
0.0
 10
160.008734
 20
146.776945
 30
0.0
 10
159.849035
 20
146.909045
 30
0.0
 10
159.674134
 20
147.020043
 30
0.0
 10
159.486634
 20
147.108243
 30
0.0
 10
159.289536
 20
147.172344
 30
0.0
 10
159.086034
 20
147.211144
 30
0.0
 10
158.879235
 20
147.224155
 30
0.0
 10
158.672445
 20
147.211133
 30
0.0
 10
158.468915
 20
147.172344
 30
0.0
 10
158.271845
 20
147.108243
 30
0.0
 10
158.084345
 20
147.020043
 30
0.0
 10
157.909404
 20
146.909045
 30
0.0
 10
157.749734
 20
146.776945
 30
0.0
 10
157.607903
 20
146.625843
 30
0.0
 10
157.486104
 20
146.458243
 30
0.0
 10
157.386285
 20
146.276644
 30
0.0
 10
157.310003
 20
146.084044
 30
0.0
 10
157.258464
 20
145.883345
 30
0.0
 10
157.232500
 20
145.677743
 30
0.0
 10
157.232494
 20
145.470544
 30
0.0
 10
157.258458
 20
145.264945
 30
0.0
 10
157.310003
 20
145.064243
 30
0.0
 10
157.386285
 20
144.871643
 30
0.0
 10
157.486104
 20
144.690044
 30
0.0
 10
157.607903
 20
144.522345
 30
0.0
 10
157.749734
 20
144.371345
 30
0.0
 10
157.909404
 20
144.239245
 30
0.0
 10
158.084345
 20
144.128244
 30
0.0
 10
158.271845
 20
144.040044
 30
0.0
 10
158.468915
 20
143.975943
 30
0.0
 10
158.672445
 20
143.937143
 30
0.0
 10
158.879235
 20
143.924133
 30
0.0
 10
159.086034
 20
143.937155
 30
0.0
  0
LWPOLYLINE
  5
10d
100
AcDbEntity
  8
0
 62
7
100
AcDbPolyline
 90
51
 70
0
 10
179.586032
 20
143.937143
 30
0.0
 10
179.789534
 20
143.975943
 30
0.0
 10
179.986632
 20
144.040044
 30
0.0
 10
180.174132
 20
144.128244
 30
0.0
 10
180.349034
 20
144.239245
 30
0.0
 10
180.508735
 20
144.371345
 30
0.0
 10
180.650535
 20
144.522345
 30
0.0
 10
180.772333
 20
144.690044
 30
0.0
 10
180.872234
 20
144.871643
 30
0.0
 10
180.948434
 20
145.064243
 30
0.0
 10
181.000033
 20
145.264945
 30
0.0
 10
181.025941
 20
145.470544
 30
0.0
 10
181.025933
 20
145.677743
 30
0.0
 10
181.000025
 20
145.883345
 30
0.0
 10
180.948434
 20
146.084044
 30
0.0
 10
180.872234
 20
146.276644
 30
0.0
 10
180.772333
 20
146.458243
 30
0.0
 10
180.650535
 20
146.625843
 30
0.0
 10
180.508735
 20
146.776945
 30
0.0
 10
180.349034
 20
146.909045
 30
0.0
 10
180.174132
 20
147.020043
 30
0.0
 10
179.986632
 20
147.108243
 30
0.0
 10
179.789534
 20
147.172344
 30
0.0
 10
179.586032
 20
147.211144
 30
0.0
 10
179.379234
 20
147.224155
 30
0.0
 10
179.172433
 20
147.211133
 30
0.0
 10
178.968933
 20
147.172344
 30
0.0
 10
178.771835
 20
147.108243
 30
0.0
 10
178.584335
 20
147.020043
 30
0.0
 10
178.409433
 20
146.909045
 30
0.0
 10
178.249732
 20
146.776945
 30
0.0
 10
178.107933
 20
146.625843
 30
0.0
 10
177.986134
 20
146.458243
 30
0.0
 10
177.886233
 20
146.276644
 30
0.0
 10
177.810033
 20
146.084044
 30
0.0
 10
177.758434
 20
145.883345
 30
0.0
 10
177.732442
 20
145.677743
 30
0.0
 10
177.732433
 20
145.470544
 30
0.0
 10
177.758426
 20
145.264945
 30
0.0
 10
177.810033
 20
145.064243
 30
0.0
 10
177.886233
 20
144.871643
 30
0.0
 10
177.986134
 20
144.690044
 30
0.0
 10
178.107933
 20
144.522345
 30
0.0
 10
178.249732
 20
144.371345
 30
0.0
 10
178.409433
 20
144.239245
 30
0.0
 10
178.584335
 20
144.128244
 30
0.0
 10
178.771835
 20
144.040044
 30
0.0
 10
178.968933
 20
143.975943
 30
0.0
 10
179.172433
 20
143.937143
 30
0.0
 10
179.379234
 20
143.924133
 30
0.0
 10
179.586032
 20
143.937155
 30
0.0
  0
LWPOLYLINE
  5
10e
100
AcDbEntity
  8
0
 62
7
100
AcDbPolyline
 90
51
 70
0
 10
276.253234
 20
130.930444
 30
0.0
 10
276.983232
 20
131.117845
 30
0.0
 10
277.684233
 20
131.395145
 30
0.0
 10
278.344235
 20
131.758145
 30
0.0
 10
278.954233
 20
132.201045
 30
0.0
 10
279.503234
 20
132.716843
 30
0.0
 10
279.983235
 20
133.297445
 30
0.0
 10
280.387233
 20
133.933644
 30
0.0
 10
280.708233
 20
134.615445
 30
0.0
 10
280.940233
 20
135.332044
 30
0.0
 10
281.082234
 20
136.072143
 30
0.0
 10
281.129235
 20
136.824144
 30
0.0
 10
281.082234
 20
137.576145
 30
0.0
 10
280.940233
 20
138.316245
 30
0.0
 10
280.708233
 20
139.032844
 30
0.0
 10
280.387233
 20
139.714645
 30
0.0
 10
279.983235
 20
140.350844
 30
0.0
 10
279.503234
 20
140.931443
 30
0.0
 10
278.954233
 20
141.447243
 30
0.0
 10
278.344235
 20
141.890143
 30
0.0
 10
277.684233
 20
142.253143
 30
0.0
 10
276.983232
 20
142.530443
 30
0.0
 10
276.253234
 20
142.717845
 30
0.0
 10
275.506234
 20
142.812344
 30
0.0
 10
274.752235
 20
142.812344
 30
0.0
 10
274.005235
 20
142.717845
 30
0.0
 10
273.275233
 20
142.530443
 30
0.0
 10
272.574233
 20
142.253143
 30
0.0
 10
271.914233
 20
141.890143
 30
0.0
 10
271.304233
 20
141.447243
 30
0.0
 10
270.755234
 20
140.931443
 30
0.0
 10
270.275233
 20
140.350844
 30
0.0
 10
269.871232
 20
139.714645
 30
0.0
 10
269.550233
 20
139.032844
 30
0.0
 10
269.318232
 20
138.316245
 30
0.0
 10
269.176235
 20
137.576145
 30
0.0
 10
269.129233
 20
136.824144
 30
0.0
 10
269.176235
 20
136.072143
 30
0.0
 10
269.318232
 20
135.332044
 30
0.0
 10
269.550233
 20
134.615445
 30
0.0
 10
269.871232
 20
133.933644
 30
0.0
 10
270.275233
 20
133.297445
 30
0.0
 10
270.755234
 20
132.716843
 30
0.0
 10
271.304233
 20
132.201045
 30
0.0
 10
271.914233
 20
131.758145
 30
0.0
 10
272.574233
 20
131.395145
 30
0.0
 10
273.275233
 20
131.117845
 30
0.0
 10
274.005235
 20
130.930444
 30
0.0
 10
274.752235
 20
130.835945
 30
0.0
 10
275.506234
 20
130.835945
 30
0.0
 10
276.253234
 20
130.930444
 30
0.0
  0
LWPOLYLINE
  5
10f
100
AcDbEntity
  8
0
 62
7
100
AcDbPolyline
 90
76
 70
0
 10
228.626732
 20
136.160143
 30
0.0
 10
228.637344
 20
136.441143
 30
0.0
 10
228.669235
 20
136.705145
 30
0.0
 10
228.722434
 20
136.952245
 30
0.0
 10
228.796833
 20
137.182344
 30
0.0
 10
228.892535
 20
137.395545
 30
0.0
 10
229.009533
 20
137.591845
 30
0.0
 10
229.147734
 20
137.771144
 30
0.0
 10
229.303634
 20
137.929843
 30
0.0
 10
229.473633
 20
138.064045
 30
0.0
 10
229.657732
 20
138.173844
 30
0.0
 10
229.855832
 20
138.259343
 30
0.0
 10
230.068033
 20
138.320345
 30
0.0
 10
230.294332
 20
138.356944
 30
0.0
 10
230.534732
 20
138.369136
 30
0.0
 10
230.695034
 20
138.365532
 30
0.0
 10
230.845033
 20
138.354649
 30
0.0
 10
230.984733
 20
138.336638
 30
0.0
 10
231.114134
 20
138.311357
 30
0.0
 10
231.233334
 20
138.278845
 30
0.0
 10
231.342235
 20
138.239043
 30
0.0
 10
231.440733
 20
138.192143
 30
0.0
 10
231.530435
 20
138.137745
 30
0.0
 10
231.612635
 20
138.075043
 30
0.0
 10
231.687235
 20
138.004144
 30
0.0
 10
231.754434
 20
137.925045
 30
0.0
 10
231.814034
 20
137.837644
 30
0.0
 10
231.866132
 20
137.742044
 30
0.0
 10
231.910735
 20
137.638144
 30
0.0
 10
231.948733
 20
137.522345
 30
0.0
 10
231.980833
 20
137.390245
 30
0.0
 10
232.007023
 20
137.241844
 30
0.0
 10
232.027524
 20
137.077343
 30
0.0
 10
232.042039
 20
136.896546
 30
0.0
 10
232.050838
 20
136.699444
 30
0.0
 10
232.053740
 20
136.486144
 30
0.0
 10
232.053734
 20
131.824143
 30
0.0
 10
233.280735
 20
131.824143
 30
0.0
 10
233.280735
 20
136.723145
 30
0.0
 10
233.269135
 20
137.106643
 30
0.0
 10
233.234334
 20
137.457344
 30
0.0
 10
233.176434
 20
137.775143
 30
0.0
 10
233.095233
 20
138.059945
 30
0.0
 10
232.990935
 20
138.311944
 30
0.0
 10
232.863432
 20
138.530945
 30
0.0
 10
232.712734
 20
138.717144
 30
0.0
 10
232.537635
 20
138.874943
 30
0.0
 10
232.336732
 20
139.008544
 30
0.0
 10
232.110133
 20
139.117843
 30
0.0
 10
231.857934
 20
139.202843
 30
0.0
 10
231.579934
 20
139.263543
 30
0.0
 10
231.276133
 20
139.299944
 30
0.0
 10
230.946734
 20
139.312136
 30
0.0
 10
230.709933
 20
139.305230
 30
0.0
 10
230.485134
 20
139.284642
 30
0.0
 10
230.272333
 20
139.250245
 30
0.0
 10
230.071634
 20
139.202044
 30
0.0
 10
229.882934
 20
139.140243
 30
0.0
 10
229.706334
 20
139.064543
 30
0.0
 10
229.541733
 20
138.975143
 30
0.0
 10
229.386734
 20
138.871243
 30
0.0
 10
229.238133
 20
138.751745
 30
0.0
 10
229.096133
 20
138.616645
 30
0.0
 10
228.960533
 20
138.465743
 30
0.0
 10
228.831434
 20
138.299244
 30
0.0
 10
228.708833
 20
138.117044
 30
0.0
 10
228.592733
 20
137.919144
 30
0.0
 10
228.571735
 20
137.919144
 30
0.0
 10
228.602735
 20
138.424144
 30
0.0
 10
228.618934
 20
138.794645
 30
0.0
 10
228.626244
 20
139.155145
 30
0.0
 10
228.626797
 20
141.872143
 30
0.0
 10
227.405734
 20
141.872143
 30
0.0
 10
227.405734
 20
131.824143
 30
0.0
 10
228.626732
 20
131.824143
 30
0.0
 10
228.626732
 20
136.160143
 30
0.0
  0
LWPOLYLINE
  5
110
100
AcDbEntity
  8
0
 62
7
100
AcDbPolyline
 90
12
 70
0
 10
222.184234
 20
132.862145
 30
0.0
 10
219.858234
 20
132.862145
 30
0.0
 10
219.858234
 20
141.360144
 30
0.0
 10
218.732233
 20
141.360144
 30
0.0
 10
216.474235
 20
139.825143
 30
0.0
 10
216.474235
 20
138.672144
 30
0.0
 10
218.630235
 20
140.193144
 30
0.0
 10
218.630235
 20
132.862145
 30
0.0
 10
216.196235
 20
132.862145
 30
0.0
 10
216.196235
 20
131.824143
 30
0.0
 10
222.184234
 20
131.824143
 30
0.0
 10
222.184234
 20
132.862145
 30
0.0
  0
LWPOLYLINE
  5
111
100
AcDbEntity
  8
0
 62
7
100
AcDbPolyline
 90
50
 70
0
 10
238.271335
 20
131.715445
 30
0.0
 10
238.686634
 20
131.773143
 30
0.0
 10
239.070535
 20
131.869344
 30
0.0
 10
239.423135
 20
132.004046
 30
0.0
 10
239.744335
 20
132.177245
 30
0.0
 10
240.034233
 20
132.388943
 30
0.0
 10
240.292735
 20
132.639144
 30
0.0
 10
240.518233
 20
132.928944
 30
0.0
 10
240.709032
 20
133.258944
 30
0.0
 10
240.865135
 20
133.629044
 30
0.0
 10
240.986635
 20
134.039243
 30
0.0
 10
241.073333
 20
134.489743
 30
0.0
 10
241.125333
 20
134.980344
 30
0.0
 10
241.142746
 20
135.511145
 30
0.0
 10
241.126422
 20
136.046845
 30
0.0
 10
241.077733
 20
136.540844
 30
0.0
 10
240.996532
 20
136.993145
 30
0.0
 10
240.882833
 20
137.403744
 30
0.0
 10
240.736634
 20
137.772544
 30
0.0
 10
240.557933
 20
138.099744
 30
0.0
 10
240.346732
 20
138.385144
 30
0.0
 10
240.101433
 20
138.631044
 30
0.0
 10
239.819733
 20
138.839143
 30
0.0
 10
239.501635
 20
139.009445
 30
0.0
 10
239.147234
 20
139.141843
 30
0.0
 10
238.756433
 20
139.236444
 30
0.0
 10
238.329233
 20
139.293244
 30
0.0
 10
237.865734
 20
139.312153
 30
0.0
 10
236.991034
 20
139.234545
 30
0.0
 10
236.250833
 20
139.001844
 30
0.0
 10
235.645333
 20
138.614043
 30
0.0
 10
235.174333
 20
138.071044
 30
0.0
 10
234.837834
 20
137.372844
 30
0.0
 10
234.636033
 20
136.519545
 30
0.0
 10
234.568735
 20
135.511145
 30
0.0
 10
234.585527
 20
134.999544
 30
0.0
 10
234.635833
 20
134.523443
 30
0.0
 10
234.719732
 20
134.083044
 30
0.0
 10
234.837134
 20
133.678143
 30
0.0
 10
234.988134
 20
133.308844
 30
0.0
 10
235.172634
 20
132.975243
 30
0.0
 10
235.390732
 20
132.677146
 30
0.0
 10
235.641933
 20
132.416844
 30
0.0
 10
235.925335
 20
132.196645
 30
0.0
 10
236.240834
 20
132.016444
 30
0.0
 10
236.588633
 20
131.876343
 30
0.0
 10
236.968434
 20
131.776244
 30
0.0
 10
237.380534
 20
131.716145
 30
0.0
 10
237.824732
 20
131.696135
 30
0.0
 10
238.271335
 20
131.715448
 30
0.0
  0
LWPOLYLINE
  5
112
100
AcDbEntity
  8
0
 62
7
100
AcDbPolyline
 90
57
 70
0
 10
237.532734
 20
132.613044
 30
0.0
 10
237.275934
 20
132.657743
 30
0.0
 10
237.041233
 20
132.732244
 30
0.0
 10
236.828734
 20
132.836545
 30
0.0
 10
236.638234
 20
132.970544
 30
0.0
 10
236.469933
 20
133.134444
 30
0.0
 10
236.323734
 20
133.328145
 30
0.0
 10
236.198232
 20
133.551445
 30
0.0
 10
236.092035
 20
133.804245
 30
0.0
 10
236.005133
 20
134.086645
 30
0.0
 10
235.937634
 20
134.398543
 30
0.0
 10
235.889334
 20
134.739843
 30
0.0
 10
235.860333
 20
135.110745
 30
0.0
 10
235.850738
 20
135.511145
 30
0.0
 10
235.860528
 20
135.921843
 30
0.0
 10
235.889933
 20
136.300244
 30
0.0
 10
235.938833
 20
136.646243
 30
0.0
 10
236.007433
 20
136.959944
 30
0.0
 10
236.095633
 20
137.241345
 30
0.0
 10
236.203335
 20
137.490443
 30
0.0
 10
236.330733
 20
137.707144
 30
0.0
 10
236.480034
 20
137.893645
 30
0.0
 10
236.653634
 20
138.051444
 30
0.0
 10
236.851633
 20
138.180544
 30
0.0
 10
237.073934
 20
138.281043
 30
0.0
 10
237.320534
 20
138.352744
 30
0.0
 10
237.591433
 20
138.395744
 30
0.0
 10
237.886734
 20
138.410137
 30
0.0
 10
238.179534
 20
138.396032
 30
0.0
 10
238.447233
 20
138.353944
 30
0.0
 10
238.689634
 20
138.283544
 30
0.0
 10
238.906933
 20
138.185144
 30
0.0
 10
239.099034
 20
138.058644
 30
0.0
 10
239.265934
 20
137.903943
 30
0.0
 10
239.407734
 20
137.721145
 30
0.0
 10
239.527932
 20
137.507345
 30
0.0
 10
239.629634
 20
137.259545
 30
0.0
 10
239.712833
 20
136.977744
 30
0.0
 10
239.777532
 20
136.662044
 30
0.0
 10
239.823735
 20
136.312346
 30
0.0
 10
239.851421
 20
135.928743
 30
0.0
 10
239.860746
 20
135.511145
 30
0.0
 10
239.851026
 20
135.098544
 30
0.0
 10
239.822135
 20
134.718343
 30
0.0
 10
239.773833
 20
134.370544
 30
0.0
 10
239.706235
 20
134.055344
 30
0.0
 10
239.619434
 20
133.772444
 30
0.0
 10
239.513234
 20
133.522045
 30
0.0
 10
239.387733
 20
133.304145
 30
0.0
 10
239.239733
 20
133.116845
 30
0.0
 10
239.066033
 20
132.958343
 30
0.0
 10
238.866533
 20
132.828645
 30
0.0
 10
238.641433
 20
132.727844
 30
0.0
 10
238.390534
 20
132.655745
 30
0.0
 10
238.114033
 20
132.612545
 30
0.0
 10
237.811733
 20
132.598152
 30
0.0
 10
237.532734
 20
132.613044
 30
0.0
  0
LWPOLYLINE
  5
113
100
AcDbEntity
  8
0
 62
7
100
AcDbPolyline
 90
55
 70
0
 10
251.249234
 20
135.658143
 30
0.0
 10
251.258237
 20
135.995943
 30
0.0
 10
251.282223
 20
136.310745
 30
0.0
 10
251.323232
 20
136.602244
 30
0.0
 10
251.379234
 20
136.870745
 30
0.0
 10
251.452233
 20
137.116044
 30
0.0
 10
251.542234
 20
137.338144
 30
0.0
 10
251.647235
 20
137.537145
 30
0.0
 10
251.768235
 20
137.711143
 30
0.0
 10
251.904235
 20
137.858444
 30
0.0
 10
252.054233
 20
137.978944
 30
0.0
 10
252.219234
 20
138.072645
 30
0.0
 10
252.398234
 20
138.139545
 30
0.0
 10
252.592233
 20
138.179745
 30
0.0
 10
252.800234
 20
138.193151
 30
0.0
 10
252.913233
 20
138.191734
 30
0.0
 10
253.018234
 20
138.187540
 30
0.0
 10
253.117234
 20
138.180657
 30
0.0
 10
253.210235
 20
138.170937
 30
0.0
 10
253.295235
 20
138.158443
 30
0.0
 10
253.375233
 20
138.143147
 30
0.0
 10
253.447234
 20
138.125138
 30
0.0
 10
253.447234
 20
139.244143
 30
0.0
 10
253.376232
 20
139.262149
 30
0.0
 10
253.305234
 20
139.277440
 30
0.0
 10
253.235234
 20
139.289945
 30
0.0
 10
253.164233
 20
139.299654
 30
0.0
 10
253.094233
 20
139.306560
 30
0.0
 10
253.025233
 20
139.310751
 30
0.0
 10
252.955233
 20
139.312156
 30
0.0
 10
252.765233
 20
139.305033
 30
0.0
 10
252.588234
 20
139.283849
 30
0.0
 10
252.423233
 20
139.248543
 30
0.0
 10
252.270235
 20
139.199143
 30
0.0
 10
252.131235
 20
139.135643
 30
0.0
 10
252.004235
 20
139.057944
 30
0.0
 10
251.889235
 20
138.966143
 30
0.0
 10
251.783235
 20
138.855145
 30
0.0
 10
251.681234
 20
138.719743
 30
0.0
 10
251.582233
 20
138.560045
 30
0.0
 10
251.486233
 20
138.376144
 30
0.0
 10
251.394234
 20
138.167745
 30
0.0
 10
251.306234
 20
137.935143
 30
0.0
 10
251.221234
 20
137.678143
 30
0.0
 10
251.194226
 20
137.678143
 30
0.0
 10
251.190227
 20
137.903943
 30
0.0
 10
251.167231
 20
138.549343
 30
0.0
 10
251.140225
 20
139.184143
 30
0.0
 10
249.987235
 20
139.184143
 30
0.0
 10
250.008232
 20
138.660945
 30
0.0
 10
250.021245
 20
138.164545
 30
0.0
 10
250.028233
 20
137.694944
 30
0.0
 10
250.028233
 20
131.824143
 30
0.0
 10
251.249234
 20
131.824143
 30
0.0
 10
251.249234
 20
135.658143
 30
0.0
  0
LWPOLYLINE
  5
114
100
AcDbEntity
  8
0
 62
7
100
AcDbPolyline
 90
80
 70
0
 10
244.994334
 20
131.702545
 30
0.0
 10
245.213132
 20
131.721849
 30
0.0
 10
245.420933
 20
131.754045
 30
0.0
 10
245.617735
 20
131.799045
 30
0.0
 10
245.803634
 20
131.856844
 30
0.0
 10
245.978632
 20
131.927544
 30
0.0
 10
246.142733
 20
132.011143
 30
0.0
 10
246.298534
 20
132.110443
 30
0.0
 10
246.448933
 20
132.227944
 30
0.0
 10
246.593933
 20
132.363543
 30
0.0
 10
246.733534
 20
132.517244
 30
0.0
 10
246.867632
 20
132.689044
 30
0.0
 10
246.996433
 20
132.879044
 30
0.0
 10
247.119634
 20
133.087144
 30
0.0
 10
247.139728
 20
133.087144
 30
0.0
 10
247.187734
 20
131.874545
 30
0.0
 10
247.193745
 20
131.824143
 30
0.0
 10
248.346733
 20
131.824143
 30
0.0
 10
248.335840
 20
131.926245
 30
0.0
 10
248.326633
 20
132.069143
 30
0.0
 10
248.319042
 20
132.252745
 30
0.0
 10
248.313219
 20
132.477245
 30
0.0
 10
248.309028
 20
132.742443
 30
0.0
 10
248.305732
 20
133.395144
 30
0.0
 10
248.305735
 20
139.184143
 30
0.0
 10
247.084734
 20
139.184143
 30
0.0
 10
247.084734
 20
134.923143
 30
0.0
 10
247.074236
 20
134.625845
 30
0.0
 10
247.042934
 20
134.347743
 30
0.0
 10
246.990833
 20
134.088745
 30
0.0
 10
246.917834
 20
133.848845
 30
0.0
 10
246.823933
 20
133.628144
 30
0.0
 10
246.709235
 20
133.426544
 30
0.0
 10
246.573734
 20
133.244144
 30
0.0
 10
246.420033
 20
133.083644
 30
0.0
 10
246.251033
 20
132.947845
 30
0.0
 10
246.066835
 20
132.836643
 30
0.0
 10
245.867233
 20
132.750244
 30
0.0
 10
245.652332
 20
132.688544
 30
0.0
 10
245.422132
 20
132.651444
 30
0.0
 10
245.176734
 20
132.639139
 30
0.0
 10
245.009535
 20
132.642757
 30
0.0
 10
244.854233
 20
132.653555
 30
0.0
 10
244.710833
 20
132.671436
 30
0.0
 10
244.579434
 20
132.696647
 30
0.0
 10
244.459935
 20
132.728945
 30
0.0
 10
244.352332
 20
132.768444
 30
0.0
 10
244.256732
 20
132.815144
 30
0.0
 10
244.170733
 20
132.870245
 30
0.0
 10
244.091734
 20
132.934543
 30
0.0
 10
244.019634
 20
133.008043
 30
0.0
 10
243.954534
 20
133.090545
 30
0.0
 10
243.896233
 20
133.182244
 30
0.0
 10
243.845032
 20
133.283144
 30
0.0
 10
243.800633
 20
133.393143
 30
0.0
 10
243.762733
 20
133.514344
 30
0.0
 10
243.730633
 20
133.648944
 30
0.0
 10
243.704330
 20
133.796944
 30
0.0
 10
243.683928
 20
133.958144
 30
0.0
 10
243.669343
 20
134.132845
 30
0.0
 10
243.660642
 20
134.320844
 30
0.0
 10
243.657727
 20
134.522145
 30
0.0
 10
243.657732
 20
139.184143
 30
0.0
 10
242.430735
 20
139.184143
 30
0.0
 10
242.430735
 20
134.285143
 30
0.0
 10
242.442136
 20
133.905145
 30
0.0
 10
242.476432
 20
133.557145
 30
0.0
 10
242.533734
 20
133.241144
 30
0.0
 10
242.613835
 20
132.957144
 30
0.0
 10
242.716933
 20
132.705145
 30
0.0
 10
242.842833
 20
132.485144
 30
0.0
 10
242.991733
 20
132.297145
 30
0.0
 10
243.165534
 20
132.137644
 30
0.0
 10
243.365833
 20
132.002744
 30
0.0
 10
243.592632
 20
131.892345
 30
0.0
 10
243.845932
 20
131.806544
 30
0.0
 10
244.125634
 20
131.745245
 30
0.0
 10
244.431933
 20
131.708443
 30
0.0
 10
244.764732
 20
131.696138
 30
0.0
 10
244.994334
 20
131.702550
 30
0.0
  0
LWPOLYLINE
  5
115
100
AcDbEntity
  8
0
 62
7
100
AcDbPolyline
 90
51
 70
0
 10
276.253234
 20
115.930434
 30
0.0
 10
276.983232
 20
116.117858
 30
0.0
 10
277.684233
 20
116.395142
 30
0.0
 10
278.344235
 20
116.758136
 30
0.0
 10
278.954233
 20
117.201055
 30
0.0
 10
279.503234
 20
117.716845
 30
0.0
 10
279.983235
 20
118.297432
 30
0.0
 10
280.387233
 20
118.933643
 30
0.0
 10
280.708233
 20
119.615444
 30
0.0
 10
280.940233
 20
120.332043
 30
0.0
 10
281.082234
 20
121.072145
 30
0.0
 10
281.129235
 20
121.824143
 30
0.0
 10
281.082234
 20
122.576144
 30
0.0
 10
280.940233
 20
123.316244
 30
0.0
 10
280.708233
 20
124.032944
 30
0.0
 10
280.387233
 20
124.714643
 30
0.0
 10
279.983235
 20
125.350843
 30
0.0
 10
279.503234
 20
125.931445
 30
0.0
 10
278.954233
 20
126.447245
 30
0.0
 10
278.344235
 20
126.890145
 30
0.0
 10
277.684233
 20
127.253145
 30
0.0
 10
276.983232
 20
127.530445
 30
0.0
 10
276.253234
 20
127.717844
 30
0.0
 10
275.506234
 20
127.812343
 30
0.0
 10
274.752235
 20
127.812343
 30
0.0
 10
274.005235
 20
127.717844
 30
0.0
 10
273.275233
 20
127.530445
 30
0.0
 10
272.574233
 20
127.253145
 30
0.0
 10
271.914233
 20
126.890145
 30
0.0
 10
271.304233
 20
126.447245
 30
0.0
 10
270.755234
 20
125.931445
 30
0.0
 10
270.275233
 20
125.350843
 30
0.0
 10
269.871232
 20
124.714643
 30
0.0
 10
269.550233
 20
124.032944
 30
0.0
 10
269.318232
 20
123.316244
 30
0.0
 10
269.176235
 20
122.576144
 30
0.0
 10
269.129233
 20
121.824143
 30
0.0
 10
269.176235
 20
121.072145
 30
0.0
 10
269.318232
 20
120.332043
 30
0.0
 10
269.550233
 20
119.615444
 30
0.0
 10
269.871232
 20
118.933643
 30
0.0
 10
270.275233
 20
118.297432
 30
0.0
 10
270.755234
 20
117.716845
 30
0.0
 10
271.304233
 20
117.201055
 30
0.0
 10
271.914233
 20
116.758136
 30
0.0
 10
272.574233
 20
116.395142
 30
0.0
 10
273.275233
 20
116.117858
 30
0.0
 10
274.005235
 20
115.930434
 30
0.0
 10
274.752235
 20
115.835946
 30
0.0
 10
275.506234
 20
115.835946
 30
0.0
 10
276.253234
 20
115.930434
 30
0.0
  0
LWPOLYLINE
  5
116
100
AcDbEntity
  8
0
 62
7
100
AcDbPolyline
 90
76
 70
0
 10
228.626732
 20
121.160145
 30
0.0
 10
228.637344
 20
121.441145
 30
0.0
 10
228.669235
 20
121.705144
 30
0.0
 10
228.722434
 20
121.952244
 30
0.0
 10
228.796833
 20
122.182345
 30
0.0
 10
228.892535
 20
122.395544
 30
0.0
 10
229.009533
 20
122.591844
 30
0.0
 10
229.147734
 20
122.771143
 30
0.0
 10
229.303634
 20
122.929845
 30
0.0
 10
229.473633
 20
123.064044
 30
0.0
 10
229.657732
 20
123.173843
 30
0.0
 10
229.855832
 20
123.259345
 30
0.0
 10
230.068033
 20
123.320344
 30
0.0
 10
230.294332
 20
123.356943
 30
0.0
 10
230.534732
 20
123.369135
 30
0.0
 10
230.695034
 20
123.365531
 30
0.0
 10
230.845033
 20
123.354651
 30
0.0
 10
230.984733
 20
123.336637
 30
0.0
 10
231.114134
 20
123.311356
 30
0.0
 10
231.233334
 20
123.278844
 30
0.0
 10
231.342235
 20
123.239045
 30
0.0
 10
231.440733
 20
123.192145
 30
0.0
 10
231.530435
 20
123.137744
 30
0.0
 10
231.612635
 20
123.075045
 30
0.0
 10
231.687235
 20
123.004145
 30
0.0
 10
231.754434
 20
122.925044
 30
0.0
 10
231.814034
 20
122.837646
 30
0.0
 10
231.866132
 20
122.742043
 30
0.0
 10
231.910735
 20
122.638143
 30
0.0
 10
231.948733
 20
122.522344
 30
0.0
 10
231.980833
 20
122.390244
 30
0.0
 10
232.007023
 20
122.241843
 30
0.0
 10
232.027524
 20
122.077345
 30
0.0
 10
232.042039
 20
121.896545
 30
0.0
 10
232.050838
 20
121.699443
 30
0.0
 10
232.053740
 20
121.486145
 30
0.0
 10
232.053734
 20
116.824148
 30
0.0
 10
233.280735
 20
116.824148
 30
0.0
 10
233.280735
 20
121.723144
 30
0.0
 10
233.269135
 20
122.106645
 30
0.0
 10
233.234334
 20
122.457343
 30
0.0
 10
233.176434
 20
122.775145
 30
0.0
 10
233.095233
 20
123.059944
 30
0.0
 10
232.990935
 20
123.311945
 30
0.0
 10
232.863432
 20
123.530944
 30
0.0
 10
232.712734
 20
123.717143
 30
0.0
 10
232.537635
 20
123.874945
 30
0.0
 10
232.336732
 20
124.008543
 30
0.0
 10
232.110133
 20
124.117845
 30
0.0
 10
231.857934
 20
124.202845
 30
0.0
 10
231.579934
 20
124.263545
 30
0.0
 10
231.276133
 20
124.299943
 30
0.0
 10
230.946734
 20
124.312135
 30
0.0
 10
230.709933
 20
124.305229
 30
0.0
 10
230.485134
 20
124.284641
 30
0.0
 10
230.272333
 20
124.250244
 30
0.0
 10
230.071634
 20
124.202043
 30
0.0
 10
229.882934
 20
124.140245
 30
0.0
 10
229.706334
 20
124.064545
 30
0.0
 10
229.541733
 20
123.975145
 30
0.0
 10
229.386734
 20
123.871245
 30
0.0
 10
229.238133
 20
123.751744
 30
0.0
 10
229.096133
 20
123.616644
 30
0.0
 10
228.960533
 20
123.465745
 30
0.0
 10
228.831434
 20
123.299243
 30
0.0
 10
228.708833
 20
123.117046
 30
0.0
 10
228.592733
 20
122.919143
 30
0.0
 10
228.571735
 20
122.919143
 30
0.0
 10
228.602735
 20
123.424143
 30
0.0
 10
228.618934
 20
123.794644
 30
0.0
 10
228.626244
 20
124.155144
 30
0.0
 10
228.626797
 20
126.872145
 30
0.0
 10
227.405734
 20
126.872145
 30
0.0
 10
227.405734
 20
116.824148
 30
0.0
 10
228.626732
 20
116.824148
 30
0.0
 10
228.626732
 20
121.160145
 30
0.0
  0
LWPOLYLINE
  5
117
100
AcDbEntity
  8
0
 62
7
100
AcDbPolyline
 90
135
 70
0
 10
222.173233
 20
117.862133
 30
0.0
 10
217.172232
 20
117.862133
 30
0.0
 10
217.235732
 20
117.998954
 30
0.0
 10
217.309833
 20
118.137243
 30
0.0
 10
217.394434
 20
118.277140
 30
0.0
 10
217.489634
 20
118.418534
 30
0.0
 10
217.595233
 20
118.561536
 30
0.0
 10
217.711534
 20
118.706045
 30
0.0
 10
217.838234
 20
118.852143
 30
0.0
 10
217.977034
 20
119.001543
 30
0.0
 10
218.128935
 20
119.156144
 30
0.0
 10
218.293834
 20
119.315845
 30
0.0
 10
218.471835
 20
119.480745
 30
0.0
 10
218.662933
 20
119.650744
 30
0.0
 10
218.867033
 20
119.825843
 30
0.0
 10
219.084234
 20
120.006144
 30
0.0
 10
219.471734
 20
120.324045
 30
0.0
 10
219.821833
 20
120.617344
 30
0.0
 10
220.134332
 20
120.885845
 30
0.0
 10
220.409333
 20
121.129744
 30
0.0
 10
220.646732
 20
121.348844
 30
0.0
 10
220.846735
 20
121.543343
 30
0.0
 10
221.009233
 20
121.713145
 30
0.0
 10
221.148134
 20
121.870845
 30
0.0
 10
221.276934
 20
122.028444
 30
0.0
 10
221.395533
 20
122.186144
 30
0.0
 10
221.503934
 20
122.343644
 30
0.0
 10
221.602133
 20
122.501144
 30
0.0
 10
221.690334
 20
122.658643
 30
0.0
 10
221.768233
 20
122.816143
 30
0.0
 10
221.835833
 20
122.973744
 30
0.0
 10
221.893133
 20
123.131543
 30
0.0
 10
221.939934
 20
123.289743
 30
0.0
 10
221.976434
 20
123.448143
 30
0.0
 10
222.002426
 20
123.606845
 30
0.0
 10
222.018042
 20
123.765843
 30
0.0
 10
222.023226
 20
123.925144
 30
0.0
 10
222.007345
 20
124.273143
 30
0.0
 10
221.959633
 20
124.597645
 30
0.0
 10
221.880134
 20
124.898644
 30
0.0
 10
221.768834
 20
125.176243
 30
0.0
 10
221.625733
 20
125.430345
 30
0.0
 10
221.450933
 20
125.660943
 30
0.0
 10
221.244233
 20
125.868145
 30
0.0
 10
221.008234
 20
126.049645
 30
0.0
 10
220.744934
 20
126.203143
 30
0.0
 10
220.454333
 20
126.328743
 30
0.0
 10
220.136333
 20
126.426544
 30
0.0
 10
219.790933
 20
126.496245
 30
0.0
 10
219.418233
 20
126.538143
 30
0.0
 10
219.018234
 20
126.552142
 30
0.0
 10
218.651133
 20
126.538344
 30
0.0
 10
218.303633
 20
126.496744
 30
0.0
 10
217.975634
 20
126.427645
 30
0.0
 10
217.667233
 20
126.330744
 30
0.0
 10
217.378334
 20
126.206244
 30
0.0
 10
217.109034
 20
126.054045
 30
0.0
 10
216.859234
 20
125.874145
 30
0.0
 10
216.633834
 20
125.670843
 30
0.0
 10
216.437233
 20
125.448545
 30
0.0
 10
216.269234
 20
125.207045
 30
0.0
 10
216.129932
 20
124.946444
 30
0.0
 10
216.019332
 20
124.666843
 30
0.0
 10
215.937434
 20
124.368044
 30
0.0
 10
215.884232
 20
124.050143
 30
0.0
 10
217.131234
 20
123.935143
 30
0.0
 10
217.165134
 20
124.146945
 30
0.0
 10
217.216234
 20
124.344845
 30
0.0
 10
217.284334
 20
124.528744
 30
0.0
 10
217.369432
 20
124.698546
 30
0.0
 10
217.471633
 20
124.854445
 30
0.0
 10
217.590934
 20
124.996245
 30
0.0
 10
217.727234
 20
125.124145
 30
0.0
 10
217.877935
 20
125.236645
 30
0.0
 10
218.039933
 20
125.331844
 30
0.0
 10
218.213133
 20
125.409644
 30
0.0
 10
218.397633
 20
125.470245
 30
0.0
 10
218.593233
 20
125.513544
 30
0.0
 10
218.800132
 20
125.539452
 30
0.0
 10
219.018234
 20
125.548136
 30
0.0
 10
219.246334
 20
125.539254
 30
0.0
 10
219.459632
 20
125.512432
 30
0.0
 10
219.658235
 20
125.467844
 30
0.0
 10
219.842032
 20
125.405444
 30
0.0
 10
220.011233
 20
125.325144
 30
0.0
 10
220.165532
 20
125.227043
 30
0.0
 10
220.305232
 20
125.111143
 30
0.0
 10
220.428335
 20
124.979345
 30
0.0
 10
220.532534
 20
124.833044
 30
0.0
 10
220.617734
 20
124.672245
 30
0.0
 10
220.684034
 20
124.496943
 30
0.0
 10
220.731334
 20
124.307143
 30
0.0
 10
220.759734
 20
124.102845
 30
0.0
 10
220.769245
 20
123.884145
 30
0.0
 10
220.763730
 20
123.719443
 30
0.0
 10
220.747223
 20
123.559844
 30
0.0
 10
220.719831
 20
123.405144
 30
0.0
 10
220.681434
 20
123.255445
 30
0.0
 10
220.631933
 20
123.110645
 30
0.0
 10
220.571633
 20
122.970945
 30
0.0
 10
220.500234
 20
122.836144
 30
0.0
 10
220.419933
 20
122.704945
 30
0.0
 10
220.332833
 20
122.575444
 30
0.0
 10
220.238932
 20
122.447445
 30
0.0
 10
220.138233
 20
122.321244
 30
0.0
 10
220.030734
 20
122.196544
 30
0.0
 10
219.916434
 20
122.073543
 30
0.0
 10
219.795234
 20
121.952145
 30
0.0
 10
219.668832
 20
121.831543
 30
0.0
 10
219.538034
 20
121.711045
 30
0.0
 10
219.402934
 20
121.590443
 30
0.0
 10
219.263434
 20
121.469844
 30
0.0
 10
219.119732
 20
121.349245
 30
0.0
 10
218.971633
 20
121.228745
 30
0.0
 10
218.664734
 20
120.986144
 30
0.0
 10
218.354134
 20
120.733343
 30
0.0
 10
218.041632
 20
120.469045
 30
0.0
 10
217.727234
 20
120.193144
 30
0.0
 10
217.570835
 20
120.049945
 30
0.0
 10
217.416532
 20
119.901945
 30
0.0
 10
217.264333
 20
119.749245
 30
0.0
 10
217.114134
 20
119.591844
 30
0.0
 10
216.966134
 20
119.429643
 30
0.0
 10
216.820135
 20
119.262745
 30
0.0
 10
216.676232
 20
119.091146
 30
0.0
 10
216.536532
 20
118.913346
 30
0.0
 10
216.403033
 20
118.727844
 30
0.0
 10
216.275734
 20
118.534753
 30
0.0
 10
216.154734
 20
118.334036
 30
0.0
 10
216.040033
 20
118.125756
 30
0.0
 10
215.931533
 20
117.909744
 30
0.0
 10
215.829233
 20
117.686139
 30
0.0
 10
215.829233
 20
116.824148
 30
0.0
 10
222.173233
 20
116.824148
 30
0.0
 10
222.173233
 20
117.862133
 30
0.0
  0
LWPOLYLINE
  5
118
100
AcDbEntity
  8
0
 62
7
100
AcDbPolyline
 90
50
 70
0
 10
238.271335
 20
116.715436
 30
0.0
 10
238.686634
 20
116.773150
 30
0.0
 10
239.070535
 20
116.869331
 30
0.0
 10
239.423135
 20
117.004036
 30
0.0
 10
239.744335
 20
117.177236
 30
0.0
 10
240.034233
 20
117.388931
 30
0.0
 10
240.292735
 20
117.639149
 30
0.0
 10
240.518233
 20
117.928935
 30
0.0
 10
240.709032
 20
118.258937
 30
0.0
 10
240.865135
 20
118.629043
 30
0.0
 10
240.986635
 20
119.039245
 30
0.0
 10
241.073333
 20
119.489745
 30
0.0
 10
241.125333
 20
119.980343
 30
0.0
 10
241.142746
 20
120.511144
 30
0.0
 10
241.126422
 20
121.046844
 30
0.0
 10
241.077733
 20
121.540843
 30
0.0
 10
240.996532
 20
121.993144
 30
0.0
 10
240.882833
 20
122.403743
 30
0.0
 10
240.736634
 20
122.772543
 30
0.0
 10
240.557933
 20
123.099745
 30
0.0
 10
240.346732
 20
123.385145
 30
0.0
 10
240.101433
 20
123.631043
 30
0.0
 10
239.819733
 20
123.839145
 30
0.0
 10
239.501635
 20
124.009444
 30
0.0
 10
239.147234
 20
124.141845
 30
0.0
 10
238.756433
 20
124.236443
 30
0.0
 10
238.329233
 20
124.293243
 30
0.0
 10
237.865734
 20
124.312152
 30
0.0
 10
236.991034
 20
124.234544
 30
0.0
 10
236.250833
 20
124.001843
 30
0.0
 10
235.645333
 20
123.614045
 30
0.0
 10
235.174333
 20
123.071043
 30
0.0
 10
234.837834
 20
122.372845
 30
0.0
 10
234.636033
 20
121.519544
 30
0.0
 10
234.568735
 20
120.511144
 30
0.0
 10
234.585527
 20
119.999546
 30
0.0
 10
234.635833
 20
119.523445
 30
0.0
 10
234.719732
 20
119.083043
 30
0.0
 10
234.837134
 20
118.678144
 30
0.0
 10
234.988134
 20
118.308834
 30
0.0
 10
235.172634
 20
117.975247
 30
0.0
 10
235.390732
 20
117.677136
 30
0.0
 10
235.641933
 20
117.416842
 30
0.0
 10
235.925335
 20
117.196653
 30
0.0
 10
236.240834
 20
117.016454
 30
0.0
 10
236.588633
 20
116.876330
 30
0.0
 10
236.968434
 20
116.776254
 30
0.0
 10
237.380534
 20
116.716141
 30
0.0
 10
237.824732
 20
116.696103
 30
0.0
 10
238.271335
 20
116.715323
 30
0.0
  0
LWPOLYLINE
  5
119
100
AcDbEntity
  8
0
 62
7
100
AcDbPolyline
 90
57
 70
0
 10
237.532734
 20
117.613043
 30
0.0
 10
237.275934
 20
117.657747
 30
0.0
 10
237.041233
 20
117.732254
 30
0.0
 10
236.828734
 20
117.836535
 30
0.0
 10
236.638234
 20
117.970534
 30
0.0
 10
236.469933
 20
118.134449
 30
0.0
 10
236.323734
 20
118.328138
 30
0.0
 10
236.198232
 20
118.551432
 30
0.0
 10
236.092035
 20
118.804244
 30
0.0
 10
236.005133
 20
119.086644
 30
0.0
 10
235.937634
 20
119.398545
 30
0.0
 10
235.889334
 20
119.739845
 30
0.0
 10
235.860333
 20
120.110744
 30
0.0
 10
235.850738
 20
120.511144
 30
0.0
 10
235.860528
 20
120.921845
 30
0.0
 10
235.889933
 20
121.300243
 30
0.0
 10
235.938833
 20
121.646244
 30
0.0
 10
236.007433
 20
121.959943
 30
0.0
 10
236.095633
 20
122.241344
 30
0.0
 10
236.203335
 20
122.490444
 30
0.0
 10
236.330733
 20
122.707143
 30
0.0
 10
236.480034
 20
122.893644
 30
0.0
 10
236.653634
 20
123.051443
 30
0.0
 10
236.851633
 20
123.180546
 30
0.0
 10
237.073934
 20
123.281045
 30
0.0
 10
237.320534
 20
123.352743
 30
0.0
 10
237.591433
 20
123.395743
 30
0.0
 10
237.886734
 20
123.410136
 30
0.0
 10
238.179534
 20
123.396034
 30
0.0
 10
238.447233
 20
123.353943
 30
0.0
 10
238.689634
 20
123.283545
 30
0.0
 10
238.906933
 20
123.185143
 30
0.0
 10
239.099034
 20
123.058642
 30
0.0
 10
239.265934
 20
122.903945
 30
0.0
 10
239.407734
 20
122.721144
 30
0.0
 10
239.527932
 20
122.507344
 30
0.0
 10
239.629634
 20
122.259544
 30
0.0
 10
239.712833
 20
121.977745
 30
0.0
 10
239.777532
 20
121.662043
 30
0.0
 10
239.823735
 20
121.312345
 30
0.0
 10
239.851421
 20
120.928745
 30
0.0
 10
239.860746
 20
120.511144
 30
0.0
 10
239.851026
 20
120.098543
 30
0.0
 10
239.822135
 20
119.718345
 30
0.0
 10
239.773833
 20
119.370546
 30
0.0
 10
239.706235
 20
119.055343
 30
0.0
 10
239.619434
 20
118.772443
 30
0.0
 10
239.513234
 20
118.522053
 30
0.0
 10
239.387733
 20
118.304149
 30
0.0
 10
239.239733
 20
118.116838
 30
0.0
 10
239.066033
 20
117.958342
 30
0.0
 10
238.866533
 20
117.828633
 30
0.0
 10
238.641433
 20
117.727851
 30
0.0
 10
238.390534
 20
117.655744
 30
0.0
 10
238.114033
 20
117.612535
 30
0.0
 10
237.811733
 20
117.598142
 30
0.0
 10
237.532734
 20
117.613100
 30
0.0
  0
LWPOLYLINE
  5
11a
100
AcDbEntity
  8
0
 62
7
100
AcDbPolyline
 90
55
 70
0
 10
251.249234
 20
120.658145
 30
0.0
 10
251.258237
 20
120.995945
 30
0.0
 10
251.282223
 20
121.310744
 30
0.0
 10
251.323232
 20
121.602243
 30
0.0
 10
251.379234
 20
121.870744
 30
0.0
 10
251.452233
 20
122.116043
 30
0.0
 10
251.542234
 20
122.338143
 30
0.0
 10
251.647235
 20
122.537144
 30
0.0
 10
251.768235
 20
122.711145
 30
0.0
 10
251.904235
 20
122.858445
 30
0.0
 10
252.054233
 20
122.978943
 30
0.0
 10
252.219234
 20
123.072644
 30
0.0
 10
252.398234
 20
123.139544
 30
0.0
 10
252.592233
 20
123.179744
 30
0.0
 10
252.800234
 20
123.193150
 30
0.0
 10
252.913233
 20
123.191733
 30
0.0
 10
253.018234
 20
123.187539
 30
0.0
 10
253.117234
 20
123.180630
 30
0.0
 10
253.210235
 20
123.170936
 30
0.0
 10
253.295235
 20
123.158442
 30
0.0
 10
253.375233
 20
123.143148
 30
0.0
 10
253.447234
 20
123.125140
 30
0.0
 10
253.447234
 20
124.244145
 30
0.0
 10
253.376232
 20
124.262151
 30
0.0
 10
253.305234
 20
124.277442
 30
0.0
 10
253.235234
 20
124.289947
 30
0.0
 10
253.164233
 20
124.299653
 30
0.0
 10
253.094233
 20
124.306559
 30
0.0
 10
253.025233
 20
124.310750
 30
0.0
 10
252.955233
 20
124.312155
 30
0.0
 10
252.765233
 20
124.305032
 30
0.0
 10
252.588234
 20
124.283848
 30
0.0
 10
252.423233
 20
124.248545
 30
0.0
 10
252.270235
 20
124.199145
 30
0.0
 10
252.131235
 20
124.135645
 30
0.0
 10
252.004235
 20
124.057943
 30
0.0
 10
251.889235
 20
123.966145
 30
0.0
 10
251.783235
 20
123.855144
 30
0.0
 10
251.681234
 20
123.719745
 30
0.0
 10
251.582233
 20
123.560044
 30
0.0
 10
251.486233
 20
123.376142
 30
0.0
 10
251.394234
 20
123.167744
 30
0.0
 10
251.306234
 20
122.935145
 30
0.0
 10
251.221234
 20
122.678145
 30
0.0
 10
251.194226
 20
122.678145
 30
0.0
 10
251.190227
 20
122.903945
 30
0.0
 10
251.167231
 20
123.549345
 30
0.0
 10
251.140225
 20
124.184145
 30
0.0
 10
249.987235
 20
124.184145
 30
0.0
 10
250.008232
 20
123.660944
 30
0.0
 10
250.021245
 20
123.164544
 30
0.0
 10
250.028233
 20
122.694946
 30
0.0
 10
250.028233
 20
116.824148
 30
0.0
 10
251.249234
 20
116.824148
 30
0.0
 10
251.249234
 20
120.658145
 30
0.0
  0
LWPOLYLINE
  5
11b
100
AcDbEntity
  8
0
 62
7
100
AcDbPolyline
 90
171
 70
0
 10
257.459234
 20
116.707533
 30
0.0
 10
257.825234
 20
116.741852
 30
0.0
 10
258.166235
 20
116.799058
 30
0.0
 10
258.481235
 20
116.879040
 30
0.0
 10
258.770233
 20
116.981853
 30
0.0
 10
259.033233
 20
117.107555
 30
0.0
 10
259.271234
 20
117.256145
 30
0.0
 10
259.480233
 20
117.425732
 30
0.0
 10
259.656233
 20
117.614737
 30
0.0
 10
259.801233
 20
117.823045
 30
0.0
 10
259.913233
 20
118.050544
 30
0.0
 10
259.994233
 20
118.297432
 30
0.0
 10
260.042234
 20
118.563652
 30
0.0
 10
260.058236
 20
118.849143
 30
0.0
 10
260.055241
 20
118.966945
 30
0.0
 10
260.047246
 20
119.081045
 30
0.0
 10
260.033234
 20
119.191343
 30
0.0
 10
260.013224
 20
119.297944
 30
0.0
 10
259.988228
 20
119.400743
 30
0.0
 10
259.957234
 20
119.499843
 30
0.0
 10
259.921234
 20
119.595144
 30
0.0
 10
259.880233
 20
119.687044
 30
0.0
 10
259.834233
 20
119.775743
 30
0.0
 10
259.784235
 20
119.861245
 30
0.0
 10
259.729232
 20
119.943745
 30
0.0
 10
259.669232
 20
120.023043
 30
0.0
 10
259.605232
 20
120.099145
 30
0.0
 10
259.536235
 20
120.172144
 30
0.0
 10
259.461234
 20
120.242643
 30
0.0
 10
259.379235
 20
120.311345
 30
0.0
 10
259.289234
 20
120.378144
 30
0.0
 10
259.192234
 20
120.443145
 30
0.0
 10
259.088232
 20
120.506343
 30
0.0
 10
258.976233
 20
120.567645
 30
0.0
 10
258.857234
 20
120.627143
 30
0.0
 10
258.723234
 20
120.686743
 30
0.0
 10
258.567233
 20
120.747844
 30
0.0
 10
258.389233
 20
120.810545
 30
0.0
 10
258.188234
 20
120.874643
 30
0.0
 10
257.965234
 20
120.940243
 30
0.0
 10
257.720234
 20
121.007443
 30
0.0
 10
257.452233
 20
121.076144
 30
0.0
 10
257.172234
 20
121.145345
 30
0.0
 10
256.922233
 20
121.210143
 30
0.0
 10
256.700234
 20
121.270545
 30
0.0
 10
256.507234
 20
121.326543
 30
0.0
 10
256.343235
 20
121.378145
 30
0.0
 10
256.208234
 20
121.425343
 30
0.0
 10
256.102234
 20
121.468145
 30
0.0
 10
256.014234
 20
121.509945
 30
0.0
 10
255.931233
 20
121.554144
 30
0.0
 10
255.856232
 20
121.600843
 30
0.0
 10
255.786232
 20
121.650043
 30
0.0
 10
255.724234
 20
121.701645
 30
0.0
 10
255.667233
 20
121.755645
 30
0.0
 10
255.617232
 20
121.812143
 30
0.0
 10
255.574233
 20
121.872344
 30
0.0
 10
255.537233
 20
121.936843
 30
0.0
 10
255.507233
 20
122.005745
 30
0.0
 10
255.484232
 20
122.079044
 30
0.0
 10
255.467245
 20
122.156745
 30
0.0
 10
255.457243
 20
122.238745
 30
0.0
 10
255.454243
 20
122.325144
 30
0.0
 10
255.462222
 20
122.463944
 30
0.0
 10
255.486222
 20
122.592245
 30
0.0
 10
255.527234
 20
122.710143
 30
0.0
 10
255.583233
 20
122.817543
 30
0.0
 10
255.656232
 20
122.914543
 30
0.0
 10
255.745234
 20
123.001044
 30
0.0
 10
255.850235
 20
123.077145
 30
0.0
 10
255.972234
 20
123.143145
 30
0.0
 10
256.112233
 20
123.199144
 30
0.0
 10
256.270232
 20
123.244844
 30
0.0
 10
256.446234
 20
123.280444
 30
0.0
 10
256.640234
 20
123.305844
 30
0.0
 10
256.851235
 20
123.321056
 30
0.0
 10
257.080233
 20
123.326152
 30
0.0
 10
257.289232
 20
123.320838
 30
0.0
 10
257.485233
 20
123.304842
 30
0.0
 10
257.669233
 20
123.278259
 30
0.0
 10
257.840234
 20
123.240944
 30
0.0
 10
257.999233
 20
123.192944
 30
0.0
 10
258.145235
 20
123.134343
 30
0.0
 10
258.279234
 20
123.065145
 30
0.0
 10
258.400234
 20
122.985945
 30
0.0
 10
258.507233
 20
122.897344
 30
0.0
 10
258.600234
 20
122.799546
 30
0.0
 10
258.678234
 20
122.692445
 30
0.0
 10
258.743233
 20
122.575944
 30
0.0
 10
258.794233
 20
122.450245
 30
0.0
 10
258.830233
 20
122.315145
 30
0.0
 10
259.928233
 20
122.451145
 30
0.0
 10
259.863234
 20
122.709745
 30
0.0
 10
259.776234
 20
122.947343
 30
0.0
 10
259.667234
 20
123.163945
 30
0.0
 10
259.537234
 20
123.359545
 30
0.0
 10
259.386234
 20
123.534043
 30
0.0
 10
259.213234
 20
123.687645
 30
0.0
 10
259.018233
 20
123.820143
 30
0.0
 10
258.803233
 20
123.933644
 30
0.0
 10
258.567233
 20
124.029744
 30
0.0
 10
258.310233
 20
124.108345
 30
0.0
 10
258.034234
 20
124.169545
 30
0.0
 10
257.736233
 20
124.213245
 30
0.0
 10
257.418233
 20
124.239435
 30
0.0
 10
257.080233
 20
124.248136
 30
0.0
 10
256.700234
 20
124.237448
 30
0.0
 10
256.347234
 20
124.205444
 30
0.0
 10
256.021233
 20
124.152045
 30
0.0
 10
255.722233
 20
124.077343
 30
0.0
 10
255.450233
 20
123.981343
 30
0.0
 10
255.204234
 20
123.863845
 30
0.0
 10
254.985232
 20
123.725144
 30
0.0
 10
254.795234
 20
123.566044
 30
0.0
 10
254.633233
 20
123.387445
 30
0.0
 10
254.501232
 20
123.189444
 30
0.0
 10
254.399234
 20
122.971944
 30
0.0
 10
254.326235
 20
122.735145
 30
0.0
 10
254.282234
 20
122.478845
 30
0.0
 10
254.267248
 20
122.203145
 30
0.0
 10
254.272229
 20
122.052244
 30
0.0
 10
254.288236
 20
121.908344
 30
0.0
 10
254.313238
 20
121.771345
 30
0.0
 10
254.349233
 20
121.641145
 30
0.0
 10
254.396234
 20
121.517943
 30
0.0
 10
254.452233
 20
121.401544
 30
0.0
 10
254.519232
 20
121.292143
 30
0.0
 10
254.595232
 20
121.188443
 30
0.0
 10
254.679233
 20
121.089245
 30
0.0
 10
254.771234
 20
120.994545
 30
0.0
 10
254.871234
 20
120.904344
 30
0.0
 10
254.979232
 20
120.818743
 30
0.0
 10
255.095234
 20
120.737644
 30
0.0
 10
255.218235
 20
120.661145
 30
0.0
 10
255.358234
 20
120.586644
 30
0.0
 10
255.523232
 20
120.511745
 30
0.0
 10
255.713233
 20
120.436445
 30
0.0
 10
255.928233
 20
120.360745
 30
0.0
 10
256.168234
 20
120.284644
 30
0.0
 10
256.432233
 20
120.208043
 30
0.0
 10
257.602234
 20
119.901143
 30
0.0
 10
257.786234
 20
119.849245
 30
0.0
 10
257.954232
 20
119.793345
 30
0.0
 10
258.108233
 20
119.733644
 30
0.0
 10
258.246234
 20
119.670144
 30
0.0
 10
258.369235
 20
119.602645
 30
0.0
 10
258.478234
 20
119.531344
 30
0.0
 10
258.571232
 20
119.456144
 30
0.0
 10
258.651234
 20
119.375645
 30
0.0
 10
258.718233
 20
119.288645
 30
0.0
 10
258.773233
 20
119.194944
 30
0.0
 10
258.816232
 20
119.094645
 30
0.0
 10
258.847234
 20
118.987745
 30
0.0
 10
258.865240
 20
118.874244
 30
0.0
 10
258.871246
 20
118.754144
 30
0.0
 10
258.862232
 20
118.598733
 30
0.0
 10
258.836242
 20
118.454743
 30
0.0
 10
258.791233
 20
118.322352
 30
0.0
 10
258.729234
 20
118.201336
 30
0.0
 10
258.650232
 20
118.091749
 30
0.0
 10
258.552233
 20
117.993733
 30
0.0
 10
258.437233
 20
117.907147
 30
0.0
 10
258.303234
 20
117.832330
 30
0.0
 10
258.148235
 20
117.769056
 30
0.0
 10
257.973235
 20
117.717240
 30
0.0
 10
257.777234
 20
117.676938
 30
0.0
 10
257.561232
 20
117.648152
 30
0.0
 10
257.324233
 20
117.630936
 30
0.0
 10
257.067233
 20
117.625207
 30
0.0
 10
256.825234
 20
117.630795
 30
0.0
 10
256.599233
 20
117.647390
 30
0.0
  0
LWPOLYLINE
  5
11c
100
AcDbEntity
  8
0
 62
7
100
AcDbPolyline
 90
2
 70
0
 10
256.599233
 20
117.647531
 30
0.0
 10
256.388235
 20
117.675753
 30
0.0
  0
LWPOLYLINE
  5
11d
100
AcDbEntity
  8
0
 62
7
100
AcDbPolyline
 90
27
 70
0
 10
256.388235
 20
117.675640
 30
0.0
 10
256.193234
 20
117.714954
 30
0.0
 10
256.013232
 20
117.765443
 30
0.0
 10
255.849233
 20
117.827137
 30
0.0
 10
255.701233
 20
117.900148
 30
0.0
 10
255.567234
 20
117.985153
 30
0.0
 10
255.447233
 20
118.083056
 30
0.0
 10
255.341233
 20
118.193744
 30
0.0
 10
255.248232
 20
118.317244
 30
0.0
 10
255.169233
 20
118.453755
 30
0.0
 10
255.104234
 20
118.603045
 30
0.0
 10
255.052235
 20
118.765145
 30
0.0
 10
253.974233
 20
118.555158
 30
0.0
 10
254.049234
 20
118.292042
 30
0.0
 10
254.145234
 20
118.049556
 30
0.0
 10
254.263234
 20
117.827730
 30
0.0
 10
254.401233
 20
117.626646
 30
0.0
 10
254.561233
 20
117.446137
 30
0.0
 10
254.743232
 20
117.286343
 30
0.0
 10
254.945233
 20
117.147151
 30
0.0
 10
255.171234
 20
117.027432
 30
0.0
 10
255.423233
 20
116.926256
 30
0.0
 10
255.700234
 20
116.843452
 30
0.0
 10
256.003233
 20
116.778936
 30
0.0
 10
256.332234
 20
116.732933
 30
0.0
 10
256.687233
 20
116.705276
 30
0.0
 10
257.067233
 20
116.696019
 30
0.0
  0
LWPOLYLINE
  5
11e
100
AcDbEntity
  8
0
 62
7
100
AcDbPolyline
 90
2
 70
0
 10
257.067233
 20
116.696132
 30
0.0
 10
257.459234
 20
116.707420
 30
0.0
  0
LWPOLYLINE
  5
11f
100
AcDbEntity
  8
0
 62
7
100
AcDbPolyline
 90
2
 70
0
 10
244.994334
 20
116.702538
 30
0.0
 10
245.213132
 20
116.721729
 30
0.0
  0
LWPOLYLINE
  5
120
100
AcDbEntity
  8
0
 62
7
100
AcDbPolyline
 90
40
 70
0
 10
245.213132
 20
116.721842
 30
0.0
 10
245.420933
 20
116.754044
 30
0.0
 10
245.617735
 20
116.799058
 30
0.0
 10
245.803634
 20
116.856857
 30
0.0
 10
245.978632
 20
116.927554
 30
0.0
 10
246.142733
 20
117.011148
 30
0.0
 10
246.298534
 20
117.110434
 30
0.0
 10
246.448933
 20
117.227951
 30
0.0
 10
246.593933
 20
117.363531
 30
0.0
 10
246.733534
 20
117.517257
 30
0.0
 10
246.867632
 20
117.689046
 30
0.0
 10
246.996433
 20
117.879038
 30
0.0
 10
247.119634
 20
118.087148
 30
0.0
 10
247.139728
 20
118.087148
 30
0.0
 10
247.187734
 20
116.874552
 30
0.0
 10
247.193745
 20
116.824148
 30
0.0
 10
248.346733
 20
116.824148
 30
0.0
 10
248.335840
 20
116.926256
 30
0.0
 10
248.326633
 20
117.069145
 30
0.0
 10
248.319042
 20
117.252730
 30
0.0
 10
248.313219
 20
117.477238
 30
0.0
 10
248.309028
 20
117.742442
 30
0.0
 10
248.305732
 20
118.395138
 30
0.0
 10
248.305735
 20
124.184145
 30
0.0
 10
247.084734
 20
124.184145
 30
0.0
 10
247.084734
 20
119.923145
 30
0.0
 10
247.074236
 20
119.625844
 30
0.0
 10
247.042934
 20
119.347745
 30
0.0
 10
246.990833
 20
119.088744
 30
0.0
 10
246.917834
 20
118.848844
 30
0.0
 10
246.823933
 20
118.628143
 30
0.0
 10
246.709235
 20
118.426549
 30
0.0
 10
246.573734
 20
118.244149
 30
0.0
 10
246.420033
 20
118.083649
 30
0.0
 10
246.251033
 20
117.947844
 30
0.0
 10
246.066835
 20
117.836648
 30
0.0
 10
245.867233
 20
117.750232
 30
0.0
 10
245.652332
 20
117.688538
 30
0.0
 10
245.422132
 20
117.651454
 30
0.0
 10
245.176734
 20
117.639036
 30
0.0
  0
LWPOLYLINE
  5
121
100
AcDbEntity
  8
0
 62
7
100
AcDbPolyline
 90
4
 70
0
 10
245.176734
 20
117.639149
 30
0.0
 10
245.009535
 20
117.642818
 30
0.0
 10
244.854233
 20
117.653458
 30
0.0
 10
244.710833
 20
117.671322
 30
0.0
  0
LWPOLYLINE
  5
122
100
AcDbEntity
  8
0
 62
7
100
AcDbPolyline
 90
36
 70
0
 10
244.710833
 20
117.671435
 30
0.0
 10
244.579434
 20
117.696553
 30
0.0
 10
244.459935
 20
117.728952
 30
0.0
 10
244.352332
 20
117.768435
 30
0.0
 10
244.256732
 20
117.815143
 30
0.0
 10
244.170733
 20
117.870232
 30
0.0
 10
244.091734
 20
117.934551
 30
0.0
 10
244.019634
 20
118.008042
 30
0.0
 10
243.954534
 20
118.090535
 30
0.0
 10
243.896233
 20
118.182257
 30
0.0
 10
243.845032
 20
118.283152
 30
0.0
 10
243.800633
 20
118.393134
 30
0.0
 10
243.762733
 20
118.514348
 30
0.0
 10
243.730633
 20
118.648943
 30
0.0
 10
243.704330
 20
118.796943
 30
0.0
 10
243.683928
 20
118.958146
 30
0.0
 10
243.669343
 20
119.132844
 30
0.0
 10
243.660642
 20
119.320843
 30
0.0
 10
243.657727
 20
119.522144
 30
0.0
 10
243.657732
 20
124.184145
 30
0.0
 10
242.430735
 20
124.184145
 30
0.0
 10
242.430735
 20
119.285145
 30
0.0
 10
242.442136
 20
118.905144
 30
0.0
 10
242.476432
 20
118.557133
 30
0.0
 10
242.533734
 20
118.241157
 30
0.0
 10
242.613835
 20
117.957157
 30
0.0
 10
242.716933
 20
117.705132
 30
0.0
 10
242.842833
 20
117.485140
 30
0.0
 10
242.991733
 20
117.297152
 30
0.0
 10
243.165534
 20
117.137640
 30
0.0
 10
243.365833
 20
117.002738
 30
0.0
 10
243.592632
 20
116.892332
 30
0.0
 10
243.845932
 20
116.806537
 30
0.0
 10
244.125634
 20
116.745238
 30
0.0
 10
244.431933
 20
116.708436
 30
0.0
 10
244.764732
 20
116.696019
 30
0.0
  0
LWPOLYLINE
  5
123
100
AcDbEntity
  8
0
 62
7
100
AcDbPolyline
 90
2
 70
0
 10
244.764732
 20
116.696132
 30
0.0
 10
244.994334
 20
116.702623
 30
0.0
  0
LWPOLYLINE
  5
124
100
AcDbEntity
  8
0
 62
7
100
AcDbPolyline
 90
51
 70
0
 10
276.253234
 20
100.930436
 30
0.0
 10
276.983232
 20
101.117804
 30
0.0
 10
277.684233
 20
101.395172
 30
0.0
 10
278.344235
 20
101.758194
 30
0.0
 10
278.954233
 20
102.201057
 30
0.0
 10
279.503234
 20
102.716875
 30
0.0
 10
279.983235
 20
103.297434
 30
0.0
 10
280.387233
 20
103.933619
 30
0.0
 10
280.708233
 20
104.615412
 30
0.0
 10
280.940233
 20
105.332002
 30
0.0
 10
281.082234
 20
106.072130
 30
0.0
 10
281.129235
 20
106.824139
 30
0.0
 10
281.082234
 20
107.576149
 30
0.0
 10
280.940233
 20
108.316276
 30
0.0
 10
280.708233
 20
109.032895
 30
0.0
 10
280.387233
 20
109.714688
 30
0.0
 10
279.983235
 20
110.350873
 30
0.0
 10
279.503234
 20
110.931432
 30
0.0
 10
278.954233
 20
111.447222
 30
0.0
 10
278.344235
 20
111.890113
 30
0.0
 10
277.684233
 20
112.253107
 30
0.0
 10
276.983232
 20
112.530475
 30
0.0
 10
276.253234
 20
112.717871
 30
0.0
 10
275.506234
 20
112.812302
 30
0.0
 10
274.752235
 20
112.812302
 30
0.0
 10
274.005235
 20
112.717871
 30
0.0
 10
273.275233
 20
112.530475
 30
0.0
 10
272.574233
 20
112.253107
 30
0.0
 10
271.914233
 20
111.890113
 30
0.0
 10
271.304233
 20
111.447222
 30
0.0
 10
270.755234
 20
110.931432
 30
0.0
 10
270.275233
 20
110.350873
 30
0.0
 10
269.871232
 20
109.714688
 30
0.0
 10
269.550233
 20
109.032895
 30
0.0
 10
269.318232
 20
108.316276
 30
0.0
 10
269.176235
 20
107.576149
 30
0.0
 10
269.129233
 20
106.824139
 30
0.0
 10
269.176235
 20
106.072130
 30
0.0
 10
269.318232
 20
105.332002
 30
0.0
 10
269.550233
 20
104.615412
 30
0.0
 10
269.871232
 20
103.933619
 30
0.0
 10
270.275233
 20
103.297434
 30
0.0
 10
270.755234
 20
102.716875
 30
0.0
 10
271.304233
 20
102.201057
 30
0.0
 10
271.914233
 20
101.758194
 30
0.0
 10
272.574233
 20
101.395172
 30
0.0
 10
273.275233
 20
101.117804
 30
0.0
 10
274.005235
 20
100.930436
 30
0.0
 10
274.752235
 20
100.835976
 30
0.0
 10
275.506234
 20
100.835976
 30
0.0
 10
276.253234
 20
100.930436
 30
0.0
  0
LWPOLYLINE
  5
125
100
AcDbEntity
  8
0
 62
7
100
AcDbPolyline
 90
17
 70
0
 10
228.626732
 20
106.160155
 30
0.0
 10
228.637344
 20
106.441107
 30
0.0
 10
228.669235
 20
106.705126
 30
0.0
 10
228.722434
 20
106.952184
 30
0.0
 10
228.796833
 20
107.182336
 30
0.0
 10
228.892535
 20
107.395555
 30
0.0
 10
229.009533
 20
107.591812
 30
0.0
 10
229.147734
 20
107.771136
 30
0.0
 10
229.303634
 20
107.929801
 30
0.0
 10
229.473633
 20
108.064026
 30
0.0
 10
229.657732
 20
108.173867
 30
0.0
 10
229.855832
 20
108.259296
 30
0.0
 10
230.068033
 20
108.320312
 30
0.0
 10
230.294332
 20
108.356945
 30
0.0
 10
230.534732
 20
108.369080
 30
0.0
 10
230.695034
 20
108.365468
 30
0.0
 10
230.845033
 20
108.354800
 30
0.0
  0
LWPOLYLINE
  5
126
100
AcDbEntity
  8
0
 62
7
100
AcDbPolyline
 90
3
 70
0
 10
230.845033
 20
108.354687
 30
0.0
 10
230.984733
 20
108.336625
 30
0.0
 10
231.114134
 20
108.311225
 30
0.0
  0
LWPOLYLINE
  5
127
100
AcDbEntity
  8
0
 62
7
100
AcDbPolyline
 90
58
 70
0
 10
231.114134
 20
108.311338
 30
0.0
 10
231.233334
 20
108.278826
 30
0.0
 10
231.342235
 20
108.239089
 30
0.0
 10
231.440733
 20
108.192155
 30
0.0
 10
231.530435
 20
108.137714
 30
0.0
 10
231.612635
 20
108.075061
 30
0.0
 10
231.687235
 20
108.004195
 30
0.0
 10
231.754434
 20
107.925032
 30
0.0
 10
231.814034
 20
107.837656
 30
0.0
 10
231.866132
 20
107.742011
 30
0.0
 10
231.910735
 20
107.638153
 30
0.0
 10
231.948733
 20
107.522301
 30
0.0
 10
231.980833
 20
107.390221
 30
0.0
 10
232.007023
 20
107.241885
 30
0.0
 10
232.027524
 20
107.077321
 30
0.0
 10
232.042039
 20
106.896501
 30
0.0
 10
232.050838
 20
106.699454
 30
0.0
 10
232.053740
 20
106.486122
 30
0.0
 10
232.053734
 20
101.824149
 30
0.0
 10
233.280735
 20
101.824149
 30
0.0
 10
233.280735
 20
106.723132
 30
0.0
 10
233.269135
 20
107.106700
 30
0.0
 10
233.234334
 20
107.457333
 30
0.0
 10
233.176434
 20
107.775115
 30
0.0
 10
233.095233
 20
108.059962
 30
0.0
 10
232.990935
 20
108.311902
 30
0.0
 10
232.863432
 20
108.530963
 30
0.0
 10
232.712734
 20
108.717145
 30
0.0
 10
232.537635
 20
108.874992
 30
0.0
 10
232.336732
 20
109.008568
 30
0.0
 10
232.110133
 20
109.117844
 30
0.0
 10
231.857934
 20
109.202849
 30
0.0
 10
231.579934
 20
109.263555
 30
0.0
 10
231.276133
 20
109.299990
 30
0.0
 10
230.946734
 20
109.312126
 30
0.0
 10
230.709933
 20
109.305352
 30
0.0
 10
230.485134
 20
109.284666
 30
0.0
 10
230.272333
 20
109.250234
 30
0.0
 10
230.071634
 20
109.202087
 30
0.0
 10
229.882934
 20
109.140196
 30
0.0
 10
229.706334
 20
109.064532
 30
0.0
 10
229.541733
 20
108.975124
 30
0.0
 10
229.386734
 20
108.871295
 30
0.0
 10
229.238133
 20
108.751774
 30
0.0
 10
229.096133
 20
108.616617
 30
0.0
 10
228.960533
 20
108.465741
 30
0.0
 10
228.831434
 20
108.299202
 30
0.0
 10
228.708833
 20
108.117028
 30
0.0
 10
228.592733
 20
107.919133
 30
0.0
 10
228.571735
 20
107.919133
 30
0.0
 10
228.602735
 20
108.424142
 30
0.0
 10
228.618934
 20
108.794615
 30
0.0
 10
228.626244
 20
109.155154
 30
0.0
 10
228.626797
 20
111.872135
 30
0.0
 10
227.405734
 20
111.872135
 30
0.0
 10
227.405734
 20
101.824149
 30
0.0
 10
228.626732
 20
101.824149
 30
0.0
 10
228.626732
 20
106.160155
 30
0.0
  0
LWPOLYLINE
  5
128
100
AcDbEntity
  8
0
 62
7
100
AcDbPolyline
 90
58
 70
0
 10
219.443334
 20
101.711063
 30
0.0
 10
219.846034
 20
101.755823
 30
0.0
 10
220.219332
 20
101.830415
 30
0.0
 10
220.563234
 20
101.934837
 30
0.0
 10
220.877632
 20
102.069090
 30
0.0
 10
221.162634
 20
102.233202
 30
0.0
 10
221.418235
 20
102.427145
 30
0.0
 10
221.641834
 20
102.648549
 30
0.0
 10
221.831134
 20
102.894477
 30
0.0
 10
221.985933
 20
103.164959
 30
0.0
 10
222.106434
 20
103.459938
 30
0.0
 10
222.192432
 20
103.779470
 30
0.0
 10
222.244034
 20
104.123555
 30
0.0
 10
222.261221
 20
104.492137
 30
0.0
 10
222.249040
 20
104.749411
 30
0.0
 10
222.212335
 20
104.993844
 30
0.0
 10
222.151234
 20
105.225435
 30
0.0
 10
222.065633
 20
105.444157
 30
0.0
 10
221.955634
 20
105.649982
 30
0.0
 10
221.821132
 20
105.842994
 30
0.0
 10
221.662233
 20
106.023136
 30
0.0
 10
221.481633
 20
106.187107
 30
0.0
 10
221.281633
 20
106.330984
 30
0.0
 10
221.062234
 20
106.454767
 30
0.0
 10
220.823333
 20
106.558484
 30
0.0
 10
220.565133
 20
106.642134
 30
0.0
 10
220.287334
 20
106.705662
 30
0.0
 10
219.990233
 20
106.749125
 30
0.0
 10
219.990233
 20
106.776218
 30
0.0
 10
220.260432
 20
106.841637
 30
0.0
 10
220.511632
 20
106.922099
 30
0.0
 10
220.743732
 20
107.017546
 30
0.0
 10
220.956934
 20
107.127980
 30
0.0
 10
221.151032
 20
107.253371
 30
0.0
 10
221.326134
 20
107.393777
 30
0.0
 10
221.482234
 20
107.549140
 30
0.0
 10
221.618635
 20
107.719235
 30
0.0
 10
221.734033
 20
107.903272
 30
0.0
 10
221.828433
 20
108.101195
 30
0.0
 10
221.901834
 20
108.313059
 30
0.0
 10
221.954234
 20
108.538837
 30
0.0
 10
221.985733
 20
108.778528
 30
0.0
 10
221.996231
 20
109.032133
 30
0.0
 10
221.979922
 20
109.361176
 30
0.0
 10
221.931032
 20
109.668798
 30
0.0
 10
221.849434
 20
109.955028
 30
0.0
 10
221.735334
 20
110.219894
 30
0.0
 10
221.588533
 20
110.463367
 30
0.0
 10
221.409235
 20
110.685447
 30
0.0
 10
221.197232
 20
110.886136
 30
0.0
 10
220.955833
 20
111.062835
 30
0.0
 10
220.688233
 20
111.212356
 30
0.0
 10
220.394434
 20
111.334671
 30
0.0
 10
220.074434
 20
111.429808
 30
0.0
 10
219.728234
 20
111.497768
 30
0.0
 10
219.355834
 20
111.538549
 30
0.0
 10
218.957234
 20
111.552095
 30
0.0
 10
218.589835
 20
111.538605
 30
0.0
  0
LWPOLYLINE
  5
129
100
AcDbEntity
  8
0
 62
7
100
AcDbPolyline
 90
56
 70
0
 10
218.589835
 20
111.538718
 30
0.0
 10
218.242134
 20
111.498417
 30
0.0
 10
217.913932
 20
111.431276
 30
0.0
 10
217.605432
 20
111.337296
 30
0.0
 10
217.316434
 20
111.216420
 30
0.0
 10
217.047033
 20
111.068705
 30
0.0
 10
216.797232
 20
110.894122
 30
0.0
 10
216.571833
 20
110.695890
 30
0.0
 10
216.375234
 20
110.476575
 30
0.0
 10
216.207233
 20
110.236234
 30
0.0
 10
216.067934
 20
109.974784
 30
0.0
 10
215.957333
 20
109.692307
 30
0.0
 10
215.875433
 20
109.388749
 30
0.0
 10
215.822234
 20
109.064137
 30
0.0
 10
217.049234
 20
108.969141
 30
0.0
 10
217.081233
 20
109.177082
 30
0.0
 10
217.130232
 20
109.371167
 30
0.0
 10
217.196233
 20
109.551422
 30
0.0
 10
217.279434
 20
109.717877
 30
0.0
 10
217.379635
 20
109.870474
 30
0.0
 10
217.496935
 20
110.009215
 30
0.0
 10
217.631233
 20
110.134154
 30
0.0
 10
217.780735
 20
110.243967
 30
0.0
 10
217.942835
 20
110.336903
 30
0.0
 10
218.117634
 20
110.412962
 30
0.0
 10
218.305033
 20
110.472087
 30
0.0
 10
218.505134
 20
110.514336
 30
0.0
 10
218.717834
 20
110.539736
 30
0.0
 10
218.943233
 20
110.548174
 30
0.0
 10
219.189433
 20
110.539115
 30
0.0
 10
219.417635
 20
110.512022
 30
0.0
 10
219.627834
 20
110.466951
 30
0.0
 10
219.820134
 20
110.403818
 30
0.0
 10
219.994432
 20
110.322622
 30
0.0
 10
220.150834
 20
110.223393
 30
0.0
 10
220.289233
 20
110.106130
 30
0.0
 10
220.409434
 20
109.973570
 30
0.0
 10
220.511133
 20
109.827915
 30
0.0
 10
220.594332
 20
109.669165
 30
0.0
 10
220.659034
 20
109.497320
 30
0.0
 10
220.705234
 20
109.312352
 30
0.0
 10
220.732948
 20
109.114316
 30
0.0
 10
220.742219
 20
108.903129
 30
0.0
 10
220.730945
 20
108.690221
 30
0.0
 10
220.696934
 20
108.490972
 30
0.0
 10
220.640233
 20
108.305354
 30
0.0
 10
220.561033
 20
108.133340
 30
0.0
 10
220.459035
 20
107.974985
 30
0.0
 10
220.334434
 20
107.830233
 30
0.0
 10
220.187232
 20
107.699141
 30
0.0
 10
220.019434
 20
107.583712
 30
0.0
 10
219.833134
 20
107.486063
 30
0.0
 10
219.628333
 20
107.406166
 30
0.0
 10
219.405033
 20
107.344049
 30
0.0
 10
219.163234
 20
107.299656
 30
0.0
 10
218.902935
 20
107.273127
 30
0.0
  0
LWPOLYLINE
  5
12a
100
AcDbEntity
  8
0
 62
7
100
AcDbPolyline
 90
2
 70
0
 10
218.902935
 20
107.273014
 30
0.0
 10
218.624235
 20
107.264265
 30
0.0
  0
LWPOLYLINE
  5
12b
100
AcDbEntity
  8
0
 62
7
100
AcDbPolyline
 90
55
 70
0
 10
218.624235
 20
107.264124
 30
0.0
 10
217.957233
 20
107.264124
 30
0.0
 10
217.957233
 20
106.206129
 30
0.0
 10
218.651232
 20
106.206129
 30
0.0
 10
218.965134
 20
106.197098
 30
0.0
 10
219.257234
 20
106.170005
 30
0.0
 10
219.527532
 20
106.124764
 30
0.0
 10
219.775933
 20
106.061490
 30
0.0
 10
220.002535
 20
105.980126
 30
0.0
 10
220.207332
 20
105.880670
 30
0.0
 10
220.390235
 20
105.763153
 30
0.0
 10
220.549933
 20
105.629747
 30
0.0
 10
220.685033
 20
105.482173
 30
0.0
 10
220.795633
 20
105.320375
 30
0.0
 10
220.881634
 20
105.144353
 30
0.0
 10
220.943035
 20
104.954163
 30
0.0
 10
220.979932
 20
104.749750
 30
0.0
 10
220.992237
 20
104.531140
 30
0.0
 10
220.981425
 20
104.281656
 30
0.0
 10
220.949133
 20
104.050318
 30
0.0
 10
220.895235
 20
103.837156
 30
0.0
 10
220.819833
 20
103.642140
 30
0.0
 10
220.722833
 20
103.465328
 30
0.0
 10
220.604334
 20
103.306634
 30
0.0
 10
220.464233
 20
103.166144
 30
0.0
 10
220.305534
 20
103.044111
 30
0.0
 10
220.130432
 20
102.940818
 30
0.0
 10
219.939035
 20
102.856349
 30
0.0
 10
219.731333
 20
102.790619
 30
0.0
 10
219.507333
 20
102.743686
 30
0.0
 10
219.266934
 20
102.715464
 30
0.0
 10
219.010233
 20
102.706207
 30
0.0
 10
218.515734
 20
102.740751
 30
0.0
 10
218.086534
 20
102.844580
 30
0.0
 10
217.722633
 20
103.017639
 30
0.0
 10
217.424133
 20
103.259927
 30
0.0
 10
217.190834
 20
103.571444
 30
0.0
 10
217.022832
 20
103.952190
 30
0.0
 10
216.920233
 20
104.402136
 30
0.0
 10
215.659233
 20
104.287131
 30
0.0
 10
215.720134
 20
103.933648
 30
0.0
 10
215.809833
 20
103.605734
 30
0.0
 10
215.928234
 20
103.303445
 30
0.0
 10
216.075432
 20
103.026726
 30
0.0
 10
216.251234
 20
102.775605
 30
0.0
 10
216.455834
 20
102.550081
 30
0.0
 10
216.689234
 20
102.350127
 30
0.0
 10
216.948933
 20
102.176617
 30
0.0
 10
217.232634
 20
102.029805
 30
0.0
 10
217.540332
 20
101.909691
 30
0.0
 10
217.872033
 20
101.816275
 30
0.0
 10
218.227834
 20
101.749530
 30
0.0
 10
218.607533
 20
101.709511
 30
0.0
 10
219.011235
 20
101.696246
 30
0.0
 10
219.443334
 20
101.711119
 30
0.0
  0
LWPOLYLINE
  5
12c
100
AcDbEntity
  8
0
 62
7
100
AcDbPolyline
 90
50
 70
0
 10
238.271335
 20
101.715381
 30
0.0
 10
238.686634
 20
101.773124
 30
0.0
 10
239.070535
 20
101.869333
 30
0.0
 10
239.423135
 20
102.004066
 30
0.0
 10
239.744335
 20
102.177266
 30
0.0
 10
240.034233
 20
102.388932
 30
0.0
 10
240.292735
 20
102.639122
 30
0.0
 10
240.518233
 20
102.928936
 30
0.0
 10
240.709032
 20
103.258911
 30
0.0
 10
240.865135
 20
103.629017
 30
0.0
 10
240.986635
 20
104.039283
 30
0.0
 10
241.073333
 20
104.489738
 30
0.0
 10
241.125333
 20
104.980353
 30
0.0
 10
241.142746
 20
105.511157
 30
0.0
 10
241.126422
 20
106.046843
 30
0.0
 10
241.077733
 20
106.540845
 30
0.0
 10
240.996532
 20
106.993134
 30
0.0
 10
240.882833
 20
107.403711
 30
0.0
 10
240.736634
 20
107.772575
 30
0.0
 10
240.557933
 20
108.099699
 30
0.0
 10
240.346732
 20
108.385139
 30
0.0
 10
240.101433
 20
108.631067
 30
0.0
 10
239.819733
 20
108.839178
 30
0.0
 10
239.501635
 20
109.009442
 30
0.0
 10
239.147234
 20
109.141861
 30
0.0
 10
238.756433
 20
109.236462
 30
0.0
 10
238.329233
 20
109.293217
 30
0.0
 10
237.865734
 20
109.312126
 30
0.0
 10
236.991034
 20
109.234571
 30
0.0
 10
236.250833
 20
109.001851
 30
0.0
 10
235.645333
 20
108.613993
 30
0.0
 10
235.174333
 20
108.070997
 30
0.0
 10
234.837834
 20
107.372864
 30
0.0
 10
234.636033
 20
106.519565
 30
0.0
 10
234.568735
 20
105.511157
 30
0.0
 10
234.585527
 20
104.999488
 30
0.0
 10
234.635833
 20
104.523464
 30
0.0
 10
234.719732
 20
104.083000
 30
0.0
 10
234.837134
 20
103.678152
 30
0.0
 10
234.988134
 20
103.308892
 30
0.0
 10
235.172634
 20
102.975221
 30
0.0
 10
235.390732
 20
102.677138
 30
0.0
 10
235.641933
 20
102.416872
 30
0.0
 10
235.925335
 20
102.196654
 30
0.0
 10
236.240834
 20
102.016456
 30
0.0
 10
236.588633
 20
101.876304
 30
0.0
 10
236.968434
 20
101.776228
 30
0.0
 10
237.380534
 20
101.716171
 30
0.0
 10
237.824732
 20
101.696133
 30
0.0
 10
238.271335
 20
101.715353
 30
0.0
  0
LWPOLYLINE
  5
12d
100
AcDbEntity
  8
0
 62
7
100
AcDbPolyline
 90
57
 70
0
 10
237.532734
 20
102.613045
 30
0.0
 10
237.275934
 20
102.657721
 30
0.0
 10
237.041233
 20
102.732228
 30
0.0
 10
236.828734
 20
102.836509
 30
0.0
 10
236.638234
 20
102.970592
 30
0.0
 10
236.469933
 20
103.134451
 30
0.0
 10
236.323734
 20
103.328140
 30
0.0
 10
236.198232
 20
103.551462
 30
0.0
 10
236.092035
 20
103.804305
 30
0.0
 10
236.005133
 20
104.086640
 30
0.0
 10
235.937634
 20
104.398496
 30
0.0
 10
235.889334
 20
104.739872
 30
0.0
 10
235.860333
 20
105.110740
 30
0.0
 10
235.850738
 20
105.511157
 30
0.0
 10
235.860528
 20
105.921847
 30
0.0
 10
235.889933
 20
106.300194
 30
0.0
 10
235.938833
 20
106.646255
 30
0.0
 10
236.007433
 20
106.959945
 30
0.0
 10
236.095633
 20
107.241320
 30
0.0
 10
236.203335
 20
107.490410
 30
0.0
 10
236.330733
 20
107.707156
 30
0.0
 10
236.480034
 20
107.893649
 30
0.0
 10
236.653634
 20
108.051467
 30
0.0
 10
236.851633
 20
108.180584
 30
0.0
 10
237.073934
 20
108.280999
 30
0.0
 10
237.320534
 20
108.352768
 30
0.0
 10
237.591433
 20
108.395778
 30
0.0
 10
237.886734
 20
108.410172
 30
0.0
 10
238.179534
 20
108.396032
 30
0.0
 10
238.447233
 20
108.353897
 30
0.0
 10
238.689634
 20
108.283595
 30
0.0
 10
238.906933
 20
108.185156
 30
0.0
 10
239.099034
 20
108.058608
 30
0.0
 10
239.265934
 20
107.903922
 30
0.0
 10
239.407734
 20
107.721126
 30
0.0
 10
239.527932
 20
107.507286
 30
0.0
 10
239.629634
 20
107.259495
 30
0.0
 10
239.712833
 20
106.977753
 30
0.0
 10
239.777532
 20
106.662031
 30
0.0
 10
239.823735
 20
106.312358
 30
0.0
 10
239.851421
 20
105.928733
 30
0.0
 10
239.860746
 20
105.511157
 30
0.0
 10
239.851026
 20
105.098492
 30
0.0
 10
239.822135
 20
104.718310
 30
0.0
 10
239.773833
 20
104.370584
 30
0.0
 10
239.706235
 20
104.055285
 30
0.0
 10
239.619434
 20
103.772470
 30
0.0
 10
239.513234
 20
103.522083
 30
0.0
 10
239.387733
 20
103.304151
 30
0.0
 10
239.239733
 20
103.116812
 30
0.0
 10
239.066033
 20
102.958344
 30
0.0
 10
238.866533
 20
102.828663
 30
0.0
 10
238.641433
 20
102.727825
 30
0.0
 10
238.390534
 20
102.655774
 30
0.0
 10
238.114033
 20
102.612565
 30
0.0
 10
237.811733
 20
102.598172
 30
0.0
 10
237.532734
 20
102.613102
 30
0.0
  0
LWPOLYLINE
  5
12e
100
AcDbEntity
  8
0
 62
7
100
AcDbPolyline
 90
15
 70
0
 10
251.249234
 20
105.658138
 30
0.0
 10
251.258237
 20
105.995986
 30
0.0
 10
251.282223
 20
106.310692
 30
0.0
 10
251.323232
 20
106.602284
 30
0.0
 10
251.379234
 20
106.870706
 30
0.0
 10
251.452233
 20
107.115985
 30
0.0
 10
251.542234
 20
107.338122
 30
0.0
 10
251.647235
 20
107.537146
 30
0.0
 10
251.768235
 20
107.711192
 30
0.0
 10
251.904235
 20
107.858456
 30
0.0
 10
252.054233
 20
107.978936
 30
0.0
 10
252.219234
 20
108.072634
 30
0.0
 10
252.398234
 20
108.139577
 30
0.0
 10
252.592233
 20
108.179766
 30
0.0
 10
252.800234
 20
108.193030
 30
0.0
  0
LWPOLYLINE
  5
12f
100
AcDbEntity
  8
0
 62
7
100
AcDbPolyline
 90
2
 70
0
 10
252.800234
 20
108.193143
 30
0.0
 10
252.913233
 20
108.190321
 30
0.0
  0
LWPOLYLINE
  5
130
100
AcDbEntity
  8
0
 62
7
100
AcDbPolyline
 90
3
 70
0
 10
252.913233
 20
108.191732
 30
0.0
 10
253.018234
 20
108.187498
 30
0.0
 10
253.117234
 20
108.180528
 30
0.0
  0
LWPOLYLINE
  5
131
100
AcDbEntity
  8
0
 62
7
100
AcDbPolyline
 90
2
 70
0
 10
253.117234
 20
108.180640
 30
0.0
 10
253.210235
 20
108.171045
 30
0.0
  0
LWPOLYLINE
  5
132
100
AcDbEntity
  8
0
 62
7
100
AcDbPolyline
 90
9
 70
0
 10
253.210235
 20
108.170932
 30
0.0
 10
253.295235
 20
108.158514
 30
0.0
 10
253.375233
 20
108.143218
 30
0.0
 10
253.447234
 20
108.125099
 30
0.0
 10
253.447234
 20
109.244138
 30
0.0
 10
253.376232
 20
109.262201
 30
0.0
 10
253.305234
 20
109.277412
 30
0.0
 10
253.235234
 20
109.289858
 30
0.0
 10
253.164233
 20
109.299539
 30
0.0
  0
LWPOLYLINE
  5
133
100
AcDbEntity
  8
0
 62
7
100
AcDbPolyline
 90
2
 70
0
 10
253.164233
 20
109.299652
 30
0.0
 10
253.094233
 20
109.306707
 30
0.0
  0
LWPOLYLINE
  5
134
100
AcDbEntity
  8
0
 62
7
100
AcDbPolyline
 90
3
 70
0
 10
253.094233
 20
109.306594
 30
0.0
 10
253.025233
 20
109.310828
 30
0.0
 10
252.955233
 20
109.310743
 30
0.0
  0
LWPOLYLINE
  5
135
100
AcDbEntity
  8
0
 62
7
100
AcDbPolyline
 90
26
 70
0
 10
252.955233
 20
109.312126
 30
0.0
 10
252.765233
 20
109.305070
 30
0.0
 10
252.588234
 20
109.283904
 30
0.0
 10
252.423233
 20
109.248598
 30
0.0
 10
252.270235
 20
109.199152
 30
0.0
 10
252.131235
 20
109.135596
 30
0.0
 10
252.004235
 20
109.057956
 30
0.0
 10
251.889235
 20
108.966150
 30
0.0
 10
251.783235
 20
108.855123
 30
0.0
 10
251.681234
 20
108.719770
 30
0.0
 10
251.582233
 20
108.560088
 30
0.0
 10
251.486233
 20
108.376108
 30
0.0
 10
251.394234
 20
108.167771
 30
0.0
 10
251.306234
 20
107.935135
 30
0.0
 10
251.221234
 20
107.678144
 30
0.0
 10
251.194226
 20
107.678144
 30
0.0
 10
251.190227
 20
107.903922
 30
0.0
 10
251.167231
 20
108.549364
 30
0.0
 10
251.140225
 20
109.184138
 30
0.0
 10
249.987235
 20
109.184138
 30
0.0
 10
250.008232
 20
108.660954
 30
0.0
 10
250.021245
 20
108.164526
 30
0.0
 10
250.028233
 20
107.694908
 30
0.0
 10
250.028233
 20
101.824149
 30
0.0
 10
251.249234
 20
101.824149
 30
0.0
 10
251.249234
 20
105.658138
 30
0.0
  0
LWPOLYLINE
  5
136
100
AcDbEntity
  8
0
 62
7
100
AcDbPolyline
 90
79
 70
0
 10
257.459234
 20
101.707592
 30
0.0
 10
257.825234
 20
101.741853
 30
0.0
 10
258.166235
 20
101.799003
 30
0.0
 10
258.481235
 20
101.879013
 30
0.0
 10
258.770233
 20
101.981855
 30
0.0
 10
259.033233
 20
102.107557
 30
0.0
 10
259.271234
 20
102.256147
 30
0.0
 10
259.480233
 20
102.425791
 30
0.0
 10
259.656233
 20
102.614738
 30
0.0
 10
259.801233
 20
102.823018
 30
0.0
 10
259.913233
 20
103.050574
 30
0.0
 10
259.994233
 20
103.297462
 30
0.0
 10
260.042234
 20
103.563654
 30
0.0
 10
260.058236
 20
103.849150
 30
0.0
 10
260.055241
 20
103.966978
 30
0.0
 10
260.047246
 20
104.081052
 30
0.0
 10
260.033234
 20
104.191373
 30
0.0
 10
260.013224
 20
104.297968
 30
0.0
 10
259.988228
 20
104.400782
 30
0.0
 10
259.957234
 20
104.499842
 30
0.0
 10
259.921234
 20
104.595148
 30
0.0
 10
259.880233
 20
104.687012
 30
0.0
 10
259.834233
 20
104.775714
 30
0.0
 10
259.784235
 20
104.861284
 30
0.0
 10
259.729232
 20
104.943721
 30
0.0
 10
259.669232
 20
105.022997
 30
0.0
 10
259.605232
 20
105.099141
 30
0.0
 10
259.536235
 20
105.172123
 30
0.0
 10
259.461234
 20
105.242651
 30
0.0
 10
259.379235
 20
105.311315
 30
0.0
 10
259.289234
 20
105.378174
 30
0.0
 10
259.192234
 20
105.443170
 30
0.0
 10
259.088232
 20
105.506303
 30
0.0
 10
258.976233
 20
105.567658
 30
0.0
 10
258.857234
 20
105.627122
 30
0.0
 10
258.723234
 20
105.686756
 30
0.0
 10
258.567233
 20
105.747857
 30
0.0
 10
258.389233
 20
105.810510
 30
0.0
 10
258.188234
 20
105.874659
 30
0.0
 10
257.965234
 20
105.940304
 30
0.0
 10
257.720234
 20
106.007473
 30
0.0
 10
257.452233
 20
106.076138
 30
0.0
 10
257.172234
 20
106.145367
 30
0.0
 10
256.922233
 20
106.210165
 30
0.0
 10
256.700234
 20
106.270589
 30
0.0
 10
256.507234
 20
106.326582
 30
0.0
 10
256.343235
 20
106.378172
 30
0.0
 10
256.208234
 20
106.425359
 30
0.0
 10
256.102234
 20
106.468144
 30
0.0
 10
256.014234
 20
106.509941
 30
0.0
 10
255.931233
 20
106.554166
 30
0.0
 10
255.856232
 20
106.600873
 30
0.0
 10
255.786232
 20
106.650008
 30
0.0
 10
255.724234
 20
106.701598
 30
0.0
 10
255.667233
 20
106.755644
 30
0.0
 10
255.617232
 20
106.812145
 30
0.0
 10
255.574233
 20
106.872315
 30
0.0
 10
255.537233
 20
106.936887
 30
0.0
 10
255.507233
 20
107.005778
 30
0.0
 10
255.484232
 20
107.079071
 30
0.0
 10
255.467245
 20
107.156710
 30
0.0
 10
255.457243
 20
107.238752
 30
0.0
 10
255.454243
 20
107.325140
 30
0.0
 10
255.462222
 20
107.463909
 30
0.0
 10
255.486222
 20
107.592235
 30
0.0
 10
255.527234
 20
107.710120
 30
0.0
 10
255.583233
 20
107.817533
 30
0.0
 10
255.656232
 20
107.914533
 30
0.0
 10
255.745234
 20
108.001062
 30
0.0
 10
255.850235
 20
108.077121
 30
0.0
 10
255.972234
 20
108.143190
 30
0.0
 10
256.112233
 20
108.199098
 30
0.0
 10
256.270232
 20
108.244818
 30
0.0
 10
256.446234
 20
108.280406
 30
0.0
 10
256.640234
 20
108.305806
 30
0.0
 10
256.851235
 20
108.321046
 30
0.0
 10
257.080233
 20
108.326154
 30
0.0
 10
257.289232
 20
108.320792
 30
0.0
 10
257.485233
 20
108.304705
 30
0.0
  0
LWPOLYLINE
  5
137
100
AcDbEntity
  8
0
 62
7
100
AcDbPolyline
 90
91
 70
0
 10
257.485233
 20
108.304818
 30
0.0
 10
257.669233
 20
108.278289
 30
0.0
 10
257.840234
 20
108.240895
 30
0.0
 10
257.999233
 20
108.192974
 30
0.0
 10
258.145235
 20
108.134384
 30
0.0
 10
258.279234
 20
108.065155
 30
0.0
 10
258.400234
 20
107.985907
 30
0.0
 10
258.507233
 20
107.897374
 30
0.0
 10
258.600234
 20
107.799556
 30
0.0
 10
258.678234
 20
107.692396
 30
0.0
 10
258.743233
 20
107.575951
 30
0.0
 10
258.794233
 20
107.450193
 30
0.0
 10
258.830233
 20
107.315150
 30
0.0
 10
259.928233
 20
107.451152
 30
0.0
 10
259.863234
 20
107.709753
 30
0.0
 10
259.776234
 20
107.947384
 30
0.0
 10
259.667234
 20
108.163961
 30
0.0
 10
259.537234
 20
108.359541
 30
0.0
 10
259.386234
 20
108.534096
 30
0.0
 10
259.213234
 20
108.687624
 30
0.0
 10
259.018233
 20
108.820128
 30
0.0
 10
258.803233
 20
108.933694
 30
0.0
 10
258.567233
 20
109.029762
 30
0.0
 10
258.310233
 20
109.108390
 30
0.0
 10
258.034234
 20
109.169519
 30
0.0
 10
257.736233
 20
109.213207
 30
0.0
 10
257.418233
 20
109.239454
 30
0.0
 10
257.080233
 20
109.248146
 30
0.0
 10
256.700234
 20
109.237422
 30
0.0
 10
256.347234
 20
109.205446
 30
0.0
 10
256.021233
 20
109.152078
 30
0.0
 10
255.722233
 20
109.077373
 30
0.0
 10
255.450233
 20
108.981305
 30
0.0
 10
255.204234
 20
108.863900
 30
0.0
 10
254.985232
 20
108.725132
 30
0.0
 10
254.795234
 20
108.565987
 30
0.0
 10
254.633233
 20
108.387425
 30
0.0
 10
254.501232
 20
108.189418
 30
0.0
 10
254.399234
 20
107.971994
 30
0.0
 10
254.326235
 20
107.735153
 30
0.0
 10
254.282234
 20
107.478867
 30
0.0
 10
254.267248
 20
107.203136
 30
0.0
 10
254.272229
 20
107.052288
 30
0.0
 10
254.288236
 20
106.908354
 30
0.0
 10
254.313238
 20
106.771307
 30
0.0
 10
254.349233
 20
106.641175
 30
0.0
 10
254.396234
 20
106.517928
 30
0.0
 10
254.452233
 20
106.401596
 30
0.0
 10
254.519232
 20
106.292122
 30
0.0
 10
254.595232
 20
106.188406
 30
0.0
 10
254.679233
 20
106.089204
 30
0.0
 10
254.771234
 20
105.994519
 30
0.0
 10
254.871234
 20
105.904377
 30
0.0
 10
254.979232
 20
105.818779
 30
0.0
 10
255.095234
 20
105.737697
 30
0.0
 10
255.218235
 20
105.661130
 30
0.0
 10
255.358234
 20
105.586651
 30
0.0
 10
255.523232
 20
105.511750
 30
0.0
 10
255.713233
 20
105.436453
 30
0.0
 10
255.928233
 20
105.360732
 30
0.0
 10
256.168234
 20
105.284617
 30
0.0
 10
256.432233
 20
105.208078
 30
0.0
 10
257.602234
 20
104.901134
 30
0.0
 10
257.786234
 20
104.849205
 30
0.0
 10
257.954232
 20
104.793381
 30
0.0
 10
258.108233
 20
104.733691
 30
0.0
 10
258.246234
 20
104.670135
 30
0.0
 10
258.369235
 20
104.602655
 30
0.0
 10
258.478234
 20
104.531338
 30
0.0
 10
258.571232
 20
104.456126
 30
0.0
 10
258.651234
 20
104.375692
 30
0.0
 10
258.718233
 20
104.288627
 30
0.0
 10
258.773233
 20
104.194957
 30
0.0
 10
258.816232
 20
104.094655
 30
0.0
 10
258.847234
 20
103.987778
 30
0.0
 10
258.865240
 20
103.874240
 30
0.0
 10
258.871246
 20
103.754126
 30
0.0
 10
258.862232
 20
103.598734
 30
0.0
 10
258.836242
 20
103.454801
 30
0.0
 10
258.791233
 20
103.322326
 30
0.0
 10
258.729234
 20
103.201337
 30
0.0
 10
258.650232
 20
103.091779
 30
0.0
 10
258.552233
 20
102.993735
 30
0.0
 10
258.437233
 20
102.907149
 30
0.0
 10
258.303234
 20
102.832332
 30
0.0
 10
258.148235
 20
102.769001
 30
0.0
 10
257.973235
 20
102.717213
 30
0.0
 10
257.777234
 20
102.676912
 30
0.0
 10
257.561232
 20
102.648154
 30
0.0
 10
257.324233
 20
102.630938
 30
0.0
 10
257.067233
 20
102.625237
 30
0.0
  0
LWPOLYLINE
  5
138
100
AcDbEntity
  8
0
 62
7
100
AcDbPolyline
 90
4
 70
0
 10
257.067233
 20
102.625124
 30
0.0
 10
256.825234
 20
102.630769
 30
0.0
 10
256.599233
 20
102.647674
 30
0.0
 10
256.388235
 20
102.675529
 30
0.0
  0
LWPOLYLINE
  5
139
100
AcDbEntity
  8
0
 62
7
100
AcDbPolyline
 90
27
 70
0
 10
256.388235
 20
102.675642
 30
0.0
 10
256.193234
 20
102.714927
 30
0.0
 10
256.013232
 20
102.765445
 30
0.0
 10
255.849233
 20
102.827167
 30
0.0
 10
255.701233
 20
102.900122
 30
0.0
 10
255.567234
 20
102.985127
 30
0.0
 10
255.447233
 20
103.083002
 30
0.0
 10
255.341233
 20
103.193717
 30
0.0
 10
255.248232
 20
103.317274
 30
0.0
 10
255.169233
 20
103.453700
 30
0.0
 10
255.104234
 20
103.602996
 30
0.0
 10
255.052235
 20
103.765133
 30
0.0
 10
253.974233
 20
103.555131
 30
0.0
 10
254.049234
 20
103.292044
 30
0.0
 10
254.145234
 20
103.049586
 30
0.0
 10
254.263234
 20
102.827788
 30
0.0
 10
254.401233
 20
102.626648
 30
0.0
 10
254.561233
 20
102.446167
 30
0.0
 10
254.743232
 20
102.286316
 30
0.0
 10
254.945233
 20
102.147153
 30
0.0
 10
255.171234
 20
102.027490
 30
0.0
 10
255.423233
 20
101.926257
 30
0.0
 10
255.700234
 20
101.843397
 30
0.0
 10
256.003233
 20
101.778994
 30
0.0
 10
256.332234
 20
101.732963
 30
0.0
 10
256.687233
 20
101.705306
 30
0.0
 10
257.067233
 20
101.696049
 30
0.0
  0
LWPOLYLINE
  5
13a
100
AcDbEntity
  8
0
 62
7
100
AcDbPolyline
 90
2
 70
0
 10
257.067233
 20
101.696162
 30
0.0
 10
257.459234
 20
101.707733
 30
0.0
  0
LWPOLYLINE
  5
13b
100
AcDbEntity
  8
0
 62
7
100
AcDbPolyline
 90
2
 70
0
 10
244.994334
 20
101.702568
 30
0.0
 10
245.213132
 20
101.721759
 30
0.0
  0
LWPOLYLINE
  5
13c
100
AcDbEntity
  8
0
 62
7
100
AcDbPolyline
 90
43
 70
0
 10
245.213132
 20
101.721872
 30
0.0
 10
245.420933
 20
101.754017
 30
0.0
 10
245.617735
 20
101.799003
 30
0.0
 10
245.803634
 20
101.856831
 30
0.0
 10
245.978632
 20
101.927556
 30
0.0
 10
246.142733
 20
102.011150
 30
0.0
 10
246.298534
 20
102.110492
 30
0.0
 10
246.448933
 20
102.227953
 30
0.0
 10
246.593933
 20
102.363532
 30
0.0
 10
246.733534
 20
102.517259
 30
0.0
 10
246.867632
 20
102.689076
 30
0.0
 10
246.996433
 20
102.879068
 30
0.0
 10
247.119634
 20
103.087122
 30
0.0
 10
247.139728
 20
103.087122
 30
0.0
 10
247.187734
 20
101.874582
 30
0.0
 10
247.193745
 20
101.824149
 30
0.0
 10
248.346733
 20
101.824149
 30
0.0
 10
248.335840
 20
101.926257
 30
0.0
 10
248.326633
 20
102.069090
 30
0.0
 10
248.319042
 20
102.252760
 30
0.0
 10
248.313219
 20
102.477212
 30
0.0
 10
248.309028
 20
102.742416
 30
0.0
 10
248.305732
 20
103.395139
 30
0.0
 10
248.305735
 20
109.184138
 30
0.0
 10
247.084734
 20
109.184138
 30
0.0
 10
247.084734
 20
104.923147
 30
0.0
 10
247.074236
 20
104.625854
 30
0.0
 10
247.042934
 20
104.347696
 30
0.0
 10
246.990833
 20
104.088700
 30
0.0
 10
246.917834
 20
103.848840
 30
0.0
 10
246.823933
 20
103.628142
 30
0.0
 10
246.709235
 20
103.426551
 30
0.0
 10
246.573734
 20
103.244150
 30
0.0
 10
246.420033
 20
103.083622
 30
0.0
 10
246.251033
 20
102.947817
 30
0.0
 10
246.066835
 20
102.836678
 30
0.0
 10
245.867233
 20
102.750262
 30
0.0
 10
245.652332
 20
102.688511
 30
0.0
 10
245.422132
 20
102.651484
 30
0.0
 10
245.176734
 20
102.639066
 30
0.0
 10
245.009535
 20
102.642791
 30
0.0
 10
244.854233
 20
102.653459
 30
0.0
 10
244.710833
 20
102.671578
 30
0.0
  0
LWPOLYLINE
  5
13d
100
AcDbEntity
  8
0
 62
7
100
AcDbPolyline
 90
36
 70
0
 10
244.710833
 20
102.671465
 30
0.0
 10
244.579434
 20
102.696583
 30
0.0
 10
244.459935
 20
102.728926
 30
0.0
 10
244.352332
 20
102.768465
 30
0.0
 10
244.256732
 20
102.815144
 30
0.0
 10
244.170733
 20
102.870291
 30
0.0
 10
244.091734
 20
102.934581
 30
0.0
 10
244.019634
 20
103.007987
 30
0.0
 10
243.954534
 20
103.090565
 30
0.0
 10
243.896233
 20
103.182287
 30
0.0
 10
243.845032
 20
103.283154
 30
0.0
 10
243.800633
 20
103.393136
 30
0.0
 10
243.762733
 20
103.514378
 30
0.0
 10
243.730633
 20
103.648970
 30
0.0
 10
243.704330
 20
103.796911
 30
0.0
 10
243.683928
 20
103.958201
 30
0.0
 10
243.669343
 20
104.132840
 30
0.0
 10
243.660642
 20
104.320800
 30
0.0
 10
243.657727
 20
104.522137
 30
0.0
 10
243.657732
 20
109.184138
 30
0.0
 10
242.430735
 20
109.184138
 30
0.0
 10
242.430735
 20
104.285155
 30
0.0
 10
242.442136
 20
103.905143
 30
0.0
 10
242.476432
 20
103.557135
 30
0.0
 10
242.533734
 20
103.241131
 30
0.0
 10
242.613835
 20
102.957130
 30
0.0
 10
242.716933
 20
102.705134
 30
0.0
 10
242.842833
 20
102.485142
 30
0.0
 10
242.991733
 20
102.297126
 30
0.0
 10
243.165534
 20
102.137698
 30
0.0
 10
243.365833
 20
102.002768
 30
0.0
 10
243.592632
 20
101.892391
 30
0.0
 10
243.845932
 20
101.806539
 30
0.0
 10
244.125634
 20
101.745212
 30
0.0
 10
244.431933
 20
101.708410
 30
0.0
 10
244.764732
 20
101.696274
 30
0.0
  0
LWPOLYLINE
  5
13e
100
AcDbEntity
  8
0
 62
7
100
AcDbPolyline
 90
2
 70
0
 10
244.764732
 20
101.696162
 30
0.0
 10
244.994334
 20
101.702653
 30
0.0
  0
LWPOLYLINE
  5
13f
100
AcDbEntity
  8
0
 62
7
100
AcDbPolyline
 90
51
 70
0
 10
159.086025
 20
100.437196
 30
0.0
 10
159.289536
 20
100.476002
 30
0.0
 10
159.486634
 20
100.540038
 30
0.0
 10
159.674134
 20
100.628261
 30
0.0
 10
159.849035
 20
100.739287
 30
0.0
 10
160.008734
 20
100.871367
 30
0.0
 10
160.150533
 20
101.022412
 30
0.0
 10
160.272335
 20
101.190052
 30
0.0
 10
160.372233
 20
101.371634
 30
0.0
 10
160.448433
 20
101.564279
 30
0.0
 10
160.500035
 20
101.764996
 30
0.0
 10
160.525943
 20
101.970566
 30
0.0
 10
160.525934
 20
102.177774
 30
0.0
 10
160.500026
 20
102.383344
 30
0.0
 10
160.448433
 20
102.584033
 30
0.0
 10
160.372233
 20
102.776706
 30
0.0
 10
160.272335
 20
102.958288
 30
0.0
 10
160.150533
 20
103.125928
 30
0.0
 10
160.008734
 20
103.276973
 30
0.0
 10
159.849035
 20
103.409053
 30
0.0
 10
159.674134
 20
103.520079
 30
0.0
 10
159.486634
 20
103.608302
 30
0.0
 10
159.289536
 20
103.672338
 30
0.0
 10
159.086025
 20
103.711144
 30
0.0
 10
158.879215
 20
103.724126
 30
0.0
 10
158.672434
 20
103.711200
 30
0.0
 10
158.468895
 20
103.672338
 30
0.0
 10
158.271825
 20
103.608302
 30
0.0
 10
158.084325
 20
103.520079
 30
0.0
 10
157.909384
 20
103.409053
 30
0.0
 10
157.749714
 20
103.276973
 30
0.0
 10
157.607883
 20
103.125928
 30
0.0
 10
157.486093
 20
102.958288
 30
0.0
 10
157.386266
 20
102.776706
 30
0.0
 10
157.309995
 20
102.584033
 30
0.0
 10
157.258444
 20
102.383344
 30
0.0
 10
157.232480
 20
102.177774
 30
0.0
 10
157.232474
 20
101.970566
 30
0.0
 10
157.258439
 20
101.764996
 30
0.0
 10
157.309995
 20
101.564279
 30
0.0
 10
157.386266
 20
101.371634
 30
0.0
 10
157.486093
 20
101.190052
 30
0.0
 10
157.607883
 20
101.022412
 30
0.0
 10
157.749714
 20
100.871367
 30
0.0
 10
157.909384
 20
100.739287
 30
0.0
 10
158.084325
 20
100.628261
 30
0.0
 10
158.271825
 20
100.540038
 30
0.0
 10
158.468895
 20
100.476002
 30
0.0
 10
158.672434
 20
100.437196
 30
0.0
 10
158.879215
 20
100.424214
 30
0.0
 10
159.086025
 20
100.437140
 30
0.0
  0
LWPOLYLINE
  5
140
100
AcDbEntity
  8
0
 62
7
100
AcDbPolyline
 90
51
 70
0
 10
179.586032
 20
100.437168
 30
0.0
 10
179.789534
 20
100.475974
 30
0.0
 10
179.986632
 20
100.540010
 30
0.0
 10
180.174132
 20
100.628261
 30
0.0
 10
180.349034
 20
100.739287
 30
0.0
 10
180.508735
 20
100.871367
 30
0.0
 10
180.650535
 20
101.022412
 30
0.0
 10
180.772333
 20
101.190024
 30
0.0
 10
180.872133
 20
101.371606
 30
0.0
 10
180.948434
 20
101.564279
 30
0.0
 10
181.000033
 20
101.764967
 30
0.0
 10
181.025941
 20
101.970566
 30
0.0
 10
181.025933
 20
102.177746
 30
0.0
 10
181.000025
 20
102.383344
 30
0.0
 10
180.948434
 20
102.584033
 30
0.0
 10
180.872133
 20
102.776706
 30
0.0
 10
180.772333
 20
102.958259
 30
0.0
 10
180.650535
 20
103.125899
 30
0.0
 10
180.508735
 20
103.276945
 30
0.0
 10
180.349034
 20
103.409025
 30
0.0
 10
180.174132
 20
103.520051
 30
0.0
 10
179.986632
 20
103.608274
 30
0.0
 10
179.789534
 20
103.672310
 30
0.0
 10
179.586032
 20
103.711144
 30
0.0
 10
179.379234
 20
103.724126
 30
0.0
 10
179.172433
 20
103.711172
 30
0.0
 10
178.968835
 20
103.672310
 30
0.0
 10
178.771835
 20
103.608274
 30
0.0
 10
178.584335
 20
103.520051
 30
0.0
 10
178.409335
 20
103.409025
 30
0.0
 10
178.249732
 20
103.276945
 30
0.0
 10
178.107834
 20
103.125899
 30
0.0
 10
177.986032
 20
102.958259
 30
0.0
 10
177.886233
 20
102.776706
 30
0.0
 10
177.809934
 20
102.584033
 30
0.0
 10
177.758434
 20
102.383344
 30
0.0
 10
177.732442
 20
102.177746
 30
0.0
 10
177.732433
 20
101.970566
 30
0.0
 10
177.758426
 20
101.764967
 30
0.0
 10
177.809934
 20
101.564279
 30
0.0
 10
177.886233
 20
101.371606
 30
0.0
 10
177.986032
 20
101.190024
 30
0.0
 10
178.107834
 20
101.022412
 30
0.0
 10
178.249732
 20
100.871367
 30
0.0
 10
178.409335
 20
100.739287
 30
0.0
 10
178.584335
 20
100.628261
 30
0.0
 10
178.771835
 20
100.540010
 30
0.0
 10
178.968835
 20
100.475974
 30
0.0
 10
179.172433
 20
100.437168
 30
0.0
 10
179.379234
 20
100.424186
 30
0.0
 10
179.586032
 20
100.437140
 30
0.0
  0
LWPOLYLINE
  5
141
100
AcDbEntity
  8
0
 62
7
100
AcDbPolyline
 90
51
 70
0
 10
276.253234
 20
85.930438
 30
0.0
 10
276.983232
 20
86.117834
 30
0.0
 10
277.684233
 20
86.395145
 30
0.0
 10
278.344235
 20
86.758139
 30
0.0
 10
278.954233
 20
87.201031
 30
0.0
 10
279.503234
 20
87.716848
 30
0.0
 10
279.983235
 20
88.297436
 30
0.0
 10
280.387233
 20
88.933649
 30
0.0
 10
280.708233
 20
89.615442
 30
0.0
 10
280.940233
 20
90.332032
 30
0.0
 10
281.082234
 20
91.072132
 30
0.0
 10
281.129235
 20
91.824141
 30
0.0
 10
281.082234
 20
92.576150
 30
0.0
 10
280.940233
 20
93.316250
 30
0.0
 10
280.708233
 20
94.032897
 30
0.0
 10
280.387233
 20
94.714661
 30
0.0
 10
279.983235
 20
95.350875
 30
0.0
 10
279.503234
 20
95.931434
 30
0.0
 10
278.954233
 20
96.447223
 30
0.0
 10
278.344235
 20
96.890115
 30
0.0
 10
277.684233
 20
97.253109
 30
0.0
 10
276.983232
 20
97.530477
 30
0.0
 10
276.253234
 20
97.717872
 30
0.0
 10
275.506234
 20
97.812304
 30
0.0
 10
274.752235
 20
97.812304
 30
0.0
 10
274.005235
 20
97.717872
 30
0.0
 10
273.275233
 20
97.530477
 30
0.0
 10
272.574233
 20
97.253109
 30
0.0
 10
271.914233
 20
96.890115
 30
0.0
 10
271.304233
 20
96.447223
 30
0.0
 10
270.755234
 20
95.931434
 30
0.0
 10
270.275233
 20
95.350875
 30
0.0
 10
269.871232
 20
94.714661
 30
0.0
 10
269.550233
 20
94.032897
 30
0.0
 10
269.318232
 20
93.316250
 30
0.0
 10
269.176235
 20
92.576150
 30
0.0
 10
269.129233
 20
91.824141
 30
0.0
 10
269.176235
 20
91.072132
 30
0.0
 10
269.318232
 20
90.332032
 30
0.0
 10
269.550233
 20
89.615442
 30
0.0
 10
269.871232
 20
88.933649
 30
0.0
 10
270.275233
 20
88.297436
 30
0.0
 10
270.755234
 20
87.716848
 30
0.0
 10
271.304233
 20
87.201031
 30
0.0
 10
271.914233
 20
86.758139
 30
0.0
 10
272.574233
 20
86.395145
 30
0.0
 10
273.275233
 20
86.117834
 30
0.0
 10
274.005235
 20
85.930438
 30
0.0
 10
274.752235
 20
85.835950
 30
0.0
 10
275.506234
 20
85.835950
 30
0.0
 10
276.253234
 20
85.930438
 30
0.0
  0
LWPOLYLINE
  5
142
100
AcDbEntity
  8
0
 62
7
100
AcDbPolyline
 90
54
 70
0
 10
228.626732
 20
91.160157
 30
0.0
 10
228.637344
 20
91.441137
 30
0.0
 10
228.669235
 20
91.705156
 30
0.0
 10
228.722434
 20
91.952242
 30
0.0
 10
228.796833
 20
92.182338
 30
0.0
 10
228.892535
 20
92.395556
 30
0.0
 10
229.009533
 20
92.591842
 30
0.0
 10
229.147734
 20
92.771138
 30
0.0
 10
229.303634
 20
92.929831
 30
0.0
 10
229.473633
 20
93.064056
 30
0.0
 10
229.657732
 20
93.173841
 30
0.0
 10
229.855832
 20
93.259354
 30
0.0
 10
230.068033
 20
93.320342
 30
0.0
 10
230.294332
 20
93.356946
 30
0.0
 10
230.534732
 20
93.369082
 30
0.0
 10
230.695034
 20
93.365470
 30
0.0
 10
230.845033
 20
93.354548
 30
0.0
 10
230.984733
 20
93.336570
 30
0.0
 10
231.114134
 20
93.311255
 30
0.0
 10
231.233334
 20
93.278856
 30
0.0
 10
231.342235
 20
93.239034
 30
0.0
 10
231.440733
 20
93.192157
 30
0.0
 10
231.530435
 20
93.137744
 30
0.0
 10
231.612635
 20
93.075035
 30
0.0
 10
231.687235
 20
93.004140
 30
0.0
 10
231.754434
 20
92.925034
 30
0.0
 10
231.814034
 20
92.837658
 30
0.0
 10
231.866132
 20
92.742041
 30
0.0
 10
231.910735
 20
92.638155
 30
0.0
 10
231.948733
 20
92.522331
 30
0.0
 10
231.980833
 20
92.390251
 30
0.0
 10
232.007023
 20
92.241830
 30
0.0
 10
232.027524
 20
92.077351
 30
0.0
 10
232.042039
 20
91.896531
 30
0.0
 10
232.050838
 20
91.699455
 30
0.0
 10
232.053740
 20
91.486152
 30
0.0
 10
232.053734
 20
86.824151
 30
0.0
 10
233.280735
 20
86.824151
 30
0.0
 10
233.280735
 20
91.723134
 30
0.0
 10
233.269135
 20
92.106646
 30
0.0
 10
233.234334
 20
92.457335
 30
0.0
 10
233.176434
 20
92.775145
 30
0.0
 10
233.095233
 20
93.059936
 30
0.0
 10
232.990935
 20
93.311932
 30
0.0
 10
232.863432
 20
93.530936
 30
0.0
 10
232.712734
 20
93.717147
 30
0.0
 10
232.537635
 20
93.874994
 30
0.0
 10
232.336732
 20
94.008569
 30
0.0
 10
232.110133
 20
94.117846
 30
0.0
 10
231.857934
 20
94.202851
 30
0.0
 10
231.579934
 20
94.263557
 30
0.0
 10
231.276133
 20
94.299992
 30
0.0
 10
230.946734
 20
94.312128
 30
0.0
 10
230.709933
 20
94.305354
 30
0.0
  0
LWPOLYLINE
  5
143
100
AcDbEntity
  8
0
 62
7
100
AcDbPolyline
 90
23
 70
0
 10
230.709933
 20
94.305241
 30
0.0
 10
230.485134
 20
94.284639
 30
0.0
 10
230.272333
 20
94.250236
 30
0.0
 10
230.071634
 20
94.202089
 30
0.0
 10
229.882934
 20
94.140198
 30
0.0
 10
229.706334
 20
94.064534
 30
0.0
 10
229.541733
 20
93.975126
 30
0.0
 10
229.386734
 20
93.871296
 30
0.0
 10
229.238133
 20
93.751747
 30
0.0
 10
229.096133
 20
93.616647
 30
0.0
 10
228.960533
 20
93.465743
 30
0.0
 10
228.831434
 20
93.299232
 30
0.0
 10
228.708833
 20
93.117058
 30
0.0
 10
228.592733
 20
92.919135
 30
0.0
 10
228.571735
 20
92.919135
 30
0.0
 10
228.602735
 20
93.424144
 30
0.0
 10
228.618934
 20
93.794645
 30
0.0
 10
228.626244
 20
94.155156
 30
0.0
 10
228.626797
 20
96.872137
 30
0.0
 10
227.405734
 20
96.872137
 30
0.0
 10
227.405734
 20
86.824151
 30
0.0
 10
228.626732
 20
86.824151
 30
0.0
 10
228.626732
 20
91.160157
 30
0.0
  0
LWPOLYLINE
  5
144
100
AcDbEntity
  8
0
 62
7
100
AcDbPolyline
 90
12
 70
0
 10
221.119234
 20
88.997149
 30
0.0
 10
222.462234
 20
88.997149
 30
0.0
 10
222.462234
 20
89.960148
 30
0.0
 10
221.119234
 20
89.960148
 30
0.0
 10
221.119234
 20
96.360158
 30
0.0
 10
219.834234
 20
96.360158
 30
0.0
 10
215.449235
 20
89.943130
 30
0.0
 10
215.449235
 20
88.997149
 30
0.0
 10
219.966232
 20
88.997149
 30
0.0
 10
219.966232
 20
86.824151
 30
0.0
 10
221.119234
 20
86.824151
 30
0.0
 10
221.119234
 20
88.997149
 30
0.0
  0
LWPOLYLINE
  5
145
100
AcDbEntity
  8
0
 62
7
100
AcDbPolyline
 90
8
 70
0
 10
216.574235
 20
89.960148
 30
0.0
 10
216.683234
 20
90.095135
 30
0.0
 10
217.051232
 20
90.594132
 30
0.0
 10
219.537235
 20
94.221562
 30
0.0
 10
219.639834
 20
94.389146
 30
0.0
 10
219.897034
 20
94.846967
 30
0.0
 10
219.958934
 20
94.966065
 30
0.0
 10
219.966244
 20
94.983280
 30
0.0
  0
LWPOLYLINE
  5
146
100
AcDbEntity
  8
0
 62
7
100
AcDbPolyline
 90
3
 70
0
 10
219.966232
 20
94.983139
 30
0.0
 10
219.966232
 20
89.960148
 30
0.0
 10
216.574235
 20
89.960148
 30
0.0
  0
LWPOLYLINE
  5
147
100
AcDbEntity
  8
0
 62
7
100
AcDbPolyline
 90
15
 70
0
 10
251.249234
 20
90.658140
 30
0.0
 10
251.258237
 20
90.995932
 30
0.0
 10
251.282223
 20
91.310751
 30
0.0
 10
251.323232
 20
91.602230
 30
0.0
 10
251.379234
 20
91.870736
 30
0.0
 10
251.452233
 20
92.116044
 30
0.0
 10
251.542234
 20
92.338152
 30
0.0
 10
251.647235
 20
92.537147
 30
0.0
 10
251.768235
 20
92.711137
 30
0.0
 10
251.904235
 20
92.858457
 30
0.0
 10
252.054233
 20
92.978938
 30
0.0
 10
252.219234
 20
93.072636
 30
0.0
 10
252.398234
 20
93.139551
 30
0.0
 10
252.592233
 20
93.179739
 30
0.0
 10
252.800234
 20
93.193286
 30
0.0
  0
LWPOLYLINE
  5
148
100
AcDbEntity
  8
0
 62
7
100
AcDbPolyline
 90
2
 70
0
 10
252.800234
 20
93.193145
 30
0.0
 10
252.913233
 20
93.190322
 30
0.0
  0
LWPOLYLINE
  5
149
100
AcDbEntity
  8
0
 62
7
100
AcDbPolyline
 90
3
 70
0
 10
252.913233
 20
93.191734
 30
0.0
 10
253.018234
 20
93.187500
 30
0.0
 10
253.117234
 20
93.180783
 30
0.0
  0
LWPOLYLINE
  5
14a
100
AcDbEntity
  8
0
 62
7
100
AcDbPolyline
 90
2
 70
0
 10
253.117234
 20
93.180642
 30
0.0
 10
253.210235
 20
93.171047
 30
0.0
  0
LWPOLYLINE
  5
14b
100
AcDbEntity
  8
0
 62
7
100
AcDbPolyline
 90
9
 70
0
 10
253.210235
 20
93.170934
 30
0.0
 10
253.295235
 20
93.158516
 30
0.0
 10
253.375233
 20
93.143191
 30
0.0
 10
253.447234
 20
93.125073
 30
0.0
 10
253.447234
 20
94.244140
 30
0.0
 10
253.376232
 20
94.262202
 30
0.0
 10
253.305234
 20
94.277414
 30
0.0
 10
253.235234
 20
94.289860
 30
0.0
 10
253.164233
 20
94.299540
 30
0.0
  0
LWPOLYLINE
  5
14c
100
AcDbEntity
  8
0
 62
7
100
AcDbPolyline
 90
2
 70
0
 10
253.164233
 20
94.299653
 30
0.0
 10
253.094233
 20
94.306709
 30
0.0
  0
LWPOLYLINE
  5
14d
100
AcDbEntity
  8
0
 62
7
100
AcDbPolyline
 90
3
 70
0
 10
253.094233
 20
94.306596
 30
0.0
 10
253.025233
 20
94.310829
 30
0.0
 10
252.955233
 20
94.310745
 30
0.0
  0
LWPOLYLINE
  5
14e
100
AcDbEntity
  8
0
 62
7
100
AcDbPolyline
 90
26
 70
0
 10
252.955233
 20
94.312128
 30
0.0
 10
252.765233
 20
94.305072
 30
0.0
 10
252.588234
 20
94.283905
 30
0.0
 10
252.423233
 20
94.248571
 30
0.0
 10
252.270235
 20
94.199154
 30
0.0
 10
252.131235
 20
94.135598
 30
0.0
 10
252.004235
 20
94.057930
 30
0.0
 10
251.889235
 20
93.966151
 30
0.0
 10
251.783235
 20
93.855125
 30
0.0
 10
251.681234
 20
93.719743
 30
0.0
 10
251.582233
 20
93.560034
 30
0.0
 10
251.486233
 20
93.376138
 30
0.0
 10
251.394234
 20
93.167745
 30
0.0
 10
251.306234
 20
92.935137
 30
0.0
 10
251.221234
 20
92.678146
 30
0.0
 10
251.194226
 20
92.678146
 30
0.0
 10
251.190227
 20
92.903952
 30
0.0
 10
251.167231
 20
93.549337
 30
0.0
 10
251.140225
 20
94.184140
 30
0.0
 10
249.987235
 20
94.184140
 30
0.0
 10
250.008232
 20
93.660956
 30
0.0
 10
250.021245
 20
93.164556
 30
0.0
 10
250.028233
 20
92.694938
 30
0.0
 10
250.028233
 20
86.824151
 30
0.0
 10
251.249234
 20
86.824151
 30
0.0
 10
251.249234
 20
90.658140
 30
0.0
  0
LWPOLYLINE
  5
14f
100
AcDbEntity
  8
0
 62
7
100
AcDbPolyline
 90
50
 70
0
 10
238.271335
 20
86.715439
 30
0.0
 10
238.686634
 20
86.773154
 30
0.0
 10
239.070535
 20
86.869335
 30
0.0
 10
239.423135
 20
87.004040
 30
0.0
 10
239.744335
 20
87.177239
 30
0.0
 10
240.034233
 20
87.388934
 30
0.0
 10
240.292735
 20
87.639152
 30
0.0
 10
240.518233
 20
87.928938
 30
0.0
 10
240.709032
 20
88.258941
 30
0.0
 10
240.865135
 20
88.629047
 30
0.0
 10
240.986635
 20
89.039257
 30
0.0
 10
241.073333
 20
89.489740
 30
0.0
 10
241.125333
 20
89.980355
 30
0.0
 10
241.142746
 20
90.511130
 30
0.0
 10
241.126422
 20
91.046845
 30
0.0
 10
241.077733
 20
91.540846
 30
0.0
 10
240.996532
 20
91.993136
 30
0.0
 10
240.882833
 20
92.403741
 30
0.0
 10
240.736634
 20
92.772549
 30
0.0
 10
240.557933
 20
93.099757
 30
0.0
 10
240.346732
 20
93.385140
 30
0.0
 10
240.101433
 20
93.631041
 30
0.0
 10
239.819733
 20
93.839180
 30
0.0
 10
239.501635
 20
94.009444
 30
0.0
 10
239.147234
 20
94.141863
 30
0.0
 10
238.756433
 20
94.236464
 30
0.0
 10
238.329233
 20
94.293219
 30
0.0
 10
237.865734
 20
94.312128
 30
0.0
 10
236.991034
 20
94.234573
 30
0.0
 10
236.250833
 20
94.001852
 30
0.0
 10
235.645333
 20
93.614051
 30
0.0
 10
235.174333
 20
93.071055
 30
0.0
 10
234.837834
 20
92.372838
 30
0.0
 10
234.636033
 20
91.519539
 30
0.0
 10
234.568735
 20
90.511130
 30
0.0
 10
234.585527
 20
89.999546
 30
0.0
 10
234.635833
 20
89.523437
 30
0.0
 10
234.719732
 20
89.083058
 30
0.0
 10
234.837134
 20
88.678154
 30
0.0
 10
234.988134
 20
88.308838
 30
0.0
 10
235.172634
 20
87.975251
 30
0.0
 10
235.390732
 20
87.677140
 30
0.0
 10
235.641933
 20
87.416846
 30
0.0
 10
235.925335
 20
87.196656
 30
0.0
 10
236.240834
 20
87.016457
 30
0.0
 10
236.588633
 20
86.876334
 30
0.0
 10
236.968434
 20
86.776230
 30
0.0
 10
237.380534
 20
86.716145
 30
0.0
 10
237.824732
 20
86.696107
 30
0.0
 10
238.271335
 20
86.715326
 30
0.0
  0
LWPOLYLINE
  5
150
100
AcDbEntity
  8
0
 62
7
100
AcDbPolyline
 90
57
 70
0
 10
237.532734
 20
87.613047
 30
0.0
 10
237.275934
 20
87.657751
 30
0.0
 10
237.041233
 20
87.732258
 30
0.0
 10
236.828734
 20
87.836539
 30
0.0
 10
236.638234
 20
87.970538
 30
0.0
 10
236.469933
 20
88.134452
 30
0.0
 10
236.323734
 20
88.328142
 30
0.0
 10
236.198232
 20
88.551436
 30
0.0
 10
236.092035
 20
88.804250
 30
0.0
 10
236.005133
 20
89.086642
 30
0.0
 10
235.937634
 20
89.398554
 30
0.0
 10
235.889334
 20
89.739845
 30
0.0
 10
235.860333
 20
90.110742
 30
0.0
 10
235.850738
 20
90.511130
 30
0.0
 10
235.860528
 20
90.921848
 30
0.0
 10
235.889933
 20
91.300252
 30
0.0
 10
235.938833
 20
91.646256
 30
0.0
 10
236.007433
 20
91.959946
 30
0.0
 10
236.095633
 20
92.241350
 30
0.0
 10
236.203335
 20
92.490440
 30
0.0
 10
236.330733
 20
92.707130
 30
0.0
 10
236.480034
 20
92.893650
 30
0.0
 10
236.653634
 20
93.051441
 30
0.0
 10
236.851633
 20
93.180558
 30
0.0
 10
237.073934
 20
93.281057
 30
0.0
 10
237.320534
 20
93.352741
 30
0.0
 10
237.591433
 20
93.395752
 30
0.0
 10
237.886734
 20
93.410145
 30
0.0
 10
238.179534
 20
93.396034
 30
0.0
 10
238.447233
 20
93.353955
 30
0.0
 10
238.689634
 20
93.283540
 30
0.0
 10
238.906933
 20
93.185158
 30
0.0
 10
239.099034
 20
93.058638
 30
0.0
 10
239.265934
 20
92.903952
 30
0.0
 10
239.407734
 20
92.721156
 30
0.0
 10
239.527932
 20
92.507345
 30
0.0
 10
239.629634
 20
92.259554
 30
0.0
 10
239.712833
 20
91.977755
 30
0.0
 10
239.777532
 20
91.662033
 30
0.0
 10
239.823735
 20
91.312331
 30
0.0
 10
239.851421
 20
90.928735
 30
0.0
 10
239.860746
 20
90.511130
 30
0.0
 10
239.851026
 20
90.098550
 30
0.0
 10
239.822135
 20
89.718340
 30
0.0
 10
239.773833
 20
89.370558
 30
0.0
 10
239.706235
 20
89.055344
 30
0.0
 10
239.619434
 20
88.772444
 30
0.0
 10
239.513234
 20
88.522056
 30
0.0
 10
239.387733
 20
88.304153
 30
0.0
 10
239.239733
 20
88.116842
 30
0.0
 10
239.066033
 20
87.958346
 30
0.0
 10
238.866533
 20
87.828636
 30
0.0
 10
238.641433
 20
87.727855
 30
0.0
 10
238.390534
 20
87.655747
 30
0.0
 10
238.114033
 20
87.612539
 30
0.0
 10
237.811733
 20
87.598146
 30
0.0
 10
237.532734
 20
87.613103
 30
0.0
  0
LWPOLYLINE
  5
151
100
AcDbEntity
  8
0
 62
7
100
AcDbPolyline
 90
171
 70
0
 10
257.459234
 20
86.707537
 30
0.0
 10
257.825234
 20
86.741855
 30
0.0
 10
258.166235
 20
86.799033
 30
0.0
 10
258.481235
 20
86.879043
 30
0.0
 10
258.770233
 20
86.981857
 30
0.0
 10
259.033233
 20
87.107530
 30
0.0
 10
259.271234
 20
87.256149
 30
0.0
 10
259.480233
 20
87.425736
 30
0.0
 10
259.656233
 20
87.614740
 30
0.0
 10
259.801233
 20
87.823048
 30
0.0
 10
259.913233
 20
88.050548
 30
0.0
 10
259.994233
 20
88.297436
 30
0.0
 10
260.042234
 20
88.563656
 30
0.0
 10
260.058236
 20
88.849152
 30
0.0
 10
260.055241
 20
88.966952
 30
0.0
 10
260.047246
 20
89.081054
 30
0.0
 10
260.033234
 20
89.191346
 30
0.0
 10
260.013224
 20
89.297942
 30
0.0
 10
259.988228
 20
89.400755
 30
0.0
 10
259.957234
 20
89.499844
 30
0.0
 10
259.921234
 20
89.595150
 30
0.0
 10
259.880233
 20
89.687042
 30
0.0
 10
259.834233
 20
89.775744
 30
0.0
 10
259.784235
 20
89.861257
 30
0.0
 10
259.729232
 20
89.943751
 30
0.0
 10
259.669232
 20
90.023055
 30
0.0
 10
259.605232
 20
90.099142
 30
0.0
 10
259.536235
 20
90.172153
 30
0.0
 10
259.461234
 20
90.242652
 30
0.0
 10
259.379235
 20
90.311345
 30
0.0
 10
259.289234
 20
90.378147
 30
0.0
 10
259.192234
 20
90.443143
 30
0.0
 10
259.088232
 20
90.506333
 30
0.0
 10
258.976233
 20
90.567631
 30
0.0
 10
258.857234
 20
90.627152
 30
0.0
 10
258.723234
 20
90.686757
 30
0.0
 10
258.567233
 20
90.747830
 30
0.0
 10
258.389233
 20
90.810540
 30
0.0
 10
258.188234
 20
90.874633
 30
0.0
 10
257.965234
 20
90.940249
 30
0.0
 10
257.720234
 20
91.007446
 30
0.0
 10
257.452233
 20
91.076139
 30
0.0
 10
257.172234
 20
91.145340
 30
0.0
 10
256.922233
 20
91.210138
 30
0.0
 10
256.700234
 20
91.270534
 30
0.0
 10
256.507234
 20
91.326555
 30
0.0
 10
256.343235
 20
91.378145
 30
0.0
 10
256.208234
 20
91.425333
 30
0.0
 10
256.102234
 20
91.468146
 30
0.0
 10
256.014234
 20
91.509943
 30
0.0
 10
255.931233
 20
91.554139
 30
0.0
 10
255.856232
 20
91.600847
 30
0.0
 10
255.786232
 20
91.650038
 30
0.0
 10
255.724234
 20
91.701657
 30
0.0
 10
255.667233
 20
91.755646
 30
0.0
 10
255.617232
 20
91.812147
 30
0.0
 10
255.574233
 20
91.872345
 30
0.0
 10
255.537233
 20
91.936832
 30
0.0
 10
255.507233
 20
92.005751
 30
0.0
 10
255.484232
 20
92.079044
 30
0.0
 10
255.467245
 20
92.156740
 30
0.0
 10
255.457243
 20
92.238754
 30
0.0
 10
255.454243
 20
92.325142
 30
0.0
 10
255.462222
 20
92.463939
 30
0.0
 10
255.486222
 20
92.592237
 30
0.0
 10
255.527234
 20
92.710150
 30
0.0
 10
255.583233
 20
92.817535
 30
0.0
 10
255.656232
 20
92.914535
 30
0.0
 10
255.745234
 20
93.001036
 30
0.0
 10
255.850235
 20
93.077151
 30
0.0
 10
255.972234
 20
93.143135
 30
0.0
 10
256.112233
 20
93.199156
 30
0.0
 10
256.270232
 20
93.244848
 30
0.0
 10
256.446234
 20
93.280436
 30
0.0
 10
256.640234
 20
93.305836
 30
0.0
 10
256.851235
 20
93.321076
 30
0.0
 10
257.080233
 20
93.326128
 30
0.0
 10
257.289232
 20
93.320794
 30
0.0
 10
257.485233
 20
93.304764
 30
0.0
 10
257.669233
 20
93.278319
 30
0.0
 10
257.840234
 20
93.240953
 30
0.0
 10
257.999233
 20
93.192947
 30
0.0
 10
258.145235
 20
93.134358
 30
0.0
 10
258.279234
 20
93.065157
 30
0.0
 10
258.400234
 20
92.985937
 30
0.0
 10
258.507233
 20
92.897348
 30
0.0
 10
258.600234
 20
92.799558
 30
0.0
 10
258.678234
 20
92.692454
 30
0.0
 10
258.743233
 20
92.575953
 30
0.0
 10
258.794233
 20
92.450251
 30
0.0
 10
258.830233
 20
92.315151
 30
0.0
 10
259.928233
 20
92.451154
 30
0.0
 10
259.863234
 20
92.709754
 30
0.0
 10
259.776234
 20
92.947357
 30
0.0
 10
259.667234
 20
93.163935
 30
0.0
 10
259.537234
 20
93.359543
 30
0.0
 10
259.386234
 20
93.534041
 30
0.0
 10
259.213234
 20
93.687654
 30
0.0
 10
259.018233
 20
93.820158
 30
0.0
 10
258.803233
 20
93.933696
 30
0.0
 10
258.567233
 20
94.029764
 30
0.0
 10
258.310233
 20
94.108391
 30
0.0
 10
258.034234
 20
94.169521
 30
0.0
 10
257.736233
 20
94.213180
 30
0.0
 10
257.418233
 20
94.239427
 30
0.0
 10
257.080233
 20
94.248148
 30
0.0
 10
256.700234
 20
94.237423
 30
0.0
 10
256.347234
 20
94.205448
 30
0.0
 10
256.021233
 20
94.152079
 30
0.0
 10
255.722233
 20
94.077375
 30
0.0
 10
255.450233
 20
93.981307
 30
0.0
 10
255.204234
 20
93.863902
 30
0.0
 10
254.985232
 20
93.725134
 30
0.0
 10
254.795234
 20
93.566045
 30
0.0
 10
254.633233
 20
93.387455
 30
0.0
 10
254.501232
 20
93.189448
 30
0.0
 10
254.399234
 20
92.971939
 30
0.0
 10
254.326235
 20
92.735154
 30
0.0
 10
254.282234
 20
92.478840
 30
0.0
 10
254.267248
 20
92.203137
 30
0.0
 10
254.272229
 20
92.052233
 30
0.0
 10
254.288236
 20
91.908356
 30
0.0
 10
254.313238
 20
91.771337
 30
0.0
 10
254.349233
 20
91.641148
 30
0.0
 10
254.396234
 20
91.517930
 30
0.0
 10
254.452233
 20
91.401542
 30
0.0
 10
254.519232
 20
91.292152
 30
0.0
 10
254.595232
 20
91.188436
 30
0.0
 10
254.679233
 20
91.089234
 30
0.0
 10
254.771234
 20
90.994549
 30
0.0
 10
254.871234
 20
90.904351
 30
0.0
 10
254.979232
 20
90.818753
 30
0.0
 10
255.095234
 20
90.737642
 30
0.0
 10
255.218235
 20
90.661132
 30
0.0
 10
255.358234
 20
90.586653
 30
0.0
 10
255.523232
 20
90.511751
 30
0.0
 10
255.713233
 20
90.436454
 30
0.0
 10
255.928233
 20
90.360734
 30
0.0
 10
256.168234
 20
90.284647
 30
0.0
 10
256.432233
 20
90.208052
 30
0.0
 10
257.602234
 20
89.901135
 30
0.0
 10
257.786234
 20
89.849235
 30
0.0
 10
257.954232
 20
89.793355
 30
0.0
 10
258.108233
 20
89.733636
 30
0.0
 10
258.246234
 20
89.670136
 30
0.0
 10
258.369235
 20
89.602657
 30
0.0
 10
258.478234
 20
89.531340
 30
0.0
 10
258.571232
 20
89.456156
 30
0.0
 10
258.651234
 20
89.375638
 30
0.0
 10
258.718233
 20
89.288657
 30
0.0
 10
258.773233
 20
89.194931
 30
0.0
 10
258.816232
 20
89.094657
 30
0.0
 10
258.847234
 20
88.987751
 30
0.0
 10
258.865240
 20
88.874242
 30
0.0
 10
258.871246
 20
88.754156
 30
0.0
 10
258.862232
 20
88.598736
 30
0.0
 10
258.836242
 20
88.454746
 30
0.0
 10
258.791233
 20
88.322356
 30
0.0
 10
258.729234
 20
88.201339
 30
0.0
 10
258.650232
 20
88.091752
 30
0.0
 10
258.552233
 20
87.993736
 30
0.0
 10
258.437233
 20
87.907151
 30
0.0
 10
258.303234
 20
87.832334
 30
0.0
 10
258.148235
 20
87.769031
 30
0.0
 10
257.973235
 20
87.717243
 30
0.0
 10
257.777234
 20
87.676942
 30
0.0
 10
257.561232
 20
87.648155
 30
0.0
 10
257.324233
 20
87.630940
 30
0.0
 10
257.067233
 20
87.625211
 30
0.0
 10
256.825234
 20
87.630799
 30
0.0
 10
256.599233
 20
87.647393
 30
0.0
  0
LWPOLYLINE
  5
152
100
AcDbEntity
  8
0
 62
7
100
AcDbPolyline
 90
2
 70
0
 10
256.599233
 20
87.647534
 30
0.0
 10
256.388235
 20
87.675757
 30
0.0
  0
LWPOLYLINE
  5
153
100
AcDbEntity
  8
0
 62
7
100
AcDbPolyline
 90
27
 70
0
 10
256.388235
 20
87.675644
 30
0.0
 10
256.193234
 20
87.714957
 30
0.0
 10
256.013232
 20
87.765447
 30
0.0
 10
255.849233
 20
87.827141
 30
0.0
 10
255.701233
 20
87.900152
 30
0.0
 10
255.567234
 20
87.985157
 30
0.0
 10
255.447233
 20
88.083032
 30
0.0
 10
255.341233
 20
88.193747
 30
0.0
 10
255.248232
 20
88.317248
 30
0.0
 10
255.169233
 20
88.453730
 30
0.0
 10
255.104234
 20
88.603054
 30
0.0
 10
255.052235
 20
88.765134
 30
0.0
 10
253.974233
 20
88.555133
 30
0.0
 10
254.049234
 20
88.292045
 30
0.0
 10
254.145234
 20
88.049532
 30
0.0
 10
254.263234
 20
87.827733
 30
0.0
 10
254.401233
 20
87.626650
 30
0.0
 10
254.561233
 20
87.446141
 30
0.0
 10
254.743232
 20
87.286346
 30
0.0
 10
254.945233
 20
87.147154
 30
0.0
 10
255.171234
 20
87.027436
 30
0.0
 10
255.423233
 20
86.926231
 30
0.0
 10
255.700234
 20
86.843455
 30
0.0
 10
256.003233
 20
86.778939
 30
0.0
 10
256.332234
 20
86.732937
 30
0.0
 10
256.687233
 20
86.705279
 30
0.0
 10
257.067233
 20
86.696022
 30
0.0
  0
LWPOLYLINE
  5
154
100
AcDbEntity
  8
0
 62
7
100
AcDbPolyline
 90
2
 70
0
 10
257.067233
 20
86.696135
 30
0.0
 10
257.459234
 20
86.707424
 30
0.0
  0
LWPOLYLINE
  5
155
100
AcDbEntity
  8
0
 62
7
100
AcDbPolyline
 90
2
 70
0
 10
244.994334
 20
86.702542
 30
0.0
 10
245.213132
 20
86.721733
 30
0.0
  0
LWPOLYLINE
  5
156
100
AcDbEntity
  8
0
 62
7
100
AcDbPolyline
 90
40
 70
0
 10
245.213132
 20
86.721846
 30
0.0
 10
245.420933
 20
86.754047
 30
0.0
 10
245.617735
 20
86.799033
 30
0.0
 10
245.803634
 20
86.856832
 30
0.0
 10
245.978632
 20
86.927557
 30
0.0
 10
246.142733
 20
87.011152
 30
0.0
 10
246.298534
 20
87.110437
 30
0.0
 10
246.448933
 20
87.227955
 30
0.0
 10
246.593933
 20
87.363534
 30
0.0
 10
246.733534
 20
87.517232
 30
0.0
 10
246.867632
 20
87.689049
 30
0.0
 10
246.996433
 20
87.879041
 30
0.0
 10
247.119634
 20
88.087152
 30
0.0
 10
247.139728
 20
88.087152
 30
0.0
 10
247.187734
 20
86.874556
 30
0.0
 10
247.193745
 20
86.824151
 30
0.0
 10
248.346733
 20
86.824151
 30
0.0
 10
248.335840
 20
86.926231
 30
0.0
 10
248.326633
 20
87.069148
 30
0.0
 10
248.319042
 20
87.252734
 30
0.0
 10
248.313219
 20
87.477242
 30
0.0
 10
248.309028
 20
87.742446
 30
0.0
 10
248.305732
 20
88.395141
 30
0.0
 10
248.305735
 20
94.184140
 30
0.0
 10
247.084734
 20
94.184140
 30
0.0
 10
247.084734
 20
89.923149
 30
0.0
 10
247.074236
 20
89.625856
 30
0.0
 10
247.042934
 20
89.347754
 30
0.0
 10
246.990833
 20
89.088730
 30
0.0
 10
246.917834
 20
88.848842
 30
0.0
 10
246.823933
 20
88.628144
 30
0.0
 10
246.709235
 20
88.426552
 30
0.0
 10
246.573734
 20
88.244152
 30
0.0
 10
246.420033
 20
88.083652
 30
0.0
 10
246.251033
 20
87.947847
 30
0.0
 10
246.066835
 20
87.836652
 30
0.0
 10
245.867233
 20
87.750235
 30
0.0
 10
245.652332
 20
87.688541
 30
0.0
 10
245.422132
 20
87.651457
 30
0.0
 10
245.176734
 20
87.639040
 30
0.0
  0
LWPOLYLINE
  5
157
100
AcDbEntity
  8
0
 62
7
100
AcDbPolyline
 90
4
 70
0
 10
245.176734
 20
87.639152
 30
0.0
 10
245.009535
 20
87.642821
 30
0.0
 10
244.854233
 20
87.653461
 30
0.0
 10
244.710833
 20
87.671326
 30
0.0
  0
LWPOLYLINE
  5
158
100
AcDbEntity
  8
0
 62
7
100
AcDbPolyline
 90
36
 70
0
 10
244.710833
 20
87.671439
 30
0.0
 10
244.579434
 20
87.696556
 30
0.0
 10
244.459935
 20
87.728956
 30
0.0
 10
244.352332
 20
87.768438
 30
0.0
 10
244.256732
 20
87.815146
 30
0.0
 10
244.170733
 20
87.870236
 30
0.0
 10
244.091734
 20
87.934554
 30
0.0
 10
244.019634
 20
88.008045
 30
0.0
 10
243.954534
 20
88.090539
 30
0.0
 10
243.896233
 20
88.182233
 30
0.0
 10
243.845032
 20
88.283155
 30
0.0
 10
243.800633
 20
88.393137
 30
0.0
 10
243.762733
 20
88.514352
 30
0.0
 10
243.730633
 20
88.648944
 30
0.0
 10
243.704330
 20
88.796941
 30
0.0
 10
243.683928
 20
88.958146
 30
0.0
 10
243.669343
 20
89.132842
 30
0.0
 10
243.660642
 20
89.320830
 30
0.0
 10
243.657727
 20
89.522139
 30
0.0
 10
243.657732
 20
94.184140
 30
0.0
 10
242.430735
 20
94.184140
 30
0.0
 10
242.430735
 20
89.285157
 30
0.0
 10
242.442136
 20
88.905145
 30
0.0
 10
242.476432
 20
88.557137
 30
0.0
 10
242.533734
 20
88.241132
 30
0.0
 10
242.613835
 20
87.957132
 30
0.0
 10
242.716933
 20
87.705136
 30
0.0
 10
242.842833
 20
87.485144
 30
0.0
 10
242.991733
 20
87.297156
 30
0.0
 10
243.165534
 20
87.137644
 30
0.0
 10
243.365833
 20
87.002741
 30
0.0
 10
243.592632
 20
86.892336
 30
0.0
 10
243.845932
 20
86.806540
 30
0.0
 10
244.125634
 20
86.745242
 30
0.0
 10
244.431933
 20
86.708440
 30
0.0
 10
244.764732
 20
86.696022
 30
0.0
  0
LWPOLYLINE
  5
159
100
AcDbEntity
  8
0
 62
7
100
AcDbPolyline
 90
2
 70
0
 10
244.764732
 20
86.696135
 30
0.0
 10
244.994334
 20
86.702626
 30
0.0
  0
LWPOLYLINE
  5
15a
100
AcDbEntity
  8
0
 62
7
100
AcDbPolyline
 90
51
 70
0
 10
276.253234
 20
65.930450
 30
0.0
 10
276.983232
 20
66.117845
 30
0.0
 10
277.684233
 20
66.395157
 30
0.0
 10
278.344235
 20
66.758151
 30
0.0
 10
278.954233
 20
67.201042
 30
0.0
 10
279.503234
 20
67.716832
 30
0.0
 10
279.983235
 20
68.297448
 30
0.0
 10
280.387233
 20
68.933633
 30
0.0
 10
280.708233
 20
69.615454
 30
0.0
 10
280.940233
 20
70.332044
 30
0.0
 10
281.082234
 20
71.072144
 30
0.0
 10
281.129235
 20
71.824153
 30
0.0
 10
281.082234
 20
72.576134
 30
0.0
 10
280.940233
 20
73.316234
 30
0.0
 10
280.708233
 20
74.032937
 30
0.0
 10
280.387233
 20
74.714645
 30
0.0
 10
279.983235
 20
75.350830
 30
0.0
 10
279.503234
 20
75.931446
 30
0.0
 10
278.954233
 20
76.447235
 30
0.0
 10
278.344235
 20
76.890155
 30
0.0
 10
277.684233
 20
77.253149
 30
0.0
 10
276.983232
 20
77.530432
 30
0.0
 10
276.253234
 20
77.717856
 30
0.0
 10
275.506234
 20
77.812344
 30
0.0
 10
274.752235
 20
77.812344
 30
0.0
 10
274.005235
 20
77.717856
 30
0.0
 10
273.275233
 20
77.530432
 30
0.0
 10
272.574233
 20
77.253149
 30
0.0
 10
271.914233
 20
76.890155
 30
0.0
 10
271.304233
 20
76.447235
 30
0.0
 10
270.755234
 20
75.931446
 30
0.0
 10
270.275233
 20
75.350830
 30
0.0
 10
269.871232
 20
74.714645
 30
0.0
 10
269.550233
 20
74.032937
 30
0.0
 10
269.318232
 20
73.316234
 30
0.0
 10
269.176235
 20
72.576134
 30
0.0
 10
269.129233
 20
71.824153
 30
0.0
 10
269.176235
 20
71.072144
 30
0.0
 10
269.318232
 20
70.332044
 30
0.0
 10
269.550233
 20
69.615454
 30
0.0
 10
269.871232
 20
68.933633
 30
0.0
 10
270.275233
 20
68.297448
 30
0.0
 10
270.755234
 20
67.716832
 30
0.0
 10
271.304233
 20
67.201042
 30
0.0
 10
271.914233
 20
66.758151
 30
0.0
 10
272.574233
 20
66.395157
 30
0.0
 10
273.275233
 20
66.117845
 30
0.0
 10
274.005235
 20
65.930450
 30
0.0
 10
274.752235
 20
65.835934
 30
0.0
 10
275.506234
 20
65.835934
 30
0.0
 10
276.253234
 20
65.930450
 30
0.0
  0
LWPOLYLINE
  5
15b
100
AcDbEntity
  8
0
 62
7
100
AcDbPolyline
 90
13
 70
0
 10
235.937634
 20
69.443157
 30
0.0
 10
236.847634
 20
70.184131
 30
0.0
 10
239.343633
 20
66.824135
 30
0.0
 10
240.773633
 20
66.824135
 30
0.0
 10
237.626632
 20
71.021146
 30
0.0
 10
240.616633
 20
74.184152
 30
0.0
 10
239.186633
 20
74.184152
 30
0.0
 10
235.937634
 20
70.613137
 30
0.0
 10
235.937634
 20
76.872149
 30
0.0
 10
234.717632
 20
76.872149
 30
0.0
 10
234.717632
 20
66.824135
 30
0.0
 10
235.937634
 20
66.824135
 30
0.0
 10
235.937634
 20
69.443157
 30
0.0
  0
LWPOLYLINE
  5
15c
100
AcDbEntity
  8
0
 62
7
100
AcDbPolyline
 90
17
 70
0
 10
214.096433
 20
71.160140
 30
0.0
 10
214.107130
 20
71.441149
 30
0.0
 10
214.139032
 20
71.705140
 30
0.0
 10
214.192132
 20
71.952254
 30
0.0
 10
214.266633
 20
72.182349
 30
0.0
 10
214.362335
 20
72.395540
 30
0.0
 10
214.479234
 20
72.591854
 30
0.0
 10
214.617433
 20
72.771150
 30
0.0
 10
214.773332
 20
72.929843
 30
0.0
 10
214.943334
 20
73.064040
 30
0.0
 10
215.127434
 20
73.173852
 30
0.0
 10
215.325534
 20
73.259338
 30
0.0
 10
215.537833
 20
73.320354
 30
0.0
 10
215.764133
 20
73.356930
 30
0.0
 10
216.004434
 20
73.369066
 30
0.0
 10
216.164733
 20
73.365481
 30
0.0
 10
216.314734
 20
73.354531
 30
0.0
  0
LWPOLYLINE
  5
15d
100
AcDbEntity
  8
0
 62
7
100
AcDbPolyline
 90
3
 70
0
 10
216.314734
 20
73.354644
 30
0.0
 10
216.454434
 20
73.336582
 30
0.0
 10
216.583935
 20
73.311238
 30
0.0
  0
LWPOLYLINE
  5
15e
100
AcDbEntity
  8
0
 62
7
100
AcDbPolyline
 90
36
 70
0
 10
216.583935
 20
73.311351
 30
0.0
 10
216.703032
 20
73.278839
 30
0.0
 10
216.811933
 20
73.239046
 30
0.0
 10
216.910435
 20
73.192140
 30
0.0
 10
217.000133
 20
73.137756
 30
0.0
 10
217.082333
 20
73.075046
 30
0.0
 10
217.156933
 20
73.004152
 30
0.0
 10
217.224133
 20
72.925045
 30
0.0
 10
217.283733
 20
72.837641
 30
0.0
 10
217.335834
 20
72.742052
 30
0.0
 10
217.380433
 20
72.638138
 30
0.0
 10
217.418435
 20
72.522342
 30
0.0
 10
217.450535
 20
72.390234
 30
0.0
 10
217.476725
 20
72.241842
 30
0.0
 10
217.497223
 20
72.077334
 30
0.0
 10
217.511825
 20
71.896543
 30
0.0
 10
217.520526
 20
71.699439
 30
0.0
 10
217.523441
 20
71.486135
 30
0.0
 10
217.523433
 20
66.824135
 30
0.0
 10
218.750433
 20
66.824135
 30
0.0
 10
218.750433
 20
71.723146
 30
0.0
 10
218.738834
 20
72.106657
 30
0.0
 10
218.704135
 20
72.457347
 30
0.0
 10
218.646132
 20
72.775157
 30
0.0
 10
218.565033
 20
73.059948
 30
0.0
 10
218.460732
 20
73.311944
 30
0.0
 10
218.333134
 20
73.530948
 30
0.0
 10
218.182433
 20
73.717130
 30
0.0
 10
218.007334
 20
73.874949
 30
0.0
 10
217.806434
 20
74.008553
 30
0.0
 10
217.579933
 20
74.117858
 30
0.0
 10
217.327632
 20
74.202835
 30
0.0
 10
217.049632
 20
74.263541
 30
0.0
 10
216.745933
 20
74.299947
 30
0.0
 10
216.416433
 20
74.312083
 30
0.0
 10
216.179634
 20
74.305366
 30
0.0
  0
LWPOLYLINE
  5
15f
100
AcDbEntity
  8
0
 62
7
100
AcDbPolyline
 90
19
 70
0
 10
216.179634
 20
74.305253
 30
0.0
 10
215.954833
 20
74.284651
 30
0.0
 10
215.742133
 20
74.250248
 30
0.0
 10
215.541332
 20
74.202044
 30
0.0
 10
215.352734
 20
74.140238
 30
0.0
 10
215.176032
 20
74.064546
 30
0.0
 10
215.011435
 20
73.975138
 30
0.0
 10
214.856433
 20
73.871252
 30
0.0
 10
214.707834
 20
73.751731
 30
0.0
 10
214.565834
 20
73.616631
 30
0.0
 10
214.430235
 20
73.465755
 30
0.0
 10
214.301132
 20
73.299244
 30
0.0
 10
214.178535
 20
73.117041
 30
0.0
 10
214.062434
 20
72.919147
 30
0.0
 10
214.041437
 20
72.919147
 30
0.0
 10
214.072433
 20
73.424155
 30
0.0
 10
214.088633
 20
73.794657
 30
0.0
 10
214.096027
 20
74.155139
 30
0.0
 10
214.096315
 20
76.872149
 30
0.0
  0
LWPOLYLINE
  5
160
100
AcDbEntity
  8
0
 62
7
100
AcDbPolyline
 90
5
 70
0
 10
214.096433
 20
76.872149
 30
0.0
 10
212.875433
 20
76.872149
 30
0.0
 10
212.875433
 20
66.824135
 30
0.0
 10
214.096433
 20
66.824135
 30
0.0
 10
214.096433
 20
71.160140
 30
0.0
  0
LWPOLYLINE
  5
161
100
AcDbEntity
  8
0
 62
7
100
AcDbPolyline
 90
2
 70
0
 10
258.333234
 20
66.699449
 30
0.0
 10
258.511235
 20
66.709327
 30
0.0
  0
LWPOLYLINE
  5
162
100
AcDbEntity
  8
0
 62
7
100
AcDbPolyline
 90
3
 70
0
 10
258.511235
 20
66.709440
 30
0.0
 10
258.688233
 20
66.726091
 30
0.0
 10
258.863234
 20
66.749459
 30
0.0
  0
LWPOLYLINE
  5
163
100
AcDbEntity
  8
0
 62
7
100
AcDbPolyline
 90
7
 70
0
 10
258.863234
 20
66.749346
 30
0.0
 10
259.037232
 20
66.779346
 30
0.0
 10
259.211233
 20
66.815950
 30
0.0
 10
259.383234
 20
66.859130
 30
0.0
 10
259.383234
 20
67.761141
 30
0.0
 10
259.256234
 20
67.736023
 30
0.0
 10
259.139233
 20
67.714772
 30
0.0
  0
LWPOLYLINE
  5
164
100
AcDbEntity
  8
0
 62
7
100
AcDbPolyline
 90
4
 70
0
 10
259.139233
 20
67.714630
 30
0.0
 10
259.031232
 20
67.697133
 30
0.0
 10
258.931232
 20
67.683586
 30
0.0
 10
258.840232
 20
67.673962
 30
0.0
  0
LWPOLYLINE
  5
165
100
AcDbEntity
  8
0
 62
7
100
AcDbPolyline
 90
2
 70
0
 10
258.840232
 20
67.673849
 30
0.0
 10
258.758233
 20
67.667923
 30
0.0
  0
LWPOLYLINE
  5
166
100
AcDbEntity
  8
0
 62
7
100
AcDbPolyline
 90
2
 70
0
 10
258.758233
 20
67.668036
 30
0.0
 10
258.685233
 20
67.665213
 30
0.0
  0
LWPOLYLINE
  5
167
100
AcDbEntity
  8
0
 62
7
100
AcDbPolyline
 90
2
 70
0
 10
258.685233
 20
67.666145
 30
0.0
 10
258.569234
 20
67.670660
 30
0.0
  0
LWPOLYLINE
  5
168
100
AcDbEntity
  8
0
 62
7
100
AcDbPolyline
 90
2
 70
0
 10
258.569234
 20
67.670547
 30
0.0
 10
258.463234
 20
67.683530
 30
0.0
  0
LWPOLYLINE
  5
169
100
AcDbEntity
  8
0
 62
7
100
AcDbPolyline
 90
32
 70
0
 10
258.463234
 20
67.683642
 30
0.0
 10
258.368233
 20
67.705656
 30
0.0
 10
258.283233
 20
67.736333
 30
0.0
 10
258.208232
 20
67.775844
 30
0.0
 10
258.144233
 20
67.824133
 30
0.0
 10
258.090233
 20
67.881142
 30
0.0
 10
258.044233
 20
67.949044
 30
0.0
 10
258.006235
 20
68.029957
 30
0.0
 10
257.974234
 20
68.123853
 30
0.0
 10
257.950245
 20
68.230646
 30
0.0
 10
257.933244
 20
68.350534
 30
0.0
 10
257.922226
 20
68.483347
 30
0.0
 10
257.919243
 20
68.629143
 30
0.0
 10
257.919234
 20
73.296139
 30
0.0
 10
259.261235
 20
73.296139
 30
0.0
 10
259.261235
 20
74.184152
 30
0.0
 10
257.919234
 20
74.184152
 30
0.0
 10
257.919234
 20
75.848134
 30
0.0
 10
257.105235
 20
75.848134
 30
0.0
 10
256.745232
 20
74.184152
 30
0.0
 10
255.850235
 20
74.184152
 30
0.0
 10
255.850235
 20
73.296139
 30
0.0
 10
256.698234
 20
73.296139
 30
0.0
 10
256.698234
 20
68.368144
 30
0.0
 10
256.727235
 20
67.924547
 30
0.0
 10
256.817233
 20
67.549248
 30
0.0
 10
256.965233
 20
67.242134
 30
0.0
 10
257.173233
 20
67.003233
 30
0.0
 10
257.441234
 20
66.832658
 30
0.0
 10
257.768234
 20
66.730239
 30
0.0
 10
258.155234
 20
66.696147
 30
0.0
 10
258.333234
 20
66.699534
 30
0.0
  0
LWPOLYLINE
  5
16a
100
AcDbEntity
  8
0
 62
7
100
AcDbPolyline
 90
74
 70
0
 10
224.017434
 20
66.731735
 30
0.0
 10
224.582835
 20
66.838330
 30
0.0
 10
225.079732
 20
67.016130
 30
0.0
 10
225.508033
 20
67.264938
 30
0.0
 10
225.867733
 20
67.584949
 30
0.0
 10
226.158834
 20
67.975940
 30
0.0
 10
226.381434
 20
68.438135
 30
0.0
 10
225.310435
 20
68.744149
 30
0.0
 10
225.255534
 20
68.607356
 30
0.0
 10
225.188032
 20
68.477449
 30
0.0
 10
225.107833
 20
68.354541
 30
0.0
 10
225.014934
 20
68.238548
 30
0.0
 10
224.909434
 20
68.129441
 30
0.0
 10
224.791233
 20
68.027333
 30
0.0
 10
224.660435
 20
67.932139
 30
0.0
 10
224.516834
 20
67.846936
 30
0.0
 10
224.360232
 20
67.774941
 30
0.0
 10
224.190834
 20
67.715957
 30
0.0
 10
224.008335
 20
67.670039
 30
0.0
 10
223.813034
 20
67.637330
 30
0.0
 10
223.604633
 20
67.617574
 30
0.0
 10
223.383433
 20
67.611140
 30
0.0
 10
223.105534
 20
67.624968
 30
0.0
 10
222.847335
 20
67.666935
 30
0.0
 10
222.608834
 20
67.736757
 30
0.0
 10
222.389934
 20
67.834434
 30
0.0
 10
222.190832
 20
67.960136
 30
0.0
 10
222.011234
 20
68.113636
 30
0.0
 10
221.851434
 20
68.295133
 30
0.0
 10
221.712434
 20
68.502538
 30
0.0
 10
221.594832
 20
68.733537
 30
0.0
 10
221.498533
 20
68.987848
 30
0.0
 10
221.423634
 20
69.265752
 30
0.0
 10
221.370234
 20
69.567052
 30
0.0
 10
221.338134
 20
69.891834
 30
0.0
 10
221.327438
 20
70.240152
 30
0.0
 10
226.578434
 20
70.240152
 30
0.0
 10
226.578434
 20
70.403136
 30
0.0
 10
226.512233
 20
71.440246
 30
0.0
 10
226.313735
 20
72.317731
 30
0.0
 10
225.982835
 20
73.035733
 30
0.0
 10
225.519533
 20
73.594138
 30
0.0
 10
224.923833
 20
73.993031
 30
0.0
 10
224.195835
 20
74.232355
 30
0.0
 10
223.335432
 20
74.312139
 30
0.0
 10
222.897833
 20
74.292384
 30
0.0
 10
222.489934
 20
74.232835
 30
0.0
 10
222.112033
 20
74.133747
 30
0.0
 10
221.763833
 20
73.995034
 30
0.0
 10
221.445534
 20
73.816755
 30
0.0
 10
221.157032
 20
73.598738
 30
0.0
 10
220.898432
 20
73.341154
 30
0.0
 10
220.672132
 20
73.046655
 30
0.0
 10
220.480633
 20
72.717556
 30
0.0
 10
220.323932
 20
72.353743
 30
0.0
 10
220.202133
 20
71.955330
 30
0.0
 10
220.115034
 20
71.522232
 30
0.0
 10
220.062834
 20
71.054533
 30
0.0
 10
220.045421
 20
70.552149
 30
0.0
 10
220.062846
 20
70.024252
 30
0.0
 10
220.115034
 20
69.534936
 30
0.0
 10
220.202133
 20
69.084057
 30
0.0
 10
220.323932
 20
68.671844
 30
0.0
 10
220.480633
 20
68.298040
 30
0.0
 10
220.672132
 20
67.962845
 30
0.0
 10
220.898432
 20
67.666145
 30
0.0
 10
221.158034
 20
67.408730
 30
0.0
 10
221.449434
 20
67.191052
 30
0.0
 10
221.772632
 20
67.012857
 30
0.0
 10
222.127634
 20
66.874342
 30
0.0
 10
222.514434
 20
66.775338
 30
0.0
 10
222.933034
 20
66.715931
 30
0.0
 10
223.383433
 20
66.696175
 30
0.0
 10
224.017434
 20
66.731735
 30
0.0
  0
LWPOLYLINE
  5
16b
100
AcDbEntity
  8
0
 62
7
100
AcDbPolyline
 90
30
 70
0
 10
221.340434
 20
71.176142
 30
0.0
 10
221.361940
 20
71.464743
 30
0.0
 10
221.403034
 20
71.735140
 30
0.0
 10
221.463735
 20
71.987334
 30
0.0
 10
221.544032
 20
72.221352
 30
0.0
 10
221.643933
 20
72.437140
 30
0.0
 10
221.763435
 20
72.634752
 30
0.0
 10
221.902432
 20
72.814132
 30
0.0
 10
222.058834
 20
72.972233
 30
0.0
 10
222.230335
 20
73.106034
 30
0.0
 10
222.416934
 20
73.215537
 30
0.0
 10
222.618735
 20
73.300655
 30
0.0
 10
222.835535
 20
73.361446
 30
0.0
 10
223.067434
 20
73.397937
 30
0.0
 10
223.314435
 20
73.410072
 30
0.0
 10
223.568235
 20
73.399150
 30
0.0
 10
223.804534
 20
73.366441
 30
0.0
 10
224.023332
 20
73.311831
 30
0.0
 10
224.224633
 20
73.235433
 30
0.0
 10
224.408433
 20
73.137135
 30
0.0
 10
224.574633
 20
73.017050
 30
0.0
 10
224.723435
 20
72.875148
 30
0.0
 10
224.855834
 20
72.709653
 30
0.0
 10
224.972234
 20
72.518448
 30
0.0
 10
225.072835
 20
72.301532
 30
0.0
 10
225.157532
 20
72.058849
 30
0.0
 10
225.226434
 20
71.790343
 30
0.0
 10
225.279334
 20
71.496154
 30
0.0
 10
225.316435
 20
71.176142
 30
0.0
 10
221.340434
 20
71.176142
 30
0.0
  0
LWPOLYLINE
  5
16c
100
AcDbEntity
  8
0
 62
7
100
AcDbPolyline
 90
58
 70
0
 10
209.222732
 20
66.709242
 30
0.0
 10
209.532533
 20
66.748330
 30
0.0
 10
209.825632
 20
66.813551
 30
0.0
 10
210.102134
 20
66.904737
 30
0.0
 10
210.361835
 20
67.022142
 30
0.0
 10
210.604834
 20
67.165652
 30
0.0
 10
210.831232
 20
67.335154
 30
0.0
 10
211.036532
 20
67.526558
 30
0.0
 10
211.216632
 20
67.735656
 30
0.0
 10
211.371332
 20
67.962337
 30
0.0
 10
211.500734
 20
68.206854
 30
0.0
 10
211.604933
 20
68.468954
 30
0.0
 10
211.683733
 20
68.748636
 30
0.0
 10
211.737234
 20
69.046155
 30
0.0
 10
210.503234
 20
69.128140
 30
0.0
 10
210.466934
 20
68.922344
 30
0.0
 10
210.416733
 20
68.732352
 30
0.0
 10
210.352835
 20
68.558052
 30
0.0
 10
210.275133
 20
68.399640
 30
0.0
 10
210.183634
 20
68.257033
 30
0.0
 10
210.078334
 20
68.130146
 30
0.0
 10
209.959234
 20
68.019148
 30
0.0
 10
209.829135
 20
67.923644
 30
0.0
 10
209.690135
 20
67.842844
 30
0.0
 10
209.542434
 20
67.776635
 30
0.0
 10
209.385834
 20
67.725242
 30
0.0
 10
209.220432
 20
67.688553
 30
0.0
 10
209.046233
 20
67.666540
 30
0.0
 10
208.863235
 20
67.659117
 30
0.0
 10
208.605134
 20
67.673539
 30
0.0
 10
208.366335
 20
67.716747
 30
0.0
 10
208.146735
 20
67.788855
 30
0.0
 10
207.946535
 20
67.889636
 30
0.0
 10
207.765433
 20
68.019346
 30
0.0
 10
207.603733
 20
68.177842
 30
0.0
 10
207.461234
 20
68.365153
 30
0.0
 10
207.338134
 20
68.582351
 30
0.0
 10
207.233932
 20
68.830650
 30
0.0
 10
207.148735
 20
69.110050
 30
0.0
 10
207.082432
 20
69.420438
 30
0.0
 10
207.035135
 20
69.761955
 30
0.0
 10
207.006735
 20
70.134545
 30
0.0
 10
206.997224
 20
70.538151
 30
0.0
 10
207.006122
 20
70.956630
 30
0.0
 10
207.032945
 20
71.339239
 30
0.0
 10
207.077533
 20
71.685638
 30
0.0
 10
207.139932
 20
71.996139
 30
0.0
 10
207.220233
 20
72.270431
 30
0.0
 10
207.318333
 20
72.508852
 30
0.0
 10
207.434234
 20
72.711149
 30
0.0
 10
207.570332
 20
72.882232
 30
0.0
 10
207.728532
 20
73.027040
 30
0.0
 10
207.908632
 20
73.145546
 30
0.0
 10
208.110833
 20
73.237635
 30
0.0
 10
208.334935
 20
73.303449
 30
0.0
 10
208.581032
 20
73.342932
 30
0.0
 10
208.849234
 20
73.356196
 30
0.0
 10
209.047633
 20
73.348520
 30
0.0
  0
LWPOLYLINE
  5
16d
100
AcDbEntity
  8
0
 62
7
100
AcDbPolyline
 90
29
 70
0
 10
209.047633
 20
73.348633
 30
0.0
 10
209.232633
 20
73.326337
 30
0.0
 10
209.404232
 20
73.289140
 30
0.0
 10
209.562333
 20
73.236957
 30
0.0
 10
209.707133
 20
73.169958
 30
0.0
 10
209.838332
 20
73.087944
 30
0.0
 10
209.956233
 20
72.991142
 30
0.0
 10
210.061632
 20
72.881950
 30
0.0
 10
210.155034
 20
72.762344
 30
0.0
 10
210.236534
 20
72.632353
 30
0.0
 10
210.305932
 20
72.491834
 30
0.0
 10
210.363333
 20
72.341043
 30
0.0
 10
210.408833
 20
72.179838
 30
0.0
 10
210.442234
 20
72.008134
 30
0.0
 10
211.696232
 20
72.104146
 30
0.0
 10
211.630333
 20
72.389952
 30
0.0
 10
211.541733
 20
72.657640
 30
0.0
 10
211.430534
 20
72.907152
 30
0.0
 10
211.296733
 20
73.138546
 30
0.0
 10
211.140235
 20
73.351850
 30
0.0
 10
210.961032
 20
73.547035
 30
0.0
 10
210.759235
 20
73.724158
 30
0.0
 10
210.538232
 20
73.880142
 30
0.0
 10
210.301634
 20
74.012137
 30
0.0
 10
210.049234
 20
74.120144
 30
0.0
 10
209.781233
 20
74.204133
 30
0.0
 10
209.497634
 20
74.264133
 30
0.0
 10
209.198233
 20
74.300145
 30
0.0
 10
208.883233
 20
74.312280
 30
0.0
  0
LWPOLYLINE
  5
16e
100
AcDbEntity
  8
0
 62
7
100
AcDbPolyline
 90
2
 70
0
 10
208.883233
 20
74.312139
 30
0.0
 10
208.461633
 20
74.292102
 30
0.0
  0
LWPOLYLINE
  5
16f
100
AcDbEntity
  8
0
 62
7
100
AcDbPolyline
 90
28
 70
0
 10
208.461633
 20
74.292243
 30
0.0
 10
208.069033
 20
74.232637
 30
0.0
 10
207.705235
 20
74.133239
 30
0.0
 10
207.370434
 20
73.994131
 30
0.0
 10
207.064432
 20
73.815231
 30
0.0
 10
206.787434
 20
73.596537
 30
0.0
 10
206.539234
 20
73.338134
 30
0.0
 10
206.322433
 20
73.041942
 30
0.0
 10
206.139034
 20
72.709851
 30
0.0
 10
205.989033
 20
72.341833
 30
0.0
 10
205.872334
 20
71.937945
 30
0.0
 10
205.788935
 20
71.498243
 30
0.0
 10
205.738933
 20
71.022642
 30
0.0
 10
205.722226
 20
70.511142
 30
0.0
 10
205.738829
 20
69.995946
 30
0.0
 10
205.788633
 20
69.517156
 30
0.0
 10
205.871733
 20
69.074857
 30
0.0
 10
205.988034
 20
68.669050
 30
0.0
 10
206.137533
 20
68.299649
 30
0.0
 10
206.320235
 20
67.966655
 30
0.0
 10
206.536234
 20
67.670152
 30
0.0
 10
206.783734
 20
67.411750
 30
0.0
 10
207.061133
 20
67.193056
 30
0.0
 10
207.368434
 20
67.014155
 30
0.0
 10
207.705534
 20
66.875048
 30
0.0
 10
208.072533
 20
66.775649
 30
0.0
 10
208.469433
 20
66.716044
 30
0.0
 10
208.896232
 20
66.696006
 30
0.0
  0
LWPOLYLINE
  5
170
100
AcDbEntity
  8
0
 62
7
100
AcDbPolyline
 90
2
 70
0
 10
208.896232
 20
66.696147
 30
0.0
 10
209.222732
 20
66.709129
 30
0.0
  0
LWPOLYLINE
  5
171
100
AcDbEntity
  8
0
 62
7
100
AcDbPolyline
 90
50
 70
0
 10
244.846534
 20
66.715451
 30
0.0
 10
245.261833
 20
66.773137
 30
0.0
 10
245.645734
 20
66.869347
 30
0.0
 10
245.998232
 20
67.004051
 30
0.0
 10
246.319534
 20
67.177251
 30
0.0
 10
246.609334
 20
67.388946
 30
0.0
 10
246.867934
 20
67.639136
 30
0.0
 10
247.093432
 20
67.928950
 30
0.0
 10
247.284234
 20
68.258952
 30
0.0
 10
247.440334
 20
68.629030
 30
0.0
 10
247.561834
 20
69.039240
 30
0.0
 10
247.648532
 20
69.489752
 30
0.0
 10
247.700535
 20
69.980339
 30
0.0
 10
247.717920
 20
70.511142
 30
0.0
 10
247.701621
 20
71.046856
 30
0.0
 10
247.652932
 20
71.540830
 30
0.0
 10
247.571734
 20
71.993148
 30
0.0
 10
247.458032
 20
72.403753
 30
0.0
 10
247.311833
 20
72.772532
 30
0.0
 10
247.133133
 20
73.099741
 30
0.0
 10
246.921934
 20
73.385152
 30
0.0
 10
246.676534
 20
73.631052
 30
0.0
 10
246.394932
 20
73.839135
 30
0.0
 10
246.076834
 20
74.009456
 30
0.0
 10
245.722434
 20
74.141846
 30
0.0
 10
245.331635
 20
74.236447
 30
0.0
 10
244.904435
 20
74.293230
 30
0.0
 10
244.440933
 20
74.312139
 30
0.0
 10
243.566233
 20
74.234556
 30
0.0
 10
242.826032
 20
74.001836
 30
0.0
 10
242.220434
 20
73.614034
 30
0.0
 10
241.749532
 20
73.071039
 30
0.0
 10
241.413033
 20
72.372849
 30
0.0
 10
241.211233
 20
71.519550
 30
0.0
 10
241.143934
 20
70.511142
 30
0.0
 10
241.160641
 20
69.999530
 30
0.0
 10
241.211032
 20
69.523449
 30
0.0
 10
241.294934
 20
69.083041
 30
0.0
 10
241.412333
 20
68.678137
 30
0.0
 10
241.563333
 20
68.308849
 30
0.0
 10
241.747833
 20
67.975234
 30
0.0
 10
241.965934
 20
67.677151
 30
0.0
 10
242.217135
 20
67.416858
 30
0.0
 10
242.500534
 20
67.196640
 30
0.0
 10
242.816033
 20
67.016441
 30
0.0
 10
243.163832
 20
66.876346
 30
0.0
 10
243.543633
 20
66.776242
 30
0.0
 10
243.955734
 20
66.716156
 30
0.0
 10
244.399935
 20
66.696119
 30
0.0
 10
244.846534
 20
66.715338
 30
0.0
  0
LWPOLYLINE
  5
172
100
AcDbEntity
  8
0
 62
7
100
AcDbPolyline
 90
57
 70
0
 10
244.107933
 20
67.613030
 30
0.0
 10
243.851134
 20
67.657734
 30
0.0
 10
243.616432
 20
67.732241
 30
0.0
 10
243.403933
 20
67.836550
 30
0.0
 10
243.213433
 20
67.970550
 30
0.0
 10
243.045132
 20
68.134436
 30
0.0
 10
242.898933
 20
68.328153
 30
0.0
 10
242.773434
 20
68.551448
 30
0.0
 10
242.667234
 20
68.804234
 30
0.0
 10
242.580332
 20
69.086654
 30
0.0
 10
242.512833
 20
69.398538
 30
0.0
 10
242.464534
 20
69.739857
 30
0.0
 10
242.435532
 20
70.110754
 30
0.0
 10
242.425937
 20
70.511142
 30
0.0
 10
242.435727
 20
70.921832
 30
0.0
 10
242.465135
 20
71.300236
 30
0.0
 10
242.514033
 20
71.646240
 30
0.0
 10
242.582632
 20
71.959930
 30
0.0
 10
242.670832
 20
72.241334
 30
0.0
 10
242.778534
 20
72.490451
 30
0.0
 10
242.905935
 20
72.707142
 30
0.0
 10
243.055233
 20
72.893634
 30
0.0
 10
243.228834
 20
73.051453
 30
0.0
 10
243.426832
 20
73.180541
 30
0.0
 10
243.649133
 20
73.281040
 30
0.0
 10
243.895733
 20
73.352753
 30
0.0
 10
244.166633
 20
73.395736
 30
0.0
 10
244.461933
 20
73.410129
 30
0.0
 10
244.754733
 20
73.396046
 30
0.0
 10
245.022435
 20
73.353938
 30
0.0
 10
245.264833
 20
73.283552
 30
0.0
 10
245.482133
 20
73.185141
 30
0.0
 10
245.674233
 20
73.058649
 30
0.0
 10
245.841133
 20
72.903935
 30
0.0
 10
245.982933
 20
72.721140
 30
0.0
 10
246.103134
 20
72.507356
 30
0.0
 10
246.204833
 20
72.259537
 30
0.0
 10
246.288032
 20
71.977738
 30
0.0
 10
246.352735
 20
71.662044
 30
0.0
 10
246.398934
 20
71.312343
 30
0.0
 10
246.426620
 20
70.928746
 30
0.0
 10
246.435920
 20
70.511142
 30
0.0
 10
246.426225
 20
70.098533
 30
0.0
 10
246.397334
 20
69.718352
 30
0.0
 10
246.349035
 20
69.370541
 30
0.0
 10
246.281434
 20
69.055355
 30
0.0
 10
246.194634
 20
68.772456
 30
0.0
 10
246.088433
 20
68.522040
 30
0.0
 10
245.962932
 20
68.304136
 30
0.0
 10
245.814935
 20
68.116854
 30
0.0
 10
245.641233
 20
67.958358
 30
0.0
 10
245.441732
 20
67.828648
 30
0.0
 10
245.216635
 20
67.727838
 30
0.0
 10
244.965734
 20
67.655731
 30
0.0
 10
244.689235
 20
67.612551
 30
0.0
 10
244.386933
 20
67.598157
 30
0.0
 10
244.107933
 20
67.613115
 30
0.0
  0
LWPOLYLINE
  5
173
100
AcDbEntity
  8
0
 62
7
100
AcDbPolyline
 90
58
 70
0
 10
231.089934
 20
66.709242
 30
0.0
 10
231.399735
 20
66.748330
 30
0.0
 10
231.692834
 20
66.813551
 30
0.0
 10
231.969333
 20
66.904737
 30
0.0
 10
232.229033
 20
67.022142
 30
0.0
 10
232.472032
 20
67.165652
 30
0.0
 10
232.698434
 20
67.335154
 30
0.0
 10
232.903734
 20
67.526558
 30
0.0
 10
233.083834
 20
67.735656
 30
0.0
 10
233.238534
 20
67.962337
 30
0.0
 10
233.367933
 20
68.206854
 30
0.0
 10
233.472033
 20
68.468954
 30
0.0
 10
233.550934
 20
68.748636
 30
0.0
 10
233.604432
 20
69.046155
 30
0.0
 10
232.370432
 20
69.128140
 30
0.0
 10
232.334034
 20
68.922344
 30
0.0
 10
232.283934
 20
68.732352
 30
0.0
 10
232.220033
 20
68.558052
 30
0.0
 10
232.142335
 20
68.399640
 30
0.0
 10
232.050833
 20
68.257033
 30
0.0
 10
231.945533
 20
68.130146
 30
0.0
 10
231.826432
 20
68.019148
 30
0.0
 10
231.696333
 20
67.923644
 30
0.0
 10
231.557333
 20
67.842844
 30
0.0
 10
231.409632
 20
67.776635
 30
0.0
 10
231.253033
 20
67.725242
 30
0.0
 10
231.087634
 20
67.688553
 30
0.0
 10
230.913435
 20
67.666540
 30
0.0
 10
230.730433
 20
67.659117
 30
0.0
 10
230.472333
 20
67.673539
 30
0.0
 10
230.233533
 20
67.716747
 30
0.0
 10
230.013933
 20
67.788855
 30
0.0
 10
229.813635
 20
67.889636
 30
0.0
 10
229.632634
 20
68.019346
 30
0.0
 10
229.470932
 20
68.177842
 30
0.0
 10
229.328432
 20
68.365153
 30
0.0
 10
229.205333
 20
68.582351
 30
0.0
 10
229.101134
 20
68.830650
 30
0.0
 10
229.015933
 20
69.110050
 30
0.0
 10
228.949634
 20
69.420438
 30
0.0
 10
228.902333
 20
69.761955
 30
0.0
 10
228.873835
 20
70.134545
 30
0.0
 10
228.864437
 20
70.538151
 30
0.0
 10
228.873324
 20
70.956630
 30
0.0
 10
228.900143
 20
71.339239
 30
0.0
 10
228.944633
 20
71.685638
 30
0.0
 10
229.007134
 20
71.996139
 30
0.0
 10
229.087333
 20
72.270431
 30
0.0
 10
229.185433
 20
72.508852
 30
0.0
 10
229.301432
 20
72.711149
 30
0.0
 10
229.437534
 20
72.882232
 30
0.0
 10
229.595734
 20
73.027040
 30
0.0
 10
229.775834
 20
73.145546
 30
0.0
 10
229.978035
 20
73.237635
 30
0.0
 10
230.202133
 20
73.303449
 30
0.0
 10
230.448234
 20
73.342932
 30
0.0
 10
230.716432
 20
73.356196
 30
0.0
 10
230.914835
 20
73.348520
 30
0.0
  0
LWPOLYLINE
  5
174
100
AcDbEntity
  8
0
 62
7
100
AcDbPolyline
 90
29
 70
0
 10
230.914835
 20
73.348633
 30
0.0
 10
231.099834
 20
73.326337
 30
0.0
 10
231.271434
 20
73.289140
 30
0.0
 10
231.429535
 20
73.236957
 30
0.0
 10
231.574233
 20
73.169958
 30
0.0
 10
231.705534
 20
73.087944
 30
0.0
 10
231.823432
 20
72.991142
 30
0.0
 10
231.928834
 20
72.881950
 30
0.0
 10
232.022232
 20
72.762344
 30
0.0
 10
232.103732
 20
72.632353
 30
0.0
 10
232.173134
 20
72.491834
 30
0.0
 10
232.230532
 20
72.341043
 30
0.0
 10
232.275933
 20
72.179838
 30
0.0
 10
232.309433
 20
72.008134
 30
0.0
 10
233.563434
 20
72.104146
 30
0.0
 10
233.497532
 20
72.389952
 30
0.0
 10
233.408934
 20
72.657640
 30
0.0
 10
233.297733
 20
72.907152
 30
0.0
 10
233.163934
 20
73.138546
 30
0.0
 10
233.007433
 20
73.351850
 30
0.0
 10
232.828234
 20
73.547035
 30
0.0
 10
232.626433
 20
73.724158
 30
0.0
 10
232.405434
 20
73.880142
 30
0.0
 10
232.168833
 20
74.012137
 30
0.0
 10
231.916433
 20
74.120144
 30
0.0
 10
231.648435
 20
74.204133
 30
0.0
 10
231.364734
 20
74.264133
 30
0.0
 10
231.065434
 20
74.300145
 30
0.0
 10
230.750435
 20
74.312280
 30
0.0
  0
LWPOLYLINE
  5
175
100
AcDbEntity
  8
0
 62
7
100
AcDbPolyline
 90
2
 70
0
 10
230.750435
 20
74.312139
 30
0.0
 10
230.328834
 20
74.292102
 30
0.0
  0
LWPOLYLINE
  5
176
100
AcDbEntity
  8
0
 62
7
100
AcDbPolyline
 90
28
 70
0
 10
230.328834
 20
74.292243
 30
0.0
 10
229.936235
 20
74.232637
 30
0.0
 10
229.572433
 20
74.133239
 30
0.0
 10
229.237633
 20
73.994131
 30
0.0
 10
228.931634
 20
73.815231
 30
0.0
 10
228.654534
 20
73.596537
 30
0.0
 10
228.406432
 20
73.338134
 30
0.0
 10
228.189635
 20
73.041942
 30
0.0
 10
228.006233
 20
72.709851
 30
0.0
 10
227.856234
 20
72.341833
 30
0.0
 10
227.739434
 20
71.937945
 30
0.0
 10
227.656133
 20
71.498243
 30
0.0
 10
227.606135
 20
71.022642
 30
0.0
 10
227.589427
 20
70.511142
 30
0.0
 10
227.606027
 20
69.995946
 30
0.0
 10
227.655834
 20
69.517156
 30
0.0
 10
227.738934
 20
69.074857
 30
0.0
 10
227.855232
 20
68.669050
 30
0.0
 10
228.004734
 20
68.299649
 30
0.0
 10
228.187433
 20
67.966655
 30
0.0
 10
228.403432
 20
67.670152
 30
0.0
 10
228.650933
 20
67.411750
 30
0.0
 10
228.928335
 20
67.193056
 30
0.0
 10
229.235533
 20
67.014155
 30
0.0
 10
229.572733
 20
66.875048
 30
0.0
 10
229.939734
 20
66.775649
 30
0.0
 10
230.336635
 20
66.716044
 30
0.0
 10
230.763434
 20
66.696006
 30
0.0
  0
LWPOLYLINE
  5
177
100
AcDbEntity
  8
0
 62
7
100
AcDbPolyline
 90
2
 70
0
 10
230.763434
 20
66.696147
 30
0.0
 10
231.089934
 20
66.709129
 30
0.0
  0
LWPOLYLINE
  5
178
100
AcDbEntity
  8
0
 62
7
100
AcDbPolyline
 90
2
 70
0
 10
251.569234
 20
66.702553
 30
0.0
 10
251.788233
 20
66.721744
 30
0.0
  0
LWPOLYLINE
  5
179
100
AcDbEntity
  8
0
 62
7
100
AcDbPolyline
 90
40
 70
0
 10
251.788233
 20
66.721857
 30
0.0
 10
251.996234
 20
66.754031
 30
0.0
 10
252.193233
 20
66.799045
 30
0.0
 10
252.379234
 20
66.856844
 30
0.0
 10
252.554235
 20
66.927541
 30
0.0
 10
252.718234
 20
67.011135
 30
0.0
 10
252.874232
 20
67.110449
 30
0.0
 10
253.024234
 20
67.227938
 30
0.0
 10
253.169234
 20
67.363546
 30
0.0
 10
253.309233
 20
67.517244
 30
0.0
 10
253.443232
 20
67.689033
 30
0.0
 10
253.571234
 20
67.879053
 30
0.0
 10
253.695234
 20
68.087136
 30
0.0
 10
253.715243
 20
68.087136
 30
0.0
 10
253.763232
 20
66.874540
 30
0.0
 10
253.769244
 20
66.824135
 30
0.0
 10
254.922234
 20
66.824135
 30
0.0
 10
254.911228
 20
66.926243
 30
0.0
 10
254.902231
 20
67.069132
 30
0.0
 10
254.894247
 20
67.252746
 30
0.0
 10
254.888221
 20
67.477253
 30
0.0
 10
254.884225
 20
67.742458
 30
0.0
 10
254.881242
 20
68.395153
 30
0.0
 10
254.881233
 20
74.184152
 30
0.0
 10
253.660233
 20
74.184152
 30
0.0
 10
253.660233
 20
69.923132
 30
0.0
 10
253.649226
 20
69.625839
 30
0.0
 10
253.618232
 20
69.347738
 30
0.0
 10
253.566233
 20
69.088742
 30
0.0
 10
253.493233
 20
68.848853
 30
0.0
 10
253.399234
 20
68.628156
 30
0.0
 10
253.284234
 20
68.426536
 30
0.0
 10
253.149233
 20
68.244136
 30
0.0
 10
252.995232
 20
68.083636
 30
0.0
 10
252.826232
 20
67.947831
 30
0.0
 10
252.642235
 20
67.836635
 30
0.0
 10
252.442232
 20
67.750247
 30
0.0
 10
252.227232
 20
67.688553
 30
0.0
 10
251.997233
 20
67.651441
 30
0.0
 10
251.752233
 20
67.639023
 30
0.0
  0
LWPOLYLINE
  5
17a
100
AcDbEntity
  8
0
 62
7
100
AcDbPolyline
 90
4
 70
0
 10
251.752233
 20
67.639136
 30
0.0
 10
251.584234
 20
67.642805
 30
0.0
 10
251.429235
 20
67.653473
 30
0.0
 10
251.286233
 20
67.671338
 30
0.0
  0
LWPOLYLINE
  5
17b
100
AcDbEntity
  8
0
 62
7
100
AcDbPolyline
 90
36
 70
0
 10
251.286233
 20
67.671450
 30
0.0
 10
251.154235
 20
67.696568
 30
0.0
 10
251.035233
 20
67.728939
 30
0.0
 10
250.927232
 20
67.768450
 30
0.0
 10
250.832233
 20
67.815130
 30
0.0
 10
250.746235
 20
67.870248
 30
0.0
 10
250.667232
 20
67.934538
 30
0.0
 10
250.595234
 20
68.008057
 30
0.0
 10
250.529234
 20
68.090550
 30
0.0
 10
250.471234
 20
68.182244
 30
0.0
 10
250.420234
 20
68.283139
 30
0.0
 10
250.376233
 20
68.393149
 30
0.0
 10
250.338234
 20
68.514335
 30
0.0
 10
250.306233
 20
68.648955
 30
0.0
 10
250.279225
 20
68.796953
 30
0.0
 10
250.259223
 20
68.958130
 30
0.0
 10
250.244221
 20
69.132854
 30
0.0
 10
250.236248
 20
69.320842
 30
0.0
 10
250.233242
 20
69.522151
 30
0.0
 10
250.233234
 20
74.184152
 30
0.0
 10
249.005832
 20
74.184152
 30
0.0
 10
249.005832
 20
69.285141
 30
0.0
 10
249.017347
 20
68.905157
 30
0.0
 10
249.051634
 20
68.557148
 30
0.0
 10
249.108934
 20
68.241144
 30
0.0
 10
249.189234
 20
67.957144
 30
0.0
 10
249.292234
 20
67.705148
 30
0.0
 10
249.418232
 20
67.485156
 30
0.0
 10
249.567234
 20
67.297139
 30
0.0
 10
249.740234
 20
67.137655
 30
0.0
 10
249.941232
 20
67.002753
 30
0.0
 10
250.168232
 20
66.892348
 30
0.0
 10
250.421233
 20
66.806552
 30
0.0
 10
250.701234
 20
66.745254
 30
0.0
 10
251.007234
 20
66.708452
 30
0.0
 10
251.340233
 20
66.696034
 30
0.0
  0
LWPOLYLINE
  5
17c
100
AcDbEntity
  8
0
 62
7
100
AcDbPolyline
 90
2
 70
0
 10
251.340233
 20
66.696147
 30
0.0
 10
251.569234
 20
66.702638
 30
0.0
  0
LWPOLYLINE
  5
17d
100
AcDbEntity
  8
0
 62
7
100
AcDbPolyline
 90
51
 70
0
 10
281.938233
 20
59.203344
 30
0.0
 10
282.139235
 20
59.254935
 30
0.0
 10
282.332232
 20
59.331135
 30
0.0
 10
282.513222
 20
59.431041
 30
0.0
 10
282.681228
 20
59.552848
 30
0.0
 10
282.832246
 20
59.694637
 30
0.0
 10
282.964241
 20
59.854346
 30
0.0
 10
283.075239
 20
60.029240
 30
0.0
 10
283.163236
 20
60.216748
 30
0.0
 10
283.227244
 20
60.413852
 30
0.0
 10
283.266247
 20
60.617334
 30
0.0
 10
283.279229
 20
60.824147
 30
0.0
 10
283.266247
 20
61.030931
 30
0.0
 10
283.227244
 20
61.234441
 30
0.0
 10
283.163236
 20
61.431545
 30
0.0
 10
283.075239
 20
61.619054
 30
0.0
 10
282.964241
 20
61.793947
 30
0.0
 10
282.832246
 20
61.953656
 30
0.0
 10
282.681228
 20
62.095445
 30
0.0
 10
282.513222
 20
62.217252
 30
0.0
 10
282.332232
 20
62.317130
 30
0.0
 10
282.139235
 20
62.393330
 30
0.0
 10
281.938233
 20
62.444949
 30
0.0
 10
281.733233
 20
62.470913
 30
0.0
 10
281.525232
 20
62.470942
 30
0.0
 10
281.320234
 20
62.444977
 30
0.0
 10
281.119233
 20
62.393330
 30
0.0
 10
280.926232
 20
62.317130
 30
0.0
 10
280.745235
 20
62.217252
 30
0.0
 10
280.577234
 20
62.095445
 30
0.0
 10
280.426233
 20
61.953656
 30
0.0
 10
280.294232
 20
61.793947
 30
0.0
 10
280.183234
 20
61.619054
 30
0.0
 10
280.095235
 20
61.431545
 30
0.0
 10
280.031232
 20
61.234441
 30
0.0
 10
279.992232
 20
61.030931
 30
0.0
 10
279.979222
 20
60.824147
 30
0.0
 10
279.992243
 20
60.617334
 30
0.0
 10
280.031232
 20
60.413852
 30
0.0
 10
280.095235
 20
60.216748
 30
0.0
 10
280.183234
 20
60.029240
 30
0.0
 10
280.294232
 20
59.854346
 30
0.0
 10
280.426233
 20
59.694637
 30
0.0
 10
280.577234
 20
59.552848
 30
0.0
 10
280.745235
 20
59.431041
 30
0.0
 10
280.926232
 20
59.331135
 30
0.0
 10
281.119233
 20
59.254935
 30
0.0
 10
281.320234
 20
59.203344
 30
0.0
 10
281.525232
 20
59.177380
 30
0.0
 10
281.733233
 20
59.177436
 30
0.0
 10
281.938233
 20
59.203401
 30
0.0
  0
LWPOLYLINE
  5
17e
100
AcDbEntity
  8
0
 62
7
100
AcDbPolyline
 90
51
 70
0
 10
256.938232
 20
59.203344
 30
0.0
 10
257.139234
 20
59.254935
 30
0.0
 10
257.332234
 20
59.331135
 30
0.0
 10
257.513235
 20
59.431041
 30
0.0
 10
257.681233
 20
59.552848
 30
0.0
 10
257.832233
 20
59.694637
 30
0.0
 10
257.964234
 20
59.854346
 30
0.0
 10
258.075232
 20
60.029240
 30
0.0
 10
258.163232
 20
60.216748
 30
0.0
 10
258.227235
 20
60.413852
 30
0.0
 10
258.266235
 20
60.617334
 30
0.0
 10
258.279245
 20
60.824147
 30
0.0
 10
258.266224
 20
61.030931
 30
0.0
 10
258.227235
 20
61.234441
 30
0.0
 10
258.163232
 20
61.431545
 30
0.0
 10
258.075232
 20
61.619054
 30
0.0
 10
257.964234
 20
61.793947
 30
0.0
 10
257.832233
 20
61.953656
 30
0.0
 10
257.681233
 20
62.095445
 30
0.0
 10
257.513235
 20
62.217252
 30
0.0
 10
257.332234
 20
62.317130
 30
0.0
 10
257.139234
 20
62.393330
 30
0.0
 10
256.938232
 20
62.444949
 30
0.0
 10
256.733235
 20
62.470913
 30
0.0
 10
256.525234
 20
62.470942
 30
0.0
 10
256.320234
 20
62.444977
 30
0.0
 10
256.119235
 20
62.393330
 30
0.0
 10
255.926234
 20
62.317130
 30
0.0
 10
255.745234
 20
62.217252
 30
0.0
 10
255.577233
 20
62.095445
 30
0.0
 10
255.426233
 20
61.953656
 30
0.0
 10
255.294234
 20
61.793947
 30
0.0
 10
255.183234
 20
61.619054
 30
0.0
 10
255.095234
 20
61.431545
 30
0.0
 10
255.031234
 20
61.234441
 30
0.0
 10
254.992234
 20
61.030931
 30
0.0
 10
254.979224
 20
60.824147
 30
0.0
 10
254.992243
 20
60.617334
 30
0.0
 10
255.031234
 20
60.413852
 30
0.0
 10
255.095234
 20
60.216748
 30
0.0
 10
255.183234
 20
60.029240
 30
0.0
 10
255.294234
 20
59.854346
 30
0.0
 10
255.426233
 20
59.694637
 30
0.0
 10
255.577233
 20
59.552848
 30
0.0
 10
255.745234
 20
59.431041
 30
0.0
 10
255.926234
 20
59.331135
 30
0.0
 10
256.119235
 20
59.254935
 30
0.0
 10
256.320234
 20
59.203344
 30
0.0
 10
256.525234
 20
59.177380
 30
0.0
 10
256.733235
 20
59.177436
 30
0.0
 10
256.938232
 20
59.203401
 30
0.0
  0
LWPOLYLINE
  5
17f
100
AcDbEntity
  8
0
 62
7
100
AcDbPolyline
 90
51
 70
0
 10
206.586034
 20
47.187141
 30
0.0
 10
206.789534
 20
47.225946
 30
0.0
 10
206.986635
 20
47.290039
 30
0.0
 10
207.174135
 20
47.378233
 30
0.0
 10
207.349034
 20
47.489231
 30
0.0
 10
207.508735
 20
47.621340
 30
0.0
 10
207.650534
 20
47.772357
 30
0.0
 10
207.772333
 20
47.940053
 30
0.0
 10
207.872234
 20
48.121635
 30
0.0
 10
207.948434
 20
48.314252
 30
0.0
 10
208.000033
 20
48.514940
 30
0.0
 10
208.025941
 20
48.720539
 30
0.0
 10
208.025932
 20
48.927746
 30
0.0
 10
208.000024
 20
49.133345
 30
0.0
 10
207.948434
 20
49.334033
 30
0.0
 10
207.872234
 20
49.526650
 30
0.0
 10
207.772333
 20
49.708232
 30
0.0
 10
207.650534
 20
49.875844
 30
0.0
 10
207.508735
 20
50.026945
 30
0.0
 10
207.349034
 20
50.159054
 30
0.0
 10
207.174135
 20
50.270052
 30
0.0
 10
206.986635
 20
50.358246
 30
0.0
 10
206.789534
 20
50.422339
 30
0.0
 10
206.586034
 20
50.461144
 30
0.0
 10
206.379233
 20
50.474126
 30
0.0
 10
206.172432
 20
50.461172
 30
0.0
 10
205.968933
 20
50.422339
 30
0.0
 10
205.771835
 20
50.358246
 30
0.0
 10
205.584335
 20
50.270052
 30
0.0
 10
205.409433
 20
50.159054
 30
0.0
 10
205.249735
 20
50.026945
 30
0.0
 10
205.107932
 20
49.875844
 30
0.0
 10
204.986134
 20
49.708232
 30
0.0
 10
204.886233
 20
49.526650
 30
0.0
 10
204.810033
 20
49.334033
 30
0.0
 10
204.758434
 20
49.133345
 30
0.0
 10
204.732526
 20
48.927746
 30
0.0
 10
204.732534
 20
48.720539
 30
0.0
 10
204.758442
 20
48.514940
 30
0.0
 10
204.810033
 20
48.314252
 30
0.0
 10
204.886233
 20
48.121635
 30
0.0
 10
204.986134
 20
47.940053
 30
0.0
 10
205.107932
 20
47.772357
 30
0.0
 10
205.249735
 20
47.621340
 30
0.0
 10
205.409433
 20
47.489231
 30
0.0
 10
205.584335
 20
47.378233
 30
0.0
 10
205.771835
 20
47.290039
 30
0.0
 10
205.968933
 20
47.225946
 30
0.0
 10
206.172432
 20
47.187141
 30
0.0
 10
206.379233
 20
47.174158
 30
0.0
 10
206.586034
 20
47.187112
 30
0.0
  0
LWPOLYLINE
  5
180
100
AcDbEntity
  8
0
 62
7
100
AcDbPolyline
 90
51
 70
0
 10
244.086033
 20
42.687136
 30
0.0
 10
244.289532
 20
42.725941
 30
0.0
 10
244.486633
 20
42.790034
 30
0.0
 10
244.674133
 20
42.878256
 30
0.0
 10
244.849035
 20
42.989254
 30
0.0
 10
245.008733
 20
43.121334
 30
0.0
 10
245.150533
 20
43.272352
 30
0.0
 10
245.272334
 20
43.440048
 30
0.0
 10
245.372232
 20
43.621630
 30
0.0
 10
245.448432
 20
43.814246
 30
0.0
 10
245.500034
 20
44.014935
 30
0.0
 10
245.525942
 20
44.220534
 30
0.0
 10
245.525933
 20
44.427741
 30
0.0
 10
245.500025
 20
44.633340
 30
0.0
 10
245.448432
 20
44.834056
 30
0.0
 10
245.372232
 20
45.026645
 30
0.0
 10
245.272334
 20
45.208255
 30
0.0
 10
245.150533
 20
45.375838
 30
0.0
 10
245.008733
 20
45.526940
 30
0.0
 10
244.849035
 20
45.659048
 30
0.0
 10
244.674133
 20
45.770046
 30
0.0
 10
244.486633
 20
45.858241
 30
0.0
 10
244.289532
 20
45.922334
 30
0.0
 10
244.086033
 20
45.961139
 30
0.0
 10
243.879235
 20
45.974121
 30
0.0
 10
243.672433
 20
45.961167
 30
0.0
 10
243.468934
 20
45.922334
 30
0.0
 10
243.271833
 20
45.858241
 30
0.0
 10
243.084333
 20
45.770046
 30
0.0
 10
242.909434
 20
45.659048
 30
0.0
 10
242.749733
 20
45.526940
 30
0.0
 10
242.607933
 20
45.375838
 30
0.0
 10
242.486132
 20
45.208255
 30
0.0
 10
242.386234
 20
45.026645
 30
0.0
 10
242.310034
 20
44.834056
 30
0.0
 10
242.258432
 20
44.633340
 30
0.0
 10
242.232524
 20
44.427741
 30
0.0
 10
242.232533
 20
44.220534
 30
0.0
 10
242.258441
 20
44.014935
 30
0.0
 10
242.310034
 20
43.814246
 30
0.0
 10
242.386234
 20
43.621630
 30
0.0
 10
242.486132
 20
43.440048
 30
0.0
 10
242.607933
 20
43.272352
 30
0.0
 10
242.749733
 20
43.121334
 30
0.0
 10
242.909434
 20
42.989254
 30
0.0
 10
243.084333
 20
42.878256
 30
0.0
 10
243.271833
 20
42.790034
 30
0.0
 10
243.468934
 20
42.725941
 30
0.0
 10
243.672433
 20
42.687136
 30
0.0
 10
243.879235
 20
42.674153
 30
0.0
 10
244.086033
 20
42.687136
 30
0.0
  0
LWPOLYLINE
  5
181
100
AcDbEntity
  8
0
 62
7
100
AcDbPolyline
 90
51
 70
0
 10
244.086033
 20
17.687157
 30
0.0
 10
244.289532
 20
17.725935
 30
0.0
 10
244.486633
 20
17.790056
 30
0.0
 10
244.674133
 20
17.878250
 30
0.0
 10
244.849035
 20
17.989248
 30
0.0
 10
245.008733
 20
18.121356
 30
0.0
 10
245.150533
 20
18.272458
 30
0.0
 10
245.272334
 20
18.440042
 30
0.0
 10
245.372232
 20
18.621652
 30
0.0
 10
245.448432
 20
18.814240
 30
0.0
 10
245.500034
 20
19.014956
 30
0.0
 10
245.525942
 20
19.220555
 30
0.0
 10
245.525933
 20
19.427735
 30
0.0
 10
245.500025
 20
19.633334
 30
0.0
 10
245.448432
 20
19.834050
 30
0.0
 10
245.372232
 20
20.026638
 30
0.0
 10
245.272334
 20
20.208248
 30
0.0
 10
245.150533
 20
20.375945
 30
0.0
 10
245.008733
 20
20.526934
 30
0.0
 10
244.849035
 20
20.659042
 30
0.0
 10
244.674133
 20
20.770040
 30
0.0
 10
244.486633
 20
20.858234
 30
0.0
 10
244.289532
 20
20.922355
 30
0.0
 10
244.086033
 20
20.961133
 30
0.0
 10
243.879235
 20
20.974115
 30
0.0
 10
243.672433
 20
20.961161
 30
0.0
 10
243.468934
 20
20.922355
 30
0.0
 10
243.271833
 20
20.858234
 30
0.0
 10
243.084333
 20
20.770040
 30
0.0
 10
242.909434
 20
20.659042
 30
0.0
 10
242.749733
 20
20.526934
 30
0.0
 10
242.607933
 20
20.375945
 30
0.0
 10
242.486132
 20
20.208248
 30
0.0
 10
242.386234
 20
20.026638
 30
0.0
 10
242.310034
 20
19.834050
 30
0.0
 10
242.258432
 20
19.633334
 30
0.0
 10
242.232524
 20
19.427735
 30
0.0
 10
242.232533
 20
19.220555
 30
0.0
 10
242.258441
 20
19.014956
 30
0.0
 10
242.310034
 20
18.814240
 30
0.0
 10
242.386234
 20
18.621652
 30
0.0
 10
242.486132
 20
18.440042
 30
0.0
 10
242.607933
 20
18.272458
 30
0.0
 10
242.749733
 20
18.121356
 30
0.0
 10
242.909434
 20
17.989248
 30
0.0
 10
243.084333
 20
17.878250
 30
0.0
 10
243.271833
 20
17.790056
 30
0.0
 10
243.468934
 20
17.725935
 30
0.0
 10
243.672433
 20
17.687157
 30
0.0
 10
243.879235
 20
17.674175
 30
0.0
 10
244.086033
 20
17.687129
 30
0.0
  0
LWPOLYLINE
  5
182
100
AcDbEntity
  8
0
 62
7
100
AcDbPolyline
 90
51
 70
0
 10
20.938234
 20
17.203344
 30
0.0
 10
21.139235
 20
17.254934
 30
0.0
 10
21.332233
 20
17.331134
 30
0.0
 10
21.513233
 20
17.431041
 30
0.0
 10
21.681235
 20
17.552848
 30
0.0
 10
21.832235
 20
17.694636
 30
0.0
 10
21.964233
 20
17.854346
 30
0.0
 10
22.075234
 20
18.029239
 30
0.0
 10
22.163233
 20
18.216747
 30
0.0
 10
22.227233
 20
18.413851
 30
0.0
 10
22.266233
 20
18.617334
 30
0.0
 10
22.279244
 20
18.824146
 30
0.0
 10
22.266225
 20
19.030930
 30
0.0
 10
22.227233
 20
19.234441
 30
0.0
 10
22.163233
 20
19.431545
 30
0.0
 10
22.075234
 20
19.619053
 30
0.0
 10
21.964233
 20
19.793946
 30
0.0
 10
21.832235
 20
19.953656
 30
0.0
 10
21.681235
 20
20.095444
 30
0.0
 10
21.513233
 20
20.217251
 30
0.0
 10
21.332233
 20
20.317130
 30
0.0
 10
21.139235
 20
20.393330
 30
0.0
 10
20.938234
 20
20.444948
 30
0.0
 10
20.733233
 20
20.470913
 30
0.0
 10
20.525235
 20
20.470941
 30
0.0
 10
20.320235
 20
20.444976
 30
0.0
 10
20.119233
 20
20.393330
 30
0.0
 10
19.926233
 20
20.317130
 30
0.0
 10
19.745235
 20
20.217251
 30
0.0
 10
19.577234
 20
20.095444
 30
0.0
 10
19.426234
 20
19.953656
 30
0.0
 10
19.294233
 20
19.793946
 30
0.0
 10
19.183235
 20
19.619053
 30
0.0
 10
19.095235
 20
19.431545
 30
0.0
 10
19.031233
 20
19.234441
 30
0.0
 10
18.992235
 20
19.030930
 30
0.0
 10
18.979225
 20
18.824146
 30
0.0
 10
18.992244
 20
18.617334
 30
0.0
 10
19.031233
 20
18.413851
 30
0.0
 10
19.095235
 20
18.216747
 30
0.0
 10
19.183235
 20
18.029239
 30
0.0
 10
19.294233
 20
17.854346
 30
0.0
 10
19.426234
 20
17.694636
 30
0.0
 10
19.577234
 20
17.552848
 30
0.0
 10
19.745235
 20
17.431041
 30
0.0
 10
19.926233
 20
17.331134
 30
0.0
 10
20.119233
 20
17.254934
 30
0.0
 10
20.320235
 20
17.203344
 30
0.0
 10
20.525235
 20
17.177379
 30
0.0
 10
20.733233
 20
17.177436
 30
0.0
 10
20.938234
 20
17.203400
 30
0.0
  0
LWPOLYLINE
  5
183
100
AcDbEntity
  8
0
 62
7
100
AcDbPolyline
 90
51
 70
0
 10
134.438435
 20
17.203344
 30
0.0
 10
134.639135
 20
17.254934
 30
0.0
 10
134.831734
 20
17.331134
 30
0.0
 10
135.013333
 20
17.431041
 30
0.0
 10
135.180934
 20
17.552848
 30
0.0
 10
135.332035
 20
17.694636
 30
0.0
 10
135.464135
 20
17.854346
 30
0.0
 10
135.575133
 20
18.029239
 30
0.0
 10
135.663333
 20
18.216747
 30
0.0
 10
135.727434
 20
18.413851
 30
0.0
 10
135.766234
 20
18.617334
 30
0.0
 10
135.779245
 20
18.824146
 30
0.0
 10
135.766223
 20
19.030930
 30
0.0
 10
135.727434
 20
19.234441
 30
0.0
 10
135.663333
 20
19.431545
 30
0.0
 10
135.575133
 20
19.619053
 30
0.0
 10
135.464135
 20
19.793946
 30
0.0
 10
135.332035
 20
19.953656
 30
0.0
 10
135.180934
 20
20.095444
 30
0.0
 10
135.013333
 20
20.217251
 30
0.0
 10
134.831734
 20
20.317130
 30
0.0
 10
134.639135
 20
20.393330
 30
0.0
 10
134.438435
 20
20.444948
 30
0.0
 10
134.232833
 20
20.470913
 30
0.0
 10
134.025634
 20
20.470941
 30
0.0
 10
133.820035
 20
20.444976
 30
0.0
 10
133.619333
 20
20.393330
 30
0.0
 10
133.426733
 20
20.317130
 30
0.0
 10
133.245135
 20
20.217251
 30
0.0
 10
133.077435
 20
20.095444
 30
0.0
 10
132.926435
 20
19.953656
 30
0.0
 10
132.794335
 20
19.793946
 30
0.0
 10
132.683335
 20
19.619053
 30
0.0
 10
132.595135
 20
19.431545
 30
0.0
 10
132.531033
 20
19.234441
 30
0.0
 10
132.492234
 20
19.030930
 30
0.0
 10
132.479223
 20
18.824146
 30
0.0
 10
132.492245
 20
18.617334
 30
0.0
 10
132.531033
 20
18.413851
 30
0.0
 10
132.595135
 20
18.216747
 30
0.0
 10
132.683335
 20
18.029239
 30
0.0
 10
132.794335
 20
17.854346
 30
0.0
 10
132.926435
 20
17.694636
 30
0.0
 10
133.077435
 20
17.552848
 30
0.0
 10
133.245135
 20
17.431041
 30
0.0
 10
133.426733
 20
17.331134
 30
0.0
 10
133.619333
 20
17.254934
 30
0.0
 10
133.820035
 20
17.203344
 30
0.0
 10
134.025634
 20
17.177379
 30
0.0
 10
134.232833
 20
17.177436
 30
0.0
 10
134.438435
 20
17.203400
 30
0.0
  0
LWPOLYLINE
  5
184
100
AcDbEntity
  8
0
 62
7
100
AcDbPolyline
 90
51
 70
0
 10
206.586034
 20
13.187138
 30
0.0
 10
206.789534
 20
13.225944
 30
0.0
 10
206.986635
 20
13.290036
 30
0.0
 10
207.174135
 20
13.378231
 30
0.0
 10
207.349034
 20
13.489229
 30
0.0
 10
207.508735
 20
13.621337
 30
0.0
 10
207.650534
 20
13.772439
 30
0.0
 10
207.772333
 20
13.940022
 30
0.0
 10
207.872234
 20
14.121632
 30
0.0
 10
207.948434
 20
14.314221
 30
0.0
 10
208.000033
 20
14.514937
 30
0.0
 10
208.025941
 20
14.720536
 30
0.0
 10
208.025932
 20
14.927758
 30
0.0
 10
208.000024
 20
15.133357
 30
0.0
 10
207.948434
 20
15.334045
 30
0.0
 10
207.872234
 20
15.526633
 30
0.0
 10
207.772333
 20
15.708243
 30
0.0
 10
207.650534
 20
15.875940
 30
0.0
 10
207.508735
 20
16.026957
 30
0.0
 10
207.349034
 20
16.159037
 30
0.0
 10
207.174135
 20
16.270035
 30
0.0
 10
206.986635
 20
16.358258
 30
0.0
 10
206.789534
 20
16.422350
 30
0.0
 10
206.586034
 20
16.461156
 30
0.0
 10
206.379233
 20
16.474138
 30
0.0
 10
206.172432
 20
16.461156
 30
0.0
 10
205.968933
 20
16.422350
 30
0.0
 10
205.771835
 20
16.358258
 30
0.0
 10
205.584335
 20
16.270035
 30
0.0
 10
205.409433
 20
16.159037
 30
0.0
 10
205.249735
 20
16.026957
 30
0.0
 10
205.107932
 20
15.875940
 30
0.0
 10
204.986134
 20
15.708243
 30
0.0
 10
204.886233
 20
15.526633
 30
0.0
 10
204.810033
 20
15.334045
 30
0.0
 10
204.758434
 20
15.133357
 30
0.0
 10
204.732526
 20
14.927758
 30
0.0
 10
204.732534
 20
14.720536
 30
0.0
 10
204.758442
 20
14.514937
 30
0.0
 10
204.810033
 20
14.314221
 30
0.0
 10
204.886233
 20
14.121632
 30
0.0
 10
204.986134
 20
13.940022
 30
0.0
 10
205.107932
 20
13.772439
 30
0.0
 10
205.249735
 20
13.621337
 30
0.0
 10
205.409433
 20
13.489229
 30
0.0
 10
205.584335
 20
13.378231
 30
0.0
 10
205.771835
 20
13.290036
 30
0.0
 10
205.968933
 20
13.225944
 30
0.0
 10
206.172432
 20
13.187138
 30
0.0
 10
206.379233
 20
13.174156
 30
0.0
 10
206.586034
 20
13.187110
 30
0.0
  0
LWPOLYLINE
  5
185
100
AcDbEntity
  8
0
 62
7
100
AcDbPolyline
 90
51
 70
0
 10
12.938236
 20
9.203317
 30
0.0
 10
13.139234
 20
9.254936
 30
0.0
 10
13.332235
 20
9.331136
 30
0.0
 10
13.513235
 20
9.431043
 30
0.0
 10
13.681234
 20
9.552821
 30
0.0
 10
13.832234
 20
9.694638
 30
0.0
 10
13.964235
 20
9.854319
 30
0.0
 10
14.075233
 20
10.029241
 30
0.0
 10
14.163235
 20
10.216721
 30
0.0
 10
14.227235
 20
10.413825
 30
0.0
 10
14.266235
 20
10.617335
 30
0.0
 10
14.279246
 20
10.824120
 30
0.0
 10
14.266224
 20
11.030932
 30
0.0
 10
14.227235
 20
11.234443
 30
0.0
 10
14.163235
 20
11.431518
 30
0.0
 10
14.075233
 20
11.619027
 30
0.0
 10
13.964235
 20
11.793920
 30
0.0
 10
13.832234
 20
11.953629
 30
0.0
 10
13.681234
 20
12.095418
 30
0.0
 10
13.513235
 20
12.217225
 30
0.0
 10
13.332235
 20
12.317132
 30
0.0
 10
13.139234
 20
12.393332
 30
0.0
 10
12.938236
 20
12.444922
 30
0.0
 10
12.733235
 20
12.470886
 30
0.0
 10
12.525234
 20
12.470943
 30
0.0
 10
12.320234
 20
12.444978
 30
0.0
 10
12.119235
 20
12.393332
 30
0.0
 10
11.926235
 20
12.317132
 30
0.0
 10
11.745234
 20
12.217225
 30
0.0
 10
11.577233
 20
12.095418
 30
0.0
 10
11.426233
 20
11.953629
 30
0.0
 10
11.294235
 20
11.793920
 30
0.0
 10
11.183234
 20
11.619027
 30
0.0
 10
11.095234
 20
11.431518
 30
0.0
 10
11.031235
 20
11.234443
 30
0.0
 10
10.992234
 20
11.030932
 30
0.0
 10
10.979224
 20
10.824120
 30
0.0
 10
10.992246
 20
10.617335
 30
0.0
 10
11.031235
 20
10.413825
 30
0.0
 10
11.095234
 20
10.216721
 30
0.0
 10
11.183234
 20
10.029241
 30
0.0
 10
11.294235
 20
9.854319
 30
0.0
 10
11.426233
 20
9.694638
 30
0.0
 10
11.577233
 20
9.552821
 30
0.0
 10
11.745234
 20
9.431043
 30
0.0
 10
11.926235
 20
9.331136
 30
0.0
 10
12.119235
 20
9.254936
 30
0.0
 10
12.320234
 20
9.203317
 30
0.0
 10
12.525234
 20
9.177353
 30
0.0
 10
12.733235
 20
9.177438
 30
0.0
 10
12.938236
 20
9.203402
 30
0.0
  0
LWPOLYLINE
  5
186
100
AcDbEntity
  8
0
 62
7
100
AcDbPolyline
 90
51
 70
0
 10
285.938242
 20
9.203317
 30
0.0
 10
286.139241
 20
9.254936
 30
0.0
 10
286.332224
 20
9.331136
 30
0.0
 10
286.513242
 20
9.431043
 30
0.0
 10
286.681249
 20
9.552821
 30
0.0
 10
286.832238
 20
9.694638
 30
0.0
 10
286.964233
 20
9.854319
 30
0.0
 10
287.075231
 20
10.029241
 30
0.0
 10
287.163228
 20
10.216721
 30
0.0
 10
287.227236
 20
10.413825
 30
0.0
 10
287.266239
 20
10.617335
 30
0.0
 10
287.279221
 20
10.824120
 30
0.0
 10
287.266239
 20
11.030932
 30
0.0
 10
287.227236
 20
11.234443
 30
0.0
 10
287.163228
 20
11.431518
 30
0.0
 10
287.075231
 20
11.619027
 30
0.0
 10
286.964233
 20
11.793920
 30
0.0
 10
286.832238
 20
11.953629
 30
0.0
 10
286.681249
 20
12.095418
 30
0.0
 10
286.513242
 20
12.217225
 30
0.0
 10
286.332224
 20
12.317132
 30
0.0
 10
286.139241
 20
12.393332
 30
0.0
 10
285.938242
 20
12.444922
 30
0.0
 10
285.733236
 20
12.470886
 30
0.0
 10
285.525238
 20
12.470943
 30
0.0
 10
285.320232
 20
12.444978
 30
0.0
 10
285.119233
 20
12.393332
 30
0.0
 10
284.926222
 20
12.317132
 30
0.0
 10
284.745232
 20
12.217225
 30
0.0
 10
284.577226
 20
12.095418
 30
0.0
 10
284.426237
 20
11.953629
 30
0.0
 10
284.294241
 20
11.793920
 30
0.0
 10
284.183243
 20
11.619027
 30
0.0
 10
284.095246
 20
11.431518
 30
0.0
 10
284.031238
 20
11.234443
 30
0.0
 10
283.992235
 20
11.030932
 30
0.0
 10
283.979253
 20
10.824120
 30
0.0
 10
283.992207
 20
10.617335
 30
0.0
 10
284.031238
 20
10.413825
 30
0.0
 10
284.095246
 20
10.216721
 30
0.0
 10
284.183243
 20
10.029241
 30
0.0
 10
284.294241
 20
9.854319
 30
0.0
 10
284.426237
 20
9.694638
 30
0.0
 10
284.577226
 20
9.552821
 30
0.0
 10
284.745232
 20
9.431043
 30
0.0
 10
284.926222
 20
9.331136
 30
0.0
 10
285.119233
 20
9.254936
 30
0.0
 10
285.320232
 20
9.203317
 30
0.0
 10
285.525238
 20
9.177353
 30
0.0
 10
285.733236
 20
9.177438
 30
0.0
 10
285.938242
 20
9.203402
 30
0.0
  0
ENDSEC
  0
SECTION
  2
OBJECTS
  0
DICTIONARY
  5
C
330
0
100
AcDbDictionary
  3
ACAD_GROUP
350
D
  3
ACAD_MLINESTYLE
350
17
  0
DICTIONARY
  5
D
330
C
100
AcDbDictionary
  0
DICTIONARY
  5
1A
330
C
100
AcDbDictionary
  0
DICTIONARY
  5
17
330
C
100
AcDbDictionary
  3
STANDARD
350
18
  0
DICTIONARY
  5
19
330
C
100
AcDbDictionary
  0
ENDSEC
  0
EOF
