  0
SECTION
  2
HEADER
  9
$ACADVER
  1
AC1014
  9
$HANDSEED
  5
FFFF
  9
$MEASUREMENT
 70
     1
  0
ENDSEC
  0
SECTION
  2
TABLES
  0
TABLE
  2
VPORT
  5
8
330
0
100
AcDbSymbolTable
 70
     4
  0
VPORT
  5
2E
330
8
100
AcDbSymbolTableRecord
100
AcDbViewportTableRecord
  2
*ACTIVE
 70
     0
 10
0.0
 20
0.0
 11
1.0
 21
1.0
 12
210.0
 22
148.5
 13
0.0
 23
0.0
 14
10.0
 24
10.0
 15
10.0
 25
10.0
 16
0.0
 26
0.0
 36
1.0
 17
0.0
 27
0.0
 37
0.0
 40
341.0
 41
1.24
 42
50.0
 43
0.0
 44
0.0
 50
0.0
 51
0.0
 71
     0
 72
   100
 73
     1
 74
     3
 75
     0
 76
     0
 77
     0
 78
     0
  0
ENDTAB
  0
TABLE
  2
LTYPE
  5
5
330
0
100
AcDbSymbolTable
 70
     1
  0
LTYPE
  5
14
330
5
100
AcDbSymbolTableRecord
100
AcDbLinetypeTableRecord
  2
BYBLOCK
 70
     0
  3

 72
    65
 73
     0
 40
0.0
  0
LTYPE
  5
15
330
5
100
AcDbSymbolTableRecord
100
AcDbLinetypeTableRecord
  2
BYLAYER
 70
     0
  3

 72
    65
 73
     0
 40
0.0
  0
LTYPE
  5
16
330
5
100
AcDbSymbolTableRecord
100
AcDbLinetypeTableRecord
  2
CONTINUOUS
 70
     0
  3
Solid line
 72
    65
 73
     0
 40
0.0
  0
ENDTAB
  0
TABLE
  2
LAYER
  5
2
100
AcDbSymbolTable
 70
1
  0
LAYER
  5
50
100
AcDbSymbolTableRecord
100
AcDbLayerTableRecord
  2
0
 70
0
  6
CONTINUOUS
  0
ENDTAB
  0
TABLE
  2
STYLE
  5
3
330
0
100
AcDbSymbolTable
 70
     1
  0
STYLE
  5
11
330
3
100
AcDbSymbolTableRecord
100
AcDbTextStyleTableRecord
  2
STANDARD
 70
     0
 40
0.0
 41
1.0
 50
0.0
 71
     0
 42
2.5
  3
txt
  4

  0
ENDTAB
  0
TABLE
  2
VIEW
  5
6
330
0
100
AcDbSymbolTable
 70
     0
  0
ENDTAB
  0
TABLE
  2
UCS
  5
7
330
0
100
AcDbSymbolTable
 70
     0
  0
ENDTAB
  0
TABLE
  2
APPID
  5
9
330
0
100
AcDbSymbolTable
 70
     2
  0
APPID
  5
12
330
9
100
AcDbSymbolTableRecord
100
AcDbRegAppTableRecord
  2
ACAD
 70
     0
  0
ENDTAB
  0
TABLE
  2
DIMSTYLE
  5
A
330
0
100
AcDbSymbolTable
 70
     1
  0
DIMSTYLE
105
27
330
A
100
AcDbSymbolTableRecord
100
AcDbDimStyleTableRecord
  2
ISO-25
 70
     0
  3

  4

  5

  6

  7

 40
1.0
 41
2.5
 42
0.625
 43
3.75
 44
1.25
 45
0.0
 46
0.0
 47
0.0
 48
0.0
140
2.5
141
2.5
142
0.0
143
0.03937007874016
144
1.0
145
0.0
146
1.0
147
0.625
 71
     0
 72
     0
 73
     0
 74
     0
 75
     0
 76
     0
 77
     1
 78
     8
170
     0
171
     3
172
     1
173
     0
174
     0
175
     0
176
     0
177
     0
178
     0
270
     2
271
     2
272
     2
273
     2
274
     3
340
11
275
     0
280
     0
281
     0
282
     0
283
     0
284
     8
285
     0
286
     0
287
     3
288
     0
  0
ENDTAB
  0
TABLE
  2
BLOCK_RECORD
  5
1
330
0
100
AcDbSymbolTable
 70
     1
  0
BLOCK_RECORD
  5
1F
330
1
100
AcDbSymbolTableRecord
100
AcDbBlockTableRecord
  2
*MODEL_SPACE
  0
BLOCK_RECORD
  5
1B
330
1
100
AcDbSymbolTableRecord
100
AcDbBlockTableRecord
  2
*PAPER_SPACE
  0
ENDTAB
  0
ENDSEC
  0
SECTION
  2
BLOCKS
  0
BLOCK
  5
20
330
1F
100
AcDbEntity
  8
0
100
AcDbBlockBegin
  2
*MODEL_SPACE
 70
     0
 10
0.0
 20
0.0
 30
0.0
  3
*MODEL_SPACE
  1

  0
ENDBLK
  5
21
330
1F
100
AcDbEntity
  8
0
100
AcDbBlockEnd
  0
BLOCK
  5
1C
330
1B
100
AcDbEntity
 67
     1
  8
0
100
AcDbBlockBegin
  2
*PAPER_SPACE
  1

  0
ENDBLK
  5
1D
330
1B
100
AcDbEntity
 67
     1
  8
0
100
AcDbBlockEnd
  0
ENDSEC
  0
SECTION
  2
ENTITIES
  0
LWPOLYLINE
  5
100
100
AcDbEntity
  8
0
 62
7
100
AcDbPolyline
 90
53
 70
0
 10
-138.814000
 20
-99.990100
 30
0.0
 10
-139.437000
 20
-99.911400
 30
0.0
 10
-140.045000
 20
-99.755300
 30
0.0
 10
-140.629000
 20
-99.524100
 30
0.0
 10
-141.179000
 20
-99.221600
 30
0.0
 10
-141.687000
 20
-98.852600
 30
0.0
 10
-142.145000
 20
-98.422700
 30
0.0
 10
-142.545000
 20
-97.938900
 30
0.0
 10
-142.882000
 20
-97.408800
 30
0.0
 10
-143.149000
 20
-96.840600
 30
0.0
 10
-143.343000
 20
-96.243400
 30
0.0
 10
-143.461000
 20
-95.626700
 30
0.0
 10
-143.500000
 20
-95.000000
 30
0.0
 10
-143.500000
 20
95.000000
 30
0.0
 10
-143.461000
 20
95.626700
 30
0.0
 10
-143.343000
 20
96.243400
 30
0.0
 10
-143.149000
 20
96.840600
 30
0.0
 10
-142.882000
 20
97.408800
 30
0.0
 10
-142.545000
 20
97.938900
 30
0.0
 10
-142.145000
 20
98.422700
 30
0.0
 10
-141.687000
 20
98.852600
 30
0.0
 10
-141.179000
 20
99.221600
 30
0.0
 10
-140.629000
 20
99.524100
 30
0.0
 10
-140.045000
 20
99.755300
 30
0.0
 10
-139.437000
 20
99.911400
 30
0.0
 10
-138.814000
 20
99.990100
 30
0.0
 10
138.814000
 20
99.990100
 30
0.0
 10
139.437000
 20
99.911400
 30
0.0
 10
140.045000
 20
99.755300
 30
0.0
 10
140.629000
 20
99.524100
 30
0.0
 10
141.179000
 20
99.221600
 30
0.0
 10
141.687000
 20
98.852600
 30
0.0
 10
142.145000
 20
98.422700
 30
0.0
 10
142.545000
 20
97.938900
 30
0.0
 10
142.882000
 20
97.408800
 30
0.0
 10
143.149000
 20
96.840600
 30
0.0
 10
143.343000
 20
96.243400
 30
0.0
 10
143.461000
 20
95.626700
 30
0.0
 10
143.500000
 20
95.000000
 30
0.0
 10
143.500000
 20
-95.000000
 30
0.0
 10
143.461000
 20
-95.626700
 30
0.0
 10
143.343000
 20
-96.243400
 30
0.0
 10
143.149000
 20
-96.840600
 30
0.0
 10
142.882000
 20
-97.408800
 30
0.0
 10
142.545000
 20
-97.938900
 30
0.0
 10
142.145000
 20
-98.422700
 30
0.0
 10
141.687000
 20
-98.852600
 30
0.0
 10
141.179000
 20
-99.221600
 30
0.0
 10
140.629000
 20
-99.524100
 30
0.0
 10
140.045000
 20
-99.755300
 30
0.0
 10
139.437000
 20
-99.911400
 30
0.0
 10
138.814000
 20
-99.990100
 30
0.0
 10
-138.814000
 20
-99.990100
 30
0.0
  0
LWPOLYLINE
  5
101
100
AcDbEntity
  8
0
 62
7
100
AcDbPolyline
 90
51
 70
0
 10
0.309174
 20
91.379200
 30
0.0
 10
0.509872
 20
91.430800
 30
0.0
 10
0.702530
 20
91.507000
 30
0.0
 10
0.884109
 20
91.606900
 30
0.0
 10
1.051740
 20
91.728700
 30
0.0
 10
1.202790
 20
91.870500
 30
0.0
 10
1.334870
 20
92.030200
 30
0.0
 10
1.445890
 20
92.205100
 30
0.0
 10
1.534120
 20
92.392600
 30
0.0
 10
1.598160
 20
92.589700
 30
0.0
 10
1.636980
 20
92.793200
 30
0.0
 10
1.649990
 20
93.000000
 30
0.0
 10
1.636980
 20
93.206800
 30
0.0
 10
1.598160
 20
93.410300
 30
0.0
 10
1.534120
 20
93.607400
 30
0.0
 10
1.445890
 20
93.794900
 30
0.0
 10
1.334870
 20
93.969800
 30
0.0
 10
1.202790
 20
94.129500
 30
0.0
 10
1.051740
 20
94.271300
 30
0.0
 10
0.884109
 20
94.393100
 30
0.0
 10
0.702530
 20
94.493000
 30
0.0
 10
0.509872
 20
94.569200
 30
0.0
 10
0.309174
 20
94.620800
 30
0.0
 10
0.103592
 20
94.646700
 30
0.0
 10
-0.103592
 20
94.646700
 30
0.0
 10
-0.309174
 20
94.620800
 30
0.0
 10
-0.509872
 20
94.569200
 30
0.0
 10
-0.702530
 20
94.493000
 30
0.0
 10
-0.884109
 20
94.393100
 30
0.0
 10
-1.051740
 20
94.271300
 30
0.0
 10
-1.202790
 20
94.129500
 30
0.0
 10
-1.334870
 20
93.969800
 30
0.0
 10
-1.445890
 20
93.794900
 30
0.0
 10
-1.534120
 20
93.607400
 30
0.0
 10
-1.598160
 20
93.410300
 30
0.0
 10
-1.636980
 20
93.206800
 30
0.0
 10
-1.649990
 20
93.000000
 30
0.0
 10
-1.636980
 20
92.793200
 30
0.0
 10
-1.598160
 20
92.589700
 30
0.0
 10
-1.534120
 20
92.392600
 30
0.0
 10
-1.445890
 20
92.205100
 30
0.0
 10
-1.334870
 20
92.030200
 30
0.0
 10
-1.202790
 20
91.870500
 30
0.0
 10
-1.051740
 20
91.728700
 30
0.0
 10
-0.884109
 20
91.606900
 30
0.0
 10
-0.702530
 20
91.507000
 30
0.0
 10
-0.509872
 20
91.430800
 30
0.0
 10
-0.309174
 20
91.379200
 30
0.0
 10
-0.103592
 20
91.353200
 30
0.0
 10
0.103592
 20
91.353200
 30
0.0
 10
0.309174
 20
91.379200
 30
0.0
  0
LWPOLYLINE
  5
102
100
AcDbEntity
  8
0
 62
7
100
AcDbPolyline
 90
51
 70
0
 10
136.809000
 20
91.379200
 30
0.0
 10
137.010000
 20
91.430800
 30
0.0
 10
137.203000
 20
91.507000
 30
0.0
 10
137.384000
 20
91.606900
 30
0.0
 10
137.552000
 20
91.728700
 30
0.0
 10
137.703000
 20
91.870500
 30
0.0
 10
137.835000
 20
92.030200
 30
0.0
 10
137.946000
 20
92.205100
 30
0.0
 10
138.034000
 20
92.392600
 30
0.0
 10
138.098000
 20
92.589700
 30
0.0
 10
138.137000
 20
92.793200
 30
0.0
 10
138.150000
 20
93.000000
 30
0.0
 10
138.137000
 20
93.206800
 30
0.0
 10
138.098000
 20
93.410300
 30
0.0
 10
138.034000
 20
93.607400
 30
0.0
 10
137.946000
 20
93.794900
 30
0.0
 10
137.835000
 20
93.969800
 30
0.0
 10
137.703000
 20
94.129500
 30
0.0
 10
137.552000
 20
94.271300
 30
0.0
 10
137.384000
 20
94.393100
 30
0.0
 10
137.203000
 20
94.493000
 30
0.0
 10
137.010000
 20
94.569200
 30
0.0
 10
136.809000
 20
94.620800
 30
0.0
 10
136.604000
 20
94.646700
 30
0.0
 10
136.396000
 20
94.646700
 30
0.0
 10
136.191000
 20
94.620800
 30
0.0
 10
135.990000
 20
94.569200
 30
0.0
 10
135.797000
 20
94.493000
 30
0.0
 10
135.616000
 20
94.393100
 30
0.0
 10
135.448000
 20
94.271300
 30
0.0
 10
135.297000
 20
94.129500
 30
0.0
 10
135.165000
 20
93.969800
 30
0.0
 10
135.054000
 20
93.794900
 30
0.0
 10
134.966000
 20
93.607400
 30
0.0
 10
134.902000
 20
93.410300
 30
0.0
 10
134.863000
 20
93.206800
 30
0.0
 10
134.850000
 20
93.000000
 30
0.0
 10
134.863000
 20
92.793200
 30
0.0
 10
134.902000
 20
92.589700
 30
0.0
 10
134.966000
 20
92.392600
 30
0.0
 10
135.054000
 20
92.205100
 30
0.0
 10
135.165000
 20
92.030200
 30
0.0
 10
135.297000
 20
91.870500
 30
0.0
 10
135.448000
 20
91.728700
 30
0.0
 10
135.616000
 20
91.606900
 30
0.0
 10
135.797000
 20
91.507000
 30
0.0
 10
135.990000
 20
91.430800
 30
0.0
 10
136.191000
 20
91.379200
 30
0.0
 10
136.396000
 20
91.353200
 30
0.0
 10
136.604000
 20
91.353200
 30
0.0
 10
136.809000
 20
91.379200
 30
0.0
  0
LWPOLYLINE
  5
103
100
AcDbEntity
  8
0
 62
7
100
AcDbPolyline
 90
51
 70
0
 10
-136.191000
 20
91.379200
 30
0.0
 10
-135.990000
 20
91.430800
 30
0.0
 10
-135.797000
 20
91.507000
 30
0.0
 10
-135.616000
 20
91.606900
 30
0.0
 10
-135.448000
 20
91.728700
 30
0.0
 10
-135.297000
 20
91.870500
 30
0.0
 10
-135.165000
 20
92.030200
 30
0.0
 10
-135.054000
 20
92.205100
 30
0.0
 10
-134.966000
 20
92.392600
 30
0.0
 10
-134.902000
 20
92.589700
 30
0.0
 10
-134.863000
 20
92.793200
 30
0.0
 10
-134.850000
 20
93.000000
 30
0.0
 10
-134.863000
 20
93.206800
 30
0.0
 10
-134.902000
 20
93.410300
 30
0.0
 10
-134.966000
 20
93.607400
 30
0.0
 10
-135.054000
 20
93.794900
 30
0.0
 10
-135.165000
 20
93.969800
 30
0.0
 10
-135.297000
 20
94.129500
 30
0.0
 10
-135.448000
 20
94.271300
 30
0.0
 10
-135.616000
 20
94.393100
 30
0.0
 10
-135.797000
 20
94.493000
 30
0.0
 10
-135.990000
 20
94.569200
 30
0.0
 10
-136.191000
 20
94.620800
 30
0.0
 10
-136.396000
 20
94.646700
 30
0.0
 10
-136.604000
 20
94.646700
 30
0.0
 10
-136.809000
 20
94.620800
 30
0.0
 10
-137.010000
 20
94.569200
 30
0.0
 10
-137.203000
 20
94.493000
 30
0.0
 10
-137.384000
 20
94.393100
 30
0.0
 10
-137.552000
 20
94.271300
 30
0.0
 10
-137.703000
 20
94.129500
 30
0.0
 10
-137.835000
 20
93.969800
 30
0.0
 10
-137.946000
 20
93.794900
 30
0.0
 10
-138.034000
 20
93.607400
 30
0.0
 10
-138.098000
 20
93.410300
 30
0.0
 10
-138.137000
 20
93.206800
 30
0.0
 10
-138.150000
 20
93.000000
 30
0.0
 10
-138.137000
 20
92.793200
 30
0.0
 10
-138.098000
 20
92.589700
 30
0.0
 10
-138.034000
 20
92.392600
 30
0.0
 10
-137.946000
 20
92.205100
 30
0.0
 10
-137.835000
 20
92.030200
 30
0.0
 10
-137.703000
 20
91.870500
 30
0.0
 10
-137.552000
 20
91.728700
 30
0.0
 10
-137.384000
 20
91.606900
 30
0.0
 10
-137.203000
 20
91.507000
 30
0.0
 10
-137.010000
 20
91.430800
 30
0.0
 10
-136.809000
 20
91.379200
 30
0.0
 10
-136.604000
 20
91.353200
 30
0.0
 10
-136.396000
 20
91.353200
 30
0.0
 10
-136.191000
 20
91.379200
 30
0.0
  0
LWPOLYLINE
  5
104
100
AcDbEntity
  8
0
 62
7
100
AcDbPolyline
 90
51
 70
0
 10
34.559200
 20
88.879200
 30
0.0
 10
34.759900
 20
88.930800
 30
0.0
 10
34.952500
 20
89.007000
 30
0.0
 10
35.134100
 20
89.106900
 30
0.0
 10
35.301800
 20
89.228700
 30
0.0
 10
35.452800
 20
89.370500
 30
0.0
 10
35.584900
 20
89.530200
 30
0.0
 10
35.695900
 20
89.705100
 30
0.0
 10
35.784100
 20
89.892600
 30
0.0
 10
35.848200
 20
90.089700
 30
0.0
 10
35.887000
 20
90.293200
 30
0.0
 10
35.900000
 20
90.500000
 30
0.0
 10
35.887000
 20
90.706800
 30
0.0
 10
35.848200
 20
90.910300
 30
0.0
 10
35.784100
 20
91.107400
 30
0.0
 10
35.695900
 20
91.294900
 30
0.0
 10
35.584900
 20
91.469800
 30
0.0
 10
35.452800
 20
91.629500
 30
0.0
 10
35.301800
 20
91.771300
 30
0.0
 10
35.134100
 20
91.893100
 30
0.0
 10
34.952500
 20
91.993000
 30
0.0
 10
34.759900
 20
92.069200
 30
0.0
 10
34.559200
 20
92.120800
 30
0.0
 10
34.353600
 20
92.146700
 30
0.0
 10
34.146400
 20
92.146700
 30
0.0
 10
33.940800
 20
92.120800
 30
0.0
 10
33.740100
 20
92.069200
 30
0.0
 10
33.547500
 20
91.993000
 30
0.0
 10
33.365900
 20
91.893100
 30
0.0
 10
33.198300
 20
91.771300
 30
0.0
 10
33.047200
 20
91.629500
 30
0.0
 10
32.915100
 20
91.469800
 30
0.0
 10
32.804100
 20
91.294900
 30
0.0
 10
32.715900
 20
91.107400
 30
0.0
 10
32.651800
 20
90.910300
 30
0.0
 10
32.613000
 20
90.706800
 30
0.0
 10
32.600000
 20
90.500000
 30
0.0
 10
32.613000
 20
90.293200
 30
0.0
 10
32.651800
 20
90.089700
 30
0.0
 10
32.715900
 20
89.892600
 30
0.0
 10
32.804100
 20
89.705100
 30
0.0
 10
32.915100
 20
89.530200
 30
0.0
 10
33.047200
 20
89.370500
 30
0.0
 10
33.198300
 20
89.228700
 30
0.0
 10
33.365900
 20
89.106900
 30
0.0
 10
33.547500
 20
89.007000
 30
0.0
 10
33.740100
 20
88.930800
 30
0.0
 10
33.940800
 20
88.879200
 30
0.0
 10
34.146400
 20
88.853200
 30
0.0
 10
34.353600
 20
88.853200
 30
0.0
 10
34.559200
 20
88.879200
 30
0.0
  0
LWPOLYLINE
  5
105
100
AcDbEntity
  8
0
 62
7
100
AcDbPolyline
 90
51
 70
0
 10
109.559000
 20
88.879200
 30
0.0
 10
109.760000
 20
88.930800
 30
0.0
 10
109.953000
 20
89.007000
 30
0.0
 10
110.134000
 20
89.106900
 30
0.0
 10
110.302000
 20
89.228700
 30
0.0
 10
110.453000
 20
89.370500
 30
0.0
 10
110.585000
 20
89.530200
 30
0.0
 10
110.696000
 20
89.705100
 30
0.0
 10
110.784000
 20
89.892600
 30
0.0
 10
110.848000
 20
90.089700
 30
0.0
 10
110.887000
 20
90.293200
 30
0.0
 10
110.900000
 20
90.500000
 30
0.0
 10
110.887000
 20
90.706800
 30
0.0
 10
110.848000
 20
90.910300
 30
0.0
 10
110.784000
 20
91.107400
 30
0.0
 10
110.696000
 20
91.294900
 30
0.0
 10
110.585000
 20
91.469800
 30
0.0
 10
110.453000
 20
91.629500
 30
0.0
 10
110.302000
 20
91.771300
 30
0.0
 10
110.134000
 20
91.893100
 30
0.0
 10
109.953000
 20
91.993000
 30
0.0
 10
109.760000
 20
92.069200
 30
0.0
 10
109.559000
 20
92.120800
 30
0.0
 10
109.354000
 20
92.146700
 30
0.0
 10
109.146000
 20
92.146700
 30
0.0
 10
108.941000
 20
92.120800
 30
0.0
 10
108.740000
 20
92.069200
 30
0.0
 10
108.547000
 20
91.993000
 30
0.0
 10
108.366000
 20
91.893100
 30
0.0
 10
108.198000
 20
91.771300
 30
0.0
 10
108.047000
 20
91.629500
 30
0.0
 10
107.915000
 20
91.469800
 30
0.0
 10
107.804000
 20
91.294900
 30
0.0
 10
107.716000
 20
91.107400
 30
0.0
 10
107.652000
 20
90.910300
 30
0.0
 10
107.613000
 20
90.706800
 30
0.0
 10
107.600000
 20
90.500000
 30
0.0
 10
107.613000
 20
90.293200
 30
0.0
 10
107.652000
 20
90.089700
 30
0.0
 10
107.716000
 20
89.892600
 30
0.0
 10
107.804000
 20
89.705100
 30
0.0
 10
107.915000
 20
89.530200
 30
0.0
 10
108.047000
 20
89.370500
 30
0.0
 10
108.198000
 20
89.228700
 30
0.0
 10
108.366000
 20
89.106900
 30
0.0
 10
108.547000
 20
89.007000
 30
0.0
 10
108.740000
 20
88.930800
 30
0.0
 10
108.941000
 20
88.879200
 30
0.0
 10
109.146000
 20
88.853200
 30
0.0
 10
109.354000
 20
88.853200
 30
0.0
 10
109.559000
 20
88.879200
 30
0.0
  0
LWPOLYLINE
  5
106
100
AcDbEntity
  8
0
 62
7
100
AcDbPolyline
 90
5
 70
0
 10
107.500000
 20
87.250000
 30
0.0
 10
36.000000
 20
87.250000
 30
0.0
 10
36.000000
 20
62.750000
 30
0.0
 10
107.500000
 20
62.750000
 30
0.0
 10
107.500000
 20
87.250000
 30
0.0
  0
LWPOLYLINE
  5
107
100
AcDbEntity
  8
0
 62
7
100
AcDbPolyline
 90
51
 70
0
 10
-14.690800
 20
83.379200
 30
0.0
 10
-14.490100
 20
83.430800
 30
0.0
 10
-14.297500
 20
83.507000
 30
0.0
 10
-14.115900
 20
83.606900
 30
0.0
 10
-13.948300
 20
83.728700
 30
0.0
 10
-13.797200
 20
83.870500
 30
0.0
 10
-13.665100
 20
84.030200
 30
0.0
 10
-13.554100
 20
84.205100
 30
0.0
 10
-13.465900
 20
84.392600
 30
0.0
 10
-13.401800
 20
84.589700
 30
0.0
 10
-13.363000
 20
84.793200
 30
0.0
 10
-13.350000
 20
85.000000
 30
0.0
 10
-13.363000
 20
85.206800
 30
0.0
 10
-13.401800
 20
85.410300
 30
0.0
 10
-13.465900
 20
85.607400
 30
0.0
 10
-13.554100
 20
85.794900
 30
0.0
 10
-13.665100
 20
85.969800
 30
0.0
 10
-13.797200
 20
86.129500
 30
0.0
 10
-13.948300
 20
86.271300
 30
0.0
 10
-14.115900
 20
86.393100
 30
0.0
 10
-14.297500
 20
86.493000
 30
0.0
 10
-14.490100
 20
86.569200
 30
0.0
 10
-14.690800
 20
86.620800
 30
0.0
 10
-14.896400
 20
86.646700
 30
0.0
 10
-15.103600
 20
86.646700
 30
0.0
 10
-15.309200
 20
86.620800
 30
0.0
 10
-15.509900
 20
86.569200
 30
0.0
 10
-15.702500
 20
86.493000
 30
0.0
 10
-15.884100
 20
86.393100
 30
0.0
 10
-16.051800
 20
86.271300
 30
0.0
 10
-16.202800
 20
86.129500
 30
0.0
 10
-16.334900
 20
85.969800
 30
0.0
 10
-16.445900
 20
85.794900
 30
0.0
 10
-16.534100
 20
85.607400
 30
0.0
 10
-16.598200
 20
85.410300
 30
0.0
 10
-16.637000
 20
85.206800
 30
0.0
 10
-16.650000
 20
85.000000
 30
0.0
 10
-16.637000
 20
84.793200
 30
0.0
 10
-16.598200
 20
84.589700
 30
0.0
 10
-16.534100
 20
84.392600
 30
0.0
 10
-16.445900
 20
84.205100
 30
0.0
 10
-16.334900
 20
84.030200
 30
0.0
 10
-16.202800
 20
83.870500
 30
0.0
 10
-16.051800
 20
83.728700
 30
0.0
 10
-15.884100
 20
83.606900
 30
0.0
 10
-15.702500
 20
83.507000
 30
0.0
 10
-15.509900
 20
83.430800
 30
0.0
 10
-15.309200
 20
83.379200
 30
0.0
 10
-15.103600
 20
83.353200
 30
0.0
 10
-14.896400
 20
83.353200
 30
0.0
 10
-14.690800
 20
83.379200
 30
0.0
  0
LWPOLYLINE
  5
108
100
AcDbEntity
  8
0
 62
7
100
AcDbPolyline
 90
51
 70
0
 10
-128.191000
 20
83.379200
 30
0.0
 10
-127.990000
 20
83.430800
 30
0.0
 10
-127.797000
 20
83.507000
 30
0.0
 10
-127.616000
 20
83.606900
 30
0.0
 10
-127.448000
 20
83.728700
 30
0.0
 10
-127.297000
 20
83.870500
 30
0.0
 10
-127.165000
 20
84.030200
 30
0.0
 10
-127.054000
 20
84.205100
 30
0.0
 10
-126.966000
 20
84.392600
 30
0.0
 10
-126.902000
 20
84.589700
 30
0.0
 10
-126.863000
 20
84.793200
 30
0.0
 10
-126.850000
 20
85.000000
 30
0.0
 10
-126.863000
 20
85.206800
 30
0.0
 10
-126.902000
 20
85.410300
 30
0.0
 10
-126.966000
 20
85.607400
 30
0.0
 10
-127.054000
 20
85.794900
 30
0.0
 10
-127.165000
 20
85.969800
 30
0.0
 10
-127.297000
 20
86.129500
 30
0.0
 10
-127.448000
 20
86.271300
 30
0.0
 10
-127.616000
 20
86.393100
 30
0.0
 10
-127.797000
 20
86.493000
 30
0.0
 10
-127.990000
 20
86.569200
 30
0.0
 10
-128.191000
 20
86.620800
 30
0.0
 10
-128.396000
 20
86.646700
 30
0.0
 10
-128.604000
 20
86.646700
 30
0.0
 10
-128.809000
 20
86.620800
 30
0.0
 10
-129.010000
 20
86.569200
 30
0.0
 10
-129.203000
 20
86.493000
 30
0.0
 10
-129.384000
 20
86.393100
 30
0.0
 10
-129.552000
 20
86.271300
 30
0.0
 10
-129.703000
 20
86.129500
 30
0.0
 10
-129.835000
 20
85.969800
 30
0.0
 10
-129.946000
 20
85.794900
 30
0.0
 10
-130.034000
 20
85.607400
 30
0.0
 10
-130.098000
 20
85.410300
 30
0.0
 10
-130.137000
 20
85.206800
 30
0.0
 10
-130.150000
 20
85.000000
 30
0.0
 10
-130.137000
 20
84.793200
 30
0.0
 10
-130.098000
 20
84.589700
 30
0.0
 10
-130.034000
 20
84.392600
 30
0.0
 10
-129.946000
 20
84.205100
 30
0.0
 10
-129.835000
 20
84.030200
 30
0.0
 10
-129.703000
 20
83.870500
 30
0.0
 10
-129.552000
 20
83.728700
 30
0.0
 10
-129.384000
 20
83.606900
 30
0.0
 10
-129.203000
 20
83.507000
 30
0.0
 10
-129.010000
 20
83.430800
 30
0.0
 10
-128.809000
 20
83.379200
 30
0.0
 10
-128.604000
 20
83.353200
 30
0.0
 10
-128.396000
 20
83.353200
 30
0.0
 10
-128.191000
 20
83.379200
 30
0.0
  0
LWPOLYLINE
  5
109
100
AcDbEntity
  8
0
 62
7
100
AcDbPolyline
 90
51
 70
0
 10
109.559000
 20
57.879200
 30
0.0
 10
109.760000
 20
57.930800
 30
0.0
 10
109.953000
 20
58.007000
 30
0.0
 10
110.134000
 20
58.106900
 30
0.0
 10
110.302000
 20
58.228700
 30
0.0
 10
110.453000
 20
58.370500
 30
0.0
 10
110.585000
 20
58.530200
 30
0.0
 10
110.696000
 20
58.705100
 30
0.0
 10
110.784000
 20
58.892600
 30
0.0
 10
110.848000
 20
59.089700
 30
0.0
 10
110.887000
 20
59.293200
 30
0.0
 10
110.900000
 20
59.500000
 30
0.0
 10
110.887000
 20
59.706800
 30
0.0
 10
110.848000
 20
59.910300
 30
0.0
 10
110.784000
 20
60.107400
 30
0.0
 10
110.696000
 20
60.294900
 30
0.0
 10
110.585000
 20
60.469800
 30
0.0
 10
110.453000
 20
60.629500
 30
0.0
 10
110.302000
 20
60.771300
 30
0.0
 10
110.134000
 20
60.893100
 30
0.0
 10
109.953000
 20
60.993000
 30
0.0
 10
109.760000
 20
61.069200
 30
0.0
 10
109.559000
 20
61.120800
 30
0.0
 10
109.354000
 20
61.146800
 30
0.0
 10
109.146000
 20
61.146800
 30
0.0
 10
108.941000
 20
61.120800
 30
0.0
 10
108.740000
 20
61.069200
 30
0.0
 10
108.547000
 20
60.993000
 30
0.0
 10
108.366000
 20
60.893100
 30
0.0
 10
108.198000
 20
60.771300
 30
0.0
 10
108.047000
 20
60.629500
 30
0.0
 10
107.915000
 20
60.469800
 30
0.0
 10
107.804000
 20
60.294900
 30
0.0
 10
107.716000
 20
60.107400
 30
0.0
 10
107.652000
 20
59.910300
 30
0.0
 10
107.613000
 20
59.706800
 30
0.0
 10
107.600000
 20
59.500000
 30
0.0
 10
107.613000
 20
59.293200
 30
0.0
 10
107.652000
 20
59.089700
 30
0.0
 10
107.716000
 20
58.892600
 30
0.0
 10
107.804000
 20
58.705100
 30
0.0
 10
107.915000
 20
58.530200
 30
0.0
 10
108.047000
 20
58.370500
 30
0.0
 10
108.198000
 20
58.228700
 30
0.0
 10
108.366000
 20
58.106900
 30
0.0
 10
108.547000
 20
58.007000
 30
0.0
 10
108.740000
 20
57.930800
 30
0.0
 10
108.941000
 20
57.879200
 30
0.0
 10
109.146000
 20
57.853300
 30
0.0
 10
109.354000
 20
57.853300
 30
0.0
 10
109.559000
 20
57.879200
 30
0.0
  0
LWPOLYLINE
  5
10a
100
AcDbEntity
  8
0
 62
7
100
AcDbPolyline
 90
51
 70
0
 10
34.559200
 20
57.879200
 30
0.0
 10
34.759900
 20
57.930800
 30
0.0
 10
34.952500
 20
58.007000
 30
0.0
 10
35.134100
 20
58.106900
 30
0.0
 10
35.301800
 20
58.228700
 30
0.0
 10
35.452800
 20
58.370500
 30
0.0
 10
35.584900
 20
58.530200
 30
0.0
 10
35.695900
 20
58.705100
 30
0.0
 10
35.784100
 20
58.892600
 30
0.0
 10
35.848200
 20
59.089700
 30
0.0
 10
35.887000
 20
59.293200
 30
0.0
 10
35.900000
 20
59.500000
 30
0.0
 10
35.887000
 20
59.706800
 30
0.0
 10
35.848200
 20
59.910300
 30
0.0
 10
35.784100
 20
60.107400
 30
0.0
 10
35.695900
 20
60.294900
 30
0.0
 10
35.584900
 20
60.469800
 30
0.0
 10
35.452800
 20
60.629500
 30
0.0
 10
35.301800
 20
60.771300
 30
0.0
 10
35.134100
 20
60.893100
 30
0.0
 10
34.952500
 20
60.993000
 30
0.0
 10
34.759900
 20
61.069200
 30
0.0
 10
34.559200
 20
61.120800
 30
0.0
 10
34.353600
 20
61.146800
 30
0.0
 10
34.146400
 20
61.146800
 30
0.0
 10
33.940800
 20
61.120800
 30
0.0
 10
33.740100
 20
61.069200
 30
0.0
 10
33.547500
 20
60.993000
 30
0.0
 10
33.365900
 20
60.893100
 30
0.0
 10
33.198300
 20
60.771300
 30
0.0
 10
33.047200
 20
60.629500
 30
0.0
 10
32.915100
 20
60.469800
 30
0.0
 10
32.804100
 20
60.294900
 30
0.0
 10
32.715900
 20
60.107400
 30
0.0
 10
32.651800
 20
59.910300
 30
0.0
 10
32.613000
 20
59.706800
 30
0.0
 10
32.600000
 20
59.500000
 30
0.0
 10
32.613000
 20
59.293200
 30
0.0
 10
32.651800
 20
59.089700
 30
0.0
 10
32.715900
 20
58.892600
 30
0.0
 10
32.804100
 20
58.705100
 30
0.0
 10
32.915100
 20
58.530200
 30
0.0
 10
33.047200
 20
58.370500
 30
0.0
 10
33.198300
 20
58.228700
 30
0.0
 10
33.365900
 20
58.106900
 30
0.0
 10
33.547500
 20
58.007000
 30
0.0
 10
33.740100
 20
57.930800
 30
0.0
 10
33.940800
 20
57.879200
 30
0.0
 10
34.146400
 20
57.853300
 30
0.0
 10
34.353600
 20
57.853300
 30
0.0
 10
34.559200
 20
57.879200
 30
0.0
  0
LWPOLYLINE
  5
10b
100
AcDbEntity
  8
0
 62
7
100
AcDbPolyline
 90
51
 70
0
 10
102.809000
 20
41.379200
 30
0.0
 10
103.010000
 20
41.430800
 30
0.0
 10
103.203000
 20
41.507000
 30
0.0
 10
103.384000
 20
41.606900
 30
0.0
 10
103.552000
 20
41.728700
 30
0.0
 10
103.703000
 20
41.870500
 30
0.0
 10
103.835000
 20
42.030200
 30
0.0
 10
103.946000
 20
42.205100
 30
0.0
 10
104.034000
 20
42.392600
 30
0.0
 10
104.098000
 20
42.589700
 30
0.0
 10
104.137000
 20
42.793200
 30
0.0
 10
104.150000
 20
43.000000
 30
0.0
 10
104.137000
 20
43.206800
 30
0.0
 10
104.098000
 20
43.410300
 30
0.0
 10
104.034000
 20
43.607400
 30
0.0
 10
103.946000
 20
43.794900
 30
0.0
 10
103.835000
 20
43.969800
 30
0.0
 10
103.703000
 20
44.129500
 30
0.0
 10
103.552000
 20
44.271300
 30
0.0
 10
103.384000
 20
44.393100
 30
0.0
 10
103.203000
 20
44.493000
 30
0.0
 10
103.010000
 20
44.569200
 30
0.0
 10
102.809000
 20
44.620800
 30
0.0
 10
102.604000
 20
44.646700
 30
0.0
 10
102.396000
 20
44.646700
 30
0.0
 10
102.191000
 20
44.620800
 30
0.0
 10
101.990000
 20
44.569200
 30
0.0
 10
101.797000
 20
44.493000
 30
0.0
 10
101.616000
 20
44.393100
 30
0.0
 10
101.448000
 20
44.271300
 30
0.0
 10
101.297000
 20
44.129500
 30
0.0
 10
101.165000
 20
43.969800
 30
0.0
 10
101.054000
 20
43.794900
 30
0.0
 10
100.966000
 20
43.607400
 30
0.0
 10
100.902000
 20
43.410300
 30
0.0
 10
100.863000
 20
43.206800
 30
0.0
 10
100.850000
 20
43.000000
 30
0.0
 10
100.863000
 20
42.793200
 30
0.0
 10
100.902000
 20
42.589700
 30
0.0
 10
100.966000
 20
42.392600
 30
0.0
 10
101.054000
 20
42.205100
 30
0.0
 10
101.165000
 20
42.030200
 30
0.0
 10
101.297000
 20
41.870500
 30
0.0
 10
101.448000
 20
41.728700
 30
0.0
 10
101.616000
 20
41.606900
 30
0.0
 10
101.797000
 20
41.507000
 30
0.0
 10
101.990000
 20
41.430800
 30
0.0
 10
102.191000
 20
41.379200
 30
0.0
 10
102.396000
 20
41.353200
 30
0.0
 10
102.604000
 20
41.353200
 30
0.0
 10
102.809000
 20
41.379200
 30
0.0
  0
LWPOLYLINE
  5
10c
100
AcDbEntity
  8
0
 62
7
100
AcDbPolyline
 90
51
 70
0
 10
127.809000
 20
41.379200
 30
0.0
 10
128.010000
 20
41.430800
 30
0.0
 10
128.203000
 20
41.507000
 30
0.0
 10
128.384000
 20
41.606900
 30
0.0
 10
128.552000
 20
41.728700
 30
0.0
 10
128.703000
 20
41.870500
 30
0.0
 10
128.835000
 20
42.030200
 30
0.0
 10
128.946000
 20
42.205100
 30
0.0
 10
129.034000
 20
42.392600
 30
0.0
 10
129.098000
 20
42.589700
 30
0.0
 10
129.137000
 20
42.793200
 30
0.0
 10
129.150000
 20
43.000000
 30
0.0
 10
129.137000
 20
43.206800
 30
0.0
 10
129.098000
 20
43.410300
 30
0.0
 10
129.034000
 20
43.607400
 30
0.0
 10
128.946000
 20
43.794900
 30
0.0
 10
128.835000
 20
43.969800
 30
0.0
 10
128.703000
 20
44.129500
 30
0.0
 10
128.552000
 20
44.271300
 30
0.0
 10
128.384000
 20
44.393100
 30
0.0
 10
128.203000
 20
44.493000
 30
0.0
 10
128.010000
 20
44.569200
 30
0.0
 10
127.809000
 20
44.620800
 30
0.0
 10
127.604000
 20
44.646700
 30
0.0
 10
127.396000
 20
44.646700
 30
0.0
 10
127.191000
 20
44.620800
 30
0.0
 10
126.990000
 20
44.569200
 30
0.0
 10
126.797000
 20
44.493000
 30
0.0
 10
126.616000
 20
44.393100
 30
0.0
 10
126.448000
 20
44.271300
 30
0.0
 10
126.297000
 20
44.129500
 30
0.0
 10
126.165000
 20
43.969800
 30
0.0
 10
126.054000
 20
43.794900
 30
0.0
 10
125.966000
 20
43.607400
 30
0.0
 10
125.902000
 20
43.410300
 30
0.0
 10
125.863000
 20
43.206800
 30
0.0
 10
125.850000
 20
43.000000
 30
0.0
 10
125.863000
 20
42.793200
 30
0.0
 10
125.902000
 20
42.589700
 30
0.0
 10
125.966000
 20
42.392600
 30
0.0
 10
126.054000
 20
42.205100
 30
0.0
 10
126.165000
 20
42.030200
 30
0.0
 10
126.297000
 20
41.870500
 30
0.0
 10
126.448000
 20
41.728700
 30
0.0
 10
126.616000
 20
41.606900
 30
0.0
 10
126.797000
 20
41.507000
 30
0.0
 10
126.990000
 20
41.430800
 30
0.0
 10
127.191000
 20
41.379200
 30
0.0
 10
127.396000
 20
41.353200
 30
0.0
 10
127.604000
 20
41.353200
 30
0.0
 10
127.809000
 20
41.379200
 30
0.0
  0
LWPOLYLINE
  5
10d
100
AcDbEntity
  8
0
 62
7
100
AcDbPolyline
 90
51
 70
0
 10
9.956800
 20
40.113000
 30
0.0
 10
10.160300
 20
40.151800
 30
0.0
 10
10.357400
 20
40.215900
 30
0.0
 10
10.544900
 20
40.304100
 30
0.0
 10
10.719800
 20
40.415100
 30
0.0
 10
10.879500
 20
40.547200
 30
0.0
 10
11.021300
 20
40.698200
 30
0.0
 10
11.143100
 20
40.865900
 30
0.0
 10
11.243000
 20
41.047500
 30
0.0
 10
11.319200
 20
41.240100
 30
0.0
 10
11.370800
 20
41.440800
 30
0.0
 10
11.396800
 20
41.646400
 30
0.0
 10
11.396800
 20
41.853600
 30
0.0
 10
11.370800
 20
42.059200
 30
0.0
 10
11.319200
 20
42.259900
 30
0.0
 10
11.243000
 20
42.452500
 30
0.0
 10
11.143100
 20
42.634100
 30
0.0
 10
11.021300
 20
42.801700
 30
0.0
 10
10.879500
 20
42.952800
 30
0.0
 10
10.719800
 20
43.084900
 30
0.0
 10
10.544900
 20
43.195900
 30
0.0
 10
10.357400
 20
43.284100
 30
0.0
 10
10.160300
 20
43.348200
 30
0.0
 10
9.956800
 20
43.387000
 30
0.0
 10
9.750000
 20
43.400000
 30
0.0
 10
9.543210
 20
43.387000
 30
0.0
 10
9.339680
 20
43.348200
 30
0.0
 10
9.142610
 20
43.284100
 30
0.0
 10
8.955110
 20
43.195900
 30
0.0
 10
8.780170
 20
43.084900
 30
0.0
 10
8.620500
 20
42.952800
 30
0.0
 10
8.478670
 20
42.801700
 30
0.0
 10
8.356870
 20
42.634100
 30
0.0
 10
8.257050
 20
42.452500
 30
0.0
 10
8.180770
 20
42.259900
 30
0.0
 10
8.129230
 20
42.059200
 30
0.0
 10
8.103260
 20
41.853600
 30
0.0
 10
8.103260
 20
41.646400
 30
0.0
 10
8.129230
 20
41.440800
 30
0.0
 10
8.180770
 20
41.240100
 30
0.0
 10
8.257050
 20
41.047500
 30
0.0
 10
8.356870
 20
40.865900
 30
0.0
 10
8.478670
 20
40.698200
 30
0.0
 10
8.620500
 20
40.547200
 30
0.0
 10
8.780170
 20
40.415100
 30
0.0
 10
8.955110
 20
40.304100
 30
0.0
 10
9.142610
 20
40.215900
 30
0.0
 10
9.339680
 20
40.151800
 30
0.0
 10
9.543210
 20
40.113000
 30
0.0
 10
9.750000
 20
40.100000
 30
0.0
 10
9.956800
 20
40.113000
 30
0.0
  0
LWPOLYLINE
  5
10e
100
AcDbEntity
  8
0
 62
7
100
AcDbPolyline
 90
51
 70
0
 10
30.456800
 20
40.113000
 30
0.0
 10
30.660300
 20
40.151800
 30
0.0
 10
30.857400
 20
40.215900
 30
0.0
 10
31.044900
 20
40.304100
 30
0.0
 10
31.219800
 20
40.415100
 30
0.0
 10
31.379500
 20
40.547200
 30
0.0
 10
31.521300
 20
40.698200
 30
0.0
 10
31.643100
 20
40.865900
 30
0.0
 10
31.743000
 20
41.047500
 30
0.0
 10
31.819200
 20
41.240100
 30
0.0
 10
31.870800
 20
41.440800
 30
0.0
 10
31.896700
 20
41.646400
 30
0.0
 10
31.896700
 20
41.853600
 30
0.0
 10
31.870800
 20
42.059200
 30
0.0
 10
31.819200
 20
42.259900
 30
0.0
 10
31.743000
 20
42.452500
 30
0.0
 10
31.643100
 20
42.634100
 30
0.0
 10
31.521300
 20
42.801700
 30
0.0
 10
31.379500
 20
42.952800
 30
0.0
 10
31.219800
 20
43.084900
 30
0.0
 10
31.044900
 20
43.195900
 30
0.0
 10
30.857400
 20
43.284100
 30
0.0
 10
30.660300
 20
43.348200
 30
0.0
 10
30.456800
 20
43.387000
 30
0.0
 10
30.250000
 20
43.400000
 30
0.0
 10
30.043200
 20
43.387000
 30
0.0
 10
29.839700
 20
43.348200
 30
0.0
 10
29.642600
 20
43.284100
 30
0.0
 10
29.455100
 20
43.195900
 30
0.0
 10
29.280200
 20
43.084900
 30
0.0
 10
29.120500
 20
42.952800
 30
0.0
 10
28.978700
 20
42.801700
 30
0.0
 10
28.856900
 20
42.634100
 30
0.0
 10
28.757000
 20
42.452500
 30
0.0
 10
28.680800
 20
42.259900
 30
0.0
 10
28.629200
 20
42.059200
 30
0.0
 10
28.603200
 20
41.853600
 30
0.0
 10
28.603200
 20
41.646400
 30
0.0
 10
28.629200
 20
41.440800
 30
0.0
 10
28.680800
 20
41.240100
 30
0.0
 10
28.757000
 20
41.047500
 30
0.0
 10
28.856900
 20
40.865900
 30
0.0
 10
28.978700
 20
40.698200
 30
0.0
 10
29.120500
 20
40.547200
 30
0.0
 10
29.280200
 20
40.415100
 30
0.0
 10
29.455100
 20
40.304100
 30
0.0
 10
29.642600
 20
40.215900
 30
0.0
 10
29.839700
 20
40.151800
 30
0.0
 10
30.043200
 20
40.113000
 30
0.0
 10
30.250000
 20
40.100000
 30
0.0
 10
30.456800
 20
40.113000
 30
0.0
  0
LWPOLYLINE
  5
10f
100
AcDbEntity
  8
0
 62
7
100
AcDbPolyline
 90
51
 70
0
 10
122.124000
 20
27.106300
 30
0.0
 10
122.854000
 20
27.293700
 30
0.0
 10
123.555000
 20
27.571000
 30
0.0
 10
124.215000
 20
27.934000
 30
0.0
 10
124.825000
 20
28.376900
 30
0.0
 10
125.374000
 20
28.892700
 30
0.0
 10
125.854000
 20
29.473300
 30
0.0
 10
126.258000
 20
30.109500
 30
0.0
 10
126.579000
 20
30.791300
 30
0.0
 10
126.811000
 20
31.507900
 30
0.0
 10
126.953000
 20
32.248000
 30
0.0
 10
127.000000
 20
33.000000
 30
0.0
 10
126.953000
 20
33.752000
 30
0.0
 10
126.811000
 20
34.492100
 30
0.0
 10
126.579000
 20
35.208700
 30
0.0
 10
126.258000
 20
35.890500
 30
0.0
 10
125.854000
 20
36.526700
 30
0.0
 10
125.374000
 20
37.107300
 30
0.0
 10
124.825000
 20
37.623100
 30
0.0
 10
124.215000
 20
38.066000
 30
0.0
 10
123.555000
 20
38.429000
 30
0.0
 10
122.854000
 20
38.706300
 30
0.0
 10
122.124000
 20
38.893700
 30
0.0
 10
121.377000
 20
38.988200
 30
0.0
 10
120.623000
 20
38.988200
 30
0.0
 10
119.876000
 20
38.893700
 30
0.0
 10
119.146000
 20
38.706300
 30
0.0
 10
118.445000
 20
38.429000
 30
0.0
 10
117.785000
 20
38.066000
 30
0.0
 10
117.175000
 20
37.623100
 30
0.0
 10
116.626000
 20
37.107300
 30
0.0
 10
116.146000
 20
36.526700
 30
0.0
 10
115.742000
 20
35.890500
 30
0.0
 10
115.421000
 20
35.208700
 30
0.0
 10
115.189000
 20
34.492100
 30
0.0
 10
115.047000
 20
33.752000
 30
0.0
 10
115.000000
 20
33.000000
 30
0.0
 10
115.047000
 20
32.248000
 30
0.0
 10
115.189000
 20
31.507900
 30
0.0
 10
115.421000
 20
30.791300
 30
0.0
 10
115.742000
 20
30.109500
 30
0.0
 10
116.146000
 20
29.473300
 30
0.0
 10
116.626000
 20
28.892700
 30
0.0
 10
117.175000
 20
28.376900
 30
0.0
 10
117.785000
 20
27.934000
 30
0.0
 10
118.445000
 20
27.571000
 30
0.0
 10
119.146000
 20
27.293700
 30
0.0
 10
119.876000
 20
27.106300
 30
0.0
 10
120.623000
 20
27.011800
 30
0.0
 10
121.377000
 20
27.011800
 30
0.0
 10
122.124000
 20
27.106300
 30
0.0
  0
LWPOLYLINE
  5
110
100
AcDbEntity
  8
0
 62
7
100
AcDbPolyline
 90
76
 70
0
 10
74.497500
 20
32.336000
 30
0.0
 10
74.508100
 20
32.617000
 30
0.0
 10
74.540000
 20
32.881000
 30
0.0
 10
74.593200
 20
33.128100
 30
0.0
 10
74.667600
 20
33.358200
 30
0.0
 10
74.763300
 20
33.571400
 30
0.0
 10
74.880300
 20
33.767700
 30
0.0
 10
75.018500
 20
33.947000
 30
0.0
 10
75.174400
 20
34.105700
 30
0.0
 10
75.344400
 20
34.239900
 30
0.0
 10
75.528500
 20
34.349700
 30
0.0
 10
75.726600
 20
34.435200
 30
0.0
 10
75.938800
 20
34.496200
 30
0.0
 10
76.165100
 20
34.532800
 30
0.0
 10
76.405500
 20
34.545000
 30
0.0
 10
76.565800
 20
34.541400
 30
0.0
 10
76.715800
 20
34.530500
 30
0.0
 10
76.855500
 20
34.512500
 30
0.0
 10
76.984900
 20
34.487200
 30
0.0
 10
77.104100
 20
34.454700
 30
0.0
 10
77.213000
 20
34.414900
 30
0.0
 10
77.311500
 20
34.368000
 30
0.0
 10
77.401200
 20
34.313600
 30
0.0
 10
77.483400
 20
34.250900
 30
0.0
 10
77.558000
 20
34.180000
 30
0.0
 10
77.625200
 20
34.100900
 30
0.0
 10
77.684800
 20
34.013500
 30
0.0
 10
77.736900
 20
33.917900
 30
0.0
 10
77.781500
 20
33.814000
 30
0.0
 10
77.819500
 20
33.698200
 30
0.0
 10
77.851600
 20
33.566100
 30
0.0
 10
77.877800
 20
33.417700
 30
0.0
 10
77.898300
 20
33.253200
 30
0.0
 10
77.912800
 20
33.072400
 30
0.0
 10
77.921600
 20
32.875300
 30
0.0
 10
77.924500
 20
32.662000
 30
0.0
 10
77.924500
 20
28.000000
 30
0.0
 10
79.151500
 20
28.000000
 30
0.0
 10
79.151500
 20
32.899000
 30
0.0
 10
79.139900
 20
33.282500
 30
0.0
 10
79.105100
 20
33.633200
 30
0.0
 10
79.047200
 20
33.951000
 30
0.0
 10
78.966000
 20
34.235800
 30
0.0
 10
78.861700
 20
34.487800
 30
0.0
 10
78.734200
 20
34.706800
 30
0.0
 10
78.583500
 20
34.893000
 30
0.0
 10
78.408400
 20
35.050800
 30
0.0
 10
78.207500
 20
35.184400
 30
0.0
 10
77.980900
 20
35.293700
 30
0.0
 10
77.728700
 20
35.378700
 30
0.0
 10
77.450700
 20
35.439400
 30
0.0
 10
77.146900
 20
35.475800
 30
0.0
 10
76.817500
 20
35.488000
 30
0.0
 10
76.580700
 20
35.481100
 30
0.0
 10
76.355900
 20
35.460500
 30
0.0
 10
76.143100
 20
35.426100
 30
0.0
 10
75.942400
 20
35.377900
 30
0.0
 10
75.753700
 20
35.316100
 30
0.0
 10
75.577100
 20
35.240400
 30
0.0
 10
75.412500
 20
35.151000
 30
0.0
 10
75.257500
 20
35.047100
 30
0.0
 10
75.108900
 20
34.927600
 30
0.0
 10
74.966900
 20
34.792500
 30
0.0
 10
74.831300
 20
34.641600
 30
0.0
 10
74.702200
 20
34.475100
 30
0.0
 10
74.579600
 20
34.292900
 30
0.0
 10
74.463500
 20
34.095000
 30
0.0
 10
74.442500
 20
34.095000
 30
0.0
 10
74.473500
 20
34.600000
 30
0.0
 10
74.489700
 20
34.970500
 30
0.0
 10
74.497000
 20
35.331000
 30
0.0
 10
74.497500
 20
38.048000
 30
0.0
 10
73.276500
 20
38.048000
 30
0.0
 10
73.276500
 20
28.000000
 30
0.0
 10
74.497500
 20
28.000000
 30
0.0
 10
74.497500
 20
32.336000
 30
0.0
  0
LWPOLYLINE
  5
111
100
AcDbEntity
  8
0
 62
7
100
AcDbPolyline
 90
12
 70
0
 10
68.055000
 20
29.038000
 30
0.0
 10
65.729000
 20
29.038000
 30
0.0
 10
65.729000
 20
37.536000
 30
0.0
 10
64.603000
 20
37.536000
 30
0.0
 10
62.345000
 20
36.001000
 30
0.0
 10
62.345000
 20
34.848000
 30
0.0
 10
64.501000
 20
36.369000
 30
0.0
 10
64.501000
 20
29.038000
 30
0.0
 10
62.067000
 20
29.038000
 30
0.0
 10
62.067000
 20
28.000000
 30
0.0
 10
68.055000
 20
28.000000
 30
0.0
 10
68.055000
 20
29.038000
 30
0.0
  0
LWPOLYLINE
  5
112
100
AcDbEntity
  8
0
 62
7
100
AcDbPolyline
 90
55
 70
0
 10
97.120400
 20
31.834000
 30
0.0
 10
97.128500
 20
32.171800
 30
0.0
 10
97.152900
 20
32.486600
 30
0.0
 10
97.193500
 20
32.778100
 30
0.0
 10
97.250400
 20
33.046600
 30
0.0
 10
97.323500
 20
33.291900
 30
0.0
 10
97.412800
 20
33.514000
 30
0.0
 10
97.518400
 20
33.713000
 30
0.0
 10
97.639400
 20
33.887000
 30
0.0
 10
97.775000
 20
34.034300
 30
0.0
 10
97.925100
 20
34.154800
 30
0.0
 10
98.089800
 20
34.248500
 30
0.0
 10
98.269100
 20
34.315400
 30
0.0
 10
98.463000
 20
34.355600
 30
0.0
 10
98.671400
 20
34.369000
 30
0.0
 10
98.783600
 20
34.367600
 30
0.0
 10
98.889100
 20
34.363400
 30
0.0
 10
98.988100
 20
34.356500
 30
0.0
 10
99.080600
 20
34.346800
 30
0.0
 10
99.166400
 20
34.334300
 30
0.0
 10
99.245700
 20
34.319000
 30
0.0
 10
99.318400
 20
34.301000
 30
0.0
 10
99.318400
 20
35.420000
 30
0.0
 10
99.247200
 20
35.438000
 30
0.0
 10
99.176200
 20
35.453300
 30
0.0
 10
99.105600
 20
35.465800
 30
0.0
 10
99.035300
 20
35.475500
 30
0.0
 10
98.965400
 20
35.482400
 30
0.0
 10
98.895700
 20
35.486600
 30
0.0
 10
98.826400
 20
35.488000
 30
0.0
 10
98.636200
 20
35.480900
 30
0.0
 10
98.458600
 20
35.459700
 30
0.0
 10
98.293600
 20
35.424400
 30
0.0
 10
98.141400
 20
35.375000
 30
0.0
 10
98.001700
 20
35.311500
 30
0.0
 10
97.874800
 20
35.233800
 30
0.0
 10
97.760400
 20
35.142000
 30
0.0
 10
97.654200
 20
35.031000
 30
0.0
 10
97.551600
 20
34.895600
 30
0.0
 10
97.452600
 20
34.735900
 30
0.0
 10
97.357200
 20
34.552000
 30
0.0
 10
97.265300
 20
34.343600
 30
0.0
 10
97.177100
 20
34.111000
 30
0.0
 10
97.092400
 20
33.854000
 30
0.0
 10
97.065400
 20
33.854000
 30
0.0
 10
97.061000
 20
34.079800
 30
0.0
 10
97.037900
 20
34.725200
 30
0.0
 10
97.011400
 20
35.360000
 30
0.0
 10
95.858400
 20
35.360000
 30
0.0
 10
95.878500
 20
34.836800
 30
0.0
 10
95.891900
 20
34.340400
 30
0.0
 10
95.898600
 20
33.870800
 30
0.0
 10
95.899400
 20
28.000000
 30
0.0
 10
97.120400
 20
28.000000
 30
0.0
 10
97.120400
 20
31.834000
 30
0.0
  0
LWPOLYLINE
  5
113
100
AcDbEntity
  8
0
 62
7
100
AcDbPolyline
 90
50
 70
0
 10
84.142100
 20
27.891300
 30
0.0
 10
84.557400
 20
27.949000
 30
0.0
 10
84.941300
 20
28.045200
 30
0.0
 10
85.293900
 20
28.179900
 30
0.0
 10
85.615100
 20
28.353100
 30
0.0
 10
85.905000
 20
28.564800
 30
0.0
 10
86.163500
 20
28.815000
 30
0.0
 10
86.389000
 20
29.104800
 30
0.0
 10
86.579800
 20
29.434800
 30
0.0
 10
86.735900
 20
29.804900
 30
0.0
 10
86.857400
 20
30.215100
 30
0.0
 10
86.944100
 20
30.665600
 30
0.0
 10
86.996100
 20
31.156200
 30
0.0
 10
87.013500
 20
31.687000
 30
0.0
 10
86.997200
 20
32.222700
 30
0.0
 10
86.948500
 20
32.716700
 30
0.0
 10
86.867300
 20
33.169000
 30
0.0
 10
86.753600
 20
33.579600
 30
0.0
 10
86.607400
 20
33.948400
 30
0.0
 10
86.428700
 20
34.275600
 30
0.0
 10
86.217500
 20
34.561000
 30
0.0
 10
85.972200
 20
34.806900
 30
0.0
 10
85.690500
 20
35.015000
 30
0.0
 10
85.372400
 20
35.185300
 30
0.0
 10
85.018000
 20
35.317700
 30
0.0
 10
84.627200
 20
35.412300
 30
0.0
 10
84.200000
 20
35.469100
 30
0.0
 10
83.736500
 20
35.488000
 30
0.0
 10
82.861800
 20
35.410400
 30
0.0
 10
82.121600
 20
35.177700
 30
0.0
 10
81.516100
 20
34.789900
 30
0.0
 10
81.045100
 20
34.246900
 30
0.0
 10
80.708600
 20
33.548700
 30
0.0
 10
80.506800
 20
32.695400
 30
0.0
 10
80.439500
 20
31.687000
 30
0.0
 10
80.456300
 20
31.175400
 30
0.0
 10
80.506600
 20
30.699300
 30
0.0
 10
80.590500
 20
30.258900
 30
0.0
 10
80.707900
 20
29.854000
 30
0.0
 10
80.858900
 20
29.484700
 30
0.0
 10
81.043400
 20
29.151100
 30
0.0
 10
81.261500
 20
28.853000
 30
0.0
 10
81.512700
 20
28.592700
 30
0.0
 10
81.796100
 20
28.372500
 30
0.0
 10
82.111600
 20
28.192300
 30
0.0
 10
82.459400
 20
28.052200
 30
0.0
 10
82.839200
 20
27.952100
 30
0.0
 10
83.251300
 20
27.892000
 30
0.0
 10
83.695500
 20
27.872000
 30
0.0
 10
84.142100
 20
27.891300
 30
0.0
  0
LWPOLYLINE
  5
114
100
AcDbEntity
  8
0
 62
7
100
AcDbPolyline
 90
57
 70
0
 10
83.403500
 20
28.788900
 30
0.0
 10
83.146700
 20
28.833600
 30
0.0
 10
82.912000
 20
28.908100
 30
0.0
 10
82.699500
 20
29.012400
 30
0.0
 10
82.509000
 20
29.146400
 30
0.0
 10
82.340700
 20
29.310300
 30
0.0
 10
82.194500
 20
29.504000
 30
0.0
 10
82.069000
 20
29.727300
 30
0.0
 10
81.962800
 20
29.980100
 30
0.0
 10
81.875900
 20
30.262500
 30
0.0
 10
81.808400
 20
30.574400
 30
0.0
 10
81.760100
 20
30.915700
 30
0.0
 10
81.731100
 20
31.286600
 30
0.0
 10
81.721500
 20
31.687000
 30
0.0
 10
81.731300
 20
32.097700
 30
0.0
 10
81.760700
 20
32.476100
 30
0.0
 10
81.809600
 20
32.822100
 30
0.0
 10
81.878200
 20
33.135800
 30
0.0
 10
81.966400
 20
33.417200
 30
0.0
 10
82.074100
 20
33.666300
 30
0.0
 10
82.201500
 20
33.883000
 30
0.0
 10
82.350800
 20
34.069500
 30
0.0
 10
82.524400
 20
34.227300
 30
0.0
 10
82.722400
 20
34.356400
 30
0.0
 10
82.944700
 20
34.456900
 30
0.0
 10
83.191300
 20
34.528600
 30
0.0
 10
83.462200
 20
34.571600
 30
0.0
 10
83.757500
 20
34.586000
 30
0.0
 10
84.050300
 20
34.571900
 30
0.0
 10
84.318000
 20
34.529800
 30
0.0
 10
84.560400
 20
34.459400
 30
0.0
 10
84.777700
 20
34.361000
 30
0.0
 10
84.969800
 20
34.234500
 30
0.0
 10
85.136700
 20
34.079800
 30
0.0
 10
85.278500
 20
33.897000
 30
0.0
 10
85.398700
 20
33.683200
 30
0.0
 10
85.500400
 20
33.435400
 30
0.0
 10
85.583600
 20
33.153600
 30
0.0
 10
85.648300
 20
32.837900
 30
0.0
 10
85.694500
 20
32.488200
 30
0.0
 10
85.722200
 20
32.104600
 30
0.0
 10
85.731500
 20
31.687000
 30
0.0
 10
85.721800
 20
31.274400
 30
0.0
 10
85.692900
 20
30.894200
 30
0.0
 10
85.644600
 20
30.546400
 30
0.0
 10
85.577000
 20
30.231200
 30
0.0
 10
85.490200
 20
29.948300
 30
0.0
 10
85.384000
 20
29.697900
 30
0.0
 10
85.258500
 20
29.480000
 30
0.0
 10
85.110500
 20
29.292700
 30
0.0
 10
84.936800
 20
29.134200
 30
0.0
 10
84.737300
 20
29.004500
 30
0.0
 10
84.512200
 20
28.903700
 30
0.0
 10
84.261300
 20
28.831600
 30
0.0
 10
83.984800
 20
28.788400
 30
0.0
 10
83.682500
 20
28.774000
 30
0.0
 10
83.403500
 20
28.788900
 30
0.0
  0
LWPOLYLINE
  5
115
100
AcDbEntity
  8
0
 62
7
100
AcDbPolyline
 90
80
 70
0
 10
90.865100
 20
27.878400
 30
0.0
 10
91.083900
 20
27.897700
 30
0.0
 10
91.291700
 20
27.929900
 30
0.0
 10
91.488500
 20
27.974900
 30
0.0
 10
91.674400
 20
28.032700
 30
0.0
 10
91.849400
 20
28.103400
 30
0.0
 10
92.013500
 20
28.187000
 30
0.0
 10
92.169300
 20
28.286300
 30
0.0
 10
92.319700
 20
28.403800
 30
0.0
 10
92.464700
 20
28.539400
 30
0.0
 10
92.604300
 20
28.693100
 30
0.0
 10
92.738400
 20
28.864900
 30
0.0
 10
92.867200
 20
29.054900
 30
0.0
 10
92.990400
 20
29.263000
 30
0.0
 10
93.010500
 20
29.263000
 30
0.0
 10
93.058500
 20
28.050400
 30
0.0
 10
93.064500
 20
28.000000
 30
0.0
 10
94.217500
 20
28.000000
 30
0.0
 10
94.206600
 20
28.102100
 30
0.0
 10
94.197400
 20
28.245000
 30
0.0
 10
94.189800
 20
28.428600
 30
0.0
 10
94.184000
 20
28.653100
 30
0.0
 10
94.179800
 20
28.918300
 30
0.0
 10
94.176500
 20
29.571000
 30
0.0
 10
94.176500
 20
35.360000
 30
0.0
 10
92.955500
 20
35.360000
 30
0.0
 10
92.955500
 20
31.099000
 30
0.0
 10
92.945000
 20
30.801700
 30
0.0
 10
92.913700
 20
30.523600
 30
0.0
 10
92.861600
 20
30.264600
 30
0.0
 10
92.788600
 20
30.024700
 30
0.0
 10
92.694700
 20
29.804000
 30
0.0
 10
92.580000
 20
29.602400
 30
0.0
 10
92.444500
 20
29.420000
 30
0.0
 10
92.290800
 20
29.259500
 30
0.0
 10
92.121800
 20
29.123700
 30
0.0
 10
91.937600
 20
29.012500
 30
0.0
 10
91.738000
 20
28.926100
 30
0.0
 10
91.523100
 20
28.864400
 30
0.0
 10
91.292900
 20
28.827300
 30
0.0
 10
91.047500
 20
28.815000
 30
0.0
 10
90.880300
 20
28.818600
 30
0.0
 10
90.725000
 20
28.829400
 30
0.0
 10
90.581600
 20
28.847300
 30
0.0
 10
90.450200
 20
28.872500
 30
0.0
 10
90.330700
 20
28.904800
 30
0.0
 10
90.223100
 20
28.944300
 30
0.0
 10
90.127500
 20
28.991000
 30
0.0
 10
90.041500
 20
29.046100
 30
0.0
 10
89.962500
 20
29.110400
 30
0.0
 10
89.890400
 20
29.183900
 30
0.0
 10
89.825300
 20
29.266400
 30
0.0
 10
89.767000
 20
29.358100
 30
0.0
 10
89.715800
 20
29.459000
 30
0.0
 10
89.671400
 20
29.569000
 30
0.0
 10
89.633500
 20
29.690200
 30
0.0
 10
89.601400
 20
29.824800
 30
0.0
 10
89.575100
 20
29.972800
 30
0.0
 10
89.554700
 20
30.134000
 30
0.0
 10
89.540100
 20
30.308700
 30
0.0
 10
89.531400
 20
30.496700
 30
0.0
 10
89.528500
 20
30.698000
 30
0.0
 10
89.528500
 20
35.360000
 30
0.0
 10
88.301500
 20
35.360000
 30
0.0
 10
88.301500
 20
30.461000
 30
0.0
 10
88.312900
 20
30.081000
 30
0.0
 10
88.347200
 20
29.733000
 30
0.0
 10
88.404500
 20
29.417000
 30
0.0
 10
88.484600
 20
29.133000
 30
0.0
 10
88.587700
 20
28.881000
 30
0.0
 10
88.713600
 20
28.661000
 30
0.0
 10
88.862500
 20
28.473000
 30
0.0
 10
89.036300
 20
28.313500
 30
0.0
 10
89.236600
 20
28.178600
 30
0.0
 10
89.463400
 20
28.068200
 30
0.0
 10
89.716700
 20
27.982400
 30
0.0
 10
89.996400
 20
27.921100
 30
0.0
 10
90.302700
 20
27.884300
 30
0.0
 10
90.635500
 20
27.872000
 30
0.0
 10
90.865100
 20
27.878400
 30
0.0
  0
LWPOLYLINE
  5
116
100
AcDbEntity
  8
0
 62
7
100
AcDbPolyline
 90
51
 70
0
 10
122.124000
 20
12.106300
 30
0.0
 10
122.854000
 20
12.293700
 30
0.0
 10
123.555000
 20
12.571000
 30
0.0
 10
124.215000
 20
12.934000
 30
0.0
 10
124.825000
 20
13.376900
 30
0.0
 10
125.374000
 20
13.892700
 30
0.0
 10
125.854000
 20
14.473300
 30
0.0
 10
126.258000
 20
15.109500
 30
0.0
 10
126.579000
 20
15.791300
 30
0.0
 10
126.811000
 20
16.507900
 30
0.0
 10
126.953000
 20
17.248000
 30
0.0
 10
127.000000
 20
18.000000
 30
0.0
 10
126.953000
 20
18.752000
 30
0.0
 10
126.811000
 20
19.492100
 30
0.0
 10
126.579000
 20
20.208800
 30
0.0
 10
126.258000
 20
20.890500
 30
0.0
 10
125.854000
 20
21.526700
 30
0.0
 10
125.374000
 20
22.107300
 30
0.0
 10
124.825000
 20
22.623100
 30
0.0
 10
124.215000
 20
23.066000
 30
0.0
 10
123.555000
 20
23.429000
 30
0.0
 10
122.854000
 20
23.706300
 30
0.0
 10
122.124000
 20
23.893700
 30
0.0
 10
121.377000
 20
23.988200
 30
0.0
 10
120.623000
 20
23.988200
 30
0.0
 10
119.876000
 20
23.893700
 30
0.0
 10
119.146000
 20
23.706300
 30
0.0
 10
118.445000
 20
23.429000
 30
0.0
 10
117.785000
 20
23.066000
 30
0.0
 10
117.175000
 20
22.623100
 30
0.0
 10
116.626000
 20
22.107300
 30
0.0
 10
116.146000
 20
21.526700
 30
0.0
 10
115.742000
 20
20.890500
 30
0.0
 10
115.421000
 20
20.208800
 30
0.0
 10
115.189000
 20
19.492100
 30
0.0
 10
115.047000
 20
18.752000
 30
0.0
 10
115.000000
 20
18.000000
 30
0.0
 10
115.047000
 20
17.248000
 30
0.0
 10
115.189000
 20
16.507900
 30
0.0
 10
115.421000
 20
15.791300
 30
0.0
 10
115.742000
 20
15.109500
 30
0.0
 10
116.146000
 20
14.473300
 30
0.0
 10
116.626000
 20
13.892700
 30
0.0
 10
117.175000
 20
13.376900
 30
0.0
 10
117.785000
 20
12.934000
 30
0.0
 10
118.445000
 20
12.571000
 30
0.0
 10
119.146000
 20
12.293700
 30
0.0
 10
119.876000
 20
12.106300
 30
0.0
 10
120.623000
 20
12.011800
 30
0.0
 10
121.377000
 20
12.011800
 30
0.0
 10
122.124000
 20
12.106300
 30
0.0
  0
LWPOLYLINE
  5
117
100
AcDbEntity
  8
0
 62
7
100
AcDbPolyline
 90
76
 70
0
 10
74.497500
 20
17.336000
 30
0.0
 10
74.508100
 20
17.617000
 30
0.0
 10
74.540000
 20
17.881000
 30
0.0
 10
74.593200
 20
18.128100
 30
0.0
 10
74.667600
 20
18.358200
 30
0.0
 10
74.763300
 20
18.571400
 30
0.0
 10
74.880300
 20
18.767700
 30
0.0
 10
75.018500
 20
18.947000
 30
0.0
 10
75.174400
 20
19.105700
 30
0.0
 10
75.344400
 20
19.239900
 30
0.0
 10
75.528500
 20
19.349700
 30
0.0
 10
75.726600
 20
19.435200
 30
0.0
 10
75.938800
 20
19.496200
 30
0.0
 10
76.165100
 20
19.532800
 30
0.0
 10
76.405500
 20
19.545000
 30
0.0
 10
76.565800
 20
19.541400
 30
0.0
 10
76.715800
 20
19.530500
 30
0.0
 10
76.855500
 20
19.512500
 30
0.0
 10
76.984900
 20
19.487200
 30
0.0
 10
77.104100
 20
19.454700
 30
0.0
 10
77.213000
 20
19.414900
 30
0.0
 10
77.311500
 20
19.368000
 30
0.0
 10
77.401200
 20
19.313600
 30
0.0
 10
77.483400
 20
19.250900
 30
0.0
 10
77.558000
 20
19.180000
 30
0.0
 10
77.625200
 20
19.100900
 30
0.0
 10
77.684800
 20
19.013500
 30
0.0
 10
77.736900
 20
18.917900
 30
0.0
 10
77.781500
 20
18.814000
 30
0.0
 10
77.819500
 20
18.698200
 30
0.0
 10
77.851600
 20
18.566100
 30
0.0
 10
77.877800
 20
18.417700
 30
0.0
 10
77.898300
 20
18.253200
 30
0.0
 10
77.912800
 20
18.072400
 30
0.0
 10
77.921600
 20
17.875300
 30
0.0
 10
77.924500
 20
17.662000
 30
0.0
 10
77.924500
 20
13.000000
 30
0.0
 10
79.151500
 20
13.000000
 30
0.0
 10
79.151500
 20
17.899000
 30
0.0
 10
79.139900
 20
18.282500
 30
0.0
 10
79.105100
 20
18.633200
 30
0.0
 10
79.047200
 20
18.951000
 30
0.0
 10
78.966000
 20
19.235800
 30
0.0
 10
78.861700
 20
19.487800
 30
0.0
 10
78.734200
 20
19.706800
 30
0.0
 10
78.583500
 20
19.893000
 30
0.0
 10
78.408400
 20
20.050800
 30
0.0
 10
78.207500
 20
20.184400
 30
0.0
 10
77.980900
 20
20.293700
 30
0.0
 10
77.728700
 20
20.378700
 30
0.0
 10
77.450700
 20
20.439400
 30
0.0
 10
77.146900
 20
20.475800
 30
0.0
 10
76.817500
 20
20.488000
 30
0.0
 10
76.580700
 20
20.481100
 30
0.0
 10
76.355900
 20
20.460500
 30
0.0
 10
76.143100
 20
20.426100
 30
0.0
 10
75.942400
 20
20.377900
 30
0.0
 10
75.753700
 20
20.316100
 30
0.0
 10
75.577100
 20
20.240400
 30
0.0
 10
75.412500
 20
20.151000
 30
0.0
 10
75.257500
 20
20.047100
 30
0.0
 10
75.108900
 20
19.927600
 30
0.0
 10
74.966900
 20
19.792500
 30
0.0
 10
74.831300
 20
19.641600
 30
0.0
 10
74.702200
 20
19.475100
 30
0.0
 10
74.579600
 20
19.292900
 30
0.0
 10
74.463500
 20
19.095000
 30
0.0
 10
74.442500
 20
19.095000
 30
0.0
 10
74.473500
 20
19.600000
 30
0.0
 10
74.489700
 20
19.970500
 30
0.0
 10
74.497000
 20
20.331000
 30
0.0
 10
74.497500
 20
23.048000
 30
0.0
 10
73.276500
 20
23.048000
 30
0.0
 10
73.276500
 20
13.000000
 30
0.0
 10
74.497500
 20
13.000000
 30
0.0
 10
74.497500
 20
17.336000
 30
0.0
  0
LWPOLYLINE
  5
118
100
AcDbEntity
  8
0
 62
7
100
AcDbPolyline
 90
135
 70
0
 10
68.044000
 20
14.038000
 30
0.0
 10
63.043000
 20
14.038000
 30
0.0
 10
63.106500
 20
14.174800
 30
0.0
 10
63.180600
 20
14.313100
 30
0.0
 10
63.265200
 20
14.453000
 30
0.0
 10
63.360400
 20
14.594400
 30
0.0
 10
63.466000
 20
14.737400
 30
0.0
 10
63.582300
 20
14.881900
 30
0.0
 10
63.709000
 20
15.028000
 30
0.0
 10
63.847800
 20
15.177400
 30
0.0
 10
63.999700
 20
15.332000
 30
0.0
 10
64.164600
 20
15.491700
 30
0.0
 10
64.342600
 20
15.656600
 30
0.0
 10
64.533700
 20
15.826600
 30
0.0
 10
64.737800
 20
16.001700
 30
0.0
 10
64.955000
 20
16.182000
 30
0.0
 10
65.342500
 20
16.499900
 30
0.0
 10
65.692600
 20
16.793200
 30
0.0
 10
66.005100
 20
17.061700
 30
0.0
 10
66.280100
 20
17.305600
 30
0.0
 10
66.517500
 20
17.524700
 30
0.0
 10
66.717500
 20
17.719200
 30
0.0
 10
66.880000
 20
17.889000
 30
0.0
 10
67.018900
 20
18.046700
 30
0.0
 10
67.147700
 20
18.204300
 30
0.0
 10
67.266300
 20
18.362000
 30
0.0
 10
67.374700
 20
18.519500
 30
0.0
 10
67.472900
 20
18.677000
 30
0.0
 10
67.561100
 20
18.834500
 30
0.0
 10
67.639000
 20
18.992000
 30
0.0
 10
67.706600
 20
19.149600
 30
0.0
 10
67.763900
 20
19.307400
 30
0.0
 10
67.810700
 20
19.465600
 30
0.0
 10
67.847200
 20
19.624000
 30
0.0
 10
67.873200
 20
19.782700
 30
0.0
 10
67.888800
 20
19.941700
 30
0.0
 10
67.894000
 20
20.101000
 30
0.0
 10
67.878100
 20
20.449000
 30
0.0
 10
67.830400
 20
20.773500
 30
0.0
 10
67.750900
 20
21.074500
 30
0.0
 10
67.639600
 20
21.352100
 30
0.0
 10
67.496500
 20
21.606200
 30
0.0
 10
67.321700
 20
21.836800
 30
0.0
 10
67.115000
 20
22.044000
 30
0.0
 10
66.879000
 20
22.225500
 30
0.0
 10
66.615700
 20
22.379000
 30
0.0
 10
66.325100
 20
22.504600
 30
0.0
 10
66.007100
 20
22.602400
 30
0.0
 10
65.661700
 20
22.672100
 30
0.0
 10
65.289000
 20
22.714000
 30
0.0
 10
64.889000
 20
22.728000
 30
0.0
 10
64.521900
 20
22.714200
 30
0.0
 10
64.174400
 20
22.672600
 30
0.0
 10
63.846400
 20
22.603500
 30
0.0
 10
63.538000
 20
22.506600
 30
0.0
 10
63.249100
 20
22.382100
 30
0.0
 10
62.979800
 20
22.229900
 30
0.0
 10
62.730000
 20
22.050000
 30
0.0
 10
62.504600
 20
21.846700
 30
0.0
 10
62.308000
 20
21.624400
 30
0.0
 10
62.140000
 20
21.382900
 30
0.0
 10
62.000700
 20
21.122300
 30
0.0
 10
61.890100
 20
20.842700
 30
0.0
 10
61.808200
 20
20.543900
 30
0.0
 10
61.755000
 20
20.226000
 30
0.0
 10
63.002000
 20
20.111000
 30
0.0
 10
63.035900
 20
20.322800
 30
0.0
 10
63.087000
 20
20.520700
 30
0.0
 10
63.155100
 20
20.704600
 30
0.0
 10
63.240200
 20
20.874400
 30
0.0
 10
63.342400
 20
21.030300
 30
0.0
 10
63.461700
 20
21.172100
 30
0.0
 10
63.598000
 20
21.300000
 30
0.0
 10
63.748700
 20
21.412500
 30
0.0
 10
63.910700
 20
21.507700
 30
0.0
 10
64.083900
 20
21.585500
 30
0.0
 10
64.268400
 20
21.646100
 30
0.0
 10
64.464000
 20
21.689400
 30
0.0
 10
64.670900
 20
21.715300
 30
0.0
 10
64.889000
 20
21.724000
 30
0.0
 10
65.117100
 20
21.715100
 30
0.0
 10
65.330400
 20
21.688300
 30
0.0
 10
65.529000
 20
21.643700
 30
0.0
 10
65.712800
 20
21.581300
 30
0.0
 10
65.882000
 20
21.501000
 30
0.0
 10
66.036300
 20
21.402900
 30
0.0
 10
66.176000
 20
21.287000
 30
0.0
 10
66.299100
 20
21.155200
 30
0.0
 10
66.403300
 20
21.008900
 30
0.0
 10
66.488500
 20
20.848100
 30
0.0
 10
66.554800
 20
20.672800
 30
0.0
 10
66.602100
 20
20.483000
 30
0.0
 10
66.630500
 20
20.278700
 30
0.0
 10
66.640000
 20
20.060000
 30
0.0
 10
66.634500
 20
19.895300
 30
0.0
 10
66.618000
 20
19.735700
 30
0.0
 10
66.590600
 20
19.581000
 30
0.0
 10
66.552200
 20
19.431300
 30
0.0
 10
66.502700
 20
19.286500
 30
0.0
 10
66.442400
 20
19.146800
 30
0.0
 10
66.371000
 20
19.012000
 30
0.0
 10
66.290700
 20
18.880800
 30
0.0
 10
66.203600
 20
18.751300
 30
0.0
 10
66.109700
 20
18.623300
 30
0.0
 10
66.009000
 20
18.497100
 30
0.0
 10
65.901500
 20
18.372400
 30
0.0
 10
65.787200
 20
18.249400
 30
0.0
 10
65.666000
 20
18.128000
 30
0.0
 10
65.539600
 20
18.007400
 30
0.0
 10
65.408800
 20
17.886900
 30
0.0
 10
65.273700
 20
17.766300
 30
0.0
 10
65.134200
 20
17.645700
 30
0.0
 10
64.990500
 20
17.525100
 30
0.0
 10
64.842400
 20
17.404600
 30
0.0
 10
64.535500
 20
17.162000
 30
0.0
 10
64.224900
 20
16.909200
 30
0.0
 10
63.912400
 20
16.644900
 30
0.0
 10
63.598000
 20
16.369000
 30
0.0
 10
63.441600
 20
16.225800
 30
0.0
 10
63.287300
 20
16.077800
 30
0.0
 10
63.135100
 20
15.925100
 30
0.0
 10
62.984900
 20
15.767700
 30
0.0
 10
62.836900
 20
15.605500
 30
0.0
 10
62.690900
 20
15.438600
 30
0.0
 10
62.547000
 20
15.267000
 30
0.0
 10
62.407300
 20
15.089200
 30
0.0
 10
62.273800
 20
14.903700
 30
0.0
 10
62.146500
 20
14.710600
 30
0.0
 10
62.025500
 20
14.509900
 30
0.0
 10
61.910800
 20
14.301600
 30
0.0
 10
61.802300
 20
14.085600
 30
0.0
 10
61.700000
 20
13.862000
 30
0.0
 10
61.700000
 20
13.000000
 30
0.0
 10
68.044000
 20
13.000000
 30
0.0
 10
68.044000
 20
14.038000
 30
0.0
  0
LWPOLYLINE
  5
119
100
AcDbEntity
  8
0
 62
7
100
AcDbPolyline
 90
50
 70
0
 10
84.142100
 20
12.891300
 30
0.0
 10
84.557400
 20
12.949000
 30
0.0
 10
84.941300
 20
13.045200
 30
0.0
 10
85.293900
 20
13.179900
 30
0.0
 10
85.615100
 20
13.353100
 30
0.0
 10
85.905000
 20
13.564800
 30
0.0
 10
86.163500
 20
13.815000
 30
0.0
 10
86.389000
 20
14.104800
 30
0.0
 10
86.579800
 20
14.434800
 30
0.0
 10
86.735900
 20
14.804900
 30
0.0
 10
86.857400
 20
15.215100
 30
0.0
 10
86.944100
 20
15.665600
 30
0.0
 10
86.996100
 20
16.156200
 30
0.0
 10
87.013500
 20
16.687000
 30
0.0
 10
86.997200
 20
17.222700
 30
0.0
 10
86.948500
 20
17.716700
 30
0.0
 10
86.867300
 20
18.169000
 30
0.0
 10
86.753600
 20
18.579600
 30
0.0
 10
86.607400
 20
18.948400
 30
0.0
 10
86.428700
 20
19.275600
 30
0.0
 10
86.217500
 20
19.561000
 30
0.0
 10
85.972200
 20
19.806900
 30
0.0
 10
85.690500
 20
20.015000
 30
0.0
 10
85.372400
 20
20.185300
 30
0.0
 10
85.018000
 20
20.317700
 30
0.0
 10
84.627200
 20
20.412300
 30
0.0
 10
84.200000
 20
20.469100
 30
0.0
 10
83.736500
 20
20.488000
 30
0.0
 10
82.861800
 20
20.410400
 30
0.0
 10
82.121600
 20
20.177700
 30
0.0
 10
81.516100
 20
19.789900
 30
0.0
 10
81.045100
 20
19.246900
 30
0.0
 10
80.708600
 20
18.548700
 30
0.0
 10
80.506800
 20
17.695400
 30
0.0
 10
80.439500
 20
16.687000
 30
0.0
 10
80.456300
 20
16.175400
 30
0.0
 10
80.506600
 20
15.699300
 30
0.0
 10
80.590500
 20
15.258900
 30
0.0
 10
80.707900
 20
14.854000
 30
0.0
 10
80.858900
 20
14.484700
 30
0.0
 10
81.043400
 20
14.151100
 30
0.0
 10
81.261500
 20
13.853000
 30
0.0
 10
81.512700
 20
13.592700
 30
0.0
 10
81.796100
 20
13.372500
 30
0.0
 10
82.111600
 20
13.192300
 30
0.0
 10
82.459400
 20
13.052200
 30
0.0
 10
82.839200
 20
12.952100
 30
0.0
 10
83.251300
 20
12.892000
 30
0.0
 10
83.695500
 20
12.872000
 30
0.0
 10
84.142100
 20
12.891300
 30
0.0
  0
LWPOLYLINE
  5
11a
100
AcDbEntity
  8
0
 62
7
100
AcDbPolyline
 90
57
 70
0
 10
83.403500
 20
13.788900
 30
0.0
 10
83.146700
 20
13.833600
 30
0.0
 10
82.912000
 20
13.908100
 30
0.0
 10
82.699500
 20
14.012400
 30
0.0
 10
82.509000
 20
14.146400
 30
0.0
 10
82.340700
 20
14.310300
 30
0.0
 10
82.194500
 20
14.504000
 30
0.0
 10
82.069000
 20
14.727300
 30
0.0
 10
81.962800
 20
14.980100
 30
0.0
 10
81.875900
 20
15.262500
 30
0.0
 10
81.808400
 20
15.574400
 30
0.0
 10
81.760100
 20
15.915700
 30
0.0
 10
81.731100
 20
16.286600
 30
0.0
 10
81.721500
 20
16.687000
 30
0.0
 10
81.731300
 20
17.097700
 30
0.0
 10
81.760700
 20
17.476100
 30
0.0
 10
81.809600
 20
17.822100
 30
0.0
 10
81.878200
 20
18.135800
 30
0.0
 10
81.966400
 20
18.417200
 30
0.0
 10
82.074100
 20
18.666300
 30
0.0
 10
82.201500
 20
18.883000
 30
0.0
 10
82.350800
 20
19.069500
 30
0.0
 10
82.524400
 20
19.227300
 30
0.0
 10
82.722400
 20
19.356400
 30
0.0
 10
82.944700
 20
19.456900
 30
0.0
 10
83.191300
 20
19.528600
 30
0.0
 10
83.462200
 20
19.571600
 30
0.0
 10
83.757500
 20
19.586000
 30
0.0
 10
84.050300
 20
19.571900
 30
0.0
 10
84.318000
 20
19.529800
 30
0.0
 10
84.560400
 20
19.459400
 30
0.0
 10
84.777700
 20
19.361000
 30
0.0
 10
84.969800
 20
19.234500
 30
0.0
 10
85.136700
 20
19.079800
 30
0.0
 10
85.278500
 20
18.897000
 30
0.0
 10
85.398700
 20
18.683200
 30
0.0
 10
85.500400
 20
18.435400
 30
0.0
 10
85.583600
 20
18.153600
 30
0.0
 10
85.648300
 20
17.837900
 30
0.0
 10
85.694500
 20
17.488200
 30
0.0
 10
85.722200
 20
17.104600
 30
0.0
 10
85.731500
 20
16.687000
 30
0.0
 10
85.721800
 20
16.274400
 30
0.0
 10
85.692900
 20
15.894200
 30
0.0
 10
85.644600
 20
15.546400
 30
0.0
 10
85.577000
 20
15.231200
 30
0.0
 10
85.490200
 20
14.948300
 30
0.0
 10
85.384000
 20
14.697900
 30
0.0
 10
85.258500
 20
14.480000
 30
0.0
 10
85.110500
 20
14.292700
 30
0.0
 10
84.936800
 20
14.134200
 30
0.0
 10
84.737300
 20
14.004500
 30
0.0
 10
84.512200
 20
13.903700
 30
0.0
 10
84.261300
 20
13.831600
 30
0.0
 10
83.984800
 20
13.788400
 30
0.0
 10
83.682500
 20
13.774000
 30
0.0
 10
83.403500
 20
13.788900
 30
0.0
  0
LWPOLYLINE
  5
11b
100
AcDbEntity
  8
0
 62
7
100
AcDbPolyline
 90
55
 70
0
 10
97.120400
 20
16.834000
 30
0.0
 10
97.128500
 20
17.171800
 30
0.0
 10
97.152900
 20
17.486600
 30
0.0
 10
97.193500
 20
17.778100
 30
0.0
 10
97.250400
 20
18.046600
 30
0.0
 10
97.323500
 20
18.291900
 30
0.0
 10
97.412800
 20
18.514000
 30
0.0
 10
97.518400
 20
18.713000
 30
0.0
 10
97.639400
 20
18.887000
 30
0.0
 10
97.775000
 20
19.034300
 30
0.0
 10
97.925100
 20
19.154800
 30
0.0
 10
98.089800
 20
19.248500
 30
0.0
 10
98.269100
 20
19.315400
 30
0.0
 10
98.463000
 20
19.355600
 30
0.0
 10
98.671400
 20
19.369000
 30
0.0
 10
98.783600
 20
19.367600
 30
0.0
 10
98.889100
 20
19.363400
 30
0.0
 10
98.988100
 20
19.356500
 30
0.0
 10
99.080600
 20
19.346800
 30
0.0
 10
99.166400
 20
19.334300
 30
0.0
 10
99.245700
 20
19.319000
 30
0.0
 10
99.318400
 20
19.301000
 30
0.0
 10
99.318400
 20
20.420000
 30
0.0
 10
99.247200
 20
20.438000
 30
0.0
 10
99.176200
 20
20.453300
 30
0.0
 10
99.105600
 20
20.465800
 30
0.0
 10
99.035300
 20
20.475500
 30
0.0
 10
98.965400
 20
20.482400
 30
0.0
 10
98.895700
 20
20.486600
 30
0.0
 10
98.826400
 20
20.488000
 30
0.0
 10
98.636200
 20
20.480900
 30
0.0
 10
98.458600
 20
20.459700
 30
0.0
 10
98.293600
 20
20.424400
 30
0.0
 10
98.141400
 20
20.375000
 30
0.0
 10
98.001700
 20
20.311500
 30
0.0
 10
97.874800
 20
20.233800
 30
0.0
 10
97.760400
 20
20.142000
 30
0.0
 10
97.654200
 20
20.031000
 30
0.0
 10
97.551600
 20
19.895600
 30
0.0
 10
97.452600
 20
19.735900
 30
0.0
 10
97.357200
 20
19.552000
 30
0.0
 10
97.265300
 20
19.343600
 30
0.0
 10
97.177100
 20
19.111000
 30
0.0
 10
97.092400
 20
18.854000
 30
0.0
 10
97.065400
 20
18.854000
 30
0.0
 10
97.061000
 20
19.079800
 30
0.0
 10
97.037900
 20
19.725200
 30
0.0
 10
97.011400
 20
20.360000
 30
0.0
 10
95.858400
 20
20.360000
 30
0.0
 10
95.878500
 20
19.836800
 30
0.0
 10
95.891900
 20
19.340400
 30
0.0
 10
95.898600
 20
18.870800
 30
0.0
 10
95.899400
 20
13.000000
 30
0.0
 10
97.120400
 20
13.000000
 30
0.0
 10
97.120400
 20
16.834000
 30
0.0
  0
LWPOLYLINE
  5
11c
100
AcDbEntity
  8
0
 62
7
100
AcDbPolyline
 90
199
 70
0
 10
103.330000
 20
12.883400
 30
0.0
 10
103.696000
 20
12.917700
 30
0.0
 10
104.037000
 20
12.974900
 30
0.0
 10
104.352000
 20
13.054900
 30
0.0
 10
104.641000
 20
13.157700
 30
0.0
 10
104.904000
 20
13.283400
 30
0.0
 10
105.142000
 20
13.432000
 30
0.0
 10
105.351000
 20
13.601600
 30
0.0
 10
105.527000
 20
13.790600
 30
0.0
 10
105.672000
 20
13.998900
 30
0.0
 10
105.784000
 20
14.226400
 30
0.0
 10
105.865000
 20
14.473300
 30
0.0
 10
105.913000
 20
14.739500
 30
0.0
 10
105.929000
 20
15.025000
 30
0.0
 10
105.926000
 20
15.142800
 30
0.0
 10
105.918000
 20
15.256900
 30
0.0
 10
105.904000
 20
15.367200
 30
0.0
 10
105.884000
 20
15.473800
 30
0.0
 10
105.859000
 20
15.576600
 30
0.0
 10
105.828000
 20
15.675700
 30
0.0
 10
105.792000
 20
15.771000
 30
0.0
 10
105.751000
 20
15.862900
 30
0.0
 10
105.705000
 20
15.951600
 30
0.0
 10
105.655000
 20
16.037100
 30
0.0
 10
105.600000
 20
16.119600
 30
0.0
 10
105.540000
 20
16.198900
 30
0.0
 10
105.476000
 20
16.275000
 30
0.0
 10
105.407000
 20
16.348000
 30
0.0
 10
105.332000
 20
16.418500
 30
0.0
 10
105.250000
 20
16.487200
 30
0.0
 10
105.160000
 20
16.554000
 30
0.0
 10
105.063000
 20
16.619000
 30
0.0
 10
104.959000
 20
16.682200
 30
0.0
 10
104.847000
 20
16.743500
 30
0.0
 10
104.728000
 20
16.803000
 30
0.0
 10
104.594000
 20
16.862600
 30
0.0
 10
104.438000
 20
16.923700
 30
0.0
 10
104.260000
 20
16.986400
 30
0.0
 10
104.059000
 20
17.050500
 30
0.0
 10
103.836000
 20
17.116100
 30
0.0
 10
103.591000
 20
17.183300
 30
0.0
 10
103.323000
 20
17.252000
 30
0.0
 10
103.043000
 20
17.321200
 30
0.0
 10
102.793000
 20
17.386000
 30
0.0
 10
102.571000
 20
17.446400
 30
0.0
 10
102.378000
 20
17.502400
 30
0.0
 10
102.214000
 20
17.554000
 30
0.0
 10
102.079000
 20
17.601200
 30
0.0
 10
101.973000
 20
17.644000
 30
0.0
 10
101.885000
 20
17.685800
 30
0.0
 10
101.802000
 20
17.730000
 30
0.0
 10
101.727000
 20
17.776700
 30
0.0
 10
101.657000
 20
17.825900
 30
0.0
 10
101.595000
 20
17.877500
 30
0.0
 10
101.538000
 20
17.931500
 30
0.0
 10
101.488000
 20
17.988000
 30
0.0
 10
101.445000
 20
18.048200
 30
0.0
 10
101.408000
 20
18.112700
 30
0.0
 10
101.378000
 20
18.181600
 30
0.0
 10
101.355000
 20
18.254900
 30
0.0
 10
101.338000
 20
18.332600
 30
0.0
 10
101.328000
 20
18.414600
 30
0.0
 10
101.325000
 20
18.501000
 30
0.0
 10
101.333000
 20
18.639800
 30
0.0
 10
101.357000
 20
18.768100
 30
0.0
 10
101.398000
 20
18.886000
 30
0.0
 10
101.454000
 20
18.993400
 30
0.0
 10
101.527000
 20
19.090400
 30
0.0
 10
101.616000
 20
19.176900
 30
0.0
 10
101.721000
 20
19.253000
 30
0.0
 10
101.843000
 20
19.319000
 30
0.0
 10
101.983000
 20
19.375000
 30
0.0
 10
102.141000
 20
19.420700
 30
0.0
 10
102.317000
 20
19.456300
 30
0.0
 10
102.511000
 20
19.481700
 30
0.0
 10
102.722000
 20
19.496900
 30
0.0
 10
102.951000
 20
19.502000
 30
0.0
 10
103.160000
 20
19.496700
 30
0.0
 10
103.356000
 20
19.480700
 30
0.0
 10
103.540000
 20
19.454100
 30
0.0
 10
103.711000
 20
19.416800
 30
0.0
 10
103.870000
 20
19.368800
 30
0.0
 10
104.016000
 20
19.310200
 30
0.0
 10
104.150000
 20
19.241000
 30
0.0
 10
104.271000
 20
19.161800
 30
0.0
 10
104.378000
 20
19.073200
 30
0.0
 10
104.471000
 20
18.975400
 30
0.0
 10
104.549000
 20
18.868300
 30
0.0
 10
104.614000
 20
18.751800
 30
0.0
 10
104.665000
 20
18.626100
 30
0.0
 10
104.701000
 20
18.491000
 30
0.0
 10
105.799000
 20
18.627000
 30
0.0
 10
105.734000
 20
18.885600
 30
0.0
 10
105.647000
 20
19.123200
 30
0.0
 10
105.538000
 20
19.339800
 30
0.0
 10
105.408000
 20
19.535400
 30
0.0
 10
105.257000
 20
19.709900
 30
0.0
 10
105.084000
 20
19.863500
 30
0.0
 10
104.889000
 20
19.996000
 30
0.0
 10
104.674000
 20
20.109500
 30
0.0
 10
104.438000
 20
20.205600
 30
0.0
 10
104.181000
 20
20.284200
 30
0.0
 10
103.905000
 20
20.345400
 30
0.0
 10
103.607000
 20
20.389100
 30
0.0
 10
103.289000
 20
20.415300
 30
0.0
 10
102.951000
 20
20.424000
 30
0.0
 10
102.571000
 20
20.413300
 30
0.0
 10
102.218000
 20
20.381300
 30
0.0
 10
101.892000
 20
20.327900
 30
0.0
 10
101.593000
 20
20.253200
 30
0.0
 10
101.321000
 20
20.157200
 30
0.0
 10
101.075000
 20
20.039700
 30
0.0
 10
100.856000
 20
19.901000
 30
0.0
 10
100.666000
 20
19.741900
 30
0.0
 10
100.504000
 20
19.563300
 30
0.0
 10
100.372000
 20
19.365300
 30
0.0
 10
100.270000
 20
19.147800
 30
0.0
 10
100.197000
 20
18.911000
 30
0.0
 10
100.153000
 20
18.654700
 30
0.0
 10
100.138000
 20
18.379000
 30
0.0
 10
100.143000
 20
18.228100
 30
0.0
 10
100.159000
 20
18.084200
 30
0.0
 10
100.184000
 20
17.947200
 30
0.0
 10
100.220000
 20
17.817000
 30
0.0
 10
100.267000
 20
17.693800
 30
0.0
 10
100.323000
 20
17.577400
 30
0.0
 10
100.390000
 20
17.468000
 30
0.0
 10
100.466000
 20
17.364300
 30
0.0
 10
100.550000
 20
17.265100
 30
0.0
 10
100.642000
 20
17.170400
 30
0.0
 10
100.742000
 20
17.080200
 30
0.0
 10
100.850000
 20
16.994600
 30
0.0
 10
100.966000
 20
16.913500
 30
0.0
 10
101.089000
 20
16.837000
 30
0.0
 10
101.229000
 20
16.762500
 30
0.0
 10
101.394000
 20
16.687600
 30
0.0
 10
101.584000
 20
16.612300
 30
0.0
 10
101.799000
 20
16.536600
 30
0.0
 10
102.039000
 20
16.460500
 30
0.0
 10
102.303000
 20
16.383900
 30
0.0
 10
103.473000
 20
16.077000
 30
0.0
 10
103.657000
 20
16.025100
 30
0.0
 10
103.825000
 20
15.969200
 30
0.0
 10
103.979000
 20
15.909500
 30
0.0
 10
104.117000
 20
15.846000
 30
0.0
 10
104.240000
 20
15.778500
 30
0.0
 10
104.349000
 20
15.707200
 30
0.0
 10
104.442000
 20
15.632000
 30
0.0
 10
104.522000
 20
15.551500
 30
0.0
 10
104.589000
 20
15.464500
 30
0.0
 10
104.644000
 20
15.370800
 30
0.0
 10
104.687000
 20
15.270500
 30
0.0
 10
104.718000
 20
15.163600
 30
0.0
 10
104.736000
 20
15.050100
 30
0.0
 10
104.742000
 20
14.930000
 30
0.0
 10
104.733000
 20
14.774600
 30
0.0
 10
104.707000
 20
14.630600
 30
0.0
 10
104.662000
 20
14.498200
 30
0.0
 10
104.600000
 20
14.377200
 30
0.0
 10
104.521000
 20
14.267600
 30
0.0
 10
104.423000
 20
14.169600
 30
0.0
 10
104.308000
 20
14.083000
 30
0.0
 10
104.174000
 20
14.008200
 30
0.0
 10
104.019000
 20
13.944900
 30
0.0
 10
103.844000
 20
13.893100
 30
0.0
 10
103.648000
 20
13.852800
 30
0.0
 10
103.432000
 20
13.824000
 30
0.0
 10
103.195000
 20
13.806700
 30
0.0
 10
102.938000
 20
13.801000
 30
0.0
 10
102.696000
 20
13.806600
 30
0.0
 10
102.470000
 20
13.823400
 30
0.0
 10
102.259000
 20
13.851500
 30
0.0
 10
102.064000
 20
13.890800
 30
0.0
 10
101.884000
 20
13.941300
 30
0.0
 10
101.720000
 20
14.003000
 30
0.0
 10
101.572000
 20
14.076000
 30
0.0
 10
101.438000
 20
14.161000
 30
0.0
 10
101.318000
 20
14.258900
 30
0.0
 10
101.212000
 20
14.369600
 30
0.0
 10
101.119000
 20
14.493100
 30
0.0
 10
101.040000
 20
14.629600
 30
0.0
 10
100.975000
 20
14.778900
 30
0.0
 10
100.923000
 20
14.941000
 30
0.0
 10
99.845000
 20
14.731000
 30
0.0
 10
99.919900
 20
14.467900
 30
0.0
 10
100.016000
 20
14.225400
 30
0.0
 10
100.134000
 20
14.003600
 30
0.0
 10
100.272000
 20
13.802500
 30
0.0
 10
100.432000
 20
13.622000
 30
0.0
 10
100.614000
 20
13.462200
 30
0.0
 10
100.816000
 20
13.323000
 30
0.0
 10
101.042000
 20
13.203300
 30
0.0
 10
101.294000
 20
13.102100
 30
0.0
 10
101.571000
 20
13.019300
 30
0.0
 10
101.874000
 20
12.954800
 30
0.0
 10
102.203000
 20
12.908800
 30
0.0
 10
102.558000
 20
12.881200
 30
0.0
 10
102.938000
 20
12.872000
 30
0.0
 10
103.330000
 20
12.883400
 30
0.0
  0
LWPOLYLINE
  5
11d
100
AcDbEntity
  8
0
 62
7
100
AcDbPolyline
 90
80
 70
0
 10
90.865100
 20
12.878400
 30
0.0
 10
91.083900
 20
12.897700
 30
0.0
 10
91.291700
 20
12.929900
 30
0.0
 10
91.488500
 20
12.974900
 30
0.0
 10
91.674400
 20
13.032700
 30
0.0
 10
91.849400
 20
13.103400
 30
0.0
 10
92.013500
 20
13.187000
 30
0.0
 10
92.169300
 20
13.286300
 30
0.0
 10
92.319700
 20
13.403800
 30
0.0
 10
92.464700
 20
13.539400
 30
0.0
 10
92.604300
 20
13.693100
 30
0.0
 10
92.738400
 20
13.864900
 30
0.0
 10
92.867200
 20
14.054900
 30
0.0
 10
92.990400
 20
14.263000
 30
0.0
 10
93.010500
 20
14.263000
 30
0.0
 10
93.058500
 20
13.050400
 30
0.0
 10
93.064500
 20
13.000000
 30
0.0
 10
94.217500
 20
13.000000
 30
0.0
 10
94.206600
 20
13.102100
 30
0.0
 10
94.197400
 20
13.245000
 30
0.0
 10
94.189800
 20
13.428600
 30
0.0
 10
94.184000
 20
13.653100
 30
0.0
 10
94.179800
 20
13.918300
 30
0.0
 10
94.176500
 20
14.571000
 30
0.0
 10
94.176500
 20
20.360000
 30
0.0
 10
92.955500
 20
20.360000
 30
0.0
 10
92.955500
 20
16.099000
 30
0.0
 10
92.945000
 20
15.801700
 30
0.0
 10
92.913700
 20
15.523600
 30
0.0
 10
92.861600
 20
15.264600
 30
0.0
 10
92.788600
 20
15.024700
 30
0.0
 10
92.694700
 20
14.804000
 30
0.0
 10
92.580000
 20
14.602400
 30
0.0
 10
92.444500
 20
14.420000
 30
0.0
 10
92.290800
 20
14.259500
 30
0.0
 10
92.121800
 20
14.123700
 30
0.0
 10
91.937600
 20
14.012500
 30
0.0
 10
91.738000
 20
13.926100
 30
0.0
 10
91.523100
 20
13.864400
 30
0.0
 10
91.292900
 20
13.827300
 30
0.0
 10
91.047500
 20
13.815000
 30
0.0
 10
90.880300
 20
13.818600
 30
0.0
 10
90.725000
 20
13.829400
 30
0.0
 10
90.581600
 20
13.847300
 30
0.0
 10
90.450200
 20
13.872500
 30
0.0
 10
90.330700
 20
13.904800
 30
0.0
 10
90.223100
 20
13.944300
 30
0.0
 10
90.127500
 20
13.991000
 30
0.0
 10
90.041500
 20
14.046100
 30
0.0
 10
89.962500
 20
14.110400
 30
0.0
 10
89.890400
 20
14.183900
 30
0.0
 10
89.825300
 20
14.266400
 30
0.0
 10
89.767000
 20
14.358100
 30
0.0
 10
89.715800
 20
14.459000
 30
0.0
 10
89.671400
 20
14.569000
 30
0.0
 10
89.633500
 20
14.690200
 30
0.0
 10
89.601400
 20
14.824800
 30
0.0
 10
89.575100
 20
14.972800
 30
0.0
 10
89.554700
 20
15.134000
 30
0.0
 10
89.540100
 20
15.308700
 30
0.0
 10
89.531400
 20
15.496700
 30
0.0
 10
89.528500
 20
15.698000
 30
0.0
 10
89.528500
 20
20.360000
 30
0.0
 10
88.301500
 20
20.360000
 30
0.0
 10
88.301500
 20
15.461000
 30
0.0
 10
88.312900
 20
15.081000
 30
0.0
 10
88.347200
 20
14.733000
 30
0.0
 10
88.404500
 20
14.417000
 30
0.0
 10
88.484600
 20
14.133000
 30
0.0
 10
88.587700
 20
13.881000
 30
0.0
 10
88.713600
 20
13.661000
 30
0.0
 10
88.862500
 20
13.473000
 30
0.0
 10
89.036300
 20
13.313500
 30
0.0
 10
89.236600
 20
13.178600
 30
0.0
 10
89.463400
 20
13.068200
 30
0.0
 10
89.716700
 20
12.982400
 30
0.0
 10
89.996400
 20
12.921100
 30
0.0
 10
90.302700
 20
12.884300
 30
0.0
 10
90.635500
 20
12.872000
 30
0.0
 10
90.865100
 20
12.878400
 30
0.0
  0
LWPOLYLINE
  5
11e
100
AcDbEntity
  8
0
 62
7
100
AcDbPolyline
 90
51
 70
0
 10
122.124000
 20
-2.893720
 30
0.0
 10
122.854000
 20
-2.706330
 30
0.0
 10
123.555000
 20
-2.428960
 30
0.0
 10
124.215000
 20
-2.065960
 30
0.0
 10
124.825000
 20
-1.623080
 30
0.0
 10
125.374000
 20
-1.107270
 30
0.0
 10
125.854000
 20
-0.526703
 30
0.0
 10
126.258000
 20
0.109482
 30
0.0
 10
126.579000
 20
0.791260
 30
0.0
 10
126.811000
 20
1.507870
 30
0.0
 10
126.953000
 20
2.248000
 30
0.0
 10
127.000000
 20
3.000000
 30
0.0
 10
126.953000
 20
3.752010
 30
0.0
 10
126.811000
 20
4.492140
 30
0.0
 10
126.579000
 20
5.208760
 30
0.0
 10
126.258000
 20
5.890530
 30
0.0
 10
125.854000
 20
6.526720
 30
0.0
 10
125.374000
 20
7.107280
 30
0.0
 10
124.825000
 20
7.623090
 30
0.0
 10
124.215000
 20
8.065980
 30
0.0
 10
123.555000
 20
8.428970
 30
0.0
 10
122.854000
 20
8.706340
 30
0.0
 10
122.124000
 20
8.893740
 30
0.0
 10
121.377000
 20
8.988170
 30
0.0
 10
120.623000
 20
8.988170
 30
0.0
 10
119.876000
 20
8.893740
 30
0.0
 10
119.146000
 20
8.706340
 30
0.0
 10
118.445000
 20
8.428970
 30
0.0
 10
117.785000
 20
8.065980
 30
0.0
 10
117.175000
 20
7.623090
 30
0.0
 10
116.626000
 20
7.107280
 30
0.0
 10
116.146000
 20
6.526720
 30
0.0
 10
115.742000
 20
5.890530
 30
0.0
 10
115.421000
 20
5.208760
 30
0.0
 10
115.189000
 20
4.492140
 30
0.0
 10
115.047000
 20
3.752010
 30
0.0
 10
115.000000
 20
3.000000
 30
0.0
 10
115.047000
 20
2.248000
 30
0.0
 10
115.189000
 20
1.507870
 30
0.0
 10
115.421000
 20
0.791260
 30
0.0
 10
115.742000
 20
0.109482
 30
0.0
 10
116.146000
 20
-0.526703
 30
0.0
 10
116.626000
 20
-1.107270
 30
0.0
 10
117.175000
 20
-1.623080
 30
0.0
 10
117.785000
 20
-2.065960
 30
0.0
 10
118.445000
 20
-2.428960
 30
0.0
 10
119.146000
 20
-2.706330
 30
0.0
 10
119.876000
 20
-2.893720
 30
0.0
 10
120.623000
 20
-2.988160
 30
0.0
 10
121.377000
 20
-2.988160
 30
0.0
 10
122.124000
 20
-2.893720
 30
0.0
  0
LWPOLYLINE
  5
11f
100
AcDbEntity
  8
0
 62
7
100
AcDbPolyline
 90
76
 70
0
 10
74.497500
 20
2.336000
 30
0.0
 10
74.508100
 20
2.616960
 30
0.0
 10
74.540000
 20
2.880970
 30
0.0
 10
74.593200
 20
3.128050
 30
0.0
 10
74.667600
 20
3.358200
 30
0.0
 10
74.763300
 20
3.571400
 30
0.0
 10
74.880300
 20
3.767670
 30
0.0
 10
75.018500
 20
3.946990
 30
0.0
 10
75.174400
 20
4.105650
 30
0.0
 10
75.344400
 20
4.239880
 30
0.0
 10
75.528500
 20
4.349730
 30
0.0
 10
75.726600
 20
4.435150
 30
0.0
 10
75.938800
 20
4.496170
 30
0.0
 10
76.165100
 20
4.532790
 30
0.0
 10
76.405500
 20
4.545000
 30
0.0
 10
76.565800
 20
4.541380
 30
0.0
 10
76.715800
 20
4.530550
 30
0.0
 10
76.855500
 20
4.512480
 30
0.0
 10
76.984900
 20
4.487200
 30
0.0
 10
77.104100
 20
4.454680
 30
0.0
 10
77.213000
 20
4.414950
 30
0.0
 10
77.311500
 20
4.368000
 30
0.0
 10
77.401200
 20
4.313580
 30
0.0
 10
77.483400
 20
4.250930
 30
0.0
 10
77.558000
 20
4.180040
 30
0.0
 10
77.625200
 20
4.100890
 30
0.0
 10
77.684800
 20
4.013500
 30
0.0
 10
77.736900
 20
3.917880
 30
0.0
 10
77.781500
 20
3.814000
 30
0.0
 10
77.819500
 20
3.698150
 30
0.0
 10
77.851600
 20
3.566070
 30
0.0
 10
77.877800
 20
3.417740
 30
0.0
 10
77.898300
 20
3.253170
 30
0.0
 10
77.912800
 20
3.072360
 30
0.0
 10
77.921600
 20
2.875310
 30
0.0
 10
77.924500
 20
2.661990
 30
0.0
 10
77.924500
 20
-2.000000
 30
0.0
 10
79.151500
 20
-2.000000
 30
0.0
 10
79.151500
 20
2.898990
 30
0.0
 10
79.139900
 20
3.282550
 30
0.0
 10
79.105100
 20
3.633190
 30
0.0
 10
79.047200
 20
3.950960
 30
0.0
 10
78.966000
 20
4.235810
 30
0.0
 10
78.861700
 20
4.487760
 30
0.0
 10
78.734200
 20
4.706830
 30
0.0
 10
78.583500
 20
4.892990
 30
0.0
 10
78.408400
 20
5.050840
 30
0.0
 10
78.207500
 20
5.184420
 30
0.0
 10
77.980900
 20
5.293700
 30
0.0
 10
77.728700
 20
5.378710
 30
0.0
 10
77.450700
 20
5.439420
 30
0.0
 10
77.146900
 20
5.475850
 30
0.0
 10
76.817500
 20
5.487990
 30
0.0
 10
76.580700
 20
5.481110
 30
0.0
 10
76.355900
 20
5.460480
 30
0.0
 10
76.143100
 20
5.426100
 30
0.0
 10
75.942400
 20
5.377940
 30
0.0
 10
75.753700
 20
5.316060
 30
0.0
 10
75.577100
 20
5.240400
 30
0.0
 10
75.412500
 20
5.150990
 30
0.0
 10
75.257500
 20
5.047150
 30
0.0
 10
75.108900
 20
4.927640
 30
0.0
 10
74.966900
 20
4.792470
 30
0.0
 10
74.831300
 20
4.641600
 30
0.0
 10
74.702200
 20
4.475070
 30
0.0
 10
74.579600
 20
4.292880
 30
0.0
 10
74.463500
 20
4.094990
 30
0.0
 10
74.442500
 20
4.094990
 30
0.0
 10
74.473500
 20
4.599990
 30
0.0
 10
74.489700
 20
4.970460
 30
0.0
 10
74.497000
 20
5.331010
 30
0.0
 10
74.497500
 20
8.047990
 30
0.0
 10
73.276500
 20
8.047990
 30
0.0
 10
73.276500
 20
-2.000000
 30
0.0
 10
74.497500
 20
-2.000000
 30
0.0
 10
74.497500
 20
2.336000
 30
0.0
  0
LWPOLYLINE
  5
120
100
AcDbEntity
  8
0
 62
7
100
AcDbPolyline
 90
168
 70
0
 10
65.314100
 20
-2.113070
 30
0.0
 10
65.716800
 20
-2.068310
 30
0.0
 10
66.090100
 20
-1.993740
 30
0.0
 10
66.434000
 20
-1.889310
 30
0.0
 10
66.748400
 20
-1.755050
 30
0.0
 10
67.033400
 20
-1.590940
 30
0.0
 10
67.289000
 20
-1.397000
 30
0.0
 10
67.512600
 20
-1.175600
 30
0.0
 10
67.701900
 20
-0.929657
 30
0.0
 10
67.856700
 20
-0.659195
 30
0.0
 10
67.977200
 20
-0.364197
 30
0.0
 10
68.063200
 20
-0.044663
 30
0.0
 10
68.114800
 20
0.299408
 30
0.0
 10
68.132000
 20
0.667999
 30
0.0
 10
68.119800
 20
0.925278
 30
0.0
 10
68.083100
 20
1.169710
 30
0.0
 10
68.022000
 20
1.401280
 30
0.0
 10
67.936400
 20
1.620000
 30
0.0
 10
67.826400
 20
1.825850
 30
0.0
 10
67.691900
 20
2.018840
 30
0.0
 10
67.533000
 20
2.198990
 30
0.0
 10
67.352400
 20
2.362950
 30
0.0
 10
67.152400
 20
2.506840
 30
0.0
 10
66.933000
 20
2.630630
 30
0.0
 10
66.694100
 20
2.734340
 30
0.0
 10
66.435900
 20
2.817980
 30
0.0
 10
66.158100
 20
2.881520
 30
0.0
 10
65.861000
 20
2.924990
 30
0.0
 10
65.861000
 20
2.952000
 30
0.0
 10
66.131200
 20
3.017490
 30
0.0
 10
66.382400
 20
3.097950
 30
0.0
 10
66.614500
 20
3.193410
 30
0.0
 10
66.827700
 20
3.303830
 30
0.0
 10
67.021800
 20
3.429230
 30
0.0
 10
67.196900
 20
3.569630
 30
0.0
 10
67.353000
 20
3.724990
 30
0.0
 10
67.489400
 20
3.895100
 30
0.0
 10
67.604800
 20
4.079120
 30
0.0
 10
67.699200
 20
4.277050
 30
0.0
 10
67.772600
 20
4.488910
 30
0.0
 10
67.825000
 20
4.714690
 30
0.0
 10
67.856500
 20
4.954380
 30
0.0
 10
67.867000
 20
5.207990
 30
0.0
 10
67.850700
 20
5.537020
 30
0.0
 10
67.801800
 20
5.844650
 30
0.0
 10
67.720200
 20
6.130890
 30
0.0
 10
67.606100
 20
6.395750
 30
0.0
 10
67.459300
 20
6.639220
 30
0.0
 10
67.280000
 20
6.861300
 30
0.0
 10
67.068000
 20
7.062000
 30
0.0
 10
66.826600
 20
7.238690
 30
0.0
 10
66.559000
 20
7.388200
 30
0.0
 10
66.265200
 20
7.510530
 30
0.0
 10
65.945200
 20
7.605670
 30
0.0
 10
65.599000
 20
7.673630
 30
0.0
 10
65.226600
 20
7.714400
 30
0.0
 10
64.828000
 20
7.728000
 30
0.0
 10
64.460600
 20
7.714570
 30
0.0
 10
64.112900
 20
7.674270
 30
0.0
 10
63.784700
 20
7.607130
 30
0.0
 10
63.476200
 20
7.513140
 30
0.0
 10
63.187200
 20
7.392270
 30
0.0
 10
62.917800
 20
7.244570
 30
0.0
 10
62.668000
 20
7.069990
 30
0.0
 10
62.442600
 20
6.871750
 30
0.0
 10
62.246000
 20
6.652440
 30
0.0
 10
62.078000
 20
6.412080
 30
0.0
 10
61.938700
 20
6.150650
 30
0.0
 10
61.828100
 20
5.868150
 30
0.0
 10
61.746200
 20
5.564610
 30
0.0
 10
61.693000
 20
5.239990
 30
0.0
 10
62.920000
 20
5.144990
 30
0.0
 10
62.952000
 20
5.352940
 30
0.0
 10
63.001000
 20
5.547030
 30
0.0
 10
63.067000
 20
5.727290
 30
0.0
 10
63.150200
 20
5.893720
 30
0.0
 10
63.250400
 20
6.046330
 30
0.0
 10
63.367700
 20
6.185070
 30
0.0
 10
63.502000
 20
6.310000
 30
0.0
 10
63.651500
 20
6.419830
 30
0.0
 10
63.813600
 20
6.512770
 30
0.0
 10
63.988400
 20
6.588810
 30
0.0
 10
64.175800
 20
6.647950
 30
0.0
 10
64.375900
 20
6.690200
 30
0.0
 10
64.588600
 20
6.715550
 30
0.0
 10
64.814000
 20
6.724000
 30
0.0
 10
65.060200
 20
6.714970
 30
0.0
 10
65.288400
 20
6.687910
 30
0.0
 10
65.498600
 20
6.642810
 30
0.0
 10
65.690900
 20
6.579670
 30
0.0
 10
65.865200
 20
6.498490
 30
0.0
 10
66.021600
 20
6.399260
 30
0.0
 10
66.160000
 20
6.282000
 30
0.0
 10
66.280200
 20
6.149440
 30
0.0
 10
66.381900
 20
6.003780
 30
0.0
 10
66.465100
 20
5.845030
 30
0.0
 10
66.529800
 20
5.673170
 30
0.0
 10
66.576000
 20
5.488220
 30
0.0
 10
66.603700
 20
5.290160
 30
0.0
 10
66.613000
 20
5.078990
 30
0.0
 10
66.601700
 20
4.866090
 30
0.0
 10
66.567700
 20
4.666820
 30
0.0
 10
66.511000
 20
4.481200
 30
0.0
 10
66.431800
 20
4.309190
 30
0.0
 10
66.329800
 20
4.150830
 30
0.0
 10
66.205200
 20
4.006090
 30
0.0
 10
66.058000
 20
3.875000
 30
0.0
 10
65.890200
 20
3.759580
 30
0.0
 10
65.703900
 20
3.661930
 30
0.0
 10
65.499100
 20
3.582030
 30
0.0
 10
65.275800
 20
3.519900
 30
0.0
 10
65.034000
 20
3.475510
 30
0.0
 10
64.773700
 20
3.448870
 30
0.0
 10
64.495000
 20
3.439990
 30
0.0
 10
63.828000
 20
3.439990
 30
0.0
 10
63.828000
 20
2.381990
 30
0.0
 10
64.522000
 20
2.381990
 30
0.0
 10
64.835900
 20
2.372960
 30
0.0
 10
65.128000
 20
2.345830
 30
0.0
 10
65.398300
 20
2.300630
 30
0.0
 10
65.646700
 20
2.237340
 30
0.0
 10
65.873300
 20
2.155980
 30
0.0
 10
66.078100
 20
2.056520
 30
0.0
 10
66.261000
 20
1.939000
 30
0.0
 10
66.420700
 20
1.805600
 30
0.0
 10
66.555800
 20
1.658020
 30
0.0
 10
66.666400
 20
1.496220
 30
0.0
 10
66.752400
 20
1.320220
 30
0.0
 10
66.813800
 20
1.130020
 30
0.0
 10
66.850700
 20
0.925598
 30
0.0
 10
66.863000
 20
0.706985
 30
0.0
 10
66.852200
 20
0.457504
 30
0.0
 10
66.819900
 20
0.226181
 30
0.0
 10
66.766000
 20
0.013016
 30
0.0
 10
66.690600
 20
-0.181992
 30
0.0
 10
66.593600
 20
-0.358826
 30
0.0
 10
66.475100
 20
-0.517502
 30
0.0
 10
66.335000
 20
-0.658005
 30
0.0
 10
66.176300
 20
-0.780045
 30
0.0
 10
66.001200
 20
-0.883316
 30
0.0
 10
65.809800
 20
-0.967804
 30
0.0
 10
65.602100
 20
-1.033520
 30
0.0
 10
65.378100
 20
-1.080460
 30
0.0
 10
65.137700
 20
-1.108630
 30
0.0
 10
64.881000
 20
-1.118010
 30
0.0
 10
64.386500
 20
-1.083390
 30
0.0
 10
63.957300
 20
-0.979553
 30
0.0
 10
63.593400
 20
-0.806503
 30
0.0
 10
63.294900
 20
-0.564209
 30
0.0
 10
63.061600
 20
-0.252701
 30
0.0
 10
62.893600
 20
0.128036
 30
0.0
 10
62.791000
 20
0.577988
 30
0.0
 10
61.530000
 20
0.462997
 30
0.0
 10
61.590900
 20
0.109497
 30
0.0
 10
61.680600
 20
-0.218399
 30
0.0
 10
61.799000
 20
-0.520706
 30
0.0
 10
61.946200
 20
-0.797409
 30
0.0
 10
62.122000
 20
-1.048540
 30
0.0
 10
62.326600
 20
-1.274060
 30
0.0
 10
62.560000
 20
-1.474010
 30
0.0
 10
62.819700
 20
-1.647520
 30
0.0
 10
63.103400
 20
-1.794330
 30
0.0
 10
63.411100
 20
-1.914460
 30
0.0
 10
63.742800
 20
-2.007870
 30
0.0
 10
64.098600
 20
-2.074600
 30
0.0
 10
64.478300
 20
-2.114640
 30
0.0
 10
64.882000
 20
-2.127990
 30
0.0
 10
65.314100
 20
-2.113070
 30
0.0
  0
LWPOLYLINE
  5
121
100
AcDbEntity
  8
0
 62
7
100
AcDbPolyline
 90
50
 70
0
 10
84.142100
 20
-2.108750
 30
0.0
 10
84.557400
 20
-2.051010
 30
0.0
 10
84.941300
 20
-1.954800
 30
0.0
 10
85.293900
 20
-1.820080
 30
0.0
 10
85.615100
 20
-1.646880
 30
0.0
 10
85.905000
 20
-1.435200
 30
0.0
 10
86.163500
 20
-1.185010
 30
0.0
 10
86.389000
 20
-0.895218
 30
0.0
 10
86.579800
 20
-0.565247
 30
0.0
 10
86.735900
 20
-0.195129
 30
0.0
 10
86.857400
 20
0.215149
 30
0.0
 10
86.944100
 20
0.665604
 30
0.0
 10
86.996100
 20
1.156220
 30
0.0
 10
87.013500
 20
1.687000
 30
0.0
 10
86.997200
 20
2.222700
 30
0.0
 10
86.948500
 20
2.716710
 30
0.0
 10
86.867300
 20
3.168990
 30
0.0
 10
86.753600
 20
3.579560
 30
0.0
 10
86.607400
 20
3.948430
 30
0.0
 10
86.428700
 20
4.275560
 30
0.0
 10
86.217500
 20
4.560990
 30
0.0
 10
85.972200
 20
4.806930
 30
0.0
 10
85.690500
 20
5.015030
 30
0.0
 10
85.372400
 20
5.185300
 30
0.0
 10
85.018000
 20
5.317730
 30
0.0
 10
84.627200
 20
5.412320
 30
0.0
 10
84.200000
 20
5.469070
 30
0.0
 10
83.736500
 20
5.487990
 30
0.0
 10
82.861800
 20
5.410420
 30
0.0
 10
82.121600
 20
5.177700
 30
0.0
 10
81.516100
 20
4.789860
 30
0.0
 10
81.045100
 20
4.246860
 30
0.0
 10
80.708600
 20
3.548710
 30
0.0
 10
80.506800
 20
2.695420
 30
0.0
 10
80.439500
 20
1.687000
 30
0.0
 10
80.456300
 20
1.175350
 30
0.0
 10
80.506600
 20
0.699326
 30
0.0
 10
80.590500
 20
0.258865
 30
0.0
 10
80.707900
 20
-0.145981
 30
0.0
 10
80.858900
 20
-0.515259
 30
0.0
 10
81.043400
 20
-0.848923
 30
0.0
 10
81.261500
 20
-1.147000
 30
0.0
 10
81.512700
 20
-1.407270
 30
0.0
 10
81.796100
 20
-1.627500
 30
0.0
 10
82.111600
 20
-1.807680
 30
0.0
 10
82.459400
 20
-1.947830
 30
0.0
 10
82.839200
 20
-2.047910
 30
0.0
 10
83.251300
 20
-2.107970
 30
0.0
 10
83.695500
 20
-2.127990
 30
0.0
 10
84.142100
 20
-2.108750
 30
0.0
  0
LWPOLYLINE
  5
122
100
AcDbEntity
  8
0
 62
7
100
AcDbPolyline
 90
57
 70
0
 10
83.403500
 20
-1.211110
 30
0.0
 10
83.146700
 20
-1.166410
 30
0.0
 10
82.912000
 20
-1.091920
 30
0.0
 10
82.699500
 20
-0.987640
 30
0.0
 10
82.509000
 20
-0.853561
 30
0.0
 10
82.340700
 20
-0.689682
 30
0.0
 10
82.194500
 20
-0.496002
 30
0.0
 10
82.069000
 20
-0.272675
 30
0.0
 10
81.962800
 20
-0.019852
 30
0.0
 10
81.875900
 20
0.262497
 30
0.0
 10
81.808400
 20
0.574356
 30
0.0
 10
81.760100
 20
0.915726
 30
0.0
 10
81.731100
 20
1.286610
 30
0.0
 10
81.721500
 20
1.687000
 30
0.0
 10
81.731300
 20
2.097690
 30
0.0
 10
81.760700
 20
2.476060
 30
0.0
 10
81.809600
 20
2.822100
 30
0.0
 10
81.878200
 20
3.135800
 30
0.0
 10
81.966400
 20
3.417190
 30
0.0
 10
82.074100
 20
3.666260
 30
0.0
 10
82.201500
 20
3.883000
 30
0.0
 10
82.350800
 20
4.069500
 30
0.0
 10
82.524400
 20
4.227330
 30
0.0
 10
82.722400
 20
4.356450
 30
0.0
 10
82.944700
 20
4.456860
 30
0.0
 10
83.191300
 20
4.528610
 30
0.0
 10
83.462200
 20
4.571640
 30
0.0
 10
83.757500
 20
4.586000
 30
0.0
 10
84.050300
 20
4.571930
 30
0.0
 10
84.318000
 20
4.529750
 30
0.0
 10
84.560400
 20
4.459440
 30
0.0
 10
84.777700
 20
4.361010
 30
0.0
 10
84.969800
 20
4.234470
 30
0.0
 10
85.136700
 20
4.079790
 30
0.0
 10
85.278500
 20
3.896990
 30
0.0
 10
85.398700
 20
3.683150
 30
0.0
 10
85.500400
 20
3.435360
 30
0.0
 10
85.583600
 20
3.153610
 30
0.0
 10
85.648300
 20
2.837890
 30
0.0
 10
85.694500
 20
2.488220
 30
0.0
 10
85.722200
 20
2.104580
 30
0.0
 10
85.731500
 20
1.687000
 30
0.0
 10
85.721800
 20
1.274350
 30
0.0
 10
85.692900
 20
0.894180
 30
0.0
 10
85.644600
 20
0.546448
 30
0.0
 10
85.577000
 20
0.231155
 30
0.0
 10
85.490200
 20
-0.051681
 30
0.0
 10
85.384000
 20
-0.302063
 30
0.0
 10
85.258500
 20
-0.520004
 30
0.0
 10
85.110500
 20
-0.707321
 30
0.0
 10
84.936800
 20
-0.865799
 30
0.0
 10
84.737300
 20
-0.995483
 30
0.0
 10
84.512200
 20
-1.096330
 30
0.0
 10
84.261300
 20
-1.168380
 30
0.0
 10
83.984800
 20
-1.211590
 30
0.0
 10
83.682500
 20
-1.226010
 30
0.0
 10
83.403500
 20
-1.211110
 30
0.0
  0
LWPOLYLINE
  5
123
100
AcDbEntity
  8
0
 62
7
100
AcDbPolyline
 90
55
 70
0
 10
97.120400
 20
1.834000
 30
0.0
 10
97.128500
 20
2.171840
 30
0.0
 10
97.152900
 20
2.486560
 30
0.0
 10
97.193500
 20
2.778140
 30
0.0
 10
97.250400
 20
3.046570
 30
0.0
 10
97.323500
 20
3.291850
 30
0.0
 10
97.412800
 20
3.513990
 30
0.0
 10
97.518400
 20
3.713000
 30
0.0
 10
97.639400
 20
3.887040
 30
0.0
 10
97.775000
 20
4.034300
 30
0.0
 10
97.925100
 20
4.154790
 30
0.0
 10
98.089800
 20
4.248500
 30
0.0
 10
98.269100
 20
4.315440
 30
0.0
 10
98.463000
 20
4.355610
 30
0.0
 10
98.671400
 20
4.368990
 30
0.0
 10
98.783600
 20
4.367600
 30
0.0
 10
98.889100
 20
4.363430
 30
0.0
 10
98.988100
 20
4.356510
 30
0.0
 10
99.080600
 20
4.346790
 30
0.0
 10
99.166400
 20
4.334300
 30
0.0
 10
99.245700
 20
4.319030
 30
0.0
 10
99.318400
 20
4.300990
 30
0.0
 10
99.318400
 20
5.420000
 30
0.0
 10
99.247200
 20
5.438030
 30
0.0
 10
99.176200
 20
5.453290
 30
0.0
 10
99.105600
 20
5.465790
 30
0.0
 10
99.035300
 20
5.475510
 30
0.0
 10
98.965400
 20
5.482440
 30
0.0
 10
98.895700
 20
5.486600
 30
0.0
 10
98.826400
 20
5.487990
 30
0.0
 10
98.636200
 20
5.480930
 30
0.0
 10
98.458600
 20
5.459750
 30
0.0
 10
98.293600
 20
5.424440
 30
0.0
 10
98.141400
 20
5.375020
 30
0.0
 10
98.001700
 20
5.311460
 30
0.0
 10
97.874800
 20
5.233800
 30
0.0
 10
97.760400
 20
5.142000
 30
0.0
 10
97.654200
 20
5.030980
 30
0.0
 10
97.551600
 20
4.895630
 30
0.0
 10
97.452600
 20
4.735950
 30
0.0
 10
97.357200
 20
4.551960
 30
0.0
 10
97.265300
 20
4.343630
 30
0.0
 10
97.177100
 20
4.110980
 30
0.0
 10
97.092400
 20
3.853990
 30
0.0
 10
97.065400
 20
3.853990
 30
0.0
 10
97.061000
 20
4.079790
 30
0.0
 10
97.037900
 20
4.725220
 30
0.0
 10
97.011400
 20
5.359990
 30
0.0
 10
95.858400
 20
5.359990
 30
0.0
 10
95.878500
 20
4.836810
 30
0.0
 10
95.891900
 20
4.340390
 30
0.0
 10
95.898600
 20
3.870770
 30
0.0
 10
95.899400
 20
-2.000000
 30
0.0
 10
97.120400
 20
-2.000000
 30
0.0
 10
97.120400
 20
1.834000
 30
0.0
  0
LWPOLYLINE
  5
124
100
AcDbEntity
  8
0
 62
7
100
AcDbPolyline
 90
199
 70
0
 10
103.330000
 20
-2.116560
 30
0.0
 10
103.696000
 20
-2.082280
 30
0.0
 10
104.037000
 20
-2.025130
 30
0.0
 10
104.352000
 20
-1.945140
 30
0.0
 10
104.641000
 20
-1.842300
 30
0.0
 10
104.904000
 20
-1.716580
 30
0.0
 10
105.142000
 20
-1.568010
 30
0.0
 10
105.351000
 20
-1.398360
 30
0.0
 10
105.527000
 20
-1.209400
 30
0.0
 10
105.672000
 20
-1.001130
 30
0.0
 10
105.784000
 20
-0.773560
 30
0.0
 10
105.865000
 20
-0.526688
 30
0.0
 10
105.913000
 20
-0.260498
 30
0.0
 10
105.929000
 20
0.024994
 30
0.0
 10
105.926000
 20
0.142822
 30
0.0
 10
105.918000
 20
0.256912
 30
0.0
 10
105.904000
 20
0.367233
 30
0.0
 10
105.884000
 20
0.473816
 30
0.0
 10
105.859000
 20
0.576630
 30
0.0
 10
105.828000
 20
0.675690
 30
0.0
 10
105.792000
 20
0.770996
 30
0.0
 10
105.751000
 20
0.862854
 30
0.0
 10
105.705000
 20
0.951569
 30
0.0
 10
105.655000
 20
1.037140
 30
0.0
 10
105.600000
 20
1.119570
 30
0.0
 10
105.540000
 20
1.198850
 30
0.0
 10
105.476000
 20
1.274990
 30
0.0
 10
105.407000
 20
1.347990
 30
0.0
 10
105.332000
 20
1.418500
 30
0.0
 10
105.250000
 20
1.487180
 30
0.0
 10
105.160000
 20
1.554020
 30
0.0
 10
105.063000
 20
1.619020
 30
0.0
 10
104.959000
 20
1.682170
 30
0.0
 10
104.847000
 20
1.743500
 30
0.0
 10
104.728000
 20
1.802990
 30
0.0
 10
104.594000
 20
1.862610
 30
0.0
 10
104.438000
 20
1.923720
 30
0.0
 10
104.260000
 20
1.986360
 30
0.0
 10
104.059000
 20
2.050510
 30
0.0
 10
103.836000
 20
2.116150
 30
0.0
 10
103.591000
 20
2.183320
 30
0.0
 10
103.323000
 20
2.252000
 30
0.0
 10
103.043000
 20
2.321210
 30
0.0
 10
102.793000
 20
2.386030
 30
0.0
 10
102.571000
 20
2.446440
 30
0.0
 10
102.378000
 20
2.502440
 30
0.0
 10
102.214000
 20
2.554030
 30
0.0
 10
102.079000
 20
2.601210
 30
0.0
 10
101.973000
 20
2.644000
 30
0.0
 10
101.885000
 20
2.685790
 30
0.0
 10
101.802000
 20
2.730030
 30
0.0
 10
101.727000
 20
2.776730
 30
0.0
 10
101.657000
 20
2.825870
 30
0.0
 10
101.595000
 20
2.877460
 30
0.0
 10
101.538000
 20
2.931500
 30
0.0
 10
101.488000
 20
2.987990
 30
0.0
 10
101.445000
 20
3.048170
 30
0.0
 10
101.408000
 20
3.112730
 30
0.0
 10
101.378000
 20
3.181640
 30
0.0
 10
101.355000
 20
3.254930
 30
0.0
 10
101.338000
 20
3.332580
 30
0.0
 10
101.328000
 20
3.414610
 30
0.0
 10
101.325000
 20
3.500990
 30
0.0
 10
101.333000
 20
3.639770
 30
0.0
 10
101.357000
 20
3.768100
 30
0.0
 10
101.398000
 20
3.885970
 30
0.0
 10
101.454000
 20
3.993390
 30
0.0
 10
101.527000
 20
4.090380
 30
0.0
 10
101.616000
 20
4.176910
 30
0.0
 10
101.721000
 20
4.252990
 30
0.0
 10
101.843000
 20
4.319050
 30
0.0
 10
101.983000
 20
4.374950
 30
0.0
 10
102.141000
 20
4.420680
 30
0.0
 10
102.317000
 20
4.456250
 30
0.0
 10
102.511000
 20
4.481660
 30
0.0
 10
102.722000
 20
4.496920
 30
0.0
 10
102.951000
 20
4.502000
 30
0.0
 10
103.160000
 20
4.496660
 30
0.0
 10
103.356000
 20
4.480680
 30
0.0
 10
103.540000
 20
4.454060
 30
0.0
 10
103.711000
 20
4.416760
 30
0.0
 10
103.870000
 20
4.368840
 30
0.0
 10
104.016000
 20
4.310240
 30
0.0
 10
104.150000
 20
4.241000
 30
0.0
 10
104.271000
 20
4.161770
 30
0.0
 10
104.378000
 20
4.073240
 30
0.0
 10
104.471000
 20
3.975400
 30
0.0
 10
104.549000
 20
3.868260
 30
0.0
 10
104.614000
 20
3.751820
 30
0.0
 10
104.665000
 20
3.626050
 30
0.0
 10
104.701000
 20
3.491000
 30
0.0
 10
105.799000
 20
3.627000
 30
0.0
 10
105.734000
 20
3.885620
 30
0.0
 10
105.647000
 20
4.123230
 30
0.0
 10
105.538000
 20
4.339830
 30
0.0
 10
105.408000
 20
4.535400
 30
0.0
 10
105.257000
 20
4.709950
 30
0.0
 10
105.084000
 20
4.863480
 30
0.0
 10
104.889000
 20
4.995990
 30
0.0
 10
104.674000
 20
5.109540
 30
0.0
 10
104.438000
 20
5.205630
 30
0.0
 10
104.181000
 20
5.284240
 30
0.0
 10
103.905000
 20
5.345380
 30
0.0
 10
103.607000
 20
5.389050
 30
0.0
 10
103.289000
 20
5.415250
 30
0.0
 10
102.951000
 20
5.424000
 30
0.0
 10
102.571000
 20
5.413310
 30
0.0
 10
102.218000
 20
5.381300
 30
0.0
 10
101.892000
 20
5.327930
 30
0.0
 10
101.593000
 20
5.253220
 30
0.0
 10
101.321000
 20
5.157150
 30
0.0
 10
101.075000
 20
5.039750
 30
0.0
 10
100.856000
 20
4.900990
 30
0.0
 10
100.666000
 20
4.741850
 30
0.0
 10
100.504000
 20
4.563280
 30
0.0
 10
100.372000
 20
4.365280
 30
0.0
 10
100.270000
 20
4.147840
 30
0.0
 10
100.197000
 20
3.911000
 30
0.0
 10
100.153000
 20
3.654710
 30
0.0
 10
100.138000
 20
3.379000
 30
0.0
 10
100.143000
 20
3.228150
 30
0.0
 10
100.159000
 20
3.084210
 30
0.0
 10
100.184000
 20
2.947170
 30
0.0
 10
100.220000
 20
2.817030
 30
0.0
 10
100.267000
 20
2.693790
 30
0.0
 10
100.323000
 20
2.577440
 30
0.0
 10
100.390000
 20
2.467990
 30
0.0
 10
100.466000
 20
2.364260
 30
0.0
 10
100.550000
 20
2.265060
 30
0.0
 10
100.642000
 20
2.170380
 30
0.0
 10
100.742000
 20
2.080230
 30
0.0
 10
100.850000
 20
1.994630
 30
0.0
 10
100.966000
 20
1.913540
 30
0.0
 10
101.089000
 20
1.836990
 30
0.0
 10
101.229000
 20
1.762500
 30
0.0
 10
101.394000
 20
1.687610
 30
0.0
 10
101.584000
 20
1.612300
 30
0.0
 10
101.799000
 20
1.536590
 30
0.0
 10
102.039000
 20
1.460460
 30
0.0
 10
102.303000
 20
1.383930
 30
0.0
 10
103.473000
 20
1.077000
 30
0.0
 10
103.657000
 20
1.025050
 30
0.0
 10
103.825000
 20
0.969238
 30
0.0
 10
103.979000
 20
0.909546
 30
0.0
 10
104.117000
 20
0.845978
 30
0.0
 10
104.240000
 20
0.778519
 30
0.0
 10
104.349000
 20
0.707199
 30
0.0
 10
104.442000
 20
0.631989
 30
0.0
 10
104.522000
 20
0.551544
 30
0.0
 10
104.589000
 20
0.464478
 30
0.0
 10
104.644000
 20
0.370804
 30
0.0
 10
104.687000
 20
0.270523
 30
0.0
 10
104.718000
 20
0.163620
 30
0.0
 10
104.736000
 20
0.050110
 30
0.0
 10
104.742000
 20
-0.070007
 30
0.0
 10
104.733000
 20
-0.225418
 30
0.0
 10
104.707000
 20
-0.369354
 30
0.0
 10
104.662000
 20
-0.501831
 30
0.0
 10
104.600000
 20
-0.622818
 30
0.0
 10
104.521000
 20
-0.732361
 30
0.0
 10
104.423000
 20
-0.830414
 30
0.0
 10
104.308000
 20
-0.917007
 30
0.0
 10
104.174000
 20
-0.991821
 30
0.0
 10
104.019000
 20
-1.055130
 30
0.0
 10
103.844000
 20
-1.106930
 30
0.0
 10
103.648000
 20
-1.147220
 30
0.0
 10
103.432000
 20
-1.175980
 30
0.0
 10
103.195000
 20
-1.193250
 30
0.0
 10
102.938000
 20
-1.199010
 30
0.0
 10
102.696000
 20
-1.193390
 30
0.0
 10
102.470000
 20
-1.176560
 30
0.0
 10
102.259000
 20
-1.148500
 30
0.0
 10
102.064000
 20
-1.109210
 30
0.0
 10
101.884000
 20
-1.058700
 30
0.0
 10
101.720000
 20
-0.996964
 30
0.0
 10
101.572000
 20
-0.924011
 30
0.0
 10
101.438000
 20
-0.839005
 30
0.0
 10
101.318000
 20
-0.741150
 30
0.0
 10
101.212000
 20
-0.630432
 30
0.0
 10
101.119000
 20
-0.506866
 30
0.0
 10
101.040000
 20
-0.370438
 30
0.0
 10
100.975000
 20
-0.221146
 30
0.0
 10
100.923000
 20
-0.059006
 30
0.0
 10
99.845000
 20
-0.269012
 30
0.0
 10
99.919900
 20
-0.532104
 30
0.0
 10
100.016000
 20
-0.774551
 30
0.0
 10
100.134000
 20
-0.996353
 30
0.0
 10
100.272000
 20
-1.197490
 30
0.0
 10
100.432000
 20
-1.377990
 30
0.0
 10
100.614000
 20
-1.537830
 30
0.0
 10
100.816000
 20
-1.677000
 30
0.0
 10
101.042000
 20
-1.796660
 30
0.0
 10
101.294000
 20
-1.897900
 30
0.0
 10
101.571000
 20
-1.980740
 30
0.0
 10
101.874000
 20
-2.045150
 30
0.0
 10
102.203000
 20
-2.091170
 30
0.0
 10
102.558000
 20
-2.118790
 30
0.0
 10
102.938000
 20
-2.127990
 30
0.0
 10
103.330000
 20
-2.116560
 30
0.0
  0
LWPOLYLINE
  5
125
100
AcDbEntity
  8
0
 62
7
100
AcDbPolyline
 90
80
 70
0
 10
90.865100
 20
-2.121570
 30
0.0
 10
91.083900
 20
-2.102280
 30
0.0
 10
91.291700
 20
-2.070130
 30
0.0
 10
91.488500
 20
-2.025130
 30
0.0
 10
91.674400
 20
-1.967300
 30
0.0
 10
91.849400
 20
-1.896580
 30
0.0
 10
92.013500
 20
-1.813000
 30
0.0
 10
92.169300
 20
-1.713650
 30
0.0
 10
92.319700
 20
-1.596190
 30
0.0
 10
92.464700
 20
-1.460600
 30
0.0
 10
92.604300
 20
-1.306880
 30
0.0
 10
92.738400
 20
-1.135060
 30
0.0
 10
92.867200
 20
-0.945084
 30
0.0
 10
92.990400
 20
-0.737015
 30
0.0
 10
93.010500
 20
-0.737015
 30
0.0
 10
93.058500
 20
-1.949550
 30
0.0
 10
93.064500
 20
-2.000000
 30
0.0
 10
94.217500
 20
-2.000000
 30
0.0
 10
94.206600
 20
-1.897900
 30
0.0
 10
94.197400
 20
-1.755040
 30
0.0
 10
94.189800
 20
-1.571380
 30
0.0
 10
94.184000
 20
-1.346940
 30
0.0
 10
94.179800
 20
-1.081740
 30
0.0
 10
94.176500
 20
-0.429001
 30
0.0
 10
94.176500
 20
5.359990
 30
0.0
 10
92.955500
 20
5.359990
 30
0.0
 10
92.955500
 20
1.099000
 30
0.0
 10
92.945000
 20
0.801712
 30
0.0
 10
92.913700
 20
0.523560
 30
0.0
 10
92.861600
 20
0.264557
 30
0.0
 10
92.788600
 20
0.024704
 30
0.0
 10
92.694700
 20
-0.196014
 30
0.0
 10
92.580000
 20
-0.397583
 30
0.0
 10
92.444500
 20
-0.580002
 30
0.0
 10
92.290800
 20
-0.740524
 30
0.0
 10
92.121800
 20
-0.876328
 30
0.0
 10
91.937600
 20
-0.987457
 30
0.0
 10
91.738000
 20
-1.073880
 30
0.0
 10
91.523100
 20
-1.135620
 30
0.0
 10
91.292900
 20
-1.172650
 30
0.0
 10
91.047500
 20
-1.185010
 30
0.0
 10
90.880300
 20
-1.181410
 30
0.0
 10
90.725000
 20
-1.170640
 30
0.0
 10
90.581600
 20
-1.152680
 30
0.0
 10
90.450200
 20
-1.127530
 30
0.0
 10
90.330700
 20
-1.095210
 30
0.0
 10
90.223100
 20
-1.055690
 30
0.0
 10
90.127500
 20
-1.009000
 30
0.0
 10
90.041500
 20
-0.953857
 30
0.0
 10
89.962500
 20
-0.889572
 30
0.0
 10
89.890400
 20
-0.816147
 30
0.0
 10
89.825300
 20
-0.733582
 30
0.0
 10
89.767000
 20
-0.641861
 30
0.0
 10
89.715800
 20
-0.541000
 30
0.0
 10
89.671400
 20
-0.431015
 30
0.0
 10
89.633500
 20
-0.309769
 30
0.0
 10
89.601400
 20
-0.175171
 30
0.0
 10
89.575100
 20
-0.027237
 30
0.0
 10
89.554700
 20
0.134048
 30
0.0
 10
89.540100
 20
0.308685
 30
0.0
 10
89.531400
 20
0.496658
 30
0.0
 10
89.528500
 20
0.697998
 30
0.0
 10
89.528500
 20
5.359990
 30
0.0
 10
88.301500
 20
5.359990
 30
0.0
 10
88.301500
 20
0.460999
 30
0.0
 10
88.312900
 20
0.080994
 30
0.0
 10
88.347200
 20
-0.267014
 30
0.0
 10
88.404500
 20
-0.583008
 30
0.0
 10
88.484600
 20
-0.867004
 30
0.0
 10
88.587700
 20
-1.119000
 30
0.0
 10
88.713600
 20
-1.339000
 30
0.0
 10
88.862500
 20
-1.527010
 30
0.0
 10
89.036300
 20
-1.686460
 30
0.0
 10
89.236600
 20
-1.821380
 30
0.0
 10
89.463400
 20
-1.931760
 30
0.0
 10
89.716700
 20
-2.017610
 30
0.0
 10
89.996400
 20
-2.078930
 30
0.0
 10
90.302700
 20
-2.115720
 30
0.0
 10
90.635500
 20
-2.127990
 30
0.0
 10
90.865100
 20
-2.121570
 30
0.0
  0
LWPOLYLINE
  5
126
100
AcDbEntity
  8
0
 62
7
100
AcDbPolyline
 90
51
 70
0
 10
-136.191000
 20
-1.620770
 30
0.0
 10
-135.990000
 20
-1.569230
 30
0.0
 10
-135.797000
 20
-1.492950
 30
0.0
 10
-135.616000
 20
-1.393130
 30
0.0
 10
-135.448000
 20
-1.271330
 30
0.0
 10
-135.297000
 20
-1.129500
 30
0.0
 10
-135.165000
 20
-0.969833
 30
0.0
 10
-135.054000
 20
-0.794891
 30
0.0
 10
-134.966000
 20
-0.607391
 30
0.0
 10
-134.902000
 20
-0.410324
 30
0.0
 10
-134.863000
 20
-0.206787
 30
0.0
 10
-134.850000
 20
-0.000000
 30
0.0
 10
-134.863000
 20
0.206787
 30
0.0
 10
-134.902000
 20
0.410324
 30
0.0
 10
-134.966000
 20
0.607391
 30
0.0
 10
-135.054000
 20
0.794891
 30
0.0
 10
-135.165000
 20
0.969833
 30
0.0
 10
-135.297000
 20
1.129500
 30
0.0
 10
-135.448000
 20
1.271330
 30
0.0
 10
-135.616000
 20
1.393130
 30
0.0
 10
-135.797000
 20
1.492950
 30
0.0
 10
-135.990000
 20
1.569230
 30
0.0
 10
-136.191000
 20
1.620770
 30
0.0
 10
-136.396000
 20
1.646740
 30
0.0
 10
-136.604000
 20
1.646740
 30
0.0
 10
-136.809000
 20
1.620770
 30
0.0
 10
-137.010000
 20
1.569230
 30
0.0
 10
-137.203000
 20
1.492950
 30
0.0
 10
-137.384000
 20
1.393130
 30
0.0
 10
-137.552000
 20
1.271330
 30
0.0
 10
-137.703000
 20
1.129500
 30
0.0
 10
-137.835000
 20
0.969833
 30
0.0
 10
-137.946000
 20
0.794891
 30
0.0
 10
-138.034000
 20
0.607391
 30
0.0
 10
-138.098000
 20
0.410324
 30
0.0
 10
-138.137000
 20
0.206787
 30
0.0
 10
-138.150000
 20
-0.000000
 30
0.0
 10
-138.137000
 20
-0.206787
 30
0.0
 10
-138.098000
 20
-0.410324
 30
0.0
 10
-138.034000
 20
-0.607391
 30
0.0
 10
-137.946000
 20
-0.794891
 30
0.0
 10
-137.835000
 20
-0.969833
 30
0.0
 10
-137.703000
 20
-1.129500
 30
0.0
 10
-137.552000
 20
-1.271330
 30
0.0
 10
-137.384000
 20
-1.393130
 30
0.0
 10
-137.203000
 20
-1.492950
 30
0.0
 10
-137.010000
 20
-1.569230
 30
0.0
 10
-136.809000
 20
-1.620770
 30
0.0
 10
-136.604000
 20
-1.646740
 30
0.0
 10
-136.396000
 20
-1.646740
 30
0.0
 10
-136.191000
 20
-1.620770
 30
0.0
  0
LWPOLYLINE
  5
127
100
AcDbEntity
  8
0
 62
7
100
AcDbPolyline
 90
51
 70
0
 10
136.809000
 20
-1.620770
 30
0.0
 10
137.010000
 20
-1.569230
 30
0.0
 10
137.203000
 20
-1.492950
 30
0.0
 10
137.384000
 20
-1.393130
 30
0.0
 10
137.552000
 20
-1.271330
 30
0.0
 10
137.703000
 20
-1.129500
 30
0.0
 10
137.835000
 20
-0.969833
 30
0.0
 10
137.946000
 20
-0.794891
 30
0.0
 10
138.034000
 20
-0.607391
 30
0.0
 10
138.098000
 20
-0.410324
 30
0.0
 10
138.137000
 20
-0.206787
 30
0.0
 10
138.150000
 20
-0.000000
 30
0.0
 10
138.137000
 20
0.206787
 30
0.0
 10
138.098000
 20
0.410324
 30
0.0
 10
138.034000
 20
0.607391
 30
0.0
 10
137.946000
 20
0.794891
 30
0.0
 10
137.835000
 20
0.969833
 30
0.0
 10
137.703000
 20
1.129500
 30
0.0
 10
137.552000
 20
1.271330
 30
0.0
 10
137.384000
 20
1.393130
 30
0.0
 10
137.203000
 20
1.492950
 30
0.0
 10
137.010000
 20
1.569230
 30
0.0
 10
136.809000
 20
1.620770
 30
0.0
 10
136.604000
 20
1.646740
 30
0.0
 10
136.396000
 20
1.646740
 30
0.0
 10
136.191000
 20
1.620770
 30
0.0
 10
135.990000
 20
1.569230
 30
0.0
 10
135.797000
 20
1.492950
 30
0.0
 10
135.616000
 20
1.393130
 30
0.0
 10
135.448000
 20
1.271330
 30
0.0
 10
135.297000
 20
1.129500
 30
0.0
 10
135.165000
 20
0.969833
 30
0.0
 10
135.054000
 20
0.794891
 30
0.0
 10
134.966000
 20
0.607391
 30
0.0
 10
134.902000
 20
0.410324
 30
0.0
 10
134.863000
 20
0.206787
 30
0.0
 10
134.850000
 20
-0.000000
 30
0.0
 10
134.863000
 20
-0.206787
 30
0.0
 10
134.902000
 20
-0.410324
 30
0.0
 10
134.966000
 20
-0.607391
 30
0.0
 10
135.054000
 20
-0.794891
 30
0.0
 10
135.165000
 20
-0.969833
 30
0.0
 10
135.297000
 20
-1.129500
 30
0.0
 10
135.448000
 20
-1.271330
 30
0.0
 10
135.616000
 20
-1.393130
 30
0.0
 10
135.797000
 20
-1.492950
 30
0.0
 10
135.990000
 20
-1.569230
 30
0.0
 10
136.191000
 20
-1.620770
 30
0.0
 10
136.396000
 20
-1.646740
 30
0.0
 10
136.604000
 20
-1.646740
 30
0.0
 10
136.809000
 20
-1.620770
 30
0.0
  0
LWPOLYLINE
  5
128
100
AcDbEntity
  8
0
 62
7
100
AcDbPolyline
 90
51
 70
0
 10
9.956790
 20
-3.386960
 30
0.0
 10
10.160300
 20
-3.348140
 30
0.0
 10
10.357400
 20
-3.284100
 30
0.0
 10
10.544900
 20
-3.195880
 30
0.0
 10
10.719800
 20
-3.084850
 30
0.0
 10
10.879500
 20
-2.952770
 30
0.0
 10
11.021300
 20
-2.801730
 30
0.0
 10
11.143100
 20
-2.634090
 30
0.0
 10
11.243000
 20
-2.452510
 30
0.0
 10
11.319200
 20
-2.259860
 30
0.0
 10
11.370800
 20
-2.059160
 30
0.0
 10
11.396700
 20
-1.853580
 30
0.0
 10
11.396700
 20
-1.646380
 30
0.0
 10
11.370800
 20
-1.440800
 30
0.0
 10
11.319200
 20
-1.240100
 30
0.0
 10
11.243000
 20
-1.047440
 30
0.0
 10
11.143100
 20
-0.865860
 30
0.0
 10
11.021300
 20
-0.698227
 30
0.0
 10
10.879500
 20
-0.547180
 30
0.0
 10
10.719800
 20
-0.415100
 30
0.0
 10
10.544900
 20
-0.304077
 30
0.0
 10
10.357400
 20
-0.215851
 30
0.0
 10
10.160300
 20
-0.151810
 30
0.0
 10
9.956790
 20
-0.112991
 30
0.0
 10
9.749980
 20
-0.099976
 30
0.0
 10
9.543200
 20
-0.112991
 30
0.0
 10
9.339660
 20
-0.151810
 30
0.0
 10
9.142590
 20
-0.215851
 30
0.0
 10
8.955090
 20
-0.304077
 30
0.0
 10
8.780150
 20
-0.415100
 30
0.0
 10
8.620480
 20
-0.547180
 30
0.0
 10
8.478650
 20
-0.698227
 30
0.0
 10
8.356860
 20
-0.865860
 30
0.0
 10
8.257030
 20
-1.047440
 30
0.0
 10
8.180760
 20
-1.240100
 30
0.0
 10
8.129210
 20
-1.440800
 30
0.0
 10
8.103240
 20
-1.646380
 30
0.0
 10
8.103240
 20
-1.853580
 30
0.0
 10
8.129210
 20
-2.059160
 30
0.0
 10
8.180760
 20
-2.259860
 30
0.0
 10
8.257030
 20
-2.452510
 30
0.0
 10
8.356860
 20
-2.634090
 30
0.0
 10
8.478650
 20
-2.801730
 30
0.0
 10
8.620480
 20
-2.952770
 30
0.0
 10
8.780150
 20
-3.084850
 30
0.0
 10
8.955090
 20
-3.195880
 30
0.0
 10
9.142590
 20
-3.284100
 30
0.0
 10
9.339660
 20
-3.348140
 30
0.0
 10
9.543200
 20
-3.386960
 30
0.0
 10
9.749980
 20
-3.399980
 30
0.0
 10
9.956790
 20
-3.386960
 30
0.0
  0
LWPOLYLINE
  5
129
100
AcDbEntity
  8
0
 62
7
100
AcDbPolyline
 90
51
 70
0
 10
30.456800
 20
-3.386980
 30
0.0
 10
30.660300
 20
-3.348160
 30
0.0
 10
30.857400
 20
-3.284120
 30
0.0
 10
31.044900
 20
-3.195890
 30
0.0
 10
31.219800
 20
-3.084870
 30
0.0
 10
31.379500
 20
-2.952790
 30
0.0
 10
31.521300
 20
-2.801740
 30
0.0
 10
31.643100
 20
-2.634110
 30
0.0
 10
31.742900
 20
-2.452530
 30
0.0
 10
31.819200
 20
-2.259870
 30
0.0
 10
31.870800
 20
-2.059170
 30
0.0
 10
31.896700
 20
-1.853590
 30
0.0
 10
31.896700
 20
-1.646390
 30
0.0
 10
31.870800
 20
-1.440810
 30
0.0
 10
31.819200
 20
-1.240110
 30
0.0
 10
31.742900
 20
-1.047450
 30
0.0
 10
31.643100
 20
-0.865875
 30
0.0
 10
31.521300
 20
-0.698242
 30
0.0
 10
31.379500
 20
-0.547195
 30
0.0
 10
31.219800
 20
-0.415115
 30
0.0
 10
31.044900
 20
-0.304092
 30
0.0
 10
30.857400
 20
-0.215866
 30
0.0
 10
30.660300
 20
-0.151825
 30
0.0
 10
30.456800
 20
-0.113007
 30
0.0
 10
30.250000
 20
-0.099991
 30
0.0
 10
30.043200
 20
-0.113007
 30
0.0
 10
29.839600
 20
-0.151825
 30
0.0
 10
29.642600
 20
-0.215866
 30
0.0
 10
29.455100
 20
-0.304092
 30
0.0
 10
29.280100
 20
-0.415115
 30
0.0
 10
29.120500
 20
-0.547195
 30
0.0
 10
28.978600
 20
-0.698242
 30
0.0
 10
28.856800
 20
-0.865875
 30
0.0
 10
28.757000
 20
-1.047450
 30
0.0
 10
28.680700
 20
-1.240110
 30
0.0
 10
28.629200
 20
-1.440810
 30
0.0
 10
28.603200
 20
-1.646390
 30
0.0
 10
28.603200
 20
-1.853590
 30
0.0
 10
28.629200
 20
-2.059170
 30
0.0
 10
28.680700
 20
-2.259870
 30
0.0
 10
28.757000
 20
-2.452530
 30
0.0
 10
28.856800
 20
-2.634110
 30
0.0
 10
28.978600
 20
-2.801740
 30
0.0
 10
29.120500
 20
-2.952790
 30
0.0
 10
29.280100
 20
-3.084870
 30
0.0
 10
29.455100
 20
-3.195890
 30
0.0
 10
29.642600
 20
-3.284120
 30
0.0
 10
29.839600
 20
-3.348160
 30
0.0
 10
30.043200
 20
-3.386980
 30
0.0
 10
30.250000
 20
-3.399990
 30
0.0
 10
30.456800
 20
-3.386980
 30
0.0
  0
LWPOLYLINE
  5
12a
100
AcDbEntity
  8
0
 62
7
100
AcDbPolyline
 90
51
 70
0
 10
122.124000
 20
-17.893700
 30
0.0
 10
122.854000
 20
-17.706300
 30
0.0
 10
123.555000
 20
-17.429000
 30
0.0
 10
124.215000
 20
-17.066000
 30
0.0
 10
124.825000
 20
-16.623100
 30
0.0
 10
125.374000
 20
-16.107300
 30
0.0
 10
125.854000
 20
-15.526700
 30
0.0
 10
126.258000
 20
-14.890500
 30
0.0
 10
126.579000
 20
-14.208700
 30
0.0
 10
126.811000
 20
-13.492100
 30
0.0
 10
126.953000
 20
-12.752000
 30
0.0
 10
127.000000
 20
-12.000000
 30
0.0
 10
126.953000
 20
-11.248000
 30
0.0
 10
126.811000
 20
-10.507900
 30
0.0
 10
126.579000
 20
-9.791240
 30
0.0
 10
126.258000
 20
-9.109470
 30
0.0
 10
125.854000
 20
-8.473280
 30
0.0
 10
125.374000
 20
-7.892720
 30
0.0
 10
124.825000
 20
-7.376910
 30
0.0
 10
124.215000
 20
-6.934020
 30
0.0
 10
123.555000
 20
-6.571030
 30
0.0
 10
122.854000
 20
-6.293660
 30
0.0
 10
122.124000
 20
-6.106260
 30
0.0
 10
121.377000
 20
-6.011830
 30
0.0
 10
120.623000
 20
-6.011830
 30
0.0
 10
119.876000
 20
-6.106260
 30
0.0
 10
119.146000
 20
-6.293660
 30
0.0
 10
118.445000
 20
-6.571030
 30
0.0
 10
117.785000
 20
-6.934020
 30
0.0
 10
117.175000
 20
-7.376910
 30
0.0
 10
116.626000
 20
-7.892720
 30
0.0
 10
116.146000
 20
-8.473280
 30
0.0
 10
115.742000
 20
-9.109470
 30
0.0
 10
115.421000
 20
-9.791240
 30
0.0
 10
115.189000
 20
-10.507900
 30
0.0
 10
115.047000
 20
-11.248000
 30
0.0
 10
115.000000
 20
-12.000000
 30
0.0
 10
115.047000
 20
-12.752000
 30
0.0
 10
115.189000
 20
-13.492100
 30
0.0
 10
115.421000
 20
-14.208700
 30
0.0
 10
115.742000
 20
-14.890500
 30
0.0
 10
116.146000
 20
-15.526700
 30
0.0
 10
116.626000
 20
-16.107300
 30
0.0
 10
117.175000
 20
-16.623100
 30
0.0
 10
117.785000
 20
-17.066000
 30
0.0
 10
118.445000
 20
-17.429000
 30
0.0
 10
119.146000
 20
-17.706300
 30
0.0
 10
119.876000
 20
-17.893700
 30
0.0
 10
120.623000
 20
-17.988200
 30
0.0
 10
121.377000
 20
-17.988200
 30
0.0
 10
122.124000
 20
-17.893700
 30
0.0
  0
LWPOLYLINE
  5
12b
100
AcDbEntity
  8
0
 62
7
100
AcDbPolyline
 90
76
 70
0
 10
74.497500
 20
-12.664000
 30
0.0
 10
74.508100
 20
-12.383000
 30
0.0
 10
74.540000
 20
-12.119000
 30
0.0
 10
74.593200
 20
-11.871900
 30
0.0
 10
74.667600
 20
-11.641800
 30
0.0
 10
74.763300
 20
-11.428600
 30
0.0
 10
74.880300
 20
-11.232300
 30
0.0
 10
75.018500
 20
-11.053000
 30
0.0
 10
75.174400
 20
-10.894300
 30
0.0
 10
75.344400
 20
-10.760100
 30
0.0
 10
75.528500
 20
-10.650300
 30
0.0
 10
75.726600
 20
-10.564800
 30
0.0
 10
75.938800
 20
-10.503800
 30
0.0
 10
76.165100
 20
-10.467200
 30
0.0
 10
76.405500
 20
-10.455000
 30
0.0
 10
76.565800
 20
-10.458600
 30
0.0
 10
76.715800
 20
-10.469500
 30
0.0
 10
76.855500
 20
-10.487500
 30
0.0
 10
76.984900
 20
-10.512800
 30
0.0
 10
77.104100
 20
-10.545300
 30
0.0
 10
77.213000
 20
-10.585100
 30
0.0
 10
77.311500
 20
-10.632000
 30
0.0
 10
77.401200
 20
-10.686400
 30
0.0
 10
77.483400
 20
-10.749100
 30
0.0
 10
77.558000
 20
-10.820000
 30
0.0
 10
77.625200
 20
-10.899100
 30
0.0
 10
77.684800
 20
-10.986500
 30
0.0
 10
77.736900
 20
-11.082100
 30
0.0
 10
77.781500
 20
-11.186000
 30
0.0
 10
77.819500
 20
-11.301800
 30
0.0
 10
77.851600
 20
-11.433900
 30
0.0
 10
77.877800
 20
-11.582300
 30
0.0
 10
77.898300
 20
-11.746800
 30
0.0
 10
77.912800
 20
-11.927600
 30
0.0
 10
77.921600
 20
-12.124700
 30
0.0
 10
77.924500
 20
-12.338000
 30
0.0
 10
77.924500
 20
-17.000000
 30
0.0
 10
79.151500
 20
-17.000000
 30
0.0
 10
79.151500
 20
-12.101000
 30
0.0
 10
79.139900
 20
-11.717500
 30
0.0
 10
79.105100
 20
-11.366800
 30
0.0
 10
79.047200
 20
-11.049000
 30
0.0
 10
78.966000
 20
-10.764200
 30
0.0
 10
78.861700
 20
-10.512200
 30
0.0
 10
78.734200
 20
-10.293200
 30
0.0
 10
78.583500
 20
-10.107000
 30
0.0
 10
78.408400
 20
-9.949160
 30
0.0
 10
78.207500
 20
-9.815580
 30
0.0
 10
77.980900
 20
-9.706300
 30
0.0
 10
77.728700
 20
-9.621290
 30
0.0
 10
77.450700
 20
-9.560580
 30
0.0
 10
77.146900
 20
-9.524150
 30
0.0
 10
76.817500
 20
-9.512010
 30
0.0
 10
76.580700
 20
-9.518890
 30
0.0
 10
76.355900
 20
-9.539520
 30
0.0
 10
76.143100
 20
-9.573900
 30
0.0
 10
75.942400
 20
-9.622060
 30
0.0
 10
75.753700
 20
-9.683940
 30
0.0
 10
75.577100
 20
-9.759600
 30
0.0
 10
75.412500
 20
-9.849010
 30
0.0
 10
75.257500
 20
-9.952850
 30
0.0
 10
75.108900
 20
-10.072400
 30
0.0
 10
74.966900
 20
-10.207500
 30
0.0
 10
74.831300
 20
-10.358400
 30
0.0
 10
74.702200
 20
-10.524900
 30
0.0
 10
74.579600
 20
-10.707100
 30
0.0
 10
74.463500
 20
-10.905000
 30
0.0
 10
74.442500
 20
-10.905000
 30
0.0
 10
74.473500
 20
-10.400000
 30
0.0
 10
74.489700
 20
-10.029500
 30
0.0
 10
74.497000
 20
-9.668990
 30
0.0
 10
74.497500
 20
-6.952010
 30
0.0
 10
73.276500
 20
-6.952010
 30
0.0
 10
73.276500
 20
-17.000000
 30
0.0
 10
74.497500
 20
-17.000000
 30
0.0
 10
74.497500
 20
-12.664000
 30
0.0
  0
LWPOLYLINE
  5
12c
100
AcDbEntity
  8
0
 62
7
100
AcDbPolyline
 90
12
 70
0
 10
66.990000
 20
-14.827000
 30
0.0
 10
68.333000
 20
-14.827000
 30
0.0
 10
68.333000
 20
-13.864000
 30
0.0
 10
66.990000
 20
-13.864000
 30
0.0
 10
66.990000
 20
-7.464000
 30
0.0
 10
65.705000
 20
-7.464000
 30
0.0
 10
61.320000
 20
-13.881000
 30
0.0
 10
61.320000
 20
-14.827000
 30
0.0
 10
65.837000
 20
-14.827000
 30
0.0
 10
65.837000
 20
-17.000000
 30
0.0
 10
66.990000
 20
-17.000000
 30
0.0
 10
66.990000
 20
-14.827000
 30
0.0
  0
LWPOLYLINE
  5
12d
100
AcDbEntity
  8
0
 62
7
100
AcDbPolyline
 90
10
 70
0
 10
62.445000
 20
-13.864000
 30
0.0
 10
62.554000
 20
-13.729000
 30
0.0
 10
62.922000
 20
-13.230000
 30
0.0
 10
65.408000
 20
-9.602580
 30
0.0
 10
65.510600
 20
-9.435010
 30
0.0
 10
65.767800
 20
-8.977170
 30
0.0
 10
65.829700
 20
-8.858090
 30
0.0
 10
65.837000
 20
-8.841000
 30
0.0
 10
65.837000
 20
-13.864000
 30
0.0
 10
62.445000
 20
-13.864000
 30
0.0
  0
LWPOLYLINE
  5
12e
100
AcDbEntity
  8
0
 62
7
100
AcDbPolyline
 90
55
 70
0
 10
97.120400
 20
-13.166000
 30
0.0
 10
97.128500
 20
-12.828200
 30
0.0
 10
97.152900
 20
-12.513400
 30
0.0
 10
97.193500
 20
-12.221900
 30
0.0
 10
97.250400
 20
-11.953400
 30
0.0
 10
97.323500
 20
-11.708100
 30
0.0
 10
97.412800
 20
-11.486000
 30
0.0
 10
97.518400
 20
-11.287000
 30
0.0
 10
97.639400
 20
-11.113000
 30
0.0
 10
97.775000
 20
-10.965700
 30
0.0
 10
97.925100
 20
-10.845200
 30
0.0
 10
98.089800
 20
-10.751500
 30
0.0
 10
98.269100
 20
-10.684600
 30
0.0
 10
98.463000
 20
-10.644400
 30
0.0
 10
98.671400
 20
-10.631000
 30
0.0
 10
98.783600
 20
-10.632400
 30
0.0
 10
98.889100
 20
-10.636600
 30
0.0
 10
98.988100
 20
-10.643500
 30
0.0
 10
99.080600
 20
-10.653200
 30
0.0
 10
99.166400
 20
-10.665700
 30
0.0
 10
99.245700
 20
-10.681000
 30
0.0
 10
99.318400
 20
-10.699000
 30
0.0
 10
99.318400
 20
-9.580000
 30
0.0
 10
99.247200
 20
-9.561970
 30
0.0
 10
99.176200
 20
-9.546710
 30
0.0
 10
99.105600
 20
-9.534210
 30
0.0
 10
99.035300
 20
-9.524490
 30
0.0
 10
98.965400
 20
-9.517560
 30
0.0
 10
98.895700
 20
-9.513400
 30
0.0
 10
98.826400
 20
-9.512010
 30
0.0
 10
98.636200
 20
-9.519070
 30
0.0
 10
98.458600
 20
-9.540250
 30
0.0
 10
98.293600
 20
-9.575560
 30
0.0
 10
98.141400
 20
-9.624980
 30
0.0
 10
98.001700
 20
-9.688540
 30
0.0
 10
97.874800
 20
-9.766200
 30
0.0
 10
97.760400
 20
-9.858000
 30
0.0
 10
97.654200
 20
-9.969020
 30
0.0
 10
97.551600
 20
-10.104400
 30
0.0
 10
97.452600
 20
-10.264100
 30
0.0
 10
97.357200
 20
-10.448000
 30
0.0
 10
97.265300
 20
-10.656400
 30
0.0
 10
97.177100
 20
-10.889000
 30
0.0
 10
97.092400
 20
-11.146000
 30
0.0
 10
97.065400
 20
-11.146000
 30
0.0
 10
97.061000
 20
-10.920200
 30
0.0
 10
97.037900
 20
-10.274800
 30
0.0
 10
97.011400
 20
-9.640010
 30
0.0
 10
95.858400
 20
-9.640010
 30
0.0
 10
95.878500
 20
-10.163200
 30
0.0
 10
95.891900
 20
-10.659600
 30
0.0
 10
95.898600
 20
-11.129200
 30
0.0
 10
95.899400
 20
-17.000000
 30
0.0
 10
97.120400
 20
-17.000000
 30
0.0
 10
97.120400
 20
-13.166000
 30
0.0
  0
LWPOLYLINE
  5
12f
100
AcDbEntity
  8
0
 62
7
100
AcDbPolyline
 90
50
 70
0
 10
84.142100
 20
-17.108700
 30
0.0
 10
84.557400
 20
-17.051000
 30
0.0
 10
84.941300
 20
-16.954800
 30
0.0
 10
85.293900
 20
-16.820100
 30
0.0
 10
85.615100
 20
-16.646900
 30
0.0
 10
85.905000
 20
-16.435200
 30
0.0
 10
86.163500
 20
-16.185000
 30
0.0
 10
86.389000
 20
-15.895200
 30
0.0
 10
86.579800
 20
-15.565200
 30
0.0
 10
86.735900
 20
-15.195100
 30
0.0
 10
86.857400
 20
-14.784900
 30
0.0
 10
86.944100
 20
-14.334400
 30
0.0
 10
86.996100
 20
-13.843800
 30
0.0
 10
87.013500
 20
-13.313000
 30
0.0
 10
86.997200
 20
-12.777300
 30
0.0
 10
86.948500
 20
-12.283300
 30
0.0
 10
86.867300
 20
-11.831000
 30
0.0
 10
86.753600
 20
-11.420400
 30
0.0
 10
86.607400
 20
-11.051600
 30
0.0
 10
86.428700
 20
-10.724400
 30
0.0
 10
86.217500
 20
-10.439000
 30
0.0
 10
85.972200
 20
-10.193100
 30
0.0
 10
85.690500
 20
-9.984970
 30
0.0
 10
85.372400
 20
-9.814700
 30
0.0
 10
85.018000
 20
-9.682270
 30
0.0
 10
84.627200
 20
-9.587680
 30
0.0
 10
84.200000
 20
-9.530930
 30
0.0
 10
83.736500
 20
-9.512010
 30
0.0
 10
82.861800
 20
-9.589580
 30
0.0
 10
82.121600
 20
-9.822300
 30
0.0
 10
81.516100
 20
-10.210100
 30
0.0
 10
81.045100
 20
-10.753100
 30
0.0
 10
80.708600
 20
-11.451300
 30
0.0
 10
80.506800
 20
-12.304600
 30
0.0
 10
80.439500
 20
-13.313000
 30
0.0
 10
80.456300
 20
-13.824600
 30
0.0
 10
80.506600
 20
-14.300700
 30
0.0
 10
80.590500
 20
-14.741100
 30
0.0
 10
80.707900
 20
-15.146000
 30
0.0
 10
80.858900
 20
-15.515300
 30
0.0
 10
81.043400
 20
-15.848900
 30
0.0
 10
81.261500
 20
-16.147000
 30
0.0
 10
81.512700
 20
-16.407300
 30
0.0
 10
81.796100
 20
-16.627500
 30
0.0
 10
82.111600
 20
-16.807700
 30
0.0
 10
82.459400
 20
-16.947800
 30
0.0
 10
82.839200
 20
-17.047900
 30
0.0
 10
83.251300
 20
-17.108000
 30
0.0
 10
83.695500
 20
-17.128000
 30
0.0
 10
84.142100
 20
-17.108700
 30
0.0
  0
LWPOLYLINE
  5
130
100
AcDbEntity
  8
0
 62
7
100
AcDbPolyline
 90
57
 70
0
 10
83.403500
 20
-16.211100
 30
0.0
 10
83.146700
 20
-16.166400
 30
0.0
 10
82.912000
 20
-16.091900
 30
0.0
 10
82.699500
 20
-15.987600
 30
0.0
 10
82.509000
 20
-15.853600
 30
0.0
 10
82.340700
 20
-15.689700
 30
0.0
 10
82.194500
 20
-15.496000
 30
0.0
 10
82.069000
 20
-15.272700
 30
0.0
 10
81.962800
 20
-15.019900
 30
0.0
 10
81.875900
 20
-14.737500
 30
0.0
 10
81.808400
 20
-14.425600
 30
0.0
 10
81.760100
 20
-14.084300
 30
0.0
 10
81.731100
 20
-13.713400
 30
0.0
 10
81.721500
 20
-13.313000
 30
0.0
 10
81.731300
 20
-12.902300
 30
0.0
 10
81.760700
 20
-12.523900
 30
0.0
 10
81.809600
 20
-12.177900
 30
0.0
 10
81.878200
 20
-11.864200
 30
0.0
 10
81.966400
 20
-11.582800
 30
0.0
 10
82.074100
 20
-11.333700
 30
0.0
 10
82.201500
 20
-11.117000
 30
0.0
 10
82.350800
 20
-10.930500
 30
0.0
 10
82.524400
 20
-10.772700
 30
0.0
 10
82.722400
 20
-10.643600
 30
0.0
 10
82.944700
 20
-10.543100
 30
0.0
 10
83.191300
 20
-10.471400
 30
0.0
 10
83.462200
 20
-10.428400
 30
0.0
 10
83.757500
 20
-10.414000
 30
0.0
 10
84.050300
 20
-10.428100
 30
0.0
 10
84.318000
 20
-10.470200
 30
0.0
 10
84.560400
 20
-10.540600
 30
0.0
 10
84.777700
 20
-10.639000
 30
0.0
 10
84.969800
 20
-10.765500
 30
0.0
 10
85.136700
 20
-10.920200
 30
0.0
 10
85.278500
 20
-11.103000
 30
0.0
 10
85.398700
 20
-11.316800
 30
0.0
 10
85.500400
 20
-11.564600
 30
0.0
 10
85.583600
 20
-11.846400
 30
0.0
 10
85.648300
 20
-12.162100
 30
0.0
 10
85.694500
 20
-12.511800
 30
0.0
 10
85.722200
 20
-12.895400
 30
0.0
 10
85.731500
 20
-13.313000
 30
0.0
 10
85.721800
 20
-13.725600
 30
0.0
 10
85.692900
 20
-14.105800
 30
0.0
 10
85.644600
 20
-14.453600
 30
0.0
 10
85.577000
 20
-14.768800
 30
0.0
 10
85.490200
 20
-15.051700
 30
0.0
 10
85.384000
 20
-15.302100
 30
0.0
 10
85.258500
 20
-15.520000
 30
0.0
 10
85.110500
 20
-15.707300
 30
0.0
 10
84.936800
 20
-15.865800
 30
0.0
 10
84.737300
 20
-15.995500
 30
0.0
 10
84.512200
 20
-16.096300
 30
0.0
 10
84.261300
 20
-16.168400
 30
0.0
 10
83.984800
 20
-16.211600
 30
0.0
 10
83.682500
 20
-16.226000
 30
0.0
 10
83.403500
 20
-16.211100
 30
0.0
  0
LWPOLYLINE
  5
131
100
AcDbEntity
  8
0
 62
7
100
AcDbPolyline
 90
199
 70
0
 10
103.330000
 20
-17.116600
 30
0.0
 10
103.696000
 20
-17.082300
 30
0.0
 10
104.037000
 20
-17.025100
 30
0.0
 10
104.352000
 20
-16.945100
 30
0.0
 10
104.641000
 20
-16.842300
 30
0.0
 10
104.904000
 20
-16.716600
 30
0.0
 10
105.142000
 20
-16.568000
 30
0.0
 10
105.351000
 20
-16.398400
 30
0.0
 10
105.527000
 20
-16.209400
 30
0.0
 10
105.672000
 20
-16.001100
 30
0.0
 10
105.784000
 20
-15.773600
 30
0.0
 10
105.865000
 20
-15.526700
 30
0.0
 10
105.913000
 20
-15.260500
 30
0.0
 10
105.929000
 20
-14.975000
 30
0.0
 10
105.926000
 20
-14.857200
 30
0.0
 10
105.918000
 20
-14.743100
 30
0.0
 10
105.904000
 20
-14.632800
 30
0.0
 10
105.884000
 20
-14.526200
 30
0.0
 10
105.859000
 20
-14.423400
 30
0.0
 10
105.828000
 20
-14.324300
 30
0.0
 10
105.792000
 20
-14.229000
 30
0.0
 10
105.751000
 20
-14.137100
 30
0.0
 10
105.705000
 20
-14.048400
 30
0.0
 10
105.655000
 20
-13.962900
 30
0.0
 10
105.600000
 20
-13.880400
 30
0.0
 10
105.540000
 20
-13.801100
 30
0.0
 10
105.476000
 20
-13.725000
 30
0.0
 10
105.407000
 20
-13.652000
 30
0.0
 10
105.332000
 20
-13.581500
 30
0.0
 10
105.250000
 20
-13.512800
 30
0.0
 10
105.160000
 20
-13.446000
 30
0.0
 10
105.063000
 20
-13.381000
 30
0.0
 10
104.959000
 20
-13.317800
 30
0.0
 10
104.847000
 20
-13.256500
 30
0.0
 10
104.728000
 20
-13.197000
 30
0.0
 10
104.594000
 20
-13.137400
 30
0.0
 10
104.438000
 20
-13.076300
 30
0.0
 10
104.260000
 20
-13.013600
 30
0.0
 10
104.059000
 20
-12.949500
 30
0.0
 10
103.836000
 20
-12.883900
 30
0.0
 10
103.591000
 20
-12.816700
 30
0.0
 10
103.323000
 20
-12.748000
 30
0.0
 10
103.043000
 20
-12.678800
 30
0.0
 10
102.793000
 20
-12.614000
 30
0.0
 10
102.571000
 20
-12.553600
 30
0.0
 10
102.378000
 20
-12.497600
 30
0.0
 10
102.214000
 20
-12.446000
 30
0.0
 10
102.079000
 20
-12.398800
 30
0.0
 10
101.973000
 20
-12.356000
 30
0.0
 10
101.885000
 20
-12.314200
 30
0.0
 10
101.802000
 20
-12.270000
 30
0.0
 10
101.727000
 20
-12.223300
 30
0.0
 10
101.657000
 20
-12.174100
 30
0.0
 10
101.595000
 20
-12.122500
 30
0.0
 10
101.538000
 20
-12.068500
 30
0.0
 10
101.488000
 20
-12.012000
 30
0.0
 10
101.445000
 20
-11.951800
 30
0.0
 10
101.408000
 20
-11.887300
 30
0.0
 10
101.378000
 20
-11.818400
 30
0.0
 10
101.355000
 20
-11.745100
 30
0.0
 10
101.338000
 20
-11.667400
 30
0.0
 10
101.328000
 20
-11.585400
 30
0.0
 10
101.325000
 20
-11.499000
 30
0.0
 10
101.333000
 20
-11.360200
 30
0.0
 10
101.357000
 20
-11.231900
 30
0.0
 10
101.398000
 20
-11.114000
 30
0.0
 10
101.454000
 20
-11.006600
 30
0.0
 10
101.527000
 20
-10.909600
 30
0.0
 10
101.616000
 20
-10.823100
 30
0.0
 10
101.721000
 20
-10.747000
 30
0.0
 10
101.843000
 20
-10.681000
 30
0.0
 10
101.983000
 20
-10.625000
 30
0.0
 10
102.141000
 20
-10.579300
 30
0.0
 10
102.317000
 20
-10.543700
 30
0.0
 10
102.511000
 20
-10.518300
 30
0.0
 10
102.722000
 20
-10.503100
 30
0.0
 10
102.951000
 20
-10.498000
 30
0.0
 10
103.160000
 20
-10.503300
 30
0.0
 10
103.356000
 20
-10.519300
 30
0.0
 10
103.540000
 20
-10.545900
 30
0.0
 10
103.711000
 20
-10.583200
 30
0.0
 10
103.870000
 20
-10.631200
 30
0.0
 10
104.016000
 20
-10.689800
 30
0.0
 10
104.150000
 20
-10.759000
 30
0.0
 10
104.271000
 20
-10.838200
 30
0.0
 10
104.378000
 20
-10.926800
 30
0.0
 10
104.471000
 20
-11.024600
 30
0.0
 10
104.549000
 20
-11.131700
 30
0.0
 10
104.614000
 20
-11.248200
 30
0.0
 10
104.665000
 20
-11.373900
 30
0.0
 10
104.701000
 20
-11.509000
 30
0.0
 10
105.799000
 20
-11.373000
 30
0.0
 10
105.734000
 20
-11.114400
 30
0.0
 10
105.647000
 20
-10.876800
 30
0.0
 10
105.538000
 20
-10.660200
 30
0.0
 10
105.408000
 20
-10.464600
 30
0.0
 10
105.257000
 20
-10.290100
 30
0.0
 10
105.084000
 20
-10.136500
 30
0.0
 10
104.889000
 20
-10.004000
 30
0.0
 10
104.674000
 20
-9.890460
 30
0.0
 10
104.438000
 20
-9.794370
 30
0.0
 10
104.181000
 20
-9.715760
 30
0.0
 10
103.905000
 20
-9.654620
 30
0.0
 10
103.607000
 20
-9.610950
 30
0.0
 10
103.289000
 20
-9.584750
 30
0.0
 10
102.951000
 20
-9.576000
 30
0.0
 10
102.571000
 20
-9.586690
 30
0.0
 10
102.218000
 20
-9.618700
 30
0.0
 10
101.892000
 20
-9.672070
 30
0.0
 10
101.593000
 20
-9.746780
 30
0.0
 10
101.321000
 20
-9.842850
 30
0.0
 10
101.075000
 20
-9.960250
 30
0.0
 10
100.856000
 20
-10.099000
 30
0.0
 10
100.666000
 20
-10.258100
 30
0.0
 10
100.504000
 20
-10.436700
 30
0.0
 10
100.372000
 20
-10.634700
 30
0.0
 10
100.270000
 20
-10.852200
 30
0.0
 10
100.197000
 20
-11.089000
 30
0.0
 10
100.153000
 20
-11.345300
 30
0.0
 10
100.138000
 20
-11.621000
 30
0.0
 10
100.143000
 20
-11.771900
 30
0.0
 10
100.159000
 20
-11.915800
 30
0.0
 10
100.184000
 20
-12.052800
 30
0.0
 10
100.220000
 20
-12.183000
 30
0.0
 10
100.267000
 20
-12.306200
 30
0.0
 10
100.323000
 20
-12.422600
 30
0.0
 10
100.390000
 20
-12.532000
 30
0.0
 10
100.466000
 20
-12.635700
 30
0.0
 10
100.550000
 20
-12.734900
 30
0.0
 10
100.642000
 20
-12.829600
 30
0.0
 10
100.742000
 20
-12.919800
 30
0.0
 10
100.850000
 20
-13.005400
 30
0.0
 10
100.966000
 20
-13.086500
 30
0.0
 10
101.089000
 20
-13.163000
 30
0.0
 10
101.229000
 20
-13.237500
 30
0.0
 10
101.394000
 20
-13.312400
 30
0.0
 10
101.584000
 20
-13.387700
 30
0.0
 10
101.799000
 20
-13.463400
 30
0.0
 10
102.039000
 20
-13.539500
 30
0.0
 10
102.303000
 20
-13.616100
 30
0.0
 10
103.473000
 20
-13.923000
 30
0.0
 10
103.657000
 20
-13.974900
 30
0.0
 10
103.825000
 20
-14.030800
 30
0.0
 10
103.979000
 20
-14.090500
 30
0.0
 10
104.117000
 20
-14.154000
 30
0.0
 10
104.240000
 20
-14.221500
 30
0.0
 10
104.349000
 20
-14.292800
 30
0.0
 10
104.442000
 20
-14.368000
 30
0.0
 10
104.522000
 20
-14.448500
 30
0.0
 10
104.589000
 20
-14.535500
 30
0.0
 10
104.644000
 20
-14.629200
 30
0.0
 10
104.687000
 20
-14.729500
 30
0.0
 10
104.718000
 20
-14.836400
 30
0.0
 10
104.736000
 20
-14.949900
 30
0.0
 10
104.742000
 20
-15.070000
 30
0.0
 10
104.733000
 20
-15.225400
 30
0.0
 10
104.707000
 20
-15.369400
 30
0.0
 10
104.662000
 20
-15.501800
 30
0.0
 10
104.600000
 20
-15.622800
 30
0.0
 10
104.521000
 20
-15.732400
 30
0.0
 10
104.423000
 20
-15.830400
 30
0.0
 10
104.308000
 20
-15.917000
 30
0.0
 10
104.174000
 20
-15.991800
 30
0.0
 10
104.019000
 20
-16.055100
 30
0.0
 10
103.844000
 20
-16.106900
 30
0.0
 10
103.648000
 20
-16.147200
 30
0.0
 10
103.432000
 20
-16.176000
 30
0.0
 10
103.195000
 20
-16.193300
 30
0.0
 10
102.938000
 20
-16.199000
 30
0.0
 10
102.696000
 20
-16.193400
 30
0.0
 10
102.470000
 20
-16.176600
 30
0.0
 10
102.259000
 20
-16.148500
 30
0.0
 10
102.064000
 20
-16.109200
 30
0.0
 10
101.884000
 20
-16.058700
 30
0.0
 10
101.720000
 20
-15.997000
 30
0.0
 10
101.572000
 20
-15.924000
 30
0.0
 10
101.438000
 20
-15.839000
 30
0.0
 10
101.318000
 20
-15.741100
 30
0.0
 10
101.212000
 20
-15.630400
 30
0.0
 10
101.119000
 20
-15.506900
 30
0.0
 10
101.040000
 20
-15.370400
 30
0.0
 10
100.975000
 20
-15.221100
 30
0.0
 10
100.923000
 20
-15.059000
 30
0.0
 10
99.845000
 20
-15.269000
 30
0.0
 10
99.919900
 20
-15.532100
 30
0.0
 10
100.016000
 20
-15.774600
 30
0.0
 10
100.134000
 20
-15.996400
 30
0.0
 10
100.272000
 20
-16.197500
 30
0.0
 10
100.432000
 20
-16.378000
 30
0.0
 10
100.614000
 20
-16.537800
 30
0.0
 10
100.816000
 20
-16.677000
 30
0.0
 10
101.042000
 20
-16.796700
 30
0.0
 10
101.294000
 20
-16.897900
 30
0.0
 10
101.571000
 20
-16.980700
 30
0.0
 10
101.874000
 20
-17.045200
 30
0.0
 10
102.203000
 20
-17.091200
 30
0.0
 10
102.558000
 20
-17.118800
 30
0.0
 10
102.938000
 20
-17.128000
 30
0.0
 10
103.330000
 20
-17.116600
 30
0.0
  0
LWPOLYLINE
  5
132
100
AcDbEntity
  8
0
 62
7
100
AcDbPolyline
 90
80
 70
0
 10
90.865100
 20
-17.121600
 30
0.0
 10
91.083900
 20
-17.102300
 30
0.0
 10
91.291700
 20
-17.070100
 30
0.0
 10
91.488500
 20
-17.025100
 30
0.0
 10
91.674400
 20
-16.967300
 30
0.0
 10
91.849400
 20
-16.896600
 30
0.0
 10
92.013500
 20
-16.813000
 30
0.0
 10
92.169300
 20
-16.713700
 30
0.0
 10
92.319700
 20
-16.596200
 30
0.0
 10
92.464700
 20
-16.460600
 30
0.0
 10
92.604300
 20
-16.306900
 30
0.0
 10
92.738400
 20
-16.135100
 30
0.0
 10
92.867200
 20
-15.945100
 30
0.0
 10
92.990400
 20
-15.737000
 30
0.0
 10
93.010500
 20
-15.737000
 30
0.0
 10
93.058500
 20
-16.949600
 30
0.0
 10
93.064500
 20
-17.000000
 30
0.0
 10
94.217500
 20
-17.000000
 30
0.0
 10
94.206600
 20
-16.897900
 30
0.0
 10
94.197400
 20
-16.755000
 30
0.0
 10
94.189800
 20
-16.571400
 30
0.0
 10
94.184000
 20
-16.346900
 30
0.0
 10
94.179800
 20
-16.081700
 30
0.0
 10
94.176500
 20
-15.429000
 30
0.0
 10
94.176500
 20
-9.640010
 30
0.0
 10
92.955500
 20
-9.640010
 30
0.0
 10
92.955500
 20
-13.901000
 30
0.0
 10
92.945000
 20
-14.198300
 30
0.0
 10
92.913700
 20
-14.476400
 30
0.0
 10
92.861600
 20
-14.735400
 30
0.0
 10
92.788600
 20
-14.975300
 30
0.0
 10
92.694700
 20
-15.196000
 30
0.0
 10
92.580000
 20
-15.397600
 30
0.0
 10
92.444500
 20
-15.580000
 30
0.0
 10
92.290800
 20
-15.740500
 30
0.0
 10
92.121800
 20
-15.876300
 30
0.0
 10
91.937600
 20
-15.987500
 30
0.0
 10
91.738000
 20
-16.073900
 30
0.0
 10
91.523100
 20
-16.135600
 30
0.0
 10
91.292900
 20
-16.172700
 30
0.0
 10
91.047500
 20
-16.185000
 30
0.0
 10
90.880300
 20
-16.181400
 30
0.0
 10
90.725000
 20
-16.170600
 30
0.0
 10
90.581600
 20
-16.152700
 30
0.0
 10
90.450200
 20
-16.127500
 30
0.0
 10
90.330700
 20
-16.095200
 30
0.0
 10
90.223100
 20
-16.055700
 30
0.0
 10
90.127500
 20
-16.009000
 30
0.0
 10
90.041500
 20
-15.953900
 30
0.0
 10
89.962500
 20
-15.889600
 30
0.0
 10
89.890400
 20
-15.816100
 30
0.0
 10
89.825300
 20
-15.733600
 30
0.0
 10
89.767000
 20
-15.641900
 30
0.0
 10
89.715800
 20
-15.541000
 30
0.0
 10
89.671400
 20
-15.431000
 30
0.0
 10
89.633500
 20
-15.309800
 30
0.0
 10
89.601400
 20
-15.175200
 30
0.0
 10
89.575100
 20
-15.027200
 30
0.0
 10
89.554700
 20
-14.866000
 30
0.0
 10
89.540100
 20
-14.691300
 30
0.0
 10
89.531400
 20
-14.503300
 30
0.0
 10
89.528500
 20
-14.302000
 30
0.0
 10
89.528500
 20
-9.640010
 30
0.0
 10
88.301500
 20
-9.640010
 30
0.0
 10
88.301500
 20
-14.539000
 30
0.0
 10
88.312900
 20
-14.919000
 30
0.0
 10
88.347200
 20
-15.267000
 30
0.0
 10
88.404500
 20
-15.583000
 30
0.0
 10
88.484600
 20
-15.867000
 30
0.0
 10
88.587700
 20
-16.119000
 30
0.0
 10
88.713600
 20
-16.339000
 30
0.0
 10
88.862500
 20
-16.527000
 30
0.0
 10
89.036300
 20
-16.686500
 30
0.0
 10
89.236600
 20
-16.821400
 30
0.0
 10
89.463400
 20
-16.931800
 30
0.0
 10
89.716700
 20
-17.017600
 30
0.0
 10
89.996400
 20
-17.078900
 30
0.0
 10
90.302700
 20
-17.115700
 30
0.0
 10
90.635500
 20
-17.128000
 30
0.0
 10
90.865100
 20
-17.121600
 30
0.0
  0
LWPOLYLINE
  5
133
100
AcDbEntity
  8
0
 62
7
100
AcDbPolyline
 90
51
 70
0
 10
122.124000
 20
-37.893700
 30
0.0
 10
122.854000
 20
-37.706300
 30
0.0
 10
123.555000
 20
-37.429000
 30
0.0
 10
124.215000
 20
-37.066000
 30
0.0
 10
124.825000
 20
-36.623100
 30
0.0
 10
125.374000
 20
-36.107300
 30
0.0
 10
125.854000
 20
-35.526700
 30
0.0
 10
126.258000
 20
-34.890500
 30
0.0
 10
126.579000
 20
-34.208700
 30
0.0
 10
126.811000
 20
-33.492100
 30
0.0
 10
126.953000
 20
-32.752000
 30
0.0
 10
127.000000
 20
-32.000000
 30
0.0
 10
126.953000
 20
-31.248000
 30
0.0
 10
126.811000
 20
-30.507900
 30
0.0
 10
126.579000
 20
-29.791200
 30
0.0
 10
126.258000
 20
-29.109500
 30
0.0
 10
125.854000
 20
-28.473300
 30
0.0
 10
125.374000
 20
-27.892700
 30
0.0
 10
124.825000
 20
-27.376900
 30
0.0
 10
124.215000
 20
-26.934000
 30
0.0
 10
123.555000
 20
-26.571000
 30
0.0
 10
122.854000
 20
-26.293700
 30
0.0
 10
122.124000
 20
-26.106300
 30
0.0
 10
121.377000
 20
-26.011800
 30
0.0
 10
120.623000
 20
-26.011800
 30
0.0
 10
119.876000
 20
-26.106300
 30
0.0
 10
119.146000
 20
-26.293700
 30
0.0
 10
118.445000
 20
-26.571000
 30
0.0
 10
117.785000
 20
-26.934000
 30
0.0
 10
117.175000
 20
-27.376900
 30
0.0
 10
116.626000
 20
-27.892700
 30
0.0
 10
116.146000
 20
-28.473300
 30
0.0
 10
115.742000
 20
-29.109500
 30
0.0
 10
115.421000
 20
-29.791200
 30
0.0
 10
115.189000
 20
-30.507900
 30
0.0
 10
115.047000
 20
-31.248000
 30
0.0
 10
115.000000
 20
-32.000000
 30
0.0
 10
115.047000
 20
-32.752000
 30
0.0
 10
115.189000
 20
-33.492100
 30
0.0
 10
115.421000
 20
-34.208700
 30
0.0
 10
115.742000
 20
-34.890500
 30
0.0
 10
116.146000
 20
-35.526700
 30
0.0
 10
116.626000
 20
-36.107300
 30
0.0
 10
117.175000
 20
-36.623100
 30
0.0
 10
117.785000
 20
-37.066000
 30
0.0
 10
118.445000
 20
-37.429000
 30
0.0
 10
119.146000
 20
-37.706300
 30
0.0
 10
119.876000
 20
-37.893700
 30
0.0
 10
120.623000
 20
-37.988200
 30
0.0
 10
121.377000
 20
-37.988200
 30
0.0
 10
122.124000
 20
-37.893700
 30
0.0
  0
LWPOLYLINE
  5
134
100
AcDbEntity
  8
0
 62
7
100
AcDbPolyline
 90
13
 70
0
 10
81.808400
 20
-34.381000
 30
0.0
 10
82.718400
 20
-33.640000
 30
0.0
 10
85.214400
 20
-37.000000
 30
0.0
 10
86.644400
 20
-37.000000
 30
0.0
 10
83.497400
 20
-32.803000
 30
0.0
 10
86.487400
 20
-29.640000
 30
0.0
 10
85.057400
 20
-29.640000
 30
0.0
 10
81.808400
 20
-33.211000
 30
0.0
 10
81.808400
 20
-26.952000
 30
0.0
 10
80.588400
 20
-26.952000
 30
0.0
 10
80.588400
 20
-37.000000
 30
0.0
 10
81.808400
 20
-37.000000
 30
0.0
 10
81.808400
 20
-34.381000
 30
0.0
  0
LWPOLYLINE
  5
135
100
AcDbEntity
  8
0
 62
7
100
AcDbPolyline
 90
76
 70
0
 10
59.967200
 20
-32.664000
 30
0.0
 10
59.977900
 20
-32.383000
 30
0.0
 10
60.009800
 20
-32.119000
 30
0.0
 10
60.062900
 20
-31.871900
 30
0.0
 10
60.137400
 20
-31.641800
 30
0.0
 10
60.233100
 20
-31.428600
 30
0.0
 10
60.350000
 20
-31.232300
 30
0.0
 10
60.488200
 20
-31.053000
 30
0.0
 10
60.644100
 20
-30.894300
 30
0.0
 10
60.814100
 20
-30.760100
 30
0.0
 10
60.998200
 20
-30.650300
 30
0.0
 10
61.196300
 20
-30.564800
 30
0.0
 10
61.408600
 20
-30.503800
 30
0.0
 10
61.634900
 20
-30.467200
 30
0.0
 10
61.875200
 20
-30.455000
 30
0.0
 10
62.035500
 20
-30.458600
 30
0.0
 10
62.185500
 20
-30.469500
 30
0.0
 10
62.325200
 20
-30.487500
 30
0.0
 10
62.454700
 20
-30.512800
 30
0.0
 10
62.573800
 20
-30.545300
 30
0.0
 10
62.682700
 20
-30.585100
 30
0.0
 10
62.781200
 20
-30.632000
 30
0.0
 10
62.870900
 20
-30.686400
 30
0.0
 10
62.953100
 20
-30.749100
 30
0.0
 10
63.027700
 20
-30.820000
 30
0.0
 10
63.094900
 20
-30.899100
 30
0.0
 10
63.154500
 20
-30.986500
 30
0.0
 10
63.206600
 20
-31.082100
 30
0.0
 10
63.251200
 20
-31.186000
 30
0.0
 10
63.289200
 20
-31.301800
 30
0.0
 10
63.321300
 20
-31.433900
 30
0.0
 10
63.347500
 20
-31.582300
 30
0.0
 10
63.368000
 20
-31.746800
 30
0.0
 10
63.382600
 20
-31.927600
 30
0.0
 10
63.391300
 20
-32.124700
 30
0.0
 10
63.394200
 20
-32.338000
 30
0.0
 10
63.394200
 20
-37.000000
 30
0.0
 10
64.621200
 20
-37.000000
 30
0.0
 10
64.621200
 20
-32.101000
 30
0.0
 10
64.609600
 20
-31.717500
 30
0.0
 10
64.574900
 20
-31.366800
 30
0.0
 10
64.516900
 20
-31.049000
 30
0.0
 10
64.435800
 20
-30.764200
 30
0.0
 10
64.331500
 20
-30.512200
 30
0.0
 10
64.203900
 20
-30.293200
 30
0.0
 10
64.053200
 20
-30.107000
 30
0.0
 10
63.878100
 20
-29.949200
 30
0.0
 10
63.677200
 20
-29.815600
 30
0.0
 10
63.450700
 20
-29.706300
 30
0.0
 10
63.198400
 20
-29.621300
 30
0.0
 10
62.920400
 20
-29.560600
 30
0.0
 10
62.616700
 20
-29.524200
 30
0.0
 10
62.287200
 20
-29.512000
 30
0.0
 10
62.050400
 20
-29.518900
 30
0.0
 10
61.825600
 20
-29.539500
 30
0.0
 10
61.612900
 20
-29.573900
 30
0.0
 10
61.412100
 20
-29.622100
 30
0.0
 10
61.223500
 20
-29.683900
 30
0.0
 10
61.046800
 20
-29.759600
 30
0.0
 10
60.882200
 20
-29.849000
 30
0.0
 10
60.727200
 20
-29.952900
 30
0.0
 10
60.578600
 20
-30.072400
 30
0.0
 10
60.436600
 20
-30.207500
 30
0.0
 10
60.301000
 20
-30.358400
 30
0.0
 10
60.171900
 20
-30.524900
 30
0.0
 10
60.049300
 20
-30.707100
 30
0.0
 10
59.933200
 20
-30.905000
 30
0.0
 10
59.912200
 20
-30.905000
 30
0.0
 10
59.943200
 20
-30.400000
 30
0.0
 10
59.959400
 20
-30.029500
 30
0.0
 10
59.966800
 20
-29.669000
 30
0.0
 10
59.967200
 20
-26.952000
 30
0.0
 10
58.746200
 20
-26.952000
 30
0.0
 10
58.746200
 20
-37.000000
 30
0.0
 10
59.967200
 20
-37.000000
 30
0.0
 10
59.967200
 20
-32.664000
 30
0.0
  0
LWPOLYLINE
  5
136
100
AcDbEntity
  8
0
 62
7
100
AcDbPolyline
 90
48
 70
0
 10
104.204000
 20
-37.124700
 30
0.0
 10
104.382000
 20
-37.114700
 30
0.0
 10
104.559000
 20
-37.098100
 30
0.0
 10
104.734000
 20
-37.074800
 30
0.0
 10
104.908000
 20
-37.044800
 30
0.0
 10
105.082000
 20
-37.008200
 30
0.0
 10
105.254000
 20
-36.965000
 30
0.0
 10
105.254000
 20
-36.063000
 30
0.0
 10
105.127000
 20
-36.088200
 30
0.0
 10
105.010000
 20
-36.109500
 30
0.0
 10
104.902000
 20
-36.127000
 30
0.0
 10
104.802000
 20
-36.140600
 30
0.0
 10
104.711000
 20
-36.150300
 30
0.0
 10
104.629000
 20
-36.156100
 30
0.0
 10
104.556000
 20
-36.158000
 30
0.0
 10
104.440000
 20
-36.153600
 30
0.0
 10
104.334000
 20
-36.140500
 30
0.0
 10
104.239000
 20
-36.118500
 30
0.0
 10
104.154000
 20
-36.087800
 30
0.0
 10
104.079000
 20
-36.048300
 30
0.0
 10
104.015000
 20
-36.000000
 30
0.0
 10
103.961000
 20
-35.943000
 30
0.0
 10
103.915000
 20
-35.875100
 30
0.0
 10
103.877000
 20
-35.794200
 30
0.0
 10
103.845000
 20
-35.700300
 30
0.0
 10
103.821000
 20
-35.593500
 30
0.0
 10
103.804000
 20
-35.473600
 30
0.0
 10
103.793000
 20
-35.340800
 30
0.0
 10
103.790000
 20
-35.195000
 30
0.0
 10
103.790000
 20
-30.528000
 30
0.0
 10
105.132000
 20
-30.528000
 30
0.0
 10
105.132000
 20
-29.640000
 30
0.0
 10
103.790000
 20
-29.640000
 30
0.0
 10
103.790000
 20
-27.976000
 30
0.0
 10
102.976000
 20
-27.976000
 30
0.0
 10
102.616000
 20
-29.640000
 30
0.0
 10
101.721000
 20
-29.640000
 30
0.0
 10
101.721000
 20
-30.528000
 30
0.0
 10
102.569000
 20
-30.528000
 30
0.0
 10
102.569000
 20
-35.456000
 30
0.0
 10
102.598000
 20
-35.899600
 30
0.0
 10
102.688000
 20
-36.274900
 30
0.0
 10
102.836000
 20
-36.582000
 30
0.0
 10
103.044000
 20
-36.820900
 30
0.0
 10
103.312000
 20
-36.991500
 30
0.0
 10
103.639000
 20
-37.093900
 30
0.0
 10
104.026000
 20
-37.128000
 30
0.0
 10
104.204000
 20
-37.124700
 30
0.0
  0
LWPOLYLINE
  5
137
100
AcDbEntity
  8
0
 62
7
100
AcDbPolyline
 90
115
 70
0
 10
55.093500
 20
-37.114900
 30
0.0
 10
55.403300
 20
-37.075800
 30
0.0
 10
55.696400
 20
-37.010600
 30
0.0
 10
55.972900
 20
-36.919400
 30
0.0
 10
56.232600
 20
-36.802000
 30
0.0
 10
56.475600
 20
-36.658500
 30
0.0
 10
56.702000
 20
-36.489000
 30
0.0
 10
56.907300
 20
-36.297600
 30
0.0
 10
57.087400
 20
-36.088500
 30
0.0
 10
57.242100
 20
-35.861800
 30
0.0
 10
57.371500
 20
-35.617300
 30
0.0
 10
57.475700
 20
-35.355200
 30
0.0
 10
57.554500
 20
-35.075500
 30
0.0
 10
57.608000
 20
-34.778000
 30
0.0
 10
56.374000
 20
-34.696000
 30
0.0
 10
56.337700
 20
-34.901800
 30
0.0
 10
56.287500
 20
-35.091800
 30
0.0
 10
56.223600
 20
-35.266100
 30
0.0
 10
56.145900
 20
-35.424500
 30
0.0
 10
56.054400
 20
-35.567100
 30
0.0
 10
55.949100
 20
-35.694000
 30
0.0
 10
55.830000
 20
-35.805000
 30
0.0
 10
55.699900
 20
-35.900500
 30
0.0
 10
55.560900
 20
-35.981300
 30
0.0
 10
55.413200
 20
-36.047500
 30
0.0
 10
55.256600
 20
-36.098900
 30
0.0
 10
55.091200
 20
-36.135600
 30
0.0
 10
54.917000
 20
-36.157700
 30
0.0
 10
54.734000
 20
-36.165000
 30
0.0
 10
54.475900
 20
-36.150600
 30
0.0
 10
54.237100
 20
-36.107400
 30
0.0
 10
54.017500
 20
-36.035300
 30
0.0
 10
53.817300
 20
-35.934500
 30
0.0
 10
53.636200
 20
-35.804800
 30
0.0
 10
53.474500
 20
-35.646300
 30
0.0
 10
53.332000
 20
-35.459000
 30
0.0
 10
53.208900
 20
-35.241800
 30
0.0
 10
53.104700
 20
-34.993500
 30
0.0
 10
53.019500
 20
-34.714100
 30
0.0
 10
52.953200
 20
-34.403700
 30
0.0
 10
52.905900
 20
-34.062200
 30
0.0
 10
52.877500
 20
-33.689600
 30
0.0
 10
52.868000
 20
-33.286000
 30
0.0
 10
52.876900
 20
-32.867500
 30
0.0
 10
52.903700
 20
-32.484900
 30
0.0
 10
52.948300
 20
-32.138500
 30
0.0
 10
53.010700
 20
-31.828000
 30
0.0
 10
53.091000
 20
-31.553700
 30
0.0
 10
53.189100
 20
-31.315300
 30
0.0
 10
53.305000
 20
-31.113000
 30
0.0
 10
53.441100
 20
-30.941900
 30
0.0
 10
53.599300
 20
-30.797100
 30
0.0
 10
53.779400
 20
-30.678600
 30
0.0
 10
53.981600
 20
-30.586500
 30
0.0
 10
54.205700
 20
-30.520700
 30
0.0
 10
54.451800
 20
-30.481200
 30
0.0
 10
54.720000
 20
-30.468000
 30
0.0
 10
54.918400
 20
-30.475500
 30
0.0
 10
55.103400
 20
-30.497800
 30
0.0
 10
55.275000
 20
-30.535000
 30
0.0
 10
55.433100
 20
-30.587200
 30
0.0
 10
55.577900
 20
-30.654200
 30
0.0
 10
55.709100
 20
-30.736200
 30
0.0
 10
55.827000
 20
-30.833000
 30
0.0
 10
55.932400
 20
-30.942200
 30
0.0
 10
56.025800
 20
-31.061800
 30
0.0
 10
56.107300
 20
-31.191800
 30
0.0
 10
56.176700
 20
-31.332300
 30
0.0
 10
56.234100
 20
-31.483100
 30
0.0
 10
56.279600
 20
-31.644300
 30
0.0
 10
56.313000
 20
-31.816000
 30
0.0
 10
57.567000
 20
-31.720000
 30
0.0
 10
57.501100
 20
-31.434200
 30
0.0
 10
57.412500
 20
-31.166500
 30
0.0
 10
57.301300
 20
-30.917000
 30
0.0
 10
57.167500
 20
-30.685600
 30
0.0
 10
57.011000
 20
-30.472300
 30
0.0
 10
56.831800
 20
-30.277100
 30
0.0
 10
56.630000
 20
-30.100000
 30
0.0
 10
56.409000
 20
-29.944000
 30
0.0
 10
56.172400
 20
-29.812000
 30
0.0
 10
55.920000
 20
-29.704000
 30
0.0
 10
55.652000
 20
-29.620000
 30
0.0
 10
55.368400
 20
-29.560000
 30
0.0
 10
55.069000
 20
-29.524000
 30
0.0
 10
54.754000
 20
-29.512000
 30
0.0
 10
54.332400
 20
-29.531900
 30
0.0
 10
53.939800
 20
-29.591500
 30
0.0
 10
53.576000
 20
-29.690900
 30
0.0
 10
53.241200
 20
-29.830000
 30
0.0
 10
52.935200
 20
-30.008900
 30
0.0
 10
52.658200
 20
-30.227600
 30
0.0
 10
52.410000
 20
-30.486000
 30
0.0
 10
52.193200
 20
-30.782200
 30
0.0
 10
52.009800
 20
-31.114300
 30
0.0
 10
51.859800
 20
-31.482300
 30
0.0
 10
51.743100
 20
-31.886200
 30
0.0
 10
51.659700
 20
-32.325900
 30
0.0
 10
51.609700
 20
-32.801500
 30
0.0
 10
51.593000
 20
-33.313000
 30
0.0
 10
51.609600
 20
-33.828200
 30
0.0
 10
51.659400
 20
-34.307000
 30
0.0
 10
51.742500
 20
-34.749300
 30
0.0
 10
51.858800
 20
-35.155100
 30
0.0
 10
52.008300
 20
-35.524500
 30
0.0
 10
52.191000
 20
-35.857500
 30
0.0
 10
52.407000
 20
-36.154000
 30
0.0
 10
52.654500
 20
-36.412400
 30
0.0
 10
52.931900
 20
-36.631100
 30
0.0
 10
53.239200
 20
-36.810000
 30
0.0
 10
53.576300
 20
-36.949100
 30
0.0
 10
53.943300
 20
-37.048500
 30
0.0
 10
54.340200
 20
-37.108100
 30
0.0
 10
54.767000
 20
-37.128000
 30
0.0
 10
55.093500
 20
-37.114900
 30
0.0
  0
LWPOLYLINE
  5
138
100
AcDbEntity
  8
0
 62
7
100
AcDbPolyline
 90
74
 70
0
 10
69.888200
 20
-37.092400
 30
0.0
 10
70.453600
 20
-36.985800
 30
0.0
 10
70.950500
 20
-36.808000
 30
0.0
 10
71.378800
 20
-36.559200
 30
0.0
 10
71.738500
 20
-36.239200
 30
0.0
 10
72.029600
 20
-35.848200
 30
0.0
 10
72.252200
 20
-35.386000
 30
0.0
 10
71.181200
 20
-35.080000
 30
0.0
 10
71.126300
 20
-35.216800
 30
0.0
 10
71.058800
 20
-35.346700
 30
0.0
 10
70.978600
 20
-35.469600
 30
0.0
 10
70.885700
 20
-35.585600
 30
0.0
 10
70.780200
 20
-35.694700
 30
0.0
 10
70.662000
 20
-35.796800
 30
0.0
 10
70.531200
 20
-35.892000
 30
0.0
 10
70.387600
 20
-35.977200
 30
0.0
 10
70.231000
 20
-36.049200
 30
0.0
 10
70.061600
 20
-36.108200
 30
0.0
 10
69.879100
 20
-36.154100
 30
0.0
 10
69.683800
 20
-36.186800
 30
0.0
 10
69.475400
 20
-36.206500
 30
0.0
 10
69.254200
 20
-36.213000
 30
0.0
 10
68.976300
 20
-36.199100
 30
0.0
 10
68.718100
 20
-36.157200
 30
0.0
 10
68.479600
 20
-36.087400
 30
0.0
 10
68.260700
 20
-35.989700
 30
0.0
 10
68.061600
 20
-35.864000
 30
0.0
 10
67.882000
 20
-35.710500
 30
0.0
 10
67.722200
 20
-35.529000
 30
0.0
 10
67.583200
 20
-35.321600
 30
0.0
 10
67.465600
 20
-35.090600
 30
0.0
 10
67.369300
 20
-34.836300
 30
0.0
 10
67.294400
 20
-34.558400
 30
0.0
 10
67.241000
 20
-34.257100
 30
0.0
 10
67.208900
 20
-33.932300
 30
0.0
 10
67.198200
 20
-33.584000
 30
0.0
 10
72.449200
 20
-33.584000
 30
0.0
 10
72.449200
 20
-33.421000
 30
0.0
 10
72.383000
 20
-32.383900
 30
0.0
 10
72.184500
 20
-31.506400
 30
0.0
 10
71.853600
 20
-30.788400
 30
0.0
 10
71.390300
 20
-30.230000
 30
0.0
 10
70.794600
 20
-29.831100
 30
0.0
 10
70.066600
 20
-29.591800
 30
0.0
 10
69.206200
 20
-29.512000
 30
0.0
 10
68.768600
 20
-29.531800
 30
0.0
 10
68.360700
 20
-29.591300
 30
0.0
 10
67.982800
 20
-29.690400
 30
0.0
 10
67.634600
 20
-29.829100
 30
0.0
 10
67.316300
 20
-30.007400
 30
0.0
 10
67.027800
 20
-30.225400
 30
0.0
 10
66.769200
 20
-30.483000
 30
0.0
 10
66.542900
 20
-30.777500
 30
0.0
 10
66.351400
 20
-31.106600
 30
0.0
 10
66.194700
 20
-31.470400
 30
0.0
 10
66.072900
 20
-31.868800
 30
0.0
 10
65.985800
 20
-32.301900
 30
0.0
 10
65.933600
 20
-32.769600
 30
0.0
 10
65.916200
 20
-33.272000
 30
0.0
 10
65.933600
 20
-33.799900
 30
0.0
 10
65.985800
 20
-34.289200
 30
0.0
 10
66.072900
 20
-34.740100
 30
0.0
 10
66.194700
 20
-35.152300
 30
0.0
 10
66.351400
 20
-35.526100
 30
0.0
 10
66.542900
 20
-35.861300
 30
0.0
 10
66.769200
 20
-36.158000
 30
0.0
 10
67.028800
 20
-36.415400
 30
0.0
 10
67.320200
 20
-36.633100
 30
0.0
 10
67.643400
 20
-36.811300
 30
0.0
 10
67.998400
 20
-36.949800
 30
0.0
 10
68.385200
 20
-37.048800
 30
0.0
 10
68.803800
 20
-37.108200
 30
0.0
 10
69.254200
 20
-37.128000
 30
0.0
 10
69.888200
 20
-37.092400
 30
0.0
  0
LWPOLYLINE
  5
139
100
AcDbEntity
  8
0
 62
7
100
AcDbPolyline
 90
30
 70
0
 10
67.211200
 20
-32.648000
 30
0.0
 10
67.232700
 20
-32.359400
 30
0.0
 10
67.273800
 20
-32.089000
 30
0.0
 10
67.334500
 20
-31.836800
 30
0.0
 10
67.414800
 20
-31.602800
 30
0.0
 10
67.514700
 20
-31.387000
 30
0.0
 10
67.634200
 20
-31.189400
 30
0.0
 10
67.773200
 20
-31.010000
 30
0.0
 10
67.929600
 20
-30.851900
 30
0.0
 10
68.101100
 20
-30.718100
 30
0.0
 10
68.287700
 20
-30.608600
 30
0.0
 10
68.489500
 20
-30.523500
 30
0.0
 10
68.706300
 20
-30.462700
 30
0.0
 10
68.938200
 20
-30.426200
 30
0.0
 10
69.185200
 20
-30.414000
 30
0.0
 10
69.439000
 20
-30.424900
 30
0.0
 10
69.675300
 20
-30.457700
 30
0.0
 10
69.894100
 20
-30.512300
 30
0.0
 10
70.095400
 20
-30.588700
 30
0.0
 10
70.279200
 20
-30.687000
 30
0.0
 10
70.445400
 20
-30.807100
 30
0.0
 10
70.594200
 20
-30.949000
 30
0.0
 10
70.726600
 20
-31.114500
 30
0.0
 10
70.843000
 20
-31.305700
 30
0.0
 10
70.943600
 20
-31.522600
 30
0.0
 10
71.028300
 20
-31.765300
 30
0.0
 10
71.097200
 20
-32.033800
 30
0.0
 10
71.150100
 20
-32.328000
 30
0.0
 10
71.187200
 20
-32.648000
 30
0.0
 10
67.211200
 20
-32.648000
 30
0.0
  0
LWPOLYLINE
  5
13a
100
AcDbEntity
  8
0
 62
7
100
AcDbPolyline
 90
50
 70
0
 10
90.717300
 20
-37.108700
 30
0.0
 10
91.132600
 20
-37.051000
 30
0.0
 10
91.516500
 20
-36.954800
 30
0.0
 10
91.869000
 20
-36.820100
 30
0.0
 10
92.190300
 20
-36.646900
 30
0.0
 10
92.480100
 20
-36.435200
 30
0.0
 10
92.738700
 20
-36.185000
 30
0.0
 10
92.964200
 20
-35.895200
 30
0.0
 10
93.155000
 20
-35.565200
 30
0.0
 10
93.311100
 20
-35.195100
 30
0.0
 10
93.432600
 20
-34.784900
 30
0.0
 10
93.519300
 20
-34.334400
 30
0.0
 10
93.571300
 20
-33.843800
 30
0.0
 10
93.588700
 20
-33.313000
 30
0.0
 10
93.572400
 20
-32.777300
 30
0.0
 10
93.523700
 20
-32.283300
 30
0.0
 10
93.442500
 20
-31.831000
 30
0.0
 10
93.328800
 20
-31.420400
 30
0.0
 10
93.182600
 20
-31.051600
 30
0.0
 10
93.003900
 20
-30.724400
 30
0.0
 10
92.792700
 20
-30.439000
 30
0.0
 10
92.547300
 20
-30.193100
 30
0.0
 10
92.265700
 20
-29.985000
 30
0.0
 10
91.947600
 20
-29.814700
 30
0.0
 10
91.593200
 20
-29.682300
 30
0.0
 10
91.202400
 20
-29.587700
 30
0.0
 10
90.775200
 20
-29.530900
 30
0.0
 10
90.311700
 20
-29.512000
 30
0.0
 10
89.437000
 20
-29.589600
 30
0.0
 10
88.696800
 20
-29.822300
 30
0.0
 10
88.091200
 20
-30.210100
 30
0.0
 10
87.620300
 20
-30.753100
 30
0.0
 10
87.283800
 20
-31.451300
 30
0.0
 10
87.082000
 20
-32.304600
 30
0.0
 10
87.014700
 20
-33.313000
 30
0.0
 10
87.031400
 20
-33.824600
 30
0.0
 10
87.081800
 20
-34.300700
 30
0.0
 10
87.165700
 20
-34.741100
 30
0.0
 10
87.283100
 20
-35.146000
 30
0.0
 10
87.434100
 20
-35.515300
 30
0.0
 10
87.618600
 20
-35.848900
 30
0.0
 10
87.836700
 20
-36.147000
 30
0.0
 10
88.087900
 20
-36.407300
 30
0.0
 10
88.371300
 20
-36.627500
 30
0.0
 10
88.686800
 20
-36.807700
 30
0.0
 10
89.034600
 20
-36.947800
 30
0.0
 10
89.414400
 20
-37.047900
 30
0.0
 10
89.826500
 20
-37.108000
 30
0.0
 10
90.270700
 20
-37.128000
 30
0.0
 10
90.717300
 20
-37.108700
 30
0.0
  0
LWPOLYLINE
  5
13b
100
AcDbEntity
  8
0
 62
7
100
AcDbPolyline
 90
57
 70
0
 10
89.978700
 20
-36.211100
 30
0.0
 10
89.721900
 20
-36.166400
 30
0.0
 10
89.487200
 20
-36.091900
 30
0.0
 10
89.274700
 20
-35.987600
 30
0.0
 10
89.084200
 20
-35.853600
 30
0.0
 10
88.915900
 20
-35.689700
 30
0.0
 10
88.769700
 20
-35.496000
 30
0.0
 10
88.644200
 20
-35.272700
 30
0.0
 10
88.538000
 20
-35.019900
 30
0.0
 10
88.451100
 20
-34.737500
 30
0.0
 10
88.383600
 20
-34.425600
 30
0.0
 10
88.335300
 20
-34.084300
 30
0.0
 10
88.306300
 20
-33.713400
 30
0.0
 10
88.296700
 20
-33.313000
 30
0.0
 10
88.306500
 20
-32.902300
 30
0.0
 10
88.335900
 20
-32.523900
 30
0.0
 10
88.384800
 20
-32.177900
 30
0.0
 10
88.453400
 20
-31.864200
 30
0.0
 10
88.541600
 20
-31.582800
 30
0.0
 10
88.649300
 20
-31.333700
 30
0.0
 10
88.776700
 20
-31.117000
 30
0.0
 10
88.926000
 20
-30.930500
 30
0.0
 10
89.099600
 20
-30.772700
 30
0.0
 10
89.297600
 20
-30.643600
 30
0.0
 10
89.519900
 20
-30.543100
 30
0.0
 10
89.766500
 20
-30.471400
 30
0.0
 10
90.037400
 20
-30.428400
 30
0.0
 10
90.332700
 20
-30.414000
 30
0.0
 10
90.625500
 20
-30.428100
 30
0.0
 10
90.893200
 20
-30.470200
 30
0.0
 10
91.135600
 20
-30.540600
 30
0.0
 10
91.352900
 20
-30.639000
 30
0.0
 10
91.545000
 20
-30.765500
 30
0.0
 10
91.711900
 20
-30.920200
 30
0.0
 10
91.853700
 20
-31.103000
 30
0.0
 10
91.973900
 20
-31.316800
 30
0.0
 10
92.075600
 20
-31.564600
 30
0.0
 10
92.158800
 20
-31.846400
 30
0.0
 10
92.223500
 20
-32.162100
 30
0.0
 10
92.269700
 20
-32.511800
 30
0.0
 10
92.297400
 20
-32.895400
 30
0.0
 10
92.306700
 20
-33.313000
 30
0.0
 10
92.297000
 20
-33.725600
 30
0.0
 10
92.268100
 20
-34.105800
 30
0.0
 10
92.219800
 20
-34.453600
 30
0.0
 10
92.152200
 20
-34.768800
 30
0.0
 10
92.065400
 20
-35.051700
 30
0.0
 10
91.959200
 20
-35.302100
 30
0.0
 10
91.833700
 20
-35.520000
 30
0.0
 10
91.685700
 20
-35.707300
 30
0.0
 10
91.512000
 20
-35.865800
 30
0.0
 10
91.312500
 20
-35.995500
 30
0.0
 10
91.087400
 20
-36.096300
 30
0.0
 10
90.836500
 20
-36.168400
 30
0.0
 10
90.560000
 20
-36.211600
 30
0.0
 10
90.257700
 20
-36.226000
 30
0.0
 10
89.978700
 20
-36.211100
 30
0.0
  0
LWPOLYLINE
  5
13c
100
AcDbEntity
  8
0
 62
7
100
AcDbPolyline
 90
115
 70
0
 10
76.960700
 20
-37.114900
 30
0.0
 10
77.270500
 20
-37.075800
 30
0.0
 10
77.563600
 20
-37.010600
 30
0.0
 10
77.840100
 20
-36.919400
 30
0.0
 10
78.099800
 20
-36.802000
 30
0.0
 10
78.342800
 20
-36.658500
 30
0.0
 10
78.569200
 20
-36.489000
 30
0.0
 10
78.774500
 20
-36.297600
 30
0.0
 10
78.954600
 20
-36.088500
 30
0.0
 10
79.109300
 20
-35.861800
 30
0.0
 10
79.238700
 20
-35.617300
 30
0.0
 10
79.342800
 20
-35.355200
 30
0.0
 10
79.421700
 20
-35.075500
 30
0.0
 10
79.475200
 20
-34.778000
 30
0.0
 10
78.241200
 20
-34.696000
 30
0.0
 10
78.204800
 20
-34.901800
 30
0.0
 10
78.154700
 20
-35.091800
 30
0.0
 10
78.090800
 20
-35.266100
 30
0.0
 10
78.013100
 20
-35.424500
 30
0.0
 10
77.921600
 20
-35.567100
 30
0.0
 10
77.816300
 20
-35.694000
 30
0.0
 10
77.697200
 20
-35.805000
 30
0.0
 10
77.567100
 20
-35.900500
 30
0.0
 10
77.428100
 20
-35.981300
 30
0.0
 10
77.280400
 20
-36.047500
 30
0.0
 10
77.123800
 20
-36.098900
 30
0.0
 10
76.958400
 20
-36.135600
 30
0.0
 10
76.784200
 20
-36.157700
 30
0.0
 10
76.601200
 20
-36.165000
 30
0.0
 10
76.343100
 20
-36.150600
 30
0.0
 10
76.104300
 20
-36.107400
 30
0.0
 10
75.884700
 20
-36.035300
 30
0.0
 10
75.684400
 20
-35.934500
 30
0.0
 10
75.503400
 20
-35.804800
 30
0.0
 10
75.341700
 20
-35.646300
 30
0.0
 10
75.199200
 20
-35.459000
 30
0.0
 10
75.076100
 20
-35.241800
 30
0.0
 10
74.971900
 20
-34.993500
 30
0.0
 10
74.886700
 20
-34.714100
 30
0.0
 10
74.820400
 20
-34.403700
 30
0.0
 10
74.773100
 20
-34.062200
 30
0.0
 10
74.744600
 20
-33.689600
 30
0.0
 10
74.735200
 20
-33.286000
 30
0.0
 10
74.744100
 20
-32.867500
 30
0.0
 10
74.770900
 20
-32.484900
 30
0.0
 10
74.815400
 20
-32.138500
 30
0.0
 10
74.877900
 20
-31.828000
 30
0.0
 10
74.958100
 20
-31.553700
 30
0.0
 10
75.056200
 20
-31.315300
 30
0.0
 10
75.172200
 20
-31.113000
 30
0.0
 10
75.308300
 20
-30.941900
 30
0.0
 10
75.466500
 20
-30.797100
 30
0.0
 10
75.646600
 20
-30.678600
 30
0.0
 10
75.848800
 20
-30.586500
 30
0.0
 10
76.072900
 20
-30.520700
 30
0.0
 10
76.319000
 20
-30.481200
 30
0.0
 10
76.587200
 20
-30.468000
 30
0.0
 10
76.785600
 20
-30.475500
 30
0.0
 10
76.970600
 20
-30.497800
 30
0.0
 10
77.142200
 20
-30.535000
 30
0.0
 10
77.300300
 20
-30.587200
 30
0.0
 10
77.445000
 20
-30.654200
 30
0.0
 10
77.576300
 20
-30.736200
 30
0.0
 10
77.694200
 20
-30.833000
 30
0.0
 10
77.799600
 20
-30.942200
 30
0.0
 10
77.893000
 20
-31.061800
 30
0.0
 10
77.974500
 20
-31.191800
 30
0.0
 10
78.043900
 20
-31.332300
 30
0.0
 10
78.101300
 20
-31.483100
 30
0.0
 10
78.146700
 20
-31.644300
 30
0.0
 10
78.180200
 20
-31.816000
 30
0.0
 10
79.434200
 20
-31.720000
 30
0.0
 10
79.368300
 20
-31.434200
 30
0.0
 10
79.279700
 20
-31.166500
 30
0.0
 10
79.168500
 20
-30.917000
 30
0.0
 10
79.034700
 20
-30.685600
 30
0.0
 10
78.878200
 20
-30.472300
 30
0.0
 10
78.699000
 20
-30.277100
 30
0.0
 10
78.497200
 20
-30.100000
 30
0.0
 10
78.276200
 20
-29.944000
 30
0.0
 10
78.039600
 20
-29.812000
 30
0.0
 10
77.787200
 20
-29.704000
 30
0.0
 10
77.519200
 20
-29.620000
 30
0.0
 10
77.235500
 20
-29.560000
 30
0.0
 10
76.936200
 20
-29.524000
 30
0.0
 10
76.621200
 20
-29.512000
 30
0.0
 10
76.199600
 20
-29.531900
 30
0.0
 10
75.807000
 20
-29.591500
 30
0.0
 10
75.443200
 20
-29.690900
 30
0.0
 10
75.108400
 20
-29.830000
 30
0.0
 10
74.802400
 20
-30.008900
 30
0.0
 10
74.525300
 20
-30.227600
 30
0.0
 10
74.277200
 20
-30.486000
 30
0.0
 10
74.060400
 20
-30.782200
 30
0.0
 10
73.877000
 20
-31.114300
 30
0.0
 10
73.727000
 20
-31.482300
 30
0.0
 10
73.610200
 20
-31.886200
 30
0.0
 10
73.526900
 20
-32.325900
 30
0.0
 10
73.476900
 20
-32.801500
 30
0.0
 10
73.460200
 20
-33.313000
 30
0.0
 10
73.476800
 20
-33.828200
 30
0.0
 10
73.526600
 20
-34.307000
 30
0.0
 10
73.609700
 20
-34.749300
 30
0.0
 10
73.726000
 20
-35.155100
 30
0.0
 10
73.875500
 20
-35.524500
 30
0.0
 10
74.058200
 20
-35.857500
 30
0.0
 10
74.274200
 20
-36.154000
 30
0.0
 10
74.521700
 20
-36.412400
 30
0.0
 10
74.799100
 20
-36.631100
 30
0.0
 10
75.106300
 20
-36.810000
 30
0.0
 10
75.443500
 20
-36.949100
 30
0.0
 10
75.810500
 20
-37.048500
 30
0.0
 10
76.207400
 20
-37.108100
 30
0.0
 10
76.634200
 20
-37.128000
 30
0.0
 10
76.960700
 20
-37.114900
 30
0.0
  0
LWPOLYLINE
  5
13d
100
AcDbEntity
  8
0
 62
7
100
AcDbPolyline
 90
80
 70
0
 10
97.440300
 20
-37.121600
 30
0.0
 10
97.659100
 20
-37.102300
 30
0.0
 10
97.866900
 20
-37.070100
 30
0.0
 10
98.063700
 20
-37.025100
 30
0.0
 10
98.249600
 20
-36.967300
 30
0.0
 10
98.424600
 20
-36.896600
 30
0.0
 10
98.588700
 20
-36.813000
 30
0.0
 10
98.744500
 20
-36.713700
 30
0.0
 10
98.894900
 20
-36.596200
 30
0.0
 10
99.039900
 20
-36.460600
 30
0.0
 10
99.179500
 20
-36.306900
 30
0.0
 10
99.313600
 20
-36.135100
 30
0.0
 10
99.442400
 20
-35.945100
 30
0.0
 10
99.565600
 20
-35.737000
 30
0.0
 10
99.585600
 20
-35.737000
 30
0.0
 10
99.633700
 20
-36.949600
 30
0.0
 10
99.639600
 20
-37.000000
 30
0.0
 10
100.793000
 20
-37.000000
 30
0.0
 10
100.782000
 20
-36.897900
 30
0.0
 10
100.773000
 20
-36.755000
 30
0.0
 10
100.765000
 20
-36.571400
 30
0.0
 10
100.759000
 20
-36.346900
 30
0.0
 10
100.755000
 20
-36.081700
 30
0.0
 10
100.752000
 20
-35.429000
 30
0.0
 10
100.752000
 20
-29.640000
 30
0.0
 10
99.530700
 20
-29.640000
 30
0.0
 10
99.530700
 20
-33.901000
 30
0.0
 10
99.520200
 20
-34.198300
 30
0.0
 10
99.488900
 20
-34.476400
 30
0.0
 10
99.436800
 20
-34.735400
 30
0.0
 10
99.363800
 20
-34.975300
 30
0.0
 10
99.269900
 20
-35.196000
 30
0.0
 10
99.155200
 20
-35.397600
 30
0.0
 10
99.019700
 20
-35.580000
 30
0.0
 10
98.866000
 20
-35.740500
 30
0.0
 10
98.697000
 20
-35.876300
 30
0.0
 10
98.512800
 20
-35.987500
 30
0.0
 10
98.313200
 20
-36.073900
 30
0.0
 10
98.098300
 20
-36.135600
 30
0.0
 10
97.868100
 20
-36.172700
 30
0.0
 10
97.622700
 20
-36.185000
 30
0.0
 10
97.455500
 20
-36.181400
 30
0.0
 10
97.300200
 20
-36.170600
 30
0.0
 10
97.156800
 20
-36.152700
 30
0.0
 10
97.025400
 20
-36.127500
 30
0.0
 10
96.905900
 20
-36.095200
 30
0.0
 10
96.798300
 20
-36.055700
 30
0.0
 10
96.702700
 20
-36.009000
 30
0.0
 10
96.616700
 20
-35.953900
 30
0.0
 10
96.537700
 20
-35.889600
 30
0.0
 10
96.465600
 20
-35.816100
 30
0.0
 10
96.400500
 20
-35.733600
 30
0.0
 10
96.342200
 20
-35.641900
 30
0.0
 10
96.291000
 20
-35.541000
 30
0.0
 10
96.246600
 20
-35.431000
 30
0.0
 10
96.208700
 20
-35.309800
 30
0.0
 10
96.176600
 20
-35.175200
 30
0.0
 10
96.150300
 20
-35.027200
 30
0.0
 10
96.129900
 20
-34.866000
 30
0.0
 10
96.115300
 20
-34.691300
 30
0.0
 10
96.106600
 20
-34.503300
 30
0.0
 10
96.103700
 20
-34.302000
 30
0.0
 10
96.103700
 20
-29.640000
 30
0.0
 10
94.876600
 20
-29.640000
 30
0.0
 10
94.876600
 20
-34.539000
 30
0.0
 10
94.888100
 20
-34.919000
 30
0.0
 10
94.922400
 20
-35.267000
 30
0.0
 10
94.979700
 20
-35.583000
 30
0.0
 10
95.059800
 20
-35.867000
 30
0.0
 10
95.162900
 20
-36.119000
 30
0.0
 10
95.288800
 20
-36.339000
 30
0.0
 10
95.437700
 20
-36.527000
 30
0.0
 10
95.611500
 20
-36.686500
 30
0.0
 10
95.811800
 20
-36.821400
 30
0.0
 10
96.038600
 20
-36.931800
 30
0.0
 10
96.291900
 20
-37.017600
 30
0.0
 10
96.571600
 20
-37.078900
 30
0.0
 10
96.877900
 20
-37.115700
 30
0.0
 10
97.210600
 20
-37.128000
 30
0.0
 10
97.440300
 20
-37.121600
 30
0.0
  0
LWPOLYLINE
  5
13e
100
AcDbEntity
  8
0
 62
7
100
AcDbPolyline
 90
51
 70
0
 10
102.809000
 20
-44.620800
 30
0.0
 10
103.010000
 20
-44.569200
 30
0.0
 10
103.203000
 20
-44.493000
 30
0.0
 10
103.384000
 20
-44.393100
 30
0.0
 10
103.552000
 20
-44.271300
 30
0.0
 10
103.703000
 20
-44.129500
 30
0.0
 10
103.835000
 20
-43.969800
 30
0.0
 10
103.946000
 20
-43.794900
 30
0.0
 10
104.034000
 20
-43.607400
 30
0.0
 10
104.098000
 20
-43.410300
 30
0.0
 10
104.137000
 20
-43.206800
 30
0.0
 10
104.150000
 20
-43.000000
 30
0.0
 10
104.137000
 20
-42.793200
 30
0.0
 10
104.098000
 20
-42.589700
 30
0.0
 10
104.034000
 20
-42.392600
 30
0.0
 10
103.946000
 20
-42.205100
 30
0.0
 10
103.835000
 20
-42.030200
 30
0.0
 10
103.703000
 20
-41.870500
 30
0.0
 10
103.552000
 20
-41.728700
 30
0.0
 10
103.384000
 20
-41.606900
 30
0.0
 10
103.203000
 20
-41.507000
 30
0.0
 10
103.010000
 20
-41.430800
 30
0.0
 10
102.809000
 20
-41.379200
 30
0.0
 10
102.604000
 20
-41.353200
 30
0.0
 10
102.396000
 20
-41.353200
 30
0.0
 10
102.191000
 20
-41.379200
 30
0.0
 10
101.990000
 20
-41.430800
 30
0.0
 10
101.797000
 20
-41.507000
 30
0.0
 10
101.616000
 20
-41.606900
 30
0.0
 10
101.448000
 20
-41.728700
 30
0.0
 10
101.297000
 20
-41.870500
 30
0.0
 10
101.165000
 20
-42.030200
 30
0.0
 10
101.054000
 20
-42.205100
 30
0.0
 10
100.966000
 20
-42.392600
 30
0.0
 10
100.902000
 20
-42.589700
 30
0.0
 10
100.863000
 20
-42.793200
 30
0.0
 10
100.850000
 20
-43.000000
 30
0.0
 10
100.863000
 20
-43.206800
 30
0.0
 10
100.902000
 20
-43.410300
 30
0.0
 10
100.966000
 20
-43.607400
 30
0.0
 10
101.054000
 20
-43.794900
 30
0.0
 10
101.165000
 20
-43.969800
 30
0.0
 10
101.297000
 20
-44.129500
 30
0.0
 10
101.448000
 20
-44.271300
 30
0.0
 10
101.616000
 20
-44.393100
 30
0.0
 10
101.797000
 20
-44.493000
 30
0.0
 10
101.990000
 20
-44.569200
 30
0.0
 10
102.191000
 20
-44.620800
 30
0.0
 10
102.396000
 20
-44.646700
 30
0.0
 10
102.604000
 20
-44.646700
 30
0.0
 10
102.809000
 20
-44.620800
 30
0.0
  0
LWPOLYLINE
  5
13f
100
AcDbEntity
  8
0
 62
7
100
AcDbPolyline
 90
51
 70
0
 10
127.809000
 20
-44.620800
 30
0.0
 10
128.010000
 20
-44.569200
 30
0.0
 10
128.203000
 20
-44.493000
 30
0.0
 10
128.384000
 20
-44.393100
 30
0.0
 10
128.552000
 20
-44.271300
 30
0.0
 10
128.703000
 20
-44.129500
 30
0.0
 10
128.835000
 20
-43.969800
 30
0.0
 10
128.946000
 20
-43.794900
 30
0.0
 10
129.034000
 20
-43.607400
 30
0.0
 10
129.098000
 20
-43.410300
 30
0.0
 10
129.137000
 20
-43.206800
 30
0.0
 10
129.150000
 20
-43.000000
 30
0.0
 10
129.137000
 20
-42.793200
 30
0.0
 10
129.098000
 20
-42.589700
 30
0.0
 10
129.034000
 20
-42.392600
 30
0.0
 10
128.946000
 20
-42.205100
 30
0.0
 10
128.835000
 20
-42.030200
 30
0.0
 10
128.703000
 20
-41.870500
 30
0.0
 10
128.552000
 20
-41.728700
 30
0.0
 10
128.384000
 20
-41.606900
 30
0.0
 10
128.203000
 20
-41.507000
 30
0.0
 10
128.010000
 20
-41.430800
 30
0.0
 10
127.809000
 20
-41.379200
 30
0.0
 10
127.604000
 20
-41.353200
 30
0.0
 10
127.396000
 20
-41.353200
 30
0.0
 10
127.191000
 20
-41.379200
 30
0.0
 10
126.990000
 20
-41.430800
 30
0.0
 10
126.797000
 20
-41.507000
 30
0.0
 10
126.616000
 20
-41.606900
 30
0.0
 10
126.448000
 20
-41.728700
 30
0.0
 10
126.297000
 20
-41.870500
 30
0.0
 10
126.165000
 20
-42.030200
 30
0.0
 10
126.054000
 20
-42.205100
 30
0.0
 10
125.966000
 20
-42.392600
 30
0.0
 10
125.902000
 20
-42.589700
 30
0.0
 10
125.863000
 20
-42.793200
 30
0.0
 10
125.850000
 20
-43.000000
 30
0.0
 10
125.863000
 20
-43.206800
 30
0.0
 10
125.902000
 20
-43.410300
 30
0.0
 10
125.966000
 20
-43.607400
 30
0.0
 10
126.054000
 20
-43.794900
 30
0.0
 10
126.165000
 20
-43.969800
 30
0.0
 10
126.297000
 20
-44.129500
 30
0.0
 10
126.448000
 20
-44.271300
 30
0.0
 10
126.616000
 20
-44.393100
 30
0.0
 10
126.797000
 20
-44.493000
 30
0.0
 10
126.990000
 20
-44.569200
 30
0.0
 10
127.191000
 20
-44.620800
 30
0.0
 10
127.396000
 20
-44.646700
 30
0.0
 10
127.604000
 20
-44.646700
 30
0.0
 10
127.809000
 20
-44.620800
 30
0.0
  0
LWPOLYLINE
  5
140
100
AcDbEntity
  8
0
 62
7
100
AcDbPolyline
 90
51
 70
0
 10
57.456800
 20
-56.637000
 30
0.0
 10
57.660300
 20
-56.598200
 30
0.0
 10
57.857400
 20
-56.534100
 30
0.0
 10
58.044900
 20
-56.445900
 30
0.0
 10
58.219800
 20
-56.334900
 30
0.0
 10
58.379500
 20
-56.202800
 30
0.0
 10
58.521300
 20
-56.051800
 30
0.0
 10
58.643100
 20
-55.884100
 30
0.0
 10
58.743000
 20
-55.702500
 30
0.0
 10
58.819200
 20
-55.509900
 30
0.0
 10
58.870800
 20
-55.309200
 30
0.0
 10
58.896700
 20
-55.103600
 30
0.0
 10
58.896700
 20
-54.896400
 30
0.0
 10
58.870800
 20
-54.690800
 30
0.0
 10
58.819200
 20
-54.490100
 30
0.0
 10
58.743000
 20
-54.297500
 30
0.0
 10
58.643100
 20
-54.115900
 30
0.0
 10
58.521300
 20
-53.948300
 30
0.0
 10
58.379500
 20
-53.797200
 30
0.0
 10
58.219800
 20
-53.665100
 30
0.0
 10
58.044900
 20
-53.554100
 30
0.0
 10
57.857400
 20
-53.465900
 30
0.0
 10
57.660300
 20
-53.401800
 30
0.0
 10
57.456800
 20
-53.363000
 30
0.0
 10
57.250000
 20
-53.350000
 30
0.0
 10
57.043200
 20
-53.363000
 30
0.0
 10
56.839700
 20
-53.401800
 30
0.0
 10
56.642600
 20
-53.465900
 30
0.0
 10
56.455100
 20
-53.554100
 30
0.0
 10
56.280200
 20
-53.665100
 30
0.0
 10
56.120500
 20
-53.797200
 30
0.0
 10
55.978700
 20
-53.948300
 30
0.0
 10
55.856900
 20
-54.115900
 30
0.0
 10
55.757000
 20
-54.297500
 30
0.0
 10
55.680800
 20
-54.490100
 30
0.0
 10
55.629200
 20
-54.690800
 30
0.0
 10
55.603300
 20
-54.896400
 30
0.0
 10
55.603300
 20
-55.103600
 30
0.0
 10
55.629200
 20
-55.309200
 30
0.0
 10
55.680800
 20
-55.509900
 30
0.0
 10
55.757000
 20
-55.702500
 30
0.0
 10
55.856900
 20
-55.884100
 30
0.0
 10
55.978700
 20
-56.051800
 30
0.0
 10
56.120500
 20
-56.202800
 30
0.0
 10
56.280200
 20
-56.334900
 30
0.0
 10
56.455100
 20
-56.445900
 30
0.0
 10
56.642600
 20
-56.534100
 30
0.0
 10
56.839700
 20
-56.598200
 30
0.0
 10
57.043200
 20
-56.637000
 30
0.0
 10
57.250000
 20
-56.650000
 30
0.0
 10
57.456800
 20
-56.637000
 30
0.0
  0
LWPOLYLINE
  5
141
100
AcDbEntity
  8
0
 62
7
100
AcDbPolyline
 90
51
 70
0
 10
94.956800
 20
-61.137000
 30
0.0
 10
95.160300
 20
-61.098200
 30
0.0
 10
95.357400
 20
-61.034100
 30
0.0
 10
95.544900
 20
-60.945900
 30
0.0
 10
95.719800
 20
-60.834900
 30
0.0
 10
95.879500
 20
-60.702800
 30
0.0
 10
96.021300
 20
-60.551800
 30
0.0
 10
96.143100
 20
-60.384100
 30
0.0
 10
96.243000
 20
-60.202500
 30
0.0
 10
96.319200
 20
-60.009900
 30
0.0
 10
96.370800
 20
-59.809200
 30
0.0
 10
96.396700
 20
-59.603600
 30
0.0
 10
96.396700
 20
-59.396400
 30
0.0
 10
96.370800
 20
-59.190800
 30
0.0
 10
96.319200
 20
-58.990100
 30
0.0
 10
96.243000
 20
-58.797500
 30
0.0
 10
96.143100
 20
-58.615900
 30
0.0
 10
96.021300
 20
-58.448300
 30
0.0
 10
95.879500
 20
-58.297200
 30
0.0
 10
95.719800
 20
-58.165100
 30
0.0
 10
95.544900
 20
-58.054100
 30
0.0
 10
95.357400
 20
-57.965900
 30
0.0
 10
95.160300
 20
-57.901800
 30
0.0
 10
94.956800
 20
-57.863000
 30
0.0
 10
94.750000
 20
-57.850000
 30
0.0
 10
94.543200
 20
-57.863000
 30
0.0
 10
94.339700
 20
-57.901800
 30
0.0
 10
94.142600
 20
-57.965900
 30
0.0
 10
93.955100
 20
-58.054100
 30
0.0
 10
93.780200
 20
-58.165100
 30
0.0
 10
93.620500
 20
-58.297200
 30
0.0
 10
93.478700
 20
-58.448300
 30
0.0
 10
93.356900
 20
-58.615900
 30
0.0
 10
93.257000
 20
-58.797500
 30
0.0
 10
93.180800
 20
-58.990100
 30
0.0
 10
93.129200
 20
-59.190800
 30
0.0
 10
93.103300
 20
-59.396400
 30
0.0
 10
93.103300
 20
-59.603600
 30
0.0
 10
93.129200
 20
-59.809200
 30
0.0
 10
93.180800
 20
-60.009900
 30
0.0
 10
93.257000
 20
-60.202500
 30
0.0
 10
93.356900
 20
-60.384100
 30
0.0
 10
93.478700
 20
-60.551800
 30
0.0
 10
93.620500
 20
-60.702800
 30
0.0
 10
93.780200
 20
-60.834900
 30
0.0
 10
93.955100
 20
-60.945900
 30
0.0
 10
94.142600
 20
-61.034100
 30
0.0
 10
94.339700
 20
-61.098200
 30
0.0
 10
94.543200
 20
-61.137000
 30
0.0
 10
94.750000
 20
-61.150000
 30
0.0
 10
94.956800
 20
-61.137000
 30
0.0
  0
LWPOLYLINE
  5
142
100
AcDbEntity
  8
0
 62
7
100
AcDbPolyline
 90
51
 70
0
 10
94.956800
 20
-86.137000
 30
0.0
 10
95.160300
 20
-86.098200
 30
0.0
 10
95.357400
 20
-86.034100
 30
0.0
 10
95.544900
 20
-85.945900
 30
0.0
 10
95.719800
 20
-85.834900
 30
0.0
 10
95.879500
 20
-85.702800
 30
0.0
 10
96.021300
 20
-85.551700
 30
0.0
 10
96.143100
 20
-85.384100
 30
0.0
 10
96.243000
 20
-85.202500
 30
0.0
 10
96.319200
 20
-85.009900
 30
0.0
 10
96.370800
 20
-84.809200
 30
0.0
 10
96.396700
 20
-84.603600
 30
0.0
 10
96.396700
 20
-84.396400
 30
0.0
 10
96.370800
 20
-84.190800
 30
0.0
 10
96.319200
 20
-83.990100
 30
0.0
 10
96.243000
 20
-83.797500
 30
0.0
 10
96.143100
 20
-83.615900
 30
0.0
 10
96.021300
 20
-83.448200
 30
0.0
 10
95.879500
 20
-83.297200
 30
0.0
 10
95.719800
 20
-83.165100
 30
0.0
 10
95.544900
 20
-83.054100
 30
0.0
 10
95.357400
 20
-82.965900
 30
0.0
 10
95.160300
 20
-82.901800
 30
0.0
 10
94.956800
 20
-82.863000
 30
0.0
 10
94.750000
 20
-82.850000
 30
0.0
 10
94.543200
 20
-82.863000
 30
0.0
 10
94.339700
 20
-82.901800
 30
0.0
 10
94.142600
 20
-82.965900
 30
0.0
 10
93.955100
 20
-83.054100
 30
0.0
 10
93.780200
 20
-83.165100
 30
0.0
 10
93.620500
 20
-83.297200
 30
0.0
 10
93.478700
 20
-83.448200
 30
0.0
 10
93.356900
 20
-83.615900
 30
0.0
 10
93.257000
 20
-83.797500
 30
0.0
 10
93.180800
 20
-83.990100
 30
0.0
 10
93.129200
 20
-84.190800
 30
0.0
 10
93.103300
 20
-84.396400
 30
0.0
 10
93.103300
 20
-84.603600
 30
0.0
 10
93.129200
 20
-84.809200
 30
0.0
 10
93.180800
 20
-85.009900
 30
0.0
 10
93.257000
 20
-85.202500
 30
0.0
 10
93.356900
 20
-85.384100
 30
0.0
 10
93.478700
 20
-85.551700
 30
0.0
 10
93.620500
 20
-85.702800
 30
0.0
 10
93.780200
 20
-85.834900
 30
0.0
 10
93.955100
 20
-85.945900
 30
0.0
 10
94.142600
 20
-86.034100
 30
0.0
 10
94.339700
 20
-86.098200
 30
0.0
 10
94.543200
 20
-86.137000
 30
0.0
 10
94.750000
 20
-86.150000
 30
0.0
 10
94.956800
 20
-86.137000
 30
0.0
  0
LWPOLYLINE
  5
143
100
AcDbEntity
  8
0
 62
7
100
AcDbPolyline
 90
51
 70
0
 10
-128.191000
 20
-86.620800
 30
0.0
 10
-127.990000
 20
-86.569200
 30
0.0
 10
-127.797000
 20
-86.493000
 30
0.0
 10
-127.616000
 20
-86.393100
 30
0.0
 10
-127.448000
 20
-86.271300
 30
0.0
 10
-127.297000
 20
-86.129500
 30
0.0
 10
-127.165000
 20
-85.969800
 30
0.0
 10
-127.054000
 20
-85.794900
 30
0.0
 10
-126.966000
 20
-85.607400
 30
0.0
 10
-126.902000
 20
-85.410300
 30
0.0
 10
-126.863000
 20
-85.206800
 30
0.0
 10
-126.850000
 20
-85.000000
 30
0.0
 10
-126.863000
 20
-84.793200
 30
0.0
 10
-126.902000
 20
-84.589700
 30
0.0
 10
-126.966000
 20
-84.392600
 30
0.0
 10
-127.054000
 20
-84.205100
 30
0.0
 10
-127.165000
 20
-84.030200
 30
0.0
 10
-127.297000
 20
-83.870500
 30
0.0
 10
-127.448000
 20
-83.728700
 30
0.0
 10
-127.616000
 20
-83.606900
 30
0.0
 10
-127.797000
 20
-83.507000
 30
0.0
 10
-127.990000
 20
-83.430800
 30
0.0
 10
-128.191000
 20
-83.379200
 30
0.0
 10
-128.396000
 20
-83.353200
 30
0.0
 10
-128.604000
 20
-83.353200
 30
0.0
 10
-128.809000
 20
-83.379200
 30
0.0
 10
-129.010000
 20
-83.430800
 30
0.0
 10
-129.203000
 20
-83.507000
 30
0.0
 10
-129.384000
 20
-83.606900
 30
0.0
 10
-129.552000
 20
-83.728700
 30
0.0
 10
-129.703000
 20
-83.870500
 30
0.0
 10
-129.835000
 20
-84.030200
 30
0.0
 10
-129.946000
 20
-84.205100
 30
0.0
 10
-130.034000
 20
-84.392600
 30
0.0
 10
-130.098000
 20
-84.589700
 30
0.0
 10
-130.137000
 20
-84.793200
 30
0.0
 10
-130.150000
 20
-85.000000
 30
0.0
 10
-130.137000
 20
-85.206800
 30
0.0
 10
-130.098000
 20
-85.410300
 30
0.0
 10
-130.034000
 20
-85.607400
 30
0.0
 10
-129.946000
 20
-85.794900
 30
0.0
 10
-129.835000
 20
-85.969800
 30
0.0
 10
-129.703000
 20
-86.129500
 30
0.0
 10
-129.552000
 20
-86.271300
 30
0.0
 10
-129.384000
 20
-86.393100
 30
0.0
 10
-129.203000
 20
-86.493000
 30
0.0
 10
-129.010000
 20
-86.569200
 30
0.0
 10
-128.809000
 20
-86.620800
 30
0.0
 10
-128.604000
 20
-86.646700
 30
0.0
 10
-128.396000
 20
-86.646700
 30
0.0
 10
-128.191000
 20
-86.620800
 30
0.0
  0
LWPOLYLINE
  5
144
100
AcDbEntity
  8
0
 62
7
100
AcDbPolyline
 90
51
 70
0
 10
-14.690800
 20
-86.620800
 30
0.0
 10
-14.490100
 20
-86.569200
 30
0.0
 10
-14.297500
 20
-86.493000
 30
0.0
 10
-14.115900
 20
-86.393100
 30
0.0
 10
-13.948300
 20
-86.271300
 30
0.0
 10
-13.797200
 20
-86.129500
 30
0.0
 10
-13.665100
 20
-85.969800
 30
0.0
 10
-13.554100
 20
-85.794900
 30
0.0
 10
-13.465900
 20
-85.607400
 30
0.0
 10
-13.401800
 20
-85.410300
 30
0.0
 10
-13.363000
 20
-85.206800
 30
0.0
 10
-13.350000
 20
-85.000000
 30
0.0
 10
-13.363000
 20
-84.793200
 30
0.0
 10
-13.401800
 20
-84.589700
 30
0.0
 10
-13.465900
 20
-84.392600
 30
0.0
 10
-13.554100
 20
-84.205100
 30
0.0
 10
-13.665100
 20
-84.030200
 30
0.0
 10
-13.797200
 20
-83.870500
 30
0.0
 10
-13.948300
 20
-83.728700
 30
0.0
 10
-14.115900
 20
-83.606900
 30
0.0
 10
-14.297500
 20
-83.507000
 30
0.0
 10
-14.490100
 20
-83.430800
 30
0.0
 10
-14.690800
 20
-83.379200
 30
0.0
 10
-14.896400
 20
-83.353200
 30
0.0
 10
-15.103600
 20
-83.353200
 30
0.0
 10
-15.309200
 20
-83.379200
 30
0.0
 10
-15.509900
 20
-83.430800
 30
0.0
 10
-15.702500
 20
-83.507000
 30
0.0
 10
-15.884100
 20
-83.606900
 30
0.0
 10
-16.051800
 20
-83.728700
 30
0.0
 10
-16.202800
 20
-83.870500
 30
0.0
 10
-16.334900
 20
-84.030200
 30
0.0
 10
-16.445900
 20
-84.205100
 30
0.0
 10
-16.534100
 20
-84.392600
 30
0.0
 10
-16.598200
 20
-84.589700
 30
0.0
 10
-16.637000
 20
-84.793200
 30
0.0
 10
-16.650000
 20
-85.000000
 30
0.0
 10
-16.637000
 20
-85.206800
 30
0.0
 10
-16.598200
 20
-85.410300
 30
0.0
 10
-16.534100
 20
-85.607400
 30
0.0
 10
-16.445900
 20
-85.794900
 30
0.0
 10
-16.334900
 20
-85.969800
 30
0.0
 10
-16.202800
 20
-86.129500
 30
0.0
 10
-16.051800
 20
-86.271300
 30
0.0
 10
-15.884100
 20
-86.393100
 30
0.0
 10
-15.702500
 20
-86.493000
 30
0.0
 10
-15.509900
 20
-86.569200
 30
0.0
 10
-15.309200
 20
-86.620800
 30
0.0
 10
-15.103600
 20
-86.646700
 30
0.0
 10
-14.896400
 20
-86.646700
 30
0.0
 10
-14.690800
 20
-86.620800
 30
0.0
  0
LWPOLYLINE
  5
145
100
AcDbEntity
  8
0
 62
7
100
AcDbPolyline
 90
51
 70
0
 10
57.456800
 20
-90.637000
 30
0.0
 10
57.660300
 20
-90.598200
 30
0.0
 10
57.857400
 20
-90.534100
 30
0.0
 10
58.044900
 20
-90.445900
 30
0.0
 10
58.219800
 20
-90.334900
 30
0.0
 10
58.379500
 20
-90.202800
 30
0.0
 10
58.521300
 20
-90.051700
 30
0.0
 10
58.643100
 20
-89.884100
 30
0.0
 10
58.743000
 20
-89.702500
 30
0.0
 10
58.819200
 20
-89.509900
 30
0.0
 10
58.870800
 20
-89.309200
 30
0.0
 10
58.896700
 20
-89.103600
 30
0.0
 10
58.896700
 20
-88.896400
 30
0.0
 10
58.870800
 20
-88.690800
 30
0.0
 10
58.819200
 20
-88.490100
 30
0.0
 10
58.743000
 20
-88.297500
 30
0.0
 10
58.643100
 20
-88.115900
 30
0.0
 10
58.521300
 20
-87.948200
 30
0.0
 10
58.379500
 20
-87.797200
 30
0.0
 10
58.219800
 20
-87.665100
 30
0.0
 10
58.044900
 20
-87.554100
 30
0.0
 10
57.857400
 20
-87.465900
 30
0.0
 10
57.660300
 20
-87.401800
 30
0.0
 10
57.456800
 20
-87.363000
 30
0.0
 10
57.250000
 20
-87.350000
 30
0.0
 10
57.043200
 20
-87.363000
 30
0.0
 10
56.839700
 20
-87.401800
 30
0.0
 10
56.642600
 20
-87.465900
 30
0.0
 10
56.455100
 20
-87.554100
 30
0.0
 10
56.280200
 20
-87.665100
 30
0.0
 10
56.120500
 20
-87.797200
 30
0.0
 10
55.978700
 20
-87.948200
 30
0.0
 10
55.856900
 20
-88.115900
 30
0.0
 10
55.757000
 20
-88.297500
 30
0.0
 10
55.680800
 20
-88.490100
 30
0.0
 10
55.629200
 20
-88.690800
 30
0.0
 10
55.603300
 20
-88.896400
 30
0.0
 10
55.603300
 20
-89.103600
 30
0.0
 10
55.629200
 20
-89.309200
 30
0.0
 10
55.680800
 20
-89.509900
 30
0.0
 10
55.757000
 20
-89.702500
 30
0.0
 10
55.856900
 20
-89.884100
 30
0.0
 10
55.978700
 20
-90.051700
 30
0.0
 10
56.120500
 20
-90.202800
 30
0.0
 10
56.280200
 20
-90.334900
 30
0.0
 10
56.455100
 20
-90.445900
 30
0.0
 10
56.642600
 20
-90.534100
 30
0.0
 10
56.839700
 20
-90.598200
 30
0.0
 10
57.043200
 20
-90.637000
 30
0.0
 10
57.250000
 20
-90.650000
 30
0.0
 10
57.456800
 20
-90.637000
 30
0.0
  0
LWPOLYLINE
  5
146
100
AcDbEntity
  8
0
 62
7
100
AcDbPolyline
 90
51
 70
0
 10
-136.191000
 20
-94.620800
 30
0.0
 10
-135.990000
 20
-94.569200
 30
0.0
 10
-135.797000
 20
-94.493000
 30
0.0
 10
-135.616000
 20
-94.393100
 30
0.0
 10
-135.448000
 20
-94.271300
 30
0.0
 10
-135.297000
 20
-94.129500
 30
0.0
 10
-135.165000
 20
-93.969800
 30
0.0
 10
-135.054000
 20
-93.794900
 30
0.0
 10
-134.966000
 20
-93.607400
 30
0.0
 10
-134.902000
 20
-93.410300
 30
0.0
 10
-134.863000
 20
-93.206800
 30
0.0
 10
-134.850000
 20
-93.000000
 30
0.0
 10
-134.863000
 20
-92.793200
 30
0.0
 10
-134.902000
 20
-92.589700
 30
0.0
 10
-134.966000
 20
-92.392600
 30
0.0
 10
-135.054000
 20
-92.205100
 30
0.0
 10
-135.165000
 20
-92.030200
 30
0.0
 10
-135.297000
 20
-91.870500
 30
0.0
 10
-135.448000
 20
-91.728700
 30
0.0
 10
-135.616000
 20
-91.606900
 30
0.0
 10
-135.797000
 20
-91.507000
 30
0.0
 10
-135.990000
 20
-91.430800
 30
0.0
 10
-136.191000
 20
-91.379200
 30
0.0
 10
-136.396000
 20
-91.353200
 30
0.0
 10
-136.604000
 20
-91.353200
 30
0.0
 10
-136.809000
 20
-91.379200
 30
0.0
 10
-137.010000
 20
-91.430800
 30
0.0
 10
-137.203000
 20
-91.507000
 30
0.0
 10
-137.384000
 20
-91.606900
 30
0.0
 10
-137.552000
 20
-91.728700
 30
0.0
 10
-137.703000
 20
-91.870500
 30
0.0
 10
-137.835000
 20
-92.030200
 30
0.0
 10
-137.946000
 20
-92.205100
 30
0.0
 10
-138.034000
 20
-92.392600
 30
0.0
 10
-138.098000
 20
-92.589700
 30
0.0
 10
-138.137000
 20
-92.793200
 30
0.0
 10
-138.150000
 20
-93.000000
 30
0.0
 10
-138.137000
 20
-93.206800
 30
0.0
 10
-138.098000
 20
-93.410300
 30
0.0
 10
-138.034000
 20
-93.607400
 30
0.0
 10
-137.946000
 20
-93.794900
 30
0.0
 10
-137.835000
 20
-93.969800
 30
0.0
 10
-137.703000
 20
-94.129500
 30
0.0
 10
-137.552000
 20
-94.271300
 30
0.0
 10
-137.384000
 20
-94.393100
 30
0.0
 10
-137.203000
 20
-94.493000
 30
0.0
 10
-137.010000
 20
-94.569200
 30
0.0
 10
-136.809000
 20
-94.620800
 30
0.0
 10
-136.604000
 20
-94.646700
 30
0.0
 10
-136.396000
 20
-94.646700
 30
0.0
 10
-136.191000
 20
-94.620800
 30
0.0
  0
LWPOLYLINE
  5
147
100
AcDbEntity
  8
0
 62
7
100
AcDbPolyline
 90
51
 70
0
 10
136.809000
 20
-94.620800
 30
0.0
 10
137.010000
 20
-94.569200
 30
0.0
 10
137.203000
 20
-94.493000
 30
0.0
 10
137.384000
 20
-94.393100
 30
0.0
 10
137.552000
 20
-94.271300
 30
0.0
 10
137.703000
 20
-94.129500
 30
0.0
 10
137.835000
 20
-93.969800
 30
0.0
 10
137.946000
 20
-93.794900
 30
0.0
 10
138.034000
 20
-93.607400
 30
0.0
 10
138.098000
 20
-93.410300
 30
0.0
 10
138.137000
 20
-93.206800
 30
0.0
 10
138.150000
 20
-93.000000
 30
0.0
 10
138.137000
 20
-92.793200
 30
0.0
 10
138.098000
 20
-92.589700
 30
0.0
 10
138.034000
 20
-92.392600
 30
0.0
 10
137.946000
 20
-92.205100
 30
0.0
 10
137.835000
 20
-92.030200
 30
0.0
 10
137.703000
 20
-91.870500
 30
0.0
 10
137.552000
 20
-91.728700
 30
0.0
 10
137.384000
 20
-91.606900
 30
0.0
 10
137.203000
 20
-91.507000
 30
0.0
 10
137.010000
 20
-91.430800
 30
0.0
 10
136.809000
 20
-91.379200
 30
0.0
 10
136.604000
 20
-91.353200
 30
0.0
 10
136.396000
 20
-91.353200
 30
0.0
 10
136.191000
 20
-91.379200
 30
0.0
 10
135.990000
 20
-91.430800
 30
0.0
 10
135.797000
 20
-91.507000
 30
0.0
 10
135.616000
 20
-91.606900
 30
0.0
 10
135.448000
 20
-91.728700
 30
0.0
 10
135.297000
 20
-91.870500
 30
0.0
 10
135.165000
 20
-92.030200
 30
0.0
 10
135.054000
 20
-92.205100
 30
0.0
 10
134.966000
 20
-92.392600
 30
0.0
 10
134.902000
 20
-92.589700
 30
0.0
 10
134.863000
 20
-92.793200
 30
0.0
 10
134.850000
 20
-93.000000
 30
0.0
 10
134.863000
 20
-93.206800
 30
0.0
 10
134.902000
 20
-93.410300
 30
0.0
 10
134.966000
 20
-93.607400
 30
0.0
 10
135.054000
 20
-93.794900
 30
0.0
 10
135.165000
 20
-93.969800
 30
0.0
 10
135.297000
 20
-94.129500
 30
0.0
 10
135.448000
 20
-94.271300
 30
0.0
 10
135.616000
 20
-94.393100
 30
0.0
 10
135.797000
 20
-94.493000
 30
0.0
 10
135.990000
 20
-94.569200
 30
0.0
 10
136.191000
 20
-94.620800
 30
0.0
 10
136.396000
 20
-94.646700
 30
0.0
 10
136.604000
 20
-94.646700
 30
0.0
 10
136.809000
 20
-94.620800
 30
0.0
  0
LWPOLYLINE
  5
148
100
AcDbEntity
  8
0
 62
7
100
AcDbPolyline
 90
51
 70
0
 10
0.309174
 20
-94.620800
 30
0.0
 10
0.509872
 20
-94.569200
 30
0.0
 10
0.702530
 20
-94.493000
 30
0.0
 10
0.884109
 20
-94.393100
 30
0.0
 10
1.051740
 20
-94.271300
 30
0.0
 10
1.202790
 20
-94.129500
 30
0.0
 10
1.334870
 20
-93.969800
 30
0.0
 10
1.445890
 20
-93.794900
 30
0.0
 10
1.534120
 20
-93.607400
 30
0.0
 10
1.598160
 20
-93.410300
 30
0.0
 10
1.636980
 20
-93.206800
 30
0.0
 10
1.649990
 20
-93.000000
 30
0.0
 10
1.636980
 20
-92.793200
 30
0.0
 10
1.598160
 20
-92.589700
 30
0.0
 10
1.534120
 20
-92.392600
 30
0.0
 10
1.445890
 20
-92.205100
 30
0.0
 10
1.334870
 20
-92.030200
 30
0.0
 10
1.202790
 20
-91.870500
 30
0.0
 10
1.051740
 20
-91.728700
 30
0.0
 10
0.884109
 20
-91.606900
 30
0.0
 10
0.702530
 20
-91.507000
 30
0.0
 10
0.509872
 20
-91.430800
 30
0.0
 10
0.309174
 20
-91.379200
 30
0.0
 10
0.103592
 20
-91.353200
 30
0.0
 10
-0.103592
 20
-91.353200
 30
0.0
 10
-0.309174
 20
-91.379200
 30
0.0
 10
-0.509872
 20
-91.430800
 30
0.0
 10
-0.702530
 20
-91.507000
 30
0.0
 10
-0.884109
 20
-91.606900
 30
0.0
 10
-1.051740
 20
-91.728700
 30
0.0
 10
-1.202790
 20
-91.870500
 30
0.0
 10
-1.334870
 20
-92.030200
 30
0.0
 10
-1.445890
 20
-92.205100
 30
0.0
 10
-1.534120
 20
-92.392600
 30
0.0
 10
-1.598160
 20
-92.589700
 30
0.0
 10
-1.636980
 20
-92.793200
 30
0.0
 10
-1.649990
 20
-93.000000
 30
0.0
 10
-1.636980
 20
-93.206800
 30
0.0
 10
-1.598160
 20
-93.410300
 30
0.0
 10
-1.534120
 20
-93.607400
 30
0.0
 10
-1.445890
 20
-93.794900
 30
0.0
 10
-1.334870
 20
-93.969800
 30
0.0
 10
-1.202790
 20
-94.129500
 30
0.0
 10
-1.051740
 20
-94.271300
 30
0.0
 10
-0.884109
 20
-94.393100
 30
0.0
 10
-0.702530
 20
-94.493000
 30
0.0
 10
-0.509872
 20
-94.569200
 30
0.0
 10
-0.309174
 20
-94.620800
 30
0.0
 10
-0.103592
 20
-94.646700
 30
0.0
 10
0.103592
 20
-94.646700
 30
0.0
 10
0.309174
 20
-94.620800
 30
0.0
  0
ENDSEC
  0
SECTION
  2
OBJECTS
  0
DICTIONARY
  5
C
330
0
100
AcDbDictionary
  3
ACAD_GROUP
350
D
  3
ACAD_MLINESTYLE
350
17
  0
DICTIONARY
  5
D
330
C
100
AcDbDictionary
  0
DICTIONARY
  5
1A
330
C
100
AcDbDictionary
  0
DICTIONARY
  5
17
330
C
100
AcDbDictionary
  3
STANDARD
350
18
  0
DICTIONARY
  5
19
330
C
100
AcDbDictionary
  0
ENDSEC
  0
EOF
