  0
SECTION
  2
HEADER
  9
$ACADVER
  1
AC1014
  9
$HANDSEED
  5
FFFF
  9
$MEASUREMENT
 70
     1
  0
ENDSEC
  0
SECTION
  2
TABLES
  0
TABLE
  2
VPORT
  5
8
330
0
100
AcDbSymbolTable
 70
     4
  0
VPORT
  5
2E
330
8
100
AcDbSymbolTableRecord
100
AcDbViewportTableRecord
  2
*ACTIVE
 70
     0
 10
0.0
 20
0.0
 11
1.0
 21
1.0
 12
210.0
 22
148.5
 13
0.0
 23
0.0
 14
10.0
 24
10.0
 15
10.0
 25
10.0
 16
0.0
 26
0.0
 36
1.0
 17
0.0
 27
0.0
 37
0.0
 40
341.0
 41
1.24
 42
50.0
 43
0.0
 44
0.0
 50
0.0
 51
0.0
 71
     0
 72
   100
 73
     1
 74
     3
 75
     0
 76
     0
 77
     0
 78
     0
  0
ENDTAB
  0
TABLE
  2
LTYPE
  5
5
330
0
100
AcDbSymbolTable
 70
     1
  0
LTYPE
  5
14
330
5
100
AcDbSymbolTableRecord
100
AcDbLinetypeTableRecord
  2
BYBLOCK
 70
     0
  3

 72
    65
 73
     0
 40
0.0
  0
LTYPE
  5
15
330
5
100
AcDbSymbolTableRecord
100
AcDbLinetypeTableRecord
  2
BYLAYER
 70
     0
  3

 72
    65
 73
     0
 40
0.0
  0
LTYPE
  5
16
330
5
100
AcDbSymbolTableRecord
100
AcDbLinetypeTableRecord
  2
CONTINUOUS
 70
     0
  3
Solid line
 72
    65
 73
     0
 40
0.0
  0
ENDTAB
  0
TABLE
  2
LAYER
  5
2
100
AcDbSymbolTable
 70
1
  0
LAYER
  5
50
100
AcDbSymbolTableRecord
100
AcDbLayerTableRecord
  2
0
 70
0
  6
CONTINUOUS
  0
ENDTAB
  0
TABLE
  2
STYLE
  5
3
330
0
100
AcDbSymbolTable
 70
     1
  0
STYLE
  5
11
330
3
100
AcDbSymbolTableRecord
100
AcDbTextStyleTableRecord
  2
STANDARD
 70
     0
 40
0.0
 41
1.0
 50
0.0
 71
     0
 42
2.5
  3
txt
  4

  0
ENDTAB
  0
TABLE
  2
VIEW
  5
6
330
0
100
AcDbSymbolTable
 70
     0
  0
ENDTAB
  0
TABLE
  2
UCS
  5
7
330
0
100
AcDbSymbolTable
 70
     0
  0
ENDTAB
  0
TABLE
  2
APPID
  5
9
330
0
100
AcDbSymbolTable
 70
     2
  0
APPID
  5
12
330
9
100
AcDbSymbolTableRecord
100
AcDbRegAppTableRecord
  2
ACAD
 70
     0
  0
ENDTAB
  0
TABLE
  2
DIMSTYLE
  5
A
330
0
100
AcDbSymbolTable
 70
     1
  0
DIMSTYLE
105
27
330
A
100
AcDbSymbolTableRecord
100
AcDbDimStyleTableRecord
  2
ISO-25
 70
     0
  3

  4

  5

  6

  7

 40
1.0
 41
2.5
 42
0.625
 43
3.75
 44
1.25
 45
0.0
 46
0.0
 47
0.0
 48
0.0
140
2.5
141
2.5
142
0.0
143
0.03937007874016
144
1.0
145
0.0
146
1.0
147
0.625
 71
     0
 72
     0
 73
     0
 74
     0
 75
     0
 76
     0
 77
     1
 78
     8
170
     0
171
     3
172
     1
173
     0
174
     0
175
     0
176
     0
177
     0
178
     0
270
     2
271
     2
272
     2
273
     2
274
     3
340
11
275
     0
280
     0
281
     0
282
     0
283
     0
284
     8
285
     0
286
     0
287
     3
288
     0
  0
ENDTAB
  0
TABLE
  2
BLOCK_RECORD
  5
1
330
0
100
AcDbSymbolTable
 70
     1
  0
BLOCK_RECORD
  5
1F
330
1
100
AcDbSymbolTableRecord
100
AcDbBlockTableRecord
  2
*MODEL_SPACE
  0
BLOCK_RECORD
  5
1B
330
1
100
AcDbSymbolTableRecord
100
AcDbBlockTableRecord
  2
*PAPER_SPACE
  0
ENDTAB
  0
ENDSEC
  0
SECTION
  2
BLOCKS
  0
BLOCK
  5
20
330
1F
100
AcDbEntity
  8
0
100
AcDbBlockBegin
  2
*MODEL_SPACE
 70
     0
 10
0.0
 20
0.0
 30
0.0
  3
*MODEL_SPACE
  1

  0
ENDBLK
  5
21
330
1F
100
AcDbEntity
  8
0
100
AcDbBlockEnd
  0
BLOCK
  5
1C
330
1B
100
AcDbEntity
 67
     1
  8
0
100
AcDbBlockBegin
  2
*PAPER_SPACE
  1

  0
ENDBLK
  5
1D
330
1B
100
AcDbEntity
 67
     1
  8
0
100
AcDbBlockEnd
  0
ENDSEC
  0
SECTION
  2
ENTITIES
  0
LWPOLYLINE
  5
100
100
AcDbEntity
  8
0
 62
7
100
AcDbPolyline
 90
53
 70
0
 10
10.233307
 20
6.026822
 30
0.0
 10
9.610307
 20
6.105505
 30
0.0
 10
9.002307
 20
6.261602
 30
0.0
 10
8.418308
 20
6.492799
 30
0.0
 10
7.868307
 20
6.795313
 30
0.0
 10
7.360307
 20
7.164318
 30
0.0
 10
6.902306
 20
7.594199
 30
0.0
 10
6.502307
 20
8.078013
 30
0.0
 10
6.165308
 20
8.608111
 30
0.0
 10
5.898306
 20
9.176309
 30
0.0
 10
5.704306
 20
9.773519
 30
0.0
 10
5.586306
 20
10.390203
 30
0.0
 10
5.547306
 20
11.016906
 30
0.0
 10
5.547306
 20
201.016907
 30
0.0
 10
5.586306
 20
201.643607
 30
0.0
 10
5.704306
 20
202.260307
 30
0.0
 10
5.898306
 20
202.857506
 30
0.0
 10
6.165308
 20
203.425707
 30
0.0
 10
6.502307
 20
203.955805
 30
0.0
 10
6.902306
 20
204.439607
 30
0.0
 10
7.360307
 20
204.869505
 30
0.0
 10
7.868307
 20
205.238505
 30
0.0
 10
8.418308
 20
205.541005
 30
0.0
 10
9.002307
 20
205.772207
 30
0.0
 10
9.610307
 20
205.928307
 30
0.0
 10
10.233307
 20
206.007008
 30
0.0
 10
287.861304
 20
206.007008
 30
0.0
 10
288.484310
 20
205.928307
 30
0.0
 10
289.092301
 20
205.772207
 30
0.0
 10
289.676304
 20
205.541005
 30
0.0
 10
290.226298
 20
205.238505
 30
0.0
 10
290.734298
 20
204.869505
 30
0.0
 10
291.192317
 20
204.439607
 30
0.0
 10
291.592310
 20
203.955805
 30
0.0
 10
291.929312
 20
203.425707
 30
0.0
 10
292.196294
 20
202.857506
 30
0.0
 10
292.390294
 20
202.260307
 30
0.0
 10
292.508319
 20
201.643607
 30
0.0
 10
292.547294
 20
201.016907
 30
0.0
 10
292.547294
 20
11.016906
 30
0.0
 10
292.508319
 20
10.390203
 30
0.0
 10
292.390294
 20
9.773519
 30
0.0
 10
292.196294
 20
9.176309
 30
0.0
 10
291.929312
 20
8.608111
 30
0.0
 10
291.592310
 20
8.078013
 30
0.0
 10
291.192317
 20
7.594199
 30
0.0
 10
290.734298
 20
7.164318
 30
0.0
 10
290.226298
 20
6.795313
 30
0.0
 10
289.676304
 20
6.492799
 30
0.0
 10
289.092301
 20
6.261602
 30
0.0
 10
288.484310
 20
6.105505
 30
0.0
 10
287.861304
 20
6.026822
 30
0.0
 10
10.233307
 20
6.026822
 30
0.0
  0
LWPOLYLINE
  5
101
100
AcDbEntity
  8
0
 62
7
100
AcDbPolyline
 90
51
 70
0
 10
149.356482
 20
197.396106
 30
0.0
 10
149.557178
 20
197.447707
 30
0.0
 10
149.749837
 20
197.523907
 30
0.0
 10
149.931416
 20
197.623805
 30
0.0
 10
150.099048
 20
197.745607
 30
0.0
 10
150.250096
 20
197.887407
 30
0.0
 10
150.382176
 20
198.047108
 30
0.0
 10
150.493197
 20
198.222006
 30
0.0
 10
150.581428
 20
198.409506
 30
0.0
 10
150.645467
 20
198.606608
 30
0.0
 10
150.684286
 20
198.810107
 30
0.0
 10
150.697297
 20
199.016905
 30
0.0
 10
150.684286
 20
199.223706
 30
0.0
 10
150.645467
 20
199.427205
 30
0.0
 10
150.581428
 20
199.624307
 30
0.0
 10
150.493197
 20
199.811807
 30
0.0
 10
150.382176
 20
199.986705
 30
0.0
 10
150.250096
 20
200.146406
 30
0.0
 10
150.099048
 20
200.288206
 30
0.0
 10
149.931416
 20
200.410008
 30
0.0
 10
149.749837
 20
200.509906
 30
0.0
 10
149.557178
 20
200.586106
 30
0.0
 10
149.356482
 20
200.637707
 30
0.0
 10
149.150900
 20
200.663615
 30
0.0
 10
148.943715
 20
200.663607
 30
0.0
 10
148.738133
 20
200.637699
 30
0.0
 10
148.537436
 20
200.586106
 30
0.0
 10
148.344777
 20
200.509906
 30
0.0
 10
148.163198
 20
200.410008
 30
0.0
 10
147.995567
 20
200.288206
 30
0.0
 10
147.844516
 20
200.146406
 30
0.0
 10
147.712436
 20
199.986705
 30
0.0
 10
147.601418
 20
199.811807
 30
0.0
 10
147.513187
 20
199.624307
 30
0.0
 10
147.449148
 20
199.427205
 30
0.0
 10
147.410328
 20
199.223706
 30
0.0
 10
147.397318
 20
199.016905
 30
0.0
 10
147.410328
 20
198.810107
 30
0.0
 10
147.449148
 20
198.606608
 30
0.0
 10
147.513187
 20
198.409506
 30
0.0
 10
147.601418
 20
198.222006
 30
0.0
 10
147.712436
 20
198.047108
 30
0.0
 10
147.844516
 20
197.887407
 30
0.0
 10
147.995567
 20
197.745607
 30
0.0
 10
148.163198
 20
197.623805
 30
0.0
 10
148.344777
 20
197.523907
 30
0.0
 10
148.537436
 20
197.447707
 30
0.0
 10
148.738133
 20
197.396106
 30
0.0
 10
148.943715
 20
197.370113
 30
0.0
 10
149.150900
 20
197.370107
 30
0.0
 10
149.356482
 20
197.396100
 30
0.0
  0
LWPOLYLINE
  5
102
100
AcDbEntity
  8
0
 62
7
100
AcDbPolyline
 90
51
 70
0
 10
285.856313
 20
197.396106
 30
0.0
 10
286.057312
 20
197.447707
 30
0.0
 10
286.250295
 20
197.523907
 30
0.0
 10
286.431313
 20
197.623805
 30
0.0
 10
286.599320
 20
197.745607
 30
0.0
 10
286.750308
 20
197.887407
 30
0.0
 10
286.882304
 20
198.047108
 30
0.0
 10
286.993302
 20
198.222006
 30
0.0
 10
287.081299
 20
198.409506
 30
0.0
 10
287.145307
 20
198.606608
 30
0.0
 10
287.184310
 20
198.810107
 30
0.0
 10
287.197292
 20
199.016905
 30
0.0
 10
287.184310
 20
199.223706
 30
0.0
 10
287.145307
 20
199.427205
 30
0.0
 10
287.081299
 20
199.624307
 30
0.0
 10
286.993302
 20
199.811807
 30
0.0
 10
286.882304
 20
199.986705
 30
0.0
 10
286.750308
 20
200.146406
 30
0.0
 10
286.599320
 20
200.288206
 30
0.0
 10
286.431313
 20
200.410008
 30
0.0
 10
286.250295
 20
200.509906
 30
0.0
 10
286.057312
 20
200.586106
 30
0.0
 10
285.856313
 20
200.637707
 30
0.0
 10
285.651307
 20
200.663615
 30
0.0
 10
285.443309
 20
200.663607
 30
0.0
 10
285.238303
 20
200.637699
 30
0.0
 10
285.037304
 20
200.586106
 30
0.0
 10
284.844292
 20
200.509906
 30
0.0
 10
284.663303
 20
200.410008
 30
0.0
 10
284.495296
 20
200.288206
 30
0.0
 10
284.344308
 20
200.146406
 30
0.0
 10
284.212312
 20
199.986705
 30
0.0
 10
284.101314
 20
199.811807
 30
0.0
 10
284.013317
 20
199.624307
 30
0.0
 10
283.949309
 20
199.427205
 30
0.0
 10
283.910306
 20
199.223706
 30
0.0
 10
283.897324
 20
199.016905
 30
0.0
 10
283.910278
 20
198.810107
 30
0.0
 10
283.949309
 20
198.606608
 30
0.0
 10
284.013317
 20
198.409506
 30
0.0
 10
284.101314
 20
198.222006
 30
0.0
 10
284.212312
 20
198.047108
 30
0.0
 10
284.344308
 20
197.887407
 30
0.0
 10
284.495296
 20
197.745607
 30
0.0
 10
284.663303
 20
197.623805
 30
0.0
 10
284.844292
 20
197.523907
 30
0.0
 10
285.037304
 20
197.447707
 30
0.0
 10
285.238303
 20
197.396106
 30
0.0
 10
285.443309
 20
197.370113
 30
0.0
 10
285.651307
 20
197.370107
 30
0.0
 10
285.856313
 20
197.396100
 30
0.0
  0
LWPOLYLINE
  5
103
100
AcDbEntity
  8
0
 62
7
100
AcDbPolyline
 90
51
 70
0
 10
12.856308
 20
197.396106
 30
0.0
 10
13.057307
 20
197.447707
 30
0.0
 10
13.250308
 20
197.523907
 30
0.0
 10
13.431308
 20
197.623805
 30
0.0
 10
13.599306
 20
197.745607
 30
0.0
 10
13.750307
 20
197.887407
 30
0.0
 10
13.882308
 20
198.047108
 30
0.0
 10
13.993306
 20
198.222006
 30
0.0
 10
14.081308
 20
198.409506
 30
0.0
 10
14.145308
 20
198.606608
 30
0.0
 10
14.184308
 20
198.810107
 30
0.0
 10
14.197318
 20
199.016905
 30
0.0
 10
14.184297
 20
199.223706
 30
0.0
 10
14.145308
 20
199.427205
 30
0.0
 10
14.081308
 20
199.624307
 30
0.0
 10
13.993306
 20
199.811807
 30
0.0
 10
13.882308
 20
199.986705
 30
0.0
 10
13.750307
 20
200.146406
 30
0.0
 10
13.599306
 20
200.288206
 30
0.0
 10
13.431308
 20
200.410008
 30
0.0
 10
13.250308
 20
200.509906
 30
0.0
 10
13.057307
 20
200.586106
 30
0.0
 10
12.856308
 20
200.637707
 30
0.0
 10
12.651308
 20
200.663615
 30
0.0
 10
12.443307
 20
200.663607
 30
0.0
 10
12.238307
 20
200.637699
 30
0.0
 10
12.037308
 20
200.586106
 30
0.0
 10
11.844308
 20
200.509906
 30
0.0
 10
11.663307
 20
200.410008
 30
0.0
 10
11.495306
 20
200.288206
 30
0.0
 10
11.344306
 20
200.146406
 30
0.0
 10
11.212308
 20
199.986705
 30
0.0
 10
11.101307
 20
199.811807
 30
0.0
 10
11.013307
 20
199.624307
 30
0.0
 10
10.949308
 20
199.427205
 30
0.0
 10
10.910307
 20
199.223706
 30
0.0
 10
10.897297
 20
199.016905
 30
0.0
 10
10.910319
 20
198.810107
 30
0.0
 10
10.949308
 20
198.606608
 30
0.0
 10
11.013307
 20
198.409506
 30
0.0
 10
11.101307
 20
198.222006
 30
0.0
 10
11.212308
 20
198.047108
 30
0.0
 10
11.344306
 20
197.887407
 30
0.0
 10
11.495306
 20
197.745607
 30
0.0
 10
11.663307
 20
197.623805
 30
0.0
 10
11.844308
 20
197.523907
 30
0.0
 10
12.037308
 20
197.447707
 30
0.0
 10
12.238307
 20
197.396106
 30
0.0
 10
12.443307
 20
197.370113
 30
0.0
 10
12.651308
 20
197.370107
 30
0.0
 10
12.856308
 20
197.396100
 30
0.0
  0
LWPOLYLINE
  5
104
100
AcDbEntity
  8
0
 62
7
100
AcDbPolyline
 90
51
 70
0
 10
183.606508
 20
194.896105
 30
0.0
 10
183.807207
 20
194.947707
 30
0.0
 10
183.999807
 20
195.023907
 30
0.0
 10
184.181409
 20
195.123808
 30
0.0
 10
184.349108
 20
195.245606
 30
0.0
 10
184.500108
 20
195.387406
 30
0.0
 10
184.632208
 20
195.547107
 30
0.0
 10
184.743206
 20
195.722006
 30
0.0
 10
184.831409
 20
195.909506
 30
0.0
 10
184.895507
 20
196.106607
 30
0.0
 10
184.934307
 20
196.310106
 30
0.0
 10
184.947317
 20
196.516907
 30
0.0
 10
184.934296
 20
196.723706
 30
0.0
 10
184.895507
 20
196.927208
 30
0.0
 10
184.831409
 20
197.124306
 30
0.0
 10
184.743206
 20
197.311806
 30
0.0
 10
184.632208
 20
197.486707
 30
0.0
 10
184.500108
 20
197.646406
 30
0.0
 10
184.349108
 20
197.788205
 30
0.0
 10
184.181409
 20
197.910007
 30
0.0
 10
183.999807
 20
198.009905
 30
0.0
 10
183.807207
 20
198.086105
 30
0.0
 10
183.606508
 20
198.137707
 30
0.0
 10
183.400906
 20
198.163615
 30
0.0
 10
183.193707
 20
198.163606
 30
0.0
 10
182.988108
 20
198.137698
 30
0.0
 10
182.787409
 20
198.086105
 30
0.0
 10
182.594806
 20
198.009905
 30
0.0
 10
182.413207
 20
197.910007
 30
0.0
 10
182.245607
 20
197.788205
 30
0.0
 10
182.094508
 20
197.646406
 30
0.0
 10
181.962408
 20
197.486707
 30
0.0
 10
181.851407
 20
197.311806
 30
0.0
 10
181.763207
 20
197.124306
 30
0.0
 10
181.699106
 20
196.927208
 30
0.0
 10
181.660306
 20
196.723706
 30
0.0
 10
181.647296
 20
196.516907
 30
0.0
 10
181.660317
 20
196.310106
 30
0.0
 10
181.699106
 20
196.106607
 30
0.0
 10
181.763207
 20
195.909506
 30
0.0
 10
181.851407
 20
195.722006
 30
0.0
 10
181.962408
 20
195.547107
 30
0.0
 10
182.094508
 20
195.387406
 30
0.0
 10
182.245607
 20
195.245606
 30
0.0
 10
182.413207
 20
195.123808
 30
0.0
 10
182.594806
 20
195.023907
 30
0.0
 10
182.787409
 20
194.947707
 30
0.0
 10
182.988108
 20
194.896105
 30
0.0
 10
183.193707
 20
194.870112
 30
0.0
 10
183.400906
 20
194.870107
 30
0.0
 10
183.606508
 20
194.896099
 30
0.0
  0
LWPOLYLINE
  5
105
100
AcDbEntity
  8
0
 62
7
100
AcDbPolyline
 90
51
 70
0
 10
258.606307
 20
194.896105
 30
0.0
 10
258.807308
 20
194.947707
 30
0.0
 10
259.000306
 20
195.023907
 30
0.0
 10
259.181306
 20
195.123808
 30
0.0
 10
259.349308
 20
195.245606
 30
0.0
 10
259.500308
 20
195.387406
 30
0.0
 10
259.632306
 20
195.547107
 30
0.0
 10
259.743307
 20
195.722006
 30
0.0
 10
259.831307
 20
195.909506
 30
0.0
 10
259.895306
 20
196.106607
 30
0.0
 10
259.934306
 20
196.310106
 30
0.0
 10
259.947317
 20
196.516907
 30
0.0
 10
259.934298
 20
196.723706
 30
0.0
 10
259.895306
 20
196.927208
 30
0.0
 10
259.831307
 20
197.124306
 30
0.0
 10
259.743307
 20
197.311806
 30
0.0
 10
259.632306
 20
197.486707
 30
0.0
 10
259.500308
 20
197.646406
 30
0.0
 10
259.349308
 20
197.788205
 30
0.0
 10
259.181306
 20
197.910007
 30
0.0
 10
259.000306
 20
198.009905
 30
0.0
 10
258.807308
 20
198.086105
 30
0.0
 10
258.606307
 20
198.137707
 30
0.0
 10
258.401306
 20
198.163615
 30
0.0
 10
258.193306
 20
198.163606
 30
0.0
 10
257.988308
 20
198.137698
 30
0.0
 10
257.787307
 20
198.086105
 30
0.0
 10
257.594306
 20
198.009905
 30
0.0
 10
257.413308
 20
197.910007
 30
0.0
 10
257.245307
 20
197.788205
 30
0.0
 10
257.094307
 20
197.646406
 30
0.0
 10
256.962306
 20
197.486707
 30
0.0
 10
256.851308
 20
197.311806
 30
0.0
 10
256.763308
 20
197.124306
 30
0.0
 10
256.699306
 20
196.927208
 30
0.0
 10
256.660309
 20
196.723706
 30
0.0
 10
256.647298
 20
196.516907
 30
0.0
 10
256.660317
 20
196.310106
 30
0.0
 10
256.699306
 20
196.106607
 30
0.0
 10
256.763308
 20
195.909506
 30
0.0
 10
256.851308
 20
195.722006
 30
0.0
 10
256.962306
 20
195.547107
 30
0.0
 10
257.094307
 20
195.387406
 30
0.0
 10
257.245307
 20
195.245606
 30
0.0
 10
257.413308
 20
195.123808
 30
0.0
 10
257.594306
 20
195.023907
 30
0.0
 10
257.787307
 20
194.947707
 30
0.0
 10
257.988308
 20
194.896105
 30
0.0
 10
258.193306
 20
194.870112
 30
0.0
 10
258.401306
 20
194.870107
 30
0.0
 10
258.606307
 20
194.896099
 30
0.0
  0
LWPOLYLINE
  5
106
100
AcDbEntity
  8
0
 62
7
100
AcDbPolyline
 90
5
 70
0
 10
256.547307
 20
193.266907
 30
0.0
 10
185.047309
 20
193.266907
 30
0.0
 10
185.047309
 20
168.766908
 30
0.0
 10
256.547307
 20
168.766908
 30
0.0
 10
256.547307
 20
193.266907
 30
0.0
  0
LWPOLYLINE
  5
107
100
AcDbEntity
  8
0
 62
7
100
AcDbPolyline
 90
51
 70
0
 10
134.356506
 20
189.396108
 30
0.0
 10
134.557206
 20
189.447706
 30
0.0
 10
134.749808
 20
189.523906
 30
0.0
 10
134.931407
 20
189.623807
 30
0.0
 10
135.099007
 20
189.745606
 30
0.0
 10
135.250106
 20
189.887406
 30
0.0
 10
135.382206
 20
190.047107
 30
0.0
 10
135.493207
 20
190.222005
 30
0.0
 10
135.581407
 20
190.409505
 30
0.0
 10
135.645508
 20
190.606607
 30
0.0
 10
135.684308
 20
190.810106
 30
0.0
 10
135.697318
 20
191.016907
 30
0.0
 10
135.684297
 20
191.223705
 30
0.0
 10
135.645508
 20
191.427207
 30
0.0
 10
135.581407
 20
191.624306
 30
0.0
 10
135.493207
 20
191.811806
 30
0.0
 10
135.382206
 20
191.986707
 30
0.0
 10
135.250106
 20
192.146405
 30
0.0
 10
135.099007
 20
192.288205
 30
0.0
 10
134.931407
 20
192.410007
 30
0.0
 10
134.749808
 20
192.509908
 30
0.0
 10
134.557206
 20
192.586108
 30
0.0
 10
134.356506
 20
192.637706
 30
0.0
 10
134.150907
 20
192.663614
 30
0.0
 10
133.943708
 20
192.663606
 30
0.0
 10
133.738106
 20
192.637698
 30
0.0
 10
133.537407
 20
192.586108
 30
0.0
 10
133.344807
 20
192.509908
 30
0.0
 10
133.163206
 20
192.410007
 30
0.0
 10
132.995506
 20
192.288205
 30
0.0
 10
132.844506
 20
192.146405
 30
0.0
 10
132.712406
 20
191.986707
 30
0.0
 10
132.601406
 20
191.811806
 30
0.0
 10
132.513205
 20
191.624306
 30
0.0
 10
132.449107
 20
191.427207
 30
0.0
 10
132.410307
 20
191.223705
 30
0.0
 10
132.397297
 20
191.016907
 30
0.0
 10
132.410319
 20
190.810106
 30
0.0
 10
132.449107
 20
190.606607
 30
0.0
 10
132.513205
 20
190.409505
 30
0.0
 10
132.601406
 20
190.222005
 30
0.0
 10
132.712406
 20
190.047107
 30
0.0
 10
132.844506
 20
189.887406
 30
0.0
 10
132.995506
 20
189.745606
 30
0.0
 10
133.163206
 20
189.623807
 30
0.0
 10
133.344807
 20
189.523906
 30
0.0
 10
133.537407
 20
189.447706
 30
0.0
 10
133.738106
 20
189.396108
 30
0.0
 10
133.943708
 20
189.370115
 30
0.0
 10
134.150907
 20
189.370106
 30
0.0
 10
134.356506
 20
189.396099
 30
0.0
  0
LWPOLYLINE
  5
108
100
AcDbEntity
  8
0
 62
7
100
AcDbPolyline
 90
51
 70
0
 10
20.856307
 20
189.396108
 30
0.0
 10
21.057308
 20
189.447706
 30
0.0
 10
21.250306
 20
189.523906
 30
0.0
 10
21.431306
 20
189.623807
 30
0.0
 10
21.599307
 20
189.745606
 30
0.0
 10
21.750308
 20
189.887406
 30
0.0
 10
21.882306
 20
190.047107
 30
0.0
 10
21.993307
 20
190.222005
 30
0.0
 10
22.081306
 20
190.409505
 30
0.0
 10
22.145306
 20
190.606607
 30
0.0
 10
22.184306
 20
190.810106
 30
0.0
 10
22.197317
 20
191.016907
 30
0.0
 10
22.184298
 20
191.223705
 30
0.0
 10
22.145306
 20
191.427207
 30
0.0
 10
22.081306
 20
191.624306
 30
0.0
 10
21.993307
 20
191.811806
 30
0.0
 10
21.882306
 20
191.986707
 30
0.0
 10
21.750308
 20
192.146405
 30
0.0
 10
21.599307
 20
192.288205
 30
0.0
 10
21.431306
 20
192.410007
 30
0.0
 10
21.250306
 20
192.509908
 30
0.0
 10
21.057308
 20
192.586108
 30
0.0
 10
20.856307
 20
192.637706
 30
0.0
 10
20.651306
 20
192.663614
 30
0.0
 10
20.443308
 20
192.663606
 30
0.0
 10
20.238308
 20
192.637698
 30
0.0
 10
20.037306
 20
192.586108
 30
0.0
 10
19.844306
 20
192.509908
 30
0.0
 10
19.663308
 20
192.410007
 30
0.0
 10
19.495307
 20
192.288205
 30
0.0
 10
19.344307
 20
192.146405
 30
0.0
 10
19.212306
 20
191.986707
 30
0.0
 10
19.101308
 20
191.811806
 30
0.0
 10
19.013308
 20
191.624306
 30
0.0
 10
18.949306
 20
191.427207
 30
0.0
 10
18.910308
 20
191.223705
 30
0.0
 10
18.897298
 20
191.016907
 30
0.0
 10
18.910317
 20
190.810106
 30
0.0
 10
18.949306
 20
190.606607
 30
0.0
 10
19.013308
 20
190.409505
 30
0.0
 10
19.101308
 20
190.222005
 30
0.0
 10
19.212306
 20
190.047107
 30
0.0
 10
19.344307
 20
189.887406
 30
0.0
 10
19.495307
 20
189.745606
 30
0.0
 10
19.663308
 20
189.623807
 30
0.0
 10
19.844306
 20
189.523906
 30
0.0
 10
20.037306
 20
189.447706
 30
0.0
 10
20.238308
 20
189.396108
 30
0.0
 10
20.443308
 20
189.370115
 30
0.0
 10
20.651306
 20
189.370106
 30
0.0
 10
20.856307
 20
189.396099
 30
0.0
  0
LWPOLYLINE
  5
109
100
AcDbEntity
  8
0
 62
7
100
AcDbPolyline
 90
51
 70
0
 10
258.606307
 20
163.896108
 30
0.0
 10
258.807308
 20
163.947706
 30
0.0
 10
259.000306
 20
164.023906
 30
0.0
 10
259.181306
 20
164.123807
 30
0.0
 10
259.349308
 20
164.245606
 30
0.0
 10
259.500308
 20
164.387406
 30
0.0
 10
259.632306
 20
164.547107
 30
0.0
 10
259.743307
 20
164.722006
 30
0.0
 10
259.831307
 20
164.909506
 30
0.0
 10
259.895306
 20
165.106607
 30
0.0
 10
259.934306
 20
165.310106
 30
0.0
 10
259.947317
 20
165.516907
 30
0.0
 10
259.934298
 20
165.723705
 30
0.0
 10
259.895306
 20
165.927207
 30
0.0
 10
259.831307
 20
166.124306
 30
0.0
 10
259.743307
 20
166.311806
 30
0.0
 10
259.632306
 20
166.486707
 30
0.0
 10
259.500308
 20
166.646406
 30
0.0
 10
259.349308
 20
166.788205
 30
0.0
 10
259.181306
 20
166.910007
 30
0.0
 10
259.000306
 20
167.009905
 30
0.0
 10
258.807308
 20
167.086105
 30
0.0
 10
258.606307
 20
167.137707
 30
0.0
 10
258.401306
 20
167.163699
 30
0.0
 10
258.193306
 20
167.163705
 30
0.0
 10
257.988308
 20
167.137712
 30
0.0
 10
257.787307
 20
167.086105
 30
0.0
 10
257.594306
 20
167.009905
 30
0.0
 10
257.413308
 20
166.910007
 30
0.0
 10
257.245307
 20
166.788205
 30
0.0
 10
257.094307
 20
166.646406
 30
0.0
 10
256.962306
 20
166.486707
 30
0.0
 10
256.851308
 20
166.311806
 30
0.0
 10
256.763308
 20
166.124306
 30
0.0
 10
256.699306
 20
165.927207
 30
0.0
 10
256.660309
 20
165.723705
 30
0.0
 10
256.647298
 20
165.516907
 30
0.0
 10
256.660317
 20
165.310106
 30
0.0
 10
256.699306
 20
165.106607
 30
0.0
 10
256.763308
 20
164.909506
 30
0.0
 10
256.851308
 20
164.722006
 30
0.0
 10
256.962306
 20
164.547107
 30
0.0
 10
257.094307
 20
164.387406
 30
0.0
 10
257.245307
 20
164.245606
 30
0.0
 10
257.413308
 20
164.123807
 30
0.0
 10
257.594306
 20
164.023906
 30
0.0
 10
257.787307
 20
163.947706
 30
0.0
 10
257.988308
 20
163.896108
 30
0.0
 10
258.193306
 20
163.870200
 30
0.0
 10
258.401306
 20
163.870205
 30
0.0
 10
258.606307
 20
163.896113
 30
0.0
  0
LWPOLYLINE
  5
10a
100
AcDbEntity
  8
0
 62
7
100
AcDbPolyline
 90
51
 70
0
 10
183.606508
 20
163.896108
 30
0.0
 10
183.807207
 20
163.947706
 30
0.0
 10
183.999807
 20
164.023906
 30
0.0
 10
184.181409
 20
164.123807
 30
0.0
 10
184.349108
 20
164.245606
 30
0.0
 10
184.500108
 20
164.387406
 30
0.0
 10
184.632208
 20
164.547107
 30
0.0
 10
184.743206
 20
164.722006
 30
0.0
 10
184.831409
 20
164.909506
 30
0.0
 10
184.895507
 20
165.106607
 30
0.0
 10
184.934307
 20
165.310106
 30
0.0
 10
184.947317
 20
165.516907
 30
0.0
 10
184.934296
 20
165.723705
 30
0.0
 10
184.895507
 20
165.927207
 30
0.0
 10
184.831409
 20
166.124306
 30
0.0
 10
184.743206
 20
166.311806
 30
0.0
 10
184.632208
 20
166.486707
 30
0.0
 10
184.500108
 20
166.646406
 30
0.0
 10
184.349108
 20
166.788205
 30
0.0
 10
184.181409
 20
166.910007
 30
0.0
 10
183.999807
 20
167.009905
 30
0.0
 10
183.807207
 20
167.086105
 30
0.0
 10
183.606508
 20
167.137707
 30
0.0
 10
183.400906
 20
167.163699
 30
0.0
 10
183.193707
 20
167.163705
 30
0.0
 10
182.988108
 20
167.137712
 30
0.0
 10
182.787409
 20
167.086105
 30
0.0
 10
182.594806
 20
167.009905
 30
0.0
 10
182.413207
 20
166.910007
 30
0.0
 10
182.245607
 20
166.788205
 30
0.0
 10
182.094508
 20
166.646406
 30
0.0
 10
181.962408
 20
166.486707
 30
0.0
 10
181.851407
 20
166.311806
 30
0.0
 10
181.763207
 20
166.124306
 30
0.0
 10
181.699106
 20
165.927207
 30
0.0
 10
181.660306
 20
165.723705
 30
0.0
 10
181.647296
 20
165.516907
 30
0.0
 10
181.660317
 20
165.310106
 30
0.0
 10
181.699106
 20
165.106607
 30
0.0
 10
181.763207
 20
164.909506
 30
0.0
 10
181.851407
 20
164.722006
 30
0.0
 10
181.962408
 20
164.547107
 30
0.0
 10
182.094508
 20
164.387406
 30
0.0
 10
182.245607
 20
164.245606
 30
0.0
 10
182.413207
 20
164.123807
 30
0.0
 10
182.594806
 20
164.023906
 30
0.0
 10
182.787409
 20
163.947706
 30
0.0
 10
182.988108
 20
163.896108
 30
0.0
 10
183.193707
 20
163.870200
 30
0.0
 10
183.400906
 20
163.870205
 30
0.0
 10
183.606508
 20
163.896113
 30
0.0
  0
LWPOLYLINE
  5
10b
100
AcDbEntity
  8
0
 62
7
100
AcDbPolyline
 90
51
 70
0
 10
251.856308
 20
147.396107
 30
0.0
 10
252.057306
 20
147.447706
 30
0.0
 10
252.250307
 20
147.523906
 30
0.0
 10
252.431307
 20
147.623807
 30
0.0
 10
252.599306
 20
147.745605
 30
0.0
 10
252.750306
 20
147.887408
 30
0.0
 10
252.882307
 20
148.047106
 30
0.0
 10
252.993308
 20
148.222008
 30
0.0
 10
253.081307
 20
148.409508
 30
0.0
 10
253.145307
 20
148.606606
 30
0.0
 10
253.184307
 20
148.810105
 30
0.0
 10
253.197318
 20
149.016906
 30
0.0
 10
253.184296
 20
149.223707
 30
0.0
 10
253.145307
 20
149.427207
 30
0.0
 10
253.081307
 20
149.624305
 30
0.0
 10
252.993308
 20
149.811805
 30
0.0
 10
252.882307
 20
149.986706
 30
0.0
 10
252.750306
 20
150.146408
 30
0.0
 10
252.599306
 20
150.288207
 30
0.0
 10
252.431307
 20
150.410006
 30
0.0
 10
252.250307
 20
150.509907
 30
0.0
 10
252.057306
 20
150.586107
 30
0.0
 10
251.856308
 20
150.637706
 30
0.0
 10
251.651307
 20
150.663614
 30
0.0
 10
251.443307
 20
150.663605
 30
0.0
 10
251.238306
 20
150.637697
 30
0.0
 10
251.037307
 20
150.586107
 30
0.0
 10
250.844307
 20
150.509907
 30
0.0
 10
250.663306
 20
150.410006
 30
0.0
 10
250.495308
 20
150.288207
 30
0.0
 10
250.344308
 20
150.146408
 30
0.0
 10
250.212307
 20
149.986706
 30
0.0
 10
250.101306
 20
149.811805
 30
0.0
 10
250.013306
 20
149.624305
 30
0.0
 10
249.949307
 20
149.427207
 30
0.0
 10
249.910306
 20
149.223707
 30
0.0
 10
249.897296
 20
149.016906
 30
0.0
 10
249.910318
 20
148.810105
 30
0.0
 10
249.949307
 20
148.606606
 30
0.0
 10
250.013306
 20
148.409508
 30
0.0
 10
250.101306
 20
148.222008
 30
0.0
 10
250.212307
 20
148.047106
 30
0.0
 10
250.344308
 20
147.887408
 30
0.0
 10
250.495308
 20
147.745605
 30
0.0
 10
250.663306
 20
147.623807
 30
0.0
 10
250.844307
 20
147.523906
 30
0.0
 10
251.037307
 20
147.447706
 30
0.0
 10
251.238306
 20
147.396107
 30
0.0
 10
251.443307
 20
147.370114
 30
0.0
 10
251.651307
 20
147.370106
 30
0.0
 10
251.856308
 20
147.396098
 30
0.0
  0
LWPOLYLINE
  5
10c
100
AcDbEntity
  8
0
 62
7
100
AcDbPolyline
 90
51
 70
0
 10
276.856306
 20
147.396107
 30
0.0
 10
277.057307
 20
147.447706
 30
0.0
 10
277.250308
 20
147.523906
 30
0.0
 10
277.431308
 20
147.623807
 30
0.0
 10
277.599307
 20
147.745605
 30
0.0
 10
277.750307
 20
147.887408
 30
0.0
 10
277.882308
 20
148.047106
 30
0.0
 10
277.993308
 20
148.222008
 30
0.0
 10
278.081308
 20
148.409508
 30
0.0
 10
278.145308
 20
148.606606
 30
0.0
 10
278.184308
 20
148.810105
 30
0.0
 10
278.197318
 20
149.016906
 30
0.0
 10
278.184297
 20
149.223707
 30
0.0
 10
278.145308
 20
149.427207
 30
0.0
 10
278.081308
 20
149.624305
 30
0.0
 10
277.993308
 20
149.811805
 30
0.0
 10
277.882308
 20
149.986706
 30
0.0
 10
277.750307
 20
150.146408
 30
0.0
 10
277.599307
 20
150.288207
 30
0.0
 10
277.431308
 20
150.410006
 30
0.0
 10
277.250308
 20
150.509907
 30
0.0
 10
277.057307
 20
150.586107
 30
0.0
 10
276.856306
 20
150.637706
 30
0.0
 10
276.651308
 20
150.663614
 30
0.0
 10
276.443307
 20
150.663605
 30
0.0
 10
276.238307
 20
150.637697
 30
0.0
 10
276.037308
 20
150.586107
 30
0.0
 10
275.844308
 20
150.509907
 30
0.0
 10
275.663307
 20
150.410006
 30
0.0
 10
275.495306
 20
150.288207
 30
0.0
 10
275.344306
 20
150.146408
 30
0.0
 10
275.212308
 20
149.986706
 30
0.0
 10
275.101307
 20
149.811805
 30
0.0
 10
275.013307
 20
149.624305
 30
0.0
 10
274.949308
 20
149.427207
 30
0.0
 10
274.910307
 20
149.223707
 30
0.0
 10
274.897297
 20
149.016906
 30
0.0
 10
274.910319
 20
148.810105
 30
0.0
 10
274.949308
 20
148.606606
 30
0.0
 10
275.013307
 20
148.409508
 30
0.0
 10
275.101307
 20
148.222008
 30
0.0
 10
275.212308
 20
148.047106
 30
0.0
 10
275.344306
 20
147.887408
 30
0.0
 10
275.495306
 20
147.745605
 30
0.0
 10
275.663307
 20
147.623807
 30
0.0
 10
275.844308
 20
147.523906
 30
0.0
 10
276.037308
 20
147.447706
 30
0.0
 10
276.238307
 20
147.396107
 30
0.0
 10
276.443307
 20
147.370114
 30
0.0
 10
276.651308
 20
147.370106
 30
0.0
 10
276.856306
 20
147.396098
 30
0.0
  0
LWPOLYLINE
  5
10d
100
AcDbEntity
  8
0
 62
7
100
AcDbPolyline
 90
51
 70
0
 10
159.004107
 20
146.129906
 30
0.0
 10
159.207606
 20
146.168705
 30
0.0
 10
159.404708
 20
146.232807
 30
0.0
 10
159.592208
 20
146.321007
 30
0.0
 10
159.767106
 20
146.432008
 30
0.0
 10
159.926807
 20
146.564107
 30
0.0
 10
160.068607
 20
146.715107
 30
0.0
 10
160.190406
 20
146.882807
 30
0.0
 10
160.290307
 20
147.064405
 30
0.0
 10
160.366507
 20
147.257005
 30
0.0
 10
160.418105
 20
147.457708
 30
0.0
 10
160.444098
 20
147.663306
 30
0.0
 10
160.444107
 20
147.870505
 30
0.0
 10
160.418114
 20
148.076107
 30
0.0
 10
160.366507
 20
148.276807
 30
0.0
 10
160.290307
 20
148.469406
 30
0.0
 10
160.190406
 20
148.651005
 30
0.0
 10
160.068607
 20
148.818606
 30
0.0
 10
159.926807
 20
148.969707
 30
0.0
 10
159.767106
 20
149.101807
 30
0.0
 10
159.592208
 20
149.212805
 30
0.0
 10
159.404708
 20
149.301005
 30
0.0
 10
159.207606
 20
149.365106
 30
0.0
 10
159.004107
 20
149.403906
 30
0.0
 10
158.797306
 20
149.416917
 30
0.0
 10
158.590516
 20
149.403895
 30
0.0
 10
158.386986
 20
149.365106
 30
0.0
 10
158.189916
 20
149.301005
 30
0.0
 10
158.002416
 20
149.212805
 30
0.0
 10
157.827478
 20
149.101807
 30
0.0
 10
157.667808
 20
148.969707
 30
0.0
 10
157.525977
 20
148.818606
 30
0.0
 10
157.404178
 20
148.651005
 30
0.0
 10
157.304356
 20
148.469406
 30
0.0
 10
157.228077
 20
148.276807
 30
0.0
 10
157.176538
 20
148.076107
 30
0.0
 10
157.150573
 20
147.870505
 30
0.0
 10
157.150568
 20
147.663306
 30
0.0
 10
157.176532
 20
147.457708
 30
0.0
 10
157.228077
 20
147.257005
 30
0.0
 10
157.304356
 20
147.064405
 30
0.0
 10
157.404178
 20
146.882807
 30
0.0
 10
157.525977
 20
146.715107
 30
0.0
 10
157.667808
 20
146.564107
 30
0.0
 10
157.827478
 20
146.432008
 30
0.0
 10
158.002416
 20
146.321007
 30
0.0
 10
158.189916
 20
146.232807
 30
0.0
 10
158.386986
 20
146.168705
 30
0.0
 10
158.590516
 20
146.129906
 30
0.0
 10
158.797306
 20
146.116895
 30
0.0
 10
159.004107
 20
146.129917
 30
0.0
  0
LWPOLYLINE
  5
10e
100
AcDbEntity
  8
0
 62
7
100
AcDbPolyline
 90
51
 70
0
 10
179.504106
 20
146.129906
 30
0.0
 10
179.707608
 20
146.168705
 30
0.0
 10
179.904706
 20
146.232807
 30
0.0
 10
180.092206
 20
146.321007
 30
0.0
 10
180.267108
 20
146.432008
 30
0.0
 10
180.426809
 20
146.564107
 30
0.0
 10
180.568608
 20
146.715107
 30
0.0
 10
180.690407
 20
146.882807
 30
0.0
 10
180.790308
 20
147.064405
 30
0.0
 10
180.866508
 20
147.257005
 30
0.0
 10
180.918107
 20
147.457708
 30
0.0
 10
180.944015
 20
147.663306
 30
0.0
 10
180.944006
 20
147.870505
 30
0.0
 10
180.918098
 20
148.076107
 30
0.0
 10
180.866508
 20
148.276807
 30
0.0
 10
180.790308
 20
148.469406
 30
0.0
 10
180.690407
 20
148.651005
 30
0.0
 10
180.568608
 20
148.818606
 30
0.0
 10
180.426809
 20
148.969707
 30
0.0
 10
180.267108
 20
149.101807
 30
0.0
 10
180.092206
 20
149.212805
 30
0.0
 10
179.904706
 20
149.301005
 30
0.0
 10
179.707608
 20
149.365106
 30
0.0
 10
179.504106
 20
149.403906
 30
0.0
 10
179.297307
 20
149.416917
 30
0.0
 10
179.090506
 20
149.403895
 30
0.0
 10
178.887007
 20
149.365106
 30
0.0
 10
178.689909
 20
149.301005
 30
0.0
 10
178.502409
 20
149.212805
 30
0.0
 10
178.327507
 20
149.101807
 30
0.0
 10
178.167806
 20
148.969707
 30
0.0
 10
178.026006
 20
148.818606
 30
0.0
 10
177.904208
 20
148.651005
 30
0.0
 10
177.804307
 20
148.469406
 30
0.0
 10
177.728107
 20
148.276807
 30
0.0
 10
177.676508
 20
148.076107
 30
0.0
 10
177.650515
 20
147.870505
 30
0.0
 10
177.650507
 20
147.663306
 30
0.0
 10
177.676500
 20
147.457708
 30
0.0
 10
177.728107
 20
147.257005
 30
0.0
 10
177.804307
 20
147.064405
 30
0.0
 10
177.904208
 20
146.882807
 30
0.0
 10
178.026006
 20
146.715107
 30
0.0
 10
178.167806
 20
146.564107
 30
0.0
 10
178.327507
 20
146.432008
 30
0.0
 10
178.502409
 20
146.321007
 30
0.0
 10
178.689909
 20
146.232807
 30
0.0
 10
178.887007
 20
146.168705
 30
0.0
 10
179.090506
 20
146.129906
 30
0.0
 10
179.297307
 20
146.116895
 30
0.0
 10
179.504106
 20
146.129917
 30
0.0
  0
LWPOLYLINE
  5
10f
100
AcDbEntity
  8
0
 62
7
100
AcDbPolyline
 90
51
 70
0
 10
271.171306
 20
133.123206
 30
0.0
 10
271.901308
 20
133.310607
 30
0.0
 10
272.602308
 20
133.587908
 30
0.0
 10
273.262307
 20
133.950908
 30
0.0
 10
273.872308
 20
134.393807
 30
0.0
 10
274.421306
 20
134.909605
 30
0.0
 10
274.901307
 20
135.490207
 30
0.0
 10
275.305308
 20
136.126406
 30
0.0
 10
275.626308
 20
136.808207
 30
0.0
 10
275.858306
 20
137.524806
 30
0.0
 10
276.000306
 20
138.264906
 30
0.0
 10
276.047307
 20
139.016907
 30
0.0
 10
276.000306
 20
139.768907
 30
0.0
 10
275.858306
 20
140.509007
 30
0.0
 10
275.626308
 20
141.225606
 30
0.0
 10
275.305308
 20
141.907407
 30
0.0
 10
274.901307
 20
142.543606
 30
0.0
 10
274.421306
 20
143.124205
 30
0.0
 10
273.872308
 20
143.640006
 30
0.0
 10
273.262307
 20
144.082905
 30
0.0
 10
272.602308
 20
144.445905
 30
0.0
 10
271.901308
 20
144.723206
 30
0.0
 10
271.171306
 20
144.910607
 30
0.0
 10
270.424306
 20
145.005106
 30
0.0
 10
269.670307
 20
145.005106
 30
0.0
 10
268.923307
 20
144.910607
 30
0.0
 10
268.193308
 20
144.723206
 30
0.0
 10
267.492308
 20
144.445905
 30
0.0
 10
266.832309
 20
144.082905
 30
0.0
 10
266.222308
 20
143.640006
 30
0.0
 10
265.673307
 20
143.124205
 30
0.0
 10
265.193309
 20
142.543606
 30
0.0
 10
264.789308
 20
141.907407
 30
0.0
 10
264.468308
 20
141.225606
 30
0.0
 10
264.236307
 20
140.509007
 30
0.0
 10
264.094307
 20
139.768907
 30
0.0
 10
264.047309
 20
139.016907
 30
0.0
 10
264.094307
 20
138.264906
 30
0.0
 10
264.236307
 20
137.524806
 30
0.0
 10
264.468308
 20
136.808207
 30
0.0
 10
264.789308
 20
136.126406
 30
0.0
 10
265.193309
 20
135.490207
 30
0.0
 10
265.673307
 20
134.909605
 30
0.0
 10
266.222308
 20
134.393807
 30
0.0
 10
266.832309
 20
133.950908
 30
0.0
 10
267.492308
 20
133.587908
 30
0.0
 10
268.193308
 20
133.310607
 30
0.0
 10
268.923307
 20
133.123206
 30
0.0
 10
269.670307
 20
133.028707
 30
0.0
 10
270.424306
 20
133.028707
 30
0.0
 10
271.171306
 20
133.123206
 30
0.0
  0
LWPOLYLINE
  5
110
100
AcDbEntity
  8
0
 62
7
100
AcDbPolyline
 90
76
 70
0
 10
223.544807
 20
138.352905
 30
0.0
 10
223.555419
 20
138.633906
 30
0.0
 10
223.587307
 20
138.897908
 30
0.0
 10
223.640506
 20
139.145007
 30
0.0
 10
223.714908
 20
139.375106
 30
0.0
 10
223.810607
 20
139.588308
 30
0.0
 10
223.927608
 20
139.784607
 30
0.0
 10
224.065806
 20
139.963906
 30
0.0
 10
224.221706
 20
140.122605
 30
0.0
 10
224.391708
 20
140.256808
 30
0.0
 10
224.575807
 20
140.366606
 30
0.0
 10
224.773908
 20
140.452105
 30
0.0
 10
224.986108
 20
140.513108
 30
0.0
 10
225.212408
 20
140.549706
 30
0.0
 10
225.452807
 20
140.561898
 30
0.0
 10
225.613107
 20
140.558294
 30
0.0
 10
225.763108
 20
140.547412
 30
0.0
 10
225.902808
 20
140.529400
 30
0.0
 10
226.032207
 20
140.504119
 30
0.0
 10
226.151406
 20
140.471607
 30
0.0
 10
226.260307
 20
140.431805
 30
0.0
 10
226.358808
 20
140.384905
 30
0.0
 10
226.448507
 20
140.330507
 30
0.0
 10
226.530707
 20
140.267806
 30
0.0
 10
226.605307
 20
140.196906
 30
0.0
 10
226.672507
 20
140.117807
 30
0.0
 10
226.732107
 20
140.030406
 30
0.0
 10
226.784208
 20
139.934806
 30
0.0
 10
226.828807
 20
139.830906
 30
0.0
 10
226.866808
 20
139.715107
 30
0.0
 10
226.898908
 20
139.583008
 30
0.0
 10
226.925099
 20
139.434607
 30
0.0
 10
226.945596
 20
139.270105
 30
0.0
 10
226.960114
 20
139.089308
 30
0.0
 10
226.968914
 20
138.892207
 30
0.0
 10
226.971815
 20
138.678906
 30
0.0
 10
226.971806
 20
134.016905
 30
0.0
 10
228.198807
 20
134.016905
 30
0.0
 10
228.198807
 20
138.915908
 30
0.0
 10
228.187208
 20
139.299405
 30
0.0
 10
228.152407
 20
139.650106
 30
0.0
 10
228.094506
 20
139.967905
 30
0.0
 10
228.013308
 20
140.252707
 30
0.0
 10
227.909007
 20
140.504706
 30
0.0
 10
227.781508
 20
140.723707
 30
0.0
 10
227.630807
 20
140.909906
 30
0.0
 10
227.455707
 20
141.067705
 30
0.0
 10
227.254808
 20
141.201307
 30
0.0
 10
227.028208
 20
141.310606
 30
0.0
 10
226.776006
 20
141.395605
 30
0.0
 10
226.498006
 20
141.456306
 30
0.0
 10
226.194208
 20
141.492707
 30
0.0
 10
225.864807
 20
141.504899
 30
0.0
 10
225.628008
 20
141.497993
 30
0.0
 10
225.403207
 20
141.477405
 30
0.0
 10
225.190408
 20
141.443007
 30
0.0
 10
224.989706
 20
141.394807
 30
0.0
 10
224.801007
 20
141.333006
 30
0.0
 10
224.624406
 20
141.257305
 30
0.0
 10
224.459808
 20
141.167906
 30
0.0
 10
224.304806
 20
141.064005
 30
0.0
 10
224.156208
 20
140.944507
 30
0.0
 10
224.014208
 20
140.809407
 30
0.0
 10
223.878608
 20
140.658506
 30
0.0
 10
223.749506
 20
140.492006
 30
0.0
 10
223.626906
 20
140.309806
 30
0.0
 10
223.510808
 20
140.111906
 30
0.0
 10
223.489811
 20
140.111906
 30
0.0
 10
223.520807
 20
140.616906
 30
0.0
 10
223.537007
 20
140.987407
 30
0.0
 10
223.544316
 20
141.347907
 30
0.0
 10
223.544872
 20
144.064905
 30
0.0
 10
222.323807
 20
144.064905
 30
0.0
 10
222.323807
 20
134.016905
 30
0.0
 10
223.544807
 20
134.016905
 30
0.0
 10
223.544807
 20
138.352905
 30
0.0
  0
LWPOLYLINE
  5
111
100
AcDbEntity
  8
0
 62
7
100
AcDbPolyline
 90
12
 70
0
 10
217.102306
 20
135.054907
 30
0.0
 10
214.776307
 20
135.054907
 30
0.0
 10
214.776307
 20
143.552906
 30
0.0
 10
213.650308
 20
143.552906
 30
0.0
 10
211.392307
 20
142.017905
 30
0.0
 10
211.392307
 20
140.864906
 30
0.0
 10
213.548307
 20
142.385906
 30
0.0
 10
213.548307
 20
135.054907
 30
0.0
 10
211.114307
 20
135.054907
 30
0.0
 10
211.114307
 20
134.016905
 30
0.0
 10
217.102306
 20
134.016905
 30
0.0
 10
217.102306
 20
135.054907
 30
0.0
  0
LWPOLYLINE
  5
112
100
AcDbEntity
  8
0
 62
7
100
AcDbPolyline
 90
55
 70
0
 10
246.167707
 20
137.850905
 30
0.0
 10
246.175807
 20
138.188706
 30
0.0
 10
246.200219
 20
138.503508
 30
0.0
 10
246.240808
 20
138.795006
 30
0.0
 10
246.297707
 20
139.063507
 30
0.0
 10
246.370808
 20
139.308806
 30
0.0
 10
246.460106
 20
139.530907
 30
0.0
 10
246.565708
 20
139.729907
 30
0.0
 10
246.686708
 20
139.903906
 30
0.0
 10
246.822307
 20
140.051206
 30
0.0
 10
246.972407
 20
140.171706
 30
0.0
 10
247.137106
 20
140.265407
 30
0.0
 10
247.316408
 20
140.332308
 30
0.0
 10
247.510308
 20
140.372507
 30
0.0
 10
247.718707
 20
140.385913
 30
0.0
 10
247.830907
 20
140.384496
 30
0.0
 10
247.936408
 20
140.380302
 30
0.0
 10
248.035408
 20
140.373419
 30
0.0
 10
248.127907
 20
140.363699
 30
0.0
 10
248.213708
 20
140.351205
 30
0.0
 10
248.293007
 20
140.335909
 30
0.0
 10
248.365707
 20
140.317900
 30
0.0
 10
248.365707
 20
141.436906
 30
0.0
 10
248.294508
 20
141.454911
 30
0.0
 10
248.223507
 20
141.470202
 30
0.0
 10
248.152909
 20
141.482707
 30
0.0
 10
248.082607
 20
141.492416
 30
0.0
 10
248.012706
 20
141.499322
 30
0.0
 10
247.943009
 20
141.503513
 30
0.0
 10
247.873706
 20
141.504918
 30
0.0
 10
247.683508
 20
141.497795
 30
0.0
 10
247.505906
 20
141.476611
 30
0.0
 10
247.340907
 20
141.441305
 30
0.0
 10
247.188708
 20
141.391905
 30
0.0
 10
247.049008
 20
141.328405
 30
0.0
 10
246.922107
 20
141.250707
 30
0.0
 10
246.807708
 20
141.158905
 30
0.0
 10
246.701508
 20
141.047907
 30
0.0
 10
246.598908
 20
140.912506
 30
0.0
 10
246.499908
 20
140.752807
 30
0.0
 10
246.404508
 20
140.568906
 30
0.0
 10
246.312608
 20
140.360507
 30
0.0
 10
246.224408
 20
140.127905
 30
0.0
 10
246.139708
 20
139.870905
 30
0.0
 10
246.112699
 20
139.870905
 30
0.0
 10
246.108305
 20
140.096706
 30
0.0
 10
246.085222
 20
140.742106
 30
0.0
 10
246.058707
 20
141.376905
 30
0.0
 10
244.905708
 20
141.376905
 30
0.0
 10
244.925802
 20
140.853708
 30
0.0
 10
244.939213
 20
140.357307
 30
0.0
 10
244.945896
 20
139.887706
 30
0.0
 10
244.946754
 20
134.016905
 30
0.0
 10
246.167707
 20
134.016905
 30
0.0
 10
246.167707
 20
137.850905
 30
0.0
  0
LWPOLYLINE
  5
113
100
AcDbEntity
  8
0
 62
7
100
AcDbPolyline
 90
50
 70
0
 10
233.189407
 20
133.908207
 30
0.0
 10
233.604709
 20
133.965905
 30
0.0
 10
233.988607
 20
134.062106
 30
0.0
 10
234.341207
 20
134.196808
 30
0.0
 10
234.662407
 20
134.370008
 30
0.0
 10
234.952306
 20
134.581705
 30
0.0
 10
235.210807
 20
134.831907
 30
0.0
 10
235.436308
 20
135.121706
 30
0.0
 10
235.627108
 20
135.451706
 30
0.0
 10
235.783207
 20
135.821807
 30
0.0
 10
235.904707
 20
136.232005
 30
0.0
 10
235.991408
 20
136.682505
 30
0.0
 10
236.043408
 20
137.173106
 30
0.0
 10
236.060793
 20
137.703907
 30
0.0
 10
236.044494
 20
138.239607
 30
0.0
 10
235.995808
 20
138.733606
 30
0.0
 10
235.914607
 20
139.185907
 30
0.0
 10
235.800908
 20
139.596506
 30
0.0
 10
235.654706
 20
139.965306
 30
0.0
 10
235.476006
 20
140.292506
 30
0.0
 10
235.264808
 20
140.577906
 30
0.0
 10
235.019509
 20
140.823806
 30
0.0
 10
234.737808
 20
141.031905
 30
0.0
 10
234.419707
 20
141.202207
 30
0.0
 10
234.065307
 20
141.334606
 30
0.0
 10
233.674508
 20
141.429207
 30
0.0
 10
233.247308
 20
141.486007
 30
0.0
 10
232.783806
 20
141.504916
 30
0.0
 10
231.909106
 20
141.427307
 30
0.0
 10
231.168908
 20
141.194607
 30
0.0
 10
230.563406
 20
140.806805
 30
0.0
 10
230.092408
 20
140.263807
 30
0.0
 10
229.755906
 20
139.565606
 30
0.0
 10
229.554106
 20
138.712307
 30
0.0
 10
229.486807
 20
137.703907
 30
0.0
 10
229.503599
 20
137.192306
 30
0.0
 10
229.553908
 20
136.716206
 30
0.0
 10
229.637807
 20
136.275806
 30
0.0
 10
229.755206
 20
135.870905
 30
0.0
 10
229.906206
 20
135.501606
 30
0.0
 10
230.090706
 20
135.168005
 30
0.0
 10
230.308808
 20
134.869908
 30
0.0
 10
230.560008
 20
134.609606
 30
0.0
 10
230.843407
 20
134.389408
 30
0.0
 10
231.158906
 20
134.209206
 30
0.0
 10
231.506708
 20
134.069105
 30
0.0
 10
231.886506
 20
133.969006
 30
0.0
 10
232.298607
 20
133.908907
 30
0.0
 10
232.742808
 20
133.888898
 30
0.0
 10
233.189407
 20
133.908210
 30
0.0
  0
LWPOLYLINE
  5
114
100
AcDbEntity
  8
0
 62
7
100
AcDbPolyline
 90
57
 70
0
 10
232.450807
 20
134.805807
 30
0.0
 10
232.194007
 20
134.850505
 30
0.0
 10
231.959308
 20
134.925006
 30
0.0
 10
231.746806
 20
135.029307
 30
0.0
 10
231.556306
 20
135.163306
 30
0.0
 10
231.388008
 20
135.327207
 30
0.0
 10
231.241806
 20
135.520907
 30
0.0
 10
231.116307
 20
135.744207
 30
0.0
 10
231.010107
 20
135.997007
 30
0.0
 10
230.923208
 20
136.279407
 30
0.0
 10
230.855706
 20
136.591305
 30
0.0
 10
230.807407
 20
136.932605
 30
0.0
 10
230.778408
 20
137.303507
 30
0.0
 10
230.768813
 20
137.703907
 30
0.0
 10
230.778600
 20
138.114605
 30
0.0
 10
230.808008
 20
138.493006
 30
0.0
 10
230.856906
 20
138.839005
 30
0.0
 10
230.925508
 20
139.152706
 30
0.0
 10
231.013708
 20
139.434107
 30
0.0
 10
231.121407
 20
139.683205
 30
0.0
 10
231.248808
 20
139.899906
 30
0.0
 10
231.398106
 20
140.086407
 30
0.0
 10
231.571707
 20
140.244206
 30
0.0
 10
231.769708
 20
140.373306
 30
0.0
 10
231.992006
 20
140.473805
 30
0.0
 10
232.238606
 20
140.545507
 30
0.0
 10
232.509509
 20
140.588506
 30
0.0
 10
232.804806
 20
140.602899
 30
0.0
 10
233.097606
 20
140.588794
 30
0.0
 10
233.365308
 20
140.546706
 30
0.0
 10
233.607706
 20
140.476306
 30
0.0
 10
233.825006
 20
140.377906
 30
0.0
 10
234.017106
 20
140.251406
 30
0.0
 10
234.184007
 20
140.096706
 30
0.0
 10
234.325806
 20
139.913908
 30
0.0
 10
234.446008
 20
139.700107
 30
0.0
 10
234.547706
 20
139.452308
 30
0.0
 10
234.630908
 20
139.170506
 30
0.0
 10
234.695608
 20
138.854807
 30
0.0
 10
234.741807
 20
138.505108
 30
0.0
 10
234.769493
 20
138.121506
 30
0.0
 10
234.778821
 20
137.703907
 30
0.0
 10
234.769098
 20
137.291307
 30
0.0
 10
234.740207
 20
136.911105
 30
0.0
 10
234.691908
 20
136.563306
 30
0.0
 10
234.624307
 20
136.248106
 30
0.0
 10
234.537507
 20
135.965207
 30
0.0
 10
234.431307
 20
135.714808
 30
0.0
 10
234.305808
 20
135.496907
 30
0.0
 10
234.157808
 20
135.309607
 30
0.0
 10
233.984106
 20
135.151106
 30
0.0
 10
233.784608
 20
135.021407
 30
0.0
 10
233.559508
 20
134.920606
 30
0.0
 10
233.308607
 20
134.848507
 30
0.0
 10
233.032108
 20
134.805307
 30
0.0
 10
232.729806
 20
134.790914
 30
0.0
 10
232.450807
 20
134.805807
 30
0.0
  0
LWPOLYLINE
  5
115
100
AcDbEntity
  8
0
 62
7
100
AcDbPolyline
 90
80
 70
0
 10
239.912406
 20
133.895307
 30
0.0
 10
240.131208
 20
133.914611
 30
0.0
 10
240.339008
 20
133.946807
 30
0.0
 10
240.535807
 20
133.991807
 30
0.0
 10
240.721707
 20
134.049606
 30
0.0
 10
240.896707
 20
134.120306
 30
0.0
 10
241.060808
 20
134.203906
 30
0.0
 10
241.216606
 20
134.303206
 30
0.0
 10
241.367008
 20
134.420706
 30
0.0
 10
241.512008
 20
134.556305
 30
0.0
 10
241.651607
 20
134.710006
 30
0.0
 10
241.785707
 20
134.881806
 30
0.0
 10
241.914508
 20
135.071807
 30
0.0
 10
242.037706
 20
135.279906
 30
0.0
 10
242.057801
 20
135.279906
 30
0.0
 10
242.105807
 20
134.067307
 30
0.0
 10
242.111818
 20
134.016905
 30
0.0
 10
243.264809
 20
134.016905
 30
0.0
 10
243.253915
 20
134.119008
 30
0.0
 10
243.244706
 20
134.261905
 30
0.0
 10
243.237114
 20
134.445508
 30
0.0
 10
243.231295
 20
134.670007
 30
0.0
 10
243.227101
 20
134.935206
 30
0.0
 10
243.223804
 20
135.587907
 30
0.0
 10
243.223807
 20
141.376905
 30
0.0
 10
242.002807
 20
141.376905
 30
0.0
 10
242.002807
 20
137.115906
 30
0.0
 10
241.992308
 20
136.818607
 30
0.0
 10
241.961007
 20
136.540505
 30
0.0
 10
241.908909
 20
136.281507
 30
0.0
 10
241.835906
 20
136.041607
 30
0.0
 10
241.742008
 20
135.820906
 30
0.0
 10
241.627307
 20
135.619307
 30
0.0
 10
241.491807
 20
135.436906
 30
0.0
 10
241.338108
 20
135.276407
 30
0.0
 10
241.169108
 20
135.140607
 30
0.0
 10
240.984907
 20
135.029406
 30
0.0
 10
240.785309
 20
134.943006
 30
0.0
 10
240.570408
 20
134.881307
 30
0.0
 10
240.340207
 20
134.844206
 30
0.0
 10
240.094807
 20
134.831901
 30
0.0
 10
239.927607
 20
134.835519
 30
0.0
 10
239.772309
 20
134.846317
 30
0.0
 10
239.628906
 20
134.864198
 30
0.0
 10
239.497509
 20
134.889409
 30
0.0
 10
239.378007
 20
134.921707
 30
0.0
 10
239.270407
 20
134.961207
 30
0.0
 10
239.174807
 20
135.007906
 30
0.0
 10
239.088809
 20
135.063007
 30
0.0
 10
239.009806
 20
135.127306
 30
0.0
 10
238.937707
 20
135.200805
 30
0.0
 10
238.872607
 20
135.283307
 30
0.0
 10
238.814308
 20
135.375007
 30
0.0
 10
238.763107
 20
135.475907
 30
0.0
 10
238.718708
 20
135.585906
 30
0.0
 10
238.680808
 20
135.707106
 30
0.0
 10
238.648708
 20
135.841706
 30
0.0
 10
238.622405
 20
135.989706
 30
0.0
 10
238.602004
 20
136.150906
 30
0.0
 10
238.587415
 20
136.325607
 30
0.0
 10
238.578715
 20
136.513607
 30
0.0
 10
238.575799
 20
136.714907
 30
0.0
 10
238.575808
 20
141.376905
 30
0.0
 10
237.348807
 20
141.376905
 30
0.0
 10
237.348807
 20
136.477906
 30
0.0
 10
237.360209
 20
136.097907
 30
0.0
 10
237.394507
 20
135.749908
 30
0.0
 10
237.451807
 20
135.433906
 30
0.0
 10
237.531907
 20
135.149906
 30
0.0
 10
237.635006
 20
134.897907
 30
0.0
 10
237.760908
 20
134.677906
 30
0.0
 10
237.909808
 20
134.489907
 30
0.0
 10
238.083606
 20
134.330406
 30
0.0
 10
238.283908
 20
134.195507
 30
0.0
 10
238.510707
 20
134.085107
 30
0.0
 10
238.764008
 20
133.999306
 30
0.0
 10
239.043707
 20
133.938007
 30
0.0
 10
239.350008
 20
133.901205
 30
0.0
 10
239.682807
 20
133.888901
 30
0.0
 10
239.912406
 20
133.895313
 30
0.0
  0
LWPOLYLINE
  5
116
100
AcDbEntity
  8
0
 62
7
100
AcDbPolyline
 90
51
 70
0
 10
271.171306
 20
118.123197
 30
0.0
 10
271.901308
 20
118.310620
 30
0.0
 10
272.602308
 20
118.587904
 30
0.0
 10
273.262307
 20
118.950898
 30
0.0
 10
273.872308
 20
119.393818
 30
0.0
 10
274.421306
 20
119.909607
 30
0.0
 10
274.901307
 20
120.490194
 30
0.0
 10
275.305308
 20
121.126405
 30
0.0
 10
275.626308
 20
121.808206
 30
0.0
 10
275.858306
 20
122.524805
 30
0.0
 10
276.000306
 20
123.264907
 30
0.0
 10
276.047307
 20
124.016905
 30
0.0
 10
276.000306
 20
124.768906
 30
0.0
 10
275.858306
 20
125.509006
 30
0.0
 10
275.626308
 20
126.225706
 30
0.0
 10
275.305308
 20
126.907406
 30
0.0
 10
274.901307
 20
127.543605
 30
0.0
 10
274.421306
 20
128.124207
 30
0.0
 10
273.872308
 20
128.640007
 30
0.0
 10
273.262307
 20
129.082907
 30
0.0
 10
272.602308
 20
129.445907
 30
0.0
 10
271.901308
 20
129.723207
 30
0.0
 10
271.171306
 20
129.910606
 30
0.0
 10
270.424306
 20
130.005105
 30
0.0
 10
269.670307
 20
130.005105
 30
0.0
 10
268.923307
 20
129.910606
 30
0.0
 10
268.193308
 20
129.723207
 30
0.0
 10
267.492308
 20
129.445907
 30
0.0
 10
266.832309
 20
129.082907
 30
0.0
 10
266.222308
 20
128.640007
 30
0.0
 10
265.673307
 20
128.124207
 30
0.0
 10
265.193309
 20
127.543605
 30
0.0
 10
264.789308
 20
126.907406
 30
0.0
 10
264.468308
 20
126.225706
 30
0.0
 10
264.236307
 20
125.509006
 30
0.0
 10
264.094307
 20
124.768906
 30
0.0
 10
264.047309
 20
124.016905
 30
0.0
 10
264.094307
 20
123.264907
 30
0.0
 10
264.236307
 20
122.524805
 30
0.0
 10
264.468308
 20
121.808206
 30
0.0
 10
264.789308
 20
121.126405
 30
0.0
 10
265.193309
 20
120.490194
 30
0.0
 10
265.673307
 20
119.909607
 30
0.0
 10
266.222308
 20
119.393818
 30
0.0
 10
266.832309
 20
118.950898
 30
0.0
 10
267.492308
 20
118.587904
 30
0.0
 10
268.193308
 20
118.310620
 30
0.0
 10
268.923307
 20
118.123197
 30
0.0
 10
269.670307
 20
118.028709
 30
0.0
 10
270.424306
 20
118.028709
 30
0.0
 10
271.171306
 20
118.123197
 30
0.0
  0
LWPOLYLINE
  5
117
100
AcDbEntity
  8
0
 62
7
100
AcDbPolyline
 90
76
 70
0
 10
223.544807
 20
123.352907
 30
0.0
 10
223.555419
 20
123.633907
 30
0.0
 10
223.587307
 20
123.897906
 30
0.0
 10
223.640506
 20
124.145006
 30
0.0
 10
223.714908
 20
124.375108
 30
0.0
 10
223.810607
 20
124.588307
 30
0.0
 10
223.927608
 20
124.784606
 30
0.0
 10
224.065806
 20
124.963905
 30
0.0
 10
224.221706
 20
125.122607
 30
0.0
 10
224.391708
 20
125.256806
 30
0.0
 10
224.575807
 20
125.366605
 30
0.0
 10
224.773908
 20
125.452107
 30
0.0
 10
224.986108
 20
125.513107
 30
0.0
 10
225.212408
 20
125.549705
 30
0.0
 10
225.452807
 20
125.561897
 30
0.0
 10
225.613107
 20
125.558293
 30
0.0
 10
225.763108
 20
125.547414
 30
0.0
 10
225.902808
 20
125.529399
 30
0.0
 10
226.032207
 20
125.504118
 30
0.0
 10
226.151406
 20
125.471606
 30
0.0
 10
226.260307
 20
125.431807
 30
0.0
 10
226.358808
 20
125.384907
 30
0.0
 10
226.448507
 20
125.330506
 30
0.0
 10
226.530707
 20
125.267807
 30
0.0
 10
226.605307
 20
125.196908
 30
0.0
 10
226.672507
 20
125.117806
 30
0.0
 10
226.732107
 20
125.030408
 30
0.0
 10
226.784208
 20
124.934805
 30
0.0
 10
226.828807
 20
124.830905
 30
0.0
 10
226.866808
 20
124.715106
 30
0.0
 10
226.898908
 20
124.583007
 30
0.0
 10
226.925099
 20
124.434606
 30
0.0
 10
226.945596
 20
124.270107
 30
0.0
 10
226.960114
 20
124.089307
 30
0.0
 10
226.968914
 20
123.892206
 30
0.0
 10
226.971815
 20
123.678908
 30
0.0
 10
226.971806
 20
119.016910
 30
0.0
 10
228.198807
 20
119.016910
 30
0.0
 10
228.198807
 20
123.915907
 30
0.0
 10
228.187208
 20
124.299407
 30
0.0
 10
228.152407
 20
124.650105
 30
0.0
 10
228.094506
 20
124.967907
 30
0.0
 10
228.013308
 20
125.252706
 30
0.0
 10
227.909007
 20
125.504708
 30
0.0
 10
227.781508
 20
125.723706
 30
0.0
 10
227.630807
 20
125.909905
 30
0.0
 10
227.455707
 20
126.067707
 30
0.0
 10
227.254808
 20
126.201305
 30
0.0
 10
227.028208
 20
126.310607
 30
0.0
 10
226.776006
 20
126.395607
 30
0.0
 10
226.498006
 20
126.456307
 30
0.0
 10
226.194208
 20
126.492706
 30
0.0
 10
225.864807
 20
126.504898
 30
0.0
 10
225.628008
 20
126.497992
 30
0.0
 10
225.403207
 20
126.477403
 30
0.0
 10
225.190408
 20
126.443006
 30
0.0
 10
224.989706
 20
126.394805
 30
0.0
 10
224.801007
 20
126.333007
 30
0.0
 10
224.624406
 20
126.257307
 30
0.0
 10
224.459808
 20
126.167907
 30
0.0
 10
224.304806
 20
126.064007
 30
0.0
 10
224.156208
 20
125.944506
 30
0.0
 10
224.014208
 20
125.809406
 30
0.0
 10
223.878608
 20
125.658507
 30
0.0
 10
223.749506
 20
125.492005
 30
0.0
 10
223.626906
 20
125.309808
 30
0.0
 10
223.510808
 20
125.111905
 30
0.0
 10
223.489811
 20
125.111905
 30
0.0
 10
223.520807
 20
125.616905
 30
0.0
 10
223.537007
 20
125.987406
 30
0.0
 10
223.544316
 20
126.347906
 30
0.0
 10
223.544872
 20
129.064907
 30
0.0
 10
222.323807
 20
129.064907
 30
0.0
 10
222.323807
 20
119.016910
 30
0.0
 10
223.544807
 20
119.016910
 30
0.0
 10
223.544807
 20
123.352907
 30
0.0
  0
LWPOLYLINE
  5
118
100
AcDbEntity
  8
0
 62
7
100
AcDbPolyline
 90
135
 70
0
 10
217.091308
 20
120.054895
 30
0.0
 10
212.090308
 20
120.054895
 30
0.0
 10
212.153808
 20
120.191716
 30
0.0
 10
212.227908
 20
120.330005
 30
0.0
 10
212.312507
 20
120.469903
 30
0.0
 10
212.407706
 20
120.611296
 30
0.0
 10
212.513308
 20
120.754298
 30
0.0
 10
212.629606
 20
120.898807
 30
0.0
 10
212.756307
 20
121.044905
 30
0.0
 10
212.895107
 20
121.194305
 30
0.0
 10
213.047007
 20
121.348906
 30
0.0
 10
213.211907
 20
121.508607
 30
0.0
 10
213.389907
 20
121.673507
 30
0.0
 10
213.581008
 20
121.843506
 30
0.0
 10
213.785109
 20
122.018606
 30
0.0
 10
214.002307
 20
122.198906
 30
0.0
 10
214.389806
 20
122.516807
 30
0.0
 10
214.739906
 20
122.810106
 30
0.0
 10
215.052408
 20
123.078607
 30
0.0
 10
215.327408
 20
123.322506
 30
0.0
 10
215.564807
 20
123.541607
 30
0.0
 10
215.764807
 20
123.736106
 30
0.0
 10
215.927308
 20
123.905907
 30
0.0
 10
216.066206
 20
124.063608
 30
0.0
 10
216.195007
 20
124.221206
 30
0.0
 10
216.313608
 20
124.378906
 30
0.0
 10
216.422007
 20
124.536406
 30
0.0
 10
216.520206
 20
124.693906
 30
0.0
 10
216.608406
 20
124.851406
 30
0.0
 10
216.686308
 20
125.008905
 30
0.0
 10
216.753908
 20
125.166507
 30
0.0
 10
216.811208
 20
125.324306
 30
0.0
 10
216.858006
 20
125.482505
 30
0.0
 10
216.894506
 20
125.640905
 30
0.0
 10
216.920499
 20
125.799607
 30
0.0
 10
216.936114
 20
125.958606
 30
0.0
 10
216.941301
 20
126.117906
 30
0.0
 10
216.925418
 20
126.465906
 30
0.0
 10
216.877708
 20
126.790408
 30
0.0
 10
216.798206
 20
127.091406
 30
0.0
 10
216.686906
 20
127.369006
 30
0.0
 10
216.543808
 20
127.623107
 30
0.0
 10
216.369008
 20
127.853705
 30
0.0
 10
216.162306
 20
128.060907
 30
0.0
 10
215.926306
 20
128.242407
 30
0.0
 10
215.663007
 20
128.395905
 30
0.0
 10
215.372408
 20
128.521505
 30
0.0
 10
215.054406
 20
128.619306
 30
0.0
 10
214.709008
 20
128.689007
 30
0.0
 10
214.336308
 20
128.730906
 30
0.0
 10
213.936306
 20
128.744904
 30
0.0
 10
213.569209
 20
128.731106
 30
0.0
 10
213.221708
 20
128.689506
 30
0.0
 10
212.893707
 20
128.620407
 30
0.0
 10
212.585308
 20
128.523506
 30
0.0
 10
212.296406
 20
128.399007
 30
0.0
 10
212.027107
 20
128.246807
 30
0.0
 10
211.777306
 20
128.066907
 30
0.0
 10
211.551907
 20
127.863606
 30
0.0
 10
211.355308
 20
127.641308
 30
0.0
 10
211.187307
 20
127.399807
 30
0.0
 10
211.048007
 20
127.139206
 30
0.0
 10
210.937407
 20
126.859606
 30
0.0
 10
210.855506
 20
126.560806
 30
0.0
 10
210.802307
 20
126.242905
 30
0.0
 10
212.049306
 20
126.127905
 30
0.0
 10
212.083207
 20
126.339707
 30
0.0
 10
212.134306
 20
126.537607
 30
0.0
 10
212.202406
 20
126.721506
 30
0.0
 10
212.287508
 20
126.891308
 30
0.0
 10
212.389706
 20
127.047207
 30
0.0
 10
212.509007
 20
127.189007
 30
0.0
 10
212.645306
 20
127.316907
 30
0.0
 10
212.796007
 20
127.429407
 30
0.0
 10
212.958008
 20
127.524606
 30
0.0
 10
213.131208
 20
127.602406
 30
0.0
 10
213.315708
 20
127.663008
 30
0.0
 10
213.511308
 20
127.706306
 30
0.0
 10
213.718208
 20
127.732214
 30
0.0
 10
213.936306
 20
127.740898
 30
0.0
 10
214.164407
 20
127.732017
 30
0.0
 10
214.377707
 20
127.705194
 30
0.0
 10
214.576307
 20
127.660606
 30
0.0
 10
214.760107
 20
127.598207
 30
0.0
 10
214.929308
 20
127.517906
 30
0.0
 10
215.083607
 20
127.419806
 30
0.0
 10
215.223307
 20
127.303905
 30
0.0
 10
215.346407
 20
127.172108
 30
0.0
 10
215.450606
 20
127.025806
 30
0.0
 10
215.535806
 20
126.865007
 30
0.0
 10
215.602106
 20
126.689705
 30
0.0
 10
215.649406
 20
126.499905
 30
0.0
 10
215.677806
 20
126.295607
 30
0.0
 10
215.687317
 20
126.076908
 30
0.0
 10
215.681803
 20
125.912205
 30
0.0
 10
215.665298
 20
125.752606
 30
0.0
 10
215.637903
 20
125.597906
 30
0.0
 10
215.599507
 20
125.448207
 30
0.0
 10
215.550008
 20
125.303407
 30
0.0
 10
215.489708
 20
125.163707
 30
0.0
 10
215.418306
 20
125.028906
 30
0.0
 10
215.338008
 20
124.897707
 30
0.0
 10
215.250906
 20
124.768206
 30
0.0
 10
215.157008
 20
124.640207
 30
0.0
 10
215.056308
 20
124.514006
 30
0.0
 10
214.948807
 20
124.389306
 30
0.0
 10
214.834507
 20
124.266305
 30
0.0
 10
214.713306
 20
124.144907
 30
0.0
 10
214.586907
 20
124.024305
 30
0.0
 10
214.456106
 20
123.903808
 30
0.0
 10
214.321006
 20
123.783206
 30
0.0
 10
214.181507
 20
123.662607
 30
0.0
 10
214.037807
 20
123.542007
 30
0.0
 10
213.889709
 20
123.421507
 30
0.0
 10
213.582806
 20
123.178906
 30
0.0
 10
213.272206
 20
122.926105
 30
0.0
 10
212.959707
 20
122.661807
 30
0.0
 10
212.645306
 20
122.385907
 30
0.0
 10
212.488907
 20
122.242707
 30
0.0
 10
212.334608
 20
122.094707
 30
0.0
 10
212.182408
 20
121.942008
 30
0.0
 10
212.032207
 20
121.784607
 30
0.0
 10
211.884206
 20
121.622405
 30
0.0
 10
211.738207
 20
121.455507
 30
0.0
 10
211.594308
 20
121.283908
 30
0.0
 10
211.454608
 20
121.106108
 30
0.0
 10
211.321108
 20
120.920606
 30
0.0
 10
211.193806
 20
120.727515
 30
0.0
 10
211.072806
 20
120.526799
 30
0.0
 10
210.958108
 20
120.318519
 30
0.0
 10
210.849608
 20
120.102506
 30
0.0
 10
210.747308
 20
119.878901
 30
0.0
 10
210.747308
 20
119.016910
 30
0.0
 10
217.091308
 20
119.016910
 30
0.0
 10
217.091308
 20
120.054895
 30
0.0
  0
LWPOLYLINE
  5
119
100
AcDbEntity
  8
0
 62
7
100
AcDbPolyline
 90
50
 70
0
 10
233.189407
 20
118.908198
 30
0.0
 10
233.604709
 20
118.965912
 30
0.0
 10
233.988607
 20
119.062094
 30
0.0
 10
234.341207
 20
119.196798
 30
0.0
 10
234.662407
 20
119.369998
 30
0.0
 10
234.952306
 20
119.581693
 30
0.0
 10
235.210807
 20
119.831911
 30
0.0
 10
235.436308
 20
120.121697
 30
0.0
 10
235.627108
 20
120.451699
 30
0.0
 10
235.783207
 20
120.821806
 30
0.0
 10
235.904707
 20
121.232007
 30
0.0
 10
235.991408
 20
121.682507
 30
0.0
 10
236.043408
 20
122.173105
 30
0.0
 10
236.060793
 20
122.703906
 30
0.0
 10
236.044494
 20
123.239606
 30
0.0
 10
235.995808
 20
123.733605
 30
0.0
 10
235.914607
 20
124.185906
 30
0.0
 10
235.800908
 20
124.596505
 30
0.0
 10
235.654706
 20
124.965305
 30
0.0
 10
235.476006
 20
125.292508
 30
0.0
 10
235.264808
 20
125.577908
 30
0.0
 10
235.019509
 20
125.823805
 30
0.0
 10
234.737808
 20
126.031907
 30
0.0
 10
234.419707
 20
126.202206
 30
0.0
 10
234.065307
 20
126.334607
 30
0.0
 10
233.674508
 20
126.429206
 30
0.0
 10
233.247308
 20
126.486006
 30
0.0
 10
232.783806
 20
126.504914
 30
0.0
 10
231.909106
 20
126.427306
 30
0.0
 10
231.168908
 20
126.194606
 30
0.0
 10
230.563406
 20
125.806807
 30
0.0
 10
230.092408
 20
125.263806
 30
0.0
 10
229.755906
 20
124.565608
 30
0.0
 10
229.554106
 20
123.712306
 30
0.0
 10
229.486807
 20
122.703906
 30
0.0
 10
229.503599
 20
122.192308
 30
0.0
 10
229.553908
 20
121.716207
 30
0.0
 10
229.637807
 20
121.275805
 30
0.0
 10
229.755206
 20
120.870907
 30
0.0
 10
229.906206
 20
120.501596
 30
0.0
 10
230.090706
 20
120.168010
 30
0.0
 10
230.308808
 20
119.869898
 30
0.0
 10
230.560008
 20
119.609605
 30
0.0
 10
230.843407
 20
119.389415
 30
0.0
 10
231.158906
 20
119.209216
 30
0.0
 10
231.506708
 20
119.069093
 30
0.0
 10
231.886506
 20
118.969017
 30
0.0
 10
232.298607
 20
118.908903
 30
0.0
 10
232.742808
 20
118.888866
 30
0.0
 10
233.189407
 20
118.908085
 30
0.0
  0
LWPOLYLINE
  5
11a
100
AcDbEntity
  8
0
 62
7
100
AcDbPolyline
 90
57
 70
0
 10
232.450807
 20
119.805806
 30
0.0
 10
232.194007
 20
119.850510
 30
0.0
 10
231.959308
 20
119.925016
 30
0.0
 10
231.746806
 20
120.029297
 30
0.0
 10
231.556306
 20
120.163296
 30
0.0
 10
231.388008
 20
120.327211
 30
0.0
 10
231.241806
 20
120.520900
 30
0.0
 10
231.116307
 20
120.744194
 30
0.0
 10
231.010107
 20
120.997006
 30
0.0
 10
230.923208
 20
121.279406
 30
0.0
 10
230.855706
 20
121.591307
 30
0.0
 10
230.807407
 20
121.932607
 30
0.0
 10
230.778408
 20
122.303506
 30
0.0
 10
230.768813
 20
122.703906
 30
0.0
 10
230.778600
 20
123.114607
 30
0.0
 10
230.808008
 20
123.493005
 30
0.0
 10
230.856906
 20
123.839007
 30
0.0
 10
230.925508
 20
124.152705
 30
0.0
 10
231.013708
 20
124.434106
 30
0.0
 10
231.121407
 20
124.683207
 30
0.0
 10
231.248808
 20
124.899905
 30
0.0
 10
231.398106
 20
125.086406
 30
0.0
 10
231.571707
 20
125.244205
 30
0.0
 10
231.769708
 20
125.373308
 30
0.0
 10
231.992006
 20
125.473807
 30
0.0
 10
232.238606
 20
125.545506
 30
0.0
 10
232.509509
 20
125.588505
 30
0.0
 10
232.804806
 20
125.602898
 30
0.0
 10
233.097606
 20
125.588796
 30
0.0
 10
233.365308
 20
125.546705
 30
0.0
 10
233.607706
 20
125.476308
 30
0.0
 10
233.825006
 20
125.377905
 30
0.0
 10
234.017106
 20
125.251405
 30
0.0
 10
234.184007
 20
125.096707
 30
0.0
 10
234.325806
 20
124.913906
 30
0.0
 10
234.446008
 20
124.700106
 30
0.0
 10
234.547706
 20
124.452307
 30
0.0
 10
234.630908
 20
124.170508
 30
0.0
 10
234.695608
 20
123.854805
 30
0.0
 10
234.741807
 20
123.505107
 30
0.0
 10
234.769493
 20
123.121507
 30
0.0
 10
234.778821
 20
122.703906
 30
0.0
 10
234.769098
 20
122.291306
 30
0.0
 10
234.740207
 20
121.911107
 30
0.0
 10
234.691908
 20
121.563308
 30
0.0
 10
234.624307
 20
121.248105
 30
0.0
 10
234.537507
 20
120.965206
 30
0.0
 10
234.431307
 20
120.714815
 30
0.0
 10
234.305808
 20
120.496911
 30
0.0
 10
234.157808
 20
120.309600
 30
0.0
 10
233.984106
 20
120.151104
 30
0.0
 10
233.784608
 20
120.021395
 30
0.0
 10
233.559508
 20
119.920614
 30
0.0
 10
233.308607
 20
119.848506
 30
0.0
 10
233.032108
 20
119.805298
 30
0.0
 10
232.729806
 20
119.790904
 30
0.0
 10
232.450807
 20
119.805862
 30
0.0
  0
LWPOLYLINE
  5
11b
100
AcDbEntity
  8
0
 62
7
100
AcDbPolyline
 90
55
 70
0
 10
246.167707
 20
122.850907
 30
0.0
 10
246.175807
 20
123.188707
 30
0.0
 10
246.200219
 20
123.503507
 30
0.0
 10
246.240808
 20
123.795005
 30
0.0
 10
246.297707
 20
124.063506
 30
0.0
 10
246.370808
 20
124.308805
 30
0.0
 10
246.460106
 20
124.530906
 30
0.0
 10
246.565708
 20
124.729906
 30
0.0
 10
246.686708
 20
124.903907
 30
0.0
 10
246.822307
 20
125.051208
 30
0.0
 10
246.972407
 20
125.171705
 30
0.0
 10
247.137106
 20
125.265406
 30
0.0
 10
247.316408
 20
125.332307
 30
0.0
 10
247.510308
 20
125.372506
 30
0.0
 10
247.718707
 20
125.385912
 30
0.0
 10
247.830907
 20
125.384495
 30
0.0
 10
247.936408
 20
125.380301
 30
0.0
 10
248.035408
 20
125.373392
 30
0.0
 10
248.127907
 20
125.363698
 30
0.0
 10
248.213708
 20
125.351204
 30
0.0
 10
248.293007
 20
125.335911
 30
0.0
 10
248.365707
 20
125.317902
 30
0.0
 10
248.365707
 20
126.436907
 30
0.0
 10
248.294508
 20
126.454913
 30
0.0
 10
248.223507
 20
126.470204
 30
0.0
 10
248.152909
 20
126.482709
 30
0.0
 10
248.082607
 20
126.492415
 30
0.0
 10
248.012706
 20
126.499321
 30
0.0
 10
247.943009
 20
126.503512
 30
0.0
 10
247.873706
 20
126.504917
 30
0.0
 10
247.683508
 20
126.497794
 30
0.0
 10
247.505906
 20
126.476610
 30
0.0
 10
247.340907
 20
126.441307
 30
0.0
 10
247.188708
 20
126.391907
 30
0.0
 10
247.049008
 20
126.328407
 30
0.0
 10
246.922107
 20
126.250706
 30
0.0
 10
246.807708
 20
126.158907
 30
0.0
 10
246.701508
 20
126.047906
 30
0.0
 10
246.598908
 20
125.912507
 30
0.0
 10
246.499908
 20
125.752806
 30
0.0
 10
246.404508
 20
125.568905
 30
0.0
 10
246.312608
 20
125.360506
 30
0.0
 10
246.224408
 20
125.127907
 30
0.0
 10
246.139708
 20
124.870907
 30
0.0
 10
246.112699
 20
124.870907
 30
0.0
 10
246.108305
 20
125.096707
 30
0.0
 10
246.085222
 20
125.742107
 30
0.0
 10
246.058707
 20
126.376907
 30
0.0
 10
244.905708
 20
126.376907
 30
0.0
 10
244.925802
 20
125.853706
 30
0.0
 10
244.939213
 20
125.357306
 30
0.0
 10
244.945896
 20
124.887708
 30
0.0
 10
244.946754
 20
119.016910
 30
0.0
 10
246.167707
 20
119.016910
 30
0.0
 10
246.167707
 20
122.850907
 30
0.0
  0
LWPOLYLINE
  5
11c
100
AcDbEntity
  8
0
 62
7
100
AcDbPolyline
 90
171
 70
0
 10
252.377307
 20
118.900296
 30
0.0
 10
252.743307
 20
118.934614
 30
0.0
 10
253.084307
 20
118.991820
 30
0.0
 10
253.399307
 20
119.071802
 30
0.0
 10
253.688308
 20
119.174616
 30
0.0
 10
253.951308
 20
119.300317
 30
0.0
 10
254.189306
 20
119.448907
 30
0.0
 10
254.398309
 20
119.618495
 30
0.0
 10
254.574308
 20
119.807499
 30
0.0
 10
254.719308
 20
120.015807
 30
0.0
 10
254.831308
 20
120.243306
 30
0.0
 10
254.912309
 20
120.490194
 30
0.0
 10
254.960306
 20
120.756415
 30
0.0
 10
254.976308
 20
121.041905
 30
0.0
 10
254.973317
 20
121.159707
 30
0.0
 10
254.965321
 20
121.273807
 30
0.0
 10
254.951309
 20
121.384105
 30
0.0
 10
254.931297
 20
121.490706
 30
0.0
 10
254.906303
 20
121.593506
 30
0.0
 10
254.875307
 20
121.692605
 30
0.0
 10
254.839306
 20
121.787906
 30
0.0
 10
254.798308
 20
121.879806
 30
0.0
 10
254.752308
 20
121.968506
 30
0.0
 10
254.702307
 20
122.054008
 30
0.0
 10
254.647308
 20
122.136507
 30
0.0
 10
254.587307
 20
122.215806
 30
0.0
 10
254.523308
 20
122.291907
 30
0.0
 10
254.454307
 20
122.364906
 30
0.0
 10
254.379307
 20
122.435406
 30
0.0
 10
254.297307
 20
122.504107
 30
0.0
 10
254.207306
 20
122.570906
 30
0.0
 10
254.110307
 20
122.635907
 30
0.0
 10
254.006308
 20
122.699105
 30
0.0
 10
253.894308
 20
122.760407
 30
0.0
 10
253.775306
 20
122.819905
 30
0.0
 10
253.641307
 20
122.879505
 30
0.0
 10
253.485309
 20
122.940606
 30
0.0
 10
253.307308
 20
123.003307
 30
0.0
 10
253.106307
 20
123.067405
 30
0.0
 10
252.883309
 20
123.133005
 30
0.0
 10
252.638306
 20
123.200205
 30
0.0
 10
252.370308
 20
123.268907
 30
0.0
 10
252.090307
 20
123.338107
 30
0.0
 10
251.840309
 20
123.402906
 30
0.0
 10
251.618307
 20
123.463307
 30
0.0
 10
251.425306
 20
123.519305
 30
0.0
 10
251.261307
 20
123.570907
 30
0.0
 10
251.126306
 20
123.618106
 30
0.0
 10
251.020306
 20
123.660908
 30
0.0
 10
250.932307
 20
123.702707
 30
0.0
 10
250.849308
 20
123.746906
 30
0.0
 10
250.774307
 20
123.793606
 30
0.0
 10
250.704308
 20
123.842805
 30
0.0
 10
250.642306
 20
123.894407
 30
0.0
 10
250.585306
 20
123.948407
 30
0.0
 10
250.535307
 20
124.004905
 30
0.0
 10
250.492308
 20
124.065106
 30
0.0
 10
250.455306
 20
124.129605
 30
0.0
 10
250.425308
 20
124.198507
 30
0.0
 10
250.402307
 20
124.271806
 30
0.0
 10
250.385318
 20
124.349507
 30
0.0
 10
250.375316
 20
124.431507
 30
0.0
 10
250.372316
 20
124.517906
 30
0.0
 10
250.380294
 20
124.656706
 30
0.0
 10
250.404297
 20
124.785007
 30
0.0
 10
250.445307
 20
124.902905
 30
0.0
 10
250.501308
 20
125.010305
 30
0.0
 10
250.574308
 20
125.107305
 30
0.0
 10
250.663306
 20
125.193806
 30
0.0
 10
250.768307
 20
125.269907
 30
0.0
 10
250.890306
 20
125.335908
 30
0.0
 10
251.030308
 20
125.391906
 30
0.0
 10
251.188307
 20
125.437606
 30
0.0
 10
251.364307
 20
125.473206
 30
0.0
 10
251.558306
 20
125.498606
 30
0.0
 10
251.769307
 20
125.513818
 30
0.0
 10
251.998308
 20
125.518915
 30
0.0
 10
252.207308
 20
125.513600
 30
0.0
 10
252.403308
 20
125.497604
 30
0.0
 10
252.587308
 20
125.471022
 30
0.0
 10
252.758307
 20
125.433706
 30
0.0
 10
252.917308
 20
125.385706
 30
0.0
 10
253.063307
 20
125.327105
 30
0.0
 10
253.197306
 20
125.257907
 30
0.0
 10
253.318306
 20
125.178707
 30
0.0
 10
253.425308
 20
125.090106
 30
0.0
 10
253.518309
 20
124.992308
 30
0.0
 10
253.596307
 20
124.885207
 30
0.0
 10
253.661308
 20
124.768706
 30
0.0
 10
253.712308
 20
124.643007
 30
0.0
 10
253.748306
 20
124.507907
 30
0.0
 10
254.846308
 20
124.643907
 30
0.0
 10
254.781307
 20
124.902508
 30
0.0
 10
254.694306
 20
125.140105
 30
0.0
 10
254.585306
 20
125.356707
 30
0.0
 10
254.455306
 20
125.552307
 30
0.0
 10
254.304306
 20
125.726805
 30
0.0
 10
254.131307
 20
125.880408
 30
0.0
 10
253.936308
 20
126.012905
 30
0.0
 10
253.721308
 20
126.126407
 30
0.0
 10
253.485309
 20
126.222506
 30
0.0
 10
253.228308
 20
126.301108
 30
0.0
 10
252.952306
 20
126.362308
 30
0.0
 10
252.654308
 20
126.406007
 30
0.0
 10
252.336308
 20
126.432197
 30
0.0
 10
251.998308
 20
126.440898
 30
0.0
 10
251.618307
 20
126.430210
 30
0.0
 10
251.265306
 20
126.398206
 30
0.0
 10
250.939308
 20
126.344807
 30
0.0
 10
250.640308
 20
126.270106
 30
0.0
 10
250.368308
 20
126.174105
 30
0.0
 10
250.122306
 20
126.056607
 30
0.0
 10
249.903307
 20
125.917906
 30
0.0
 10
249.713307
 20
125.758806
 30
0.0
 10
249.551306
 20
125.580208
 30
0.0
 10
249.419308
 20
125.382206
 30
0.0
 10
249.317307
 20
125.164706
 30
0.0
 10
249.244307
 20
124.927908
 30
0.0
 10
249.200306
 20
124.671607
 30
0.0
 10
249.185292
 20
124.395907
 30
0.0
 10
249.190301
 20
124.245006
 30
0.0
 10
249.206309
 20
124.101106
 30
0.0
 10
249.231311
 20
123.964107
 30
0.0
 10
249.267308
 20
123.833907
 30
0.0
 10
249.314307
 20
123.710706
 30
0.0
 10
249.370308
 20
123.594306
 30
0.0
 10
249.437308
 20
123.484905
 30
0.0
 10
249.513307
 20
123.381206
 30
0.0
 10
249.597308
 20
123.282007
 30
0.0
 10
249.689307
 20
123.187308
 30
0.0
 10
249.789307
 20
123.097107
 30
0.0
 10
249.897307
 20
123.011506
 30
0.0
 10
250.013306
 20
122.930406
 30
0.0
 10
250.136307
 20
122.853907
 30
0.0
 10
250.276306
 20
122.779406
 30
0.0
 10
250.441308
 20
122.704507
 30
0.0
 10
250.631308
 20
122.629208
 30
0.0
 10
250.846308
 20
122.553507
 30
0.0
 10
251.086307
 20
122.477406
 30
0.0
 10
251.350306
 20
122.400805
 30
0.0
 10
252.520306
 20
122.093905
 30
0.0
 10
252.704306
 20
122.042007
 30
0.0
 10
252.872308
 20
121.986108
 30
0.0
 10
253.026308
 20
121.926406
 30
0.0
 10
253.164306
 20
121.862906
 30
0.0
 10
253.287307
 20
121.795407
 30
0.0
 10
253.396307
 20
121.724107
 30
0.0
 10
253.489308
 20
121.648906
 30
0.0
 10
253.569306
 20
121.568408
 30
0.0
 10
253.636306
 20
121.481407
 30
0.0
 10
253.691308
 20
121.387706
 30
0.0
 10
253.734308
 20
121.287407
 30
0.0
 10
253.765307
 20
121.180507
 30
0.0
 10
253.783313
 20
121.067006
 30
0.0
 10
253.789318
 20
120.946906
 30
0.0
 10
253.780304
 20
120.791495
 30
0.0
 10
253.754314
 20
120.647505
 30
0.0
 10
253.709308
 20
120.515115
 30
0.0
 10
253.647307
 20
120.394098
 30
0.0
 10
253.568307
 20
120.284511
 30
0.0
 10
253.470308
 20
120.186495
 30
0.0
 10
253.355308
 20
120.099909
 30
0.0
 10
253.221307
 20
120.025092
 30
0.0
 10
253.066307
 20
119.961818
 30
0.0
 10
252.891307
 20
119.910002
 30
0.0
 10
252.695306
 20
119.869701
 30
0.0
 10
252.479308
 20
119.840914
 30
0.0
 10
252.242306
 20
119.823698
 30
0.0
 10
251.985306
 20
119.817969
 30
0.0
 10
251.743306
 20
119.823557
 30
0.0
 10
251.517308
 20
119.840152
 30
0.0
  0
LWPOLYLINE
  5
11d
100
AcDbEntity
  8
0
 62
7
100
AcDbPolyline
 90
2
 70
0
 10
251.517308
 20
119.840293
 30
0.0
 10
251.306307
 20
119.868515
 30
0.0
  0
LWPOLYLINE
  5
11e
100
AcDbEntity
  8
0
 62
7
100
AcDbPolyline
 90
27
 70
0
 10
251.306307
 20
119.868402
 30
0.0
 10
251.111306
 20
119.907716
 30
0.0
 10
250.931307
 20
119.958206
 30
0.0
 10
250.767308
 20
120.019899
 30
0.0
 10
250.619308
 20
120.092910
 30
0.0
 10
250.485306
 20
120.177916
 30
0.0
 10
250.365308
 20
120.275818
 30
0.0
 10
250.259308
 20
120.386506
 30
0.0
 10
250.166307
 20
120.510006
 30
0.0
 10
250.087308
 20
120.646517
 30
0.0
 10
250.022306
 20
120.795807
 30
0.0
 10
249.970307
 20
120.957907
 30
0.0
 10
248.892308
 20
120.747920
 30
0.0
 10
248.967207
 20
120.484804
 30
0.0
 10
249.063307
 20
120.242319
 30
0.0
 10
249.181307
 20
120.020492
 30
0.0
 10
249.319308
 20
119.819409
 30
0.0
 10
249.479308
 20
119.638899
 30
0.0
 10
249.661307
 20
119.479105
 30
0.0
 10
249.863308
 20
119.339913
 30
0.0
 10
250.089306
 20
119.220194
 30
0.0
 10
250.341308
 20
119.119018
 30
0.0
 10
250.618306
 20
119.036214
 30
0.0
 10
250.921308
 20
118.971698
 30
0.0
 10
251.250306
 20
118.925696
 30
0.0
 10
251.605308
 20
118.898038
 30
0.0
 10
251.985306
 20
118.888781
 30
0.0
  0
LWPOLYLINE
  5
11f
100
AcDbEntity
  8
0
 62
7
100
AcDbPolyline
 90
2
 70
0
 10
251.985306
 20
118.888894
 30
0.0
 10
252.377307
 20
118.900183
 30
0.0
  0
LWPOLYLINE
  5
120
100
AcDbEntity
  8
0
 62
7
100
AcDbPolyline
 90
2
 70
0
 10
239.912406
 20
118.895300
 30
0.0
 10
240.131208
 20
118.914491
 30
0.0
  0
LWPOLYLINE
  5
121
100
AcDbEntity
  8
0
 62
7
100
AcDbPolyline
 90
40
 70
0
 10
240.131208
 20
118.914604
 30
0.0
 10
240.339008
 20
118.946806
 30
0.0
 10
240.535807
 20
118.991820
 30
0.0
 10
240.721707
 20
119.049619
 30
0.0
 10
240.896707
 20
119.120316
 30
0.0
 10
241.060808
 20
119.203910
 30
0.0
 10
241.216606
 20
119.303196
 30
0.0
 10
241.367008
 20
119.420713
 30
0.0
 10
241.512008
 20
119.556293
 30
0.0
 10
241.651607
 20
119.710019
 30
0.0
 10
241.785707
 20
119.881808
 30
0.0
 10
241.914508
 20
120.071800
 30
0.0
 10
242.037706
 20
120.279911
 30
0.0
 10
242.057801
 20
120.279911
 30
0.0
 10
242.105807
 20
119.067315
 30
0.0
 10
242.111818
 20
119.016910
 30
0.0
 10
243.264809
 20
119.016910
 30
0.0
 10
243.253915
 20
119.119018
 30
0.0
 10
243.244706
 20
119.261907
 30
0.0
 10
243.237114
 20
119.445492
 30
0.0
 10
243.231295
 20
119.670000
 30
0.0
 10
243.227101
 20
119.935204
 30
0.0
 10
243.223804
 20
120.587900
 30
0.0
 10
243.223807
 20
126.376907
 30
0.0
 10
242.002807
 20
126.376907
 30
0.0
 10
242.002807
 20
122.115907
 30
0.0
 10
241.992308
 20
121.818606
 30
0.0
 10
241.961007
 20
121.540507
 30
0.0
 10
241.908909
 20
121.281506
 30
0.0
 10
241.835906
 20
121.041606
 30
0.0
 10
241.742008
 20
120.820905
 30
0.0
 10
241.627307
 20
120.619311
 30
0.0
 10
241.491807
 20
120.436911
 30
0.0
 10
241.338108
 20
120.276411
 30
0.0
 10
241.169108
 20
120.140606
 30
0.0
 10
240.984907
 20
120.029410
 30
0.0
 10
240.785309
 20
119.942994
 30
0.0
 10
240.570408
 20
119.881300
 30
0.0
 10
240.340207
 20
119.844216
 30
0.0
 10
240.094807
 20
119.831798
 30
0.0
  0
LWPOLYLINE
  5
122
100
AcDbEntity
  8
0
 62
7
100
AcDbPolyline
 90
4
 70
0
 10
240.094807
 20
119.831911
 30
0.0
 10
239.927607
 20
119.835580
 30
0.0
 10
239.772309
 20
119.846220
 30
0.0
 10
239.628906
 20
119.864084
 30
0.0
  0
LWPOLYLINE
  5
123
100
AcDbEntity
  8
0
 62
7
100
AcDbPolyline
 90
36
 70
0
 10
239.628906
 20
119.864197
 30
0.0
 10
239.497509
 20
119.889315
 30
0.0
 10
239.378007
 20
119.921714
 30
0.0
 10
239.270407
 20
119.961197
 30
0.0
 10
239.174807
 20
120.007905
 30
0.0
 10
239.088809
 20
120.062995
 30
0.0
 10
239.009806
 20
120.127313
 30
0.0
 10
238.937707
 20
120.200804
 30
0.0
 10
238.872607
 20
120.283297
 30
0.0
 10
238.814308
 20
120.375020
 30
0.0
 10
238.763107
 20
120.475914
 30
0.0
 10
238.718708
 20
120.585896
 30
0.0
 10
238.680808
 20
120.707110
 30
0.0
 10
238.648708
 20
120.841705
 30
0.0
 10
238.622405
 20
120.989705
 30
0.0
 10
238.602004
 20
121.150908
 30
0.0
 10
238.587415
 20
121.325606
 30
0.0
 10
238.578715
 20
121.513606
 30
0.0
 10
238.575799
 20
121.714906
 30
0.0
 10
238.575808
 20
126.376907
 30
0.0
 10
237.348807
 20
126.376907
 30
0.0
 10
237.348807
 20
121.477907
 30
0.0
 10
237.360209
 20
121.097906
 30
0.0
 10
237.394507
 20
120.749895
 30
0.0
 10
237.451807
 20
120.433919
 30
0.0
 10
237.531907
 20
120.149919
 30
0.0
 10
237.635006
 20
119.897895
 30
0.0
 10
237.760908
 20
119.677902
 30
0.0
 10
237.909808
 20
119.489914
 30
0.0
 10
238.083606
 20
119.330402
 30
0.0
 10
238.283908
 20
119.195500
 30
0.0
 10
238.510707
 20
119.085095
 30
0.0
 10
238.764008
 20
118.999299
 30
0.0
 10
239.043707
 20
118.938000
 30
0.0
 10
239.350008
 20
118.901199
 30
0.0
 10
239.682807
 20
118.888781
 30
0.0
  0
LWPOLYLINE
  5
124
100
AcDbEntity
  8
0
 62
7
100
AcDbPolyline
 90
2
 70
0
 10
239.682807
 20
118.888894
 30
0.0
 10
239.912406
 20
118.895385
 30
0.0
  0
LWPOLYLINE
  5
125
100
AcDbEntity
  8
0
 62
7
100
AcDbPolyline
 90
51
 70
0
 10
271.171306
 20
103.123198
 30
0.0
 10
271.901308
 20
103.310566
 30
0.0
 10
272.602308
 20
103.587934
 30
0.0
 10
273.262307
 20
103.950956
 30
0.0
 10
273.872308
 20
104.393819
 30
0.0
 10
274.421306
 20
104.909637
 30
0.0
 10
274.901307
 20
105.490196
 30
0.0
 10
275.305308
 20
106.126382
 30
0.0
 10
275.626308
 20
106.808174
 30
0.0
 10
275.858306
 20
107.524764
 30
0.0
 10
276.000306
 20
108.264892
 30
0.0
 10
276.047307
 20
109.016902
 30
0.0
 10
276.000306
 20
109.768911
 30
0.0
 10
275.858306
 20
110.509039
 30
0.0
 10
275.626308
 20
111.225657
 30
0.0
 10
275.305308
 20
111.907450
 30
0.0
 10
274.901307
 20
112.543635
 30
0.0
 10
274.421306
 20
113.124194
 30
0.0
 10
273.872308
 20
113.639984
 30
0.0
 10
273.262307
 20
114.082875
 30
0.0
 10
272.602308
 20
114.445869
 30
0.0
 10
271.901308
 20
114.723237
 30
0.0
 10
271.171306
 20
114.910633
 30
0.0
 10
270.424306
 20
115.005064
 30
0.0
 10
269.670307
 20
115.005064
 30
0.0
 10
268.923307
 20
114.910633
 30
0.0
 10
268.193308
 20
114.723237
 30
0.0
 10
267.492308
 20
114.445869
 30
0.0
 10
266.832309
 20
114.082875
 30
0.0
 10
266.222308
 20
113.639984
 30
0.0
 10
265.673307
 20
113.124194
 30
0.0
 10
265.193309
 20
112.543635
 30
0.0
 10
264.789308
 20
111.907450
 30
0.0
 10
264.468308
 20
111.225657
 30
0.0
 10
264.236307
 20
110.509039
 30
0.0
 10
264.094307
 20
109.768911
 30
0.0
 10
264.047309
 20
109.016902
 30
0.0
 10
264.094307
 20
108.264892
 30
0.0
 10
264.236307
 20
107.524764
 30
0.0
 10
264.468308
 20
106.808174
 30
0.0
 10
264.789308
 20
106.126382
 30
0.0
 10
265.193309
 20
105.490196
 30
0.0
 10
265.673307
 20
104.909637
 30
0.0
 10
266.222308
 20
104.393819
 30
0.0
 10
266.832309
 20
103.950956
 30
0.0
 10
267.492308
 20
103.587934
 30
0.0
 10
268.193308
 20
103.310566
 30
0.0
 10
268.923307
 20
103.123198
 30
0.0
 10
269.670307
 20
103.028739
 30
0.0
 10
270.424306
 20
103.028739
 30
0.0
 10
271.171306
 20
103.123198
 30
0.0
  0
LWPOLYLINE
  5
126
100
AcDbEntity
  8
0
 62
7
100
AcDbPolyline
 90
17
 70
0
 10
223.544807
 20
108.352917
 30
0.0
 10
223.555419
 20
108.633870
 30
0.0
 10
223.587307
 20
108.897888
 30
0.0
 10
223.640506
 20
109.144946
 30
0.0
 10
223.714908
 20
109.375098
 30
0.0
 10
223.810607
 20
109.588317
 30
0.0
 10
223.927608
 20
109.784574
 30
0.0
 10
224.065806
 20
109.963898
 30
0.0
 10
224.221706
 20
110.122564
 30
0.0
 10
224.391708
 20
110.256788
 30
0.0
 10
224.575807
 20
110.366629
 30
0.0
 10
224.773908
 20
110.452058
 30
0.0
 10
224.986108
 20
110.513074
 30
0.0
 10
225.212408
 20
110.549707
 30
0.0
 10
225.452807
 20
110.561842
 30
0.0
 10
225.613107
 20
110.558230
 30
0.0
 10
225.763108
 20
110.547562
 30
0.0
  0
LWPOLYLINE
  5
127
100
AcDbEntity
  8
0
 62
7
100
AcDbPolyline
 90
3
 70
0
 10
225.763108
 20
110.547449
 30
0.0
 10
225.902808
 20
110.529387
 30
0.0
 10
226.032207
 20
110.503987
 30
0.0
  0
LWPOLYLINE
  5
128
100
AcDbEntity
  8
0
 62
7
100
AcDbPolyline
 90
58
 70
0
 10
226.032207
 20
110.504100
 30
0.0
 10
226.151406
 20
110.471588
 30
0.0
 10
226.260307
 20
110.431851
 30
0.0
 10
226.358808
 20
110.384917
 30
0.0
 10
226.448507
 20
110.330477
 30
0.0
 10
226.530707
 20
110.267823
 30
0.0
 10
226.605307
 20
110.196957
 30
0.0
 10
226.672507
 20
110.117794
 30
0.0
 10
226.732107
 20
110.030418
 30
0.0
 10
226.784208
 20
109.934773
 30
0.0
 10
226.828807
 20
109.830915
 30
0.0
 10
226.866808
 20
109.715063
 30
0.0
 10
226.898908
 20
109.582983
 30
0.0
 10
226.925099
 20
109.434647
 30
0.0
 10
226.945596
 20
109.270083
 30
0.0
 10
226.960114
 20
109.089263
 30
0.0
 10
226.968914
 20
108.892216
 30
0.0
 10
226.971815
 20
108.678884
 30
0.0
 10
226.971806
 20
104.016912
 30
0.0
 10
228.198807
 20
104.016912
 30
0.0
 10
228.198807
 20
108.915894
 30
0.0
 10
228.187208
 20
109.299462
 30
0.0
 10
228.152407
 20
109.650095
 30
0.0
 10
228.094506
 20
109.967878
 30
0.0
 10
228.013308
 20
110.252724
 30
0.0
 10
227.909007
 20
110.504664
 30
0.0
 10
227.781508
 20
110.723725
 30
0.0
 10
227.630807
 20
110.909907
 30
0.0
 10
227.455707
 20
111.067754
 30
0.0
 10
227.254808
 20
111.201330
 30
0.0
 10
227.028208
 20
111.310606
 30
0.0
 10
226.776006
 20
111.395612
 30
0.0
 10
226.498006
 20
111.456318
 30
0.0
 10
226.194208
 20
111.492752
 30
0.0
 10
225.864807
 20
111.504888
 30
0.0
 10
225.628008
 20
111.498115
 30
0.0
 10
225.403207
 20
111.477428
 30
0.0
 10
225.190408
 20
111.442997
 30
0.0
 10
224.989706
 20
111.394850
 30
0.0
 10
224.801007
 20
111.332958
 30
0.0
 10
224.624406
 20
111.257294
 30
0.0
 10
224.459808
 20
111.167886
 30
0.0
 10
224.304806
 20
111.064057
 30
0.0
 10
224.156208
 20
110.944536
 30
0.0
 10
224.014208
 20
110.809380
 30
0.0
 10
223.878608
 20
110.658504
 30
0.0
 10
223.749506
 20
110.491964
 30
0.0
 10
223.626906
 20
110.309790
 30
0.0
 10
223.510808
 20
110.111896
 30
0.0
 10
223.489811
 20
110.111896
 30
0.0
 10
223.520807
 20
110.616904
 30
0.0
 10
223.537007
 20
110.987377
 30
0.0
 10
223.544316
 20
111.347916
 30
0.0
 10
223.544872
 20
114.064898
 30
0.0
 10
222.323807
 20
114.064898
 30
0.0
 10
222.323807
 20
104.016912
 30
0.0
 10
223.544807
 20
104.016912
 30
0.0
 10
223.544807
 20
108.352917
 30
0.0
  0
LWPOLYLINE
  5
129
100
AcDbEntity
  8
0
 62
7
100
AcDbPolyline
 90
58
 70
0
 10
214.361406
 20
103.903825
 30
0.0
 10
214.764106
 20
103.948586
 30
0.0
 10
215.137407
 20
104.023177
 30
0.0
 10
215.481306
 20
104.127599
 30
0.0
 10
215.795708
 20
104.261852
 30
0.0
 10
216.080707
 20
104.425964
 30
0.0
 10
216.336307
 20
104.619908
 30
0.0
 10
216.559906
 20
104.841311
 30
0.0
 10
216.749207
 20
105.087239
 30
0.0
 10
216.904008
 20
105.357721
 30
0.0
 10
217.024506
 20
105.652700
 30
0.0
 10
217.110508
 20
105.972232
 30
0.0
 10
217.162106
 20
106.316317
 30
0.0
 10
217.179294
 20
106.684899
 30
0.0
 10
217.167116
 20
106.942173
 30
0.0
 10
217.130407
 20
107.186606
 30
0.0
 10
217.069306
 20
107.418197
 30
0.0
 10
216.983708
 20
107.636920
 30
0.0
 10
216.873706
 20
107.842744
 30
0.0
 10
216.739208
 20
108.035756
 30
0.0
 10
216.580308
 20
108.215898
 30
0.0
 10
216.399708
 20
108.379870
 30
0.0
 10
216.199706
 20
108.523746
 30
0.0
 10
215.980306
 20
108.647529
 30
0.0
 10
215.741408
 20
108.751246
 30
0.0
 10
215.483206
 20
108.834896
 30
0.0
 10
215.205406
 20
108.898425
 30
0.0
 10
214.908308
 20
108.941887
 30
0.0
 10
214.908308
 20
108.968980
 30
0.0
 10
215.178507
 20
109.034399
 30
0.0
 10
215.429708
 20
109.114861
 30
0.0
 10
215.661807
 20
109.210308
 30
0.0
 10
215.875006
 20
109.320742
 30
0.0
 10
216.069108
 20
109.446133
 30
0.0
 10
216.244207
 20
109.586539
 30
0.0
 10
216.400307
 20
109.741902
 30
0.0
 10
216.536707
 20
109.911998
 30
0.0
 10
216.652108
 20
110.096035
 30
0.0
 10
216.746506
 20
110.293957
 30
0.0
 10
216.819906
 20
110.505821
 30
0.0
 10
216.872306
 20
110.731599
 30
0.0
 10
216.903808
 20
110.971290
 30
0.0
 10
216.914307
 20
111.224895
 30
0.0
 10
216.898022
 20
111.553938
 30
0.0
 10
216.849108
 20
111.861560
 30
0.0
 10
216.767506
 20
112.147790
 30
0.0
 10
216.653406
 20
112.412656
 30
0.0
 10
216.506608
 20
112.656129
 30
0.0
 10
216.327307
 20
112.878210
 30
0.0
 10
216.115307
 20
113.078898
 30
0.0
 10
215.873906
 20
113.255597
 30
0.0
 10
215.606308
 20
113.405118
 30
0.0
 10
215.312506
 20
113.527434
 30
0.0
 10
214.992506
 20
113.622571
 30
0.0
 10
214.646307
 20
113.690530
 30
0.0
 10
214.273906
 20
113.731311
 30
0.0
 10
213.875307
 20
113.744858
 30
0.0
 10
213.507907
 20
113.731367
 30
0.0
  0
LWPOLYLINE
  5
12a
100
AcDbEntity
  8
0
 62
7
100
AcDbPolyline
 90
56
 70
0
 10
213.507907
 20
113.731480
 30
0.0
 10
213.160206
 20
113.691179
 30
0.0
 10
212.832007
 20
113.624038
 30
0.0
 10
212.523507
 20
113.530058
 30
0.0
 10
212.234506
 20
113.409182
 30
0.0
 10
211.965108
 20
113.261467
 30
0.0
 10
211.715308
 20
113.086885
 30
0.0
 10
211.489908
 20
112.888652
 30
0.0
 10
211.293306
 20
112.669337
 30
0.0
 10
211.125308
 20
112.428996
 30
0.0
 10
210.986006
 20
112.167546
 30
0.0
 10
210.875406
 20
111.885070
 30
0.0
 10
210.793508
 20
111.581511
 30
0.0
 10
210.740306
 20
111.256899
 30
0.0
 10
211.967307
 20
111.161903
 30
0.0
 10
211.999308
 20
111.369845
 30
0.0
 10
212.048307
 20
111.563929
 30
0.0
 10
212.114308
 20
111.744184
 30
0.0
 10
212.197507
 20
111.910639
 30
0.0
 10
212.297707
 20
112.063236
 30
0.0
 10
212.415007
 20
112.201977
 30
0.0
 10
212.549308
 20
112.326917
 30
0.0
 10
212.698807
 20
112.436729
 30
0.0
 10
212.860907
 20
112.529665
 30
0.0
 10
213.035707
 20
112.605724
 30
0.0
 10
213.223108
 20
112.664850
 30
0.0
 10
213.423206
 20
112.707098
 30
0.0
 10
213.635906
 20
112.732498
 30
0.0
 10
213.861309
 20
112.740937
 30
0.0
 10
214.107508
 20
112.731877
 30
0.0
 10
214.335707
 20
112.704784
 30
0.0
 10
214.545906
 20
112.659713
 30
0.0
 10
214.738207
 20
112.596580
 30
0.0
 10
214.912507
 20
112.515385
 30
0.0
 10
215.068906
 20
112.416155
 30
0.0
 10
215.207308
 20
112.298892
 30
0.0
 10
215.327507
 20
112.166332
 30
0.0
 10
215.429208
 20
112.020677
 30
0.0
 10
215.512407
 20
111.861927
 30
0.0
 10
215.577107
 20
111.690082
 30
0.0
 10
215.623307
 20
111.505114
 30
0.0
 10
215.650993
 20
111.307078
 30
0.0
 10
215.660292
 20
111.095892
 30
0.0
 10
215.649017
 20
110.882983
 30
0.0
 10
215.615006
 20
110.683734
 30
0.0
 10
215.558308
 20
110.498117
 30
0.0
 10
215.479108
 20
110.326102
 30
0.0
 10
215.377107
 20
110.167747
 30
0.0
 10
215.252506
 20
110.022996
 30
0.0
 10
215.105307
 20
109.891903
 30
0.0
 10
214.937507
 20
109.776474
 30
0.0
 10
214.751206
 20
109.678826
 30
0.0
 10
214.546406
 20
109.598928
 30
0.0
 10
214.323106
 20
109.536811
 30
0.0
 10
214.081306
 20
109.492418
 30
0.0
 10
213.821007
 20
109.465889
 30
0.0
  0
LWPOLYLINE
  5
12b
100
AcDbEntity
  8
0
 62
7
100
AcDbPolyline
 90
2
 70
0
 10
213.821007
 20
109.465776
 30
0.0
 10
213.542307
 20
109.457027
 30
0.0
  0
LWPOLYLINE
  5
12c
100
AcDbEntity
  8
0
 62
7
100
AcDbPolyline
 90
55
 70
0
 10
213.542307
 20
109.456886
 30
0.0
 10
212.875306
 20
109.456886
 30
0.0
 10
212.875306
 20
108.398891
 30
0.0
 10
213.569307
 20
108.398891
 30
0.0
 10
213.883206
 20
108.389860
 30
0.0
 10
214.175306
 20
108.362767
 30
0.0
 10
214.445607
 20
108.317527
 30
0.0
 10
214.694008
 20
108.254252
 30
0.0
 10
214.920607
 20
108.172888
 30
0.0
 10
215.125407
 20
108.073433
 30
0.0
 10
215.308307
 20
107.955915
 30
0.0
 10
215.468008
 20
107.822509
 30
0.0
 10
215.603108
 20
107.674935
 30
0.0
 10
215.713708
 20
107.513137
 30
0.0
 10
215.799707
 20
107.337115
 30
0.0
 10
215.861107
 20
107.146925
 30
0.0
 10
215.898008
 20
106.942512
 30
0.0
 10
215.910312
 20
106.723902
 30
0.0
 10
215.899498
 20
106.474418
 30
0.0
 10
215.867206
 20
106.243080
 30
0.0
 10
215.813307
 20
106.029918
 30
0.0
 10
215.737908
 20
105.834902
 30
0.0
 10
215.640906
 20
105.658090
 30
0.0
 10
215.522406
 20
105.499397
 30
0.0
 10
215.382308
 20
105.358906
 30
0.0
 10
215.223606
 20
105.236874
 30
0.0
 10
215.048507
 20
105.133580
 30
0.0
 10
214.857107
 20
105.049111
 30
0.0
 10
214.649408
 20
104.983382
 30
0.0
 10
214.425406
 20
104.936448
 30
0.0
 10
214.185006
 20
104.908226
 30
0.0
 10
213.928308
 20
104.898969
 30
0.0
 10
213.433807
 20
104.933513
 30
0.0
 10
213.004606
 20
105.037342
 30
0.0
 10
212.640709
 20
105.210401
 30
0.0
 10
212.342208
 20
105.452689
 30
0.0
 10
212.108906
 20
105.764206
 30
0.0
 10
211.940908
 20
106.144952
 30
0.0
 10
211.838306
 20
106.594899
 30
0.0
 10
210.577306
 20
106.479893
 30
0.0
 10
210.638207
 20
106.126410
 30
0.0
 10
210.727908
 20
105.798496
 30
0.0
 10
210.846306
 20
105.496208
 30
0.0
 10
210.993507
 20
105.219489
 30
0.0
 10
211.169306
 20
104.968367
 30
0.0
 10
211.373906
 20
104.742844
 30
0.0
 10
211.607307
 20
104.542889
 30
0.0
 10
211.867008
 20
104.369379
 30
0.0
 10
212.150706
 20
104.222567
 30
0.0
 10
212.458407
 20
104.102453
 30
0.0
 10
212.790109
 20
104.009038
 30
0.0
 10
213.145906
 20
103.942292
 30
0.0
 10
213.525608
 20
103.902273
 30
0.0
 10
213.929307
 20
103.889008
 30
0.0
 10
214.361406
 20
103.903882
 30
0.0
  0
LWPOLYLINE
  5
12d
100
AcDbEntity
  8
0
 62
7
100
AcDbPolyline
 90
50
 70
0
 10
233.189407
 20
103.908143
 30
0.0
 10
233.604709
 20
103.965886
 30
0.0
 10
233.988607
 20
104.062095
 30
0.0
 10
234.341207
 20
104.196828
 30
0.0
 10
234.662407
 20
104.370028
 30
0.0
 10
234.952306
 20
104.581695
 30
0.0
 10
235.210807
 20
104.831885
 30
0.0
 10
235.436308
 20
105.121699
 30
0.0
 10
235.627108
 20
105.451673
 30
0.0
 10
235.783207
 20
105.821779
 30
0.0
 10
235.904707
 20
106.232046
 30
0.0
 10
235.991408
 20
106.682500
 30
0.0
 10
236.043408
 20
107.173116
 30
0.0
 10
236.060793
 20
107.703919
 30
0.0
 10
236.044494
 20
108.239605
 30
0.0
 10
235.995808
 20
108.733607
 30
0.0
 10
235.914607
 20
109.185896
 30
0.0
 10
235.800908
 20
109.596473
 30
0.0
 10
235.654706
 20
109.965338
 30
0.0
 10
235.476006
 20
110.292461
 30
0.0
 10
235.264808
 20
110.577901
 30
0.0
 10
235.019509
 20
110.823829
 30
0.0
 10
234.737808
 20
111.031940
 30
0.0
 10
234.419707
 20
111.202205
 30
0.0
 10
234.065307
 20
111.334623
 30
0.0
 10
233.674508
 20
111.429224
 30
0.0
 10
233.247308
 20
111.485979
 30
0.0
 10
232.783806
 20
111.504888
 30
0.0
 10
231.909106
 20
111.427333
 30
0.0
 10
231.168908
 20
111.194613
 30
0.0
 10
230.563406
 20
110.806755
 30
0.0
 10
230.092408
 20
110.263759
 30
0.0
 10
229.755906
 20
109.565626
 30
0.0
 10
229.554106
 20
108.712327
 30
0.0
 10
229.486807
 20
107.703919
 30
0.0
 10
229.503599
 20
107.192250
 30
0.0
 10
229.553908
 20
106.716226
 30
0.0
 10
229.637807
 20
106.275762
 30
0.0
 10
229.755206
 20
105.870914
 30
0.0
 10
229.906206
 20
105.501654
 30
0.0
 10
230.090706
 20
105.167983
 30
0.0
 10
230.308808
 20
104.869900
 30
0.0
 10
230.560008
 20
104.609635
 30
0.0
 10
230.843407
 20
104.389417
 30
0.0
 10
231.158906
 20
104.209218
 30
0.0
 10
231.506708
 20
104.069066
 30
0.0
 10
231.886506
 20
103.968990
 30
0.0
 10
232.298607
 20
103.908933
 30
0.0
 10
232.742808
 20
103.888896
 30
0.0
 10
233.189407
 20
103.908115
 30
0.0
  0
LWPOLYLINE
  5
12e
100
AcDbEntity
  8
0
 62
7
100
AcDbPolyline
 90
57
 70
0
 10
232.450807
 20
104.805807
 30
0.0
 10
232.194007
 20
104.850483
 30
0.0
 10
231.959308
 20
104.924990
 30
0.0
 10
231.746806
 20
105.029271
 30
0.0
 10
231.556306
 20
105.163355
 30
0.0
 10
231.388008
 20
105.327213
 30
0.0
 10
231.241806
 20
105.520902
 30
0.0
 10
231.116307
 20
105.744224
 30
0.0
 10
231.010107
 20
105.997067
 30
0.0
 10
230.923208
 20
106.279402
 30
0.0
 10
230.855706
 20
106.591258
 30
0.0
 10
230.807407
 20
106.932634
 30
0.0
 10
230.778408
 20
107.303502
 30
0.0
 10
230.768813
 20
107.703919
 30
0.0
 10
230.778600
 20
108.114609
 30
0.0
 10
230.808008
 20
108.492956
 30
0.0
 10
230.856906
 20
108.839017
 30
0.0
 10
230.925508
 20
109.152707
 30
0.0
 10
231.013708
 20
109.434082
 30
0.0
 10
231.121407
 20
109.683172
 30
0.0
 10
231.248808
 20
109.899918
 30
0.0
 10
231.398106
 20
110.086411
 30
0.0
 10
231.571707
 20
110.244230
 30
0.0
 10
231.769708
 20
110.373346
 30
0.0
 10
231.992006
 20
110.473761
 30
0.0
 10
232.238606
 20
110.545530
 30
0.0
 10
232.509509
 20
110.588541
 30
0.0
 10
232.804806
 20
110.602934
 30
0.0
 10
233.097606
 20
110.588795
 30
0.0
 10
233.365308
 20
110.546659
 30
0.0
 10
233.607706
 20
110.476357
 30
0.0
 10
233.825006
 20
110.377918
 30
0.0
 10
234.017106
 20
110.251370
 30
0.0
 10
234.184007
 20
110.096684
 30
0.0
 10
234.325806
 20
109.913888
 30
0.0
 10
234.446008
 20
109.700049
 30
0.0
 10
234.547706
 20
109.452258
 30
0.0
 10
234.630908
 20
109.170515
 30
0.0
 10
234.695608
 20
108.854793
 30
0.0
 10
234.741807
 20
108.505120
 30
0.0
 10
234.769493
 20
108.121495
 30
0.0
 10
234.778821
 20
107.703919
 30
0.0
 10
234.769098
 20
107.291254
 30
0.0
 10
234.740207
 20
106.911072
 30
0.0
 10
234.691908
 20
106.563346
 30
0.0
 10
234.624307
 20
106.248048
 30
0.0
 10
234.537507
 20
105.965233
 30
0.0
 10
234.431307
 20
105.714845
 30
0.0
 10
234.305808
 20
105.496913
 30
0.0
 10
234.157808
 20
105.309574
 30
0.0
 10
233.984106
 20
105.151106
 30
0.0
 10
233.784608
 20
105.021425
 30
0.0
 10
233.559508
 20
104.920587
 30
0.0
 10
233.308607
 20
104.848536
 30
0.0
 10
233.032108
 20
104.805328
 30
0.0
 10
232.729806
 20
104.790934
 30
0.0
 10
232.450807
 20
104.805864
 30
0.0
  0
LWPOLYLINE
  5
12f
100
AcDbEntity
  8
0
 62
7
100
AcDbPolyline
 90
15
 70
0
 10
246.167707
 20
107.850900
 30
0.0
 10
246.175807
 20
108.188749
 30
0.0
 10
246.200219
 20
108.503455
 30
0.0
 10
246.240808
 20
108.795047
 30
0.0
 10
246.297707
 20
109.063468
 30
0.0
 10
246.370808
 20
109.308748
 30
0.0
 10
246.460106
 20
109.530885
 30
0.0
 10
246.565708
 20
109.729908
 30
0.0
 10
246.686708
 20
109.903954
 30
0.0
 10
246.822307
 20
110.051218
 30
0.0
 10
246.972407
 20
110.171698
 30
0.0
 10
247.137106
 20
110.265396
 30
0.0
 10
247.316408
 20
110.332339
 30
0.0
 10
247.510308
 20
110.372528
 30
0.0
 10
247.718707
 20
110.385792
 30
0.0
  0
LWPOLYLINE
  5
130
100
AcDbEntity
  8
0
 62
7
100
AcDbPolyline
 90
2
 70
0
 10
247.718707
 20
110.385905
 30
0.0
 10
247.830907
 20
110.383083
 30
0.0
  0
LWPOLYLINE
  5
131
100
AcDbEntity
  8
0
 62
7
100
AcDbPolyline
 90
3
 70
0
 10
247.830907
 20
110.384494
 30
0.0
 10
247.936408
 20
110.380261
 30
0.0
 10
248.035408
 20
110.373290
 30
0.0
  0
LWPOLYLINE
  5
132
100
AcDbEntity
  8
0
 62
7
100
AcDbPolyline
 90
2
 70
0
 10
248.035408
 20
110.373403
 30
0.0
 10
248.127907
 20
110.363807
 30
0.0
  0
LWPOLYLINE
  5
133
100
AcDbEntity
  8
0
 62
7
100
AcDbPolyline
 90
9
 70
0
 10
248.127907
 20
110.363694
 30
0.0
 10
248.213708
 20
110.351276
 30
0.0
 10
248.293007
 20
110.335980
 30
0.0
 10
248.365707
 20
110.317861
 30
0.0
 10
248.365707
 20
111.436901
 30
0.0
 10
248.294508
 20
111.454963
 30
0.0
 10
248.223507
 20
111.470175
 30
0.0
 10
248.152909
 20
111.482621
 30
0.0
 10
248.082607
 20
111.492301
 30
0.0
  0
LWPOLYLINE
  5
134
100
AcDbEntity
  8
0
 62
7
100
AcDbPolyline
 90
2
 70
0
 10
248.082607
 20
111.492414
 30
0.0
 10
248.012706
 20
111.499469
 30
0.0
  0
LWPOLYLINE
  5
135
100
AcDbEntity
  8
0
 62
7
100
AcDbPolyline
 90
3
 70
0
 10
248.012706
 20
111.499356
 30
0.0
 10
247.943009
 20
111.503590
 30
0.0
 10
247.873706
 20
111.503505
 30
0.0
  0
LWPOLYLINE
  5
136
100
AcDbEntity
  8
0
 62
7
100
AcDbPolyline
 90
26
 70
0
 10
247.873706
 20
111.504888
 30
0.0
 10
247.683508
 20
111.497832
 30
0.0
 10
247.505906
 20
111.476666
 30
0.0
 10
247.340907
 20
111.441360
 30
0.0
 10
247.188708
 20
111.391914
 30
0.0
 10
247.049008
 20
111.328358
 30
0.0
 10
246.922107
 20
111.250719
 30
0.0
 10
246.807708
 20
111.158912
 30
0.0
 10
246.701508
 20
111.047886
 30
0.0
 10
246.598908
 20
110.912532
 30
0.0
 10
246.499908
 20
110.752850
 30
0.0
 10
246.404508
 20
110.568870
 30
0.0
 10
246.312608
 20
110.360533
 30
0.0
 10
246.224408
 20
110.127898
 30
0.0
 10
246.139708
 20
109.870906
 30
0.0
 10
246.112699
 20
109.870906
 30
0.0
 10
246.108305
 20
110.096684
 30
0.0
 10
246.085222
 20
110.742126
 30
0.0
 10
246.058707
 20
111.376900
 30
0.0
 10
244.905708
 20
111.376900
 30
0.0
 10
244.925802
 20
110.853717
 30
0.0
 10
244.939213
 20
110.357288
 30
0.0
 10
244.945896
 20
109.887670
 30
0.0
 10
244.946754
 20
104.016912
 30
0.0
 10
246.167707
 20
104.016912
 30
0.0
 10
246.167707
 20
107.850900
 30
0.0
  0
LWPOLYLINE
  5
137
100
AcDbEntity
  8
0
 62
7
100
AcDbPolyline
 90
79
 70
0
 10
252.377307
 20
103.900354
 30
0.0
 10
252.743307
 20
103.934616
 30
0.0
 10
253.084307
 20
103.991766
 30
0.0
 10
253.399307
 20
104.071776
 30
0.0
 10
253.688308
 20
104.174617
 30
0.0
 10
253.951308
 20
104.300319
 30
0.0
 10
254.189306
 20
104.448909
 30
0.0
 10
254.398309
 20
104.618553
 30
0.0
 10
254.574308
 20
104.807501
 30
0.0
 10
254.719308
 20
105.015781
 30
0.0
 10
254.831308
 20
105.243336
 30
0.0
 10
254.912309
 20
105.490224
 30
0.0
 10
254.960306
 20
105.756416
 30
0.0
 10
254.976308
 20
106.041912
 30
0.0
 10
254.973317
 20
106.159740
 30
0.0
 10
254.965321
 20
106.273814
 30
0.0
 10
254.951309
 20
106.384135
 30
0.0
 10
254.931297
 20
106.490730
 30
0.0
 10
254.906303
 20
106.593544
 30
0.0
 10
254.875307
 20
106.692604
 30
0.0
 10
254.839306
 20
106.787910
 30
0.0
 10
254.798308
 20
106.879774
 30
0.0
 10
254.752308
 20
106.968476
 30
0.0
 10
254.702307
 20
107.054046
 30
0.0
 10
254.647308
 20
107.136483
 30
0.0
 10
254.587307
 20
107.215759
 30
0.0
 10
254.523308
 20
107.291903
 30
0.0
 10
254.454307
 20
107.364886
 30
0.0
 10
254.379307
 20
107.435413
 30
0.0
 10
254.297307
 20
107.504078
 30
0.0
 10
254.207306
 20
107.570936
 30
0.0
 10
254.110307
 20
107.635932
 30
0.0
 10
254.006308
 20
107.699065
 30
0.0
 10
253.894308
 20
107.760420
 30
0.0
 10
253.775306
 20
107.819884
 30
0.0
 10
253.641307
 20
107.879518
 30
0.0
 10
253.485309
 20
107.940619
 30
0.0
 10
253.307308
 20
108.003272
 30
0.0
 10
253.106307
 20
108.067421
 30
0.0
 10
252.883309
 20
108.133066
 30
0.0
 10
252.638306
 20
108.200235
 30
0.0
 10
252.370308
 20
108.268900
 30
0.0
 10
252.090307
 20
108.338129
 30
0.0
 10
251.840309
 20
108.402927
 30
0.0
 10
251.618307
 20
108.463351
 30
0.0
 10
251.425306
 20
108.519344
 30
0.0
 10
251.261307
 20
108.570934
 30
0.0
 10
251.126306
 20
108.618122
 30
0.0
 10
251.020306
 20
108.660906
 30
0.0
 10
250.932307
 20
108.702704
 30
0.0
 10
250.849308
 20
108.746928
 30
0.0
 10
250.774307
 20
108.793636
 30
0.0
 10
250.704308
 20
108.842770
 30
0.0
 10
250.642306
 20
108.894361
 30
0.0
 10
250.585306
 20
108.948406
 30
0.0
 10
250.535307
 20
109.004907
 30
0.0
 10
250.492308
 20
109.065077
 30
0.0
 10
250.455306
 20
109.129649
 30
0.0
 10
250.425308
 20
109.198540
 30
0.0
 10
250.402307
 20
109.271833
 30
0.0
 10
250.385318
 20
109.349472
 30
0.0
 10
250.375316
 20
109.431514
 30
0.0
 10
250.372316
 20
109.517902
 30
0.0
 10
250.380294
 20
109.656671
 30
0.0
 10
250.404297
 20
109.784998
 30
0.0
 10
250.445307
 20
109.902882
 30
0.0
 10
250.501308
 20
110.010296
 30
0.0
 10
250.574308
 20
110.107295
 30
0.0
 10
250.663306
 20
110.193825
 30
0.0
 10
250.768307
 20
110.269884
 30
0.0
 10
250.890306
 20
110.335952
 30
0.0
 10
251.030308
 20
110.391860
 30
0.0
 10
251.188307
 20
110.437580
 30
0.0
 10
251.364307
 20
110.473168
 30
0.0
 10
251.558306
 20
110.498568
 30
0.0
 10
251.769307
 20
110.513808
 30
0.0
 10
251.998308
 20
110.518916
 30
0.0
 10
252.207308
 20
110.513554
 30
0.0
 10
252.403308
 20
110.497468
 30
0.0
  0
LWPOLYLINE
  5
138
100
AcDbEntity
  8
0
 62
7
100
AcDbPolyline
 90
91
 70
0
 10
252.403308
 20
110.497580
 30
0.0
 10
252.587308
 20
110.471052
 30
0.0
 10
252.758307
 20
110.433657
 30
0.0
 10
252.917308
 20
110.385736
 30
0.0
 10
253.063307
 20
110.327146
 30
0.0
 10
253.197306
 20
110.257917
 30
0.0
 10
253.318306
 20
110.178669
 30
0.0
 10
253.425308
 20
110.090136
 30
0.0
 10
253.518309
 20
109.992318
 30
0.0
 10
253.596307
 20
109.885158
 30
0.0
 10
253.661308
 20
109.768713
 30
0.0
 10
253.712308
 20
109.642955
 30
0.0
 10
253.748306
 20
109.507912
 30
0.0
 10
254.846308
 20
109.643915
 30
0.0
 10
254.781307
 20
109.902515
 30
0.0
 10
254.694306
 20
110.140146
 30
0.0
 10
254.585306
 20
110.356723
 30
0.0
 10
254.455306
 20
110.552303
 30
0.0
 10
254.304306
 20
110.726858
 30
0.0
 10
254.131307
 20
110.880387
 30
0.0
 10
253.936308
 20
111.012890
 30
0.0
 10
253.721308
 20
111.126456
 30
0.0
 10
253.485309
 20
111.222525
 30
0.0
 10
253.228308
 20
111.301152
 30
0.0
 10
252.952306
 20
111.362281
 30
0.0
 10
252.654308
 20
111.405969
 30
0.0
 10
252.336308
 20
111.432216
 30
0.0
 10
251.998308
 20
111.440908
 30
0.0
 10
251.618307
 20
111.430184
 30
0.0
 10
251.265306
 20
111.398208
 30
0.0
 10
250.939308
 20
111.344840
 30
0.0
 10
250.640308
 20
111.270136
 30
0.0
 10
250.368308
 20
111.174067
 30
0.0
 10
250.122306
 20
111.056663
 30
0.0
 10
249.903307
 20
110.917894
 30
0.0
 10
249.713307
 20
110.758749
 30
0.0
 10
249.551306
 20
110.580187
 30
0.0
 10
249.419308
 20
110.382180
 30
0.0
 10
249.317307
 20
110.164756
 30
0.0
 10
249.244307
 20
109.927915
 30
0.0
 10
249.200306
 20
109.671629
 30
0.0
 10
249.185292
 20
109.395898
 30
0.0
 10
249.190301
 20
109.245050
 30
0.0
 10
249.206309
 20
109.101117
 30
0.0
 10
249.231311
 20
108.964070
 30
0.0
 10
249.267308
 20
108.833937
 30
0.0
 10
249.314307
 20
108.710690
 30
0.0
 10
249.370308
 20
108.594358
 30
0.0
 10
249.437308
 20
108.484884
 30
0.0
 10
249.513307
 20
108.381168
 30
0.0
 10
249.597308
 20
108.281967
 30
0.0
 10
249.689307
 20
108.187281
 30
0.0
 10
249.789307
 20
108.097139
 30
0.0
 10
249.897307
 20
108.011541
 30
0.0
 10
250.013306
 20
107.930459
 30
0.0
 10
250.136307
 20
107.853892
 30
0.0
 10
250.276306
 20
107.779414
 30
0.0
 10
250.441308
 20
107.704512
 30
0.0
 10
250.631308
 20
107.629215
 30
0.0
 10
250.846308
 20
107.553495
 30
0.0
 10
251.086307
 20
107.477379
 30
0.0
 10
251.350306
 20
107.400841
 30
0.0
 10
252.520306
 20
107.093896
 30
0.0
 10
252.704306
 20
107.041967
 30
0.0
 10
252.872308
 20
106.986143
 30
0.0
 10
253.026308
 20
106.926453
 30
0.0
 10
253.164306
 20
106.862897
 30
0.0
 10
253.287307
 20
106.795418
 30
0.0
 10
253.396307
 20
106.724100
 30
0.0
 10
253.489308
 20
106.648888
 30
0.0
 10
253.569306
 20
106.568454
 30
0.0
 10
253.636306
 20
106.481389
 30
0.0
 10
253.691308
 20
106.387719
 30
0.0
 10
253.734308
 20
106.287418
 30
0.0
 10
253.765307
 20
106.180540
 30
0.0
 10
253.783313
 20
106.067002
 30
0.0
 10
253.789318
 20
105.946888
 30
0.0
 10
253.780304
 20
105.791497
 30
0.0
 10
253.754314
 20
105.647563
 30
0.0
 10
253.709308
 20
105.515088
 30
0.0
 10
253.647307
 20
105.394100
 30
0.0
 10
253.568307
 20
105.284541
 30
0.0
 10
253.470308
 20
105.186497
 30
0.0
 10
253.355308
 20
105.099911
 30
0.0
 10
253.221307
 20
105.025094
 30
0.0
 10
253.066307
 20
104.961763
 30
0.0
 10
252.891307
 20
104.909976
 30
0.0
 10
252.695306
 20
104.869674
 30
0.0
 10
252.479308
 20
104.840916
 30
0.0
 10
252.242306
 20
104.823700
 30
0.0
 10
251.985306
 20
104.817999
 30
0.0
  0
LWPOLYLINE
  5
139
100
AcDbEntity
  8
0
 62
7
100
AcDbPolyline
 90
4
 70
0
 10
251.985306
 20
104.817886
 30
0.0
 10
251.743306
 20
104.823531
 30
0.0
 10
251.517308
 20
104.840436
 30
0.0
 10
251.306307
 20
104.868291
 30
0.0
  0
LWPOLYLINE
  5
13a
100
AcDbEntity
  8
0
 62
7
100
AcDbPolyline
 90
27
 70
0
 10
251.306307
 20
104.868404
 30
0.0
 10
251.111306
 20
104.907690
 30
0.0
 10
250.931307
 20
104.958207
 30
0.0
 10
250.767308
 20
105.019929
 30
0.0
 10
250.619308
 20
105.092884
 30
0.0
 10
250.485306
 20
105.177889
 30
0.0
 10
250.365308
 20
105.275764
 30
0.0
 10
250.259308
 20
105.386480
 30
0.0
 10
250.166307
 20
105.510036
 30
0.0
 10
250.087308
 20
105.646463
 30
0.0
 10
250.022306
 20
105.795758
 30
0.0
 10
249.970307
 20
105.957895
 30
0.0
 10
248.892308
 20
105.747893
 30
0.0
 10
248.967207
 20
105.484806
 30
0.0
 10
249.063307
 20
105.242349
 30
0.0
 10
249.181307
 20
105.020550
 30
0.0
 10
249.319308
 20
104.819410
 30
0.0
 10
249.479308
 20
104.638929
 30
0.0
 10
249.661307
 20
104.479079
 30
0.0
 10
249.863308
 20
104.339915
 30
0.0
 10
250.089306
 20
104.220253
 30
0.0
 10
250.341308
 20
104.119020
 30
0.0
 10
250.618306
 20
104.036159
 30
0.0
 10
250.921308
 20
103.971756
 30
0.0
 10
251.250306
 20
103.925726
 30
0.0
 10
251.605308
 20
103.898068
 30
0.0
 10
251.985306
 20
103.888811
 30
0.0
  0
LWPOLYLINE
  5
13b
100
AcDbEntity
  8
0
 62
7
100
AcDbPolyline
 90
2
 70
0
 10
251.985306
 20
103.888924
 30
0.0
 10
252.377307
 20
103.900495
 30
0.0
  0
LWPOLYLINE
  5
13c
100
AcDbEntity
  8
0
 62
7
100
AcDbPolyline
 90
2
 70
0
 10
239.912406
 20
103.895330
 30
0.0
 10
240.131208
 20
103.914521
 30
0.0
  0
LWPOLYLINE
  5
13d
100
AcDbEntity
  8
0
 62
7
100
AcDbPolyline
 90
43
 70
0
 10
240.131208
 20
103.914634
 30
0.0
 10
240.339008
 20
103.946779
 30
0.0
 10
240.535807
 20
103.991766
 30
0.0
 10
240.721707
 20
104.049593
 30
0.0
 10
240.896707
 20
104.120318
 30
0.0
 10
241.060808
 20
104.203912
 30
0.0
 10
241.216606
 20
104.303254
 30
0.0
 10
241.367008
 20
104.420715
 30
0.0
 10
241.512008
 20
104.556295
 30
0.0
 10
241.651607
 20
104.710021
 30
0.0
 10
241.785707
 20
104.881838
 30
0.0
 10
241.914508
 20
105.071830
 30
0.0
 10
242.037706
 20
105.279884
 30
0.0
 10
242.057801
 20
105.279884
 30
0.0
 10
242.105807
 20
104.067345
 30
0.0
 10
242.111818
 20
104.016912
 30
0.0
 10
243.264809
 20
104.016912
 30
0.0
 10
243.253915
 20
104.119020
 30
0.0
 10
243.244706
 20
104.261852
 30
0.0
 10
243.237114
 20
104.445522
 30
0.0
 10
243.231295
 20
104.669974
 30
0.0
 10
243.227101
 20
104.935178
 30
0.0
 10
243.223804
 20
105.587902
 30
0.0
 10
243.223807
 20
111.376900
 30
0.0
 10
242.002807
 20
111.376900
 30
0.0
 10
242.002807
 20
107.115909
 30
0.0
 10
241.992308
 20
106.818616
 30
0.0
 10
241.961007
 20
106.540458
 30
0.0
 10
241.908909
 20
106.281463
 30
0.0
 10
241.835906
 20
106.041602
 30
0.0
 10
241.742008
 20
105.820904
 30
0.0
 10
241.627307
 20
105.619313
 30
0.0
 10
241.491807
 20
105.436913
 30
0.0
 10
241.338108
 20
105.276385
 30
0.0
 10
241.169108
 20
105.140579
 30
0.0
 10
240.984907
 20
105.029440
 30
0.0
 10
240.785309
 20
104.943024
 30
0.0
 10
240.570408
 20
104.881274
 30
0.0
 10
240.340207
 20
104.844246
 30
0.0
 10
240.094807
 20
104.831828
 30
0.0
 10
239.927607
 20
104.835554
 30
0.0
 10
239.772309
 20
104.846222
 30
0.0
 10
239.628906
 20
104.864340
 30
0.0
  0
LWPOLYLINE
  5
13e
100
AcDbEntity
  8
0
 62
7
100
AcDbPolyline
 90
36
 70
0
 10
239.628906
 20
104.864227
 30
0.0
 10
239.497509
 20
104.889345
 30
0.0
 10
239.378007
 20
104.921688
 30
0.0
 10
239.270407
 20
104.961227
 30
0.0
 10
239.174807
 20
105.007907
 30
0.0
 10
239.088809
 20
105.063053
 30
0.0
 10
239.009806
 20
105.127343
 30
0.0
 10
238.937707
 20
105.200749
 30
0.0
 10
238.872607
 20
105.283327
 30
0.0
 10
238.814308
 20
105.375050
 30
0.0
 10
238.763107
 20
105.475916
 30
0.0
 10
238.718708
 20
105.585898
 30
0.0
 10
238.680808
 20
105.707140
 30
0.0
 10
238.648708
 20
105.841732
 30
0.0
 10
238.622405
 20
105.989673
 30
0.0
 10
238.602004
 20
106.150963
 30
0.0
 10
238.587415
 20
106.325602
 30
0.0
 10
238.578715
 20
106.513562
 30
0.0
 10
238.575799
 20
106.714900
 30
0.0
 10
238.575808
 20
111.376900
 30
0.0
 10
237.348807
 20
111.376900
 30
0.0
 10
237.348807
 20
106.477918
 30
0.0
 10
237.360209
 20
106.097905
 30
0.0
 10
237.394507
 20
105.749897
 30
0.0
 10
237.451807
 20
105.433893
 30
0.0
 10
237.531907
 20
105.149893
 30
0.0
 10
237.635006
 20
104.897896
 30
0.0
 10
237.760908
 20
104.677904
 30
0.0
 10
237.909808
 20
104.489888
 30
0.0
 10
238.083606
 20
104.330460
 30
0.0
 10
238.283908
 20
104.195530
 30
0.0
 10
238.510707
 20
104.085153
 30
0.0
 10
238.764008
 20
103.999301
 30
0.0
 10
239.043707
 20
103.937974
 30
0.0
 10
239.350008
 20
103.901172
 30
0.0
 10
239.682807
 20
103.889037
 30
0.0
  0
LWPOLYLINE
  5
13f
100
AcDbEntity
  8
0
 62
7
100
AcDbPolyline
 90
2
 70
0
 10
239.682807
 20
103.888924
 30
0.0
 10
239.912406
 20
103.895415
 30
0.0
  0
LWPOLYLINE
  5
140
100
AcDbEntity
  8
0
 62
7
100
AcDbPolyline
 90
51
 70
0
 10
12.856308
 20
104.396134
 30
0.0
 10
13.057307
 20
104.447667
 30
0.0
 10
13.250308
 20
104.523952
 30
0.0
 10
13.431308
 20
104.623774
 30
0.0
 10
13.599306
 20
104.745581
 30
0.0
 10
13.750307
 20
104.887398
 30
0.0
 10
13.882308
 20
105.047079
 30
0.0
 10
13.993306
 20
105.222029
 30
0.0
 10
14.081308
 20
105.409509
 30
0.0
 10
14.145308
 20
105.606585
 30
0.0
 10
14.184308
 20
105.810123
 30
0.0
 10
14.197318
 20
106.016908
 30
0.0
 10
14.184297
 20
106.223692
 30
0.0
 10
14.145308
 20
106.427230
 30
0.0
 10
14.081308
 20
106.624306
 30
0.0
 10
13.993306
 20
106.811786
 30
0.0
 10
13.882308
 20
106.986736
 30
0.0
 10
13.750307
 20
107.146417
 30
0.0
 10
13.599306
 20
107.288234
 30
0.0
 10
13.431308
 20
107.410041
 30
0.0
 10
13.250308
 20
107.509863
 30
0.0
 10
13.057307
 20
107.586148
 30
0.0
 10
12.856308
 20
107.637682
 30
0.0
 10
12.651308
 20
107.663646
 30
0.0
 10
12.443307
 20
107.663646
 30
0.0
 10
12.238307
 20
107.637682
 30
0.0
 10
12.037308
 20
107.586148
 30
0.0
 10
11.844308
 20
107.509863
 30
0.0
 10
11.663307
 20
107.410041
 30
0.0
 10
11.495306
 20
107.288234
 30
0.0
 10
11.344306
 20
107.146417
 30
0.0
 10
11.212308
 20
106.986736
 30
0.0
 10
11.101307
 20
106.811786
 30
0.0
 10
11.013307
 20
106.624306
 30
0.0
 10
10.949308
 20
106.427230
 30
0.0
 10
10.910307
 20
106.223692
 30
0.0
 10
10.897297
 20
106.016908
 30
0.0
 10
10.910319
 20
105.810123
 30
0.0
 10
10.949308
 20
105.606585
 30
0.0
 10
11.013307
 20
105.409509
 30
0.0
 10
11.101307
 20
105.222029
 30
0.0
 10
11.212308
 20
105.047079
 30
0.0
 10
11.344306
 20
104.887398
 30
0.0
 10
11.495306
 20
104.745581
 30
0.0
 10
11.663307
 20
104.623774
 30
0.0
 10
11.844308
 20
104.523952
 30
0.0
 10
12.037308
 20
104.447667
 30
0.0
 10
12.238307
 20
104.396134
 30
0.0
 10
12.443307
 20
104.370169
 30
0.0
 10
12.651308
 20
104.370169
 30
0.0
 10
12.856308
 20
104.396134
 30
0.0
  0
LWPOLYLINE
  5
141
100
AcDbEntity
  8
0
 62
7
100
AcDbPolyline
 90
51
 70
0
 10
285.856313
 20
104.396134
 30
0.0
 10
286.057312
 20
104.447667
 30
0.0
 10
286.250295
 20
104.523952
 30
0.0
 10
286.431313
 20
104.623774
 30
0.0
 10
286.599320
 20
104.745581
 30
0.0
 10
286.750308
 20
104.887398
 30
0.0
 10
286.882304
 20
105.047079
 30
0.0
 10
286.993302
 20
105.222029
 30
0.0
 10
287.081299
 20
105.409509
 30
0.0
 10
287.145307
 20
105.606585
 30
0.0
 10
287.184310
 20
105.810123
 30
0.0
 10
287.197292
 20
106.016908
 30
0.0
 10
287.184310
 20
106.223692
 30
0.0
 10
287.145307
 20
106.427230
 30
0.0
 10
287.081299
 20
106.624306
 30
0.0
 10
286.993302
 20
106.811786
 30
0.0
 10
286.882304
 20
106.986736
 30
0.0
 10
286.750308
 20
107.146417
 30
0.0
 10
286.599320
 20
107.288234
 30
0.0
 10
286.431313
 20
107.410041
 30
0.0
 10
286.250295
 20
107.509863
 30
0.0
 10
286.057312
 20
107.586148
 30
0.0
 10
285.856313
 20
107.637682
 30
0.0
 10
285.651307
 20
107.663646
 30
0.0
 10
285.443309
 20
107.663646
 30
0.0
 10
285.238303
 20
107.637682
 30
0.0
 10
285.037304
 20
107.586148
 30
0.0
 10
284.844292
 20
107.509863
 30
0.0
 10
284.663303
 20
107.410041
 30
0.0
 10
284.495296
 20
107.288234
 30
0.0
 10
284.344308
 20
107.146417
 30
0.0
 10
284.212312
 20
106.986736
 30
0.0
 10
284.101314
 20
106.811786
 30
0.0
 10
284.013317
 20
106.624306
 30
0.0
 10
283.949309
 20
106.427230
 30
0.0
 10
283.910306
 20
106.223692
 30
0.0
 10
283.897324
 20
106.016908
 30
0.0
 10
283.910278
 20
105.810123
 30
0.0
 10
283.949309
 20
105.606585
 30
0.0
 10
284.013317
 20
105.409509
 30
0.0
 10
284.101314
 20
105.222029
 30
0.0
 10
284.212312
 20
105.047079
 30
0.0
 10
284.344308
 20
104.887398
 30
0.0
 10
284.495296
 20
104.745581
 30
0.0
 10
284.663303
 20
104.623774
 30
0.0
 10
284.844292
 20
104.523952
 30
0.0
 10
285.037304
 20
104.447667
 30
0.0
 10
285.238303
 20
104.396134
 30
0.0
 10
285.443309
 20
104.370169
 30
0.0
 10
285.651307
 20
104.370169
 30
0.0
 10
285.856313
 20
104.396134
 30
0.0
  0
LWPOLYLINE
  5
142
100
AcDbEntity
  8
0
 62
7
100
AcDbPolyline
 90
51
 70
0
 10
159.004096
 20
102.629959
 30
0.0
 10
159.207606
 20
102.668764
 30
0.0
 10
159.404708
 20
102.732800
 30
0.0
 10
159.592208
 20
102.821023
 30
0.0
 10
159.767106
 20
102.932049
 30
0.0
 10
159.926807
 20
103.064129
 30
0.0
 10
160.068607
 20
103.215175
 30
0.0
 10
160.190406
 20
103.382815
 30
0.0
 10
160.290307
 20
103.564396
 30
0.0
 10
160.366507
 20
103.757041
 30
0.0
 10
160.418105
 20
103.957758
 30
0.0
 10
160.444013
 20
104.163328
 30
0.0
 10
160.444008
 20
104.370536
 30
0.0
 10
160.418100
 20
104.576107
 30
0.0
 10
160.366507
 20
104.776795
 30
0.0
 10
160.290307
 20
104.969468
 30
0.0
 10
160.190406
 20
105.151050
 30
0.0
 10
160.068607
 20
105.318690
 30
0.0
 10
159.926807
 20
105.469735
 30
0.0
 10
159.767106
 20
105.601815
 30
0.0
 10
159.592208
 20
105.712841
 30
0.0
 10
159.404708
 20
105.801064
 30
0.0
 10
159.207606
 20
105.865100
 30
0.0
 10
159.004096
 20
105.903906
 30
0.0
 10
158.797286
 20
105.916888
 30
0.0
 10
158.590508
 20
105.903962
 30
0.0
 10
158.386966
 20
105.865100
 30
0.0
 10
158.189896
 20
105.801064
 30
0.0
 10
158.002396
 20
105.712841
 30
0.0
 10
157.827458
 20
105.601815
 30
0.0
 10
157.667788
 20
105.469735
 30
0.0
 10
157.525957
 20
105.318690
 30
0.0
 10
157.404167
 20
105.151050
 30
0.0
 10
157.304336
 20
104.969468
 30
0.0
 10
157.228066
 20
104.776795
 30
0.0
 10
157.176518
 20
104.576107
 30
0.0
 10
157.150554
 20
104.370536
 30
0.0
 10
157.150548
 20
104.163328
 30
0.0
 10
157.176512
 20
103.957758
 30
0.0
 10
157.228066
 20
103.757041
 30
0.0
 10
157.304336
 20
103.564396
 30
0.0
 10
157.404167
 20
103.382815
 30
0.0
 10
157.525957
 20
103.215175
 30
0.0
 10
157.667788
 20
103.064129
 30
0.0
 10
157.827458
 20
102.932049
 30
0.0
 10
158.002396
 20
102.821023
 30
0.0
 10
158.189896
 20
102.732800
 30
0.0
 10
158.386966
 20
102.668764
 30
0.0
 10
158.590508
 20
102.629959
 30
0.0
 10
158.797286
 20
102.616976
 30
0.0
 10
159.004096
 20
102.629902
 30
0.0
  0
LWPOLYLINE
  5
143
100
AcDbEntity
  8
0
 62
7
100
AcDbPolyline
 90
51
 70
0
 10
179.504106
 20
102.629930
 30
0.0
 10
179.707608
 20
102.668736
 30
0.0
 10
179.904706
 20
102.732772
 30
0.0
 10
180.092206
 20
102.821023
 30
0.0
 10
180.267108
 20
102.932049
 30
0.0
 10
180.426809
 20
103.064129
 30
0.0
 10
180.568608
 20
103.215175
 30
0.0
 10
180.690407
 20
103.382786
 30
0.0
 10
180.790207
 20
103.564368
 30
0.0
 10
180.866508
 20
103.757041
 30
0.0
 10
180.918107
 20
103.957730
 30
0.0
 10
180.944015
 20
104.163328
 30
0.0
 10
180.944006
 20
104.370508
 30
0.0
 10
180.918098
 20
104.576107
 30
0.0
 10
180.866508
 20
104.776795
 30
0.0
 10
180.790207
 20
104.969468
 30
0.0
 10
180.690407
 20
105.151022
 30
0.0
 10
180.568608
 20
105.318662
 30
0.0
 10
180.426809
 20
105.469707
 30
0.0
 10
180.267108
 20
105.601787
 30
0.0
 10
180.092206
 20
105.712813
 30
0.0
 10
179.904706
 20
105.801036
 30
0.0
 10
179.707608
 20
105.865072
 30
0.0
 10
179.504106
 20
105.903906
 30
0.0
 10
179.297307
 20
105.916888
 30
0.0
 10
179.090506
 20
105.903934
 30
0.0
 10
178.886908
 20
105.865072
 30
0.0
 10
178.689909
 20
105.801036
 30
0.0
 10
178.502409
 20
105.712813
 30
0.0
 10
178.327408
 20
105.601787
 30
0.0
 10
178.167806
 20
105.469707
 30
0.0
 10
178.025908
 20
105.318662
 30
0.0
 10
177.904106
 20
105.151022
 30
0.0
 10
177.804307
 20
104.969468
 30
0.0
 10
177.728008
 20
104.776795
 30
0.0
 10
177.676508
 20
104.576107
 30
0.0
 10
177.650515
 20
104.370508
 30
0.0
 10
177.650507
 20
104.163328
 30
0.0
 10
177.676500
 20
103.957730
 30
0.0
 10
177.728008
 20
103.757041
 30
0.0
 10
177.804307
 20
103.564368
 30
0.0
 10
177.904106
 20
103.382786
 30
0.0
 10
178.025908
 20
103.215175
 30
0.0
 10
178.167806
 20
103.064129
 30
0.0
 10
178.327408
 20
102.932049
 30
0.0
 10
178.502409
 20
102.821023
 30
0.0
 10
178.689909
 20
102.732772
 30
0.0
 10
178.886908
 20
102.668736
 30
0.0
 10
179.090506
 20
102.629930
 30
0.0
 10
179.297307
 20
102.616948
 30
0.0
 10
179.504106
 20
102.629902
 30
0.0
  0
LWPOLYLINE
  5
144
100
AcDbEntity
  8
0
 62
7
100
AcDbPolyline
 90
51
 70
0
 10
271.171306
 20
88.123200
 30
0.0
 10
271.901308
 20
88.310596
 30
0.0
 10
272.602308
 20
88.587907
 30
0.0
 10
273.262307
 20
88.950902
 30
0.0
 10
273.872308
 20
89.393793
 30
0.0
 10
274.421306
 20
89.909610
 30
0.0
 10
274.901307
 20
90.490198
 30
0.0
 10
275.305308
 20
91.126412
 30
0.0
 10
275.626308
 20
91.808204
 30
0.0
 10
275.858306
 20
92.524794
 30
0.0
 10
276.000306
 20
93.264894
 30
0.0
 10
276.047307
 20
94.016903
 30
0.0
 10
276.000306
 20
94.768913
 30
0.0
 10
275.858306
 20
95.509012
 30
0.0
 10
275.626308
 20
96.225659
 30
0.0
 10
275.305308
 20
96.907423
 30
0.0
 10
274.901307
 20
97.543637
 30
0.0
 10
274.421306
 20
98.124196
 30
0.0
 10
273.872308
 20
98.639986
 30
0.0
 10
273.262307
 20
99.082877
 30
0.0
 10
272.602308
 20
99.445871
 30
0.0
 10
271.901308
 20
99.723239
 30
0.0
 10
271.171306
 20
99.910635
 30
0.0
 10
270.424306
 20
100.005066
 30
0.0
 10
269.670307
 20
100.005066
 30
0.0
 10
268.923307
 20
99.910635
 30
0.0
 10
268.193308
 20
99.723239
 30
0.0
 10
267.492308
 20
99.445871
 30
0.0
 10
266.832309
 20
99.082877
 30
0.0
 10
266.222308
 20
98.639986
 30
0.0
 10
265.673307
 20
98.124196
 30
0.0
 10
265.193309
 20
97.543637
 30
0.0
 10
264.789308
 20
96.907423
 30
0.0
 10
264.468308
 20
96.225659
 30
0.0
 10
264.236307
 20
95.509012
 30
0.0
 10
264.094307
 20
94.768913
 30
0.0
 10
264.047309
 20
94.016903
 30
0.0
 10
264.094307
 20
93.264894
 30
0.0
 10
264.236307
 20
92.524794
 30
0.0
 10
264.468308
 20
91.808204
 30
0.0
 10
264.789308
 20
91.126412
 30
0.0
 10
265.193309
 20
90.490198
 30
0.0
 10
265.673307
 20
89.909610
 30
0.0
 10
266.222308
 20
89.393793
 30
0.0
 10
266.832309
 20
88.950902
 30
0.0
 10
267.492308
 20
88.587907
 30
0.0
 10
268.193308
 20
88.310596
 30
0.0
 10
268.923307
 20
88.123200
 30
0.0
 10
269.670307
 20
88.028712
 30
0.0
 10
270.424306
 20
88.028712
 30
0.0
 10
271.171306
 20
88.123200
 30
0.0
  0
LWPOLYLINE
  5
145
100
AcDbEntity
  8
0
 62
7
100
AcDbPolyline
 90
54
 70
0
 10
223.544807
 20
93.352919
 30
0.0
 10
223.555419
 20
93.633900
 30
0.0
 10
223.587307
 20
93.897918
 30
0.0
 10
223.640506
 20
94.145004
 30
0.0
 10
223.714908
 20
94.375100
 30
0.0
 10
223.810607
 20
94.588319
 30
0.0
 10
223.927608
 20
94.784604
 30
0.0
 10
224.065806
 20
94.963900
 30
0.0
 10
224.221706
 20
95.122594
 30
0.0
 10
224.391708
 20
95.256818
 30
0.0
 10
224.575807
 20
95.366603
 30
0.0
 10
224.773908
 20
95.452116
 30
0.0
 10
224.986108
 20
95.513104
 30
0.0
 10
225.212408
 20
95.549709
 30
0.0
 10
225.452807
 20
95.561844
 30
0.0
 10
225.613107
 20
95.558232
 30
0.0
 10
225.763108
 20
95.547310
 30
0.0
 10
225.902808
 20
95.529332
 30
0.0
 10
226.032207
 20
95.504017
 30
0.0
 10
226.151406
 20
95.471618
 30
0.0
 10
226.260307
 20
95.431796
 30
0.0
 10
226.358808
 20
95.384919
 30
0.0
 10
226.448507
 20
95.330507
 30
0.0
 10
226.530707
 20
95.267797
 30
0.0
 10
226.605307
 20
95.196903
 30
0.0
 10
226.672507
 20
95.117796
 30
0.0
 10
226.732107
 20
95.030420
 30
0.0
 10
226.784208
 20
94.934803
 30
0.0
 10
226.828807
 20
94.830917
 30
0.0
 10
226.866808
 20
94.715093
 30
0.0
 10
226.898908
 20
94.583013
 30
0.0
 10
226.925099
 20
94.434592
 30
0.0
 10
226.945596
 20
94.270113
 30
0.0
 10
226.960114
 20
94.089293
 30
0.0
 10
226.968914
 20
93.892218
 30
0.0
 10
226.971815
 20
93.678914
 30
0.0
 10
226.971806
 20
89.016913
 30
0.0
 10
228.198807
 20
89.016913
 30
0.0
 10
228.198807
 20
93.915896
 30
0.0
 10
228.187208
 20
94.299408
 30
0.0
 10
228.152407
 20
94.650097
 30
0.0
 10
228.094506
 20
94.967908
 30
0.0
 10
228.013308
 20
95.252698
 30
0.0
 10
227.909007
 20
95.504694
 30
0.0
 10
227.781508
 20
95.723699
 30
0.0
 10
227.630807
 20
95.909909
 30
0.0
 10
227.455707
 20
96.067756
 30
0.0
 10
227.254808
 20
96.201332
 30
0.0
 10
227.028208
 20
96.310608
 30
0.0
 10
226.776006
 20
96.395613
 30
0.0
 10
226.498006
 20
96.456319
 30
0.0
 10
226.194208
 20
96.492754
 30
0.0
 10
225.864807
 20
96.504890
 30
0.0
 10
225.628008
 20
96.498116
 30
0.0
  0
LWPOLYLINE
  5
146
100
AcDbEntity
  8
0
 62
7
100
AcDbPolyline
 90
23
 70
0
 10
225.628008
 20
96.498004
 30
0.0
 10
225.403207
 20
96.477401
 30
0.0
 10
225.190408
 20
96.442998
 30
0.0
 10
224.989706
 20
96.394851
 30
0.0
 10
224.801007
 20
96.332960
 30
0.0
 10
224.624406
 20
96.257296
 30
0.0
 10
224.459808
 20
96.167888
 30
0.0
 10
224.304806
 20
96.064059
 30
0.0
 10
224.156208
 20
95.944509
 30
0.0
 10
224.014208
 20
95.809410
 30
0.0
 10
223.878608
 20
95.658505
 30
0.0
 10
223.749506
 20
95.491994
 30
0.0
 10
223.626906
 20
95.309820
 30
0.0
 10
223.510808
 20
95.111897
 30
0.0
 10
223.489811
 20
95.111897
 30
0.0
 10
223.520807
 20
95.616906
 30
0.0
 10
223.537007
 20
95.987407
 30
0.0
 10
223.544316
 20
96.347918
 30
0.0
 10
223.544872
 20
99.064899
 30
0.0
 10
222.323807
 20
99.064899
 30
0.0
 10
222.323807
 20
89.016913
 30
0.0
 10
223.544807
 20
89.016913
 30
0.0
 10
223.544807
 20
93.352919
 30
0.0
  0
LWPOLYLINE
  5
147
100
AcDbEntity
  8
0
 62
7
100
AcDbPolyline
 90
12
 70
0
 10
216.037307
 20
91.189912
 30
0.0
 10
217.380306
 20
91.189912
 30
0.0
 10
217.380306
 20
92.152910
 30
0.0
 10
216.037307
 20
92.152910
 30
0.0
 10
216.037307
 20
98.552920
 30
0.0
 10
214.752307
 20
98.552920
 30
0.0
 10
210.367307
 20
92.135892
 30
0.0
 10
210.367307
 20
91.189912
 30
0.0
 10
214.884308
 20
91.189912
 30
0.0
 10
214.884308
 20
89.016913
 30
0.0
 10
216.037307
 20
89.016913
 30
0.0
 10
216.037307
 20
91.189912
 30
0.0
  0
LWPOLYLINE
  5
148
100
AcDbEntity
  8
0
 62
7
100
AcDbPolyline
 90
8
 70
0
 10
211.492307
 20
92.152910
 30
0.0
 10
211.601307
 20
92.287897
 30
0.0
 10
211.969308
 20
92.786894
 30
0.0
 10
214.455307
 20
96.414325
 30
0.0
 10
214.557906
 20
96.581908
 30
0.0
 10
214.815107
 20
97.039729
 30
0.0
 10
214.877007
 20
97.158827
 30
0.0
 10
214.884316
 20
97.176042
 30
0.0
  0
LWPOLYLINE
  5
149
100
AcDbEntity
  8
0
 62
7
100
AcDbPolyline
 90
3
 70
0
 10
214.884308
 20
97.175901
 30
0.0
 10
214.884308
 20
92.152910
 30
0.0
 10
211.492307
 20
92.152910
 30
0.0
  0
LWPOLYLINE
  5
14a
100
AcDbEntity
  8
0
 62
7
100
AcDbPolyline
 90
15
 70
0
 10
246.167707
 20
92.850902
 30
0.0
 10
246.175807
 20
93.188694
 30
0.0
 10
246.200219
 20
93.503513
 30
0.0
 10
246.240808
 20
93.794992
 30
0.0
 10
246.297707
 20
94.063498
 30
0.0
 10
246.370808
 20
94.308806
 30
0.0
 10
246.460106
 20
94.530915
 30
0.0
 10
246.565708
 20
94.729910
 30
0.0
 10
246.686708
 20
94.903900
 30
0.0
 10
246.822307
 20
95.051220
 30
0.0
 10
246.972407
 20
95.171700
 30
0.0
 10
247.137106
 20
95.265398
 30
0.0
 10
247.316408
 20
95.332313
 30
0.0
 10
247.510308
 20
95.372501
 30
0.0
 10
247.718707
 20
95.386048
 30
0.0
  0
LWPOLYLINE
  5
14b
100
AcDbEntity
  8
0
 62
7
100
AcDbPolyline
 90
2
 70
0
 10
247.718707
 20
95.385907
 30
0.0
 10
247.830907
 20
95.383085
 30
0.0
  0
LWPOLYLINE
  5
14c
100
AcDbEntity
  8
0
 62
7
100
AcDbPolyline
 90
3
 70
0
 10
247.830907
 20
95.384496
 30
0.0
 10
247.936408
 20
95.380262
 30
0.0
 10
248.035408
 20
95.373546
 30
0.0
  0
LWPOLYLINE
  5
14d
100
AcDbEntity
  8
0
 62
7
100
AcDbPolyline
 90
2
 70
0
 10
248.035408
 20
95.373404
 30
0.0
 10
248.127907
 20
95.363809
 30
0.0
  0
LWPOLYLINE
  5
14e
100
AcDbEntity
  8
0
 62
7
100
AcDbPolyline
 90
9
 70
0
 10
248.127907
 20
95.363696
 30
0.0
 10
248.213708
 20
95.351278
 30
0.0
 10
248.293007
 20
95.335954
 30
0.0
 10
248.365707
 20
95.317835
 30
0.0
 10
248.365707
 20
96.436902
 30
0.0
 10
248.294508
 20
96.454965
 30
0.0
 10
248.223507
 20
96.470176
 30
0.0
 10
248.152909
 20
96.482622
 30
0.0
 10
248.082607
 20
96.492303
 30
0.0
  0
LWPOLYLINE
  5
14f
100
AcDbEntity
  8
0
 62
7
100
AcDbPolyline
 90
2
 70
0
 10
248.082607
 20
96.492416
 30
0.0
 10
248.012706
 20
96.499471
 30
0.0
  0
LWPOLYLINE
  5
150
100
AcDbEntity
  8
0
 62
7
100
AcDbPolyline
 90
3
 70
0
 10
248.012706
 20
96.499358
 30
0.0
 10
247.943009
 20
96.503592
 30
0.0
 10
247.873706
 20
96.503507
 30
0.0
  0
LWPOLYLINE
  5
151
100
AcDbEntity
  8
0
 62
7
100
AcDbPolyline
 90
26
 70
0
 10
247.873706
 20
96.504890
 30
0.0
 10
247.683508
 20
96.497834
 30
0.0
 10
247.505906
 20
96.476668
 30
0.0
 10
247.340907
 20
96.441333
 30
0.0
 10
247.188708
 20
96.391916
 30
0.0
 10
247.049008
 20
96.328360
 30
0.0
 10
246.922107
 20
96.250692
 30
0.0
 10
246.807708
 20
96.158914
 30
0.0
 10
246.701508
 20
96.047887
 30
0.0
 10
246.598908
 20
95.912505
 30
0.0
 10
246.499908
 20
95.752796
 30
0.0
 10
246.404508
 20
95.568900
 30
0.0
 10
246.312608
 20
95.360507
 30
0.0
 10
246.224408
 20
95.127899
 30
0.0
 10
246.139708
 20
94.870908
 30
0.0
 10
246.112699
 20
94.870908
 30
0.0
 10
246.108305
 20
95.096714
 30
0.0
 10
246.085222
 20
95.742100
 30
0.0
 10
246.058707
 20
96.376902
 30
0.0
 10
244.905708
 20
96.376902
 30
0.0
 10
244.925802
 20
95.853718
 30
0.0
 10
244.939213
 20
95.357318
 30
0.0
 10
244.945896
 20
94.887700
 30
0.0
 10
244.946754
 20
89.016913
 30
0.0
 10
246.167707
 20
89.016913
 30
0.0
 10
246.167707
 20
92.850902
 30
0.0
  0
LWPOLYLINE
  5
152
100
AcDbEntity
  8
0
 62
7
100
AcDbPolyline
 90
50
 70
0
 10
233.189407
 20
88.908201
 30
0.0
 10
233.604709
 20
88.965916
 30
0.0
 10
233.988607
 20
89.062097
 30
0.0
 10
234.341207
 20
89.196802
 30
0.0
 10
234.662407
 20
89.370002
 30
0.0
 10
234.952306
 20
89.581696
 30
0.0
 10
235.210807
 20
89.831915
 30
0.0
 10
235.436308
 20
90.121700
 30
0.0
 10
235.627108
 20
90.451703
 30
0.0
 10
235.783207
 20
90.821809
 30
0.0
 10
235.904707
 20
91.232019
 30
0.0
 10
235.991408
 20
91.682502
 30
0.0
 10
236.043408
 20
92.173117
 30
0.0
 10
236.060793
 20
92.703893
 30
0.0
 10
236.044494
 20
93.239607
 30
0.0
 10
235.995808
 20
93.733609
 30
0.0
 10
235.914607
 20
94.185898
 30
0.0
 10
235.800908
 20
94.596503
 30
0.0
 10
235.654706
 20
94.965311
 30
0.0
 10
235.476006
 20
95.292520
 30
0.0
 10
235.264808
 20
95.577903
 30
0.0
 10
235.019509
 20
95.823803
 30
0.0
 10
234.737808
 20
96.031942
 30
0.0
 10
234.419707
 20
96.202206
 30
0.0
 10
234.065307
 20
96.334625
 30
0.0
 10
233.674508
 20
96.429226
 30
0.0
 10
233.247308
 20
96.485981
 30
0.0
 10
232.783806
 20
96.504890
 30
0.0
 10
231.909106
 20
96.427335
 30
0.0
 10
231.168908
 20
96.194615
 30
0.0
 10
230.563406
 20
95.806813
 30
0.0
 10
230.092408
 20
95.263818
 30
0.0
 10
229.755906
 20
94.565600
 30
0.0
 10
229.554106
 20
93.712301
 30
0.0
 10
229.486807
 20
92.703893
 30
0.0
 10
229.503599
 20
92.192308
 30
0.0
 10
229.553908
 20
91.716200
 30
0.0
 10
229.637807
 20
91.275820
 30
0.0
 10
229.755206
 20
90.870916
 30
0.0
 10
229.906206
 20
90.501600
 30
0.0
 10
230.090706
 20
90.168013
 30
0.0
 10
230.308808
 20
89.869902
 30
0.0
 10
230.560008
 20
89.609608
 30
0.0
 10
230.843407
 20
89.389418
 30
0.0
 10
231.158906
 20
89.209220
 30
0.0
 10
231.506708
 20
89.069096
 30
0.0
 10
231.886506
 20
88.968992
 30
0.0
 10
232.298607
 20
88.908907
 30
0.0
 10
232.742808
 20
88.888869
 30
0.0
 10
233.189407
 20
88.908088
 30
0.0
  0
LWPOLYLINE
  5
153
100
AcDbEntity
  8
0
 62
7
100
AcDbPolyline
 90
57
 70
0
 10
232.450807
 20
89.805809
 30
0.0
 10
232.194007
 20
89.850513
 30
0.0
 10
231.959308
 20
89.925020
 30
0.0
 10
231.746806
 20
90.029301
 30
0.0
 10
231.556306
 20
90.163300
 30
0.0
 10
231.388008
 20
90.327215
 30
0.0
 10
231.241806
 20
90.520904
 30
0.0
 10
231.116307
 20
90.744198
 30
0.0
 10
231.010107
 20
90.997013
 30
0.0
 10
230.923208
 20
91.279404
 30
0.0
 10
230.855706
 20
91.591316
 30
0.0
 10
230.807407
 20
91.932608
 30
0.0
 10
230.778408
 20
92.303504
 30
0.0
 10
230.768813
 20
92.703893
 30
0.0
 10
230.778600
 20
93.114611
 30
0.0
 10
230.808008
 20
93.493014
 30
0.0
 10
230.856906
 20
93.839019
 30
0.0
 10
230.925508
 20
94.152709
 30
0.0
 10
231.013708
 20
94.434112
 30
0.0
 10
231.121407
 20
94.683202
 30
0.0
 10
231.248808
 20
94.899892
 30
0.0
 10
231.398106
 20
95.086413
 30
0.0
 10
231.571707
 20
95.244203
 30
0.0
 10
231.769708
 20
95.373320
 30
0.0
 10
231.992006
 20
95.473819
 30
0.0
 10
232.238606
 20
95.545504
 30
0.0
 10
232.509509
 20
95.588514
 30
0.0
 10
232.804806
 20
95.602908
 30
0.0
 10
233.097606
 20
95.588796
 30
0.0
 10
233.365308
 20
95.546717
 30
0.0
 10
233.607706
 20
95.476303
 30
0.0
 10
233.825006
 20
95.377920
 30
0.0
 10
234.017106
 20
95.251400
 30
0.0
 10
234.184007
 20
95.096714
 30
0.0
 10
234.325806
 20
94.913918
 30
0.0
 10
234.446008
 20
94.700107
 30
0.0
 10
234.547706
 20
94.452316
 30
0.0
 10
234.630908
 20
94.170517
 30
0.0
 10
234.695608
 20
93.854795
 30
0.0
 10
234.741807
 20
93.505093
 30
0.0
 10
234.769493
 20
93.121497
 30
0.0
 10
234.778821
 20
92.703893
 30
0.0
 10
234.769098
 20
92.291312
 30
0.0
 10
234.740207
 20
91.911102
 30
0.0
 10
234.691908
 20
91.563320
 30
0.0
 10
234.624307
 20
91.248106
 30
0.0
 10
234.537507
 20
90.965206
 30
0.0
 10
234.431307
 20
90.714819
 30
0.0
 10
234.305808
 20
90.496915
 30
0.0
 10
234.157808
 20
90.309604
 30
0.0
 10
233.984106
 20
90.151108
 30
0.0
 10
233.784608
 20
90.021399
 30
0.0
 10
233.559508
 20
89.920617
 30
0.0
 10
233.308607
 20
89.848509
 30
0.0
 10
233.032108
 20
89.805301
 30
0.0
 10
232.729806
 20
89.790908
 30
0.0
 10
232.450807
 20
89.805866
 30
0.0
  0
LWPOLYLINE
  5
154
100
AcDbEntity
  8
0
 62
7
100
AcDbPolyline
 90
171
 70
0
 10
252.377307
 20
88.900299
 30
0.0
 10
252.743307
 20
88.934617
 30
0.0
 10
253.084307
 20
88.991796
 30
0.0
 10
253.399307
 20
89.071806
 30
0.0
 10
253.688308
 20
89.174619
 30
0.0
 10
253.951308
 20
89.300293
 30
0.0
 10
254.189306
 20
89.448911
 30
0.0
 10
254.398309
 20
89.618498
 30
0.0
 10
254.574308
 20
89.807502
 30
0.0
 10
254.719308
 20
90.015811
 30
0.0
 10
254.831308
 20
90.243310
 30
0.0
 10
254.912309
 20
90.490198
 30
0.0
 10
254.960306
 20
90.756418
 30
0.0
 10
254.976308
 20
91.041914
 30
0.0
 10
254.973317
 20
91.159714
 30
0.0
 10
254.965321
 20
91.273816
 30
0.0
 10
254.951309
 20
91.384109
 30
0.0
 10
254.931297
 20
91.490704
 30
0.0
 10
254.906303
 20
91.593518
 30
0.0
 10
254.875307
 20
91.692606
 30
0.0
 10
254.839306
 20
91.787912
 30
0.0
 10
254.798308
 20
91.879804
 30
0.0
 10
254.752308
 20
91.968506
 30
0.0
 10
254.702307
 20
92.054020
 30
0.0
 10
254.647308
 20
92.136513
 30
0.0
 10
254.587307
 20
92.215818
 30
0.0
 10
254.523308
 20
92.291905
 30
0.0
 10
254.454307
 20
92.364916
 30
0.0
 10
254.379307
 20
92.435415
 30
0.0
 10
254.297307
 20
92.504108
 30
0.0
 10
254.207306
 20
92.570910
 30
0.0
 10
254.110307
 20
92.635905
 30
0.0
 10
254.006308
 20
92.699095
 30
0.0
 10
253.894308
 20
92.760394
 30
0.0
 10
253.775306
 20
92.819914
 30
0.0
 10
253.641307
 20
92.879520
 30
0.0
 10
253.485309
 20
92.940592
 30
0.0
 10
253.307308
 20
93.003302
 30
0.0
 10
253.106307
 20
93.067395
 30
0.0
 10
252.883309
 20
93.133012
 30
0.0
 10
252.638306
 20
93.200209
 30
0.0
 10
252.370308
 20
93.268902
 30
0.0
 10
252.090307
 20
93.338102
 30
0.0
 10
251.840309
 20
93.402901
 30
0.0
 10
251.618307
 20
93.463296
 30
0.0
 10
251.425306
 20
93.519317
 30
0.0
 10
251.261307
 20
93.570908
 30
0.0
 10
251.126306
 20
93.618095
 30
0.0
 10
251.020306
 20
93.660908
 30
0.0
 10
250.932307
 20
93.702705
 30
0.0
 10
250.849308
 20
93.746901
 30
0.0
 10
250.774307
 20
93.793609
 30
0.0
 10
250.704308
 20
93.842800
 30
0.0
 10
250.642306
 20
93.894419
 30
0.0
 10
250.585306
 20
93.948408
 30
0.0
 10
250.535307
 20
94.004909
 30
0.0
 10
250.492308
 20
94.065107
 30
0.0
 10
250.455306
 20
94.129595
 30
0.0
 10
250.425308
 20
94.198513
 30
0.0
 10
250.402307
 20
94.271806
 30
0.0
 10
250.385318
 20
94.349502
 30
0.0
 10
250.375316
 20
94.431516
 30
0.0
 10
250.372316
 20
94.517904
 30
0.0
 10
250.380294
 20
94.656701
 30
0.0
 10
250.404297
 20
94.784999
 30
0.0
 10
250.445307
 20
94.902912
 30
0.0
 10
250.501308
 20
95.010297
 30
0.0
 10
250.574308
 20
95.107297
 30
0.0
 10
250.663306
 20
95.193798
 30
0.0
 10
250.768307
 20
95.269914
 30
0.0
 10
250.890306
 20
95.335897
 30
0.0
 10
251.030308
 20
95.391918
 30
0.0
 10
251.188307
 20
95.437610
 30
0.0
 10
251.364307
 20
95.473198
 30
0.0
 10
251.558306
 20
95.498598
 30
0.0
 10
251.769307
 20
95.513838
 30
0.0
 10
251.998308
 20
95.518890
 30
0.0
 10
252.207308
 20
95.513556
 30
0.0
 10
252.403308
 20
95.497526
 30
0.0
 10
252.587308
 20
95.471082
 30
0.0
 10
252.758307
 20
95.433715
 30
0.0
 10
252.917308
 20
95.385709
 30
0.0
 10
253.063307
 20
95.327120
 30
0.0
 10
253.197306
 20
95.257919
 30
0.0
 10
253.318306
 20
95.178699
 30
0.0
 10
253.425308
 20
95.090110
 30
0.0
 10
253.518309
 20
94.992320
 30
0.0
 10
253.596307
 20
94.885216
 30
0.0
 10
253.661308
 20
94.768715
 30
0.0
 10
253.712308
 20
94.643013
 30
0.0
 10
253.748306
 20
94.507914
 30
0.0
 10
254.846308
 20
94.643916
 30
0.0
 10
254.781307
 20
94.902517
 30
0.0
 10
254.694306
 20
95.140120
 30
0.0
 10
254.585306
 20
95.356697
 30
0.0
 10
254.455306
 20
95.552305
 30
0.0
 10
254.304306
 20
95.726803
 30
0.0
 10
254.131307
 20
95.880417
 30
0.0
 10
253.936308
 20
96.012920
 30
0.0
 10
253.721308
 20
96.126458
 30
0.0
 10
253.485309
 20
96.222526
 30
0.0
 10
253.228308
 20
96.301154
 30
0.0
 10
252.952306
 20
96.362283
 30
0.0
 10
252.654308
 20
96.405943
 30
0.0
 10
252.336308
 20
96.432189
 30
0.0
 10
251.998308
 20
96.440910
 30
0.0
 10
251.618307
 20
96.430186
 30
0.0
 10
251.265306
 20
96.398210
 30
0.0
 10
250.939308
 20
96.344842
 30
0.0
 10
250.640308
 20
96.270137
 30
0.0
 10
250.368308
 20
96.174069
 30
0.0
 10
250.122306
 20
96.056664
 30
0.0
 10
249.903307
 20
95.917896
 30
0.0
 10
249.713307
 20
95.758807
 30
0.0
 10
249.551306
 20
95.580217
 30
0.0
 10
249.419308
 20
95.382210
 30
0.0
 10
249.317307
 20
95.164701
 30
0.0
 10
249.244307
 20
94.927917
 30
0.0
 10
249.200306
 20
94.671602
 30
0.0
 10
249.185292
 20
94.395900
 30
0.0
 10
249.190301
 20
94.244995
 30
0.0
 10
249.206309
 20
94.101118
 30
0.0
 10
249.231311
 20
93.964100
 30
0.0
 10
249.267308
 20
93.833910
 30
0.0
 10
249.314307
 20
93.710692
 30
0.0
 10
249.370308
 20
93.594304
 30
0.0
 10
249.437308
 20
93.484914
 30
0.0
 10
249.513307
 20
93.381198
 30
0.0
 10
249.597308
 20
93.281997
 30
0.0
 10
249.689307
 20
93.187311
 30
0.0
 10
249.789307
 20
93.097113
 30
0.0
 10
249.897307
 20
93.011515
 30
0.0
 10
250.013306
 20
92.930404
 30
0.0
 10
250.136307
 20
92.853894
 30
0.0
 10
250.276306
 20
92.779415
 30
0.0
 10
250.441308
 20
92.704514
 30
0.0
 10
250.631308
 20
92.629217
 30
0.0
 10
250.846308
 20
92.553496
 30
0.0
 10
251.086307
 20
92.477409
 30
0.0
 10
251.350306
 20
92.400814
 30
0.0
 10
252.520306
 20
92.093898
 30
0.0
 10
252.704306
 20
92.041997
 30
0.0
 10
252.872308
 20
91.986117
 30
0.0
 10
253.026308
 20
91.926399
 30
0.0
 10
253.164306
 20
91.862899
 30
0.0
 10
253.287307
 20
91.795419
 30
0.0
 10
253.396307
 20
91.724102
 30
0.0
 10
253.489308
 20
91.648918
 30
0.0
 10
253.569306
 20
91.568400
 30
0.0
 10
253.636306
 20
91.481419
 30
0.0
 10
253.691308
 20
91.387693
 30
0.0
 10
253.734308
 20
91.287419
 30
0.0
 10
253.765307
 20
91.180514
 30
0.0
 10
253.783313
 20
91.067004
 30
0.0
 10
253.789318
 20
90.946918
 30
0.0
 10
253.780304
 20
90.791498
 30
0.0
 10
253.754314
 20
90.647509
 30
0.0
 10
253.709308
 20
90.515118
 30
0.0
 10
253.647307
 20
90.394101
 30
0.0
 10
253.568307
 20
90.284514
 30
0.0
 10
253.470308
 20
90.186499
 30
0.0
 10
253.355308
 20
90.099913
 30
0.0
 10
253.221307
 20
90.025096
 30
0.0
 10
253.066307
 20
89.961793
 30
0.0
 10
252.891307
 20
89.910006
 30
0.0
 10
252.695306
 20
89.869704
 30
0.0
 10
252.479308
 20
89.840918
 30
0.0
 10
252.242306
 20
89.823702
 30
0.0
 10
251.985306
 20
89.817973
 30
0.0
 10
251.743306
 20
89.823561
 30
0.0
 10
251.517308
 20
89.840156
 30
0.0
  0
LWPOLYLINE
  5
155
100
AcDbEntity
  8
0
 62
7
100
AcDbPolyline
 90
2
 70
0
 10
251.517308
 20
89.840297
 30
0.0
 10
251.306307
 20
89.868519
 30
0.0
  0
LWPOLYLINE
  5
156
100
AcDbEntity
  8
0
 62
7
100
AcDbPolyline
 90
27
 70
0
 10
251.306307
 20
89.868406
 30
0.0
 10
251.111306
 20
89.907720
 30
0.0
 10
250.931307
 20
89.958209
 30
0.0
 10
250.767308
 20
90.019903
 30
0.0
 10
250.619308
 20
90.092914
 30
0.0
 10
250.485306
 20
90.177919
 30
0.0
 10
250.365308
 20
90.275794
 30
0.0
 10
250.259308
 20
90.386510
 30
0.0
 10
250.166307
 20
90.510010
 30
0.0
 10
250.087308
 20
90.646493
 30
0.0
 10
250.022306
 20
90.795816
 30
0.0
 10
249.970307
 20
90.957897
 30
0.0
 10
248.892308
 20
90.747895
 30
0.0
 10
248.967207
 20
90.484808
 30
0.0
 10
249.063307
 20
90.242294
 30
0.0
 10
249.181307
 20
90.020496
 30
0.0
 10
249.319308
 20
89.819412
 30
0.0
 10
249.479308
 20
89.638903
 30
0.0
 10
249.661307
 20
89.479109
 30
0.0
 10
249.863308
 20
89.339917
 30
0.0
 10
250.089306
 20
89.220198
 30
0.0
 10
250.341308
 20
89.118993
 30
0.0
 10
250.618306
 20
89.036217
 30
0.0
 10
250.921308
 20
88.971701
 30
0.0
 10
251.250306
 20
88.925699
 30
0.0
 10
251.605308
 20
88.898041
 30
0.0
 10
251.985306
 20
88.888784
 30
0.0
  0
LWPOLYLINE
  5
157
100
AcDbEntity
  8
0
 62
7
100
AcDbPolyline
 90
2
 70
0
 10
251.985306
 20
88.888897
 30
0.0
 10
252.377307
 20
88.900186
 30
0.0
  0
LWPOLYLINE
  5
158
100
AcDbEntity
  8
0
 62
7
100
AcDbPolyline
 90
2
 70
0
 10
239.912406
 20
88.895304
 30
0.0
 10
240.131208
 20
88.914495
 30
0.0
  0
LWPOLYLINE
  5
159
100
AcDbEntity
  8
0
 62
7
100
AcDbPolyline
 90
40
 70
0
 10
240.131208
 20
88.914608
 30
0.0
 10
240.339008
 20
88.946809
 30
0.0
 10
240.535807
 20
88.991796
 30
0.0
 10
240.721707
 20
89.049595
 30
0.0
 10
240.896707
 20
89.120320
 30
0.0
 10
241.060808
 20
89.203914
 30
0.0
 10
241.216606
 20
89.303200
 30
0.0
 10
241.367008
 20
89.420717
 30
0.0
 10
241.512008
 20
89.556296
 30
0.0
 10
241.651607
 20
89.709995
 30
0.0
 10
241.785707
 20
89.881812
 30
0.0
 10
241.914508
 20
90.071804
 30
0.0
 10
242.037706
 20
90.279914
 30
0.0
 10
242.057801
 20
90.279914
 30
0.0
 10
242.105807
 20
89.067318
 30
0.0
 10
242.111818
 20
89.016913
 30
0.0
 10
243.264809
 20
89.016913
 30
0.0
 10
243.253915
 20
89.118993
 30
0.0
 10
243.244706
 20
89.261910
 30
0.0
 10
243.237114
 20
89.445496
 30
0.0
 10
243.231295
 20
89.670004
 30
0.0
 10
243.227101
 20
89.935208
 30
0.0
 10
243.223804
 20
90.587903
 30
0.0
 10
243.223807
 20
96.376902
 30
0.0
 10
242.002807
 20
96.376902
 30
0.0
 10
242.002807
 20
92.115911
 30
0.0
 10
241.992308
 20
91.818618
 30
0.0
 10
241.961007
 20
91.540516
 30
0.0
 10
241.908909
 20
91.281493
 30
0.0
 10
241.835906
 20
91.041604
 30
0.0
 10
241.742008
 20
90.820906
 30
0.0
 10
241.627307
 20
90.619315
 30
0.0
 10
241.491807
 20
90.436914
 30
0.0
 10
241.338108
 20
90.276415
 30
0.0
 10
241.169108
 20
90.140609
 30
0.0
 10
240.984907
 20
90.029414
 30
0.0
 10
240.785309
 20
89.942997
 30
0.0
 10
240.570408
 20
89.881304
 30
0.0
 10
240.340207
 20
89.844220
 30
0.0
 10
240.094807
 20
89.831802
 30
0.0
  0
LWPOLYLINE
  5
15a
100
AcDbEntity
  8
0
 62
7
100
AcDbPolyline
 90
4
 70
0
 10
240.094807
 20
89.831915
 30
0.0
 10
239.927607
 20
89.835584
 30
0.0
 10
239.772309
 20
89.846223
 30
0.0
 10
239.628906
 20
89.864088
 30
0.0
  0
LWPOLYLINE
  5
15b
100
AcDbEntity
  8
0
 62
7
100
AcDbPolyline
 90
36
 70
0
 10
239.628906
 20
89.864201
 30
0.0
 10
239.497509
 20
89.889319
 30
0.0
 10
239.378007
 20
89.921718
 30
0.0
 10
239.270407
 20
89.961201
 30
0.0
 10
239.174807
 20
90.007908
 30
0.0
 10
239.088809
 20
90.062998
 30
0.0
 10
239.009806
 20
90.127317
 30
0.0
 10
238.937707
 20
90.200807
 30
0.0
 10
238.872607
 20
90.283301
 30
0.0
 10
238.814308
 20
90.374995
 30
0.0
 10
238.763107
 20
90.475918
 30
0.0
 10
238.718708
 20
90.585900
 30
0.0
 10
238.680808
 20
90.707114
 30
0.0
 10
238.648708
 20
90.841706
 30
0.0
 10
238.622405
 20
90.989703
 30
0.0
 10
238.602004
 20
91.150908
 30
0.0
 10
238.587415
 20
91.325604
 30
0.0
 10
238.578715
 20
91.513592
 30
0.0
 10
238.575799
 20
91.714901
 30
0.0
 10
238.575808
 20
96.376902
 30
0.0
 10
237.348807
 20
96.376902
 30
0.0
 10
237.348807
 20
91.477919
 30
0.0
 10
237.360209
 20
91.097907
 30
0.0
 10
237.394507
 20
90.749899
 30
0.0
 10
237.451807
 20
90.433895
 30
0.0
 10
237.531907
 20
90.149894
 30
0.0
 10
237.635006
 20
89.897898
 30
0.0
 10
237.760908
 20
89.677906
 30
0.0
 10
237.909808
 20
89.489918
 30
0.0
 10
238.083606
 20
89.330406
 30
0.0
 10
238.283908
 20
89.195504
 30
0.0
 10
238.510707
 20
89.085098
 30
0.0
 10
238.764008
 20
88.999303
 30
0.0
 10
239.043707
 20
88.938004
 30
0.0
 10
239.350008
 20
88.901202
 30
0.0
 10
239.682807
 20
88.888784
 30
0.0
  0
LWPOLYLINE
  5
15c
100
AcDbEntity
  8
0
 62
7
100
AcDbPolyline
 90
2
 70
0
 10
239.682807
 20
88.888897
 30
0.0
 10
239.912406
 20
88.895388
 30
0.0
  0
LWPOLYLINE
  5
15d
100
AcDbEntity
  8
0
 62
7
100
AcDbPolyline
 90
51
 70
0
 10
271.171306
 20
68.123212
 30
0.0
 10
271.901308
 20
68.310608
 30
0.0
 10
272.602308
 20
68.587919
 30
0.0
 10
273.262307
 20
68.950913
 30
0.0
 10
273.872308
 20
69.393805
 30
0.0
 10
274.421306
 20
69.909594
 30
0.0
 10
274.901307
 20
70.490210
 30
0.0
 10
275.305308
 20
71.126395
 30
0.0
 10
275.626308
 20
71.808216
 30
0.0
 10
275.858306
 20
72.524806
 30
0.0
 10
276.000306
 20
73.264906
 30
0.0
 10
276.047307
 20
74.016915
 30
0.0
 10
276.000306
 20
74.768896
 30
0.0
 10
275.858306
 20
75.508996
 30
0.0
 10
275.626308
 20
76.225699
 30
0.0
 10
275.305308
 20
76.907407
 30
0.0
 10
274.901307
 20
77.543592
 30
0.0
 10
274.421306
 20
78.124208
 30
0.0
 10
273.872308
 20
78.639997
 30
0.0
 10
273.262307
 20
79.082917
 30
0.0
 10
272.602308
 20
79.445911
 30
0.0
 10
271.901308
 20
79.723194
 30
0.0
 10
271.171306
 20
79.910618
 30
0.0
 10
270.424306
 20
80.005106
 30
0.0
 10
269.670307
 20
80.005106
 30
0.0
 10
268.923307
 20
79.910618
 30
0.0
 10
268.193308
 20
79.723194
 30
0.0
 10
267.492308
 20
79.445911
 30
0.0
 10
266.832309
 20
79.082917
 30
0.0
 10
266.222308
 20
78.639997
 30
0.0
 10
265.673307
 20
78.124208
 30
0.0
 10
265.193309
 20
77.543592
 30
0.0
 10
264.789308
 20
76.907407
 30
0.0
 10
264.468308
 20
76.225699
 30
0.0
 10
264.236307
 20
75.508996
 30
0.0
 10
264.094307
 20
74.768896
 30
0.0
 10
264.047309
 20
74.016915
 30
0.0
 10
264.094307
 20
73.264906
 30
0.0
 10
264.236307
 20
72.524806
 30
0.0
 10
264.468308
 20
71.808216
 30
0.0
 10
264.789308
 20
71.126395
 30
0.0
 10
265.193309
 20
70.490210
 30
0.0
 10
265.673307
 20
69.909594
 30
0.0
 10
266.222308
 20
69.393805
 30
0.0
 10
266.832309
 20
68.950913
 30
0.0
 10
267.492308
 20
68.587919
 30
0.0
 10
268.193308
 20
68.310608
 30
0.0
 10
268.923307
 20
68.123212
 30
0.0
 10
269.670307
 20
68.028696
 30
0.0
 10
270.424306
 20
68.028696
 30
0.0
 10
271.171306
 20
68.123212
 30
0.0
  0
LWPOLYLINE
  5
15e
100
AcDbEntity
  8
0
 62
7
100
AcDbPolyline
 90
13
 70
0
 10
230.855706
 20
71.635919
 30
0.0
 10
231.765706
 20
72.376894
 30
0.0
 10
234.261708
 20
69.016897
 30
0.0
 10
235.691708
 20
69.016897
 30
0.0
 10
232.544707
 20
73.213908
 30
0.0
 10
235.534708
 20
76.376914
 30
0.0
 10
234.104708
 20
76.376914
 30
0.0
 10
230.855706
 20
72.805900
 30
0.0
 10
230.855706
 20
79.064911
 30
0.0
 10
229.635708
 20
79.064911
 30
0.0
 10
229.635708
 20
69.016897
 30
0.0
 10
230.855706
 20
69.016897
 30
0.0
 10
230.855706
 20
71.635919
 30
0.0
  0
LWPOLYLINE
  5
15f
100
AcDbEntity
  8
0
 62
7
100
AcDbPolyline
 90
17
 70
0
 10
209.014506
 20
73.352903
 30
0.0
 10
209.025202
 20
73.633911
 30
0.0
 10
209.057107
 20
73.897902
 30
0.0
 10
209.110207
 20
74.145016
 30
0.0
 10
209.184708
 20
74.375112
 30
0.0
 10
209.280407
 20
74.588302
 30
0.0
 10
209.397306
 20
74.784616
 30
0.0
 10
209.535508
 20
74.963912
 30
0.0
 10
209.691407
 20
75.122605
 30
0.0
 10
209.861407
 20
75.256802
 30
0.0
 10
210.045506
 20
75.366615
 30
0.0
 10
210.243606
 20
75.452100
 30
0.0
 10
210.455908
 20
75.513116
 30
0.0
 10
210.682208
 20
75.549692
 30
0.0
 10
210.922509
 20
75.561828
 30
0.0
 10
211.082808
 20
75.558244
 30
0.0
 10
211.232806
 20
75.547293
 30
0.0
  0
LWPOLYLINE
  5
160
100
AcDbEntity
  8
0
 62
7
100
AcDbPolyline
 90
3
 70
0
 10
211.232806
 20
75.547406
 30
0.0
 10
211.372506
 20
75.529344
 30
0.0
 10
211.502007
 20
75.504000
 30
0.0
  0
LWPOLYLINE
  5
161
100
AcDbEntity
  8
0
 62
7
100
AcDbPolyline
 90
36
 70
0
 10
211.502007
 20
75.504113
 30
0.0
 10
211.621108
 20
75.471601
 30
0.0
 10
211.730006
 20
75.431808
 30
0.0
 10
211.828507
 20
75.384903
 30
0.0
 10
211.918209
 20
75.330518
 30
0.0
 10
212.000406
 20
75.267809
 30
0.0
 10
212.075008
 20
75.196914
 30
0.0
 10
212.142208
 20
75.117808
 30
0.0
 10
212.201808
 20
75.030403
 30
0.0
 10
212.253906
 20
74.934815
 30
0.0
 10
212.298506
 20
74.830900
 30
0.0
 10
212.336507
 20
74.715105
 30
0.0
 10
212.368607
 20
74.582996
 30
0.0
 10
212.394797
 20
74.434604
 30
0.0
 10
212.415298
 20
74.270097
 30
0.0
 10
212.429897
 20
74.089305
 30
0.0
 10
212.438601
 20
73.892201
 30
0.0
 10
212.441513
 20
73.678898
 30
0.0
 10
212.441508
 20
69.016897
 30
0.0
 10
213.668508
 20
69.016897
 30
0.0
 10
213.668508
 20
73.915908
 30
0.0
 10
213.656909
 20
74.299420
 30
0.0
 10
213.622207
 20
74.650109
 30
0.0
 10
213.564208
 20
74.967919
 30
0.0
 10
213.483108
 20
75.252710
 30
0.0
 10
213.378807
 20
75.504706
 30
0.0
 10
213.251206
 20
75.723710
 30
0.0
 10
213.100508
 20
75.909892
 30
0.0
 10
212.925406
 20
76.067711
 30
0.0
 10
212.724506
 20
76.201315
 30
0.0
 10
212.498006
 20
76.310620
 30
0.0
 10
212.245708
 20
76.395597
 30
0.0
 10
211.967707
 20
76.456303
 30
0.0
 10
211.664008
 20
76.492710
 30
0.0
 10
211.334508
 20
76.504845
 30
0.0
 10
211.097707
 20
76.498128
 30
0.0
  0
LWPOLYLINE
  5
162
100
AcDbEntity
  8
0
 62
7
100
AcDbPolyline
 90
19
 70
0
 10
211.097707
 20
76.498015
 30
0.0
 10
210.872908
 20
76.477413
 30
0.0
 10
210.660206
 20
76.443010
 30
0.0
 10
210.459407
 20
76.394807
 30
0.0
 10
210.270807
 20
76.333000
 30
0.0
 10
210.094108
 20
76.257308
 30
0.0
 10
209.929507
 20
76.167900
 30
0.0
 10
209.774508
 20
76.064014
 30
0.0
 10
209.625906
 20
75.944493
 30
0.0
 10
209.483906
 20
75.809393
 30
0.0
 10
209.348307
 20
75.658517
 30
0.0
 10
209.219207
 20
75.492006
 30
0.0
 10
209.096607
 20
75.309803
 30
0.0
 10
208.980507
 20
75.111909
 30
0.0
 10
208.959509
 20
75.111909
 30
0.0
 10
208.990506
 20
75.616918
 30
0.0
 10
209.006705
 20
75.987419
 30
0.0
 10
209.014102
 20
76.347901
 30
0.0
 10
209.014390
 20
79.064911
 30
0.0
  0
LWPOLYLINE
  5
163
100
AcDbEntity
  8
0
 62
7
100
AcDbPolyline
 90
5
 70
0
 10
209.014506
 20
79.064911
 30
0.0
 10
207.793508
 20
79.064911
 30
0.0
 10
207.793508
 20
69.016897
 30
0.0
 10
209.014506
 20
69.016897
 30
0.0
 10
209.014506
 20
73.352903
 30
0.0
  0
LWPOLYLINE
  5
164
100
AcDbEntity
  8
0
 62
7
100
AcDbPolyline
 90
2
 70
0
 10
253.251307
 20
68.892211
 30
0.0
 10
253.429307
 20
68.902089
 30
0.0
  0
LWPOLYLINE
  5
165
100
AcDbEntity
  8
0
 62
7
100
AcDbPolyline
 90
3
 70
0
 10
253.429307
 20
68.902202
 30
0.0
 10
253.606308
 20
68.918853
 30
0.0
 10
253.781306
 20
68.942221
 30
0.0
  0
LWPOLYLINE
  5
166
100
AcDbEntity
  8
0
 62
7
100
AcDbPolyline
 90
7
 70
0
 10
253.781306
 20
68.942108
 30
0.0
 10
253.955307
 20
68.972108
 30
0.0
 10
254.129309
 20
69.008712
 30
0.0
 10
254.301306
 20
69.051892
 30
0.0
 10
254.301306
 20
69.953903
 30
0.0
 10
254.174306
 20
69.928785
 30
0.0
 10
254.057308
 20
69.907534
 30
0.0
  0
LWPOLYLINE
  5
167
100
AcDbEntity
  8
0
 62
7
100
AcDbPolyline
 90
4
 70
0
 10
254.057308
 20
69.907393
 30
0.0
 10
253.949307
 20
69.889895
 30
0.0
 10
253.849307
 20
69.876348
 30
0.0
 10
253.758308
 20
69.866724
 30
0.0
  0
LWPOLYLINE
  5
168
100
AcDbEntity
  8
0
 62
7
100
AcDbPolyline
 90
2
 70
0
 10
253.758308
 20
69.866612
 30
0.0
 10
253.676308
 20
69.860685
 30
0.0
  0
LWPOLYLINE
  5
169
100
AcDbEntity
  8
0
 62
7
100
AcDbPolyline
 90
2
 70
0
 10
253.676308
 20
69.860798
 30
0.0
 10
253.603308
 20
69.857976
 30
0.0
  0
LWPOLYLINE
  5
16a
100
AcDbEntity
  8
0
 62
7
100
AcDbPolyline
 90
2
 70
0
 10
253.603308
 20
69.858907
 30
0.0
 10
253.487307
 20
69.863422
 30
0.0
  0
LWPOLYLINE
  5
16b
100
AcDbEntity
  8
0
 62
7
100
AcDbPolyline
 90
2
 70
0
 10
253.487307
 20
69.863310
 30
0.0
 10
253.381307
 20
69.876292
 30
0.0
  0
LWPOLYLINE
  5
16c
100
AcDbEntity
  8
0
 62
7
100
AcDbPolyline
 90
32
 70
0
 10
253.381307
 20
69.876405
 30
0.0
 10
253.286308
 20
69.898418
 30
0.0
 10
253.201308
 20
69.929096
 30
0.0
 10
253.126308
 20
69.968607
 30
0.0
 10
253.062308
 20
70.016895
 30
0.0
 10
253.008308
 20
70.073904
 30
0.0
 10
252.962308
 20
70.141806
 30
0.0
 10
252.924307
 20
70.222720
 30
0.0
 10
252.892306
 20
70.316615
 30
0.0
 10
252.868317
 20
70.423408
 30
0.0
 10
252.851316
 20
70.543296
 30
0.0
 10
252.840301
 20
70.676110
 30
0.0
 10
252.837315
 20
70.821906
 30
0.0
 10
252.837307
 20
75.488902
 30
0.0
 10
254.179307
 20
75.488902
 30
0.0
 10
254.179307
 20
76.376914
 30
0.0
 10
252.837307
 20
76.376914
 30
0.0
 10
252.837307
 20
78.040896
 30
0.0
 10
252.023307
 20
78.040896
 30
0.0
 10
251.663307
 20
76.376914
 30
0.0
 10
250.768307
 20
76.376914
 30
0.0
 10
250.768307
 20
75.488902
 30
0.0
 10
251.616306
 20
75.488902
 30
0.0
 10
251.616306
 20
70.560906
 30
0.0
 10
251.645307
 20
70.117310
 30
0.0
 10
251.735308
 20
69.742010
 30
0.0
 10
251.883308
 20
69.434896
 30
0.0
 10
252.091306
 20
69.195995
 30
0.0
 10
252.359307
 20
69.025420
 30
0.0
 10
252.686306
 20
68.923002
 30
0.0
 10
253.073306
 20
68.888909
 30
0.0
 10
253.251307
 20
68.892296
 30
0.0
  0
LWPOLYLINE
  5
16d
100
AcDbEntity
  8
0
 62
7
100
AcDbPolyline
 90
58
 70
0
 10
204.140808
 20
68.902004
 30
0.0
 10
204.450609
 20
68.941092
 30
0.0
 10
204.743708
 20
69.006314
 30
0.0
 10
205.020206
 20
69.097500
 30
0.0
 10
205.279907
 20
69.214904
 30
0.0
 10
205.522906
 20
69.358414
 30
0.0
 10
205.749308
 20
69.527917
 30
0.0
 10
205.954607
 20
69.719320
 30
0.0
 10
206.134708
 20
69.928418
 30
0.0
 10
206.289408
 20
70.155099
 30
0.0
 10
206.418807
 20
70.399616
 30
0.0
 10
206.523006
 20
70.661716
 30
0.0
 10
206.601808
 20
70.941398
 30
0.0
 10
206.655306
 20
71.238917
 30
0.0
 10
205.421306
 20
71.320903
 30
0.0
 10
205.385007
 20
71.115106
 30
0.0
 10
205.334808
 20
70.925114
 30
0.0
 10
205.270907
 20
70.750814
 30
0.0
 10
205.193206
 20
70.592402
 30
0.0
 10
205.101706
 20
70.449796
 30
0.0
 10
204.996407
 20
70.322908
 30
0.0
 10
204.877306
 20
70.211910
 30
0.0
 10
204.747207
 20
70.116406
 30
0.0
 10
204.608207
 20
70.035606
 30
0.0
 10
204.460506
 20
69.969397
 30
0.0
 10
204.303907
 20
69.918004
 30
0.0
 10
204.138507
 20
69.881315
 30
0.0
 10
203.964306
 20
69.859302
 30
0.0
 10
203.781307
 20
69.851880
 30
0.0
 10
203.523207
 20
69.866301
 30
0.0
 10
203.284407
 20
69.909509
 30
0.0
 10
203.064807
 20
69.981617
 30
0.0
 10
202.864607
 20
70.082399
 30
0.0
 10
202.683508
 20
70.212108
 30
0.0
 10
202.521806
 20
70.370604
 30
0.0
 10
202.379306
 20
70.557915
 30
0.0
 10
202.256207
 20
70.775113
 30
0.0
 10
202.152007
 20
71.023412
 30
0.0
 10
202.066807
 20
71.302812
 30
0.0
 10
202.000508
 20
71.613200
 30
0.0
 10
201.953207
 20
71.954717
 30
0.0
 10
201.924807
 20
72.327307
 30
0.0
 10
201.915296
 20
72.730913
 30
0.0
 10
201.924198
 20
73.149392
 30
0.0
 10
201.951017
 20
73.532001
 30
0.0
 10
201.995608
 20
73.878400
 30
0.0
 10
202.058008
 20
74.188901
 30
0.0
 10
202.138308
 20
74.463193
 30
0.0
 10
202.236406
 20
74.701614
 30
0.0
 10
202.352306
 20
74.903911
 30
0.0
 10
202.488408
 20
75.074994
 30
0.0
 10
202.646607
 20
75.219803
 30
0.0
 10
202.826707
 20
75.338308
 30
0.0
 10
203.028908
 20
75.430397
 30
0.0
 10
203.253007
 20
75.496211
 30
0.0
 10
203.499108
 20
75.535694
 30
0.0
 10
203.767306
 20
75.548958
 30
0.0
 10
203.965708
 20
75.541282
 30
0.0
  0
LWPOLYLINE
  5
16e
100
AcDbEntity
  8
0
 62
7
100
AcDbPolyline
 90
29
 70
0
 10
203.965708
 20
75.541395
 30
0.0
 10
204.150708
 20
75.519099
 30
0.0
 10
204.322307
 20
75.481902
 30
0.0
 10
204.480408
 20
75.429720
 30
0.0
 10
204.625208
 20
75.362720
 30
0.0
 10
204.756408
 20
75.280706
 30
0.0
 10
204.874306
 20
75.183904
 30
0.0
 10
204.979707
 20
75.074712
 30
0.0
 10
205.073106
 20
74.955106
 30
0.0
 10
205.154606
 20
74.825115
 30
0.0
 10
205.224007
 20
74.684596
 30
0.0
 10
205.281406
 20
74.533805
 30
0.0
 10
205.326909
 20
74.372600
 30
0.0
 10
205.360307
 20
74.200896
 30
0.0
 10
206.614308
 20
74.296908
 30
0.0
 10
206.548406
 20
74.582714
 30
0.0
 10
206.459808
 20
74.850402
 30
0.0
 10
206.348607
 20
75.099915
 30
0.0
 10
206.214808
 20
75.331309
 30
0.0
 10
206.058307
 20
75.544612
 30
0.0
 10
205.879107
 20
75.739797
 30
0.0
 10
205.677307
 20
75.916920
 30
0.0
 10
205.456307
 20
76.072904
 30
0.0
 10
205.219706
 20
76.204899
 30
0.0
 10
204.967307
 20
76.312906
 30
0.0
 10
204.699308
 20
76.396895
 30
0.0
 10
204.415706
 20
76.456896
 30
0.0
 10
204.116308
 20
76.492907
 30
0.0
 10
203.801308
 20
76.505043
 30
0.0
  0
LWPOLYLINE
  5
16f
100
AcDbEntity
  8
0
 62
7
100
AcDbPolyline
 90
2
 70
0
 10
203.801308
 20
76.504902
 30
0.0
 10
203.379708
 20
76.484864
 30
0.0
  0
LWPOLYLINE
  5
170
100
AcDbEntity
  8
0
 62
7
100
AcDbPolyline
 90
28
 70
0
 10
203.379708
 20
76.485005
 30
0.0
 10
202.987108
 20
76.425400
 30
0.0
 10
202.623307
 20
76.326001
 30
0.0
 10
202.288507
 20
76.186894
 30
0.0
 10
201.982507
 20
76.007993
 30
0.0
 10
201.705506
 20
75.789299
 30
0.0
 10
201.457306
 20
75.530896
 30
0.0
 10
201.240506
 20
75.234704
 30
0.0
 10
201.057106
 20
74.902613
 30
0.0
 10
200.907108
 20
74.534595
 30
0.0
 10
200.790406
 20
74.130707
 30
0.0
 10
200.707007
 20
73.691005
 30
0.0
 10
200.657008
 20
73.215404
 30
0.0
 10
200.640301
 20
72.703904
 30
0.0
 10
200.656901
 20
72.188708
 30
0.0
 10
200.706708
 20
71.709918
 30
0.0
 10
200.789808
 20
71.267619
 30
0.0
 10
200.906106
 20
70.861812
 30
0.0
 10
201.055608
 20
70.492411
 30
0.0
 10
201.238307
 20
70.159417
 30
0.0
 10
201.454306
 20
69.862914
 30
0.0
 10
201.701806
 20
69.604512
 30
0.0
 10
201.979208
 20
69.385818
 30
0.0
 10
202.286506
 20
69.206917
 30
0.0
 10
202.623606
 20
69.067810
 30
0.0
 10
202.990608
 20
68.968411
 30
0.0
 10
203.387508
 20
68.908806
 30
0.0
 10
203.814307
 20
68.888768
 30
0.0
  0
LWPOLYLINE
  5
171
100
AcDbEntity
  8
0
 62
7
100
AcDbPolyline
 90
2
 70
0
 10
203.814307
 20
68.888909
 30
0.0
 10
204.140808
 20
68.901891
 30
0.0
  0
LWPOLYLINE
  5
172
100
AcDbEntity
  8
0
 62
7
100
AcDbPolyline
 90
74
 70
0
 10
218.935506
 20
68.924497
 30
0.0
 10
219.500907
 20
69.031093
 30
0.0
 10
219.997807
 20
69.208893
 30
0.0
 10
220.426108
 20
69.457700
 30
0.0
 10
220.785806
 20
69.777712
 30
0.0
 10
221.076907
 20
70.168702
 30
0.0
 10
221.299507
 20
70.630898
 30
0.0
 10
220.228507
 20
70.936911
 30
0.0
 10
220.173606
 20
70.800118
 30
0.0
 10
220.106107
 20
70.670211
 30
0.0
 10
220.025908
 20
70.547303
 30
0.0
 10
219.933006
 20
70.431310
 30
0.0
 10
219.827506
 20
70.322203
 30
0.0
 10
219.709306
 20
70.220095
 30
0.0
 10
219.578507
 20
70.124901
 30
0.0
 10
219.434907
 20
70.039698
 30
0.0
 10
219.278307
 20
69.967704
 30
0.0
 10
219.108906
 20
69.908719
 30
0.0
 10
218.926407
 20
69.862802
 30
0.0
 10
218.731107
 20
69.830092
 30
0.0
 10
218.522708
 20
69.810336
 30
0.0
 10
218.301508
 20
69.803902
 30
0.0
 10
218.023607
 20
69.817731
 30
0.0
 10
217.765407
 20
69.859697
 30
0.0
 10
217.526907
 20
69.929519
 30
0.0
 10
217.308007
 20
70.027196
 30
0.0
 10
217.108907
 20
70.152898
 30
0.0
 10
216.929307
 20
70.306398
 30
0.0
 10
216.769507
 20
70.487896
 30
0.0
 10
216.630507
 20
70.695301
 30
0.0
 10
216.512908
 20
70.926300
 30
0.0
 10
216.416608
 20
71.180610
 30
0.0
 10
216.341706
 20
71.458514
 30
0.0
 10
216.288307
 20
71.759815
 30
0.0
 10
216.256207
 20
72.084596
 30
0.0
 10
216.245511
 20
72.432915
 30
0.0
 10
221.496506
 20
72.432915
 30
0.0
 10
221.496506
 20
72.595898
 30
0.0
 10
221.430308
 20
73.633008
 30
0.0
 10
221.231807
 20
74.510494
 30
0.0
 10
220.900907
 20
75.228495
 30
0.0
 10
220.437608
 20
75.786900
 30
0.0
 10
219.841908
 20
76.185793
 30
0.0
 10
219.113907
 20
76.425117
 30
0.0
 10
218.253508
 20
76.504902
 30
0.0
 10
217.815908
 20
76.485146
 30
0.0
 10
217.408006
 20
76.425597
 30
0.0
 10
217.030108
 20
76.326509
 30
0.0
 10
216.681908
 20
76.187797
 30
0.0
 10
216.363606
 20
76.009517
 30
0.0
 10
216.075108
 20
75.791500
 30
0.0
 10
215.816507
 20
75.533916
 30
0.0
 10
215.590207
 20
75.239417
 30
0.0
 10
215.398708
 20
74.910318
 30
0.0
 10
215.242007
 20
74.546505
 30
0.0
 10
215.120206
 20
74.148092
 30
0.0
 10
215.033106
 20
73.714994
 30
0.0
 10
214.980907
 20
73.247295
 30
0.0
 10
214.963522
 20
72.744911
 30
0.0
 10
214.980893
 20
72.217015
 30
0.0
 10
215.033106
 20
71.727698
 30
0.0
 10
215.120206
 20
71.276820
 30
0.0
 10
215.242007
 20
70.864606
 30
0.0
 10
215.398708
 20
70.490802
 30
0.0
 10
215.590207
 20
70.155607
 30
0.0
 10
215.816507
 20
69.858907
 30
0.0
 10
216.076107
 20
69.601492
 30
0.0
 10
216.367507
 20
69.383814
 30
0.0
 10
216.690708
 20
69.205619
 30
0.0
 10
217.045707
 20
69.067104
 30
0.0
 10
217.432506
 20
68.968101
 30
0.0
 10
217.851107
 20
68.908693
 30
0.0
 10
218.301508
 20
68.888937
 30
0.0
 10
218.935506
 20
68.924497
 30
0.0
  0
LWPOLYLINE
  5
173
100
AcDbEntity
  8
0
 62
7
100
AcDbPolyline
 90
30
 70
0
 10
216.258507
 20
73.368905
 30
0.0
 10
216.280012
 20
73.657505
 30
0.0
 10
216.321107
 20
73.927902
 30
0.0
 10
216.381807
 20
74.180096
 30
0.0
 10
216.462108
 20
74.414115
 30
0.0
 10
216.562006
 20
74.629902
 30
0.0
 10
216.681507
 20
74.827514
 30
0.0
 10
216.820507
 20
75.006894
 30
0.0
 10
216.976906
 20
75.164995
 30
0.0
 10
217.148407
 20
75.298797
 30
0.0
 10
217.335007
 20
75.408299
 30
0.0
 10
217.536807
 20
75.493417
 30
0.0
 10
217.753607
 20
75.554208
 30
0.0
 10
217.985507
 20
75.590699
 30
0.0
 10
218.232507
 20
75.602835
 30
0.0
 10
218.486307
 20
75.591913
 30
0.0
 10
218.722606
 20
75.559203
 30
0.0
 10
218.941407
 20
75.504593
 30
0.0
 10
219.142708
 20
75.428196
 30
0.0
 10
219.326508
 20
75.329898
 30
0.0
 10
219.492709
 20
75.209812
 30
0.0
 10
219.641507
 20
75.067911
 30
0.0
 10
219.773906
 20
74.902416
 30
0.0
 10
219.890306
 20
74.711210
 30
0.0
 10
219.990907
 20
74.494294
 30
0.0
 10
220.075608
 20
74.251611
 30
0.0
 10
220.144507
 20
73.983105
 30
0.0
 10
220.197406
 20
73.688916
 30
0.0
 10
220.234507
 20
73.368905
 30
0.0
 10
216.258507
 20
73.368905
 30
0.0
  0
LWPOLYLINE
  5
174
100
AcDbEntity
  8
0
 62
7
100
AcDbPolyline
 90
50
 70
0
 10
239.764607
 20
68.908213
 30
0.0
 10
240.179908
 20
68.965899
 30
0.0
 10
240.563806
 20
69.062109
 30
0.0
 10
240.916308
 20
69.196814
 30
0.0
 10
241.237606
 20
69.370013
 30
0.0
 10
241.527406
 20
69.581708
 30
0.0
 10
241.786006
 20
69.831898
 30
0.0
 10
242.011508
 20
70.121712
 30
0.0
 10
242.202307
 20
70.451715
 30
0.0
 10
242.358407
 20
70.821793
 30
0.0
 10
242.479906
 20
71.232003
 30
0.0
 10
242.566608
 20
71.682514
 30
0.0
 10
242.618607
 20
72.173101
 30
0.0
 10
242.635992
 20
72.703904
 30
0.0
 10
242.619722
 20
73.239619
 30
0.0
 10
242.571008
 20
73.733592
 30
0.0
 10
242.489807
 20
74.185910
 30
0.0
 10
242.376108
 20
74.596515
 30
0.0
 10
242.229908
 20
74.965295
 30
0.0
 10
242.051208
 20
75.292503
 30
0.0
 10
241.840007
 20
75.577914
 30
0.0
 10
241.594606
 20
75.823815
 30
0.0
 10
241.313008
 20
76.031897
 30
0.0
 10
240.994906
 20
76.202218
 30
0.0
 10
240.640509
 20
76.334609
 30
0.0
 10
240.249707
 20
76.429210
 30
0.0
 10
239.822507
 20
76.485993
 30
0.0
 10
239.359008
 20
76.504902
 30
0.0
 10
238.484308
 20
76.427319
 30
0.0
 10
237.744107
 20
76.194598
 30
0.0
 10
237.138506
 20
75.806797
 30
0.0
 10
236.667607
 20
75.263801
 30
0.0
 10
236.331108
 20
74.565612
 30
0.0
 10
236.129308
 20
73.712313
 30
0.0
 10
236.062006
 20
72.703904
 30
0.0
 10
236.078714
 20
72.192292
 30
0.0
 10
236.129108
 20
71.716211
 30
0.0
 10
236.213007
 20
71.275804
 30
0.0
 10
236.330408
 20
70.870899
 30
0.0
 10
236.481408
 20
70.501612
 30
0.0
 10
236.665908
 20
70.167997
 30
0.0
 10
236.884007
 20
69.869914
 30
0.0
 10
237.135207
 20
69.609620
 30
0.0
 10
237.418606
 20
69.389402
 30
0.0
 10
237.734108
 20
69.209203
 30
0.0
 10
238.081907
 20
69.069108
 30
0.0
 10
238.461708
 20
68.969004
 30
0.0
 10
238.873806
 20
68.908919
 30
0.0
 10
239.318007
 20
68.888881
 30
0.0
 10
239.764607
 20
68.908100
 30
0.0
  0
LWPOLYLINE
  5
175
100
AcDbEntity
  8
0
 62
7
100
AcDbPolyline
 90
57
 70
0
 10
239.026006
 20
69.805793
 30
0.0
 10
238.769206
 20
69.850497
 30
0.0
 10
238.534507
 20
69.925003
 30
0.0
 10
238.322008
 20
70.029313
 30
0.0
 10
238.131508
 20
70.163312
 30
0.0
 10
237.963208
 20
70.327198
 30
0.0
 10
237.817008
 20
70.520916
 30
0.0
 10
237.691507
 20
70.744210
 30
0.0
 10
237.585306
 20
70.996996
 30
0.0
 10
237.498407
 20
71.279416
 30
0.0
 10
237.430908
 20
71.591300
 30
0.0
 10
237.382606
 20
71.932619
 30
0.0
 10
237.353608
 20
72.303516
 30
0.0
 10
237.344012
 20
72.703904
 30
0.0
 10
237.353800
 20
73.114594
 30
0.0
 10
237.383207
 20
73.492998
 30
0.0
 10
237.432108
 20
73.839002
 30
0.0
 10
237.500708
 20
74.152692
 30
0.0
 10
237.588908
 20
74.434096
 30
0.0
 10
237.696606
 20
74.683214
 30
0.0
 10
237.824007
 20
74.899904
 30
0.0
 10
237.973308
 20
75.086396
 30
0.0
 10
238.146906
 20
75.244215
 30
0.0
 10
238.344908
 20
75.373303
 30
0.0
 10
238.567208
 20
75.473803
 30
0.0
 10
238.813808
 20
75.545515
 30
0.0
 10
239.084708
 20
75.588498
 30
0.0
 10
239.380008
 20
75.602891
 30
0.0
 10
239.672808
 20
75.588808
 30
0.0
 10
239.940507
 20
75.546701
 30
0.0
 10
240.182908
 20
75.476314
 30
0.0
 10
240.400208
 20
75.377904
 30
0.0
 10
240.592308
 20
75.251412
 30
0.0
 10
240.759206
 20
75.096697
 30
0.0
 10
240.901008
 20
74.913902
 30
0.0
 10
241.021207
 20
74.700119
 30
0.0
 10
241.122908
 20
74.452299
 30
0.0
 10
241.206107
 20
74.170500
 30
0.0
 10
241.270807
 20
73.854807
 30
0.0
 10
241.317007
 20
73.505105
 30
0.0
 10
241.344693
 20
73.121509
 30
0.0
 10
241.354020
 20
72.703904
 30
0.0
 10
241.344298
 20
72.291296
 30
0.0
 10
241.315407
 20
71.911114
 30
0.0
 10
241.267107
 20
71.563303
 30
0.0
 10
241.199506
 20
71.248118
 30
0.0
 10
241.112706
 20
70.965218
 30
0.0
 10
241.006506
 20
70.714802
 30
0.0
 10
240.881007
 20
70.496898
 30
0.0
 10
240.733007
 20
70.309616
 30
0.0
 10
240.559308
 20
70.151120
 30
0.0
 10
240.359808
 20
70.021410
 30
0.0
 10
240.134707
 20
69.920601
 30
0.0
 10
239.883806
 20
69.848493
 30
0.0
 10
239.607307
 20
69.805313
 30
0.0
 10
239.305008
 20
69.790920
 30
0.0
 10
239.026006
 20
69.805877
 30
0.0
  0
LWPOLYLINE
  5
176
100
AcDbEntity
  8
0
 62
7
100
AcDbPolyline
 90
58
 70
0
 10
226.008006
 20
68.902004
 30
0.0
 10
226.317807
 20
68.941092
 30
0.0
 10
226.610906
 20
69.006314
 30
0.0
 10
226.887408
 20
69.097500
 30
0.0
 10
227.147109
 20
69.214904
 30
0.0
 10
227.390108
 20
69.358414
 30
0.0
 10
227.616506
 20
69.527917
 30
0.0
 10
227.821806
 20
69.719320
 30
0.0
 10
228.001906
 20
69.928418
 30
0.0
 10
228.156606
 20
70.155099
 30
0.0
 10
228.286008
 20
70.399616
 30
0.0
 10
228.390109
 20
70.661716
 30
0.0
 10
228.469007
 20
70.941398
 30
0.0
 10
228.522507
 20
71.238917
 30
0.0
 10
227.288508
 20
71.320903
 30
0.0
 10
227.252107
 20
71.115106
 30
0.0
 10
227.202007
 20
70.925114
 30
0.0
 10
227.138106
 20
70.750814
 30
0.0
 10
227.060407
 20
70.592402
 30
0.0
 10
226.968908
 20
70.449796
 30
0.0
 10
226.863608
 20
70.322908
 30
0.0
 10
226.744507
 20
70.211910
 30
0.0
 10
226.614409
 20
70.116406
 30
0.0
 10
226.475406
 20
70.035606
 30
0.0
 10
226.327708
 20
69.969397
 30
0.0
 10
226.171108
 20
69.918004
 30
0.0
 10
226.005706
 20
69.881315
 30
0.0
 10
225.831507
 20
69.859217
 30
0.0
 10
225.648509
 20
69.851880
 30
0.0
 10
225.390408
 20
69.866301
 30
0.0
 10
225.151609
 20
69.909509
 30
0.0
 10
224.932006
 20
69.981617
 30
0.0
 10
224.731707
 20
70.082399
 30
0.0
 10
224.550707
 20
70.212108
 30
0.0
 10
224.389007
 20
70.370604
 30
0.0
 10
224.246508
 20
70.557915
 30
0.0
 10
224.123408
 20
70.775113
 30
0.0
 10
224.019206
 20
71.023412
 30
0.0
 10
223.934006
 20
71.302812
 30
0.0
 10
223.867706
 20
71.613200
 30
0.0
 10
223.820406
 20
71.954717
 30
0.0
 10
223.791907
 20
72.327307
 30
0.0
 10
223.782509
 20
72.730913
 30
0.0
 10
223.791396
 20
73.149392
 30
0.0
 10
223.818219
 20
73.532001
 30
0.0
 10
223.862708
 20
73.878400
 30
0.0
 10
223.925206
 20
74.188901
 30
0.0
 10
224.005408
 20
74.463193
 30
0.0
 10
224.103506
 20
74.701614
 30
0.0
 10
224.219508
 20
74.903911
 30
0.0
 10
224.355606
 20
75.074994
 30
0.0
 10
224.513806
 20
75.219803
 30
0.0
 10
224.693906
 20
75.338308
 30
0.0
 10
224.896107
 20
75.430397
 30
0.0
 10
225.120208
 20
75.496211
 30
0.0
 10
225.366306
 20
75.535694
 30
0.0
 10
225.634508
 20
75.548958
 30
0.0
 10
225.832907
 20
75.541282
 30
0.0
  0
LWPOLYLINE
  5
177
100
AcDbEntity
  8
0
 62
7
100
AcDbPolyline
 90
29
 70
0
 10
225.832907
 20
75.541395
 30
0.0
 10
226.017907
 20
75.519099
 30
0.0
 10
226.189506
 20
75.481902
 30
0.0
 10
226.347607
 20
75.429720
 30
0.0
 10
226.492308
 20
75.362720
 30
0.0
 10
226.623606
 20
75.280706
 30
0.0
 10
226.741507
 20
75.183904
 30
0.0
 10
226.846906
 20
75.074712
 30
0.0
 10
226.940308
 20
74.955106
 30
0.0
 10
227.021808
 20
74.825115
 30
0.0
 10
227.091206
 20
74.684596
 30
0.0
 10
227.148607
 20
74.533805
 30
0.0
 10
227.194008
 20
74.372600
 30
0.0
 10
227.227508
 20
74.200896
 30
0.0
 10
228.481506
 20
74.296908
 30
0.0
 10
228.415607
 20
74.582714
 30
0.0
 10
228.327006
 20
74.850402
 30
0.0
 10
228.215808
 20
75.099915
 30
0.0
 10
228.082007
 20
75.331309
 30
0.0
 10
227.925506
 20
75.544612
 30
0.0
 10
227.746306
 20
75.739797
 30
0.0
 10
227.544506
 20
75.916920
 30
0.0
 10
227.323506
 20
76.072904
 30
0.0
 10
227.086908
 20
76.204899
 30
0.0
 10
226.834508
 20
76.312906
 30
0.0
 10
226.566507
 20
76.396895
 30
0.0
 10
226.282806
 20
76.456896
 30
0.0
 10
225.983506
 20
76.492907
 30
0.0
 10
225.668507
 20
76.505043
 30
0.0
  0
LWPOLYLINE
  5
178
100
AcDbEntity
  8
0
 62
7
100
AcDbPolyline
 90
2
 70
0
 10
225.668507
 20
76.504902
 30
0.0
 10
225.246906
 20
76.484864
 30
0.0
  0
LWPOLYLINE
  5
179
100
AcDbEntity
  8
0
 62
7
100
AcDbPolyline
 90
28
 70
0
 10
225.246906
 20
76.485005
 30
0.0
 10
224.854307
 20
76.425400
 30
0.0
 10
224.490506
 20
76.326001
 30
0.0
 10
224.155708
 20
76.186894
 30
0.0
 10
223.849706
 20
76.007993
 30
0.0
 10
223.572606
 20
75.789299
 30
0.0
 10
223.324507
 20
75.530896
 30
0.0
 10
223.107707
 20
75.234704
 30
0.0
 10
222.924308
 20
74.902613
 30
0.0
 10
222.774307
 20
74.534595
 30
0.0
 10
222.657506
 20
74.130707
 30
0.0
 10
222.574208
 20
73.691005
 30
0.0
 10
222.524207
 20
73.215404
 30
0.0
 10
222.507500
 20
72.703904
 30
0.0
 10
222.524103
 20
72.188708
 30
0.0
 10
222.573906
 20
71.709918
 30
0.0
 10
222.657007
 20
71.267619
 30
0.0
 10
222.773308
 20
70.861812
 30
0.0
 10
222.922806
 20
70.492411
 30
0.0
 10
223.105509
 20
70.159417
 30
0.0
 10
223.321507
 20
69.862914
 30
0.0
 10
223.569008
 20
69.604512
 30
0.0
 10
223.846407
 20
69.385818
 30
0.0
 10
224.153606
 20
69.206917
 30
0.0
 10
224.490808
 20
69.067810
 30
0.0
 10
224.857807
 20
68.968411
 30
0.0
 10
225.254707
 20
68.908806
 30
0.0
 10
225.681506
 20
68.888768
 30
0.0
  0
LWPOLYLINE
  5
17a
100
AcDbEntity
  8
0
 62
7
100
AcDbPolyline
 90
2
 70
0
 10
225.681506
 20
68.888909
 30
0.0
 10
226.008006
 20
68.901891
 30
0.0
  0
LWPOLYLINE
  5
17b
100
AcDbEntity
  8
0
 62
7
100
AcDbPolyline
 90
2
 70
0
 10
246.487609
 20
68.895316
 30
0.0
 10
246.706407
 20
68.914507
 30
0.0
  0
LWPOLYLINE
  5
17c
100
AcDbEntity
  8
0
 62
7
100
AcDbPolyline
 90
40
 70
0
 10
246.706407
 20
68.914620
 30
0.0
 10
246.914207
 20
68.946793
 30
0.0
 10
247.111006
 20
68.991807
 30
0.0
 10
247.296906
 20
69.049606
 30
0.0
 10
247.471906
 20
69.120303
 30
0.0
 10
247.636007
 20
69.203897
 30
0.0
 10
247.791808
 20
69.303211
 30
0.0
 10
247.942207
 20
69.420700
 30
0.0
 10
248.087207
 20
69.556308
 30
0.0
 10
248.226806
 20
69.710006
 30
0.0
 10
248.360906
 20
69.881795
 30
0.0
 10
248.489707
 20
70.071815
 30
0.0
 10
248.612908
 20
70.279898
 30
0.0
 10
248.632918
 20
70.279898
 30
0.0
 10
248.681009
 20
69.067302
 30
0.0
 10
248.686907
 20
69.016897
 30
0.0
 10
249.840307
 20
69.016897
 30
0.0
 10
249.829300
 20
69.119005
 30
0.0
 10
249.820306
 20
69.261894
 30
0.0
 10
249.812319
 20
69.445508
 30
0.0
 10
249.806296
 20
69.670016
 30
0.0
 10
249.802300
 20
69.935220
 30
0.0
 10
249.799317
 20
70.587915
 30
0.0
 10
249.799308
 20
76.376914
 30
0.0
 10
248.578009
 20
76.376914
 30
0.0
 10
248.578009
 20
72.115894
 30
0.0
 10
248.567510
 20
71.818602
 30
0.0
 10
248.536206
 20
71.540500
 30
0.0
 10
248.484108
 20
71.281504
 30
0.0
 10
248.411108
 20
71.041616
 30
0.0
 10
248.317207
 20
70.820918
 30
0.0
 10
248.202506
 20
70.619298
 30
0.0
 10
248.067009
 20
70.436898
 30
0.0
 10
247.913308
 20
70.276398
 30
0.0
 10
247.744307
 20
70.140593
 30
0.0
 10
247.560107
 20
70.029397
 30
0.0
 10
247.360508
 20
69.943009
 30
0.0
 10
247.145607
 20
69.881315
 30
0.0
 10
246.915407
 20
69.844203
 30
0.0
 10
246.670006
 20
69.831785
 30
0.0
  0
LWPOLYLINE
  5
17d
100
AcDbEntity
  8
0
 62
7
100
AcDbPolyline
 90
4
 70
0
 10
246.670006
 20
69.831898
 30
0.0
 10
246.502806
 20
69.835567
 30
0.0
 10
246.347508
 20
69.846235
 30
0.0
 10
246.204108
 20
69.864100
 30
0.0
  0
LWPOLYLINE
  5
17e
100
AcDbEntity
  8
0
 62
7
100
AcDbPolyline
 90
36
 70
0
 10
246.204108
 20
69.864213
 30
0.0
 10
246.072708
 20
69.889330
 30
0.0
 10
245.953207
 20
69.921701
 30
0.0
 10
245.845607
 20
69.961212
 30
0.0
 10
245.750007
 20
70.007892
 30
0.0
 10
245.664008
 20
70.063010
 30
0.0
 10
245.585008
 20
70.127300
 30
0.0
 10
245.512906
 20
70.200819
 30
0.0
 10
245.447806
 20
70.283313
 30
0.0
 10
245.389507
 20
70.375007
 30
0.0
 10
245.338306
 20
70.475901
 30
0.0
 10
245.293907
 20
70.585911
 30
0.0
 10
245.256008
 20
70.707098
 30
0.0
 10
245.223908
 20
70.841718
 30
0.0
 10
245.197605
 20
70.989715
 30
0.0
 10
245.177203
 20
71.150892
 30
0.0
 10
245.162618
 20
71.325616
 30
0.0
 10
245.153914
 20
71.513604
 30
0.0
 10
245.151001
 20
71.714913
 30
0.0
 10
245.151007
 20
76.376914
 30
0.0
 10
243.923907
 20
76.376914
 30
0.0
 10
243.923907
 20
71.477903
 30
0.0
 10
243.935394
 20
71.097919
 30
0.0
 10
243.969707
 20
70.749911
 30
0.0
 10
244.027006
 20
70.433906
 30
0.0
 10
244.107106
 20
70.149906
 30
0.0
 10
244.210208
 20
69.897910
 30
0.0
 10
244.336107
 20
69.677918
 30
0.0
 10
244.485008
 20
69.489901
 30
0.0
 10
244.658809
 20
69.330418
 30
0.0
 10
244.859107
 20
69.195515
 30
0.0
 10
245.085907
 20
69.085110
 30
0.0
 10
245.339207
 20
68.999314
 30
0.0
 10
245.618906
 20
68.938016
 30
0.0
 10
245.925207
 20
68.901214
 30
0.0
 10
246.257908
 20
68.888796
 30
0.0
  0
LWPOLYLINE
  5
17f
100
AcDbEntity
  8
0
 62
7
100
AcDbPolyline
 90
2
 70
0
 10
246.257908
 20
68.888909
 30
0.0
 10
246.487609
 20
68.895400
 30
0.0
  0
LWPOLYLINE
  5
180
100
AcDbEntity
  8
0
 62
7
100
AcDbPolyline
 90
51
 70
0
 10
251.856308
 20
61.396107
 30
0.0
 10
252.057306
 20
61.447697
 30
0.0
 10
252.250307
 20
61.523897
 30
0.0
 10
252.431307
 20
61.623804
 30
0.0
 10
252.599306
 20
61.745611
 30
0.0
 10
252.750306
 20
61.887399
 30
0.0
 10
252.882307
 20
62.047109
 30
0.0
 10
252.993308
 20
62.222002
 30
0.0
 10
253.081307
 20
62.409510
 30
0.0
 10
253.145307
 20
62.606614
 30
0.0
 10
253.184307
 20
62.810096
 30
0.0
 10
253.197318
 20
63.016909
 30
0.0
 10
253.184296
 20
63.223693
 30
0.0
 10
253.145307
 20
63.427204
 30
0.0
 10
253.081307
 20
63.624308
 30
0.0
 10
252.993308
 20
63.811816
 30
0.0
 10
252.882307
 20
63.986709
 30
0.0
 10
252.750306
 20
64.146419
 30
0.0
 10
252.599306
 20
64.288207
 30
0.0
 10
252.431307
 20
64.410014
 30
0.0
 10
252.250307
 20
64.509893
 30
0.0
 10
252.057306
 20
64.586093
 30
0.0
 10
251.856308
 20
64.637711
 30
0.0
 10
251.651307
 20
64.663676
 30
0.0
 10
251.443307
 20
64.663704
 30
0.0
 10
251.238306
 20
64.637739
 30
0.0
 10
251.037307
 20
64.586093
 30
0.0
 10
250.844307
 20
64.509893
 30
0.0
 10
250.663306
 20
64.410014
 30
0.0
 10
250.495308
 20
64.288207
 30
0.0
 10
250.344308
 20
64.146419
 30
0.0
 10
250.212307
 20
63.986709
 30
0.0
 10
250.101306
 20
63.811816
 30
0.0
 10
250.013306
 20
63.624308
 30
0.0
 10
249.949307
 20
63.427204
 30
0.0
 10
249.910306
 20
63.223693
 30
0.0
 10
249.897296
 20
63.016909
 30
0.0
 10
249.910318
 20
62.810096
 30
0.0
 10
249.949307
 20
62.606614
 30
0.0
 10
250.013306
 20
62.409510
 30
0.0
 10
250.101306
 20
62.222002
 30
0.0
 10
250.212307
 20
62.047109
 30
0.0
 10
250.344308
 20
61.887399
 30
0.0
 10
250.495308
 20
61.745611
 30
0.0
 10
250.663306
 20
61.623804
 30
0.0
 10
250.844307
 20
61.523897
 30
0.0
 10
251.037307
 20
61.447697
 30
0.0
 10
251.238306
 20
61.396107
 30
0.0
 10
251.443307
 20
61.370142
 30
0.0
 10
251.651307
 20
61.370199
 30
0.0
 10
251.856308
 20
61.396163
 30
0.0
  0
LWPOLYLINE
  5
181
100
AcDbEntity
  8
0
 62
7
100
AcDbPolyline
 90
51
 70
0
 10
276.856306
 20
61.396107
 30
0.0
 10
277.057307
 20
61.447697
 30
0.0
 10
277.250308
 20
61.523897
 30
0.0
 10
277.431308
 20
61.623804
 30
0.0
 10
277.599307
 20
61.745611
 30
0.0
 10
277.750307
 20
61.887399
 30
0.0
 10
277.882308
 20
62.047109
 30
0.0
 10
277.993308
 20
62.222002
 30
0.0
 10
278.081308
 20
62.409510
 30
0.0
 10
278.145308
 20
62.606614
 30
0.0
 10
278.184308
 20
62.810096
 30
0.0
 10
278.197318
 20
63.016909
 30
0.0
 10
278.184297
 20
63.223693
 30
0.0
 10
278.145308
 20
63.427204
 30
0.0
 10
278.081308
 20
63.624308
 30
0.0
 10
277.993308
 20
63.811816
 30
0.0
 10
277.882308
 20
63.986709
 30
0.0
 10
277.750307
 20
64.146419
 30
0.0
 10
277.599307
 20
64.288207
 30
0.0
 10
277.431308
 20
64.410014
 30
0.0
 10
277.250308
 20
64.509893
 30
0.0
 10
277.057307
 20
64.586093
 30
0.0
 10
276.856306
 20
64.637711
 30
0.0
 10
276.651308
 20
64.663676
 30
0.0
 10
276.443307
 20
64.663704
 30
0.0
 10
276.238307
 20
64.637739
 30
0.0
 10
276.037308
 20
64.586093
 30
0.0
 10
275.844308
 20
64.509893
 30
0.0
 10
275.663307
 20
64.410014
 30
0.0
 10
275.495306
 20
64.288207
 30
0.0
 10
275.344306
 20
64.146419
 30
0.0
 10
275.212308
 20
63.986709
 30
0.0
 10
275.101307
 20
63.811816
 30
0.0
 10
275.013307
 20
63.624308
 30
0.0
 10
274.949308
 20
63.427204
 30
0.0
 10
274.910307
 20
63.223693
 30
0.0
 10
274.897297
 20
63.016909
 30
0.0
 10
274.910319
 20
62.810096
 30
0.0
 10
274.949308
 20
62.606614
 30
0.0
 10
275.013307
 20
62.409510
 30
0.0
 10
275.101307
 20
62.222002
 30
0.0
 10
275.212308
 20
62.047109
 30
0.0
 10
275.344306
 20
61.887399
 30
0.0
 10
275.495306
 20
61.745611
 30
0.0
 10
275.663307
 20
61.623804
 30
0.0
 10
275.844308
 20
61.523897
 30
0.0
 10
276.037308
 20
61.447697
 30
0.0
 10
276.238307
 20
61.396107
 30
0.0
 10
276.443307
 20
61.370142
 30
0.0
 10
276.651308
 20
61.370199
 30
0.0
 10
276.856306
 20
61.396163
 30
0.0
  0
LWPOLYLINE
  5
182
100
AcDbEntity
  8
0
 62
7
100
AcDbPolyline
 90
51
 70
0
 10
206.504108
 20
49.379903
 30
0.0
 10
206.707607
 20
49.418708
 30
0.0
 10
206.904709
 20
49.482801
 30
0.0
 10
207.092209
 20
49.570996
 30
0.0
 10
207.267107
 20
49.681994
 30
0.0
 10
207.426808
 20
49.814102
 30
0.0
 10
207.568608
 20
49.965119
 30
0.0
 10
207.690407
 20
50.132815
 30
0.0
 10
207.790308
 20
50.314397
 30
0.0
 10
207.866508
 20
50.507014
 30
0.0
 10
207.918106
 20
50.707702
 30
0.0
 10
207.944014
 20
50.913301
 30
0.0
 10
207.944006
 20
51.120508
 30
0.0
 10
207.918098
 20
51.326107
 30
0.0
 10
207.866508
 20
51.526796
 30
0.0
 10
207.790308
 20
51.719412
 30
0.0
 10
207.690407
 20
51.900994
 30
0.0
 10
207.568608
 20
52.068606
 30
0.0
 10
207.426808
 20
52.219708
 30
0.0
 10
207.267107
 20
52.351816
 30
0.0
 10
207.092209
 20
52.462814
 30
0.0
 10
206.904709
 20
52.551008
 30
0.0
 10
206.707607
 20
52.615101
 30
0.0
 10
206.504108
 20
52.653906
 30
0.0
 10
206.297307
 20
52.666889
 30
0.0
 10
206.090506
 20
52.653935
 30
0.0
 10
205.887007
 20
52.615101
 30
0.0
 10
205.689908
 20
52.551008
 30
0.0
 10
205.502408
 20
52.462814
 30
0.0
 10
205.327507
 20
52.351816
 30
0.0
 10
205.167809
 20
52.219708
 30
0.0
 10
205.026006
 20
52.068606
 30
0.0
 10
204.904207
 20
51.900994
 30
0.0
 10
204.804306
 20
51.719412
 30
0.0
 10
204.728106
 20
51.526796
 30
0.0
 10
204.676508
 20
51.326107
 30
0.0
 10
204.650600
 20
51.120508
 30
0.0
 10
204.650608
 20
50.913301
 30
0.0
 10
204.676516
 20
50.707702
 30
0.0
 10
204.728106
 20
50.507014
 30
0.0
 10
204.804306
 20
50.314397
 30
0.0
 10
204.904207
 20
50.132815
 30
0.0
 10
205.026006
 20
49.965119
 30
0.0
 10
205.167809
 20
49.814102
 30
0.0
 10
205.327507
 20
49.681994
 30
0.0
 10
205.502408
 20
49.570996
 30
0.0
 10
205.689908
 20
49.482801
 30
0.0
 10
205.887007
 20
49.418708
 30
0.0
 10
206.090506
 20
49.379903
 30
0.0
 10
206.297307
 20
49.366921
 30
0.0
 10
206.504108
 20
49.379875
 30
0.0
  0
LWPOLYLINE
  5
183
100
AcDbEntity
  8
0
 62
7
100
AcDbPolyline
 90
51
 70
0
 10
244.004107
 20
44.879898
 30
0.0
 10
244.207606
 20
44.918703
 30
0.0
 10
244.404707
 20
44.982796
 30
0.0
 10
244.592207
 20
45.071019
 30
0.0
 10
244.767108
 20
45.182017
 30
0.0
 10
244.926807
 20
45.314097
 30
0.0
 10
245.068606
 20
45.465114
 30
0.0
 10
245.190408
 20
45.632810
 30
0.0
 10
245.290306
 20
45.814392
 30
0.0
 10
245.366506
 20
46.007009
 30
0.0
 10
245.418108
 20
46.207697
 30
0.0
 10
245.444016
 20
46.413296
 30
0.0
 10
245.444007
 20
46.620503
 30
0.0
 10
245.418099
 20
46.826102
 30
0.0
 10
245.366506
 20
47.026819
 30
0.0
 10
245.290306
 20
47.219407
 30
0.0
 10
245.190408
 20
47.401017
 30
0.0
 10
245.068606
 20
47.568601
 30
0.0
 10
244.926807
 20
47.719702
 30
0.0
 10
244.767108
 20
47.851811
 30
0.0
 10
244.592207
 20
47.962809
 30
0.0
 10
244.404707
 20
48.051003
 30
0.0
 10
244.207606
 20
48.115096
 30
0.0
 10
244.004107
 20
48.153901
 30
0.0
 10
243.797308
 20
48.166884
 30
0.0
 10
243.590507
 20
48.153930
 30
0.0
 10
243.387008
 20
48.115096
 30
0.0
 10
243.189907
 20
48.051003
 30
0.0
 10
243.002407
 20
47.962809
 30
0.0
 10
242.827508
 20
47.851811
 30
0.0
 10
242.667807
 20
47.719702
 30
0.0
 10
242.526007
 20
47.568601
 30
0.0
 10
242.404206
 20
47.401017
 30
0.0
 10
242.304308
 20
47.219407
 30
0.0
 10
242.228108
 20
47.026819
 30
0.0
 10
242.176506
 20
46.826102
 30
0.0
 10
242.150598
 20
46.620503
 30
0.0
 10
242.150606
 20
46.413296
 30
0.0
 10
242.176514
 20
46.207697
 30
0.0
 10
242.228108
 20
46.007009
 30
0.0
 10
242.304308
 20
45.814392
 30
0.0
 10
242.404206
 20
45.632810
 30
0.0
 10
242.526007
 20
45.465114
 30
0.0
 10
242.667807
 20
45.314097
 30
0.0
 10
242.827508
 20
45.182017
 30
0.0
 10
243.002407
 20
45.071019
 30
0.0
 10
243.189907
 20
44.982796
 30
0.0
 10
243.387008
 20
44.918703
 30
0.0
 10
243.590507
 20
44.879898
 30
0.0
 10
243.797308
 20
44.866916
 30
0.0
 10
244.004107
 20
44.879898
 30
0.0
  0
LWPOLYLINE
  5
184
100
AcDbEntity
  8
0
 62
7
100
AcDbPolyline
 90
51
 70
0
 10
244.004107
 20
19.879920
 30
0.0
 10
244.207606
 20
19.918697
 30
0.0
 10
244.404707
 20
19.982818
 30
0.0
 10
244.592207
 20
20.071012
 30
0.0
 10
244.767108
 20
20.182010
 30
0.0
 10
244.926807
 20
20.314118
 30
0.0
 10
245.068606
 20
20.465220
 30
0.0
 10
245.190408
 20
20.632804
 30
0.0
 10
245.290306
 20
20.814414
 30
0.0
 10
245.366506
 20
21.007002
 30
0.0
 10
245.418108
 20
21.207719
 30
0.0
 10
245.444016
 20
21.413318
 30
0.0
 10
245.444007
 20
21.620497
 30
0.0
 10
245.418099
 20
21.826096
 30
0.0
 10
245.366506
 20
22.026812
 30
0.0
 10
245.290306
 20
22.219401
 30
0.0
 10
245.190408
 20
22.401011
 30
0.0
 10
245.068606
 20
22.568707
 30
0.0
 10
244.926807
 20
22.719696
 30
0.0
 10
244.767108
 20
22.851804
 30
0.0
 10
244.592207
 20
22.962802
 30
0.0
 10
244.404707
 20
23.050997
 30
0.0
 10
244.207606
 20
23.115118
 30
0.0
 10
244.004107
 20
23.153895
 30
0.0
 10
243.797308
 20
23.166877
 30
0.0
 10
243.590507
 20
23.153923
 30
0.0
 10
243.387008
 20
23.115118
 30
0.0
 10
243.189907
 20
23.050997
 30
0.0
 10
243.002407
 20
22.962802
 30
0.0
 10
242.827508
 20
22.851804
 30
0.0
 10
242.667807
 20
22.719696
 30
0.0
 10
242.526007
 20
22.568707
 30
0.0
 10
242.404206
 20
22.401011
 30
0.0
 10
242.304308
 20
22.219401
 30
0.0
 10
242.228108
 20
22.026812
 30
0.0
 10
242.176506
 20
21.826096
 30
0.0
 10
242.150598
 20
21.620497
 30
0.0
 10
242.150606
 20
21.413318
 30
0.0
 10
242.176514
 20
21.207719
 30
0.0
 10
242.228108
 20
21.007002
 30
0.0
 10
242.304308
 20
20.814414
 30
0.0
 10
242.404206
 20
20.632804
 30
0.0
 10
242.526007
 20
20.465220
 30
0.0
 10
242.667807
 20
20.314118
 30
0.0
 10
242.827508
 20
20.182010
 30
0.0
 10
243.002407
 20
20.071012
 30
0.0
 10
243.189907
 20
19.982818
 30
0.0
 10
243.387008
 20
19.918697
 30
0.0
 10
243.590507
 20
19.879920
 30
0.0
 10
243.797308
 20
19.866937
 30
0.0
 10
244.004107
 20
19.879891
 30
0.0
  0
LWPOLYLINE
  5
185
100
AcDbEntity
  8
0
 62
7
100
AcDbPolyline
 90
51
 70
0
 10
20.856307
 20
19.396106
 30
0.0
 10
21.057308
 20
19.447696
 30
0.0
 10
21.250306
 20
19.523896
 30
0.0
 10
21.431306
 20
19.623803
 30
0.0
 10
21.599307
 20
19.745610
 30
0.0
 10
21.750308
 20
19.887398
 30
0.0
 10
21.882306
 20
20.047108
 30
0.0
 10
21.993307
 20
20.222001
 30
0.0
 10
22.081306
 20
20.409510
 30
0.0
 10
22.145306
 20
20.606614
 30
0.0
 10
22.184306
 20
20.810096
 30
0.0
 10
22.197317
 20
21.016908
 30
0.0
 10
22.184298
 20
21.223692
 30
0.0
 10
22.145306
 20
21.427203
 30
0.0
 10
22.081306
 20
21.624307
 30
0.0
 10
21.993307
 20
21.811815
 30
0.0
 10
21.882306
 20
21.986708
 30
0.0
 10
21.750308
 20
22.146418
 30
0.0
 10
21.599307
 20
22.288206
 30
0.0
 10
21.431306
 20
22.410014
 30
0.0
 10
21.250306
 20
22.509892
 30
0.0
 10
21.057308
 20
22.586092
 30
0.0
 10
20.856307
 20
22.637710
 30
0.0
 10
20.651306
 20
22.663675
 30
0.0
 10
20.443308
 20
22.663703
 30
0.0
 10
20.238308
 20
22.637739
 30
0.0
 10
20.037306
 20
22.586092
 30
0.0
 10
19.844306
 20
22.509892
 30
0.0
 10
19.663308
 20
22.410014
 30
0.0
 10
19.495307
 20
22.288206
 30
0.0
 10
19.344307
 20
22.146418
 30
0.0
 10
19.212306
 20
21.986708
 30
0.0
 10
19.101308
 20
21.811815
 30
0.0
 10
19.013308
 20
21.624307
 30
0.0
 10
18.949306
 20
21.427203
 30
0.0
 10
18.910308
 20
21.223692
 30
0.0
 10
18.897298
 20
21.016908
 30
0.0
 10
18.910317
 20
20.810096
 30
0.0
 10
18.949306
 20
20.606614
 30
0.0
 10
19.013308
 20
20.409510
 30
0.0
 10
19.101308
 20
20.222001
 30
0.0
 10
19.212306
 20
20.047108
 30
0.0
 10
19.344307
 20
19.887398
 30
0.0
 10
19.495307
 20
19.745610
 30
0.0
 10
19.663308
 20
19.623803
 30
0.0
 10
19.844306
 20
19.523896
 30
0.0
 10
20.037306
 20
19.447696
 30
0.0
 10
20.238308
 20
19.396106
 30
0.0
 10
20.443308
 20
19.370142
 30
0.0
 10
20.651306
 20
19.370198
 30
0.0
 10
20.856307
 20
19.396162
 30
0.0
  0
LWPOLYLINE
  5
186
100
AcDbEntity
  8
0
 62
7
100
AcDbPolyline
 90
51
 70
0
 10
134.356506
 20
19.396106
 30
0.0
 10
134.557206
 20
19.447696
 30
0.0
 10
134.749808
 20
19.523896
 30
0.0
 10
134.931407
 20
19.623803
 30
0.0
 10
135.099007
 20
19.745610
 30
0.0
 10
135.250106
 20
19.887398
 30
0.0
 10
135.382206
 20
20.047108
 30
0.0
 10
135.493207
 20
20.222001
 30
0.0
 10
135.581407
 20
20.409510
 30
0.0
 10
135.645508
 20
20.606614
 30
0.0
 10
135.684308
 20
20.810096
 30
0.0
 10
135.697318
 20
21.016908
 30
0.0
 10
135.684297
 20
21.223692
 30
0.0
 10
135.645508
 20
21.427203
 30
0.0
 10
135.581407
 20
21.624307
 30
0.0
 10
135.493207
 20
21.811815
 30
0.0
 10
135.382206
 20
21.986708
 30
0.0
 10
135.250106
 20
22.146418
 30
0.0
 10
135.099007
 20
22.288206
 30
0.0
 10
134.931407
 20
22.410014
 30
0.0
 10
134.749808
 20
22.509892
 30
0.0
 10
134.557206
 20
22.586092
 30
0.0
 10
134.356506
 20
22.637710
 30
0.0
 10
134.150907
 20
22.663675
 30
0.0
 10
133.943708
 20
22.663703
 30
0.0
 10
133.738106
 20
22.637739
 30
0.0
 10
133.537407
 20
22.586092
 30
0.0
 10
133.344807
 20
22.509892
 30
0.0
 10
133.163206
 20
22.410014
 30
0.0
 10
132.995506
 20
22.288206
 30
0.0
 10
132.844506
 20
22.146418
 30
0.0
 10
132.712406
 20
21.986708
 30
0.0
 10
132.601406
 20
21.811815
 30
0.0
 10
132.513205
 20
21.624307
 30
0.0
 10
132.449107
 20
21.427203
 30
0.0
 10
132.410307
 20
21.223692
 30
0.0
 10
132.397297
 20
21.016908
 30
0.0
 10
132.410319
 20
20.810096
 30
0.0
 10
132.449107
 20
20.606614
 30
0.0
 10
132.513205
 20
20.409510
 30
0.0
 10
132.601406
 20
20.222001
 30
0.0
 10
132.712406
 20
20.047108
 30
0.0
 10
132.844506
 20
19.887398
 30
0.0
 10
132.995506
 20
19.745610
 30
0.0
 10
133.163206
 20
19.623803
 30
0.0
 10
133.344807
 20
19.523896
 30
0.0
 10
133.537407
 20
19.447696
 30
0.0
 10
133.738106
 20
19.396106
 30
0.0
 10
133.943708
 20
19.370142
 30
0.0
 10
134.150907
 20
19.370198
 30
0.0
 10
134.356506
 20
19.396162
 30
0.0
  0
LWPOLYLINE
  5
187
100
AcDbEntity
  8
0
 62
7
100
AcDbPolyline
 90
51
 70
0
 10
206.504108
 20
15.379914
 30
0.0
 10
206.707607
 20
15.418720
 30
0.0
 10
206.904709
 20
15.482813
 30
0.0
 10
207.092209
 20
15.571007
 30
0.0
 10
207.267107
 20
15.682005
 30
0.0
 10
207.426808
 20
15.814113
 30
0.0
 10
207.568608
 20
15.965215
 30
0.0
 10
207.690407
 20
16.132799
 30
0.0
 10
207.790308
 20
16.314409
 30
0.0
 10
207.866508
 20
16.506997
 30
0.0
 10
207.918106
 20
16.707714
 30
0.0
 10
207.944014
 20
16.913312
 30
0.0
 10
207.944006
 20
17.120520
 30
0.0
 10
207.918098
 20
17.326119
 30
0.0
 10
207.866508
 20
17.526807
 30
0.0
 10
207.790308
 20
17.719396
 30
0.0
 10
207.690407
 20
17.901006
 30
0.0
 10
207.568608
 20
18.068702
 30
0.0
 10
207.426808
 20
18.219719
 30
0.0
 10
207.267107
 20
18.351799
 30
0.0
 10
207.092209
 20
18.462797
 30
0.0
 10
206.904709
 20
18.551020
 30
0.0
 10
206.707607
 20
18.615112
 30
0.0
 10
206.504108
 20
18.653918
 30
0.0
 10
206.297307
 20
18.666900
 30
0.0
 10
206.090506
 20
18.653918
 30
0.0
 10
205.887007
 20
18.615112
 30
0.0
 10
205.689908
 20
18.551020
 30
0.0
 10
205.502408
 20
18.462797
 30
0.0
 10
205.327507
 20
18.351799
 30
0.0
 10
205.167809
 20
18.219719
 30
0.0
 10
205.026006
 20
18.068702
 30
0.0
 10
204.904207
 20
17.901006
 30
0.0
 10
204.804306
 20
17.719396
 30
0.0
 10
204.728106
 20
17.526807
 30
0.0
 10
204.676508
 20
17.326119
 30
0.0
 10
204.650600
 20
17.120520
 30
0.0
 10
204.650608
 20
16.913312
 30
0.0
 10
204.676516
 20
16.707714
 30
0.0
 10
204.728106
 20
16.506997
 30
0.0
 10
204.804306
 20
16.314409
 30
0.0
 10
204.904207
 20
16.132799
 30
0.0
 10
205.026006
 20
15.965215
 30
0.0
 10
205.167809
 20
15.814113
 30
0.0
 10
205.327507
 20
15.682005
 30
0.0
 10
205.502408
 20
15.571007
 30
0.0
 10
205.689908
 20
15.482813
 30
0.0
 10
205.887007
 20
15.418720
 30
0.0
 10
206.090506
 20
15.379914
 30
0.0
 10
206.297307
 20
15.366932
 30
0.0
 10
206.504108
 20
15.379886
 30
0.0
  0
LWPOLYLINE
  5
188
100
AcDbEntity
  8
0
 62
7
100
AcDbPolyline
 90
51
 70
0
 10
12.856308
 20
11.396099
 30
0.0
 10
13.057307
 20
11.447718
 30
0.0
 10
13.250308
 20
11.523918
 30
0.0
 10
13.431308
 20
11.623825
 30
0.0
 10
13.599306
 20
11.745603
 30
0.0
 10
13.750307
 20
11.887420
 30
0.0
 10
13.882308
 20
12.047101
 30
0.0
 10
13.993306
 20
12.222023
 30
0.0
 10
14.081308
 20
12.409503
 30
0.0
 10
14.145308
 20
12.606607
 30
0.0
 10
14.184308
 20
12.810117
 30
0.0
 10
14.197318
 20
13.016902
 30
0.0
 10
14.184297
 20
13.223714
 30
0.0
 10
14.145308
 20
13.427225
 30
0.0
 10
14.081308
 20
13.624300
 30
0.0
 10
13.993306
 20
13.811809
 30
0.0
 10
13.882308
 20
13.986702
 30
0.0
 10
13.750307
 20
14.146411
 30
0.0
 10
13.599306
 20
14.288200
 30
0.0
 10
13.431308
 20
14.410007
 30
0.0
 10
13.250308
 20
14.509914
 30
0.0
 10
13.057307
 20
14.586114
 30
0.0
 10
12.856308
 20
14.637704
 30
0.0
 10
12.651308
 20
14.663668
 30
0.0
 10
12.443307
 20
14.663725
 30
0.0
 10
12.238307
 20
14.637760
 30
0.0
 10
12.037308
 20
14.586114
 30
0.0
 10
11.844308
 20
14.509914
 30
0.0
 10
11.663307
 20
14.410007
 30
0.0
 10
11.495306
 20
14.288200
 30
0.0
 10
11.344306
 20
14.146411
 30
0.0
 10
11.212308
 20
13.986702
 30
0.0
 10
11.101307
 20
13.811809
 30
0.0
 10
11.013307
 20
13.624300
 30
0.0
 10
10.949308
 20
13.427225
 30
0.0
 10
10.910307
 20
13.223714
 30
0.0
 10
10.897297
 20
13.016902
 30
0.0
 10
10.910319
 20
12.810117
 30
0.0
 10
10.949308
 20
12.606607
 30
0.0
 10
11.013307
 20
12.409503
 30
0.0
 10
11.101307
 20
12.222023
 30
0.0
 10
11.212308
 20
12.047101
 30
0.0
 10
11.344306
 20
11.887420
 30
0.0
 10
11.495306
 20
11.745603
 30
0.0
 10
11.663307
 20
11.623825
 30
0.0
 10
11.844308
 20
11.523918
 30
0.0
 10
12.037308
 20
11.447718
 30
0.0
 10
12.238307
 20
11.396099
 30
0.0
 10
12.443307
 20
11.370135
 30
0.0
 10
12.651308
 20
11.370220
 30
0.0
 10
12.856308
 20
11.396184
 30
0.0
  0
LWPOLYLINE
  5
189
100
AcDbEntity
  8
0
 62
7
100
AcDbPolyline
 90
51
 70
0
 10
285.856313
 20
11.396099
 30
0.0
 10
286.057312
 20
11.447718
 30
0.0
 10
286.250295
 20
11.523918
 30
0.0
 10
286.431313
 20
11.623825
 30
0.0
 10
286.599320
 20
11.745603
 30
0.0
 10
286.750308
 20
11.887420
 30
0.0
 10
286.882304
 20
12.047101
 30
0.0
 10
286.993302
 20
12.222023
 30
0.0
 10
287.081299
 20
12.409503
 30
0.0
 10
287.145307
 20
12.606607
 30
0.0
 10
287.184310
 20
12.810117
 30
0.0
 10
287.197292
 20
13.016902
 30
0.0
 10
287.184310
 20
13.223714
 30
0.0
 10
287.145307
 20
13.427225
 30
0.0
 10
287.081299
 20
13.624300
 30
0.0
 10
286.993302
 20
13.811809
 30
0.0
 10
286.882304
 20
13.986702
 30
0.0
 10
286.750308
 20
14.146411
 30
0.0
 10
286.599320
 20
14.288200
 30
0.0
 10
286.431313
 20
14.410007
 30
0.0
 10
286.250295
 20
14.509914
 30
0.0
 10
286.057312
 20
14.586114
 30
0.0
 10
285.856313
 20
14.637704
 30
0.0
 10
285.651307
 20
14.663668
 30
0.0
 10
285.443309
 20
14.663725
 30
0.0
 10
285.238303
 20
14.637760
 30
0.0
 10
285.037304
 20
14.586114
 30
0.0
 10
284.844292
 20
14.509914
 30
0.0
 10
284.663303
 20
14.410007
 30
0.0
 10
284.495296
 20
14.288200
 30
0.0
 10
284.344308
 20
14.146411
 30
0.0
 10
284.212312
 20
13.986702
 30
0.0
 10
284.101314
 20
13.811809
 30
0.0
 10
284.013317
 20
13.624300
 30
0.0
 10
283.949309
 20
13.427225
 30
0.0
 10
283.910306
 20
13.223714
 30
0.0
 10
283.897324
 20
13.016902
 30
0.0
 10
283.910278
 20
12.810117
 30
0.0
 10
283.949309
 20
12.606607
 30
0.0
 10
284.013317
 20
12.409503
 30
0.0
 10
284.101314
 20
12.222023
 30
0.0
 10
284.212312
 20
12.047101
 30
0.0
 10
284.344308
 20
11.887420
 30
0.0
 10
284.495296
 20
11.745603
 30
0.0
 10
284.663303
 20
11.623825
 30
0.0
 10
284.844292
 20
11.523918
 30
0.0
 10
285.037304
 20
11.447718
 30
0.0
 10
285.238303
 20
11.396099
 30
0.0
 10
285.443309
 20
11.370135
 30
0.0
 10
285.651307
 20
11.370220
 30
0.0
 10
285.856313
 20
11.396184
 30
0.0
  0
LWPOLYLINE
  5
18a
100
AcDbEntity
  8
0
 62
7
100
AcDbPolyline
 90
51
 70
0
 10
149.356482
 20
11.396099
 30
0.0
 10
149.557178
 20
11.447718
 30
0.0
 10
149.749837
 20
11.523918
 30
0.0
 10
149.931416
 20
11.623825
 30
0.0
 10
150.099048
 20
11.745603
 30
0.0
 10
150.250096
 20
11.887420
 30
0.0
 10
150.382176
 20
12.047101
 30
0.0
 10
150.493197
 20
12.222023
 30
0.0
 10
150.581428
 20
12.409503
 30
0.0
 10
150.645467
 20
12.606607
 30
0.0
 10
150.684286
 20
12.810117
 30
0.0
 10
150.697297
 20
13.016902
 30
0.0
 10
150.684286
 20
13.223714
 30
0.0
 10
150.645467
 20
13.427225
 30
0.0
 10
150.581428
 20
13.624300
 30
0.0
 10
150.493197
 20
13.811809
 30
0.0
 10
150.382176
 20
13.986702
 30
0.0
 10
150.250096
 20
14.146411
 30
0.0
 10
150.099048
 20
14.288200
 30
0.0
 10
149.931416
 20
14.410007
 30
0.0
 10
149.749837
 20
14.509914
 30
0.0
 10
149.557178
 20
14.586114
 30
0.0
 10
149.356482
 20
14.637704
 30
0.0
 10
149.150900
 20
14.663668
 30
0.0
 10
148.943715
 20
14.663725
 30
0.0
 10
148.738133
 20
14.637760
 30
0.0
 10
148.537436
 20
14.586114
 30
0.0
 10
148.344777
 20
14.509914
 30
0.0
 10
148.163198
 20
14.410007
 30
0.0
 10
147.995567
 20
14.288200
 30
0.0
 10
147.844516
 20
14.146411
 30
0.0
 10
147.712436
 20
13.986702
 30
0.0
 10
147.601418
 20
13.811809
 30
0.0
 10
147.513187
 20
13.624300
 30
0.0
 10
147.449148
 20
13.427225
 30
0.0
 10
147.410328
 20
13.223714
 30
0.0
 10
147.397318
 20
13.016902
 30
0.0
 10
147.410328
 20
12.810117
 30
0.0
 10
147.449148
 20
12.606607
 30
0.0
 10
147.513187
 20
12.409503
 30
0.0
 10
147.601418
 20
12.222023
 30
0.0
 10
147.712436
 20
12.047101
 30
0.0
 10
147.844516
 20
11.887420
 30
0.0
 10
147.995567
 20
11.745603
 30
0.0
 10
148.163198
 20
11.623825
 30
0.0
 10
148.344777
 20
11.523918
 30
0.0
 10
148.537436
 20
11.447718
 30
0.0
 10
148.738133
 20
11.396099
 30
0.0
 10
148.943715
 20
11.370135
 30
0.0
 10
149.150900
 20
11.370220
 30
0.0
 10
149.356482
 20
11.396184
 30
0.0
  0
ENDSEC
  0
SECTION
  2
OBJECTS
  0
DICTIONARY
  5
C
330
0
100
AcDbDictionary
  3
ACAD_GROUP
350
D
  3
ACAD_MLINESTYLE
350
17
  0
DICTIONARY
  5
D
330
C
100
AcDbDictionary
  0
DICTIONARY
  5
1A
330
C
100
AcDbDictionary
  0
DICTIONARY
  5
17
330
C
100
AcDbDictionary
  3
STANDARD
350
18
  0
DICTIONARY
  5
19
330
C
100
AcDbDictionary
  0
ENDSEC
  0
EOF
