G04 MADE WITH FRITZING*
G04 WWW.FRITZING.ORG*
G04 SINGLE SIDED*
G04 HOLES NOT PLATED*
G04 CONTOUR ON CENTER OF CONTOUR VECTOR*
%ASAXBY*%
%FSLAX23Y23*%
%MOIN*%
%OFA0B0*%
%SFA1.0B1.0*%
%ADD10C,0.075000*%
%ADD11C,0.085000*%
%ADD12C,0.083307*%
%ADD13C,0.048000*%
%LNCOPPER0*%
G90*
G70*
G54D10*
X248Y1094D03*
G54D11*
X2998Y102D03*
X3195Y102D03*
X3195Y594D03*
X2998Y594D03*
X2398Y102D03*
X2595Y102D03*
X2595Y594D03*
X2398Y594D03*
X1798Y102D03*
X1995Y102D03*
X1995Y594D03*
X1798Y594D03*
X1198Y102D03*
X1395Y102D03*
X1395Y594D03*
X1198Y594D03*
X398Y102D03*
X595Y102D03*
X595Y594D03*
X398Y594D03*
G54D10*
X1398Y694D03*
X998Y694D03*
X1998Y694D03*
X1598Y694D03*
X3298Y1094D03*
X3298Y694D03*
X2598Y694D03*
X2198Y694D03*
X3198Y694D03*
X2798Y694D03*
G54D12*
X598Y1094D03*
X498Y1094D03*
X398Y1094D03*
G54D13*
X642Y1094D02*
X3259Y1094D01*
D02*
X3227Y694D02*
X3270Y694D01*
D02*
X3198Y666D02*
X3196Y629D01*
D02*
X2627Y694D02*
X2770Y694D01*
D02*
X2598Y666D02*
X2596Y629D01*
D02*
X2027Y694D02*
X2170Y694D01*
D02*
X1998Y666D02*
X1996Y629D01*
D02*
X1427Y694D02*
X1570Y694D01*
D02*
X1398Y666D02*
X1396Y629D01*
D02*
X599Y695D02*
X597Y629D01*
D02*
X970Y694D02*
X599Y695D01*
D02*
X3199Y993D02*
X3198Y723D01*
D02*
X499Y1051D02*
X500Y993D01*
D02*
X500Y993D02*
X3199Y993D01*
G36*
X174Y1148D02*
X174Y1126D01*
X176Y1126D01*
X176Y1122D01*
X178Y1122D01*
X178Y1114D01*
X180Y1114D01*
X180Y1102D01*
X182Y1102D01*
X182Y1088D01*
X180Y1088D01*
X180Y1076D01*
X178Y1076D01*
X178Y1068D01*
X176Y1068D01*
X176Y1062D01*
X174Y1062D01*
X174Y1058D01*
X172Y1058D01*
X172Y1054D01*
X170Y1054D01*
X170Y1052D01*
X168Y1052D01*
X168Y1048D01*
X166Y1048D01*
X166Y1046D01*
X164Y1046D01*
X164Y1042D01*
X162Y1042D01*
X162Y1040D01*
X160Y1040D01*
X160Y1038D01*
X158Y1038D01*
X158Y1036D01*
X156Y1036D01*
X156Y1034D01*
X384Y1034D01*
X384Y1036D01*
X378Y1036D01*
X378Y1038D01*
X372Y1038D01*
X372Y1040D01*
X368Y1040D01*
X368Y1042D01*
X366Y1042D01*
X366Y1044D01*
X362Y1044D01*
X362Y1046D01*
X360Y1046D01*
X360Y1048D01*
X358Y1048D01*
X358Y1050D01*
X356Y1050D01*
X356Y1052D01*
X354Y1052D01*
X354Y1054D01*
X352Y1054D01*
X352Y1056D01*
X350Y1056D01*
X350Y1058D01*
X348Y1058D01*
X348Y1060D01*
X346Y1060D01*
X346Y1064D01*
X344Y1064D01*
X344Y1068D01*
X342Y1068D01*
X342Y1072D01*
X340Y1072D01*
X340Y1078D01*
X338Y1078D01*
X338Y1090D01*
X336Y1090D01*
X336Y1098D01*
X338Y1098D01*
X338Y1110D01*
X340Y1110D01*
X340Y1118D01*
X342Y1118D01*
X342Y1122D01*
X344Y1122D01*
X344Y1126D01*
X346Y1126D01*
X346Y1128D01*
X348Y1128D01*
X348Y1148D01*
X174Y1148D01*
G37*
D02*
G36*
X3344Y1148D02*
X3344Y1128D01*
X3346Y1128D01*
X3346Y1126D01*
X3348Y1126D01*
X3348Y1122D01*
X3350Y1122D01*
X3350Y1118D01*
X3352Y1118D01*
X3352Y1112D01*
X3354Y1112D01*
X3354Y1104D01*
X3356Y1104D01*
X3356Y1086D01*
X3354Y1086D01*
X3354Y1078D01*
X3352Y1078D01*
X3352Y1072D01*
X3350Y1072D01*
X3350Y1068D01*
X3348Y1068D01*
X3348Y1064D01*
X3346Y1064D01*
X3346Y1062D01*
X3344Y1062D01*
X3344Y1058D01*
X3342Y1058D01*
X3342Y1056D01*
X3340Y1056D01*
X3340Y1054D01*
X3338Y1054D01*
X3338Y1052D01*
X3336Y1052D01*
X3336Y1050D01*
X3332Y1050D01*
X3332Y1048D01*
X3330Y1048D01*
X3330Y1046D01*
X3326Y1046D01*
X3326Y1044D01*
X3324Y1044D01*
X3324Y1042D01*
X3318Y1042D01*
X3318Y1040D01*
X3312Y1040D01*
X3312Y1038D01*
X3438Y1038D01*
X3438Y1040D01*
X3436Y1040D01*
X3436Y1042D01*
X3434Y1042D01*
X3434Y1044D01*
X3432Y1044D01*
X3432Y1046D01*
X3430Y1046D01*
X3430Y1050D01*
X3428Y1050D01*
X3428Y1052D01*
X3426Y1052D01*
X3426Y1056D01*
X3424Y1056D01*
X3424Y1060D01*
X3422Y1060D01*
X3422Y1066D01*
X3420Y1066D01*
X3420Y1070D01*
X3418Y1070D01*
X3418Y1080D01*
X3416Y1080D01*
X3416Y1110D01*
X3418Y1110D01*
X3418Y1118D01*
X3420Y1118D01*
X3420Y1124D01*
X3422Y1124D01*
X3422Y1148D01*
X3344Y1148D01*
G37*
D02*
G36*
X3222Y1050D02*
X3222Y1038D01*
X3286Y1038D01*
X3286Y1040D01*
X3278Y1040D01*
X3278Y1042D01*
X3274Y1042D01*
X3274Y1044D01*
X3270Y1044D01*
X3270Y1046D01*
X3266Y1046D01*
X3266Y1048D01*
X3264Y1048D01*
X3264Y1050D01*
X3222Y1050D01*
G37*
D02*
G36*
X434Y1046D02*
X434Y1044D01*
X432Y1044D01*
X432Y1042D01*
X428Y1042D01*
X428Y1040D01*
X424Y1040D01*
X424Y1038D01*
X420Y1038D01*
X420Y1036D01*
X412Y1036D01*
X412Y1034D01*
X456Y1034D01*
X456Y1046D01*
X434Y1046D01*
G37*
D02*
G36*
X3222Y1038D02*
X3222Y1036D01*
X3438Y1036D01*
X3438Y1038D01*
X3222Y1038D01*
G37*
D02*
G36*
X3222Y1038D02*
X3222Y1036D01*
X3438Y1036D01*
X3438Y1038D01*
X3222Y1038D01*
G37*
D02*
G36*
X3222Y1036D02*
X3222Y1030D01*
X3226Y1030D01*
X3226Y1028D01*
X3228Y1028D01*
X3228Y1026D01*
X3230Y1026D01*
X3230Y1024D01*
X3232Y1024D01*
X3232Y1022D01*
X3234Y1022D01*
X3234Y1020D01*
X3236Y1020D01*
X3236Y1016D01*
X3238Y1016D01*
X3238Y1012D01*
X3486Y1012D01*
X3486Y1014D01*
X3476Y1014D01*
X3476Y1016D01*
X3470Y1016D01*
X3470Y1018D01*
X3464Y1018D01*
X3464Y1020D01*
X3460Y1020D01*
X3460Y1022D01*
X3456Y1022D01*
X3456Y1024D01*
X3454Y1024D01*
X3454Y1026D01*
X3450Y1026D01*
X3450Y1028D01*
X3448Y1028D01*
X3448Y1030D01*
X3446Y1030D01*
X3446Y1032D01*
X3444Y1032D01*
X3444Y1034D01*
X3440Y1034D01*
X3440Y1036D01*
X3222Y1036D01*
G37*
D02*
G36*
X154Y1034D02*
X154Y1032D01*
X456Y1032D01*
X456Y1034D01*
X154Y1034D01*
G37*
D02*
G36*
X154Y1034D02*
X154Y1032D01*
X456Y1032D01*
X456Y1034D01*
X154Y1034D01*
G37*
D02*
G36*
X152Y1032D02*
X152Y1030D01*
X148Y1030D01*
X148Y1028D01*
X146Y1028D01*
X146Y1026D01*
X144Y1026D01*
X144Y1024D01*
X140Y1024D01*
X140Y1022D01*
X136Y1022D01*
X136Y1020D01*
X132Y1020D01*
X132Y1018D01*
X128Y1018D01*
X128Y1016D01*
X120Y1016D01*
X120Y1014D01*
X112Y1014D01*
X112Y1012D01*
X456Y1012D01*
X456Y1032D01*
X152Y1032D01*
G37*
D02*
G36*
X40Y1022D02*
X40Y1012D01*
X86Y1012D01*
X86Y1014D01*
X76Y1014D01*
X76Y1016D01*
X70Y1016D01*
X70Y1018D01*
X64Y1018D01*
X64Y1020D01*
X60Y1020D01*
X60Y1022D01*
X40Y1022D01*
G37*
D02*
G36*
X3532Y1020D02*
X3532Y1018D01*
X3528Y1018D01*
X3528Y1016D01*
X3520Y1016D01*
X3520Y1014D01*
X3512Y1014D01*
X3512Y1012D01*
X3552Y1012D01*
X3552Y1020D01*
X3532Y1020D01*
G37*
D02*
G36*
X40Y1012D02*
X40Y1010D01*
X456Y1010D01*
X456Y1012D01*
X40Y1012D01*
G37*
D02*
G36*
X40Y1012D02*
X40Y1010D01*
X456Y1010D01*
X456Y1012D01*
X40Y1012D01*
G37*
D02*
G36*
X3240Y1012D02*
X3240Y1010D01*
X3552Y1010D01*
X3552Y1012D01*
X3240Y1012D01*
G37*
D02*
G36*
X3240Y1012D02*
X3240Y1010D01*
X3552Y1010D01*
X3552Y1012D01*
X3240Y1012D01*
G37*
D02*
G36*
X40Y1010D02*
X40Y812D01*
X1886Y812D01*
X1886Y814D01*
X1876Y814D01*
X1876Y816D01*
X1870Y816D01*
X1870Y818D01*
X1864Y818D01*
X1864Y820D01*
X1860Y820D01*
X1860Y822D01*
X1856Y822D01*
X1856Y824D01*
X1854Y824D01*
X1854Y826D01*
X1850Y826D01*
X1850Y828D01*
X1848Y828D01*
X1848Y830D01*
X1846Y830D01*
X1846Y832D01*
X1844Y832D01*
X1844Y834D01*
X1840Y834D01*
X1840Y836D01*
X1838Y836D01*
X1838Y840D01*
X1836Y840D01*
X1836Y842D01*
X1834Y842D01*
X1834Y844D01*
X1832Y844D01*
X1832Y846D01*
X1830Y846D01*
X1830Y850D01*
X1828Y850D01*
X1828Y852D01*
X1826Y852D01*
X1826Y856D01*
X1824Y856D01*
X1824Y860D01*
X1822Y860D01*
X1822Y866D01*
X1820Y866D01*
X1820Y870D01*
X1818Y870D01*
X1818Y880D01*
X1816Y880D01*
X1816Y910D01*
X1818Y910D01*
X1818Y918D01*
X1820Y918D01*
X1820Y924D01*
X1822Y924D01*
X1822Y930D01*
X1824Y930D01*
X1824Y950D01*
X490Y950D01*
X490Y952D01*
X482Y952D01*
X482Y954D01*
X480Y954D01*
X480Y956D01*
X476Y956D01*
X476Y958D01*
X472Y958D01*
X472Y960D01*
X470Y960D01*
X470Y962D01*
X468Y962D01*
X468Y964D01*
X466Y964D01*
X466Y966D01*
X464Y966D01*
X464Y970D01*
X462Y970D01*
X462Y974D01*
X460Y974D01*
X460Y978D01*
X458Y978D01*
X458Y984D01*
X456Y984D01*
X456Y1010D01*
X40Y1010D01*
G37*
D02*
G36*
X3240Y1010D02*
X3240Y1006D01*
X3242Y1006D01*
X3242Y998D01*
X3244Y998D01*
X3244Y888D01*
X3242Y888D01*
X3242Y752D01*
X3310Y752D01*
X3310Y750D01*
X3318Y750D01*
X3318Y748D01*
X3322Y748D01*
X3322Y746D01*
X3326Y746D01*
X3326Y744D01*
X3330Y744D01*
X3330Y742D01*
X3332Y742D01*
X3332Y740D01*
X3334Y740D01*
X3334Y738D01*
X3338Y738D01*
X3338Y736D01*
X3340Y736D01*
X3340Y732D01*
X3342Y732D01*
X3342Y730D01*
X3344Y730D01*
X3344Y728D01*
X3346Y728D01*
X3346Y726D01*
X3348Y726D01*
X3348Y722D01*
X3350Y722D01*
X3350Y718D01*
X3352Y718D01*
X3352Y712D01*
X3354Y712D01*
X3354Y704D01*
X3356Y704D01*
X3356Y686D01*
X3354Y686D01*
X3354Y678D01*
X3352Y678D01*
X3352Y672D01*
X3350Y672D01*
X3350Y668D01*
X3348Y668D01*
X3348Y664D01*
X3346Y664D01*
X3346Y662D01*
X3344Y662D01*
X3344Y658D01*
X3342Y658D01*
X3342Y656D01*
X3340Y656D01*
X3340Y654D01*
X3338Y654D01*
X3338Y652D01*
X3336Y652D01*
X3336Y650D01*
X3332Y650D01*
X3332Y648D01*
X3330Y648D01*
X3330Y646D01*
X3326Y646D01*
X3326Y644D01*
X3324Y644D01*
X3324Y642D01*
X3318Y642D01*
X3318Y640D01*
X3312Y640D01*
X3312Y638D01*
X3552Y638D01*
X3552Y1010D01*
X3240Y1010D01*
G37*
D02*
G36*
X1972Y950D02*
X1972Y930D01*
X1974Y930D01*
X1974Y926D01*
X1976Y926D01*
X1976Y922D01*
X1978Y922D01*
X1978Y914D01*
X1980Y914D01*
X1980Y902D01*
X1982Y902D01*
X1982Y888D01*
X1980Y888D01*
X1980Y876D01*
X1978Y876D01*
X1978Y868D01*
X1976Y868D01*
X1976Y862D01*
X1974Y862D01*
X1974Y858D01*
X1972Y858D01*
X1972Y854D01*
X1970Y854D01*
X1970Y852D01*
X1968Y852D01*
X1968Y848D01*
X1966Y848D01*
X1966Y846D01*
X1964Y846D01*
X1964Y842D01*
X1962Y842D01*
X1962Y840D01*
X1960Y840D01*
X1960Y838D01*
X1958Y838D01*
X1958Y836D01*
X1956Y836D01*
X1956Y834D01*
X1954Y834D01*
X1954Y832D01*
X1952Y832D01*
X1952Y830D01*
X1948Y830D01*
X1948Y828D01*
X1946Y828D01*
X1946Y826D01*
X1944Y826D01*
X1944Y824D01*
X1940Y824D01*
X1940Y822D01*
X1936Y822D01*
X1936Y820D01*
X1932Y820D01*
X1932Y818D01*
X1928Y818D01*
X1928Y816D01*
X1920Y816D01*
X1920Y814D01*
X1912Y814D01*
X1912Y812D01*
X3154Y812D01*
X3154Y894D01*
X3156Y894D01*
X3156Y950D01*
X1972Y950D01*
G37*
D02*
G36*
X40Y812D02*
X40Y810D01*
X3154Y810D01*
X3154Y812D01*
X40Y812D01*
G37*
D02*
G36*
X40Y812D02*
X40Y810D01*
X3154Y810D01*
X3154Y812D01*
X40Y812D01*
G37*
D02*
G36*
X40Y810D02*
X40Y752D01*
X2810Y752D01*
X2810Y750D01*
X2818Y750D01*
X2818Y748D01*
X2822Y748D01*
X2822Y746D01*
X2826Y746D01*
X2826Y744D01*
X2830Y744D01*
X2830Y742D01*
X2832Y742D01*
X2832Y740D01*
X2834Y740D01*
X2834Y738D01*
X2838Y738D01*
X2838Y736D01*
X2840Y736D01*
X2840Y732D01*
X2842Y732D01*
X2842Y730D01*
X2844Y730D01*
X2844Y728D01*
X2846Y728D01*
X2846Y726D01*
X2848Y726D01*
X2848Y722D01*
X2850Y722D01*
X2850Y718D01*
X2852Y718D01*
X2852Y712D01*
X2854Y712D01*
X2854Y704D01*
X2856Y704D01*
X2856Y686D01*
X2854Y686D01*
X2854Y678D01*
X2852Y678D01*
X2852Y672D01*
X2850Y672D01*
X2850Y668D01*
X2848Y668D01*
X2848Y664D01*
X2846Y664D01*
X2846Y662D01*
X2844Y662D01*
X2844Y658D01*
X3002Y658D01*
X3002Y656D01*
X3014Y656D01*
X3014Y654D01*
X3020Y654D01*
X3020Y652D01*
X3026Y652D01*
X3026Y650D01*
X3030Y650D01*
X3030Y648D01*
X3032Y648D01*
X3032Y646D01*
X3036Y646D01*
X3036Y644D01*
X3038Y644D01*
X3038Y642D01*
X3040Y642D01*
X3040Y640D01*
X3042Y640D01*
X3042Y638D01*
X3044Y638D01*
X3044Y636D01*
X3046Y636D01*
X3046Y634D01*
X3048Y634D01*
X3048Y632D01*
X3050Y632D01*
X3050Y628D01*
X3052Y628D01*
X3052Y624D01*
X3054Y624D01*
X3054Y622D01*
X3056Y622D01*
X3056Y616D01*
X3058Y616D01*
X3058Y610D01*
X3060Y610D01*
X3060Y580D01*
X3058Y580D01*
X3058Y574D01*
X3056Y574D01*
X3056Y568D01*
X3054Y568D01*
X3054Y564D01*
X3052Y564D01*
X3052Y562D01*
X3050Y562D01*
X3050Y558D01*
X3048Y558D01*
X3048Y556D01*
X3046Y556D01*
X3046Y554D01*
X3044Y554D01*
X3044Y552D01*
X3042Y552D01*
X3042Y550D01*
X3040Y550D01*
X3040Y548D01*
X3038Y548D01*
X3038Y546D01*
X3036Y546D01*
X3036Y544D01*
X3034Y544D01*
X3034Y542D01*
X3030Y542D01*
X3030Y540D01*
X3026Y540D01*
X3026Y538D01*
X3022Y538D01*
X3022Y536D01*
X3016Y536D01*
X3016Y534D01*
X3006Y534D01*
X3006Y532D01*
X3186Y532D01*
X3186Y534D01*
X3178Y534D01*
X3178Y536D01*
X3172Y536D01*
X3172Y538D01*
X3168Y538D01*
X3168Y540D01*
X3164Y540D01*
X3164Y542D01*
X3160Y542D01*
X3160Y544D01*
X3158Y544D01*
X3158Y546D01*
X3156Y546D01*
X3156Y548D01*
X3152Y548D01*
X3152Y550D01*
X3150Y550D01*
X3150Y552D01*
X3148Y552D01*
X3148Y556D01*
X3146Y556D01*
X3146Y558D01*
X3144Y558D01*
X3144Y560D01*
X3142Y560D01*
X3142Y564D01*
X3140Y564D01*
X3140Y568D01*
X3138Y568D01*
X3138Y572D01*
X3136Y572D01*
X3136Y578D01*
X3134Y578D01*
X3134Y590D01*
X3132Y590D01*
X3132Y598D01*
X3134Y598D01*
X3134Y610D01*
X3136Y610D01*
X3136Y618D01*
X3138Y618D01*
X3138Y622D01*
X3140Y622D01*
X3140Y626D01*
X3142Y626D01*
X3142Y628D01*
X3144Y628D01*
X3144Y632D01*
X3146Y632D01*
X3146Y634D01*
X3148Y634D01*
X3148Y636D01*
X3150Y636D01*
X3150Y638D01*
X3152Y638D01*
X3152Y662D01*
X3150Y662D01*
X3150Y666D01*
X3148Y666D01*
X3148Y670D01*
X3146Y670D01*
X3146Y674D01*
X3144Y674D01*
X3144Y680D01*
X3142Y680D01*
X3142Y694D01*
X3140Y694D01*
X3140Y696D01*
X3142Y696D01*
X3142Y710D01*
X3144Y710D01*
X3144Y716D01*
X3146Y716D01*
X3146Y720D01*
X3148Y720D01*
X3148Y724D01*
X3150Y724D01*
X3150Y728D01*
X3152Y728D01*
X3152Y730D01*
X3154Y730D01*
X3154Y810D01*
X40Y810D01*
G37*
D02*
G36*
X40Y752D02*
X40Y658D01*
X402Y658D01*
X402Y656D01*
X414Y656D01*
X414Y654D01*
X420Y654D01*
X420Y652D01*
X426Y652D01*
X426Y650D01*
X430Y650D01*
X430Y648D01*
X432Y648D01*
X432Y646D01*
X436Y646D01*
X436Y644D01*
X438Y644D01*
X438Y642D01*
X440Y642D01*
X440Y640D01*
X442Y640D01*
X442Y638D01*
X444Y638D01*
X444Y636D01*
X446Y636D01*
X446Y634D01*
X448Y634D01*
X448Y632D01*
X450Y632D01*
X450Y628D01*
X452Y628D01*
X452Y624D01*
X454Y624D01*
X454Y622D01*
X456Y622D01*
X456Y616D01*
X458Y616D01*
X458Y610D01*
X460Y610D01*
X460Y580D01*
X458Y580D01*
X458Y574D01*
X456Y574D01*
X456Y568D01*
X454Y568D01*
X454Y564D01*
X452Y564D01*
X452Y562D01*
X450Y562D01*
X450Y558D01*
X448Y558D01*
X448Y556D01*
X446Y556D01*
X446Y554D01*
X444Y554D01*
X444Y552D01*
X442Y552D01*
X442Y550D01*
X440Y550D01*
X440Y548D01*
X438Y548D01*
X438Y546D01*
X436Y546D01*
X436Y544D01*
X434Y544D01*
X434Y542D01*
X430Y542D01*
X430Y540D01*
X426Y540D01*
X426Y538D01*
X422Y538D01*
X422Y536D01*
X416Y536D01*
X416Y534D01*
X406Y534D01*
X406Y532D01*
X586Y532D01*
X586Y534D01*
X578Y534D01*
X578Y536D01*
X572Y536D01*
X572Y538D01*
X568Y538D01*
X568Y540D01*
X564Y540D01*
X564Y542D01*
X560Y542D01*
X560Y544D01*
X558Y544D01*
X558Y546D01*
X556Y546D01*
X556Y548D01*
X552Y548D01*
X552Y550D01*
X550Y550D01*
X550Y552D01*
X548Y552D01*
X548Y556D01*
X546Y556D01*
X546Y558D01*
X544Y558D01*
X544Y560D01*
X542Y560D01*
X542Y564D01*
X540Y564D01*
X540Y568D01*
X538Y568D01*
X538Y572D01*
X536Y572D01*
X536Y578D01*
X534Y578D01*
X534Y590D01*
X532Y590D01*
X532Y598D01*
X534Y598D01*
X534Y610D01*
X536Y610D01*
X536Y618D01*
X538Y618D01*
X538Y622D01*
X540Y622D01*
X540Y626D01*
X542Y626D01*
X542Y628D01*
X544Y628D01*
X544Y632D01*
X546Y632D01*
X546Y634D01*
X548Y634D01*
X548Y636D01*
X550Y636D01*
X550Y638D01*
X552Y638D01*
X552Y640D01*
X554Y640D01*
X554Y684D01*
X556Y684D01*
X556Y706D01*
X558Y706D01*
X558Y712D01*
X560Y712D01*
X560Y716D01*
X562Y716D01*
X562Y720D01*
X564Y720D01*
X564Y722D01*
X566Y722D01*
X566Y724D01*
X568Y724D01*
X568Y726D01*
X570Y726D01*
X570Y728D01*
X572Y728D01*
X572Y730D01*
X574Y730D01*
X574Y732D01*
X578Y732D01*
X578Y734D01*
X582Y734D01*
X582Y736D01*
X588Y736D01*
X588Y738D01*
X962Y738D01*
X962Y740D01*
X964Y740D01*
X964Y742D01*
X968Y742D01*
X968Y744D01*
X970Y744D01*
X970Y746D01*
X974Y746D01*
X974Y748D01*
X980Y748D01*
X980Y750D01*
X988Y750D01*
X988Y752D01*
X40Y752D01*
G37*
D02*
G36*
X1010Y752D02*
X1010Y750D01*
X1018Y750D01*
X1018Y748D01*
X1022Y748D01*
X1022Y746D01*
X1026Y746D01*
X1026Y744D01*
X1030Y744D01*
X1030Y742D01*
X1032Y742D01*
X1032Y740D01*
X1034Y740D01*
X1034Y738D01*
X1038Y738D01*
X1038Y736D01*
X1040Y736D01*
X1040Y732D01*
X1042Y732D01*
X1042Y730D01*
X1044Y730D01*
X1044Y728D01*
X1046Y728D01*
X1046Y726D01*
X1048Y726D01*
X1048Y722D01*
X1050Y722D01*
X1050Y718D01*
X1052Y718D01*
X1052Y712D01*
X1054Y712D01*
X1054Y704D01*
X1056Y704D01*
X1056Y686D01*
X1054Y686D01*
X1054Y678D01*
X1052Y678D01*
X1052Y672D01*
X1050Y672D01*
X1050Y668D01*
X1048Y668D01*
X1048Y664D01*
X1046Y664D01*
X1046Y662D01*
X1044Y662D01*
X1044Y658D01*
X1202Y658D01*
X1202Y656D01*
X1214Y656D01*
X1214Y654D01*
X1220Y654D01*
X1220Y652D01*
X1226Y652D01*
X1226Y650D01*
X1230Y650D01*
X1230Y648D01*
X1232Y648D01*
X1232Y646D01*
X1236Y646D01*
X1236Y644D01*
X1238Y644D01*
X1238Y642D01*
X1240Y642D01*
X1240Y640D01*
X1242Y640D01*
X1242Y638D01*
X1244Y638D01*
X1244Y636D01*
X1246Y636D01*
X1246Y634D01*
X1248Y634D01*
X1248Y632D01*
X1250Y632D01*
X1250Y628D01*
X1252Y628D01*
X1252Y624D01*
X1254Y624D01*
X1254Y622D01*
X1256Y622D01*
X1256Y616D01*
X1258Y616D01*
X1258Y610D01*
X1260Y610D01*
X1260Y580D01*
X1258Y580D01*
X1258Y574D01*
X1256Y574D01*
X1256Y568D01*
X1254Y568D01*
X1254Y564D01*
X1252Y564D01*
X1252Y562D01*
X1250Y562D01*
X1250Y558D01*
X1248Y558D01*
X1248Y556D01*
X1246Y556D01*
X1246Y554D01*
X1244Y554D01*
X1244Y552D01*
X1242Y552D01*
X1242Y550D01*
X1240Y550D01*
X1240Y548D01*
X1238Y548D01*
X1238Y546D01*
X1236Y546D01*
X1236Y544D01*
X1234Y544D01*
X1234Y542D01*
X1230Y542D01*
X1230Y540D01*
X1226Y540D01*
X1226Y538D01*
X1222Y538D01*
X1222Y536D01*
X1216Y536D01*
X1216Y534D01*
X1206Y534D01*
X1206Y532D01*
X1386Y532D01*
X1386Y534D01*
X1378Y534D01*
X1378Y536D01*
X1372Y536D01*
X1372Y538D01*
X1368Y538D01*
X1368Y540D01*
X1364Y540D01*
X1364Y542D01*
X1360Y542D01*
X1360Y544D01*
X1358Y544D01*
X1358Y546D01*
X1356Y546D01*
X1356Y548D01*
X1352Y548D01*
X1352Y550D01*
X1350Y550D01*
X1350Y552D01*
X1348Y552D01*
X1348Y556D01*
X1346Y556D01*
X1346Y558D01*
X1344Y558D01*
X1344Y560D01*
X1342Y560D01*
X1342Y564D01*
X1340Y564D01*
X1340Y568D01*
X1338Y568D01*
X1338Y572D01*
X1336Y572D01*
X1336Y578D01*
X1334Y578D01*
X1334Y590D01*
X1332Y590D01*
X1332Y598D01*
X1334Y598D01*
X1334Y610D01*
X1336Y610D01*
X1336Y618D01*
X1338Y618D01*
X1338Y622D01*
X1340Y622D01*
X1340Y626D01*
X1342Y626D01*
X1342Y628D01*
X1344Y628D01*
X1344Y632D01*
X1346Y632D01*
X1346Y634D01*
X1348Y634D01*
X1348Y636D01*
X1350Y636D01*
X1350Y638D01*
X1352Y638D01*
X1352Y662D01*
X1350Y662D01*
X1350Y666D01*
X1348Y666D01*
X1348Y670D01*
X1346Y670D01*
X1346Y674D01*
X1344Y674D01*
X1344Y680D01*
X1342Y680D01*
X1342Y694D01*
X1340Y694D01*
X1340Y696D01*
X1342Y696D01*
X1342Y710D01*
X1344Y710D01*
X1344Y716D01*
X1346Y716D01*
X1346Y720D01*
X1348Y720D01*
X1348Y724D01*
X1350Y724D01*
X1350Y728D01*
X1352Y728D01*
X1352Y730D01*
X1354Y730D01*
X1354Y732D01*
X1356Y732D01*
X1356Y734D01*
X1358Y734D01*
X1358Y736D01*
X1360Y736D01*
X1360Y738D01*
X1362Y738D01*
X1362Y740D01*
X1364Y740D01*
X1364Y742D01*
X1368Y742D01*
X1368Y744D01*
X1370Y744D01*
X1370Y746D01*
X1374Y746D01*
X1374Y748D01*
X1380Y748D01*
X1380Y750D01*
X1388Y750D01*
X1388Y752D01*
X1010Y752D01*
G37*
D02*
G36*
X1410Y752D02*
X1410Y750D01*
X1418Y750D01*
X1418Y748D01*
X1422Y748D01*
X1422Y746D01*
X1426Y746D01*
X1426Y744D01*
X1430Y744D01*
X1430Y742D01*
X1432Y742D01*
X1432Y740D01*
X1434Y740D01*
X1434Y738D01*
X1562Y738D01*
X1562Y740D01*
X1564Y740D01*
X1564Y742D01*
X1568Y742D01*
X1568Y744D01*
X1570Y744D01*
X1570Y746D01*
X1574Y746D01*
X1574Y748D01*
X1580Y748D01*
X1580Y750D01*
X1588Y750D01*
X1588Y752D01*
X1410Y752D01*
G37*
D02*
G36*
X1610Y752D02*
X1610Y750D01*
X1618Y750D01*
X1618Y748D01*
X1622Y748D01*
X1622Y746D01*
X1626Y746D01*
X1626Y744D01*
X1630Y744D01*
X1630Y742D01*
X1632Y742D01*
X1632Y740D01*
X1634Y740D01*
X1634Y738D01*
X1638Y738D01*
X1638Y736D01*
X1640Y736D01*
X1640Y732D01*
X1642Y732D01*
X1642Y730D01*
X1644Y730D01*
X1644Y728D01*
X1646Y728D01*
X1646Y726D01*
X1648Y726D01*
X1648Y722D01*
X1650Y722D01*
X1650Y718D01*
X1652Y718D01*
X1652Y712D01*
X1654Y712D01*
X1654Y704D01*
X1656Y704D01*
X1656Y686D01*
X1654Y686D01*
X1654Y678D01*
X1652Y678D01*
X1652Y672D01*
X1650Y672D01*
X1650Y668D01*
X1648Y668D01*
X1648Y664D01*
X1646Y664D01*
X1646Y662D01*
X1644Y662D01*
X1644Y658D01*
X1802Y658D01*
X1802Y656D01*
X1814Y656D01*
X1814Y654D01*
X1820Y654D01*
X1820Y652D01*
X1826Y652D01*
X1826Y650D01*
X1830Y650D01*
X1830Y648D01*
X1832Y648D01*
X1832Y646D01*
X1836Y646D01*
X1836Y644D01*
X1838Y644D01*
X1838Y642D01*
X1840Y642D01*
X1840Y640D01*
X1842Y640D01*
X1842Y638D01*
X1844Y638D01*
X1844Y636D01*
X1846Y636D01*
X1846Y634D01*
X1848Y634D01*
X1848Y632D01*
X1850Y632D01*
X1850Y628D01*
X1852Y628D01*
X1852Y624D01*
X1854Y624D01*
X1854Y622D01*
X1856Y622D01*
X1856Y616D01*
X1858Y616D01*
X1858Y610D01*
X1860Y610D01*
X1860Y580D01*
X1858Y580D01*
X1858Y574D01*
X1856Y574D01*
X1856Y568D01*
X1854Y568D01*
X1854Y564D01*
X1852Y564D01*
X1852Y562D01*
X1850Y562D01*
X1850Y558D01*
X1848Y558D01*
X1848Y556D01*
X1846Y556D01*
X1846Y554D01*
X1844Y554D01*
X1844Y552D01*
X1842Y552D01*
X1842Y550D01*
X1840Y550D01*
X1840Y548D01*
X1838Y548D01*
X1838Y546D01*
X1836Y546D01*
X1836Y544D01*
X1834Y544D01*
X1834Y542D01*
X1830Y542D01*
X1830Y540D01*
X1826Y540D01*
X1826Y538D01*
X1822Y538D01*
X1822Y536D01*
X1816Y536D01*
X1816Y534D01*
X1806Y534D01*
X1806Y532D01*
X1986Y532D01*
X1986Y534D01*
X1978Y534D01*
X1978Y536D01*
X1972Y536D01*
X1972Y538D01*
X1968Y538D01*
X1968Y540D01*
X1964Y540D01*
X1964Y542D01*
X1960Y542D01*
X1960Y544D01*
X1958Y544D01*
X1958Y546D01*
X1956Y546D01*
X1956Y548D01*
X1952Y548D01*
X1952Y550D01*
X1950Y550D01*
X1950Y552D01*
X1948Y552D01*
X1948Y556D01*
X1946Y556D01*
X1946Y558D01*
X1944Y558D01*
X1944Y560D01*
X1942Y560D01*
X1942Y564D01*
X1940Y564D01*
X1940Y568D01*
X1938Y568D01*
X1938Y572D01*
X1936Y572D01*
X1936Y578D01*
X1934Y578D01*
X1934Y590D01*
X1932Y590D01*
X1932Y598D01*
X1934Y598D01*
X1934Y610D01*
X1936Y610D01*
X1936Y618D01*
X1938Y618D01*
X1938Y622D01*
X1940Y622D01*
X1940Y626D01*
X1942Y626D01*
X1942Y628D01*
X1944Y628D01*
X1944Y632D01*
X1946Y632D01*
X1946Y634D01*
X1948Y634D01*
X1948Y636D01*
X1950Y636D01*
X1950Y638D01*
X1952Y638D01*
X1952Y662D01*
X1950Y662D01*
X1950Y666D01*
X1948Y666D01*
X1948Y670D01*
X1946Y670D01*
X1946Y674D01*
X1944Y674D01*
X1944Y680D01*
X1942Y680D01*
X1942Y694D01*
X1940Y694D01*
X1940Y696D01*
X1942Y696D01*
X1942Y710D01*
X1944Y710D01*
X1944Y716D01*
X1946Y716D01*
X1946Y720D01*
X1948Y720D01*
X1948Y724D01*
X1950Y724D01*
X1950Y728D01*
X1952Y728D01*
X1952Y730D01*
X1954Y730D01*
X1954Y732D01*
X1956Y732D01*
X1956Y734D01*
X1958Y734D01*
X1958Y736D01*
X1960Y736D01*
X1960Y738D01*
X1962Y738D01*
X1962Y740D01*
X1964Y740D01*
X1964Y742D01*
X1968Y742D01*
X1968Y744D01*
X1970Y744D01*
X1970Y746D01*
X1974Y746D01*
X1974Y748D01*
X1980Y748D01*
X1980Y750D01*
X1988Y750D01*
X1988Y752D01*
X1610Y752D01*
G37*
D02*
G36*
X2010Y752D02*
X2010Y750D01*
X2018Y750D01*
X2018Y748D01*
X2022Y748D01*
X2022Y746D01*
X2026Y746D01*
X2026Y744D01*
X2030Y744D01*
X2030Y742D01*
X2032Y742D01*
X2032Y740D01*
X2034Y740D01*
X2034Y738D01*
X2162Y738D01*
X2162Y740D01*
X2164Y740D01*
X2164Y742D01*
X2168Y742D01*
X2168Y744D01*
X2170Y744D01*
X2170Y746D01*
X2174Y746D01*
X2174Y748D01*
X2180Y748D01*
X2180Y750D01*
X2188Y750D01*
X2188Y752D01*
X2010Y752D01*
G37*
D02*
G36*
X2210Y752D02*
X2210Y750D01*
X2218Y750D01*
X2218Y748D01*
X2222Y748D01*
X2222Y746D01*
X2226Y746D01*
X2226Y744D01*
X2230Y744D01*
X2230Y742D01*
X2232Y742D01*
X2232Y740D01*
X2234Y740D01*
X2234Y738D01*
X2238Y738D01*
X2238Y736D01*
X2240Y736D01*
X2240Y732D01*
X2242Y732D01*
X2242Y730D01*
X2244Y730D01*
X2244Y728D01*
X2246Y728D01*
X2246Y726D01*
X2248Y726D01*
X2248Y722D01*
X2250Y722D01*
X2250Y718D01*
X2252Y718D01*
X2252Y712D01*
X2254Y712D01*
X2254Y704D01*
X2256Y704D01*
X2256Y686D01*
X2254Y686D01*
X2254Y678D01*
X2252Y678D01*
X2252Y672D01*
X2250Y672D01*
X2250Y668D01*
X2248Y668D01*
X2248Y664D01*
X2246Y664D01*
X2246Y662D01*
X2244Y662D01*
X2244Y658D01*
X2402Y658D01*
X2402Y656D01*
X2414Y656D01*
X2414Y654D01*
X2420Y654D01*
X2420Y652D01*
X2426Y652D01*
X2426Y650D01*
X2430Y650D01*
X2430Y648D01*
X2432Y648D01*
X2432Y646D01*
X2436Y646D01*
X2436Y644D01*
X2438Y644D01*
X2438Y642D01*
X2440Y642D01*
X2440Y640D01*
X2442Y640D01*
X2442Y638D01*
X2444Y638D01*
X2444Y636D01*
X2446Y636D01*
X2446Y634D01*
X2448Y634D01*
X2448Y632D01*
X2450Y632D01*
X2450Y628D01*
X2452Y628D01*
X2452Y624D01*
X2454Y624D01*
X2454Y622D01*
X2456Y622D01*
X2456Y616D01*
X2458Y616D01*
X2458Y610D01*
X2460Y610D01*
X2460Y580D01*
X2458Y580D01*
X2458Y574D01*
X2456Y574D01*
X2456Y568D01*
X2454Y568D01*
X2454Y564D01*
X2452Y564D01*
X2452Y562D01*
X2450Y562D01*
X2450Y558D01*
X2448Y558D01*
X2448Y556D01*
X2446Y556D01*
X2446Y554D01*
X2444Y554D01*
X2444Y552D01*
X2442Y552D01*
X2442Y550D01*
X2440Y550D01*
X2440Y548D01*
X2438Y548D01*
X2438Y546D01*
X2436Y546D01*
X2436Y544D01*
X2434Y544D01*
X2434Y542D01*
X2430Y542D01*
X2430Y540D01*
X2426Y540D01*
X2426Y538D01*
X2422Y538D01*
X2422Y536D01*
X2416Y536D01*
X2416Y534D01*
X2406Y534D01*
X2406Y532D01*
X2586Y532D01*
X2586Y534D01*
X2578Y534D01*
X2578Y536D01*
X2572Y536D01*
X2572Y538D01*
X2568Y538D01*
X2568Y540D01*
X2564Y540D01*
X2564Y542D01*
X2560Y542D01*
X2560Y544D01*
X2558Y544D01*
X2558Y546D01*
X2556Y546D01*
X2556Y548D01*
X2552Y548D01*
X2552Y550D01*
X2550Y550D01*
X2550Y552D01*
X2548Y552D01*
X2548Y556D01*
X2546Y556D01*
X2546Y558D01*
X2544Y558D01*
X2544Y560D01*
X2542Y560D01*
X2542Y564D01*
X2540Y564D01*
X2540Y568D01*
X2538Y568D01*
X2538Y572D01*
X2536Y572D01*
X2536Y578D01*
X2534Y578D01*
X2534Y590D01*
X2532Y590D01*
X2532Y598D01*
X2534Y598D01*
X2534Y610D01*
X2536Y610D01*
X2536Y618D01*
X2538Y618D01*
X2538Y622D01*
X2540Y622D01*
X2540Y626D01*
X2542Y626D01*
X2542Y628D01*
X2544Y628D01*
X2544Y632D01*
X2546Y632D01*
X2546Y634D01*
X2548Y634D01*
X2548Y636D01*
X2550Y636D01*
X2550Y638D01*
X2552Y638D01*
X2552Y662D01*
X2550Y662D01*
X2550Y666D01*
X2548Y666D01*
X2548Y670D01*
X2546Y670D01*
X2546Y674D01*
X2544Y674D01*
X2544Y680D01*
X2542Y680D01*
X2542Y694D01*
X2540Y694D01*
X2540Y696D01*
X2542Y696D01*
X2542Y710D01*
X2544Y710D01*
X2544Y716D01*
X2546Y716D01*
X2546Y720D01*
X2548Y720D01*
X2548Y724D01*
X2550Y724D01*
X2550Y728D01*
X2552Y728D01*
X2552Y730D01*
X2554Y730D01*
X2554Y732D01*
X2556Y732D01*
X2556Y734D01*
X2558Y734D01*
X2558Y736D01*
X2560Y736D01*
X2560Y738D01*
X2562Y738D01*
X2562Y740D01*
X2564Y740D01*
X2564Y742D01*
X2568Y742D01*
X2568Y744D01*
X2570Y744D01*
X2570Y746D01*
X2574Y746D01*
X2574Y748D01*
X2580Y748D01*
X2580Y750D01*
X2588Y750D01*
X2588Y752D01*
X2210Y752D01*
G37*
D02*
G36*
X2610Y752D02*
X2610Y750D01*
X2618Y750D01*
X2618Y748D01*
X2622Y748D01*
X2622Y746D01*
X2626Y746D01*
X2626Y744D01*
X2630Y744D01*
X2630Y742D01*
X2632Y742D01*
X2632Y740D01*
X2634Y740D01*
X2634Y738D01*
X2762Y738D01*
X2762Y740D01*
X2764Y740D01*
X2764Y742D01*
X2768Y742D01*
X2768Y744D01*
X2770Y744D01*
X2770Y746D01*
X2774Y746D01*
X2774Y748D01*
X2780Y748D01*
X2780Y750D01*
X2788Y750D01*
X2788Y752D01*
X2610Y752D01*
G37*
D02*
G36*
X3242Y752D02*
X3242Y738D01*
X3262Y738D01*
X3262Y740D01*
X3264Y740D01*
X3264Y742D01*
X3268Y742D01*
X3268Y744D01*
X3270Y744D01*
X3270Y746D01*
X3274Y746D01*
X3274Y748D01*
X3280Y748D01*
X3280Y750D01*
X3288Y750D01*
X3288Y752D01*
X3242Y752D01*
G37*
D02*
G36*
X40Y658D02*
X40Y532D01*
X390Y532D01*
X390Y534D01*
X380Y534D01*
X380Y536D01*
X374Y536D01*
X374Y538D01*
X370Y538D01*
X370Y540D01*
X366Y540D01*
X366Y542D01*
X364Y542D01*
X364Y544D01*
X360Y544D01*
X360Y546D01*
X358Y546D01*
X358Y548D01*
X356Y548D01*
X356Y550D01*
X354Y550D01*
X354Y552D01*
X352Y552D01*
X352Y554D01*
X350Y554D01*
X350Y556D01*
X348Y556D01*
X348Y560D01*
X346Y560D01*
X346Y562D01*
X344Y562D01*
X344Y566D01*
X342Y566D01*
X342Y570D01*
X340Y570D01*
X340Y576D01*
X338Y576D01*
X338Y584D01*
X336Y584D01*
X336Y606D01*
X338Y606D01*
X338Y614D01*
X340Y614D01*
X340Y620D01*
X342Y620D01*
X342Y624D01*
X344Y624D01*
X344Y626D01*
X346Y626D01*
X346Y630D01*
X348Y630D01*
X348Y632D01*
X350Y632D01*
X350Y636D01*
X352Y636D01*
X352Y638D01*
X354Y638D01*
X354Y640D01*
X356Y640D01*
X356Y642D01*
X358Y642D01*
X358Y644D01*
X362Y644D01*
X362Y646D01*
X364Y646D01*
X364Y648D01*
X368Y648D01*
X368Y650D01*
X372Y650D01*
X372Y652D01*
X376Y652D01*
X376Y654D01*
X382Y654D01*
X382Y656D01*
X394Y656D01*
X394Y658D01*
X40Y658D01*
G37*
D02*
G36*
X1042Y658D02*
X1042Y656D01*
X1040Y656D01*
X1040Y654D01*
X1038Y654D01*
X1038Y652D01*
X1036Y652D01*
X1036Y650D01*
X1032Y650D01*
X1032Y648D01*
X1030Y648D01*
X1030Y646D01*
X1026Y646D01*
X1026Y644D01*
X1024Y644D01*
X1024Y642D01*
X1018Y642D01*
X1018Y640D01*
X1012Y640D01*
X1012Y638D01*
X1154Y638D01*
X1154Y640D01*
X1156Y640D01*
X1156Y642D01*
X1158Y642D01*
X1158Y644D01*
X1162Y644D01*
X1162Y646D01*
X1164Y646D01*
X1164Y648D01*
X1168Y648D01*
X1168Y650D01*
X1172Y650D01*
X1172Y652D01*
X1176Y652D01*
X1176Y654D01*
X1182Y654D01*
X1182Y656D01*
X1194Y656D01*
X1194Y658D01*
X1042Y658D01*
G37*
D02*
G36*
X1642Y658D02*
X1642Y656D01*
X1640Y656D01*
X1640Y654D01*
X1638Y654D01*
X1638Y652D01*
X1636Y652D01*
X1636Y650D01*
X1632Y650D01*
X1632Y648D01*
X1630Y648D01*
X1630Y646D01*
X1626Y646D01*
X1626Y644D01*
X1624Y644D01*
X1624Y642D01*
X1618Y642D01*
X1618Y640D01*
X1612Y640D01*
X1612Y638D01*
X1754Y638D01*
X1754Y640D01*
X1756Y640D01*
X1756Y642D01*
X1758Y642D01*
X1758Y644D01*
X1762Y644D01*
X1762Y646D01*
X1764Y646D01*
X1764Y648D01*
X1768Y648D01*
X1768Y650D01*
X1772Y650D01*
X1772Y652D01*
X1776Y652D01*
X1776Y654D01*
X1782Y654D01*
X1782Y656D01*
X1794Y656D01*
X1794Y658D01*
X1642Y658D01*
G37*
D02*
G36*
X2242Y658D02*
X2242Y656D01*
X2240Y656D01*
X2240Y654D01*
X2238Y654D01*
X2238Y652D01*
X2236Y652D01*
X2236Y650D01*
X2232Y650D01*
X2232Y648D01*
X2230Y648D01*
X2230Y646D01*
X2226Y646D01*
X2226Y644D01*
X2224Y644D01*
X2224Y642D01*
X2218Y642D01*
X2218Y640D01*
X2212Y640D01*
X2212Y638D01*
X2354Y638D01*
X2354Y640D01*
X2356Y640D01*
X2356Y642D01*
X2358Y642D01*
X2358Y644D01*
X2362Y644D01*
X2362Y646D01*
X2364Y646D01*
X2364Y648D01*
X2368Y648D01*
X2368Y650D01*
X2372Y650D01*
X2372Y652D01*
X2376Y652D01*
X2376Y654D01*
X2382Y654D01*
X2382Y656D01*
X2394Y656D01*
X2394Y658D01*
X2242Y658D01*
G37*
D02*
G36*
X2842Y658D02*
X2842Y656D01*
X2840Y656D01*
X2840Y654D01*
X2838Y654D01*
X2838Y652D01*
X2836Y652D01*
X2836Y650D01*
X2832Y650D01*
X2832Y648D01*
X2830Y648D01*
X2830Y646D01*
X2826Y646D01*
X2826Y644D01*
X2824Y644D01*
X2824Y642D01*
X2818Y642D01*
X2818Y640D01*
X2812Y640D01*
X2812Y638D01*
X2954Y638D01*
X2954Y640D01*
X2956Y640D01*
X2956Y642D01*
X2958Y642D01*
X2958Y644D01*
X2962Y644D01*
X2962Y646D01*
X2964Y646D01*
X2964Y648D01*
X2968Y648D01*
X2968Y650D01*
X2972Y650D01*
X2972Y652D01*
X2976Y652D01*
X2976Y654D01*
X2982Y654D01*
X2982Y656D01*
X2994Y656D01*
X2994Y658D01*
X2842Y658D01*
G37*
D02*
G36*
X646Y650D02*
X646Y638D01*
X986Y638D01*
X986Y640D01*
X978Y640D01*
X978Y642D01*
X974Y642D01*
X974Y644D01*
X970Y644D01*
X970Y646D01*
X966Y646D01*
X966Y648D01*
X964Y648D01*
X964Y650D01*
X646Y650D01*
G37*
D02*
G36*
X1446Y650D02*
X1446Y638D01*
X1586Y638D01*
X1586Y640D01*
X1578Y640D01*
X1578Y642D01*
X1574Y642D01*
X1574Y644D01*
X1570Y644D01*
X1570Y646D01*
X1566Y646D01*
X1566Y648D01*
X1564Y648D01*
X1564Y650D01*
X1446Y650D01*
G37*
D02*
G36*
X2046Y650D02*
X2046Y638D01*
X2186Y638D01*
X2186Y640D01*
X2178Y640D01*
X2178Y642D01*
X2174Y642D01*
X2174Y644D01*
X2170Y644D01*
X2170Y646D01*
X2166Y646D01*
X2166Y648D01*
X2164Y648D01*
X2164Y650D01*
X2046Y650D01*
G37*
D02*
G36*
X2646Y650D02*
X2646Y638D01*
X2786Y638D01*
X2786Y640D01*
X2778Y640D01*
X2778Y642D01*
X2774Y642D01*
X2774Y644D01*
X2770Y644D01*
X2770Y646D01*
X2766Y646D01*
X2766Y648D01*
X2764Y648D01*
X2764Y650D01*
X2646Y650D01*
G37*
D02*
G36*
X3246Y648D02*
X3246Y638D01*
X3286Y638D01*
X3286Y640D01*
X3278Y640D01*
X3278Y642D01*
X3274Y642D01*
X3274Y644D01*
X3270Y644D01*
X3270Y646D01*
X3266Y646D01*
X3266Y648D01*
X3246Y648D01*
G37*
D02*
G36*
X646Y638D02*
X646Y636D01*
X1152Y636D01*
X1152Y638D01*
X646Y638D01*
G37*
D02*
G36*
X646Y638D02*
X646Y636D01*
X1152Y636D01*
X1152Y638D01*
X646Y638D01*
G37*
D02*
G36*
X1446Y638D02*
X1446Y636D01*
X1752Y636D01*
X1752Y638D01*
X1446Y638D01*
G37*
D02*
G36*
X1446Y638D02*
X1446Y636D01*
X1752Y636D01*
X1752Y638D01*
X1446Y638D01*
G37*
D02*
G36*
X2046Y638D02*
X2046Y636D01*
X2352Y636D01*
X2352Y638D01*
X2046Y638D01*
G37*
D02*
G36*
X2046Y638D02*
X2046Y636D01*
X2352Y636D01*
X2352Y638D01*
X2046Y638D01*
G37*
D02*
G36*
X2646Y638D02*
X2646Y636D01*
X2952Y636D01*
X2952Y638D01*
X2646Y638D01*
G37*
D02*
G36*
X2646Y638D02*
X2646Y636D01*
X2952Y636D01*
X2952Y638D01*
X2646Y638D01*
G37*
D02*
G36*
X3246Y638D02*
X3246Y636D01*
X3552Y636D01*
X3552Y638D01*
X3246Y638D01*
G37*
D02*
G36*
X3246Y638D02*
X3246Y636D01*
X3552Y636D01*
X3552Y638D01*
X3246Y638D01*
G37*
D02*
G36*
X646Y636D02*
X646Y630D01*
X648Y630D01*
X648Y626D01*
X650Y626D01*
X650Y622D01*
X652Y622D01*
X652Y618D01*
X654Y618D01*
X654Y612D01*
X656Y612D01*
X656Y604D01*
X658Y604D01*
X658Y586D01*
X656Y586D01*
X656Y576D01*
X654Y576D01*
X654Y570D01*
X652Y570D01*
X652Y566D01*
X650Y566D01*
X650Y564D01*
X648Y564D01*
X648Y560D01*
X646Y560D01*
X646Y558D01*
X644Y558D01*
X644Y554D01*
X642Y554D01*
X642Y552D01*
X640Y552D01*
X640Y550D01*
X638Y550D01*
X638Y548D01*
X636Y548D01*
X636Y546D01*
X632Y546D01*
X632Y544D01*
X630Y544D01*
X630Y542D01*
X626Y542D01*
X626Y540D01*
X624Y540D01*
X624Y538D01*
X620Y538D01*
X620Y536D01*
X614Y536D01*
X614Y534D01*
X604Y534D01*
X604Y532D01*
X1190Y532D01*
X1190Y534D01*
X1180Y534D01*
X1180Y536D01*
X1174Y536D01*
X1174Y538D01*
X1170Y538D01*
X1170Y540D01*
X1166Y540D01*
X1166Y542D01*
X1164Y542D01*
X1164Y544D01*
X1160Y544D01*
X1160Y546D01*
X1158Y546D01*
X1158Y548D01*
X1156Y548D01*
X1156Y550D01*
X1154Y550D01*
X1154Y552D01*
X1152Y552D01*
X1152Y554D01*
X1150Y554D01*
X1150Y556D01*
X1148Y556D01*
X1148Y560D01*
X1146Y560D01*
X1146Y562D01*
X1144Y562D01*
X1144Y566D01*
X1142Y566D01*
X1142Y570D01*
X1140Y570D01*
X1140Y576D01*
X1138Y576D01*
X1138Y584D01*
X1136Y584D01*
X1136Y606D01*
X1138Y606D01*
X1138Y614D01*
X1140Y614D01*
X1140Y620D01*
X1142Y620D01*
X1142Y624D01*
X1144Y624D01*
X1144Y626D01*
X1146Y626D01*
X1146Y630D01*
X1148Y630D01*
X1148Y632D01*
X1150Y632D01*
X1150Y636D01*
X646Y636D01*
G37*
D02*
G36*
X1446Y636D02*
X1446Y630D01*
X1448Y630D01*
X1448Y626D01*
X1450Y626D01*
X1450Y622D01*
X1452Y622D01*
X1452Y618D01*
X1454Y618D01*
X1454Y612D01*
X1456Y612D01*
X1456Y604D01*
X1458Y604D01*
X1458Y586D01*
X1456Y586D01*
X1456Y576D01*
X1454Y576D01*
X1454Y570D01*
X1452Y570D01*
X1452Y566D01*
X1450Y566D01*
X1450Y564D01*
X1448Y564D01*
X1448Y560D01*
X1446Y560D01*
X1446Y558D01*
X1444Y558D01*
X1444Y554D01*
X1442Y554D01*
X1442Y552D01*
X1440Y552D01*
X1440Y550D01*
X1438Y550D01*
X1438Y548D01*
X1436Y548D01*
X1436Y546D01*
X1432Y546D01*
X1432Y544D01*
X1430Y544D01*
X1430Y542D01*
X1426Y542D01*
X1426Y540D01*
X1424Y540D01*
X1424Y538D01*
X1420Y538D01*
X1420Y536D01*
X1414Y536D01*
X1414Y534D01*
X1404Y534D01*
X1404Y532D01*
X1790Y532D01*
X1790Y534D01*
X1780Y534D01*
X1780Y536D01*
X1774Y536D01*
X1774Y538D01*
X1770Y538D01*
X1770Y540D01*
X1766Y540D01*
X1766Y542D01*
X1764Y542D01*
X1764Y544D01*
X1760Y544D01*
X1760Y546D01*
X1758Y546D01*
X1758Y548D01*
X1756Y548D01*
X1756Y550D01*
X1754Y550D01*
X1754Y552D01*
X1752Y552D01*
X1752Y554D01*
X1750Y554D01*
X1750Y556D01*
X1748Y556D01*
X1748Y560D01*
X1746Y560D01*
X1746Y562D01*
X1744Y562D01*
X1744Y566D01*
X1742Y566D01*
X1742Y570D01*
X1740Y570D01*
X1740Y576D01*
X1738Y576D01*
X1738Y584D01*
X1736Y584D01*
X1736Y606D01*
X1738Y606D01*
X1738Y614D01*
X1740Y614D01*
X1740Y620D01*
X1742Y620D01*
X1742Y624D01*
X1744Y624D01*
X1744Y626D01*
X1746Y626D01*
X1746Y630D01*
X1748Y630D01*
X1748Y632D01*
X1750Y632D01*
X1750Y636D01*
X1446Y636D01*
G37*
D02*
G36*
X2046Y636D02*
X2046Y630D01*
X2048Y630D01*
X2048Y626D01*
X2050Y626D01*
X2050Y622D01*
X2052Y622D01*
X2052Y618D01*
X2054Y618D01*
X2054Y612D01*
X2056Y612D01*
X2056Y604D01*
X2058Y604D01*
X2058Y586D01*
X2056Y586D01*
X2056Y576D01*
X2054Y576D01*
X2054Y570D01*
X2052Y570D01*
X2052Y566D01*
X2050Y566D01*
X2050Y564D01*
X2048Y564D01*
X2048Y560D01*
X2046Y560D01*
X2046Y558D01*
X2044Y558D01*
X2044Y554D01*
X2042Y554D01*
X2042Y552D01*
X2040Y552D01*
X2040Y550D01*
X2038Y550D01*
X2038Y548D01*
X2036Y548D01*
X2036Y546D01*
X2032Y546D01*
X2032Y544D01*
X2030Y544D01*
X2030Y542D01*
X2026Y542D01*
X2026Y540D01*
X2024Y540D01*
X2024Y538D01*
X2020Y538D01*
X2020Y536D01*
X2014Y536D01*
X2014Y534D01*
X2004Y534D01*
X2004Y532D01*
X2390Y532D01*
X2390Y534D01*
X2380Y534D01*
X2380Y536D01*
X2374Y536D01*
X2374Y538D01*
X2370Y538D01*
X2370Y540D01*
X2366Y540D01*
X2366Y542D01*
X2364Y542D01*
X2364Y544D01*
X2360Y544D01*
X2360Y546D01*
X2358Y546D01*
X2358Y548D01*
X2356Y548D01*
X2356Y550D01*
X2354Y550D01*
X2354Y552D01*
X2352Y552D01*
X2352Y554D01*
X2350Y554D01*
X2350Y556D01*
X2348Y556D01*
X2348Y560D01*
X2346Y560D01*
X2346Y562D01*
X2344Y562D01*
X2344Y566D01*
X2342Y566D01*
X2342Y570D01*
X2340Y570D01*
X2340Y576D01*
X2338Y576D01*
X2338Y584D01*
X2336Y584D01*
X2336Y606D01*
X2338Y606D01*
X2338Y614D01*
X2340Y614D01*
X2340Y620D01*
X2342Y620D01*
X2342Y624D01*
X2344Y624D01*
X2344Y626D01*
X2346Y626D01*
X2346Y630D01*
X2348Y630D01*
X2348Y632D01*
X2350Y632D01*
X2350Y636D01*
X2046Y636D01*
G37*
D02*
G36*
X2646Y636D02*
X2646Y630D01*
X2648Y630D01*
X2648Y626D01*
X2650Y626D01*
X2650Y622D01*
X2652Y622D01*
X2652Y618D01*
X2654Y618D01*
X2654Y612D01*
X2656Y612D01*
X2656Y604D01*
X2658Y604D01*
X2658Y586D01*
X2656Y586D01*
X2656Y576D01*
X2654Y576D01*
X2654Y570D01*
X2652Y570D01*
X2652Y566D01*
X2650Y566D01*
X2650Y564D01*
X2648Y564D01*
X2648Y560D01*
X2646Y560D01*
X2646Y558D01*
X2644Y558D01*
X2644Y554D01*
X2642Y554D01*
X2642Y552D01*
X2640Y552D01*
X2640Y550D01*
X2638Y550D01*
X2638Y548D01*
X2636Y548D01*
X2636Y546D01*
X2632Y546D01*
X2632Y544D01*
X2630Y544D01*
X2630Y542D01*
X2626Y542D01*
X2626Y540D01*
X2624Y540D01*
X2624Y538D01*
X2620Y538D01*
X2620Y536D01*
X2614Y536D01*
X2614Y534D01*
X2604Y534D01*
X2604Y532D01*
X2990Y532D01*
X2990Y534D01*
X2980Y534D01*
X2980Y536D01*
X2974Y536D01*
X2974Y538D01*
X2970Y538D01*
X2970Y540D01*
X2966Y540D01*
X2966Y542D01*
X2964Y542D01*
X2964Y544D01*
X2960Y544D01*
X2960Y546D01*
X2958Y546D01*
X2958Y548D01*
X2956Y548D01*
X2956Y550D01*
X2954Y550D01*
X2954Y552D01*
X2952Y552D01*
X2952Y554D01*
X2950Y554D01*
X2950Y556D01*
X2948Y556D01*
X2948Y560D01*
X2946Y560D01*
X2946Y562D01*
X2944Y562D01*
X2944Y566D01*
X2942Y566D01*
X2942Y570D01*
X2940Y570D01*
X2940Y576D01*
X2938Y576D01*
X2938Y584D01*
X2936Y584D01*
X2936Y606D01*
X2938Y606D01*
X2938Y614D01*
X2940Y614D01*
X2940Y620D01*
X2942Y620D01*
X2942Y624D01*
X2944Y624D01*
X2944Y626D01*
X2946Y626D01*
X2946Y630D01*
X2948Y630D01*
X2948Y632D01*
X2950Y632D01*
X2950Y636D01*
X2646Y636D01*
G37*
D02*
G36*
X3246Y636D02*
X3246Y630D01*
X3248Y630D01*
X3248Y626D01*
X3250Y626D01*
X3250Y622D01*
X3252Y622D01*
X3252Y618D01*
X3254Y618D01*
X3254Y612D01*
X3256Y612D01*
X3256Y604D01*
X3258Y604D01*
X3258Y586D01*
X3256Y586D01*
X3256Y576D01*
X3254Y576D01*
X3254Y570D01*
X3252Y570D01*
X3252Y566D01*
X3250Y566D01*
X3250Y564D01*
X3248Y564D01*
X3248Y560D01*
X3246Y560D01*
X3246Y558D01*
X3244Y558D01*
X3244Y554D01*
X3242Y554D01*
X3242Y552D01*
X3240Y552D01*
X3240Y550D01*
X3238Y550D01*
X3238Y548D01*
X3236Y548D01*
X3236Y546D01*
X3232Y546D01*
X3232Y544D01*
X3230Y544D01*
X3230Y542D01*
X3226Y542D01*
X3226Y540D01*
X3224Y540D01*
X3224Y538D01*
X3220Y538D01*
X3220Y536D01*
X3214Y536D01*
X3214Y534D01*
X3204Y534D01*
X3204Y532D01*
X3552Y532D01*
X3552Y636D01*
X3246Y636D01*
G37*
D02*
G36*
X40Y532D02*
X40Y530D01*
X3552Y530D01*
X3552Y532D01*
X40Y532D01*
G37*
D02*
G36*
X40Y532D02*
X40Y530D01*
X3552Y530D01*
X3552Y532D01*
X40Y532D01*
G37*
D02*
G36*
X40Y532D02*
X40Y530D01*
X3552Y530D01*
X3552Y532D01*
X40Y532D01*
G37*
D02*
G36*
X40Y532D02*
X40Y530D01*
X3552Y530D01*
X3552Y532D01*
X40Y532D01*
G37*
D02*
G36*
X40Y532D02*
X40Y530D01*
X3552Y530D01*
X3552Y532D01*
X40Y532D01*
G37*
D02*
G36*
X40Y532D02*
X40Y530D01*
X3552Y530D01*
X3552Y532D01*
X40Y532D01*
G37*
D02*
G36*
X40Y532D02*
X40Y530D01*
X3552Y530D01*
X3552Y532D01*
X40Y532D01*
G37*
D02*
G36*
X40Y532D02*
X40Y530D01*
X3552Y530D01*
X3552Y532D01*
X40Y532D01*
G37*
D02*
G36*
X40Y532D02*
X40Y530D01*
X3552Y530D01*
X3552Y532D01*
X40Y532D01*
G37*
D02*
G36*
X40Y532D02*
X40Y530D01*
X3552Y530D01*
X3552Y532D01*
X40Y532D01*
G37*
D02*
G36*
X40Y532D02*
X40Y530D01*
X3552Y530D01*
X3552Y532D01*
X40Y532D01*
G37*
D02*
G36*
X40Y530D02*
X40Y178D01*
X3508Y178D01*
X3508Y176D01*
X3518Y176D01*
X3518Y174D01*
X3526Y174D01*
X3526Y172D01*
X3532Y172D01*
X3532Y170D01*
X3552Y170D01*
X3552Y530D01*
X40Y530D01*
G37*
D02*
G36*
X40Y178D02*
X40Y168D01*
X62Y168D01*
X62Y170D01*
X66Y170D01*
X66Y172D01*
X72Y172D01*
X72Y174D01*
X78Y174D01*
X78Y176D01*
X88Y176D01*
X88Y178D01*
X40Y178D01*
G37*
D02*
G36*
X108Y178D02*
X108Y176D01*
X118Y176D01*
X118Y174D01*
X126Y174D01*
X126Y172D01*
X132Y172D01*
X132Y170D01*
X136Y170D01*
X136Y168D01*
X140Y168D01*
X140Y166D01*
X3198Y166D01*
X3198Y164D01*
X3210Y164D01*
X3210Y162D01*
X3218Y162D01*
X3218Y160D01*
X3222Y160D01*
X3222Y158D01*
X3226Y158D01*
X3226Y156D01*
X3230Y156D01*
X3230Y154D01*
X3232Y154D01*
X3232Y152D01*
X3234Y152D01*
X3234Y150D01*
X3236Y150D01*
X3236Y148D01*
X3240Y148D01*
X3240Y146D01*
X3242Y146D01*
X3242Y142D01*
X3244Y142D01*
X3244Y140D01*
X3246Y140D01*
X3246Y138D01*
X3248Y138D01*
X3248Y134D01*
X3250Y134D01*
X3250Y130D01*
X3252Y130D01*
X3252Y126D01*
X3254Y126D01*
X3254Y120D01*
X3256Y120D01*
X3256Y112D01*
X3258Y112D01*
X3258Y94D01*
X3256Y94D01*
X3256Y84D01*
X3254Y84D01*
X3254Y78D01*
X3252Y78D01*
X3252Y74D01*
X3250Y74D01*
X3250Y72D01*
X3248Y72D01*
X3248Y68D01*
X3246Y68D01*
X3246Y66D01*
X3244Y66D01*
X3244Y62D01*
X3242Y62D01*
X3242Y42D01*
X3422Y42D01*
X3422Y66D01*
X3420Y66D01*
X3420Y70D01*
X3418Y70D01*
X3418Y80D01*
X3416Y80D01*
X3416Y110D01*
X3418Y110D01*
X3418Y118D01*
X3420Y118D01*
X3420Y124D01*
X3422Y124D01*
X3422Y130D01*
X3424Y130D01*
X3424Y134D01*
X3426Y134D01*
X3426Y136D01*
X3428Y136D01*
X3428Y140D01*
X3430Y140D01*
X3430Y142D01*
X3432Y142D01*
X3432Y146D01*
X3434Y146D01*
X3434Y148D01*
X3436Y148D01*
X3436Y150D01*
X3438Y150D01*
X3438Y152D01*
X3440Y152D01*
X3440Y154D01*
X3442Y154D01*
X3442Y156D01*
X3444Y156D01*
X3444Y158D01*
X3446Y158D01*
X3446Y160D01*
X3448Y160D01*
X3448Y162D01*
X3452Y162D01*
X3452Y164D01*
X3454Y164D01*
X3454Y166D01*
X3458Y166D01*
X3458Y168D01*
X3462Y168D01*
X3462Y170D01*
X3466Y170D01*
X3466Y172D01*
X3472Y172D01*
X3472Y174D01*
X3478Y174D01*
X3478Y176D01*
X3488Y176D01*
X3488Y178D01*
X108Y178D01*
G37*
D02*
G36*
X142Y166D02*
X142Y164D01*
X146Y164D01*
X146Y162D01*
X148Y162D01*
X148Y160D01*
X150Y160D01*
X150Y158D01*
X154Y158D01*
X154Y156D01*
X156Y156D01*
X156Y154D01*
X158Y154D01*
X158Y152D01*
X160Y152D01*
X160Y150D01*
X162Y150D01*
X162Y146D01*
X164Y146D01*
X164Y144D01*
X166Y144D01*
X166Y142D01*
X168Y142D01*
X168Y138D01*
X170Y138D01*
X170Y134D01*
X172Y134D01*
X172Y130D01*
X174Y130D01*
X174Y126D01*
X176Y126D01*
X176Y122D01*
X178Y122D01*
X178Y114D01*
X180Y114D01*
X180Y102D01*
X182Y102D01*
X182Y88D01*
X180Y88D01*
X180Y76D01*
X178Y76D01*
X178Y68D01*
X176Y68D01*
X176Y62D01*
X174Y62D01*
X174Y42D01*
X352Y42D01*
X352Y62D01*
X350Y62D01*
X350Y64D01*
X348Y64D01*
X348Y68D01*
X346Y68D01*
X346Y70D01*
X344Y70D01*
X344Y74D01*
X342Y74D01*
X342Y78D01*
X340Y78D01*
X340Y84D01*
X338Y84D01*
X338Y92D01*
X336Y92D01*
X336Y114D01*
X338Y114D01*
X338Y122D01*
X340Y122D01*
X340Y128D01*
X342Y128D01*
X342Y132D01*
X344Y132D01*
X344Y134D01*
X346Y134D01*
X346Y138D01*
X348Y138D01*
X348Y140D01*
X350Y140D01*
X350Y144D01*
X352Y144D01*
X352Y146D01*
X354Y146D01*
X354Y148D01*
X356Y148D01*
X356Y150D01*
X360Y150D01*
X360Y152D01*
X362Y152D01*
X362Y154D01*
X364Y154D01*
X364Y156D01*
X368Y156D01*
X368Y158D01*
X372Y158D01*
X372Y160D01*
X376Y160D01*
X376Y162D01*
X384Y162D01*
X384Y164D01*
X396Y164D01*
X396Y166D01*
X142Y166D01*
G37*
D02*
G36*
X400Y166D02*
X400Y164D01*
X414Y164D01*
X414Y162D01*
X420Y162D01*
X420Y160D01*
X426Y160D01*
X426Y158D01*
X428Y158D01*
X428Y156D01*
X432Y156D01*
X432Y154D01*
X436Y154D01*
X436Y152D01*
X438Y152D01*
X438Y150D01*
X440Y150D01*
X440Y148D01*
X442Y148D01*
X442Y146D01*
X444Y146D01*
X444Y144D01*
X446Y144D01*
X446Y142D01*
X448Y142D01*
X448Y138D01*
X450Y138D01*
X450Y136D01*
X452Y136D01*
X452Y132D01*
X454Y132D01*
X454Y128D01*
X456Y128D01*
X456Y124D01*
X458Y124D01*
X458Y118D01*
X460Y118D01*
X460Y88D01*
X458Y88D01*
X458Y82D01*
X456Y82D01*
X456Y76D01*
X454Y76D01*
X454Y72D01*
X452Y72D01*
X452Y70D01*
X450Y70D01*
X450Y66D01*
X448Y66D01*
X448Y64D01*
X446Y64D01*
X446Y62D01*
X444Y62D01*
X444Y42D01*
X548Y42D01*
X548Y64D01*
X546Y64D01*
X546Y66D01*
X544Y66D01*
X544Y68D01*
X542Y68D01*
X542Y72D01*
X540Y72D01*
X540Y76D01*
X538Y76D01*
X538Y80D01*
X536Y80D01*
X536Y86D01*
X534Y86D01*
X534Y98D01*
X532Y98D01*
X532Y106D01*
X534Y106D01*
X534Y118D01*
X536Y118D01*
X536Y126D01*
X538Y126D01*
X538Y130D01*
X540Y130D01*
X540Y134D01*
X542Y134D01*
X542Y136D01*
X544Y136D01*
X544Y140D01*
X546Y140D01*
X546Y142D01*
X548Y142D01*
X548Y144D01*
X550Y144D01*
X550Y146D01*
X552Y146D01*
X552Y148D01*
X554Y148D01*
X554Y150D01*
X556Y150D01*
X556Y152D01*
X558Y152D01*
X558Y154D01*
X562Y154D01*
X562Y156D01*
X564Y156D01*
X564Y158D01*
X568Y158D01*
X568Y160D01*
X574Y160D01*
X574Y162D01*
X580Y162D01*
X580Y164D01*
X594Y164D01*
X594Y166D01*
X400Y166D01*
G37*
D02*
G36*
X598Y166D02*
X598Y164D01*
X610Y164D01*
X610Y162D01*
X618Y162D01*
X618Y160D01*
X622Y160D01*
X622Y158D01*
X626Y158D01*
X626Y156D01*
X630Y156D01*
X630Y154D01*
X632Y154D01*
X632Y152D01*
X634Y152D01*
X634Y150D01*
X636Y150D01*
X636Y148D01*
X640Y148D01*
X640Y146D01*
X642Y146D01*
X642Y142D01*
X644Y142D01*
X644Y140D01*
X646Y140D01*
X646Y138D01*
X648Y138D01*
X648Y134D01*
X650Y134D01*
X650Y130D01*
X652Y130D01*
X652Y126D01*
X654Y126D01*
X654Y120D01*
X656Y120D01*
X656Y112D01*
X658Y112D01*
X658Y94D01*
X656Y94D01*
X656Y84D01*
X654Y84D01*
X654Y78D01*
X652Y78D01*
X652Y74D01*
X650Y74D01*
X650Y72D01*
X648Y72D01*
X648Y68D01*
X646Y68D01*
X646Y66D01*
X644Y66D01*
X644Y62D01*
X642Y62D01*
X642Y42D01*
X1152Y42D01*
X1152Y62D01*
X1150Y62D01*
X1150Y64D01*
X1148Y64D01*
X1148Y68D01*
X1146Y68D01*
X1146Y70D01*
X1144Y70D01*
X1144Y74D01*
X1142Y74D01*
X1142Y78D01*
X1140Y78D01*
X1140Y84D01*
X1138Y84D01*
X1138Y92D01*
X1136Y92D01*
X1136Y114D01*
X1138Y114D01*
X1138Y122D01*
X1140Y122D01*
X1140Y128D01*
X1142Y128D01*
X1142Y132D01*
X1144Y132D01*
X1144Y134D01*
X1146Y134D01*
X1146Y138D01*
X1148Y138D01*
X1148Y140D01*
X1150Y140D01*
X1150Y144D01*
X1152Y144D01*
X1152Y146D01*
X1154Y146D01*
X1154Y148D01*
X1156Y148D01*
X1156Y150D01*
X1160Y150D01*
X1160Y152D01*
X1162Y152D01*
X1162Y154D01*
X1164Y154D01*
X1164Y156D01*
X1168Y156D01*
X1168Y158D01*
X1172Y158D01*
X1172Y160D01*
X1176Y160D01*
X1176Y162D01*
X1184Y162D01*
X1184Y164D01*
X1196Y164D01*
X1196Y166D01*
X598Y166D01*
G37*
D02*
G36*
X1200Y166D02*
X1200Y164D01*
X1214Y164D01*
X1214Y162D01*
X1220Y162D01*
X1220Y160D01*
X1226Y160D01*
X1226Y158D01*
X1228Y158D01*
X1228Y156D01*
X1232Y156D01*
X1232Y154D01*
X1236Y154D01*
X1236Y152D01*
X1238Y152D01*
X1238Y150D01*
X1240Y150D01*
X1240Y148D01*
X1242Y148D01*
X1242Y146D01*
X1244Y146D01*
X1244Y144D01*
X1246Y144D01*
X1246Y142D01*
X1248Y142D01*
X1248Y138D01*
X1250Y138D01*
X1250Y136D01*
X1252Y136D01*
X1252Y132D01*
X1254Y132D01*
X1254Y128D01*
X1256Y128D01*
X1256Y124D01*
X1258Y124D01*
X1258Y118D01*
X1260Y118D01*
X1260Y88D01*
X1258Y88D01*
X1258Y82D01*
X1256Y82D01*
X1256Y76D01*
X1254Y76D01*
X1254Y72D01*
X1252Y72D01*
X1252Y70D01*
X1250Y70D01*
X1250Y66D01*
X1248Y66D01*
X1248Y64D01*
X1246Y64D01*
X1246Y62D01*
X1244Y62D01*
X1244Y42D01*
X1348Y42D01*
X1348Y64D01*
X1346Y64D01*
X1346Y66D01*
X1344Y66D01*
X1344Y68D01*
X1342Y68D01*
X1342Y72D01*
X1340Y72D01*
X1340Y76D01*
X1338Y76D01*
X1338Y80D01*
X1336Y80D01*
X1336Y86D01*
X1334Y86D01*
X1334Y98D01*
X1332Y98D01*
X1332Y106D01*
X1334Y106D01*
X1334Y118D01*
X1336Y118D01*
X1336Y126D01*
X1338Y126D01*
X1338Y130D01*
X1340Y130D01*
X1340Y134D01*
X1342Y134D01*
X1342Y136D01*
X1344Y136D01*
X1344Y140D01*
X1346Y140D01*
X1346Y142D01*
X1348Y142D01*
X1348Y144D01*
X1350Y144D01*
X1350Y146D01*
X1352Y146D01*
X1352Y148D01*
X1354Y148D01*
X1354Y150D01*
X1356Y150D01*
X1356Y152D01*
X1358Y152D01*
X1358Y154D01*
X1362Y154D01*
X1362Y156D01*
X1364Y156D01*
X1364Y158D01*
X1368Y158D01*
X1368Y160D01*
X1374Y160D01*
X1374Y162D01*
X1380Y162D01*
X1380Y164D01*
X1394Y164D01*
X1394Y166D01*
X1200Y166D01*
G37*
D02*
G36*
X1398Y166D02*
X1398Y164D01*
X1410Y164D01*
X1410Y162D01*
X1418Y162D01*
X1418Y160D01*
X1422Y160D01*
X1422Y158D01*
X1426Y158D01*
X1426Y156D01*
X1430Y156D01*
X1430Y154D01*
X1432Y154D01*
X1432Y152D01*
X1434Y152D01*
X1434Y150D01*
X1436Y150D01*
X1436Y148D01*
X1440Y148D01*
X1440Y146D01*
X1442Y146D01*
X1442Y142D01*
X1444Y142D01*
X1444Y140D01*
X1446Y140D01*
X1446Y138D01*
X1448Y138D01*
X1448Y134D01*
X1450Y134D01*
X1450Y130D01*
X1452Y130D01*
X1452Y126D01*
X1454Y126D01*
X1454Y120D01*
X1456Y120D01*
X1456Y112D01*
X1458Y112D01*
X1458Y94D01*
X1456Y94D01*
X1456Y84D01*
X1454Y84D01*
X1454Y78D01*
X1452Y78D01*
X1452Y74D01*
X1450Y74D01*
X1450Y72D01*
X1448Y72D01*
X1448Y68D01*
X1446Y68D01*
X1446Y66D01*
X1444Y66D01*
X1444Y62D01*
X1442Y62D01*
X1442Y42D01*
X1752Y42D01*
X1752Y62D01*
X1750Y62D01*
X1750Y64D01*
X1748Y64D01*
X1748Y68D01*
X1746Y68D01*
X1746Y70D01*
X1744Y70D01*
X1744Y74D01*
X1742Y74D01*
X1742Y78D01*
X1740Y78D01*
X1740Y84D01*
X1738Y84D01*
X1738Y92D01*
X1736Y92D01*
X1736Y114D01*
X1738Y114D01*
X1738Y122D01*
X1740Y122D01*
X1740Y128D01*
X1742Y128D01*
X1742Y132D01*
X1744Y132D01*
X1744Y134D01*
X1746Y134D01*
X1746Y138D01*
X1748Y138D01*
X1748Y140D01*
X1750Y140D01*
X1750Y144D01*
X1752Y144D01*
X1752Y146D01*
X1754Y146D01*
X1754Y148D01*
X1756Y148D01*
X1756Y150D01*
X1760Y150D01*
X1760Y152D01*
X1762Y152D01*
X1762Y154D01*
X1764Y154D01*
X1764Y156D01*
X1768Y156D01*
X1768Y158D01*
X1772Y158D01*
X1772Y160D01*
X1776Y160D01*
X1776Y162D01*
X1784Y162D01*
X1784Y164D01*
X1796Y164D01*
X1796Y166D01*
X1398Y166D01*
G37*
D02*
G36*
X1800Y166D02*
X1800Y164D01*
X1814Y164D01*
X1814Y162D01*
X1820Y162D01*
X1820Y160D01*
X1826Y160D01*
X1826Y158D01*
X1828Y158D01*
X1828Y156D01*
X1832Y156D01*
X1832Y154D01*
X1836Y154D01*
X1836Y152D01*
X1838Y152D01*
X1838Y150D01*
X1840Y150D01*
X1840Y148D01*
X1842Y148D01*
X1842Y146D01*
X1844Y146D01*
X1844Y144D01*
X1846Y144D01*
X1846Y142D01*
X1848Y142D01*
X1848Y138D01*
X1850Y138D01*
X1850Y136D01*
X1852Y136D01*
X1852Y132D01*
X1854Y132D01*
X1854Y128D01*
X1856Y128D01*
X1856Y124D01*
X1858Y124D01*
X1858Y118D01*
X1860Y118D01*
X1860Y88D01*
X1858Y88D01*
X1858Y82D01*
X1856Y82D01*
X1856Y76D01*
X1854Y76D01*
X1854Y72D01*
X1852Y72D01*
X1852Y70D01*
X1850Y70D01*
X1850Y66D01*
X1848Y66D01*
X1848Y64D01*
X1846Y64D01*
X1846Y62D01*
X1844Y62D01*
X1844Y42D01*
X1948Y42D01*
X1948Y64D01*
X1946Y64D01*
X1946Y66D01*
X1944Y66D01*
X1944Y68D01*
X1942Y68D01*
X1942Y72D01*
X1940Y72D01*
X1940Y76D01*
X1938Y76D01*
X1938Y80D01*
X1936Y80D01*
X1936Y86D01*
X1934Y86D01*
X1934Y98D01*
X1932Y98D01*
X1932Y106D01*
X1934Y106D01*
X1934Y118D01*
X1936Y118D01*
X1936Y126D01*
X1938Y126D01*
X1938Y130D01*
X1940Y130D01*
X1940Y134D01*
X1942Y134D01*
X1942Y136D01*
X1944Y136D01*
X1944Y140D01*
X1946Y140D01*
X1946Y142D01*
X1948Y142D01*
X1948Y144D01*
X1950Y144D01*
X1950Y146D01*
X1952Y146D01*
X1952Y148D01*
X1954Y148D01*
X1954Y150D01*
X1956Y150D01*
X1956Y152D01*
X1958Y152D01*
X1958Y154D01*
X1962Y154D01*
X1962Y156D01*
X1964Y156D01*
X1964Y158D01*
X1968Y158D01*
X1968Y160D01*
X1974Y160D01*
X1974Y162D01*
X1980Y162D01*
X1980Y164D01*
X1994Y164D01*
X1994Y166D01*
X1800Y166D01*
G37*
D02*
G36*
X1998Y166D02*
X1998Y164D01*
X2010Y164D01*
X2010Y162D01*
X2018Y162D01*
X2018Y160D01*
X2022Y160D01*
X2022Y158D01*
X2026Y158D01*
X2026Y156D01*
X2030Y156D01*
X2030Y154D01*
X2032Y154D01*
X2032Y152D01*
X2034Y152D01*
X2034Y150D01*
X2036Y150D01*
X2036Y148D01*
X2040Y148D01*
X2040Y146D01*
X2042Y146D01*
X2042Y142D01*
X2044Y142D01*
X2044Y140D01*
X2046Y140D01*
X2046Y138D01*
X2048Y138D01*
X2048Y134D01*
X2050Y134D01*
X2050Y130D01*
X2052Y130D01*
X2052Y126D01*
X2054Y126D01*
X2054Y120D01*
X2056Y120D01*
X2056Y112D01*
X2058Y112D01*
X2058Y94D01*
X2056Y94D01*
X2056Y84D01*
X2054Y84D01*
X2054Y78D01*
X2052Y78D01*
X2052Y74D01*
X2050Y74D01*
X2050Y72D01*
X2048Y72D01*
X2048Y68D01*
X2046Y68D01*
X2046Y66D01*
X2044Y66D01*
X2044Y62D01*
X2042Y62D01*
X2042Y42D01*
X2352Y42D01*
X2352Y62D01*
X2350Y62D01*
X2350Y64D01*
X2348Y64D01*
X2348Y68D01*
X2346Y68D01*
X2346Y70D01*
X2344Y70D01*
X2344Y74D01*
X2342Y74D01*
X2342Y78D01*
X2340Y78D01*
X2340Y84D01*
X2338Y84D01*
X2338Y92D01*
X2336Y92D01*
X2336Y114D01*
X2338Y114D01*
X2338Y122D01*
X2340Y122D01*
X2340Y128D01*
X2342Y128D01*
X2342Y132D01*
X2344Y132D01*
X2344Y134D01*
X2346Y134D01*
X2346Y138D01*
X2348Y138D01*
X2348Y140D01*
X2350Y140D01*
X2350Y144D01*
X2352Y144D01*
X2352Y146D01*
X2354Y146D01*
X2354Y148D01*
X2356Y148D01*
X2356Y150D01*
X2360Y150D01*
X2360Y152D01*
X2362Y152D01*
X2362Y154D01*
X2364Y154D01*
X2364Y156D01*
X2368Y156D01*
X2368Y158D01*
X2372Y158D01*
X2372Y160D01*
X2376Y160D01*
X2376Y162D01*
X2384Y162D01*
X2384Y164D01*
X2396Y164D01*
X2396Y166D01*
X1998Y166D01*
G37*
D02*
G36*
X2400Y166D02*
X2400Y164D01*
X2414Y164D01*
X2414Y162D01*
X2420Y162D01*
X2420Y160D01*
X2426Y160D01*
X2426Y158D01*
X2428Y158D01*
X2428Y156D01*
X2432Y156D01*
X2432Y154D01*
X2436Y154D01*
X2436Y152D01*
X2438Y152D01*
X2438Y150D01*
X2440Y150D01*
X2440Y148D01*
X2442Y148D01*
X2442Y146D01*
X2444Y146D01*
X2444Y144D01*
X2446Y144D01*
X2446Y142D01*
X2448Y142D01*
X2448Y138D01*
X2450Y138D01*
X2450Y136D01*
X2452Y136D01*
X2452Y132D01*
X2454Y132D01*
X2454Y128D01*
X2456Y128D01*
X2456Y124D01*
X2458Y124D01*
X2458Y118D01*
X2460Y118D01*
X2460Y88D01*
X2458Y88D01*
X2458Y82D01*
X2456Y82D01*
X2456Y76D01*
X2454Y76D01*
X2454Y72D01*
X2452Y72D01*
X2452Y70D01*
X2450Y70D01*
X2450Y66D01*
X2448Y66D01*
X2448Y64D01*
X2446Y64D01*
X2446Y62D01*
X2444Y62D01*
X2444Y42D01*
X2548Y42D01*
X2548Y64D01*
X2546Y64D01*
X2546Y66D01*
X2544Y66D01*
X2544Y68D01*
X2542Y68D01*
X2542Y72D01*
X2540Y72D01*
X2540Y76D01*
X2538Y76D01*
X2538Y80D01*
X2536Y80D01*
X2536Y86D01*
X2534Y86D01*
X2534Y98D01*
X2532Y98D01*
X2532Y106D01*
X2534Y106D01*
X2534Y118D01*
X2536Y118D01*
X2536Y126D01*
X2538Y126D01*
X2538Y130D01*
X2540Y130D01*
X2540Y134D01*
X2542Y134D01*
X2542Y136D01*
X2544Y136D01*
X2544Y140D01*
X2546Y140D01*
X2546Y142D01*
X2548Y142D01*
X2548Y144D01*
X2550Y144D01*
X2550Y146D01*
X2552Y146D01*
X2552Y148D01*
X2554Y148D01*
X2554Y150D01*
X2556Y150D01*
X2556Y152D01*
X2558Y152D01*
X2558Y154D01*
X2562Y154D01*
X2562Y156D01*
X2564Y156D01*
X2564Y158D01*
X2568Y158D01*
X2568Y160D01*
X2574Y160D01*
X2574Y162D01*
X2580Y162D01*
X2580Y164D01*
X2594Y164D01*
X2594Y166D01*
X2400Y166D01*
G37*
D02*
G36*
X2598Y166D02*
X2598Y164D01*
X2610Y164D01*
X2610Y162D01*
X2618Y162D01*
X2618Y160D01*
X2622Y160D01*
X2622Y158D01*
X2626Y158D01*
X2626Y156D01*
X2630Y156D01*
X2630Y154D01*
X2632Y154D01*
X2632Y152D01*
X2634Y152D01*
X2634Y150D01*
X2636Y150D01*
X2636Y148D01*
X2640Y148D01*
X2640Y146D01*
X2642Y146D01*
X2642Y142D01*
X2644Y142D01*
X2644Y140D01*
X2646Y140D01*
X2646Y138D01*
X2648Y138D01*
X2648Y134D01*
X2650Y134D01*
X2650Y130D01*
X2652Y130D01*
X2652Y126D01*
X2654Y126D01*
X2654Y120D01*
X2656Y120D01*
X2656Y112D01*
X2658Y112D01*
X2658Y94D01*
X2656Y94D01*
X2656Y84D01*
X2654Y84D01*
X2654Y78D01*
X2652Y78D01*
X2652Y74D01*
X2650Y74D01*
X2650Y72D01*
X2648Y72D01*
X2648Y68D01*
X2646Y68D01*
X2646Y66D01*
X2644Y66D01*
X2644Y62D01*
X2642Y62D01*
X2642Y42D01*
X2952Y42D01*
X2952Y62D01*
X2950Y62D01*
X2950Y64D01*
X2948Y64D01*
X2948Y68D01*
X2946Y68D01*
X2946Y70D01*
X2944Y70D01*
X2944Y74D01*
X2942Y74D01*
X2942Y78D01*
X2940Y78D01*
X2940Y84D01*
X2938Y84D01*
X2938Y92D01*
X2936Y92D01*
X2936Y114D01*
X2938Y114D01*
X2938Y122D01*
X2940Y122D01*
X2940Y128D01*
X2942Y128D01*
X2942Y132D01*
X2944Y132D01*
X2944Y134D01*
X2946Y134D01*
X2946Y138D01*
X2948Y138D01*
X2948Y140D01*
X2950Y140D01*
X2950Y144D01*
X2952Y144D01*
X2952Y146D01*
X2954Y146D01*
X2954Y148D01*
X2956Y148D01*
X2956Y150D01*
X2960Y150D01*
X2960Y152D01*
X2962Y152D01*
X2962Y154D01*
X2964Y154D01*
X2964Y156D01*
X2968Y156D01*
X2968Y158D01*
X2972Y158D01*
X2972Y160D01*
X2976Y160D01*
X2976Y162D01*
X2984Y162D01*
X2984Y164D01*
X2996Y164D01*
X2996Y166D01*
X2598Y166D01*
G37*
D02*
G36*
X3000Y166D02*
X3000Y164D01*
X3014Y164D01*
X3014Y162D01*
X3020Y162D01*
X3020Y160D01*
X3026Y160D01*
X3026Y158D01*
X3028Y158D01*
X3028Y156D01*
X3032Y156D01*
X3032Y154D01*
X3036Y154D01*
X3036Y152D01*
X3038Y152D01*
X3038Y150D01*
X3040Y150D01*
X3040Y148D01*
X3042Y148D01*
X3042Y146D01*
X3044Y146D01*
X3044Y144D01*
X3046Y144D01*
X3046Y142D01*
X3048Y142D01*
X3048Y138D01*
X3050Y138D01*
X3050Y136D01*
X3052Y136D01*
X3052Y132D01*
X3054Y132D01*
X3054Y128D01*
X3056Y128D01*
X3056Y124D01*
X3058Y124D01*
X3058Y118D01*
X3060Y118D01*
X3060Y88D01*
X3058Y88D01*
X3058Y82D01*
X3056Y82D01*
X3056Y76D01*
X3054Y76D01*
X3054Y72D01*
X3052Y72D01*
X3052Y70D01*
X3050Y70D01*
X3050Y66D01*
X3048Y66D01*
X3048Y64D01*
X3046Y64D01*
X3046Y62D01*
X3044Y62D01*
X3044Y42D01*
X3148Y42D01*
X3148Y64D01*
X3146Y64D01*
X3146Y66D01*
X3144Y66D01*
X3144Y68D01*
X3142Y68D01*
X3142Y72D01*
X3140Y72D01*
X3140Y76D01*
X3138Y76D01*
X3138Y80D01*
X3136Y80D01*
X3136Y86D01*
X3134Y86D01*
X3134Y98D01*
X3132Y98D01*
X3132Y106D01*
X3134Y106D01*
X3134Y118D01*
X3136Y118D01*
X3136Y126D01*
X3138Y126D01*
X3138Y130D01*
X3140Y130D01*
X3140Y134D01*
X3142Y134D01*
X3142Y136D01*
X3144Y136D01*
X3144Y140D01*
X3146Y140D01*
X3146Y142D01*
X3148Y142D01*
X3148Y144D01*
X3150Y144D01*
X3150Y146D01*
X3152Y146D01*
X3152Y148D01*
X3154Y148D01*
X3154Y150D01*
X3156Y150D01*
X3156Y152D01*
X3158Y152D01*
X3158Y154D01*
X3162Y154D01*
X3162Y156D01*
X3164Y156D01*
X3164Y158D01*
X3168Y158D01*
X3168Y160D01*
X3174Y160D01*
X3174Y162D01*
X3180Y162D01*
X3180Y164D01*
X3194Y164D01*
X3194Y166D01*
X3000Y166D01*
G37*
D02*
G36*
X374Y1152D02*
X421Y1152D01*
X421Y1118D01*
X374Y1118D01*
X374Y1152D01*
G37*
D02*
G36*
X374Y1076D02*
X421Y1076D01*
X421Y1034D01*
X374Y1034D01*
X374Y1076D01*
G37*
D02*
G36*
X332Y1120D02*
X376Y1120D01*
X376Y1073D01*
X332Y1073D01*
X332Y1120D01*
G37*
D02*
G36*
X373Y662D02*
X422Y662D01*
X422Y620D01*
X373Y620D01*
X373Y662D01*
G37*
D02*
G36*
X373Y574D02*
X422Y574D01*
X422Y532D01*
X373Y532D01*
X373Y574D01*
G37*
D02*
G36*
X332Y620D02*
X374Y620D01*
X374Y573D01*
X332Y573D01*
X332Y620D01*
G37*
D02*
G36*
X420Y620D02*
X460Y620D01*
X460Y573D01*
X420Y573D01*
X420Y620D01*
G37*
D02*
G36*
X1173Y662D02*
X1222Y662D01*
X1222Y620D01*
X1173Y620D01*
X1173Y662D01*
G37*
D02*
G36*
X1173Y574D02*
X1222Y574D01*
X1222Y532D01*
X1173Y532D01*
X1173Y574D01*
G37*
D02*
G36*
X1132Y620D02*
X1174Y620D01*
X1174Y573D01*
X1132Y573D01*
X1132Y620D01*
G37*
D02*
G36*
X1220Y620D02*
X1260Y620D01*
X1260Y573D01*
X1220Y573D01*
X1220Y620D01*
G37*
D02*
G36*
X1773Y662D02*
X1822Y662D01*
X1822Y620D01*
X1773Y620D01*
X1773Y662D01*
G37*
D02*
G36*
X1773Y574D02*
X1822Y574D01*
X1822Y532D01*
X1773Y532D01*
X1773Y574D01*
G37*
D02*
G36*
X1732Y620D02*
X1774Y620D01*
X1774Y573D01*
X1732Y573D01*
X1732Y620D01*
G37*
D02*
G36*
X1820Y620D02*
X1860Y620D01*
X1860Y573D01*
X1820Y573D01*
X1820Y620D01*
G37*
D02*
G36*
X2371Y662D02*
X2420Y662D01*
X2420Y620D01*
X2371Y620D01*
X2371Y662D01*
G37*
D02*
G36*
X2371Y574D02*
X2420Y574D01*
X2420Y532D01*
X2371Y532D01*
X2371Y574D01*
G37*
D02*
G36*
X2332Y620D02*
X2372Y620D01*
X2372Y573D01*
X2332Y573D01*
X2332Y620D01*
G37*
D02*
G36*
X2418Y620D02*
X2460Y620D01*
X2460Y573D01*
X2418Y573D01*
X2418Y620D01*
G37*
D02*
G36*
X2971Y662D02*
X3020Y662D01*
X3020Y620D01*
X2971Y620D01*
X2971Y662D01*
G37*
D02*
G36*
X2971Y574D02*
X3020Y574D01*
X3020Y532D01*
X2971Y532D01*
X2971Y574D01*
G37*
D02*
G36*
X2932Y620D02*
X2972Y620D01*
X2972Y573D01*
X2932Y573D01*
X2932Y620D01*
G37*
D02*
G36*
X3018Y620D02*
X3060Y620D01*
X3060Y573D01*
X3018Y573D01*
X3018Y620D01*
G37*
D02*
G04 End of Copper0*
M02*