; NON-PLATED HOLES START AT T1
; THROUGH (PLATED) HOLES START AT T100
M48
INCH
T1C0.125984
T100C0.035000
T101C0.047244
T102C0.043307
%
T1
X000984Y000944
X018984Y008944
X034984Y010944
X034984Y000944
X000984Y010944
T100
X025984Y006944
X015984Y006944
X031984Y006944
X019984Y006944
X009984Y006944
X027984Y006944
X032984Y010944
X021984Y006944
X032984Y006944
X013984Y006944
T101
X017984Y005944
X003984Y001022
X013952Y001022
X019952Y005944
X025952Y001022
X023984Y001022
X013952Y005944
X011984Y001022
X019952Y001022
X005952Y005944
X025952Y005944
X017984Y001022
X029984Y001022
X031952Y005944
X023984Y005944
X011984Y005944
X029984Y005944
X031952Y001022
X003984Y005944
X005952Y001022
T102
X005984Y010944
X003984Y010944
X004984Y010944
T00
M30
